M48
; DRILL file {KiCad 9.0.1} date 2025-07-04T13:23:47-0400
; FORMAT={-:-/ absolute / inch / decimal}
; #@! TF.CreationDate,2025-07-04T13:23:47-04:00
; #@! TF.GenerationSoftware,Kicad,Pcbnew,9.0.1
; #@! TF.FileFunction,Plated,1,2,PTH
FMAT,2
INCH
; #@! TA.AperFunction,Plated,PTH,ViaDrill
T1C0.0118
; #@! TA.AperFunction,Plated,PTH,ViaDrill
T2C0.0197
; #@! TA.AperFunction,Plated,PTH,ComponentDrill
T3C0.0295
; #@! TA.AperFunction,Plated,PTH,ComponentDrill
T4C0.0315
; #@! TA.AperFunction,Plated,PTH,ComponentDrill
T5C0.0394
; #@! TA.AperFunction,Plated,PTH,ComponentDrill
T6C0.0433
; #@! TA.AperFunction,Plated,PTH,ComponentDrill
T7C0.0512
; #@! TA.AperFunction,Plated,PTH,ComponentDrill
T8C0.0629
%
G90
G05
T1
X5.3016Y-2.4724
X5.3016Y-2.5492
X5.3035Y-2.6248
X5.3035Y-2.7248
X5.3035Y-2.8248
X5.3035Y-2.9248
X5.3035Y-3.0248
X5.3035Y-3.1102
X5.3035Y-3.1906
X5.3035Y-3.2906
X5.3035Y-3.376
X5.4016Y-2.4724
X5.4016Y-2.5492
X5.4035Y-2.6248
X5.4035Y-2.7248
X5.4035Y-2.8248
X5.4035Y-2.9248
X5.4035Y-3.0248
X5.4035Y-3.1102
X5.4331Y-3.7583
X5.4862Y-2.5492
X5.4882Y-2.6248
X5.4882Y-2.7248
X5.4882Y-2.8248
X5.4882Y-2.9248
X5.4882Y-3.0248
X5.4882Y-3.1102
X5.5016Y-2.4724
X5.6016Y-2.4724
X5.6016Y-2.5354
X5.6201Y-2.6142
X5.6201Y-2.6772
X5.7016Y-2.4724
X5.7016Y-2.5354
X5.7185Y-2.6142
X5.7185Y-2.6772
X5.748Y-2.9016
X5.8016Y-2.4724
X5.8016Y-2.5354
X5.8031Y-2.6142
X5.8031Y-2.6772
X5.8169Y-2.9016
X5.8169Y-2.9764
X5.8661Y-3.1807
X5.8661Y-3.2807
X5.8661Y-3.3661
X5.9016Y-2.4724
X5.9016Y-2.5354
X5.9213Y-3.4961
X6.0016Y-2.4724
X6.0016Y-2.5354
X6.1016Y-2.4724
X6.1016Y-2.5354
X6.1417Y-3.061
X6.1516Y-2.8248
X6.1516Y-2.9331
X6.2303Y-2.9331
X6.2303Y-2.9921
X6.2303Y-3.061
X6.2756Y-3.4961
X6.3091Y-2.9331
X6.311Y-3.5551
X6.3287Y-3.061
X6.3661Y-2.9921
X6.4291Y-3.0512
X6.4882Y-3.1142
X6.5276Y-3.7402
X6.5354Y-4.1102
X6.5669Y-4.9055
X6.5787Y-3.1142
X6.6063Y-4.4724
X6.622Y-3.4941
X6.6614Y-3.1142
X6.7087Y-2.6605
X6.752Y-3.1142
X6.7618Y-3.2185
X6.8406Y-3.1496
X6.874Y-3.6614
X6.9094Y-3.3563
X6.9783Y-3.2972
X6.9783Y-3.3563
X7.0472Y-3.2283
X7.0472Y-3.2874
X7.0472Y-3.3563
X7.0571Y-3.1693
X7.1161Y-3.1102
X7.1161Y-3.1693
X7.1161Y-3.2283
X7.1161Y-3.2874
X7.1161Y-3.3563
T2
X4.874Y-3.2283
X5.4016Y-3.2205
X6.0039Y-4.8425
X6.0827Y-4.0453
X6.315Y-3.8976
X6.4764Y-3.2303
X6.4902Y-3.3878
X6.5394Y-3.2303
X6.5674Y-4.7239
X6.5906Y-3.2303
X6.6142Y-3.2835
X6.6142Y-3.3307
X6.6142Y-3.9075
X6.6417Y-3.2303
X6.6457Y-4.0157
X6.6693Y-3.2835
X6.6929Y-4.6614
X6.7008Y-4.2126
T3
X4.872Y-4.8272
X4.8819Y-4.0453
X4.8819Y-4.2717
X4.8819Y-4.4882
X4.922Y-4.7772
X4.9319Y-3.9953
X4.9319Y-4.2217
X4.9319Y-4.4382
X4.972Y-4.8272
X4.9819Y-4.0453
X4.9819Y-4.2717
X4.9819Y-4.4882
X5.0287Y-3.8224
X5.0787Y-3.7724
X5.1287Y-3.8224
X5.3051Y-3.7583
X5.3051Y-3.8583
X5.3551Y-3.8083
X5.5315Y-3.7591
X5.5315Y-3.8591
X5.5815Y-3.8091
X6.328Y-4.8228
X6.3378Y-4.0256
X6.378Y-4.8728
X6.3878Y-4.0756
X6.428Y-4.8228
X6.4378Y-4.0256
X6.4469Y-4.2512
X6.4469Y-4.3512
X6.4469Y-4.5161
X6.4469Y-4.6161
X6.4969Y-4.3012
X6.4969Y-4.5661
T4
X5.8268Y-3.8583
X5.9268Y-3.9583
X6.0268Y-3.8583
T5
X7.0177Y-3.813
X7.0177Y-3.913
X7.0177Y-4.013
X7.0177Y-4.113
X7.0177Y-4.213
X7.0177Y-4.313
X7.0177Y-4.413
X7.0177Y-4.513
X7.0177Y-4.613
X7.0177Y-4.713
X7.0177Y-4.813
T6
X6.0417Y-3.2892
X6.1417Y-3.2892
X6.2417Y-3.2892
T7
X4.9606Y-2.8642
X4.9606Y-3.0642
X6.3175Y-2.6605
X6.5175Y-2.6605
T8
X5.3839Y-4.5079
X5.4233Y-4.3505
X5.4233Y-4.6653
X5.5611Y-4.2816
X5.5611Y-4.7342
X5.7382Y-4.2816
X5.7382Y-4.7342
X5.9153Y-4.2816
X5.9153Y-4.7342
X6.0531Y-4.3505
X6.0531Y-4.6653
X6.0925Y-4.5079
T5
G00X6.7717Y-2.9232
M15
G01X6.7717Y-2.8445
M16
G05
G00X6.9173Y-2.7657
M15
G01X6.9961Y-2.7657
M16
G05
G00X6.9075Y-3.002
M15
G01X7.0059Y-3.002
M16
G05
M30
