M48
; DRILL file {KiCad 9.0.1} date 2025-06-28T16:23:07-0400
; FORMAT={-:-/ absolute / inch / decimal}
; #@! TF.CreationDate,2025-06-28T16:23:07-04:00
; #@! TF.GenerationSoftware,Kicad,Pcbnew,9.0.1
; #@! TF.FileFunction,Plated,1,2,PTH
FMAT,2
INCH
; #@! TA.AperFunction,Plated,PTH,ViaDrill
T1C0.0118
; #@! TA.AperFunction,Plated,PTH,ViaDrill
T2C0.0197
; #@! TA.AperFunction,Plated,PTH,ComponentDrill
T3C0.0295
; #@! TA.AperFunction,Plated,PTH,ComponentDrill
T4C0.0394
; #@! TA.AperFunction,Plated,PTH,ComponentDrill
T5C0.0433
; #@! TA.AperFunction,Plated,PTH,ComponentDrill
T6C0.0512
; #@! TA.AperFunction,Plated,PTH,ComponentDrill
T7C0.0629
%
G90
G05
T1
X4.9291Y-4.2677
X4.937Y-4.8268
X5.2756Y-3.7591
X5.3016Y-2.4724
X5.3016Y-2.5492
X5.3035Y-2.6248
X5.3035Y-2.7248
X5.3035Y-2.8248
X5.3035Y-2.9248
X5.3035Y-3.0248
X5.3035Y-3.1102
X5.4016Y-2.4724
X5.4016Y-2.5492
X5.4035Y-2.6248
X5.4035Y-2.7248
X5.4035Y-2.8248
X5.4035Y-2.9248
X5.4035Y-3.0248
X5.4035Y-3.1102
X5.4862Y-2.5492
X5.4882Y-2.6248
X5.4882Y-2.7248
X5.4882Y-2.8248
X5.4882Y-2.9248
X5.4882Y-3.0248
X5.4882Y-3.1102
X5.5016Y-2.4724
X5.5118Y-3.7583
X5.6016Y-2.4724
X5.6016Y-2.5354
X5.6457Y-2.6142
X5.6457Y-2.6772
X5.7016Y-2.4724
X5.7016Y-2.5354
X5.748Y-3.7583
X5.8016Y-2.4724
X5.8016Y-2.5354
X5.8031Y-2.6142
X5.8031Y-2.6772
X5.8346Y-2.9016
X5.8346Y-2.9764
X5.8622Y-3.2008
X5.8622Y-3.2756
X5.8622Y-3.3583
X5.8622Y-3.4449
X5.9016Y-2.4724
X5.9016Y-2.5354
X5.9331Y-3.3622
X5.9843Y-3.2008
X5.9843Y-3.2717
X6.0016Y-2.4724
X6.0016Y-2.5354
X6.0079Y-3.3465
X6.1016Y-2.4724
X6.1016Y-2.5354
X6.1496Y-2.7953
X6.1496Y-2.8701
X6.2126Y-3.9055
X6.2323Y-2.9173
X6.2756Y-3.4961
X6.311Y-3.5551
X6.3661Y-2.9921
X6.4291Y-3.0512
X6.4882Y-3.1142
X6.5276Y-3.7402
X6.5354Y-4.1102
X6.5669Y-4.9055
X6.5787Y-3.1142
X6.6063Y-4.4724
X6.622Y-3.4941
X6.6614Y-3.1142
X6.7087Y-2.6605
X6.752Y-3.1142
X6.8346Y-3.1142
X6.874Y-3.6614
T2
X4.874Y-3.2283
X5.4016Y-3.2205
X6.0394Y-3.9528
X6.0866Y-4.7244
X6.315Y-3.8976
X6.5674Y-4.7239
X6.6142Y-3.9075
X6.6457Y-4.0157
X6.6772Y-3.315
X6.6929Y-4.6614
X6.7008Y-4.2126
X6.7795Y-3.2205
T3
X4.9787Y-4.4193
X4.9795Y-4.148
X5.0287Y-4.3693
X5.0295Y-4.098
X5.0484Y-4.8272
X5.0787Y-4.4193
X5.0795Y-4.148
X5.0984Y-4.7772
X5.1449Y-3.7591
X5.1449Y-3.8591
X5.1484Y-4.8272
X5.1949Y-3.8091
X5.3756Y-3.7583
X5.3756Y-3.8583
X5.4256Y-3.8083
X5.6118Y-3.7583
X5.6118Y-3.8583
X5.6618Y-3.8083
X5.8555Y-3.7591
X5.8555Y-3.8591
X5.9055Y-3.8091
X6.328Y-4.8228
X6.3378Y-4.0256
X6.378Y-4.8728
X6.3878Y-4.0756
X6.428Y-4.8228
X6.4378Y-4.0256
X6.4469Y-4.2512
X6.4469Y-4.3512
X6.4469Y-4.5161
X6.4469Y-4.6161
X6.4969Y-4.3012
X6.4969Y-4.5661
T4
X7.0177Y-3.813
X7.0177Y-3.913
X7.0177Y-4.013
X7.0177Y-4.113
X7.0177Y-4.213
X7.0177Y-4.313
X7.0177Y-4.413
X7.0177Y-4.513
X7.0177Y-4.613
X7.0177Y-4.713
X7.0177Y-4.813
T5
X6.2598Y-3.0496
X6.2598Y-3.1496
X6.2598Y-3.2496
T6
X4.9606Y-2.8642
X4.9606Y-3.0642
X6.3175Y-2.6605
X6.5175Y-2.6605
T7
X5.3839Y-4.4193
X5.4233Y-4.2619
X5.4233Y-4.5767
X5.5611Y-4.193
X5.5611Y-4.6456
X5.7382Y-4.193
X5.7382Y-4.6456
X5.9153Y-4.193
X5.9153Y-4.6456
X6.0531Y-4.2619
X6.0531Y-4.5767
X6.0925Y-4.4193
T4
G00X6.7717Y-2.9232
M15
G01X6.7717Y-2.8445
M16
G05
G00X6.9173Y-2.7657
M15
G01X6.9961Y-2.7657
M16
G05
G00X6.9075Y-3.002
M15
G01X7.0059Y-3.002
M16
G05
M30
