%TF.GenerationSoftware,KiCad,Pcbnew,9.0.1*%
%TF.CreationDate,2025-06-28T16:11:33-04:00*%
%TF.ProjectId,nixie-hvdc,6e697869-652d-4687-9664-632e6b696361,rev?*%
%TF.SameCoordinates,Original*%
%TF.FileFunction,Copper,L2,Bot*%
%TF.FilePolarity,Positive*%
%FSLAX46Y46*%
G04 Gerber Fmt 4.6, Leading zero omitted, Abs format (unit mm)*
G04 Created by KiCad (PCBNEW 9.0.1) date 2025-06-28 16:11:33*
%MOMM*%
%LPD*%
G01*
G04 APERTURE LIST*
G04 Aperture macros list*
%AMRoundRect*
0 Rectangle with rounded corners*
0 $1 Rounding radius*
0 $2 $3 $4 $5 $6 $7 $8 $9 X,Y pos of 4 corners*
0 Add a 4 corners polygon primitive as box body*
4,1,4,$2,$3,$4,$5,$6,$7,$8,$9,$2,$3,0*
0 Add four circle primitives for the rounded corners*
1,1,$1+$1,$2,$3*
1,1,$1+$1,$4,$5*
1,1,$1+$1,$6,$7*
1,1,$1+$1,$8,$9*
0 Add four rect primitives between the rounded corners*
20,1,$1+$1,$2,$3,$4,$5,0*
20,1,$1+$1,$4,$5,$6,$7,0*
20,1,$1+$1,$6,$7,$8,$9,0*
20,1,$1+$1,$8,$9,$2,$3,0*%
G04 Aperture macros list end*
%TA.AperFunction,ComponentPad*%
%ADD10C,1.300000*%
%TD*%
%TA.AperFunction,ComponentPad*%
%ADD11R,1.300000X1.300000*%
%TD*%
%TA.AperFunction,ComponentPad*%
%ADD12O,2.250000X4.500000*%
%TD*%
%TA.AperFunction,ComponentPad*%
%ADD13O,4.500000X2.250000*%
%TD*%
%TA.AperFunction,ComponentPad*%
%ADD14O,5.000000X2.500000*%
%TD*%
%TA.AperFunction,ComponentPad*%
%ADD15C,2.397760*%
%TD*%
%TA.AperFunction,ComponentPad*%
%ADD16O,2.000000X1.905000*%
%TD*%
%TA.AperFunction,ComponentPad*%
%ADD17R,2.000000X1.905000*%
%TD*%
%TA.AperFunction,ComponentPad*%
%ADD18C,2.600000*%
%TD*%
%TA.AperFunction,ComponentPad*%
%ADD19RoundRect,0.250000X-1.050000X1.050000X-1.050000X-1.050000X1.050000X-1.050000X1.050000X1.050000X0*%
%TD*%
%TA.AperFunction,ComponentPad*%
%ADD20C,1.700000*%
%TD*%
%TA.AperFunction,ComponentPad*%
%ADD21R,1.700000X1.700000*%
%TD*%
%TA.AperFunction,ComponentPad*%
%ADD22RoundRect,0.250000X1.050000X1.050000X-1.050000X1.050000X-1.050000X-1.050000X1.050000X-1.050000X0*%
%TD*%
%TA.AperFunction,ViaPad*%
%ADD23C,0.600000*%
%TD*%
%TA.AperFunction,ViaPad*%
%ADD24C,1.000000*%
%TD*%
%TA.AperFunction,Conductor*%
%ADD25C,0.500000*%
%TD*%
%TA.AperFunction,Conductor*%
%ADD26C,0.300000*%
%TD*%
G04 APERTURE END LIST*
D10*
%TO.P,Q9,3,C*%
%TO.N,/NIXIE_DIGIT_4*%
X142540001Y-98000000D03*
%TO.P,Q9,2,B*%
%TO.N,Net-(Q9-B)*%
X143810001Y-96730000D03*
D11*
%TO.P,Q9,1,E*%
%TO.N,GND*%
X142540001Y-95460000D03*
%TD*%
D10*
%TO.P,Q2,3,C*%
%TO.N,/NIXIE_DIGIT_5*%
X148730000Y-98020000D03*
%TO.P,Q2,2,B*%
%TO.N,Net-(Q2-B)*%
X150000000Y-96750000D03*
D11*
%TO.P,Q2,1,E*%
%TO.N,GND*%
X148730000Y-95480000D03*
%TD*%
D12*
%TO.P,J2,3*%
%TO.N,unconnected-(J2-Pad3)*%
X172000000Y-73250000D03*
D13*
%TO.P,J2,2*%
%TO.N,GND*%
X176700000Y-70250000D03*
D14*
%TO.P,J2,1*%
%TO.N,+12V*%
X176700000Y-76250000D03*
%TD*%
D15*
%TO.P,NX1,LHDP,LHDP*%
%TO.N,/NIXIE_DIGIT_LHDP*%
X136750781Y-112250000D03*
%TO.P,NX1,A,A*%
%TO.N,Net-(NX1-PadA)*%
X137751540Y-116247960D03*
%TO.P,NX1,9,9*%
%TO.N,/NIXIE_DIGIT_9*%
X145750000Y-117998020D03*
%TO.P,NX1,8,8*%
%TO.N,/NIXIE_DIGIT_8*%
X150248340Y-117998020D03*
%TO.P,NX1,7,7*%
%TO.N,/NIXIE_DIGIT_7*%
X153748460Y-116247960D03*
%TO.P,NX1,6,6*%
%TO.N,/NIXIE_DIGIT_6*%
X154749219Y-112250000D03*
%TO.P,NX1,5,5*%
%TO.N,/NIXIE_DIGIT_5*%
X153748460Y-108252040D03*
%TO.P,NX1,4,4*%
%TO.N,/NIXIE_DIGIT_4*%
X150248340Y-106501980D03*
%TO.P,NX1,3,3*%
%TO.N,/NIXIE_DIGIT_3*%
X145750000Y-106501980D03*
%TO.P,NX1,2,2*%
%TO.N,/NIXIE_DIGIT_2*%
X141251660Y-106501980D03*
%TO.P,NX1,1,1*%
%TO.N,/NIXIE_DIGIT_1*%
X137751540Y-108252040D03*
%TO.P,NX1,0,0*%
%TO.N,/NIXIE_DIGIT_0*%
X141251660Y-117998020D03*
%TD*%
D10*
%TO.P,Q7,3,C*%
%TO.N,/NIXIE_DIGIT_3*%
X136540001Y-98000000D03*
%TO.P,Q7,2,B*%
%TO.N,Net-(Q7-B)*%
X137810001Y-96730000D03*
D11*
%TO.P,Q7,1,E*%
%TO.N,GND*%
X136540001Y-95460000D03*
%TD*%
D10*
%TO.P,Q3,3,C*%
%TO.N,/NIXIE_DIGIT_1*%
X129020000Y-105360000D03*
%TO.P,Q3,2,B*%
%TO.N,Net-(Q3-B)*%
X127750000Y-104090000D03*
D11*
%TO.P,Q3,1,E*%
%TO.N,GND*%
X126480000Y-105360000D03*
%TD*%
D10*
%TO.P,Q1,3,C*%
%TO.N,/NIXIE_DIGIT_0*%
X130769999Y-122610000D03*
%TO.P,Q1,2,B*%
%TO.N,Net-(Q1-B)*%
X129499999Y-121340000D03*
D11*
%TO.P,Q1,1,E*%
%TO.N,GND*%
X128229999Y-122610000D03*
%TD*%
D16*
%TO.P,Q12,3,S*%
%TO.N,Net-(Q12-S)*%
X159000000Y-77460001D03*
%TO.P,Q12,2,D*%
%TO.N,Net-(D1-A)*%
X159000000Y-80000000D03*
D17*
%TO.P,Q12,1,G*%
%TO.N,Net-(Q12-G)*%
X159000000Y-82540000D03*
%TD*%
D10*
%TO.P,Q8,3,C*%
%TO.N,/NIXIE_DIGIT_8*%
X163750000Y-117250000D03*
%TO.P,Q8,2,B*%
%TO.N,Net-(Q8-B)*%
X165020000Y-115980000D03*
D11*
%TO.P,Q8,1,E*%
%TO.N,GND*%
X163750000Y-114710000D03*
%TD*%
D18*
%TO.P,J4,2,Pin_2*%
%TO.N,GND*%
X126000000Y-77829999D03*
D19*
%TO.P,J4,1,Pin_1*%
%TO.N,/180V*%
X126000000Y-72750000D03*
%TD*%
D10*
%TO.P,Q6,3,C*%
%TO.N,/NIXIE_DIGIT_7*%
X163750000Y-110520000D03*
%TO.P,Q6,2,B*%
%TO.N,Net-(Q6-B)*%
X165020000Y-109250000D03*
D11*
%TO.P,Q6,1,E*%
%TO.N,GND*%
X163750000Y-107980000D03*
%TD*%
D10*
%TO.P,Q5,3,C*%
%TO.N,/NIXIE_DIGIT_2*%
X130680002Y-98019999D03*
%TO.P,Q5,2,B*%
%TO.N,Net-(Q5-B)*%
X131950002Y-96749999D03*
D11*
%TO.P,Q5,1,E*%
%TO.N,GND*%
X130680002Y-95479999D03*
%TD*%
D10*
%TO.P,Q11,3,C*%
%TO.N,/NIXIE_DIGIT_LHDP*%
X129000000Y-112250000D03*
%TO.P,Q11,2,B*%
%TO.N,Net-(Q11-B)*%
X127730000Y-110980000D03*
D11*
%TO.P,Q11,1,E*%
%TO.N,GND*%
X126460000Y-112250000D03*
%TD*%
D20*
%TO.P,J1,11,Pin_11*%
%TO.N,/CTRL_DIGIT_1*%
X178250000Y-96850000D03*
%TO.P,J1,10,Pin_10*%
%TO.N,/CTRL_DIGIT_2*%
X178250000Y-99390000D03*
%TO.P,J1,9,Pin_9*%
%TO.N,/CTRL_DIGIT_3*%
X178250000Y-101930000D03*
%TO.P,J1,8,Pin_8*%
%TO.N,/CTRL_DIGIT_4*%
X178250000Y-104469999D03*
%TO.P,J1,7,Pin_7*%
%TO.N,/CTRL_DIGIT_5*%
X178250000Y-107010000D03*
%TO.P,J1,6,Pin_6*%
%TO.N,/CTRL_DIGIT_6*%
X178250000Y-109550000D03*
%TO.P,J1,5,Pin_5*%
%TO.N,/CTRL_DIGIT_7*%
X178250000Y-112090000D03*
%TO.P,J1,4,Pin_4*%
%TO.N,/CTRL_DIGIT_8*%
X178250000Y-114630000D03*
%TO.P,J1,3,Pin_3*%
%TO.N,/CTRL_DIGIT_9*%
X178250000Y-117170001D03*
%TO.P,J1,2,Pin_2*%
%TO.N,/CTRL_DIGIT_0*%
X178250000Y-119710000D03*
D21*
%TO.P,J1,1,Pin_1*%
%TO.N,/CTRL_DIGIT_LHDP*%
X178250000Y-122250000D03*
%TD*%
D10*
%TO.P,Q10,3,C*%
%TO.N,/NIXIE_DIGIT_9*%
X160730001Y-122500000D03*
%TO.P,Q10,2,B*%
%TO.N,Net-(Q10-B)*%
X162000001Y-123770000D03*
D11*
%TO.P,Q10,1,E*%
%TO.N,GND*%
X163270001Y-122500000D03*
%TD*%
D10*
%TO.P,Q4,3,C*%
%TO.N,/NIXIE_DIGIT_6*%
X160980001Y-102250000D03*
%TO.P,Q4,2,B*%
%TO.N,Net-(Q4-B)*%
X162250001Y-103520000D03*
D11*
%TO.P,Q4,1,E*%
%TO.N,GND*%
X163520001Y-102250000D03*
%TD*%
D18*
%TO.P,J3,2,Pin_2*%
%TO.N,+12V*%
X160465002Y-67577500D03*
D22*
%TO.P,J3,1,Pin_1*%
%TO.N,GND*%
X165545001Y-67577500D03*
%TD*%
D23*
%TO.N,GND*%
X148200000Y-73700000D03*
X148200000Y-75600000D03*
X134710000Y-79000000D03*
X137250000Y-79000000D03*
X139400000Y-79000000D03*
X147400000Y-66400000D03*
X147400000Y-68000000D03*
X143400000Y-68000000D03*
X143400000Y-66400000D03*
X150700000Y-85400000D03*
X148900000Y-87500000D03*
X148900000Y-85300000D03*
X148900000Y-83200000D03*
X152000000Y-83100000D03*
X152000000Y-81300000D03*
X148900000Y-81300000D03*
X158300000Y-74100000D03*
X156200000Y-72900000D03*
X156200000Y-71000000D03*
X173600000Y-79100000D03*
X171500000Y-79100000D03*
X169200000Y-79100000D03*
X167100000Y-79100000D03*
X164800000Y-79100000D03*
X163300000Y-77500000D03*
X161700000Y-76000000D03*
X154980000Y-64400000D03*
X152440000Y-64400000D03*
X149900000Y-64400000D03*
X147360000Y-64400000D03*
X144820000Y-64400000D03*
X142280000Y-64400000D03*
X139350000Y-64750000D03*
X137200000Y-64750000D03*
X134660000Y-64750000D03*
X154980000Y-62800000D03*
X152440000Y-62800000D03*
X149900000Y-62800000D03*
X147360000Y-62800000D03*
X144820000Y-62800000D03*
X142280000Y-62800000D03*
X139740000Y-62800000D03*
X137200000Y-62800000D03*
X134660000Y-62800000D03*
X137250000Y-76830000D03*
X134710000Y-76830000D03*
X139400000Y-74290000D03*
X137250000Y-74290000D03*
X134710000Y-74290000D03*
X139400000Y-71750000D03*
X137250000Y-71750000D03*
X134710000Y-71750000D03*
X139400000Y-69210000D03*
X137250000Y-69210000D03*
X134710000Y-69210000D03*
X139400000Y-66670000D03*
X137250000Y-66670000D03*
X134710000Y-66670000D03*
X139400000Y-76830000D03*
%TO.N,+12V*%
X159400000Y-88800000D03*
X168200000Y-88750000D03*
%TO.N,GND*%
X174600000Y-93000000D03*
X170400000Y-67577500D03*
X165800000Y-95000000D03*
D24*
X169600000Y-84200000D03*
D23*
X146000000Y-95460000D03*
D24*
X123800000Y-82000000D03*
X137200000Y-81800000D03*
D23*
X157800000Y-99200000D03*
X134000000Y-95479999D03*
X140000000Y-95460000D03*
X160300000Y-90300000D03*
X166000000Y-104400000D03*
X166800000Y-124600000D03*
X167800000Y-113600000D03*
X125200000Y-108400000D03*
X125400000Y-122600000D03*
D24*
X172200000Y-81800000D03*
D23*
X152600000Y-85000000D03*
D24*
%TO.N,Net-(Q1-B)*%
X166813173Y-119986827D03*
%TO.N,Net-(Q2-B)*%
X170200000Y-107000000D03*
%TO.N,Net-(Q3-B)*%
X160400000Y-99000000D03*
%TO.N,Net-(Q5-B)*%
X168000000Y-99250000D03*
%TO.N,Net-(Q7-B)*%
X168800000Y-102000000D03*
%TO.N,Net-(Q9-B)*%
X153400000Y-100400000D03*
%TO.N,Net-(Q10-B)*%
X170000000Y-118400000D03*
%TO.N,Net-(Q11-B)*%
X154600000Y-120000000D03*
%TD*%
D25*
%TO.N,+12V*%
X159450000Y-88750000D02*
X159400000Y-88800000D01*
X168200000Y-88750000D02*
X159450000Y-88750000D01*
%TO.N,GND*%
X164860000Y-113600000D02*
X167800000Y-113600000D01*
X163750000Y-114710000D02*
X164860000Y-113600000D01*
X166000000Y-104400000D02*
X166000000Y-105730000D01*
X166000000Y-105730000D02*
X163750000Y-107980000D01*
D26*
%TO.N,Net-(Q1-B)*%
X166800000Y-120000000D02*
X156400000Y-120000000D01*
X166813173Y-119986827D02*
X166800000Y-120000000D01*
X155060000Y-121340000D02*
X129499999Y-121340000D01*
X156400000Y-120000000D02*
X155060000Y-121340000D01*
%TO.N,Net-(Q2-B)*%
X160022001Y-96750000D02*
X170200000Y-106927999D01*
X170200000Y-106927999D02*
X170200000Y-107000000D01*
X150000000Y-96750000D02*
X160022001Y-96750000D01*
%TO.N,Net-(Q3-B)*%
X160400000Y-99000000D02*
X155310000Y-104090000D01*
X155310000Y-104090000D02*
X127750000Y-104090000D01*
%TO.N,Net-(Q5-B)*%
X131950002Y-94799998D02*
X134550000Y-92200000D01*
X160950000Y-92200000D02*
X168000000Y-99250000D01*
X131950002Y-96749999D02*
X131950002Y-94799998D01*
X134550000Y-92200000D02*
X160950000Y-92200000D01*
%TO.N,Net-(Q7-B)*%
X140400000Y-93200000D02*
X137810001Y-95789999D01*
X159200000Y-93200000D02*
X140400000Y-93200000D01*
X168800000Y-102000000D02*
X168000000Y-102000000D01*
X168000000Y-102000000D02*
X159200000Y-93200000D01*
X137810001Y-95789999D02*
X137810001Y-96730000D01*
%TO.N,Net-(Q9-B)*%
X153400000Y-100400000D02*
X147480001Y-100400000D01*
X147480001Y-100400000D02*
X143810001Y-96730000D01*
%TO.N,Net-(Q10-B)*%
X162000001Y-123770000D02*
X164657760Y-123770000D01*
X164657760Y-123770000D02*
X170000000Y-118427760D01*
X170000000Y-118427760D02*
X170000000Y-118400000D01*
%TO.N,Net-(Q11-B)*%
X154200000Y-120400000D02*
X136600000Y-120400000D01*
X154600000Y-120000000D02*
X154200000Y-120400000D01*
X134482814Y-118282814D02*
X134482814Y-114282814D01*
X131180000Y-110980000D02*
X127730000Y-110980000D01*
X136600000Y-120400000D02*
X134482814Y-118282814D01*
X134482814Y-114282814D02*
X131180000Y-110980000D01*
%TD*%
%TA.AperFunction,Conductor*%
%TO.N,GND*%
G36*
X181942539Y-62020185D02*
G01*
X181988294Y-62072989D01*
X181999500Y-62124500D01*
X181999500Y-125875500D01*
X181979815Y-125942539D01*
X181927011Y-125988294D01*
X181875500Y-125999500D01*
X120874500Y-125999500D01*
X120807461Y-125979815D01*
X120761706Y-125927011D01*
X120750500Y-125875500D01*
X120750500Y-111552155D01*
X125310000Y-111552155D01*
X125310000Y-112000000D01*
X126179670Y-112000000D01*
X126159925Y-112019745D01*
X126110556Y-112105255D01*
X126085000Y-112200630D01*
X126085000Y-112299370D01*
X126110556Y-112394745D01*
X126159925Y-112480255D01*
X126179670Y-112500000D01*
X125310000Y-112500000D01*
X125310000Y-112947844D01*
X125316401Y-113007372D01*
X125316403Y-113007379D01*
X125366645Y-113142086D01*
X125366649Y-113142093D01*
X125452809Y-113257187D01*
X125452812Y-113257190D01*
X125567906Y-113343350D01*
X125567913Y-113343354D01*
X125702620Y-113393596D01*
X125702627Y-113393598D01*
X125762155Y-113399999D01*
X125762172Y-113400000D01*
X126210000Y-113400000D01*
X126210000Y-112530330D01*
X126229745Y-112550075D01*
X126315255Y-112599444D01*
X126410630Y-112625000D01*
X126509370Y-112625000D01*
X126604745Y-112599444D01*
X126690255Y-112550075D01*
X126710000Y-112530330D01*
X126710000Y-113400000D01*
X127157828Y-113400000D01*
X127157844Y-113399999D01*
X127217372Y-113393598D01*
X127217379Y-113393596D01*
X127352086Y-113343354D01*
X127352093Y-113343350D01*
X127467187Y-113257190D01*
X127467190Y-113257187D01*
X127553350Y-113142093D01*
X127553354Y-113142086D01*
X127603596Y-113007379D01*
X127603598Y-113007372D01*
X127609999Y-112947844D01*
X127610000Y-112947827D01*
X127610000Y-112403974D01*
X127629685Y-112336935D01*
X127682489Y-112291180D01*
X127751647Y-112281236D01*
X127815203Y-112310261D01*
X127852977Y-112369039D01*
X127856473Y-112384576D01*
X127877829Y-112519410D01*
X127933787Y-112691636D01*
X127933788Y-112691639D01*
X128016006Y-112852997D01*
X128122441Y-112999494D01*
X128122445Y-112999499D01*
X128250500Y-113127554D01*
X128250505Y-113127558D01*
X128378287Y-113220396D01*
X128397006Y-113233996D01*
X128502484Y-113287740D01*
X128558360Y-113316211D01*
X128558363Y-113316212D01*
X128636369Y-113341557D01*
X128730591Y-113372171D01*
X128813429Y-113385291D01*
X128909449Y-113400500D01*
X128909454Y-113400500D01*
X129090551Y-113400500D01*
X129177259Y-113386765D01*
X129269409Y-113372171D01*
X129441639Y-113316211D01*
X129602994Y-113233996D01*
X129749501Y-113127553D01*
X129877553Y-112999501D01*
X129983996Y-112852994D01*
X130066211Y-112691639D01*
X130122171Y-112519409D01*
X130141916Y-112394745D01*
X130150500Y-112340551D01*
X130150500Y-112159448D01*
X130122665Y-111983713D01*
X130122171Y-111980591D01*
X130066211Y-111808361D01*
X130064346Y-111803858D01*
X130066021Y-111803163D01*
X130054553Y-111742143D01*
X130080821Y-111677399D01*
X130137921Y-111637134D01*
X130177936Y-111630500D01*
X130859192Y-111630500D01*
X130926231Y-111650185D01*
X130946873Y-111666819D01*
X133795995Y-114515941D01*
X133829480Y-114577264D01*
X133832314Y-114603622D01*
X133832314Y-118346883D01*
X133832314Y-118346885D01*
X133832313Y-118346885D01*
X133854504Y-118458440D01*
X133857312Y-118472554D01*
X133857314Y-118472561D01*
X133906347Y-118590939D01*
X133977540Y-118697487D01*
X133977541Y-118697488D01*
X135757874Y-120477819D01*
X135791359Y-120539142D01*
X135786375Y-120608833D01*
X135744503Y-120664767D01*
X135679039Y-120689184D01*
X135670193Y-120689500D01*
X130512662Y-120689500D01*
X130445623Y-120669815D01*
X130412344Y-120638385D01*
X130377557Y-120590505D01*
X130377553Y-120590500D01*
X130249498Y-120462445D01*
X130249493Y-120462441D01*
X130102996Y-120356006D01*
X130102995Y-120356005D01*
X130102993Y-120356004D01*
X130051299Y-120329664D01*
X129941638Y-120273788D01*
X129941635Y-120273787D01*
X129769409Y-120217829D01*
X129590550Y-120189500D01*
X129590545Y-120189500D01*
X129409453Y-120189500D01*
X129409448Y-120189500D01*
X129230588Y-120217829D01*
X129058362Y-120273787D01*
X129058359Y-120273788D01*
X128897001Y-120356006D01*
X128750504Y-120462441D01*
X128750499Y-120462445D01*
X128622444Y-120590500D01*
X128622440Y-120590505D01*
X128516005Y-120737002D01*
X128433787Y-120898360D01*
X128433786Y-120898363D01*
X128377828Y-121070589D01*
X128349499Y-121249448D01*
X128349499Y-121430551D01*
X128377828Y-121609410D01*
X128433786Y-121781636D01*
X128433789Y-121781643D01*
X128466483Y-121845806D01*
X128479999Y-121902102D01*
X128479999Y-122329670D01*
X128460254Y-122309925D01*
X128374744Y-122260556D01*
X128279369Y-122235000D01*
X128180629Y-122235000D01*
X128085254Y-122260556D01*
X127999744Y-122309925D01*
X127979999Y-122329670D01*
X127979999Y-121460000D01*
X127532154Y-121460000D01*
X127472626Y-121466401D01*
X127472619Y-121466403D01*
X127337912Y-121516645D01*
X127337905Y-121516649D01*
X127222811Y-121602809D01*
X127222808Y-121602812D01*
X127136648Y-121717906D01*
X127136644Y-121717913D01*
X127086402Y-121852620D01*
X127086400Y-121852627D01*
X127079999Y-121912155D01*
X127079999Y-122360000D01*
X127949669Y-122360000D01*
X127929924Y-122379745D01*
X127880555Y-122465255D01*
X127854999Y-122560630D01*
X127854999Y-122659370D01*
X127880555Y-122754745D01*
X127929924Y-122840255D01*
X127949669Y-122860000D01*
X127079999Y-122860000D01*
X127079999Y-123307844D01*
X127086400Y-123367372D01*
X127086402Y-123367379D01*
X127136644Y-123502086D01*
X127136648Y-123502093D01*
X127222808Y-123617187D01*
X127222811Y-123617190D01*
X127337905Y-123703350D01*
X127337912Y-123703354D01*
X127472619Y-123753596D01*
X127472626Y-123753598D01*
X127532154Y-123759999D01*
X127532171Y-123760000D01*
X127979999Y-123760000D01*
X127979999Y-122890330D01*
X127999744Y-122910075D01*
X128085254Y-122959444D01*
X128180629Y-122985000D01*
X128279369Y-122985000D01*
X128374744Y-122959444D01*
X128460254Y-122910075D01*
X128479999Y-122890330D01*
X128479999Y-123760000D01*
X128927827Y-123760000D01*
X128927843Y-123759999D01*
X128987371Y-123753598D01*
X128987378Y-123753596D01*
X129122085Y-123703354D01*
X129122092Y-123703350D01*
X129237186Y-123617190D01*
X129237189Y-123617187D01*
X129323349Y-123502093D01*
X129323353Y-123502086D01*
X129373595Y-123367379D01*
X129373597Y-123367372D01*
X129379998Y-123307844D01*
X129379999Y-123307827D01*
X129379999Y-122763974D01*
X129399684Y-122696935D01*
X129452488Y-122651180D01*
X129521646Y-122641236D01*
X129585202Y-122670261D01*
X129622976Y-122729039D01*
X129626472Y-122744576D01*
X129647828Y-122879410D01*
X129703786Y-123051636D01*
X129703787Y-123051639D01*
X129752827Y-123147883D01*
X129783194Y-123207482D01*
X129786005Y-123212997D01*
X129892440Y-123359494D01*
X129892444Y-123359499D01*
X130020499Y-123487554D01*
X130020504Y-123487558D01*
X130128762Y-123566211D01*
X130167005Y-123593996D01*
X130272483Y-123647740D01*
X130328359Y-123676211D01*
X130328362Y-123676212D01*
X130411887Y-123703350D01*
X130500590Y-123732171D01*
X130583428Y-123745291D01*
X130679448Y-123760500D01*
X130679453Y-123760500D01*
X130860550Y-123760500D01*
X130947258Y-123746765D01*
X131039408Y-123732171D01*
X131211638Y-123676211D01*
X131372993Y-123593996D01*
X131519500Y-123487553D01*
X131647552Y-123359501D01*
X131753995Y-123212994D01*
X131836210Y-123051639D01*
X131892170Y-122879409D01*
X131911915Y-122754745D01*
X131920499Y-122700551D01*
X131920499Y-122519448D01*
X131902563Y-122406211D01*
X131892170Y-122340591D01*
X131857862Y-122235000D01*
X131836211Y-122168363D01*
X131834345Y-122163858D01*
X131836020Y-122163163D01*
X131824552Y-122102143D01*
X131850820Y-122037399D01*
X131907920Y-121997134D01*
X131947935Y-121990500D01*
X155124071Y-121990500D01*
X155208615Y-121973682D01*
X155249744Y-121965501D01*
X155368127Y-121916465D01*
X155395614Y-121898099D01*
X155474669Y-121845277D01*
X156633126Y-120686818D01*
X156694449Y-120653334D01*
X156720807Y-120650500D01*
X166010563Y-120650500D01*
X166077602Y-120670185D01*
X166098239Y-120686814D01*
X166143005Y-120731580D01*
X166175392Y-120763967D01*
X166339252Y-120873455D01*
X166339256Y-120873457D01*
X166339259Y-120873459D01*
X166376470Y-120888872D01*
X166430872Y-120932712D01*
X166452938Y-120999006D01*
X166435659Y-121066705D01*
X166416698Y-121091114D01*
X164631682Y-122876131D01*
X164570359Y-122909616D01*
X164500667Y-122904632D01*
X164444734Y-122862760D01*
X164420317Y-122797296D01*
X164420001Y-122788450D01*
X164420001Y-122750000D01*
X163550331Y-122750000D01*
X163570076Y-122730255D01*
X163619445Y-122644745D01*
X163645001Y-122549370D01*
X163645001Y-122450630D01*
X163619445Y-122355255D01*
X163570076Y-122269745D01*
X163550331Y-122250000D01*
X164420001Y-122250000D01*
X164420001Y-121802172D01*
X164420000Y-121802155D01*
X164413599Y-121742627D01*
X164413597Y-121742620D01*
X164363355Y-121607913D01*
X164363351Y-121607906D01*
X164277191Y-121492812D01*
X164277188Y-121492809D01*
X164162094Y-121406649D01*
X164162087Y-121406645D01*
X164027380Y-121356403D01*
X164027373Y-121356401D01*
X163967845Y-121350000D01*
X163520001Y-121350000D01*
X163520001Y-122219670D01*
X163500256Y-122199925D01*
X163414746Y-122150556D01*
X163319371Y-122125000D01*
X163220631Y-122125000D01*
X163125256Y-122150556D01*
X163039746Y-122199925D01*
X163020001Y-122219670D01*
X163020001Y-121350000D01*
X162572156Y-121350000D01*
X162512628Y-121356401D01*
X162512621Y-121356403D01*
X162377914Y-121406645D01*
X162377907Y-121406649D01*
X162262813Y-121492809D01*
X162262810Y-121492812D01*
X162176650Y-121607906D01*
X162176646Y-121607913D01*
X162126404Y-121742620D01*
X162126402Y-121742627D01*
X162120001Y-121802155D01*
X162120001Y-122346025D01*
X162100316Y-122413064D01*
X162047512Y-122458819D01*
X161978354Y-122468763D01*
X161914798Y-122439738D01*
X161877024Y-122380960D01*
X161873528Y-122365423D01*
X161852870Y-122235000D01*
X161852172Y-122230591D01*
X161817864Y-122125000D01*
X161796213Y-122058363D01*
X161796212Y-122058360D01*
X161761635Y-121990500D01*
X161713997Y-121897006D01*
X161676414Y-121845277D01*
X161607559Y-121750505D01*
X161607555Y-121750500D01*
X161479500Y-121622445D01*
X161479495Y-121622441D01*
X161332998Y-121516006D01*
X161332997Y-121516005D01*
X161332995Y-121516004D01*
X161281301Y-121489664D01*
X161171640Y-121433788D01*
X161171637Y-121433787D01*
X160999411Y-121377829D01*
X160820552Y-121349500D01*
X160820547Y-121349500D01*
X160639455Y-121349500D01*
X160639450Y-121349500D01*
X160460590Y-121377829D01*
X160288364Y-121433787D01*
X160288361Y-121433788D01*
X160127003Y-121516006D01*
X159980506Y-121622441D01*
X159980501Y-121622445D01*
X159852446Y-121750500D01*
X159852442Y-121750505D01*
X159746007Y-121897002D01*
X159663789Y-122058360D01*
X159663788Y-122058363D01*
X159607830Y-122230589D01*
X159579501Y-122409448D01*
X159579501Y-122590551D01*
X159607830Y-122769410D01*
X159663788Y-122941636D01*
X159663789Y-122941639D01*
X159746007Y-123102997D01*
X159852442Y-123249494D01*
X159852446Y-123249499D01*
X159980501Y-123377554D01*
X159980506Y-123377558D01*
X160090603Y-123457547D01*
X160127007Y-123483996D01*
X160232485Y-123537740D01*
X160288361Y-123566211D01*
X160288364Y-123566212D01*
X160373868Y-123593993D01*
X160460592Y-123622171D01*
X160543430Y-123635291D01*
X160639450Y-123650500D01*
X160725501Y-123650500D01*
X160792540Y-123670185D01*
X160838295Y-123722989D01*
X160849501Y-123774500D01*
X160849501Y-123860551D01*
X160877830Y-124039410D01*
X160933788Y-124211636D01*
X160933789Y-124211639D01*
X161016007Y-124372997D01*
X161122442Y-124519494D01*
X161122446Y-124519499D01*
X161250501Y-124647554D01*
X161250506Y-124647558D01*
X161378288Y-124740396D01*
X161397007Y-124753996D01*
X161502485Y-124807740D01*
X161558361Y-124836211D01*
X161558364Y-124836212D01*
X161644477Y-124864191D01*
X161730592Y-124892171D01*
X161813430Y-124905291D01*
X161909450Y-124920500D01*
X161909455Y-124920500D01*
X162090552Y-124920500D01*
X162177260Y-124906765D01*
X162269410Y-124892171D01*
X162441640Y-124836211D01*
X162602995Y-124753996D01*
X162749502Y-124647553D01*
X162877554Y-124519501D01*
X162880317Y-124515697D01*
X162912346Y-124471615D01*
X162967675Y-124428949D01*
X163012664Y-124420500D01*
X164721831Y-124420500D01*
X164806375Y-124403682D01*
X164847504Y-124395501D01*
X164965887Y-124346465D01*
X164993374Y-124328099D01*
X165072429Y-124275277D01*
X169910887Y-119436819D01*
X169972210Y-119403334D01*
X169998568Y-119400500D01*
X170098543Y-119400500D01*
X170229265Y-119374497D01*
X170291835Y-119362051D01*
X170473914Y-119286632D01*
X170637782Y-119177139D01*
X170777139Y-119037782D01*
X170886632Y-118873914D01*
X170962051Y-118691835D01*
X170995438Y-118523990D01*
X171000500Y-118498543D01*
X171000500Y-118301456D01*
X170962052Y-118108170D01*
X170962051Y-118108169D01*
X170962051Y-118108165D01*
X170922785Y-118013368D01*
X170886635Y-117926092D01*
X170886628Y-117926079D01*
X170777139Y-117762218D01*
X170777136Y-117762214D01*
X170637785Y-117622863D01*
X170637781Y-117622860D01*
X170473920Y-117513371D01*
X170473907Y-117513364D01*
X170291839Y-117437950D01*
X170291829Y-117437947D01*
X170098543Y-117399500D01*
X170098541Y-117399500D01*
X169901459Y-117399500D01*
X169901457Y-117399500D01*
X169708170Y-117437947D01*
X169708160Y-117437950D01*
X169526092Y-117513364D01*
X169526079Y-117513371D01*
X169362218Y-117622860D01*
X169362214Y-117622863D01*
X169222863Y-117762214D01*
X169222860Y-117762218D01*
X169113371Y-117926079D01*
X169113364Y-117926092D01*
X169037950Y-118108160D01*
X169037947Y-118108170D01*
X168999500Y-118301456D01*
X168999500Y-118456951D01*
X168979815Y-118523990D01*
X168963181Y-118544632D01*
X167917460Y-119590352D01*
X167856137Y-119623837D01*
X167786445Y-119618853D01*
X167730512Y-119576981D01*
X167715219Y-119550127D01*
X167699805Y-119512913D01*
X167699803Y-119512910D01*
X167699801Y-119512906D01*
X167590312Y-119349045D01*
X167590309Y-119349041D01*
X167450958Y-119209690D01*
X167450954Y-119209687D01*
X167287093Y-119100198D01*
X167287080Y-119100191D01*
X167105012Y-119024777D01*
X167105002Y-119024774D01*
X166911716Y-118986327D01*
X166911714Y-118986327D01*
X166714632Y-118986327D01*
X166714630Y-118986327D01*
X166521343Y-119024774D01*
X166521333Y-119024777D01*
X166339265Y-119100191D01*
X166339252Y-119100198D01*
X166175392Y-119209686D01*
X166123645Y-119261433D01*
X166071896Y-119313182D01*
X166010576Y-119346666D01*
X165984217Y-119349500D01*
X156335929Y-119349500D01*
X156210261Y-119374497D01*
X156210255Y-119374499D01*
X156091875Y-119423533D01*
X156091866Y-119423538D01*
X155985331Y-119494723D01*
X155754734Y-119725319D01*
X155693411Y-119758803D01*
X155623719Y-119753819D01*
X155567786Y-119711947D01*
X155552497Y-119685099D01*
X155486632Y-119526086D01*
X155486630Y-119526083D01*
X155486628Y-119526079D01*
X155377139Y-119362218D01*
X155377136Y-119362214D01*
X155237785Y-119222863D01*
X155237781Y-119222860D01*
X155073920Y-119113371D01*
X155073907Y-119113364D01*
X154891839Y-119037950D01*
X154891829Y-119037947D01*
X154698543Y-118999500D01*
X154698541Y-118999500D01*
X154501459Y-118999500D01*
X154501457Y-118999500D01*
X154308170Y-119037947D01*
X154308160Y-119037950D01*
X154126092Y-119113364D01*
X154126079Y-119113371D01*
X153962218Y-119222860D01*
X153962214Y-119222863D01*
X153822863Y-119362214D01*
X153822860Y-119362218D01*
X153713371Y-119526079D01*
X153713364Y-119526091D01*
X153652535Y-119672952D01*
X153608695Y-119727356D01*
X153542401Y-119749421D01*
X153537974Y-119749500D01*
X151076223Y-119749500D01*
X151009184Y-119729815D01*
X150963429Y-119677011D01*
X150953485Y-119607853D01*
X150982510Y-119544297D01*
X151014222Y-119518113D01*
X151054734Y-119494723D01*
X151194491Y-119414034D01*
X151371223Y-119278423D01*
X151528743Y-119120903D01*
X151664354Y-118944171D01*
X151775738Y-118751249D01*
X151860987Y-118545440D01*
X151918643Y-118330264D01*
X151947720Y-118109403D01*
X151947720Y-117886637D01*
X151918643Y-117665776D01*
X151860987Y-117450600D01*
X151775738Y-117244791D01*
X151775736Y-117244788D01*
X151775734Y-117244783D01*
X151664358Y-117051876D01*
X151664354Y-117051869D01*
X151596927Y-116963996D01*
X151528744Y-116875138D01*
X151528738Y-116875131D01*
X151371228Y-116717621D01*
X151371221Y-116717615D01*
X151194499Y-116582012D01*
X151194497Y-116582010D01*
X151194491Y-116582006D01*
X151194486Y-116582003D01*
X151194483Y-116582001D01*
X151001576Y-116470625D01*
X151001565Y-116470620D01*
X150795762Y-116385373D01*
X150680450Y-116354475D01*
X150580584Y-116327717D01*
X150580578Y-116327716D01*
X150580573Y-116327715D01*
X150359732Y-116298641D01*
X150359729Y-116298640D01*
X150359723Y-116298640D01*
X150136957Y-116298640D01*
X150136951Y-116298640D01*
X150136947Y-116298641D01*
X149916106Y-116327715D01*
X149916099Y-116327716D01*
X149916096Y-116327717D01*
X149873885Y-116339027D01*
X149700917Y-116385373D01*
X149495114Y-116470620D01*
X149495103Y-116470625D01*
X149302196Y-116582001D01*
X149302180Y-116582012D01*
X149125458Y-116717615D01*
X149125451Y-116717621D01*
X148967941Y-116875131D01*
X148967935Y-116875138D01*
X148832332Y-117051860D01*
X148832321Y-117051876D01*
X148720945Y-117244783D01*
X148720940Y-117244794D01*
X148635693Y-117450597D01*
X148578038Y-117665773D01*
X148578035Y-117665786D01*
X148548961Y-117886627D01*
X148548960Y-117886643D01*
X148548960Y-118109396D01*
X148548961Y-118109412D01*
X148578035Y-118330253D01*
X148578036Y-118330258D01*
X148578037Y-118330264D01*
X148589266Y-118372170D01*
X148635693Y-118545442D01*
X148720940Y-118751245D01*
X148720945Y-118751256D01*
X148832321Y-118944163D01*
X148832332Y-118944179D01*
X148967935Y-119120901D01*
X148967941Y-119120908D01*
X149125451Y-119278418D01*
X149125458Y-119278424D01*
X149234441Y-119362049D01*
X149302189Y-119414034D01*
X149441946Y-119494723D01*
X149482458Y-119518113D01*
X149530673Y-119568680D01*
X149543895Y-119637288D01*
X149517927Y-119702152D01*
X149461013Y-119742680D01*
X149420457Y-119749500D01*
X146577883Y-119749500D01*
X146510844Y-119729815D01*
X146465089Y-119677011D01*
X146455145Y-119607853D01*
X146484170Y-119544297D01*
X146515882Y-119518113D01*
X146556394Y-119494723D01*
X146696151Y-119414034D01*
X146872883Y-119278423D01*
X147030403Y-119120903D01*
X147166014Y-118944171D01*
X147277398Y-118751249D01*
X147362647Y-118545440D01*
X147420303Y-118330264D01*
X147449380Y-118109403D01*
X147449380Y-117886637D01*
X147420303Y-117665776D01*
X147362647Y-117450600D01*
X147277398Y-117244791D01*
X147277396Y-117244788D01*
X147277394Y-117244783D01*
X147166018Y-117051876D01*
X147166014Y-117051869D01*
X147098587Y-116963996D01*
X147030404Y-116875138D01*
X147030398Y-116875131D01*
X146872888Y-116717621D01*
X146872881Y-116717615D01*
X146696159Y-116582012D01*
X146696157Y-116582010D01*
X146696151Y-116582006D01*
X146696146Y-116582003D01*
X146696143Y-116582001D01*
X146503236Y-116470625D01*
X146503225Y-116470620D01*
X146297422Y-116385373D01*
X146182110Y-116354475D01*
X146082244Y-116327717D01*
X146082238Y-116327716D01*
X146082233Y-116327715D01*
X145861392Y-116298641D01*
X145861389Y-116298640D01*
X145861383Y-116298640D01*
X145638617Y-116298640D01*
X145638611Y-116298640D01*
X145638607Y-116298641D01*
X145417766Y-116327715D01*
X145417759Y-116327716D01*
X145417756Y-116327717D01*
X145375545Y-116339027D01*
X145202577Y-116385373D01*
X144996774Y-116470620D01*
X144996763Y-116470625D01*
X144803856Y-116582001D01*
X144803840Y-116582012D01*
X144627118Y-116717615D01*
X144627111Y-116717621D01*
X144469601Y-116875131D01*
X144469595Y-116875138D01*
X144333992Y-117051860D01*
X144333981Y-117051876D01*
X144222605Y-117244783D01*
X144222600Y-117244794D01*
X144137353Y-117450597D01*
X144079698Y-117665773D01*
X144079695Y-117665786D01*
X144050621Y-117886627D01*
X144050620Y-117886643D01*
X144050620Y-118109396D01*
X144050621Y-118109412D01*
X144079695Y-118330253D01*
X144079696Y-118330258D01*
X144079697Y-118330264D01*
X144090926Y-118372170D01*
X144137353Y-118545442D01*
X144222600Y-118751245D01*
X144222605Y-118751256D01*
X144333981Y-118944163D01*
X144333992Y-118944179D01*
X144469595Y-119120901D01*
X144469601Y-119120908D01*
X144627111Y-119278418D01*
X144627118Y-119278424D01*
X144736101Y-119362049D01*
X144803849Y-119414034D01*
X144943606Y-119494723D01*
X144984118Y-119518113D01*
X145032333Y-119568680D01*
X145045555Y-119637288D01*
X145019587Y-119702152D01*
X144962673Y-119742680D01*
X144922117Y-119749500D01*
X142079543Y-119749500D01*
X142012504Y-119729815D01*
X141966749Y-119677011D01*
X141956805Y-119607853D01*
X141985830Y-119544297D01*
X142017542Y-119518113D01*
X142058054Y-119494723D01*
X142197811Y-119414034D01*
X142374543Y-119278423D01*
X142532063Y-119120903D01*
X142667674Y-118944171D01*
X142779058Y-118751249D01*
X142864307Y-118545440D01*
X142921963Y-118330264D01*
X142951040Y-118109403D01*
X142951040Y-117886637D01*
X142921963Y-117665776D01*
X142864307Y-117450600D01*
X142779058Y-117244791D01*
X142779056Y-117244788D01*
X142779054Y-117244783D01*
X142667678Y-117051876D01*
X142667674Y-117051869D01*
X142600247Y-116963996D01*
X142532064Y-116875138D01*
X142532058Y-116875131D01*
X142374548Y-116717621D01*
X142374541Y-116717615D01*
X142197819Y-116582012D01*
X142197817Y-116582010D01*
X142197811Y-116582006D01*
X142197806Y-116582003D01*
X142197803Y-116582001D01*
X142004896Y-116470625D01*
X142004885Y-116470620D01*
X141799082Y-116385373D01*
X141683770Y-116354475D01*
X141583904Y-116327717D01*
X141583898Y-116327716D01*
X141583893Y-116327715D01*
X141363052Y-116298641D01*
X141363049Y-116298640D01*
X141363043Y-116298640D01*
X141140277Y-116298640D01*
X141140271Y-116298640D01*
X141140267Y-116298641D01*
X140919426Y-116327715D01*
X140919419Y-116327716D01*
X140919416Y-116327717D01*
X140877205Y-116339027D01*
X140704237Y-116385373D01*
X140498434Y-116470620D01*
X140498423Y-116470625D01*
X140305516Y-116582001D01*
X140305500Y-116582012D01*
X140128778Y-116717615D01*
X140128771Y-116717621D01*
X139971261Y-116875131D01*
X139971255Y-116875138D01*
X139835652Y-117051860D01*
X139835641Y-117051876D01*
X139724265Y-117244783D01*
X139724260Y-117244794D01*
X139639013Y-117450597D01*
X139581358Y-117665773D01*
X139581355Y-117665786D01*
X139552281Y-117886627D01*
X139552280Y-117886643D01*
X139552280Y-118109396D01*
X139552281Y-118109412D01*
X139581355Y-118330253D01*
X139581356Y-118330258D01*
X139581357Y-118330264D01*
X139592586Y-118372170D01*
X139639013Y-118545442D01*
X139724260Y-118751245D01*
X139724265Y-118751256D01*
X139835641Y-118944163D01*
X139835652Y-118944179D01*
X139971255Y-119120901D01*
X139971261Y-119120908D01*
X140128771Y-119278418D01*
X140128778Y-119278424D01*
X140237761Y-119362049D01*
X140305509Y-119414034D01*
X140445266Y-119494723D01*
X140485778Y-119518113D01*
X140533993Y-119568680D01*
X140547215Y-119637288D01*
X140521247Y-119702152D01*
X140464333Y-119742680D01*
X140423777Y-119749500D01*
X136920807Y-119749500D01*
X136853768Y-119729815D01*
X136833126Y-119713181D01*
X135169633Y-118049687D01*
X135136148Y-117988364D01*
X135133314Y-117962006D01*
X135133314Y-116136583D01*
X136052160Y-116136583D01*
X136052160Y-116359336D01*
X136052161Y-116359352D01*
X136081235Y-116580193D01*
X136081236Y-116580198D01*
X136081237Y-116580204D01*
X136107995Y-116680070D01*
X136138893Y-116795382D01*
X136224140Y-117001185D01*
X136224145Y-117001196D01*
X136335521Y-117194103D01*
X136335532Y-117194119D01*
X136471135Y-117370841D01*
X136471141Y-117370848D01*
X136628651Y-117528358D01*
X136628657Y-117528363D01*
X136805389Y-117663974D01*
X136817510Y-117670972D01*
X136998303Y-117775354D01*
X136998308Y-117775356D01*
X136998311Y-117775358D01*
X137101215Y-117817982D01*
X137204117Y-117860606D01*
X137204118Y-117860606D01*
X137204120Y-117860607D01*
X137419296Y-117918263D01*
X137640157Y-117947340D01*
X137640164Y-117947340D01*
X137862916Y-117947340D01*
X137862923Y-117947340D01*
X138083784Y-117918263D01*
X138298960Y-117860607D01*
X138504769Y-117775358D01*
X138697691Y-117663974D01*
X138874423Y-117528363D01*
X139031943Y-117370843D01*
X139167554Y-117194111D01*
X139278938Y-117001189D01*
X139364187Y-116795380D01*
X139421843Y-116580204D01*
X139450920Y-116359343D01*
X139450920Y-116136583D01*
X152049080Y-116136583D01*
X152049080Y-116359336D01*
X152049081Y-116359352D01*
X152078155Y-116580193D01*
X152078156Y-116580198D01*
X152078157Y-116580204D01*
X152104915Y-116680070D01*
X152135813Y-116795382D01*
X152221060Y-117001185D01*
X152221065Y-117001196D01*
X152332441Y-117194103D01*
X152332452Y-117194119D01*
X152468055Y-117370841D01*
X152468061Y-117370848D01*
X152625571Y-117528358D01*
X152625577Y-117528363D01*
X152802309Y-117663974D01*
X152814430Y-117670972D01*
X152995223Y-117775354D01*
X152995228Y-117775356D01*
X152995231Y-117775358D01*
X153098135Y-117817982D01*
X153201037Y-117860606D01*
X153201038Y-117860606D01*
X153201040Y-117860607D01*
X153416216Y-117918263D01*
X153637077Y-117947340D01*
X153637084Y-117947340D01*
X153859836Y-117947340D01*
X153859843Y-117947340D01*
X154080704Y-117918263D01*
X154295880Y-117860607D01*
X154501689Y-117775358D01*
X154694611Y-117663974D01*
X154871343Y-117528363D01*
X155028863Y-117370843D01*
X155164474Y-117194111D01*
X155184487Y-117159448D01*
X162599500Y-117159448D01*
X162599500Y-117340551D01*
X162627829Y-117519410D01*
X162683787Y-117691636D01*
X162683788Y-117691639D01*
X162766006Y-117852997D01*
X162872441Y-117999494D01*
X162872445Y-117999499D01*
X163000500Y-118127554D01*
X163000505Y-118127558D01*
X163128287Y-118220396D01*
X163147006Y-118233996D01*
X163252484Y-118287740D01*
X163308360Y-118316211D01*
X163308363Y-118316212D01*
X163394476Y-118344191D01*
X163480591Y-118372171D01*
X163563429Y-118385291D01*
X163659449Y-118400500D01*
X163659454Y-118400500D01*
X163840551Y-118400500D01*
X163927259Y-118386765D01*
X164019409Y-118372171D01*
X164191639Y-118316211D01*
X164352994Y-118233996D01*
X164499501Y-118127553D01*
X164627553Y-117999501D01*
X164733996Y-117852994D01*
X164816211Y-117691639D01*
X164872171Y-117519409D01*
X164895701Y-117370848D01*
X164900500Y-117340551D01*
X164900500Y-117254500D01*
X164920185Y-117187461D01*
X164972989Y-117141706D01*
X165024500Y-117130500D01*
X165110551Y-117130500D01*
X165197259Y-117116765D01*
X165289409Y-117102171D01*
X165461639Y-117046211D01*
X165622994Y-116963996D01*
X165769501Y-116857553D01*
X165897553Y-116729501D01*
X166003996Y-116582994D01*
X166086211Y-116421639D01*
X166142171Y-116249409D01*
X166160042Y-116136577D01*
X166170500Y-116070551D01*
X166170500Y-115889448D01*
X166143216Y-115717190D01*
X166142171Y-115710591D01*
X166114191Y-115624476D01*
X166086212Y-115538363D01*
X166086211Y-115538360D01*
X166057740Y-115482484D01*
X166003996Y-115377006D01*
X165949368Y-115301816D01*
X165897558Y-115230505D01*
X165897554Y-115230500D01*
X165769499Y-115102445D01*
X165769494Y-115102441D01*
X165622997Y-114996006D01*
X165622996Y-114996005D01*
X165622994Y-114996004D01*
X165552333Y-114960000D01*
X165461639Y-114913788D01*
X165461636Y-114913787D01*
X165289410Y-114857829D01*
X165110551Y-114829500D01*
X165110546Y-114829500D01*
X164929454Y-114829500D01*
X164929449Y-114829500D01*
X164750589Y-114857829D01*
X164578363Y-114913787D01*
X164578360Y-114913788D01*
X164514192Y-114946485D01*
X164457897Y-114960000D01*
X164030330Y-114960000D01*
X164050075Y-114940255D01*
X164099444Y-114854745D01*
X164125000Y-114759370D01*
X164125000Y-114660630D01*
X164099444Y-114565255D01*
X164050075Y-114479745D01*
X164030330Y-114460000D01*
X164900000Y-114460000D01*
X164900000Y-114012172D01*
X164899999Y-114012155D01*
X164893598Y-113952627D01*
X164893596Y-113952620D01*
X164843354Y-113817913D01*
X164843350Y-113817906D01*
X164757190Y-113702812D01*
X164757187Y-113702809D01*
X164642093Y-113616649D01*
X164642086Y-113616645D01*
X164507379Y-113566403D01*
X164507372Y-113566401D01*
X164447844Y-113560000D01*
X164000000Y-113560000D01*
X164000000Y-114429670D01*
X163980255Y-114409925D01*
X163894745Y-114360556D01*
X163799370Y-114335000D01*
X163700630Y-114335000D01*
X163605255Y-114360556D01*
X163519745Y-114409925D01*
X163500000Y-114429670D01*
X163500000Y-113560000D01*
X163052155Y-113560000D01*
X162992627Y-113566401D01*
X162992620Y-113566403D01*
X162857913Y-113616645D01*
X162857906Y-113616649D01*
X162742812Y-113702809D01*
X162742809Y-113702812D01*
X162656649Y-113817906D01*
X162656645Y-113817913D01*
X162606403Y-113952620D01*
X162606401Y-113952627D01*
X162600000Y-114012155D01*
X162600000Y-114460000D01*
X163469670Y-114460000D01*
X163449925Y-114479745D01*
X163400556Y-114565255D01*
X163375000Y-114660630D01*
X163375000Y-114759370D01*
X163400556Y-114854745D01*
X163449925Y-114940255D01*
X163469670Y-114960000D01*
X162600000Y-114960000D01*
X162600000Y-115407844D01*
X162606401Y-115467372D01*
X162606403Y-115467379D01*
X162656645Y-115602086D01*
X162656649Y-115602093D01*
X162742809Y-115717187D01*
X162742812Y-115717190D01*
X162857906Y-115803350D01*
X162857913Y-115803354D01*
X162992620Y-115853596D01*
X162992627Y-115853598D01*
X163052155Y-115859999D01*
X163052172Y-115860000D01*
X163596026Y-115860000D01*
X163663065Y-115879685D01*
X163708820Y-115932489D01*
X163718764Y-116001647D01*
X163689739Y-116065203D01*
X163630961Y-116102977D01*
X163615424Y-116106473D01*
X163480589Y-116127829D01*
X163308363Y-116183787D01*
X163308360Y-116183788D01*
X163147002Y-116266006D01*
X163000505Y-116372441D01*
X163000500Y-116372445D01*
X162872445Y-116500500D01*
X162872441Y-116500505D01*
X162766006Y-116647002D01*
X162683788Y-116808360D01*
X162683787Y-116808363D01*
X162627829Y-116980589D01*
X162599500Y-117159448D01*
X155184487Y-117159448D01*
X155275858Y-117001189D01*
X155361107Y-116795380D01*
X155418763Y-116580204D01*
X155447840Y-116359343D01*
X155447840Y-116136577D01*
X155418763Y-115915716D01*
X155361107Y-115700540D01*
X155275858Y-115494731D01*
X155275856Y-115494728D01*
X155275854Y-115494723D01*
X155164478Y-115301816D01*
X155164474Y-115301809D01*
X155028863Y-115125077D01*
X155028858Y-115125071D01*
X154871348Y-114967561D01*
X154871341Y-114967555D01*
X154694619Y-114831952D01*
X154694617Y-114831950D01*
X154694611Y-114831946D01*
X154694606Y-114831943D01*
X154694603Y-114831941D01*
X154501696Y-114720565D01*
X154501685Y-114720560D01*
X154295882Y-114635313D01*
X154177607Y-114603622D01*
X154080704Y-114577657D01*
X154080698Y-114577656D01*
X154080693Y-114577655D01*
X153859852Y-114548581D01*
X153859849Y-114548580D01*
X153859843Y-114548580D01*
X153637077Y-114548580D01*
X153637071Y-114548580D01*
X153637067Y-114548581D01*
X153416226Y-114577655D01*
X153416219Y-114577656D01*
X153416216Y-114577657D01*
X153374005Y-114588967D01*
X153201037Y-114635313D01*
X152995234Y-114720560D01*
X152995223Y-114720565D01*
X152802316Y-114831941D01*
X152802300Y-114831952D01*
X152625578Y-114967555D01*
X152625571Y-114967561D01*
X152468061Y-115125071D01*
X152468055Y-115125078D01*
X152332452Y-115301800D01*
X152332441Y-115301816D01*
X152221065Y-115494723D01*
X152221060Y-115494734D01*
X152135813Y-115700537D01*
X152108265Y-115803350D01*
X152083792Y-115894688D01*
X152078158Y-115915713D01*
X152078155Y-115915726D01*
X152049081Y-116136567D01*
X152049080Y-116136583D01*
X139450920Y-116136583D01*
X139450920Y-116136577D01*
X139421843Y-115915716D01*
X139364187Y-115700540D01*
X139278938Y-115494731D01*
X139278936Y-115494728D01*
X139278934Y-115494723D01*
X139167558Y-115301816D01*
X139167554Y-115301809D01*
X139031943Y-115125077D01*
X139031938Y-115125071D01*
X138874428Y-114967561D01*
X138874421Y-114967555D01*
X138697699Y-114831952D01*
X138697697Y-114831950D01*
X138697691Y-114831946D01*
X138697686Y-114831943D01*
X138697683Y-114831941D01*
X138504776Y-114720565D01*
X138504765Y-114720560D01*
X138298962Y-114635313D01*
X138180687Y-114603622D01*
X138083784Y-114577657D01*
X138083778Y-114577656D01*
X138083773Y-114577655D01*
X137862932Y-114548581D01*
X137862929Y-114548580D01*
X137862923Y-114548580D01*
X137640157Y-114548580D01*
X137640151Y-114548580D01*
X137640147Y-114548581D01*
X137419306Y-114577655D01*
X137419299Y-114577656D01*
X137419296Y-114577657D01*
X137377085Y-114588967D01*
X137204117Y-114635313D01*
X136998314Y-114720560D01*
X136998303Y-114720565D01*
X136805396Y-114831941D01*
X136805380Y-114831952D01*
X136628658Y-114967555D01*
X136628651Y-114967561D01*
X136471141Y-115125071D01*
X136471135Y-115125078D01*
X136335532Y-115301800D01*
X136335521Y-115301816D01*
X136224145Y-115494723D01*
X136224140Y-115494734D01*
X136138893Y-115700537D01*
X136111345Y-115803350D01*
X136086872Y-115894688D01*
X136081238Y-115915713D01*
X136081235Y-115915726D01*
X136052161Y-116136567D01*
X136052160Y-116136583D01*
X135133314Y-116136583D01*
X135133314Y-114218742D01*
X135108316Y-114093075D01*
X135108315Y-114093074D01*
X135108315Y-114093070D01*
X135059279Y-113974687D01*
X135059278Y-113974684D01*
X134988091Y-113868145D01*
X134988085Y-113868138D01*
X133258570Y-112138623D01*
X135051401Y-112138623D01*
X135051401Y-112361376D01*
X135051402Y-112361392D01*
X135080476Y-112582233D01*
X135080477Y-112582238D01*
X135080478Y-112582244D01*
X135107236Y-112682110D01*
X135138134Y-112797422D01*
X135223381Y-113003225D01*
X135223386Y-113003236D01*
X135334762Y-113196143D01*
X135334773Y-113196159D01*
X135470376Y-113372881D01*
X135470382Y-113372888D01*
X135627892Y-113530398D01*
X135627899Y-113530404D01*
X135674814Y-113566403D01*
X135804630Y-113666014D01*
X135804637Y-113666018D01*
X135997544Y-113777394D01*
X135997549Y-113777396D01*
X135997552Y-113777398D01*
X136095347Y-113817906D01*
X136203358Y-113862646D01*
X136203359Y-113862646D01*
X136203361Y-113862647D01*
X136418537Y-113920303D01*
X136639398Y-113949380D01*
X136639405Y-113949380D01*
X136862157Y-113949380D01*
X136862164Y-113949380D01*
X137083025Y-113920303D01*
X137298201Y-113862647D01*
X137504010Y-113777398D01*
X137696932Y-113666014D01*
X137873664Y-113530403D01*
X138031184Y-113372883D01*
X138166795Y-113196151D01*
X138278179Y-113003229D01*
X138363428Y-112797420D01*
X138421084Y-112582244D01*
X138450161Y-112361383D01*
X138450161Y-112138617D01*
X138442645Y-112081526D01*
X142750140Y-112081526D01*
X142750140Y-112418473D01*
X142787863Y-112753274D01*
X142787865Y-112753290D01*
X142862839Y-113081775D01*
X142862843Y-113081787D01*
X142974121Y-113399799D01*
X142974127Y-113399813D01*
X143120313Y-113703372D01*
X143120315Y-113703375D01*
X143299576Y-113988668D01*
X143509653Y-114252096D01*
X143747904Y-114490347D01*
X144011332Y-114700424D01*
X144296625Y-114879685D01*
X144600194Y-115025876D01*
X144600200Y-115025878D01*
X144918212Y-115137156D01*
X144918224Y-115137160D01*
X145246713Y-115212135D01*
X145581527Y-115249859D01*
X145581528Y-115249860D01*
X145581531Y-115249860D01*
X145918472Y-115249860D01*
X145918472Y-115249859D01*
X146253287Y-115212135D01*
X146581776Y-115137160D01*
X146899806Y-115025876D01*
X147203375Y-114879685D01*
X147488668Y-114700424D01*
X147752096Y-114490347D01*
X147990347Y-114252096D01*
X148200424Y-113988668D01*
X148379685Y-113703375D01*
X148525876Y-113399806D01*
X148637160Y-113081776D01*
X148712135Y-112753287D01*
X148749860Y-112418469D01*
X148749860Y-112138623D01*
X153049839Y-112138623D01*
X153049839Y-112361376D01*
X153049840Y-112361392D01*
X153078914Y-112582233D01*
X153078915Y-112582238D01*
X153078916Y-112582244D01*
X153105674Y-112682110D01*
X153136572Y-112797422D01*
X153221819Y-113003225D01*
X153221824Y-113003236D01*
X153333200Y-113196143D01*
X153333211Y-113196159D01*
X153468814Y-113372881D01*
X153468820Y-113372888D01*
X153626330Y-113530398D01*
X153626337Y-113530404D01*
X153673252Y-113566403D01*
X153803068Y-113666014D01*
X153803075Y-113666018D01*
X153995982Y-113777394D01*
X153995987Y-113777396D01*
X153995990Y-113777398D01*
X154093785Y-113817906D01*
X154201796Y-113862646D01*
X154201797Y-113862646D01*
X154201799Y-113862647D01*
X154416975Y-113920303D01*
X154637836Y-113949380D01*
X154637843Y-113949380D01*
X154860595Y-113949380D01*
X154860602Y-113949380D01*
X155081463Y-113920303D01*
X155296639Y-113862647D01*
X155502448Y-113777398D01*
X155695370Y-113666014D01*
X155872102Y-113530403D01*
X156029622Y-113372883D01*
X156165233Y-113196151D01*
X156276617Y-113003229D01*
X156361866Y-112797420D01*
X156419522Y-112582244D01*
X156448599Y-112361383D01*
X156448599Y-112138617D01*
X156419522Y-111917756D01*
X156361866Y-111702580D01*
X156338846Y-111647006D01*
X156295394Y-111542102D01*
X156276617Y-111496771D01*
X156276615Y-111496768D01*
X156276613Y-111496763D01*
X156165237Y-111303856D01*
X156165233Y-111303849D01*
X156029622Y-111127117D01*
X156029617Y-111127111D01*
X155872107Y-110969601D01*
X155872100Y-110969595D01*
X155695378Y-110833992D01*
X155695376Y-110833990D01*
X155695370Y-110833986D01*
X155695365Y-110833983D01*
X155695362Y-110833981D01*
X155502455Y-110722605D01*
X155502444Y-110722600D01*
X155296641Y-110637353D01*
X155181329Y-110606455D01*
X155081463Y-110579697D01*
X155081457Y-110579696D01*
X155081452Y-110579695D01*
X154860611Y-110550621D01*
X154860608Y-110550620D01*
X154860602Y-110550620D01*
X154637836Y-110550620D01*
X154637830Y-110550620D01*
X154637826Y-110550621D01*
X154416985Y-110579695D01*
X154416978Y-110579696D01*
X154416975Y-110579697D01*
X154374764Y-110591007D01*
X154201796Y-110637353D01*
X153995993Y-110722600D01*
X153995982Y-110722605D01*
X153803075Y-110833981D01*
X153803059Y-110833992D01*
X153626337Y-110969595D01*
X153626330Y-110969601D01*
X153468820Y-111127111D01*
X153468814Y-111127118D01*
X153333211Y-111303840D01*
X153333200Y-111303856D01*
X153221824Y-111496763D01*
X153221819Y-111496774D01*
X153136572Y-111702577D01*
X153078917Y-111917753D01*
X153078914Y-111917766D01*
X153049840Y-112138607D01*
X153049839Y-112138623D01*
X148749860Y-112138623D01*
X148749860Y-112081531D01*
X148712135Y-111746713D01*
X148637160Y-111418224D01*
X148525876Y-111100194D01*
X148525872Y-111100187D01*
X148525869Y-111100178D01*
X148379686Y-110796627D01*
X148379685Y-110796625D01*
X148200424Y-110511332D01*
X148135124Y-110429448D01*
X162599500Y-110429448D01*
X162599500Y-110610551D01*
X162627829Y-110789410D01*
X162683787Y-110961636D01*
X162683788Y-110961639D01*
X162733851Y-111059890D01*
X162757550Y-111106403D01*
X162766006Y-111122997D01*
X162872441Y-111269494D01*
X162872445Y-111269499D01*
X163000500Y-111397554D01*
X163000505Y-111397558D01*
X163033656Y-111421643D01*
X163147006Y-111503996D01*
X163221793Y-111542102D01*
X163308360Y-111586211D01*
X163308363Y-111586212D01*
X163394476Y-111614191D01*
X163480591Y-111642171D01*
X163563429Y-111655291D01*
X163659449Y-111670500D01*
X163659454Y-111670500D01*
X163840551Y-111670500D01*
X163927259Y-111656765D01*
X164019409Y-111642171D01*
X164191639Y-111586211D01*
X164352994Y-111503996D01*
X164499501Y-111397553D01*
X164627553Y-111269501D01*
X164733996Y-111122994D01*
X164816211Y-110961639D01*
X164872171Y-110789409D01*
X164886765Y-110697259D01*
X164900500Y-110610551D01*
X164900500Y-110524500D01*
X164920185Y-110457461D01*
X164972989Y-110411706D01*
X165024500Y-110400500D01*
X165110551Y-110400500D01*
X165197259Y-110386765D01*
X165289409Y-110372171D01*
X165461639Y-110316211D01*
X165622994Y-110233996D01*
X165769501Y-110127553D01*
X165897553Y-109999501D01*
X166003996Y-109852994D01*
X166086211Y-109691639D01*
X166142171Y-109519409D01*
X166156765Y-109427259D01*
X166170500Y-109340551D01*
X166170500Y-109159448D01*
X166150248Y-109031588D01*
X166142171Y-108980591D01*
X166114191Y-108894476D01*
X166086212Y-108808363D01*
X166086211Y-108808360D01*
X166057740Y-108752484D01*
X166003996Y-108647006D01*
X165990396Y-108628287D01*
X165897558Y-108500505D01*
X165897554Y-108500500D01*
X165769499Y-108372445D01*
X165769494Y-108372441D01*
X165622997Y-108266006D01*
X165622996Y-108266005D01*
X165622994Y-108266004D01*
X165552333Y-108230000D01*
X165461639Y-108183788D01*
X165461636Y-108183787D01*
X165289410Y-108127829D01*
X165110551Y-108099500D01*
X165110546Y-108099500D01*
X164929454Y-108099500D01*
X164929449Y-108099500D01*
X164750589Y-108127829D01*
X164578363Y-108183787D01*
X164578360Y-108183788D01*
X164514192Y-108216485D01*
X164457897Y-108230000D01*
X164030330Y-108230000D01*
X164050075Y-108210255D01*
X164099444Y-108124745D01*
X164125000Y-108029370D01*
X164125000Y-107930630D01*
X164099444Y-107835255D01*
X164050075Y-107749745D01*
X164030330Y-107730000D01*
X164900000Y-107730000D01*
X164900000Y-107282172D01*
X164899999Y-107282155D01*
X164893598Y-107222627D01*
X164893596Y-107222620D01*
X164843354Y-107087913D01*
X164843350Y-107087906D01*
X164757190Y-106972812D01*
X164757187Y-106972809D01*
X164642093Y-106886649D01*
X164642086Y-106886645D01*
X164507379Y-106836403D01*
X164507372Y-106836401D01*
X164447844Y-106830000D01*
X164000000Y-106830000D01*
X164000000Y-107699670D01*
X163980255Y-107679925D01*
X163894745Y-107630556D01*
X163799370Y-107605000D01*
X163700630Y-107605000D01*
X163605255Y-107630556D01*
X163519745Y-107679925D01*
X163500000Y-107699670D01*
X163500000Y-106830000D01*
X163052155Y-106830000D01*
X162992627Y-106836401D01*
X162992620Y-106836403D01*
X162857913Y-106886645D01*
X162857906Y-106886649D01*
X162742812Y-106972809D01*
X162742809Y-106972812D01*
X162656649Y-107087906D01*
X162656645Y-107087913D01*
X162606403Y-107222620D01*
X162606401Y-107222627D01*
X162600000Y-107282155D01*
X162600000Y-107730000D01*
X163469670Y-107730000D01*
X163449925Y-107749745D01*
X163400556Y-107835255D01*
X163375000Y-107930630D01*
X163375000Y-108029370D01*
X163400556Y-108124745D01*
X163449925Y-108210255D01*
X163469670Y-108230000D01*
X162600000Y-108230000D01*
X162600000Y-108677844D01*
X162606401Y-108737372D01*
X162606403Y-108737379D01*
X162656645Y-108872086D01*
X162656649Y-108872093D01*
X162742809Y-108987187D01*
X162742812Y-108987190D01*
X162857906Y-109073350D01*
X162857913Y-109073354D01*
X162992620Y-109123596D01*
X162992627Y-109123598D01*
X163052155Y-109129999D01*
X163052172Y-109130000D01*
X163596026Y-109130000D01*
X163663065Y-109149685D01*
X163708820Y-109202489D01*
X163718764Y-109271647D01*
X163689739Y-109335203D01*
X163630961Y-109372977D01*
X163615424Y-109376473D01*
X163480589Y-109397829D01*
X163308363Y-109453787D01*
X163308360Y-109453788D01*
X163147002Y-109536006D01*
X163000505Y-109642441D01*
X163000500Y-109642445D01*
X162872445Y-109770500D01*
X162872441Y-109770505D01*
X162766006Y-109917002D01*
X162683788Y-110078360D01*
X162683787Y-110078363D01*
X162627829Y-110250589D01*
X162599500Y-110429448D01*
X148135124Y-110429448D01*
X147990347Y-110247904D01*
X147752096Y-110009653D01*
X147739363Y-109999499D01*
X147631884Y-109913787D01*
X147488668Y-109799576D01*
X147238595Y-109642445D01*
X147203372Y-109620313D01*
X146899813Y-109474127D01*
X146899799Y-109474121D01*
X146581787Y-109362843D01*
X146581775Y-109362839D01*
X146253290Y-109287865D01*
X146253274Y-109287863D01*
X145918473Y-109250140D01*
X145918469Y-109250140D01*
X145581531Y-109250140D01*
X145581526Y-109250140D01*
X145246725Y-109287863D01*
X145246709Y-109287865D01*
X144918224Y-109362839D01*
X144918212Y-109362843D01*
X144600200Y-109474121D01*
X144600186Y-109474127D01*
X144296627Y-109620313D01*
X144011333Y-109799575D01*
X143747904Y-110009652D01*
X143509652Y-110247904D01*
X143299575Y-110511333D01*
X143120313Y-110796627D01*
X142974131Y-111100178D01*
X142974121Y-111100200D01*
X142862843Y-111418212D01*
X142862839Y-111418224D01*
X142787865Y-111746709D01*
X142787863Y-111746725D01*
X142750140Y-112081526D01*
X138442645Y-112081526D01*
X138421084Y-111917756D01*
X138363428Y-111702580D01*
X138340408Y-111647006D01*
X138296956Y-111542102D01*
X138278179Y-111496771D01*
X138278177Y-111496768D01*
X138278175Y-111496763D01*
X138166799Y-111303856D01*
X138166795Y-111303849D01*
X138031184Y-111127117D01*
X138031179Y-111127111D01*
X137873669Y-110969601D01*
X137873662Y-110969595D01*
X137696940Y-110833992D01*
X137696938Y-110833990D01*
X137696932Y-110833986D01*
X137696927Y-110833983D01*
X137696924Y-110833981D01*
X137504017Y-110722605D01*
X137504006Y-110722600D01*
X137298203Y-110637353D01*
X137182891Y-110606455D01*
X137083025Y-110579697D01*
X137083019Y-110579696D01*
X137083014Y-110579695D01*
X136862173Y-110550621D01*
X136862170Y-110550620D01*
X136862164Y-110550620D01*
X136639398Y-110550620D01*
X136639392Y-110550620D01*
X136639388Y-110550621D01*
X136418547Y-110579695D01*
X136418540Y-110579696D01*
X136418537Y-110579697D01*
X136376326Y-110591007D01*
X136203358Y-110637353D01*
X135997555Y-110722600D01*
X135997544Y-110722605D01*
X135804637Y-110833981D01*
X135804621Y-110833992D01*
X135627899Y-110969595D01*
X135627892Y-110969601D01*
X135470382Y-111127111D01*
X135470376Y-111127118D01*
X135334773Y-111303840D01*
X135334762Y-111303856D01*
X135223386Y-111496763D01*
X135223381Y-111496774D01*
X135138134Y-111702577D01*
X135080479Y-111917753D01*
X135080476Y-111917766D01*
X135051402Y-112138607D01*
X135051401Y-112138623D01*
X133258570Y-112138623D01*
X131594673Y-110474726D01*
X131568834Y-110457461D01*
X131488127Y-110403535D01*
X131412405Y-110372170D01*
X131369744Y-110354499D01*
X131369738Y-110354497D01*
X131244071Y-110329500D01*
X131244069Y-110329500D01*
X128742663Y-110329500D01*
X128675624Y-110309815D01*
X128642345Y-110278385D01*
X128607558Y-110230505D01*
X128607554Y-110230500D01*
X128479499Y-110102445D01*
X128479494Y-110102441D01*
X128332997Y-109996006D01*
X128332996Y-109996005D01*
X128332994Y-109996004D01*
X128245490Y-109951418D01*
X128171639Y-109913788D01*
X128171636Y-109913787D01*
X127999410Y-109857829D01*
X127820551Y-109829500D01*
X127820546Y-109829500D01*
X127639454Y-109829500D01*
X127639449Y-109829500D01*
X127460589Y-109857829D01*
X127288363Y-109913787D01*
X127288360Y-109913788D01*
X127127002Y-109996006D01*
X126980505Y-110102441D01*
X126980500Y-110102445D01*
X126852445Y-110230500D01*
X126852441Y-110230505D01*
X126746006Y-110377002D01*
X126663788Y-110538360D01*
X126663787Y-110538363D01*
X126607829Y-110710589D01*
X126579500Y-110889448D01*
X126579500Y-111070551D01*
X126607829Y-111249410D01*
X126663787Y-111421636D01*
X126663790Y-111421643D01*
X126696484Y-111485806D01*
X126710000Y-111542102D01*
X126710000Y-111969670D01*
X126690255Y-111949925D01*
X126604745Y-111900556D01*
X126509370Y-111875000D01*
X126410630Y-111875000D01*
X126315255Y-111900556D01*
X126229745Y-111949925D01*
X126210000Y-111969670D01*
X126210000Y-111100000D01*
X125762155Y-111100000D01*
X125702627Y-111106401D01*
X125702620Y-111106403D01*
X125567913Y-111156645D01*
X125567906Y-111156649D01*
X125452812Y-111242809D01*
X125452809Y-111242812D01*
X125366649Y-111357906D01*
X125366645Y-111357913D01*
X125316403Y-111492620D01*
X125316401Y-111492627D01*
X125310000Y-111552155D01*
X120750500Y-111552155D01*
X120750500Y-108140663D01*
X136052160Y-108140663D01*
X136052160Y-108363416D01*
X136052161Y-108363432D01*
X136081235Y-108584273D01*
X136081236Y-108584278D01*
X136081237Y-108584284D01*
X136081238Y-108584286D01*
X136138893Y-108799462D01*
X136224140Y-109005265D01*
X136224145Y-109005276D01*
X136335521Y-109198183D01*
X136335532Y-109198199D01*
X136471135Y-109374921D01*
X136471141Y-109374928D01*
X136628651Y-109532438D01*
X136628657Y-109532443D01*
X136805389Y-109668054D01*
X136805396Y-109668058D01*
X136998303Y-109779434D01*
X136998308Y-109779436D01*
X136998311Y-109779438D01*
X137101215Y-109822062D01*
X137204117Y-109864686D01*
X137204118Y-109864686D01*
X137204120Y-109864687D01*
X137419296Y-109922343D01*
X137640157Y-109951420D01*
X137640164Y-109951420D01*
X137862916Y-109951420D01*
X137862923Y-109951420D01*
X138083784Y-109922343D01*
X138298960Y-109864687D01*
X138504769Y-109779438D01*
X138697691Y-109668054D01*
X138874423Y-109532443D01*
X139031943Y-109374923D01*
X139167554Y-109198191D01*
X139278938Y-109005269D01*
X139364187Y-108799460D01*
X139421843Y-108584284D01*
X139450920Y-108363423D01*
X139450920Y-108140657D01*
X139421843Y-107919796D01*
X139364187Y-107704620D01*
X139278938Y-107498811D01*
X139278936Y-107498808D01*
X139278934Y-107498803D01*
X139167558Y-107305896D01*
X139167554Y-107305889D01*
X139031943Y-107129157D01*
X139031938Y-107129151D01*
X138874428Y-106971641D01*
X138874421Y-106971635D01*
X138697699Y-106836032D01*
X138697697Y-106836030D01*
X138697691Y-106836026D01*
X138697686Y-106836023D01*
X138697683Y-106836021D01*
X138504776Y-106724645D01*
X138504765Y-106724640D01*
X138298962Y-106639393D01*
X138183650Y-106608495D01*
X138083784Y-106581737D01*
X138083778Y-106581736D01*
X138083773Y-106581735D01*
X137862932Y-106552661D01*
X137862929Y-106552660D01*
X137862923Y-106552660D01*
X137640157Y-106552660D01*
X137640151Y-106552660D01*
X137640147Y-106552661D01*
X137419306Y-106581735D01*
X137419299Y-106581736D01*
X137419296Y-106581737D01*
X137377085Y-106593047D01*
X137204117Y-106639393D01*
X136998314Y-106724640D01*
X136998303Y-106724645D01*
X136805396Y-106836021D01*
X136805380Y-106836032D01*
X136628658Y-106971635D01*
X136628651Y-106971641D01*
X136471141Y-107129151D01*
X136471135Y-107129158D01*
X136335532Y-107305880D01*
X136335521Y-107305896D01*
X136224145Y-107498803D01*
X136224140Y-107498814D01*
X136138893Y-107704617D01*
X136081238Y-107919793D01*
X136081235Y-107919806D01*
X136052161Y-108140647D01*
X136052160Y-108140663D01*
X120750500Y-108140663D01*
X120750500Y-104662155D01*
X125330000Y-104662155D01*
X125330000Y-105110000D01*
X126199670Y-105110000D01*
X126179925Y-105129745D01*
X126130556Y-105215255D01*
X126105000Y-105310630D01*
X126105000Y-105409370D01*
X126130556Y-105504745D01*
X126179925Y-105590255D01*
X126199670Y-105610000D01*
X125330000Y-105610000D01*
X125330000Y-106057844D01*
X125336401Y-106117372D01*
X125336403Y-106117379D01*
X125386645Y-106252086D01*
X125386649Y-106252093D01*
X125472809Y-106367187D01*
X125472812Y-106367190D01*
X125587906Y-106453350D01*
X125587913Y-106453354D01*
X125722620Y-106503596D01*
X125722627Y-106503598D01*
X125782155Y-106509999D01*
X125782172Y-106510000D01*
X126230000Y-106510000D01*
X126230000Y-105640330D01*
X126249745Y-105660075D01*
X126335255Y-105709444D01*
X126430630Y-105735000D01*
X126529370Y-105735000D01*
X126624745Y-105709444D01*
X126710255Y-105660075D01*
X126730000Y-105640330D01*
X126730000Y-106510000D01*
X127177828Y-106510000D01*
X127177844Y-106509999D01*
X127237372Y-106503598D01*
X127237379Y-106503596D01*
X127372086Y-106453354D01*
X127372093Y-106453350D01*
X127487187Y-106367190D01*
X127487190Y-106367187D01*
X127573350Y-106252093D01*
X127573354Y-106252086D01*
X127623596Y-106117379D01*
X127623598Y-106117372D01*
X127629999Y-106057844D01*
X127630000Y-106057827D01*
X127630000Y-105513974D01*
X127649685Y-105446935D01*
X127702489Y-105401180D01*
X127771647Y-105391236D01*
X127835203Y-105420261D01*
X127872977Y-105479039D01*
X127876473Y-105494576D01*
X127897829Y-105629410D01*
X127953787Y-105801636D01*
X127953788Y-105801639D01*
X128009664Y-105911300D01*
X128031705Y-105954557D01*
X128036006Y-105962997D01*
X128142441Y-106109494D01*
X128142445Y-106109499D01*
X128270500Y-106237554D01*
X128270505Y-106237558D01*
X128359456Y-106302184D01*
X128417006Y-106343996D01*
X128508465Y-106390597D01*
X128578360Y-106426211D01*
X128578363Y-106426212D01*
X128661888Y-106453350D01*
X128750591Y-106482171D01*
X128833429Y-106495291D01*
X128929449Y-106510500D01*
X128929454Y-106510500D01*
X129110551Y-106510500D01*
X129197259Y-106496765D01*
X129289409Y-106482171D01*
X129461639Y-106426211D01*
X129622994Y-106343996D01*
X129769501Y-106237553D01*
X129897553Y-106109501D01*
X130003996Y-105962994D01*
X130086211Y-105801639D01*
X130142171Y-105629409D01*
X130161916Y-105504745D01*
X130170500Y-105450551D01*
X130170500Y-105269448D01*
X130145245Y-105110000D01*
X130142171Y-105090591D01*
X130104478Y-104974582D01*
X130086212Y-104918363D01*
X130084346Y-104913858D01*
X130086021Y-104913163D01*
X130074553Y-104852143D01*
X130100821Y-104787399D01*
X130157921Y-104747134D01*
X130197936Y-104740500D01*
X140441295Y-104740500D01*
X140508334Y-104760185D01*
X140554089Y-104812989D01*
X140564033Y-104882147D01*
X140535008Y-104945703D01*
X140501415Y-104971633D01*
X140501946Y-104972552D01*
X140305516Y-105085961D01*
X140305500Y-105085972D01*
X140128778Y-105221575D01*
X140128771Y-105221581D01*
X139971261Y-105379091D01*
X139971255Y-105379098D01*
X139835652Y-105555820D01*
X139835641Y-105555836D01*
X139724265Y-105748743D01*
X139724260Y-105748754D01*
X139639013Y-105954557D01*
X139581358Y-106169733D01*
X139581355Y-106169746D01*
X139552281Y-106390587D01*
X139552280Y-106390603D01*
X139552280Y-106613356D01*
X139552281Y-106613372D01*
X139581355Y-106834213D01*
X139581356Y-106834218D01*
X139581357Y-106834224D01*
X139608115Y-106934090D01*
X139639013Y-107049402D01*
X139724260Y-107255205D01*
X139724265Y-107255216D01*
X139835641Y-107448123D01*
X139835652Y-107448139D01*
X139971255Y-107624861D01*
X139971261Y-107624868D01*
X140128771Y-107782378D01*
X140128777Y-107782383D01*
X140305509Y-107917994D01*
X140317630Y-107924992D01*
X140498423Y-108029374D01*
X140498428Y-108029376D01*
X140498431Y-108029378D01*
X140524326Y-108040104D01*
X140704237Y-108114626D01*
X140704238Y-108114626D01*
X140704240Y-108114627D01*
X140919416Y-108172283D01*
X141140277Y-108201360D01*
X141140284Y-108201360D01*
X141363036Y-108201360D01*
X141363043Y-108201360D01*
X141583904Y-108172283D01*
X141799080Y-108114627D01*
X142004889Y-108029378D01*
X142197811Y-107917994D01*
X142374543Y-107782383D01*
X142532063Y-107624863D01*
X142667674Y-107448131D01*
X142779058Y-107255209D01*
X142864307Y-107049400D01*
X142921963Y-106834224D01*
X142951040Y-106613363D01*
X142951040Y-106390597D01*
X142921963Y-106169736D01*
X142864307Y-105954560D01*
X142779058Y-105748751D01*
X142779056Y-105748748D01*
X142779054Y-105748743D01*
X142667678Y-105555836D01*
X142667674Y-105555829D01*
X142608751Y-105479039D01*
X142532064Y-105379098D01*
X142532058Y-105379091D01*
X142374548Y-105221581D01*
X142374541Y-105221575D01*
X142197819Y-105085972D01*
X142197817Y-105085970D01*
X142197811Y-105085966D01*
X142197806Y-105085963D01*
X142197803Y-105085961D01*
X142001374Y-104972552D01*
X142002199Y-104971122D01*
X141955771Y-104928423D01*
X141938079Y-104860830D01*
X141959739Y-104794403D01*
X142013874Y-104750231D01*
X142062025Y-104740500D01*
X144939635Y-104740500D01*
X145006674Y-104760185D01*
X145052429Y-104812989D01*
X145062373Y-104882147D01*
X145033348Y-104945703D01*
X144999755Y-104971633D01*
X145000286Y-104972552D01*
X144803856Y-105085961D01*
X144803840Y-105085972D01*
X144627118Y-105221575D01*
X144627111Y-105221581D01*
X144469601Y-105379091D01*
X144469595Y-105379098D01*
X144333992Y-105555820D01*
X144333981Y-105555836D01*
X144222605Y-105748743D01*
X144222600Y-105748754D01*
X144137353Y-105954557D01*
X144079698Y-106169733D01*
X144079695Y-106169746D01*
X144050621Y-106390587D01*
X144050620Y-106390603D01*
X144050620Y-106613356D01*
X144050621Y-106613372D01*
X144079695Y-106834213D01*
X144079696Y-106834218D01*
X144079697Y-106834224D01*
X144106455Y-106934090D01*
X144137353Y-107049402D01*
X144222600Y-107255205D01*
X144222605Y-107255216D01*
X144333981Y-107448123D01*
X144333992Y-107448139D01*
X144469595Y-107624861D01*
X144469601Y-107624868D01*
X144627111Y-107782378D01*
X144627117Y-107782383D01*
X144803849Y-107917994D01*
X144815970Y-107924992D01*
X144996763Y-108029374D01*
X144996768Y-108029376D01*
X144996771Y-108029378D01*
X145022666Y-108040104D01*
X145202577Y-108114626D01*
X145202578Y-108114626D01*
X145202580Y-108114627D01*
X145417756Y-108172283D01*
X145638617Y-108201360D01*
X145638624Y-108201360D01*
X145861376Y-108201360D01*
X145861383Y-108201360D01*
X146082244Y-108172283D01*
X146297420Y-108114627D01*
X146503229Y-108029378D01*
X146696151Y-107917994D01*
X146872883Y-107782383D01*
X147030403Y-107624863D01*
X147166014Y-107448131D01*
X147277398Y-107255209D01*
X147362647Y-107049400D01*
X147420303Y-106834224D01*
X147449380Y-106613363D01*
X147449380Y-106390597D01*
X147420303Y-106169736D01*
X147362647Y-105954560D01*
X147277398Y-105748751D01*
X147277396Y-105748748D01*
X147277394Y-105748743D01*
X147166018Y-105555836D01*
X147166014Y-105555829D01*
X147107091Y-105479039D01*
X147030404Y-105379098D01*
X147030398Y-105379091D01*
X146872888Y-105221581D01*
X146872881Y-105221575D01*
X146696159Y-105085972D01*
X146696157Y-105085970D01*
X146696151Y-105085966D01*
X146696146Y-105085963D01*
X146696143Y-105085961D01*
X146499714Y-104972552D01*
X146500539Y-104971122D01*
X146454111Y-104928423D01*
X146436419Y-104860830D01*
X146458079Y-104794403D01*
X146512214Y-104750231D01*
X146560365Y-104740500D01*
X149437975Y-104740500D01*
X149505014Y-104760185D01*
X149550769Y-104812989D01*
X149560713Y-104882147D01*
X149531688Y-104945703D01*
X149498095Y-104971633D01*
X149498626Y-104972552D01*
X149302196Y-105085961D01*
X149302180Y-105085972D01*
X149125458Y-105221575D01*
X149125451Y-105221581D01*
X148967941Y-105379091D01*
X148967935Y-105379098D01*
X148832332Y-105555820D01*
X148832321Y-105555836D01*
X148720945Y-105748743D01*
X148720940Y-105748754D01*
X148635693Y-105954557D01*
X148578038Y-106169733D01*
X148578035Y-106169746D01*
X148548961Y-106390587D01*
X148548960Y-106390603D01*
X148548960Y-106613356D01*
X148548961Y-106613372D01*
X148578035Y-106834213D01*
X148578036Y-106834218D01*
X148578037Y-106834224D01*
X148604795Y-106934090D01*
X148635693Y-107049402D01*
X148720940Y-107255205D01*
X148720945Y-107255216D01*
X148832321Y-107448123D01*
X148832332Y-107448139D01*
X148967935Y-107624861D01*
X148967941Y-107624868D01*
X149125451Y-107782378D01*
X149125457Y-107782383D01*
X149302189Y-107917994D01*
X149314310Y-107924992D01*
X149495103Y-108029374D01*
X149495108Y-108029376D01*
X149495111Y-108029378D01*
X149521006Y-108040104D01*
X149700917Y-108114626D01*
X149700918Y-108114626D01*
X149700920Y-108114627D01*
X149916096Y-108172283D01*
X150136957Y-108201360D01*
X150136964Y-108201360D01*
X150359716Y-108201360D01*
X150359723Y-108201360D01*
X150580584Y-108172283D01*
X150698592Y-108140663D01*
X152049080Y-108140663D01*
X152049080Y-108363416D01*
X152049081Y-108363432D01*
X152078155Y-108584273D01*
X152078156Y-108584278D01*
X152078157Y-108584284D01*
X152078158Y-108584286D01*
X152135813Y-108799462D01*
X152221060Y-109005265D01*
X152221065Y-109005276D01*
X152332441Y-109198183D01*
X152332452Y-109198199D01*
X152468055Y-109374921D01*
X152468061Y-109374928D01*
X152625571Y-109532438D01*
X152625577Y-109532443D01*
X152802309Y-109668054D01*
X152802316Y-109668058D01*
X152995223Y-109779434D01*
X152995228Y-109779436D01*
X152995231Y-109779438D01*
X153098135Y-109822062D01*
X153201037Y-109864686D01*
X153201038Y-109864686D01*
X153201040Y-109864687D01*
X153416216Y-109922343D01*
X153637077Y-109951420D01*
X153637084Y-109951420D01*
X153859836Y-109951420D01*
X153859843Y-109951420D01*
X154080704Y-109922343D01*
X154295880Y-109864687D01*
X154501689Y-109779438D01*
X154694611Y-109668054D01*
X154871343Y-109532443D01*
X155028863Y-109374923D01*
X155164474Y-109198191D01*
X155275858Y-109005269D01*
X155361107Y-108799460D01*
X155418763Y-108584284D01*
X155447840Y-108363423D01*
X155447840Y-108140657D01*
X155418763Y-107919796D01*
X155361107Y-107704620D01*
X155275858Y-107498811D01*
X155184658Y-107340848D01*
X155164482Y-107305901D01*
X155164476Y-107305893D01*
X155164474Y-107305889D01*
X155028863Y-107129157D01*
X155028858Y-107129151D01*
X154871348Y-106971641D01*
X154871341Y-106971635D01*
X154694619Y-106836032D01*
X154694617Y-106836030D01*
X154694611Y-106836026D01*
X154694606Y-106836023D01*
X154694603Y-106836021D01*
X154501696Y-106724645D01*
X154501685Y-106724640D01*
X154295882Y-106639393D01*
X154180570Y-106608495D01*
X154080704Y-106581737D01*
X154080698Y-106581736D01*
X154080693Y-106581735D01*
X153859852Y-106552661D01*
X153859849Y-106552660D01*
X153859843Y-106552660D01*
X153637077Y-106552660D01*
X153637071Y-106552660D01*
X153637067Y-106552661D01*
X153416226Y-106581735D01*
X153416219Y-106581736D01*
X153416216Y-106581737D01*
X153374005Y-106593047D01*
X153201037Y-106639393D01*
X152995234Y-106724640D01*
X152995223Y-106724645D01*
X152802316Y-106836021D01*
X152802300Y-106836032D01*
X152625578Y-106971635D01*
X152625571Y-106971641D01*
X152468061Y-107129151D01*
X152468055Y-107129158D01*
X152332452Y-107305880D01*
X152332441Y-107305896D01*
X152221065Y-107498803D01*
X152221060Y-107498814D01*
X152135813Y-107704617D01*
X152078158Y-107919793D01*
X152078155Y-107919806D01*
X152049081Y-108140647D01*
X152049080Y-108140663D01*
X150698592Y-108140663D01*
X150795760Y-108114627D01*
X151001569Y-108029378D01*
X151001855Y-108029213D01*
X151001859Y-108029211D01*
X151081072Y-107983476D01*
X151194491Y-107917994D01*
X151371223Y-107782383D01*
X151528743Y-107624863D01*
X151664354Y-107448131D01*
X151775738Y-107255209D01*
X151860987Y-107049400D01*
X151918643Y-106834224D01*
X151947720Y-106613363D01*
X151947720Y-106390597D01*
X151918643Y-106169736D01*
X151860987Y-105954560D01*
X151775738Y-105748751D01*
X151775736Y-105748748D01*
X151775734Y-105748743D01*
X151664358Y-105555836D01*
X151664354Y-105555829D01*
X151605431Y-105479039D01*
X151528744Y-105379098D01*
X151528738Y-105379091D01*
X151371228Y-105221581D01*
X151371221Y-105221575D01*
X151194499Y-105085972D01*
X151194497Y-105085970D01*
X151194491Y-105085966D01*
X151194486Y-105085963D01*
X151194483Y-105085961D01*
X150998054Y-104972552D01*
X150998879Y-104971122D01*
X150952451Y-104928423D01*
X150934759Y-104860830D01*
X150956419Y-104794403D01*
X151010554Y-104750231D01*
X151058705Y-104740500D01*
X155374071Y-104740500D01*
X155458615Y-104723682D01*
X155499744Y-104715501D01*
X155618127Y-104666465D01*
X155654486Y-104642171D01*
X155724669Y-104595277D01*
X160283127Y-100036819D01*
X160344450Y-100003334D01*
X160370808Y-100000500D01*
X160498543Y-100000500D01*
X160628582Y-99974632D01*
X160691835Y-99962051D01*
X160832655Y-99903721D01*
X160873907Y-99886635D01*
X160873907Y-99886634D01*
X160873914Y-99886632D01*
X161037782Y-99777139D01*
X161177139Y-99637782D01*
X161286632Y-99473914D01*
X161362051Y-99291835D01*
X161363552Y-99284285D01*
X161395936Y-99222376D01*
X161456651Y-99187800D01*
X161526421Y-99191538D01*
X161572851Y-99220795D01*
X163240375Y-100888319D01*
X163273860Y-100949642D01*
X163268876Y-101019334D01*
X163227004Y-101075267D01*
X163161540Y-101099684D01*
X163152694Y-101100000D01*
X162822156Y-101100000D01*
X162762628Y-101106401D01*
X162762621Y-101106403D01*
X162627914Y-101156645D01*
X162627907Y-101156649D01*
X162512813Y-101242809D01*
X162512810Y-101242812D01*
X162426650Y-101357906D01*
X162426646Y-101357913D01*
X162376404Y-101492620D01*
X162376402Y-101492627D01*
X162370001Y-101552155D01*
X162370001Y-102096025D01*
X162350316Y-102163064D01*
X162297512Y-102208819D01*
X162228354Y-102218763D01*
X162164798Y-102189738D01*
X162127024Y-102130960D01*
X162123528Y-102115423D01*
X162108373Y-102019745D01*
X162102172Y-101980591D01*
X162046212Y-101808361D01*
X162046212Y-101808360D01*
X162017741Y-101752484D01*
X161963997Y-101647006D01*
X161950397Y-101628287D01*
X161857559Y-101500505D01*
X161857555Y-101500500D01*
X161729500Y-101372445D01*
X161729495Y-101372441D01*
X161582998Y-101266006D01*
X161582997Y-101266005D01*
X161582995Y-101266004D01*
X161498321Y-101222860D01*
X161421640Y-101183788D01*
X161421637Y-101183787D01*
X161249411Y-101127829D01*
X161070552Y-101099500D01*
X161070547Y-101099500D01*
X160889455Y-101099500D01*
X160889450Y-101099500D01*
X160710590Y-101127829D01*
X160538364Y-101183787D01*
X160538361Y-101183788D01*
X160377003Y-101266006D01*
X160230506Y-101372441D01*
X160230501Y-101372445D01*
X160102446Y-101500500D01*
X160102442Y-101500505D01*
X159996007Y-101647002D01*
X159913789Y-101808360D01*
X159913788Y-101808363D01*
X159857830Y-101980589D01*
X159829501Y-102159448D01*
X159829501Y-102340551D01*
X159857830Y-102519410D01*
X159913788Y-102691636D01*
X159913789Y-102691639D01*
X159996007Y-102852997D01*
X160102442Y-102999494D01*
X160102446Y-102999499D01*
X160230501Y-103127554D01*
X160230506Y-103127558D01*
X160330214Y-103199999D01*
X160377007Y-103233996D01*
X160482485Y-103287740D01*
X160538361Y-103316211D01*
X160538364Y-103316212D01*
X160613114Y-103340499D01*
X160710592Y-103372171D01*
X160793430Y-103385291D01*
X160889450Y-103400500D01*
X160975501Y-103400500D01*
X161042540Y-103420185D01*
X161088295Y-103472989D01*
X161099501Y-103524500D01*
X161099501Y-103610551D01*
X161127830Y-103789410D01*
X161183788Y-103961636D01*
X161183789Y-103961639D01*
X161266007Y-104122997D01*
X161372442Y-104269494D01*
X161372446Y-104269499D01*
X161500501Y-104397554D01*
X161500506Y-104397558D01*
X161597333Y-104467906D01*
X161647007Y-104503996D01*
X161752485Y-104557740D01*
X161808361Y-104586211D01*
X161808364Y-104586212D01*
X161858886Y-104602627D01*
X161980592Y-104642171D01*
X162063430Y-104655291D01*
X162159450Y-104670500D01*
X162159455Y-104670500D01*
X162340552Y-104670500D01*
X162427260Y-104656765D01*
X162519410Y-104642171D01*
X162691640Y-104586211D01*
X162852995Y-104503996D01*
X162999502Y-104397553D01*
X163127554Y-104269501D01*
X163233997Y-104122994D01*
X163316212Y-103961639D01*
X163372172Y-103789409D01*
X163386766Y-103697259D01*
X163400501Y-103610551D01*
X163400501Y-103429448D01*
X163381658Y-103310483D01*
X163372172Y-103250591D01*
X163344192Y-103164476D01*
X163316213Y-103078363D01*
X163316211Y-103078360D01*
X163283516Y-103014191D01*
X163270001Y-102957896D01*
X163270001Y-102530330D01*
X163289746Y-102550075D01*
X163375256Y-102599444D01*
X163470631Y-102625000D01*
X163569371Y-102625000D01*
X163664746Y-102599444D01*
X163750256Y-102550075D01*
X163770001Y-102530330D01*
X163770001Y-103400000D01*
X164217829Y-103400000D01*
X164217845Y-103399999D01*
X164277373Y-103393598D01*
X164277380Y-103393596D01*
X164412087Y-103343354D01*
X164412094Y-103343350D01*
X164527188Y-103257190D01*
X164527191Y-103257187D01*
X164613351Y-103142093D01*
X164613355Y-103142086D01*
X164663597Y-103007379D01*
X164663599Y-103007372D01*
X164670000Y-102947844D01*
X164670001Y-102947827D01*
X164670001Y-102617307D01*
X164689686Y-102550268D01*
X164742490Y-102504513D01*
X164811648Y-102494569D01*
X164875204Y-102523594D01*
X164881682Y-102529626D01*
X169163181Y-106811125D01*
X169196666Y-106872448D01*
X169199500Y-106898806D01*
X169199500Y-106901459D01*
X169199500Y-107098541D01*
X169199500Y-107098543D01*
X169199499Y-107098543D01*
X169237947Y-107291829D01*
X169237950Y-107291839D01*
X169313364Y-107473907D01*
X169313371Y-107473920D01*
X169422860Y-107637781D01*
X169422863Y-107637785D01*
X169562214Y-107777136D01*
X169562218Y-107777139D01*
X169726079Y-107886628D01*
X169726092Y-107886635D01*
X169832307Y-107930630D01*
X169908165Y-107962051D01*
X169908169Y-107962051D01*
X169908170Y-107962052D01*
X170101456Y-108000500D01*
X170101459Y-108000500D01*
X170298543Y-108000500D01*
X170428582Y-107974632D01*
X170491835Y-107962051D01*
X170673914Y-107886632D01*
X170837782Y-107777139D01*
X170977139Y-107637782D01*
X171086632Y-107473914D01*
X171162051Y-107291835D01*
X171174632Y-107228582D01*
X171200500Y-107098543D01*
X171200500Y-106901456D01*
X171162052Y-106708170D01*
X171162051Y-106708169D01*
X171162051Y-106708165D01*
X171109684Y-106581738D01*
X171086635Y-106526092D01*
X171086628Y-106526079D01*
X170977139Y-106362218D01*
X170977136Y-106362214D01*
X170837785Y-106222863D01*
X170837781Y-106222860D01*
X170673920Y-106113371D01*
X170673907Y-106113364D01*
X170491839Y-106037950D01*
X170491829Y-106037947D01*
X170298543Y-105999500D01*
X170298541Y-105999500D01*
X170242808Y-105999500D01*
X170175769Y-105979815D01*
X170155127Y-105963181D01*
X160436675Y-96244727D01*
X160436674Y-96244726D01*
X160436670Y-96244723D01*
X160330128Y-96173535D01*
X160266069Y-96147001D01*
X160211745Y-96124499D01*
X160211739Y-96124497D01*
X160086072Y-96099500D01*
X160086070Y-96099500D01*
X151012663Y-96099500D01*
X150945624Y-96079815D01*
X150912345Y-96048385D01*
X150877558Y-96000505D01*
X150877554Y-96000500D01*
X150749499Y-95872445D01*
X150749494Y-95872441D01*
X150602997Y-95766006D01*
X150602996Y-95766005D01*
X150602994Y-95766004D01*
X150524345Y-95725930D01*
X150441639Y-95683788D01*
X150441636Y-95683787D01*
X150269410Y-95627829D01*
X150090551Y-95599500D01*
X150090546Y-95599500D01*
X149909454Y-95599500D01*
X149909449Y-95599500D01*
X149730589Y-95627829D01*
X149558363Y-95683787D01*
X149558360Y-95683788D01*
X149494192Y-95716485D01*
X149437897Y-95730000D01*
X149010330Y-95730000D01*
X149030075Y-95710255D01*
X149079444Y-95624745D01*
X149105000Y-95529370D01*
X149105000Y-95430630D01*
X149079444Y-95335255D01*
X149030075Y-95249745D01*
X149010330Y-95230000D01*
X149880000Y-95230000D01*
X149880000Y-94782172D01*
X149879999Y-94782155D01*
X149873598Y-94722627D01*
X149873596Y-94722620D01*
X149823354Y-94587913D01*
X149823350Y-94587906D01*
X149737190Y-94472812D01*
X149737187Y-94472809D01*
X149622093Y-94386649D01*
X149622086Y-94386645D01*
X149487379Y-94336403D01*
X149487372Y-94336401D01*
X149427844Y-94330000D01*
X148980000Y-94330000D01*
X148980000Y-95199670D01*
X148960255Y-95179925D01*
X148874745Y-95130556D01*
X148779370Y-95105000D01*
X148680630Y-95105000D01*
X148585255Y-95130556D01*
X148499745Y-95179925D01*
X148480000Y-95199670D01*
X148480000Y-94330000D01*
X148032155Y-94330000D01*
X147972627Y-94336401D01*
X147972620Y-94336403D01*
X147837913Y-94386645D01*
X147837906Y-94386649D01*
X147722812Y-94472809D01*
X147722809Y-94472812D01*
X147636649Y-94587906D01*
X147636645Y-94587913D01*
X147586403Y-94722620D01*
X147586401Y-94722627D01*
X147580000Y-94782155D01*
X147580000Y-95230000D01*
X148449670Y-95230000D01*
X148429925Y-95249745D01*
X148380556Y-95335255D01*
X148355000Y-95430630D01*
X148355000Y-95529370D01*
X148380556Y-95624745D01*
X148429925Y-95710255D01*
X148449670Y-95730000D01*
X147580000Y-95730000D01*
X147580000Y-96177844D01*
X147586401Y-96237372D01*
X147586403Y-96237379D01*
X147636645Y-96372086D01*
X147636649Y-96372093D01*
X147722809Y-96487187D01*
X147722812Y-96487190D01*
X147837906Y-96573350D01*
X147837913Y-96573354D01*
X147972620Y-96623596D01*
X147972627Y-96623598D01*
X148032155Y-96629999D01*
X148032172Y-96630000D01*
X148576026Y-96630000D01*
X148643065Y-96649685D01*
X148688820Y-96702489D01*
X148698764Y-96771647D01*
X148669739Y-96835203D01*
X148610961Y-96872977D01*
X148595424Y-96876473D01*
X148460589Y-96897829D01*
X148288363Y-96953787D01*
X148288360Y-96953788D01*
X148127002Y-97036006D01*
X147980505Y-97142441D01*
X147980500Y-97142445D01*
X147852445Y-97270500D01*
X147852441Y-97270505D01*
X147746006Y-97417002D01*
X147663788Y-97578360D01*
X147663787Y-97578363D01*
X147607829Y-97750589D01*
X147579500Y-97929448D01*
X147579500Y-98110551D01*
X147607829Y-98289410D01*
X147663787Y-98461636D01*
X147663788Y-98461639D01*
X147719664Y-98571300D01*
X147746003Y-98622993D01*
X147746006Y-98622997D01*
X147852441Y-98769494D01*
X147852445Y-98769499D01*
X147980500Y-98897554D01*
X147980505Y-98897558D01*
X148099474Y-98983993D01*
X148127006Y-99003996D01*
X148214240Y-99048444D01*
X148288360Y-99086211D01*
X148288363Y-99086212D01*
X148326309Y-99098541D01*
X148460591Y-99142171D01*
X148543429Y-99155291D01*
X148639449Y-99170500D01*
X148639454Y-99170500D01*
X148820551Y-99170500D01*
X148907259Y-99156765D01*
X148999409Y-99142171D01*
X149171639Y-99086211D01*
X149332994Y-99003996D01*
X149479501Y-98897553D01*
X149607553Y-98769501D01*
X149713996Y-98622994D01*
X149796211Y-98461639D01*
X149852171Y-98289409D01*
X149876082Y-98138443D01*
X149880500Y-98110551D01*
X149880500Y-98024500D01*
X149900185Y-97957461D01*
X149952989Y-97911706D01*
X150004500Y-97900500D01*
X150090551Y-97900500D01*
X150177259Y-97886765D01*
X150269409Y-97872171D01*
X150441639Y-97816211D01*
X150602994Y-97733996D01*
X150749501Y-97627553D01*
X150877553Y-97499501D01*
X150892084Y-97479501D01*
X150912345Y-97451615D01*
X150967674Y-97408949D01*
X151012663Y-97400500D01*
X159701193Y-97400500D01*
X159768232Y-97420185D01*
X159788874Y-97436819D01*
X160179203Y-97827148D01*
X160212688Y-97888471D01*
X160207704Y-97958163D01*
X160165832Y-98014096D01*
X160115723Y-98036444D01*
X160108177Y-98037945D01*
X160108160Y-98037950D01*
X159926092Y-98113364D01*
X159926079Y-98113371D01*
X159762218Y-98222860D01*
X159762214Y-98222863D01*
X159622863Y-98362214D01*
X159622860Y-98362218D01*
X159513371Y-98526079D01*
X159513364Y-98526092D01*
X159437950Y-98708160D01*
X159437947Y-98708170D01*
X159399500Y-98901456D01*
X159399500Y-99029192D01*
X159379815Y-99096231D01*
X159363181Y-99116873D01*
X155076873Y-103403181D01*
X155015550Y-103436666D01*
X154989192Y-103439500D01*
X128762663Y-103439500D01*
X128695624Y-103419815D01*
X128662345Y-103388385D01*
X128627558Y-103340505D01*
X128627554Y-103340500D01*
X128499499Y-103212445D01*
X128499494Y-103212441D01*
X128352997Y-103106006D01*
X128352996Y-103106005D01*
X128352994Y-103106004D01*
X128298740Y-103078360D01*
X128191639Y-103023788D01*
X128191636Y-103023787D01*
X128019410Y-102967829D01*
X127840551Y-102939500D01*
X127840546Y-102939500D01*
X127659454Y-102939500D01*
X127659449Y-102939500D01*
X127480589Y-102967829D01*
X127308363Y-103023787D01*
X127308360Y-103023788D01*
X127147002Y-103106006D01*
X127000505Y-103212441D01*
X127000500Y-103212445D01*
X126872445Y-103340500D01*
X126872441Y-103340505D01*
X126766006Y-103487002D01*
X126683788Y-103648360D01*
X126683787Y-103648363D01*
X126627829Y-103820589D01*
X126599500Y-103999448D01*
X126599500Y-104180551D01*
X126627829Y-104359410D01*
X126683787Y-104531636D01*
X126683790Y-104531643D01*
X126716484Y-104595806D01*
X126730000Y-104652102D01*
X126730000Y-105079670D01*
X126710255Y-105059925D01*
X126624745Y-105010556D01*
X126529370Y-104985000D01*
X126430630Y-104985000D01*
X126335255Y-105010556D01*
X126249745Y-105059925D01*
X126230000Y-105079670D01*
X126230000Y-104210000D01*
X125782155Y-104210000D01*
X125722627Y-104216401D01*
X125722620Y-104216403D01*
X125587913Y-104266645D01*
X125587906Y-104266649D01*
X125472812Y-104352809D01*
X125472809Y-104352812D01*
X125386649Y-104467906D01*
X125386645Y-104467913D01*
X125336403Y-104602620D01*
X125336401Y-104602627D01*
X125330000Y-104662155D01*
X120750500Y-104662155D01*
X120750500Y-97929447D01*
X129529502Y-97929447D01*
X129529502Y-98110550D01*
X129557831Y-98289409D01*
X129613789Y-98461635D01*
X129613790Y-98461638D01*
X129646629Y-98526086D01*
X129685817Y-98602997D01*
X129696008Y-98622996D01*
X129802443Y-98769493D01*
X129802447Y-98769498D01*
X129930502Y-98897553D01*
X129930507Y-98897557D01*
X130013921Y-98958160D01*
X130077008Y-99003995D01*
X130164244Y-99048444D01*
X130238362Y-99086210D01*
X130238365Y-99086211D01*
X130324478Y-99114190D01*
X130410593Y-99142170D01*
X130493431Y-99155290D01*
X130589451Y-99170499D01*
X130589456Y-99170499D01*
X130770553Y-99170499D01*
X130857261Y-99156764D01*
X130949411Y-99142170D01*
X131121641Y-99086210D01*
X131282996Y-99003995D01*
X131429503Y-98897552D01*
X131557555Y-98769500D01*
X131663998Y-98622993D01*
X131746213Y-98461638D01*
X131802173Y-98289408D01*
X131819104Y-98182512D01*
X131830502Y-98110550D01*
X131830502Y-98024499D01*
X131850187Y-97957460D01*
X131902991Y-97911705D01*
X131954502Y-97900499D01*
X132040553Y-97900499D01*
X132137016Y-97885220D01*
X132219411Y-97872170D01*
X132391641Y-97816210D01*
X132552996Y-97733995D01*
X132699503Y-97627552D01*
X132827555Y-97499500D01*
X132933998Y-97352993D01*
X133016213Y-97191638D01*
X133072173Y-97019408D01*
X133091429Y-96897829D01*
X133100502Y-96840550D01*
X133100502Y-96659447D01*
X133073218Y-96487189D01*
X133072173Y-96480590D01*
X133036921Y-96372093D01*
X133016214Y-96308362D01*
X133016213Y-96308359D01*
X132980046Y-96237379D01*
X132933998Y-96147005D01*
X132862347Y-96048385D01*
X132827560Y-96000504D01*
X132827556Y-96000499D01*
X132699505Y-95872448D01*
X132699504Y-95872447D01*
X132699503Y-95872446D01*
X132675491Y-95855000D01*
X132651616Y-95837653D01*
X132608950Y-95782323D01*
X132600502Y-95737336D01*
X132600502Y-95120806D01*
X132620187Y-95053767D01*
X132636821Y-95033125D01*
X134783127Y-92886819D01*
X134844450Y-92853334D01*
X134870808Y-92850500D01*
X139530192Y-92850500D01*
X139597231Y-92870185D01*
X139642986Y-92922989D01*
X139652930Y-92992147D01*
X139623905Y-93055703D01*
X139617873Y-93062181D01*
X137895388Y-94784665D01*
X137834065Y-94818150D01*
X137764373Y-94813166D01*
X137708440Y-94771294D01*
X137684418Y-94710240D01*
X137683599Y-94702627D01*
X137683597Y-94702620D01*
X137633355Y-94567913D01*
X137633351Y-94567906D01*
X137547191Y-94452812D01*
X137547188Y-94452809D01*
X137432094Y-94366649D01*
X137432087Y-94366645D01*
X137297380Y-94316403D01*
X137297373Y-94316401D01*
X137237845Y-94310000D01*
X136790001Y-94310000D01*
X136790001Y-95179670D01*
X136770256Y-95159925D01*
X136684746Y-95110556D01*
X136589371Y-95085000D01*
X136490631Y-95085000D01*
X136395256Y-95110556D01*
X136309746Y-95159925D01*
X136290001Y-95179670D01*
X136290001Y-94310000D01*
X135842156Y-94310000D01*
X135782628Y-94316401D01*
X135782621Y-94316403D01*
X135647914Y-94366645D01*
X135647907Y-94366649D01*
X135532813Y-94452809D01*
X135532810Y-94452812D01*
X135446650Y-94567906D01*
X135446646Y-94567913D01*
X135396404Y-94702620D01*
X135396402Y-94702627D01*
X135390001Y-94762155D01*
X135390001Y-95210000D01*
X136259671Y-95210000D01*
X136239926Y-95229745D01*
X136190557Y-95315255D01*
X136165001Y-95410630D01*
X136165001Y-95509370D01*
X136190557Y-95604745D01*
X136239926Y-95690255D01*
X136259671Y-95710000D01*
X135390001Y-95710000D01*
X135390001Y-96157844D01*
X135396402Y-96217372D01*
X135396404Y-96217379D01*
X135446646Y-96352086D01*
X135446650Y-96352093D01*
X135532810Y-96467187D01*
X135532813Y-96467190D01*
X135647907Y-96553350D01*
X135647914Y-96553354D01*
X135782621Y-96603596D01*
X135782628Y-96603598D01*
X135842156Y-96609999D01*
X135842173Y-96610000D01*
X136386027Y-96610000D01*
X136453066Y-96629685D01*
X136498821Y-96682489D01*
X136508765Y-96751647D01*
X136479740Y-96815203D01*
X136420962Y-96852977D01*
X136405425Y-96856473D01*
X136270590Y-96877829D01*
X136098364Y-96933787D01*
X136098361Y-96933788D01*
X135937003Y-97016006D01*
X135790506Y-97122441D01*
X135790501Y-97122445D01*
X135662446Y-97250500D01*
X135662442Y-97250505D01*
X135556007Y-97397002D01*
X135473789Y-97558360D01*
X135473788Y-97558363D01*
X135417830Y-97730589D01*
X135389501Y-97909448D01*
X135389501Y-98090551D01*
X135417830Y-98269410D01*
X135473788Y-98441636D01*
X135473789Y-98441639D01*
X135556007Y-98602997D01*
X135662442Y-98749494D01*
X135662446Y-98749499D01*
X135790501Y-98877554D01*
X135790506Y-98877558D01*
X135901453Y-98958165D01*
X135937007Y-98983996D01*
X136025709Y-99029192D01*
X136098361Y-99066211D01*
X136098364Y-99066212D01*
X136184477Y-99094191D01*
X136270592Y-99122171D01*
X136339766Y-99133127D01*
X136449450Y-99150500D01*
X136449455Y-99150500D01*
X136630552Y-99150500D01*
X136717260Y-99136765D01*
X136809410Y-99122171D01*
X136981640Y-99066211D01*
X137142995Y-98983996D01*
X137289502Y-98877553D01*
X137417554Y-98749501D01*
X137523997Y-98602994D01*
X137606212Y-98441639D01*
X137662172Y-98269409D01*
X137686886Y-98113371D01*
X137690501Y-98090551D01*
X137690501Y-98004500D01*
X137710186Y-97937461D01*
X137742515Y-97909448D01*
X141389501Y-97909448D01*
X141389501Y-98090551D01*
X141417830Y-98269410D01*
X141473788Y-98441636D01*
X141473789Y-98441639D01*
X141556007Y-98602997D01*
X141662442Y-98749494D01*
X141662446Y-98749499D01*
X141790501Y-98877554D01*
X141790506Y-98877558D01*
X141901453Y-98958165D01*
X141937007Y-98983996D01*
X142025709Y-99029192D01*
X142098361Y-99066211D01*
X142098364Y-99066212D01*
X142184477Y-99094191D01*
X142270592Y-99122171D01*
X142339766Y-99133127D01*
X142449450Y-99150500D01*
X142449455Y-99150500D01*
X142630552Y-99150500D01*
X142717260Y-99136765D01*
X142809410Y-99122171D01*
X142981640Y-99066211D01*
X143142995Y-98983996D01*
X143289502Y-98877553D01*
X143417554Y-98749501D01*
X143523997Y-98602994D01*
X143606212Y-98441639D01*
X143662172Y-98269409D01*
X143686886Y-98113371D01*
X143690501Y-98090551D01*
X143690501Y-98004500D01*
X143691889Y-97999772D01*
X143690869Y-97994951D01*
X143701637Y-97966574D01*
X143710186Y-97937461D01*
X143713909Y-97934234D01*
X143715658Y-97929627D01*
X143740059Y-97911575D01*
X143762990Y-97891706D01*
X143768950Y-97890202D01*
X143771828Y-97888074D01*
X143790602Y-97884741D01*
X143806358Y-97880768D01*
X143810430Y-97880500D01*
X143900547Y-97880500D01*
X143964608Y-97870353D01*
X143970263Y-97869981D01*
X143999047Y-97876414D01*
X144028300Y-97880194D01*
X144034290Y-97884290D01*
X144038450Y-97885220D01*
X144044292Y-97891129D01*
X144066087Y-97906032D01*
X147065326Y-100905272D01*
X147065333Y-100905278D01*
X147159126Y-100967948D01*
X147159127Y-100967948D01*
X147163395Y-100970799D01*
X147171874Y-100976465D01*
X147290257Y-101025501D01*
X147290261Y-101025501D01*
X147290262Y-101025502D01*
X147415929Y-101050500D01*
X147415932Y-101050500D01*
X147544070Y-101050500D01*
X152584217Y-101050500D01*
X152651256Y-101070185D01*
X152671893Y-101086814D01*
X152741724Y-101156645D01*
X152762219Y-101177140D01*
X152926079Y-101286628D01*
X152926092Y-101286635D01*
X153098158Y-101357906D01*
X153108165Y-101362051D01*
X153108169Y-101362051D01*
X153108170Y-101362052D01*
X153301456Y-101400500D01*
X153301459Y-101400500D01*
X153498543Y-101400500D01*
X153639581Y-101372445D01*
X153691835Y-101362051D01*
X153873914Y-101286632D01*
X154037782Y-101177139D01*
X154177139Y-101037782D01*
X154286632Y-100873914D01*
X154362051Y-100691835D01*
X154382595Y-100588556D01*
X154400500Y-100498543D01*
X154400500Y-100301456D01*
X154362052Y-100108170D01*
X154362051Y-100108169D01*
X154362051Y-100108165D01*
X154317455Y-100000500D01*
X154286635Y-99926092D01*
X154286628Y-99926079D01*
X154177139Y-99762218D01*
X154177136Y-99762214D01*
X154037785Y-99622863D01*
X154037781Y-99622860D01*
X153873920Y-99513371D01*
X153873907Y-99513364D01*
X153691839Y-99437950D01*
X153691829Y-99437947D01*
X153498543Y-99399500D01*
X153498541Y-99399500D01*
X153301459Y-99399500D01*
X153301457Y-99399500D01*
X153108170Y-99437947D01*
X153108160Y-99437950D01*
X152926092Y-99513364D01*
X152926079Y-99513371D01*
X152762219Y-99622859D01*
X152717059Y-99668020D01*
X152671896Y-99713182D01*
X152610576Y-99746666D01*
X152584217Y-99749500D01*
X147800809Y-99749500D01*
X147733770Y-99729815D01*
X147713128Y-99713181D01*
X144986033Y-96986086D01*
X144952548Y-96924763D01*
X144951241Y-96879006D01*
X144951428Y-96877829D01*
X144960501Y-96820546D01*
X144960501Y-96639454D01*
X144960501Y-96639448D01*
X144943760Y-96533757D01*
X144932172Y-96460591D01*
X144903415Y-96372085D01*
X144876213Y-96288363D01*
X144876212Y-96288360D01*
X144847741Y-96232484D01*
X144793997Y-96127006D01*
X144736876Y-96048385D01*
X144687559Y-95980505D01*
X144687555Y-95980500D01*
X144559500Y-95852445D01*
X144559495Y-95852441D01*
X144412998Y-95746006D01*
X144412997Y-95746005D01*
X144412995Y-95746004D01*
X144320341Y-95698794D01*
X144251640Y-95663788D01*
X144251637Y-95663787D01*
X144079411Y-95607829D01*
X143900552Y-95579500D01*
X143900547Y-95579500D01*
X143719455Y-95579500D01*
X143719450Y-95579500D01*
X143540590Y-95607829D01*
X143368364Y-95663787D01*
X143368361Y-95663788D01*
X143304193Y-95696485D01*
X143247898Y-95710000D01*
X142820331Y-95710000D01*
X142840076Y-95690255D01*
X142889445Y-95604745D01*
X142915001Y-95509370D01*
X142915001Y-95410630D01*
X142889445Y-95315255D01*
X142840076Y-95229745D01*
X142820331Y-95210000D01*
X143690001Y-95210000D01*
X143690001Y-94762172D01*
X143690000Y-94762155D01*
X143683599Y-94702627D01*
X143683597Y-94702620D01*
X143633355Y-94567913D01*
X143633351Y-94567906D01*
X143547191Y-94452812D01*
X143547188Y-94452809D01*
X143432094Y-94366649D01*
X143432087Y-94366645D01*
X143297380Y-94316403D01*
X143297373Y-94316401D01*
X143237845Y-94310000D01*
X142790001Y-94310000D01*
X142790001Y-95179670D01*
X142770256Y-95159925D01*
X142684746Y-95110556D01*
X142589371Y-95085000D01*
X142490631Y-95085000D01*
X142395256Y-95110556D01*
X142309746Y-95159925D01*
X142290001Y-95179670D01*
X142290001Y-94310000D01*
X141842156Y-94310000D01*
X141782628Y-94316401D01*
X141782621Y-94316403D01*
X141647914Y-94366645D01*
X141647907Y-94366649D01*
X141532813Y-94452809D01*
X141532810Y-94452812D01*
X141446650Y-94567906D01*
X141446646Y-94567913D01*
X141396404Y-94702620D01*
X141396402Y-94702627D01*
X141390001Y-94762155D01*
X141390001Y-95210000D01*
X142259671Y-95210000D01*
X142239926Y-95229745D01*
X142190557Y-95315255D01*
X142165001Y-95410630D01*
X142165001Y-95509370D01*
X142190557Y-95604745D01*
X142239926Y-95690255D01*
X142259671Y-95710000D01*
X141390001Y-95710000D01*
X141390001Y-96157844D01*
X141396402Y-96217372D01*
X141396404Y-96217379D01*
X141446646Y-96352086D01*
X141446650Y-96352093D01*
X141532810Y-96467187D01*
X141532813Y-96467190D01*
X141647907Y-96553350D01*
X141647914Y-96553354D01*
X141782621Y-96603596D01*
X141782628Y-96603598D01*
X141842156Y-96609999D01*
X141842173Y-96610000D01*
X142386027Y-96610000D01*
X142453066Y-96629685D01*
X142498821Y-96682489D01*
X142508765Y-96751647D01*
X142479740Y-96815203D01*
X142420962Y-96852977D01*
X142405425Y-96856473D01*
X142270590Y-96877829D01*
X142098364Y-96933787D01*
X142098361Y-96933788D01*
X141937003Y-97016006D01*
X141790506Y-97122441D01*
X141790501Y-97122445D01*
X141662446Y-97250500D01*
X141662442Y-97250505D01*
X141556007Y-97397002D01*
X141473789Y-97558360D01*
X141473788Y-97558363D01*
X141417830Y-97730589D01*
X141389501Y-97909448D01*
X137742515Y-97909448D01*
X137762990Y-97891706D01*
X137814501Y-97880500D01*
X137900552Y-97880500D01*
X137987260Y-97866765D01*
X138079410Y-97852171D01*
X138251640Y-97796211D01*
X138251644Y-97796209D01*
X138255788Y-97794098D01*
X138255789Y-97794097D01*
X138259389Y-97792262D01*
X138412995Y-97713996D01*
X138559502Y-97607553D01*
X138687554Y-97479501D01*
X138793997Y-97332994D01*
X138876212Y-97171639D01*
X138932172Y-96999409D01*
X138951242Y-96879006D01*
X138960501Y-96820551D01*
X138960501Y-96639448D01*
X138943760Y-96533757D01*
X138932172Y-96460591D01*
X138903415Y-96372085D01*
X138876213Y-96288363D01*
X138876212Y-96288360D01*
X138847741Y-96232484D01*
X138793997Y-96127006D01*
X138736876Y-96048385D01*
X138687479Y-95980394D01*
X138663999Y-95914587D01*
X138679825Y-95846534D01*
X138700112Y-95819832D01*
X140633127Y-93886819D01*
X140694450Y-93853334D01*
X140720808Y-93850500D01*
X158879192Y-93850500D01*
X158946231Y-93870185D01*
X158966873Y-93886819D01*
X167585324Y-102505271D01*
X167585327Y-102505274D01*
X167678879Y-102567783D01*
X167678880Y-102567784D01*
X167691865Y-102576460D01*
X167691870Y-102576463D01*
X167691873Y-102576465D01*
X167810256Y-102625501D01*
X167810260Y-102625501D01*
X167810261Y-102625502D01*
X167935928Y-102650500D01*
X167935931Y-102650500D01*
X167984217Y-102650500D01*
X168051256Y-102670185D01*
X168071893Y-102686814D01*
X168155578Y-102770499D01*
X168162219Y-102777140D01*
X168326079Y-102886628D01*
X168326092Y-102886635D01*
X168508160Y-102962049D01*
X168508165Y-102962051D01*
X168508169Y-102962051D01*
X168508170Y-102962052D01*
X168701456Y-103000500D01*
X168701459Y-103000500D01*
X168898543Y-103000500D01*
X169062787Y-102967829D01*
X169091835Y-102962051D01*
X169273914Y-102886632D01*
X169437782Y-102777139D01*
X169577139Y-102637782D01*
X169686632Y-102473914D01*
X169762051Y-102291835D01*
X169782360Y-102189738D01*
X169800500Y-102098543D01*
X169800500Y-101901456D01*
X169762052Y-101708170D01*
X169762051Y-101708169D01*
X169762051Y-101708165D01*
X169762049Y-101708160D01*
X169686635Y-101526092D01*
X169686628Y-101526079D01*
X169577139Y-101362218D01*
X169577136Y-101362214D01*
X169437785Y-101222863D01*
X169437781Y-101222860D01*
X169273920Y-101113371D01*
X169273907Y-101113364D01*
X169091839Y-101037950D01*
X169091829Y-101037947D01*
X168898543Y-100999500D01*
X168898541Y-100999500D01*
X168701459Y-100999500D01*
X168701457Y-100999500D01*
X168508170Y-101037947D01*
X168508160Y-101037950D01*
X168326092Y-101113364D01*
X168326081Y-101113370D01*
X168235194Y-101174099D01*
X168168517Y-101194976D01*
X168101137Y-101176491D01*
X168078623Y-101158677D01*
X159982127Y-93062181D01*
X159948642Y-93000858D01*
X159953626Y-92931166D01*
X159995498Y-92875233D01*
X160060962Y-92850816D01*
X160069808Y-92850500D01*
X160629192Y-92850500D01*
X160696231Y-92870185D01*
X160716873Y-92886819D01*
X166963181Y-99133127D01*
X166996666Y-99194450D01*
X166999500Y-99220808D01*
X166999500Y-99348541D01*
X166999500Y-99348543D01*
X166999499Y-99348543D01*
X167037947Y-99541829D01*
X167037950Y-99541839D01*
X167113364Y-99723907D01*
X167113371Y-99723920D01*
X167222860Y-99887781D01*
X167222863Y-99887785D01*
X167362214Y-100027136D01*
X167362218Y-100027139D01*
X167526079Y-100136628D01*
X167526092Y-100136635D01*
X167708160Y-100212049D01*
X167708165Y-100212051D01*
X167708169Y-100212051D01*
X167708170Y-100212052D01*
X167901456Y-100250500D01*
X167901459Y-100250500D01*
X168098543Y-100250500D01*
X168228582Y-100224632D01*
X168291835Y-100212051D01*
X168473914Y-100136632D01*
X168637782Y-100027139D01*
X168777139Y-99887782D01*
X168886632Y-99723914D01*
X168962051Y-99541835D01*
X168982715Y-99437950D01*
X169000500Y-99348543D01*
X169000500Y-99151456D01*
X168962052Y-98958170D01*
X168962051Y-98958169D01*
X168962051Y-98958165D01*
X168936947Y-98897557D01*
X168886635Y-98776092D01*
X168886628Y-98776079D01*
X168777139Y-98612218D01*
X168777136Y-98612214D01*
X168637785Y-98472863D01*
X168637781Y-98472860D01*
X168473920Y-98363371D01*
X168473907Y-98363364D01*
X168291839Y-98287950D01*
X168291829Y-98287947D01*
X168098543Y-98249500D01*
X168098541Y-98249500D01*
X167970808Y-98249500D01*
X167903769Y-98229815D01*
X167883127Y-98213181D01*
X166496468Y-96826522D01*
X166413659Y-96743713D01*
X176899500Y-96743713D01*
X176899500Y-96956286D01*
X176928984Y-97142445D01*
X176932754Y-97166243D01*
X176966629Y-97270500D01*
X176998444Y-97368414D01*
X177094951Y-97557820D01*
X177219890Y-97729786D01*
X177370213Y-97880109D01*
X177542182Y-98005050D01*
X177550946Y-98009516D01*
X177601742Y-98057491D01*
X177618536Y-98125312D01*
X177595998Y-98191447D01*
X177550946Y-98230484D01*
X177542182Y-98234949D01*
X177370213Y-98359890D01*
X177219890Y-98510213D01*
X177094951Y-98682179D01*
X176998444Y-98871585D01*
X176932753Y-99073760D01*
X176899500Y-99283713D01*
X176899500Y-99496286D01*
X176921910Y-99637781D01*
X176932754Y-99706243D01*
X176991367Y-99886635D01*
X176998444Y-99908414D01*
X177094951Y-100097820D01*
X177219890Y-100269786D01*
X177370213Y-100420109D01*
X177542182Y-100545050D01*
X177550946Y-100549516D01*
X177601742Y-100597491D01*
X177618536Y-100665312D01*
X177595998Y-100731447D01*
X177550946Y-100770484D01*
X177542182Y-100774949D01*
X177370213Y-100899890D01*
X177219890Y-101050213D01*
X177094951Y-101222179D01*
X176998444Y-101411585D01*
X176932753Y-101613760D01*
X176899500Y-101823713D01*
X176899500Y-102036286D01*
X176928401Y-102218763D01*
X176932754Y-102246243D01*
X176981005Y-102394745D01*
X176998444Y-102448414D01*
X177094951Y-102637820D01*
X177219890Y-102809786D01*
X177370213Y-102960109D01*
X177542179Y-103085048D01*
X177542181Y-103085049D01*
X177542184Y-103085051D01*
X177550942Y-103089513D01*
X177601739Y-103137487D01*
X177618535Y-103205307D01*
X177595999Y-103271443D01*
X177550949Y-103310481D01*
X177542183Y-103314947D01*
X177370213Y-103439889D01*
X177219890Y-103590212D01*
X177094951Y-103762178D01*
X176998444Y-103951584D01*
X176932753Y-104153759D01*
X176899500Y-104363712D01*
X176899500Y-104576285D01*
X176921549Y-104715501D01*
X176932754Y-104786242D01*
X176992991Y-104971633D01*
X176998444Y-104988413D01*
X177094951Y-105177819D01*
X177219890Y-105349785D01*
X177370213Y-105500108D01*
X177542179Y-105625047D01*
X177542181Y-105625048D01*
X177542184Y-105625050D01*
X177550945Y-105629513D01*
X177601741Y-105677487D01*
X177618537Y-105745307D01*
X177596001Y-105811443D01*
X177550950Y-105850481D01*
X177542187Y-105854946D01*
X177542184Y-105854948D01*
X177370213Y-105979890D01*
X177219890Y-106130213D01*
X177094951Y-106302179D01*
X176998444Y-106491585D01*
X176932753Y-106693760D01*
X176910220Y-106836032D01*
X176899500Y-106903713D01*
X176899500Y-107116287D01*
X176901539Y-107129158D01*
X176929528Y-107305880D01*
X176932754Y-107326243D01*
X176988822Y-107498803D01*
X176998444Y-107528414D01*
X177094951Y-107717820D01*
X177219890Y-107889786D01*
X177370213Y-108040109D01*
X177542182Y-108165050D01*
X177550946Y-108169516D01*
X177601742Y-108217491D01*
X177618536Y-108285312D01*
X177595998Y-108351447D01*
X177550946Y-108390484D01*
X177542182Y-108394949D01*
X177370213Y-108519890D01*
X177219890Y-108670213D01*
X177094951Y-108842179D01*
X176998444Y-109031585D01*
X176932753Y-109233760D01*
X176899500Y-109443713D01*
X176899500Y-109656286D01*
X176932507Y-109864687D01*
X176932754Y-109866243D01*
X176976052Y-109999501D01*
X176998444Y-110068414D01*
X177094951Y-110257820D01*
X177219890Y-110429786D01*
X177370213Y-110580109D01*
X177542182Y-110705050D01*
X177550946Y-110709516D01*
X177601742Y-110757491D01*
X177618536Y-110825312D01*
X177595998Y-110891447D01*
X177550946Y-110930484D01*
X177542182Y-110934949D01*
X177370213Y-111059890D01*
X177219890Y-111210213D01*
X177094951Y-111382179D01*
X176998444Y-111571585D01*
X176932753Y-111773760D01*
X176899500Y-111983713D01*
X176899500Y-112196286D01*
X176932394Y-112403974D01*
X176932754Y-112406243D01*
X176989940Y-112582244D01*
X176998444Y-112608414D01*
X177094951Y-112797820D01*
X177219890Y-112969786D01*
X177370213Y-113120109D01*
X177542182Y-113245050D01*
X177550946Y-113249516D01*
X177601742Y-113297491D01*
X177618536Y-113365312D01*
X177595998Y-113431447D01*
X177550946Y-113470484D01*
X177542182Y-113474949D01*
X177370213Y-113599890D01*
X177219890Y-113750213D01*
X177094951Y-113922179D01*
X176998444Y-114111585D01*
X176932753Y-114313760D01*
X176899500Y-114523713D01*
X176899500Y-114736286D01*
X176931805Y-114940255D01*
X176932754Y-114946243D01*
X176990861Y-115125078D01*
X176998444Y-115148414D01*
X177094951Y-115337820D01*
X177219890Y-115509786D01*
X177370213Y-115660109D01*
X177542179Y-115785048D01*
X177542181Y-115785049D01*
X177542184Y-115785051D01*
X177550945Y-115789514D01*
X177601741Y-115837488D01*
X177618537Y-115905308D01*
X177596001Y-115971444D01*
X177550950Y-116010482D01*
X177542187Y-116014947D01*
X177542184Y-116014949D01*
X177370213Y-116139891D01*
X177219890Y-116290214D01*
X177094951Y-116462180D01*
X176998444Y-116651586D01*
X176932753Y-116853761D01*
X176899500Y-117063714D01*
X176899500Y-117276287D01*
X176927108Y-117450600D01*
X176932754Y-117486244D01*
X176990502Y-117663974D01*
X176998444Y-117688415D01*
X177094951Y-117877821D01*
X177219890Y-118049787D01*
X177370213Y-118200110D01*
X177542179Y-118325049D01*
X177542181Y-118325050D01*
X177542184Y-118325052D01*
X177550942Y-118329514D01*
X177601739Y-118377488D01*
X177618535Y-118445308D01*
X177595999Y-118511444D01*
X177550949Y-118550482D01*
X177542183Y-118554948D01*
X177370213Y-118679890D01*
X177219890Y-118830213D01*
X177094951Y-119002179D01*
X176998444Y-119191585D01*
X176932753Y-119393760D01*
X176907988Y-119550123D01*
X176899500Y-119603713D01*
X176899500Y-119816287D01*
X176932754Y-120026243D01*
X176995004Y-120217829D01*
X176998444Y-120228414D01*
X177094951Y-120417820D01*
X177219890Y-120589786D01*
X177333430Y-120703326D01*
X177366915Y-120764649D01*
X177361931Y-120834341D01*
X177320059Y-120890274D01*
X177289083Y-120907189D01*
X177157669Y-120956203D01*
X177157664Y-120956206D01*
X177042455Y-121042452D01*
X177042452Y-121042455D01*
X176956206Y-121157664D01*
X176956202Y-121157671D01*
X176905908Y-121292517D01*
X176899501Y-121352116D01*
X176899501Y-121352123D01*
X176899500Y-121352135D01*
X176899500Y-123147870D01*
X176899501Y-123147876D01*
X176905908Y-123207483D01*
X176956202Y-123342328D01*
X176956206Y-123342335D01*
X177042452Y-123457544D01*
X177042455Y-123457547D01*
X177157664Y-123543793D01*
X177157671Y-123543797D01*
X177292517Y-123594091D01*
X177292516Y-123594091D01*
X177299444Y-123594835D01*
X177352127Y-123600500D01*
X179147872Y-123600499D01*
X179207483Y-123594091D01*
X179342331Y-123543796D01*
X179457546Y-123457546D01*
X179543796Y-123342331D01*
X179594091Y-123207483D01*
X179600500Y-123147873D01*
X179600499Y-121352128D01*
X179594091Y-121292517D01*
X179578027Y-121249448D01*
X179543797Y-121157671D01*
X179543793Y-121157664D01*
X179457547Y-121042455D01*
X179457544Y-121042452D01*
X179342335Y-120956206D01*
X179342328Y-120956202D01*
X179210917Y-120907189D01*
X179154983Y-120865318D01*
X179130566Y-120799853D01*
X179145418Y-120731580D01*
X179166563Y-120703332D01*
X179280104Y-120589792D01*
X179405051Y-120417816D01*
X179501557Y-120228412D01*
X179567246Y-120026243D01*
X179600500Y-119816287D01*
X179600500Y-119603713D01*
X179567246Y-119393757D01*
X179501557Y-119191588D01*
X179405051Y-119002184D01*
X179405049Y-119002181D01*
X179405048Y-119002179D01*
X179280109Y-118830213D01*
X179129786Y-118679890D01*
X178957817Y-118554949D01*
X178949054Y-118550484D01*
X178898258Y-118502509D01*
X178881464Y-118434688D01*
X178904002Y-118368553D01*
X178949058Y-118329514D01*
X178957816Y-118325052D01*
X179083149Y-118233993D01*
X179129786Y-118200110D01*
X179129788Y-118200107D01*
X179129792Y-118200105D01*
X179280104Y-118049793D01*
X179280106Y-118049789D01*
X179280109Y-118049787D01*
X179405048Y-117877821D01*
X179405047Y-117877821D01*
X179405051Y-117877817D01*
X179501557Y-117688413D01*
X179567246Y-117486244D01*
X179600500Y-117276288D01*
X179600500Y-117063714D01*
X179567246Y-116853758D01*
X179501557Y-116651589D01*
X179405051Y-116462185D01*
X179405049Y-116462182D01*
X179405048Y-116462180D01*
X179280109Y-116290214D01*
X179129786Y-116139891D01*
X178957817Y-116014950D01*
X178949052Y-116010484D01*
X178898257Y-115962509D01*
X178881462Y-115894688D01*
X178904000Y-115828553D01*
X178949056Y-115789514D01*
X178957816Y-115785051D01*
X178957818Y-115785049D01*
X178957821Y-115785048D01*
X179129786Y-115660109D01*
X179129788Y-115660106D01*
X179129792Y-115660104D01*
X179280104Y-115509792D01*
X179280106Y-115509788D01*
X179280109Y-115509786D01*
X179405048Y-115337820D01*
X179405047Y-115337820D01*
X179405051Y-115337816D01*
X179501557Y-115148412D01*
X179567246Y-114946243D01*
X179600500Y-114736287D01*
X179600500Y-114523713D01*
X179567246Y-114313757D01*
X179501557Y-114111588D01*
X179405051Y-113922184D01*
X179405049Y-113922181D01*
X179405048Y-113922179D01*
X179280109Y-113750213D01*
X179129786Y-113599890D01*
X178957820Y-113474951D01*
X178957115Y-113474591D01*
X178949054Y-113470485D01*
X178898259Y-113422512D01*
X178881463Y-113354692D01*
X178903999Y-113288556D01*
X178949054Y-113249515D01*
X178957816Y-113245051D01*
X179099527Y-113142093D01*
X179129786Y-113120109D01*
X179129788Y-113120106D01*
X179129792Y-113120104D01*
X179280104Y-112969792D01*
X179280106Y-112969788D01*
X179280109Y-112969786D01*
X179405048Y-112797820D01*
X179405047Y-112797820D01*
X179405051Y-112797816D01*
X179501557Y-112608412D01*
X179567246Y-112406243D01*
X179600500Y-112196287D01*
X179600500Y-111983713D01*
X179567246Y-111773757D01*
X179501557Y-111571588D01*
X179405051Y-111382184D01*
X179405049Y-111382181D01*
X179405048Y-111382179D01*
X179280109Y-111210213D01*
X179129786Y-111059890D01*
X178957820Y-110934951D01*
X178957115Y-110934591D01*
X178949054Y-110930485D01*
X178898259Y-110882512D01*
X178881463Y-110814692D01*
X178903999Y-110748556D01*
X178949054Y-110709515D01*
X178957816Y-110705051D01*
X179050995Y-110637353D01*
X179129786Y-110580109D01*
X179129788Y-110580106D01*
X179129792Y-110580104D01*
X179280104Y-110429792D01*
X179280106Y-110429788D01*
X179280109Y-110429786D01*
X179405048Y-110257820D01*
X179405047Y-110257820D01*
X179405051Y-110257816D01*
X179501557Y-110068412D01*
X179567246Y-109866243D01*
X179600500Y-109656287D01*
X179600500Y-109443713D01*
X179567246Y-109233757D01*
X179501557Y-109031588D01*
X179405051Y-108842184D01*
X179405049Y-108842181D01*
X179405048Y-108842179D01*
X179280109Y-108670213D01*
X179129786Y-108519890D01*
X178957820Y-108394951D01*
X178957115Y-108394591D01*
X178949054Y-108390485D01*
X178898259Y-108342512D01*
X178881463Y-108274692D01*
X178903999Y-108208556D01*
X178949054Y-108169515D01*
X178957816Y-108165051D01*
X178979789Y-108149086D01*
X179129786Y-108040109D01*
X179129788Y-108040106D01*
X179129792Y-108040104D01*
X179280104Y-107889792D01*
X179280106Y-107889788D01*
X179280109Y-107889786D01*
X179405048Y-107717820D01*
X179405047Y-107717820D01*
X179405051Y-107717816D01*
X179501557Y-107528412D01*
X179567246Y-107326243D01*
X179600500Y-107116287D01*
X179600500Y-106903713D01*
X179567246Y-106693757D01*
X179501557Y-106491588D01*
X179405051Y-106302184D01*
X179405049Y-106302181D01*
X179405048Y-106302179D01*
X179280109Y-106130213D01*
X179129786Y-105979890D01*
X178957817Y-105854949D01*
X178949052Y-105850483D01*
X178898257Y-105802508D01*
X178881462Y-105734687D01*
X178904000Y-105668552D01*
X178949056Y-105629513D01*
X178957816Y-105625050D01*
X178957818Y-105625048D01*
X178957821Y-105625047D01*
X179129786Y-105500108D01*
X179129788Y-105500105D01*
X179129792Y-105500103D01*
X179280104Y-105349791D01*
X179280106Y-105349787D01*
X179280109Y-105349785D01*
X179405048Y-105177819D01*
X179405047Y-105177819D01*
X179405051Y-105177815D01*
X179501557Y-104988411D01*
X179567246Y-104786242D01*
X179600500Y-104576286D01*
X179600500Y-104363712D01*
X179567246Y-104153756D01*
X179501557Y-103951587D01*
X179405051Y-103762183D01*
X179405049Y-103762180D01*
X179405048Y-103762178D01*
X179280109Y-103590212D01*
X179129786Y-103439889D01*
X178957817Y-103314948D01*
X178949054Y-103310483D01*
X178898258Y-103262508D01*
X178881464Y-103194687D01*
X178904002Y-103128552D01*
X178949058Y-103089513D01*
X178957816Y-103085051D01*
X179042138Y-103023788D01*
X179129786Y-102960109D01*
X179129788Y-102960106D01*
X179129792Y-102960104D01*
X179280104Y-102809792D01*
X179280106Y-102809788D01*
X179280109Y-102809786D01*
X179405048Y-102637820D01*
X179405047Y-102637820D01*
X179405051Y-102637816D01*
X179501557Y-102448412D01*
X179567246Y-102246243D01*
X179600500Y-102036287D01*
X179600500Y-101823713D01*
X179567246Y-101613757D01*
X179501557Y-101411588D01*
X179405051Y-101222184D01*
X179405049Y-101222181D01*
X179405048Y-101222179D01*
X179280109Y-101050213D01*
X179129786Y-100899890D01*
X178957820Y-100774951D01*
X178957115Y-100774591D01*
X178949054Y-100770485D01*
X178898259Y-100722512D01*
X178881463Y-100654692D01*
X178903999Y-100588556D01*
X178949054Y-100549515D01*
X178957816Y-100545051D01*
X179021832Y-100498541D01*
X179129786Y-100420109D01*
X179129788Y-100420106D01*
X179129792Y-100420104D01*
X179280104Y-100269792D01*
X179280106Y-100269788D01*
X179280109Y-100269786D01*
X179405048Y-100097820D01*
X179405047Y-100097820D01*
X179405051Y-100097816D01*
X179501557Y-99908412D01*
X179567246Y-99706243D01*
X179600500Y-99496287D01*
X179600500Y-99283713D01*
X179567246Y-99073757D01*
X179501557Y-98871588D01*
X179405051Y-98682184D01*
X179405049Y-98682181D01*
X179405048Y-98682179D01*
X179280109Y-98510213D01*
X179129786Y-98359890D01*
X178957820Y-98234951D01*
X178957115Y-98234591D01*
X178949054Y-98230485D01*
X178898259Y-98182512D01*
X178881463Y-98114692D01*
X178903999Y-98048556D01*
X178949054Y-98009515D01*
X178957816Y-98005051D01*
X178979789Y-97989086D01*
X179129786Y-97880109D01*
X179129788Y-97880106D01*
X179129792Y-97880104D01*
X179280104Y-97729792D01*
X179280106Y-97729788D01*
X179280109Y-97729786D01*
X179390126Y-97578359D01*
X179405051Y-97557816D01*
X179501557Y-97368412D01*
X179567246Y-97166243D01*
X179600500Y-96956287D01*
X179600500Y-96743713D01*
X179567246Y-96533757D01*
X179501557Y-96331588D01*
X179405051Y-96142184D01*
X179405049Y-96142181D01*
X179405048Y-96142179D01*
X179280109Y-95970213D01*
X179129786Y-95819890D01*
X178957820Y-95694951D01*
X178768414Y-95598444D01*
X178768413Y-95598443D01*
X178768412Y-95598443D01*
X178566243Y-95532754D01*
X178566241Y-95532753D01*
X178566240Y-95532753D01*
X178404957Y-95507208D01*
X178356287Y-95499500D01*
X178143713Y-95499500D01*
X178095042Y-95507208D01*
X177933760Y-95532753D01*
X177731585Y-95598444D01*
X177542179Y-95694951D01*
X177370213Y-95819890D01*
X177219890Y-95970213D01*
X177094951Y-96142179D01*
X176998444Y-96331585D01*
X176998443Y-96331587D01*
X176998443Y-96331588D01*
X176985285Y-96372085D01*
X176932753Y-96533760D01*
X176899500Y-96743713D01*
X166413659Y-96743713D01*
X161364674Y-91694727D01*
X161364673Y-91694726D01*
X161364669Y-91694723D01*
X161258127Y-91623535D01*
X161139744Y-91574499D01*
X161139738Y-91574497D01*
X161014071Y-91549500D01*
X161014069Y-91549500D01*
X134485931Y-91549500D01*
X134485929Y-91549500D01*
X134360261Y-91574497D01*
X134360255Y-91574499D01*
X134241870Y-91623535D01*
X134135331Y-91694722D01*
X134135324Y-91694728D01*
X131530139Y-94299913D01*
X131468816Y-94333398D01*
X131429203Y-94335522D01*
X131377830Y-94329999D01*
X130930002Y-94329999D01*
X130930002Y-95199669D01*
X130910257Y-95179924D01*
X130824747Y-95130555D01*
X130729372Y-95104999D01*
X130630632Y-95104999D01*
X130535257Y-95130555D01*
X130449747Y-95179924D01*
X130430002Y-95199669D01*
X130430002Y-94329999D01*
X129982157Y-94329999D01*
X129922629Y-94336400D01*
X129922622Y-94336402D01*
X129787915Y-94386644D01*
X129787908Y-94386648D01*
X129672814Y-94472808D01*
X129672811Y-94472811D01*
X129586651Y-94587905D01*
X129586647Y-94587912D01*
X129536405Y-94722619D01*
X129536403Y-94722626D01*
X129530002Y-94782154D01*
X129530002Y-95229999D01*
X130399672Y-95229999D01*
X130379927Y-95249744D01*
X130330558Y-95335254D01*
X130305002Y-95430629D01*
X130305002Y-95529369D01*
X130330558Y-95624744D01*
X130379927Y-95710254D01*
X130399672Y-95729999D01*
X129530002Y-95729999D01*
X129530002Y-96177843D01*
X129536403Y-96237371D01*
X129536405Y-96237378D01*
X129586647Y-96372085D01*
X129586651Y-96372092D01*
X129672811Y-96487186D01*
X129672814Y-96487189D01*
X129787908Y-96573349D01*
X129787915Y-96573353D01*
X129922622Y-96623595D01*
X129922629Y-96623597D01*
X129982157Y-96629998D01*
X129982174Y-96629999D01*
X130526028Y-96629999D01*
X130593067Y-96649684D01*
X130638822Y-96702488D01*
X130648766Y-96771646D01*
X130619741Y-96835202D01*
X130560963Y-96872976D01*
X130545426Y-96876472D01*
X130410591Y-96897828D01*
X130238365Y-96953786D01*
X130238362Y-96953787D01*
X130077004Y-97036005D01*
X129930507Y-97142440D01*
X129930502Y-97142444D01*
X129802447Y-97270499D01*
X129802443Y-97270504D01*
X129696008Y-97417001D01*
X129613790Y-97578359D01*
X129613789Y-97578362D01*
X129557831Y-97750588D01*
X129529502Y-97929447D01*
X120750500Y-97929447D01*
X120750500Y-88713389D01*
X158299500Y-88713389D01*
X158299500Y-88886611D01*
X158326598Y-89057701D01*
X158380127Y-89222445D01*
X158458768Y-89376788D01*
X158560586Y-89516928D01*
X158683072Y-89639414D01*
X158823212Y-89741232D01*
X158977555Y-89819873D01*
X159142299Y-89873402D01*
X159313389Y-89900500D01*
X159313390Y-89900500D01*
X159486610Y-89900500D01*
X159486611Y-89900500D01*
X159657701Y-89873402D01*
X159822445Y-89819873D01*
X159822449Y-89819871D01*
X159833941Y-89814016D01*
X159890237Y-89800500D01*
X167852174Y-89800500D01*
X167890491Y-89806568D01*
X167909244Y-89812662D01*
X167942298Y-89823402D01*
X168027844Y-89836951D01*
X168113389Y-89850500D01*
X168113390Y-89850500D01*
X168286610Y-89850500D01*
X168286611Y-89850500D01*
X168457701Y-89823402D01*
X168622445Y-89769873D01*
X168776788Y-89691232D01*
X168916928Y-89589414D01*
X169039414Y-89466928D01*
X169141232Y-89326788D01*
X169219873Y-89172445D01*
X169273402Y-89007701D01*
X169300500Y-88836611D01*
X169300500Y-88663389D01*
X169273402Y-88492299D01*
X169219873Y-88327555D01*
X169141232Y-88173212D01*
X169039414Y-88033072D01*
X168916928Y-87910586D01*
X168776788Y-87808768D01*
X168622445Y-87730127D01*
X168457701Y-87676598D01*
X168457699Y-87676597D01*
X168457698Y-87676597D01*
X168326271Y-87655781D01*
X168286611Y-87649500D01*
X168113389Y-87649500D01*
X168092810Y-87652759D01*
X167942298Y-87676597D01*
X167896820Y-87691374D01*
X167890491Y-87693431D01*
X167852174Y-87699500D01*
X159553471Y-87699500D01*
X159553466Y-87699499D01*
X159346535Y-87699499D01*
X159346530Y-87699500D01*
X159313389Y-87699500D01*
X159273728Y-87705781D01*
X159142302Y-87726597D01*
X158977552Y-87780128D01*
X158823211Y-87858768D01*
X158751891Y-87910586D01*
X158683072Y-87960586D01*
X158683070Y-87960588D01*
X158683069Y-87960588D01*
X158560588Y-88083069D01*
X158560588Y-88083070D01*
X158560586Y-88083072D01*
X158516859Y-88143256D01*
X158458768Y-88223211D01*
X158380128Y-88377552D01*
X158326597Y-88542302D01*
X158307419Y-88663389D01*
X158299500Y-88713389D01*
X120750500Y-88713389D01*
X120750500Y-77712013D01*
X124200000Y-77712013D01*
X124200000Y-77947984D01*
X124230799Y-78181913D01*
X124291870Y-78409836D01*
X124382160Y-78627818D01*
X124382165Y-78627827D01*
X124500144Y-78832170D01*
X124500145Y-78832171D01*
X124562721Y-78913722D01*
X125398958Y-78077486D01*
X125423978Y-78137889D01*
X125495112Y-78244350D01*
X125585649Y-78334887D01*
X125692110Y-78406021D01*
X125752511Y-78431040D01*
X124916275Y-79267276D01*
X124997827Y-79329853D01*
X124997828Y-79329854D01*
X125202171Y-79447833D01*
X125202180Y-79447838D01*
X125420163Y-79538128D01*
X125420161Y-79538128D01*
X125648085Y-79599199D01*
X125882014Y-79629998D01*
X125882029Y-79629999D01*
X126117971Y-79629999D01*
X126117985Y-79629998D01*
X126351914Y-79599199D01*
X126579837Y-79538128D01*
X126797819Y-79447838D01*
X126797828Y-79447833D01*
X127002181Y-79329849D01*
X127083723Y-79267278D01*
X127083723Y-79267275D01*
X126247487Y-78431040D01*
X126307890Y-78406021D01*
X126414351Y-78334887D01*
X126504888Y-78244350D01*
X126576022Y-78137889D01*
X126601041Y-78077487D01*
X127437276Y-78913722D01*
X127437279Y-78913722D01*
X127499850Y-78832180D01*
X127617834Y-78627827D01*
X127617839Y-78627818D01*
X127708129Y-78409836D01*
X127769200Y-78181913D01*
X127799999Y-77947984D01*
X127800000Y-77947970D01*
X127800000Y-77712027D01*
X127799999Y-77712013D01*
X127769201Y-77478086D01*
X127741008Y-77372869D01*
X127741008Y-77372868D01*
X127733714Y-77345647D01*
X157499500Y-77345647D01*
X157499500Y-77574354D01*
X157535278Y-77800247D01*
X157535278Y-77800250D01*
X157605950Y-78017756D01*
X157690428Y-78183553D01*
X157709783Y-78221539D01*
X157844214Y-78406567D01*
X158005934Y-78568287D01*
X158090437Y-78629682D01*
X158133103Y-78685012D01*
X158139082Y-78754625D01*
X158106476Y-78816420D01*
X158090438Y-78830318D01*
X158005932Y-78891715D01*
X157844216Y-79053431D01*
X157844216Y-79053432D01*
X157844214Y-79053434D01*
X157786480Y-79132896D01*
X157709783Y-79238461D01*
X157605950Y-79442244D01*
X157535278Y-79659750D01*
X157535278Y-79659753D01*
X157499500Y-79885646D01*
X157499500Y-80114353D01*
X157535278Y-80340246D01*
X157535278Y-80340249D01*
X157605950Y-80557755D01*
X157605952Y-80557758D01*
X157709783Y-80761538D01*
X157842525Y-80944242D01*
X157866005Y-81010046D01*
X157850180Y-81078100D01*
X157800074Y-81126795D01*
X157785541Y-81133308D01*
X157757670Y-81143703D01*
X157757664Y-81143706D01*
X157642455Y-81229952D01*
X157642452Y-81229955D01*
X157556206Y-81345164D01*
X157556202Y-81345171D01*
X157505908Y-81480017D01*
X157499501Y-81539616D01*
X157499501Y-81539623D01*
X157499500Y-81539635D01*
X157499500Y-83540370D01*
X157499501Y-83540376D01*
X157505908Y-83599983D01*
X157556202Y-83734828D01*
X157556206Y-83734835D01*
X157642452Y-83850044D01*
X157642455Y-83850047D01*
X157757664Y-83936293D01*
X157757671Y-83936297D01*
X157892517Y-83986591D01*
X157892516Y-83986591D01*
X157899444Y-83987335D01*
X157952127Y-83993000D01*
X160047872Y-83992999D01*
X160107483Y-83986591D01*
X160242331Y-83936296D01*
X160357546Y-83850046D01*
X160443796Y-83734831D01*
X160494091Y-83599983D01*
X160500500Y-83540373D01*
X160500499Y-81539628D01*
X160494091Y-81480017D01*
X160443796Y-81345169D01*
X160443795Y-81345168D01*
X160443793Y-81345164D01*
X160357547Y-81229955D01*
X160357544Y-81229952D01*
X160242335Y-81143706D01*
X160242328Y-81143702D01*
X160214459Y-81133308D01*
X160158525Y-81091437D01*
X160134108Y-81025973D01*
X160148960Y-80957700D01*
X160157460Y-80944260D01*
X160290217Y-80761538D01*
X160394048Y-80557758D01*
X160464722Y-80340245D01*
X160500500Y-80114354D01*
X160500500Y-79885646D01*
X160464722Y-79659755D01*
X160464721Y-79659751D01*
X160464721Y-79659750D01*
X160394049Y-79442244D01*
X160394048Y-79442242D01*
X160290217Y-79238462D01*
X160155786Y-79053434D01*
X159994066Y-78891714D01*
X159909559Y-78830316D01*
X159866896Y-78774988D01*
X159860917Y-78705375D01*
X159893523Y-78643580D01*
X159909548Y-78629692D01*
X159994066Y-78568287D01*
X160155786Y-78406567D01*
X160290217Y-78221539D01*
X160394048Y-78017759D01*
X160434254Y-77894018D01*
X160464721Y-77800250D01*
X160464721Y-77800249D01*
X160464722Y-77800246D01*
X160500500Y-77574355D01*
X160500500Y-77345647D01*
X160464722Y-77119756D01*
X160464721Y-77119752D01*
X160464721Y-77119751D01*
X160394049Y-76902245D01*
X160356131Y-76827827D01*
X160290217Y-76698463D01*
X160155786Y-76513435D01*
X159994066Y-76351715D01*
X159809038Y-76217284D01*
X159798980Y-76212159D01*
X159609477Y-76115602D01*
X173399500Y-76115602D01*
X173399500Y-76384397D01*
X173434582Y-76650880D01*
X173434583Y-76650885D01*
X173434584Y-76650891D01*
X173434585Y-76650893D01*
X173504152Y-76910524D01*
X173607011Y-77158850D01*
X173607019Y-77158866D01*
X173687830Y-77298832D01*
X173741413Y-77391641D01*
X173741415Y-77391644D01*
X173741416Y-77391645D01*
X173905042Y-77604888D01*
X173905048Y-77604895D01*
X174095104Y-77794951D01*
X174095110Y-77794956D01*
X174308359Y-77958587D01*
X174457968Y-78044964D01*
X174541133Y-78092980D01*
X174541149Y-78092988D01*
X174649551Y-78137889D01*
X174789474Y-78195847D01*
X175049109Y-78265416D01*
X175237319Y-78290193D01*
X175315602Y-78300500D01*
X175315603Y-78300500D01*
X178084398Y-78300500D01*
X178144905Y-78292534D01*
X178350891Y-78265416D01*
X178610526Y-78195847D01*
X178797457Y-78118417D01*
X178858850Y-78092988D01*
X178858853Y-78092986D01*
X178858859Y-78092984D01*
X179091641Y-77958587D01*
X179304890Y-77794956D01*
X179494956Y-77604890D01*
X179658587Y-77391641D01*
X179792984Y-77158859D01*
X179895847Y-76910526D01*
X179965416Y-76650891D01*
X180000500Y-76384397D01*
X180000500Y-76115603D01*
X179965416Y-75849109D01*
X179895847Y-75589474D01*
X179857132Y-75496008D01*
X179792988Y-75341149D01*
X179792980Y-75341133D01*
X179732126Y-75235732D01*
X179658587Y-75108359D01*
X179494956Y-74895110D01*
X179494951Y-74895104D01*
X179304895Y-74705048D01*
X179304888Y-74705042D01*
X179091645Y-74541416D01*
X179091644Y-74541415D01*
X179091641Y-74541413D01*
X178993605Y-74484812D01*
X178858866Y-74407019D01*
X178858850Y-74407011D01*
X178610524Y-74304152D01*
X178478049Y-74268656D01*
X178350891Y-74234584D01*
X178350885Y-74234583D01*
X178350880Y-74234582D01*
X178084398Y-74199500D01*
X178084397Y-74199500D01*
X175315603Y-74199500D01*
X175315602Y-74199500D01*
X175049119Y-74234582D01*
X175049112Y-74234583D01*
X175049109Y-74234584D01*
X174994239Y-74249286D01*
X174789475Y-74304152D01*
X174541149Y-74407011D01*
X174541133Y-74407019D01*
X174308354Y-74541416D01*
X174095111Y-74705042D01*
X174095104Y-74705048D01*
X173905048Y-74895104D01*
X173905042Y-74895111D01*
X173741418Y-75108351D01*
X173635098Y-75292499D01*
X173635075Y-75292540D01*
X173607016Y-75341141D01*
X173601156Y-75355287D01*
X173601149Y-75355301D01*
X173504152Y-75589475D01*
X173434585Y-75849106D01*
X173434582Y-75849119D01*
X173399500Y-76115602D01*
X159609477Y-76115602D01*
X159605255Y-76113451D01*
X159387748Y-76042779D01*
X159218326Y-76015945D01*
X159161854Y-76007001D01*
X158838146Y-76007001D01*
X158762849Y-76018927D01*
X158612253Y-76042779D01*
X158612250Y-76042779D01*
X158394744Y-76113451D01*
X158190961Y-76217284D01*
X158085396Y-76293981D01*
X158005934Y-76351715D01*
X158005932Y-76351717D01*
X158005931Y-76351717D01*
X157844216Y-76513432D01*
X157844216Y-76513433D01*
X157844214Y-76513435D01*
X157786480Y-76592897D01*
X157709783Y-76698462D01*
X157605950Y-76902245D01*
X157535278Y-77119751D01*
X157535278Y-77119754D01*
X157499500Y-77345647D01*
X127733714Y-77345647D01*
X127708129Y-77250161D01*
X127617839Y-77032179D01*
X127617834Y-77032170D01*
X127499855Y-76827827D01*
X127499854Y-76827826D01*
X127437277Y-76746274D01*
X126601041Y-77582510D01*
X126576022Y-77522109D01*
X126504888Y-77415648D01*
X126414351Y-77325111D01*
X126307890Y-77253977D01*
X126247488Y-77228957D01*
X127083723Y-76392720D01*
X127002172Y-76330144D01*
X127002171Y-76330143D01*
X126797828Y-76212164D01*
X126797819Y-76212159D01*
X126579836Y-76121869D01*
X126579838Y-76121869D01*
X126351914Y-76060798D01*
X126117985Y-76029999D01*
X125882014Y-76029999D01*
X125648085Y-76060798D01*
X125420162Y-76121869D01*
X125202180Y-76212159D01*
X125202171Y-76212164D01*
X124997828Y-76330143D01*
X124997818Y-76330149D01*
X124916275Y-76392719D01*
X124916275Y-76392720D01*
X125752512Y-77228957D01*
X125692110Y-77253977D01*
X125585649Y-77325111D01*
X125495112Y-77415648D01*
X125423978Y-77522109D01*
X125398958Y-77582510D01*
X124562721Y-76746274D01*
X124562720Y-76746274D01*
X124500150Y-76827817D01*
X124500144Y-76827827D01*
X124382165Y-77032170D01*
X124382160Y-77032179D01*
X124291870Y-77250161D01*
X124230799Y-77478084D01*
X124200000Y-77712013D01*
X120750500Y-77712013D01*
X120750500Y-71649983D01*
X124199500Y-71649983D01*
X124199500Y-73850001D01*
X124199501Y-73850018D01*
X124210000Y-73952796D01*
X124210001Y-73952799D01*
X124265185Y-74119331D01*
X124265186Y-74119334D01*
X124357288Y-74268656D01*
X124481344Y-74392712D01*
X124630666Y-74484814D01*
X124797203Y-74539999D01*
X124899991Y-74550500D01*
X127100008Y-74550499D01*
X127202797Y-74539999D01*
X127369334Y-74484814D01*
X127518656Y-74392712D01*
X127642712Y-74268656D01*
X127734814Y-74119334D01*
X127789999Y-73952797D01*
X127800500Y-73850009D01*
X127800499Y-71997070D01*
X170374500Y-71997070D01*
X170374500Y-74502929D01*
X170414526Y-74755640D01*
X170493588Y-74998972D01*
X170493589Y-74998975D01*
X170609750Y-75226950D01*
X170760132Y-75433935D01*
X170760136Y-75433940D01*
X170941059Y-75614863D01*
X170941064Y-75614867D01*
X171121607Y-75746038D01*
X171148053Y-75765252D01*
X171297080Y-75841185D01*
X171376024Y-75881410D01*
X171376027Y-75881411D01*
X171497693Y-75920942D01*
X171619361Y-75960474D01*
X171872070Y-76000500D01*
X171872071Y-76000500D01*
X172127929Y-76000500D01*
X172127930Y-76000500D01*
X172380639Y-75960474D01*
X172623975Y-75881410D01*
X172851947Y-75765252D01*
X173058942Y-75614862D01*
X173239862Y-75433942D01*
X173390252Y-75226947D01*
X173506410Y-74998975D01*
X173585474Y-74755639D01*
X173625500Y-74502930D01*
X173625500Y-71997070D01*
X173585474Y-71744361D01*
X173545942Y-71622693D01*
X173506411Y-71501027D01*
X173506410Y-71501024D01*
X173445082Y-71380663D01*
X173390252Y-71273053D01*
X173269818Y-71107289D01*
X173239867Y-71066064D01*
X173239863Y-71066059D01*
X173058940Y-70885136D01*
X173058935Y-70885132D01*
X172851950Y-70734750D01*
X172851949Y-70734749D01*
X172851947Y-70734748D01*
X172778910Y-70697533D01*
X172623975Y-70618589D01*
X172623972Y-70618588D01*
X172507879Y-70580868D01*
X172380640Y-70539526D01*
X172254284Y-70519513D01*
X172127930Y-70499500D01*
X171872070Y-70499500D01*
X171787833Y-70512842D01*
X171619359Y-70539526D01*
X171376027Y-70618588D01*
X171376024Y-70618589D01*
X171148049Y-70734750D01*
X170941064Y-70885132D01*
X170941059Y-70885136D01*
X170760136Y-71066059D01*
X170760132Y-71066064D01*
X170609750Y-71273049D01*
X170493589Y-71501024D01*
X170493588Y-71501027D01*
X170414526Y-71744359D01*
X170374500Y-71997070D01*
X127800499Y-71997070D01*
X127800499Y-71649992D01*
X127789999Y-71547203D01*
X127734814Y-71380666D01*
X127642712Y-71231344D01*
X127518656Y-71107288D01*
X127369334Y-71015186D01*
X127202797Y-70960001D01*
X127202795Y-70960000D01*
X127100010Y-70949500D01*
X124899998Y-70949500D01*
X124899981Y-70949501D01*
X124797203Y-70960000D01*
X124797200Y-70960001D01*
X124630668Y-71015185D01*
X124630663Y-71015187D01*
X124481342Y-71107289D01*
X124357289Y-71231342D01*
X124265187Y-71380663D01*
X124265186Y-71380666D01*
X124210001Y-71547203D01*
X124210001Y-71547204D01*
X124210000Y-71547204D01*
X124199500Y-71649983D01*
X120750500Y-71649983D01*
X120750500Y-70000000D01*
X173969340Y-70000000D01*
X175266988Y-70000000D01*
X175234075Y-70057007D01*
X175200000Y-70184174D01*
X175200000Y-70315826D01*
X175234075Y-70442993D01*
X175266988Y-70500000D01*
X173969340Y-70500000D01*
X173990013Y-70630523D01*
X174069051Y-70873781D01*
X174069052Y-70873784D01*
X174185175Y-71101686D01*
X174335521Y-71308619D01*
X174516380Y-71489478D01*
X174723313Y-71639824D01*
X174951215Y-71755947D01*
X174951218Y-71755948D01*
X175194476Y-71834986D01*
X175447111Y-71875000D01*
X176450000Y-71875000D01*
X176450000Y-70750000D01*
X176950000Y-70750000D01*
X176950000Y-71875000D01*
X177952889Y-71875000D01*
X178205523Y-71834986D01*
X178448781Y-71755948D01*
X178448784Y-71755947D01*
X178676686Y-71639824D01*
X178883619Y-71489478D01*
X179064478Y-71308619D01*
X179214824Y-71101686D01*
X179330947Y-70873784D01*
X179330948Y-70873781D01*
X179409986Y-70630523D01*
X179430660Y-70500000D01*
X178133012Y-70500000D01*
X178165925Y-70442993D01*
X178200000Y-70315826D01*
X178200000Y-70184174D01*
X178165925Y-70057007D01*
X178133012Y-70000000D01*
X179430660Y-70000000D01*
X179409986Y-69869476D01*
X179330948Y-69626218D01*
X179330947Y-69626215D01*
X179214824Y-69398313D01*
X179064478Y-69191380D01*
X178883619Y-69010521D01*
X178676686Y-68860175D01*
X178448784Y-68744052D01*
X178448781Y-68744051D01*
X178205523Y-68665013D01*
X177952889Y-68625000D01*
X176950000Y-68625000D01*
X176950000Y-69750000D01*
X176450000Y-69750000D01*
X176450000Y-68625000D01*
X175447111Y-68625000D01*
X175194476Y-68665013D01*
X174951218Y-68744051D01*
X174951215Y-68744052D01*
X174723313Y-68860175D01*
X174516380Y-69010521D01*
X174335521Y-69191380D01*
X174185175Y-69398313D01*
X174069052Y-69626215D01*
X174069051Y-69626218D01*
X173990013Y-69869476D01*
X173969340Y-70000000D01*
X120750500Y-70000000D01*
X120750500Y-67439832D01*
X158364502Y-67439832D01*
X158364502Y-67715167D01*
X158364503Y-67715184D01*
X158400440Y-67988155D01*
X158400441Y-67988160D01*
X158400442Y-67988166D01*
X158425689Y-68082388D01*
X158471706Y-68254130D01*
X158577077Y-68508517D01*
X158577082Y-68508528D01*
X158644328Y-68625000D01*
X158714753Y-68746979D01*
X158714755Y-68746982D01*
X158714756Y-68746983D01*
X158882372Y-68965426D01*
X158882378Y-68965433D01*
X159077068Y-69160123D01*
X159077075Y-69160129D01*
X159154860Y-69219815D01*
X159295523Y-69327749D01*
X159448780Y-69416232D01*
X159533973Y-69465419D01*
X159533978Y-69465421D01*
X159533981Y-69465423D01*
X159788370Y-69570795D01*
X160054336Y-69642060D01*
X160327328Y-69678000D01*
X160327335Y-69678000D01*
X160602669Y-69678000D01*
X160602676Y-69678000D01*
X160875668Y-69642060D01*
X161141634Y-69570795D01*
X161396023Y-69465423D01*
X161634481Y-69327749D01*
X161852930Y-69160128D01*
X162047630Y-68965428D01*
X162215251Y-68746979D01*
X162352925Y-68508521D01*
X162458297Y-68254132D01*
X162529562Y-67988166D01*
X162565502Y-67715174D01*
X162565502Y-67439826D01*
X162529562Y-67166834D01*
X162458297Y-66900868D01*
X162352925Y-66646479D01*
X162352923Y-66646476D01*
X162352921Y-66646471D01*
X162289350Y-66536364D01*
X162287937Y-66533916D01*
X162255372Y-66477513D01*
X163745001Y-66477513D01*
X163745001Y-67327500D01*
X164945000Y-67327500D01*
X164919980Y-67387902D01*
X164895001Y-67513481D01*
X164895001Y-67641519D01*
X164919980Y-67767098D01*
X164945000Y-67827500D01*
X163745002Y-67827500D01*
X163745002Y-68677486D01*
X163755495Y-68780197D01*
X163810642Y-68946619D01*
X163810644Y-68946624D01*
X163902685Y-69095845D01*
X164026655Y-69219815D01*
X164175876Y-69311856D01*
X164175881Y-69311858D01*
X164342303Y-69367005D01*
X164342310Y-69367006D01*
X164445020Y-69377499D01*
X165295000Y-69377499D01*
X165295001Y-69377498D01*
X165295001Y-68177501D01*
X165355403Y-68202521D01*
X165480982Y-68227500D01*
X165609020Y-68227500D01*
X165734599Y-68202521D01*
X165795001Y-68177501D01*
X165795001Y-69377499D01*
X166644973Y-69377499D01*
X166644987Y-69377498D01*
X166747698Y-69367005D01*
X166914120Y-69311858D01*
X166914125Y-69311856D01*
X167063346Y-69219815D01*
X167187316Y-69095845D01*
X167279357Y-68946624D01*
X167279359Y-68946619D01*
X167334506Y-68780197D01*
X167334507Y-68780190D01*
X167345000Y-68677486D01*
X167345001Y-68677473D01*
X167345001Y-67827500D01*
X166145002Y-67827500D01*
X166170022Y-67767098D01*
X166195001Y-67641519D01*
X166195001Y-67513481D01*
X166170022Y-67387902D01*
X166145002Y-67327500D01*
X167345000Y-67327500D01*
X167345000Y-66477528D01*
X167344999Y-66477513D01*
X167334506Y-66374802D01*
X167279359Y-66208380D01*
X167279357Y-66208375D01*
X167187316Y-66059154D01*
X167063346Y-65935184D01*
X166914125Y-65843143D01*
X166914120Y-65843141D01*
X166747698Y-65787994D01*
X166747691Y-65787993D01*
X166644987Y-65777500D01*
X165795001Y-65777500D01*
X165795001Y-66977498D01*
X165734599Y-66952479D01*
X165609020Y-66927500D01*
X165480982Y-66927500D01*
X165355403Y-66952479D01*
X165295001Y-66977498D01*
X165295001Y-65777500D01*
X164445029Y-65777500D01*
X164445013Y-65777501D01*
X164342303Y-65787994D01*
X164175881Y-65843141D01*
X164175876Y-65843143D01*
X164026655Y-65935184D01*
X163902685Y-66059154D01*
X163810644Y-66208375D01*
X163810642Y-66208380D01*
X163755495Y-66374802D01*
X163755494Y-66374809D01*
X163745001Y-66477513D01*
X162255372Y-66477513D01*
X162215251Y-66408021D01*
X162047630Y-66189572D01*
X162047625Y-66189566D01*
X161852935Y-65994876D01*
X161852928Y-65994870D01*
X161634485Y-65827254D01*
X161634484Y-65827253D01*
X161634481Y-65827251D01*
X161539409Y-65772361D01*
X161396030Y-65689580D01*
X161396019Y-65689575D01*
X161141632Y-65584204D01*
X161008651Y-65548572D01*
X160875668Y-65512940D01*
X160875662Y-65512939D01*
X160875657Y-65512938D01*
X160602686Y-65477001D01*
X160602681Y-65477000D01*
X160602676Y-65477000D01*
X160327328Y-65477000D01*
X160327322Y-65477000D01*
X160327317Y-65477001D01*
X160054346Y-65512938D01*
X160054339Y-65512939D01*
X160054336Y-65512940D01*
X159998127Y-65528000D01*
X159788371Y-65584204D01*
X159533984Y-65689575D01*
X159533973Y-65689580D01*
X159295518Y-65827254D01*
X159077075Y-65994870D01*
X159077068Y-65994876D01*
X158882378Y-66189566D01*
X158882372Y-66189573D01*
X158714756Y-66408016D01*
X158577082Y-66646471D01*
X158577077Y-66646482D01*
X158471706Y-66900869D01*
X158415502Y-67110625D01*
X158401430Y-67163149D01*
X158400443Y-67166831D01*
X158400440Y-67166844D01*
X158364503Y-67439815D01*
X158364502Y-67439832D01*
X120750500Y-67439832D01*
X120750500Y-62124500D01*
X120770185Y-62057461D01*
X120822989Y-62011706D01*
X120874500Y-62000500D01*
X181875500Y-62000500D01*
X181942539Y-62020185D01*
G37*
%TD.AperFunction*%
%TD*%
M02*
