%TF.GenerationSoftware,KiCad,Pcbnew,9.0.1*%
%TF.CreationDate,2025-07-04T13:23:47-04:00*%
%TF.ProjectId,nixie-hvdc,6e697869-652d-4687-9664-632e6b696361,rev?*%
%TF.SameCoordinates,Original*%
%TF.FileFunction,Soldermask,Top*%
%TF.FilePolarity,Negative*%
%FSLAX46Y46*%
G04 Gerber Fmt 4.6, Leading zero omitted, Abs format (unit mm)*
G04 Created by KiCad (PCBNEW 9.0.1) date 2025-07-04 13:23:47*
%MOMM*%
%LPD*%
G01*
G04 APERTURE LIST*
G04 Aperture macros list*
%AMRoundRect*
0 Rectangle with rounded corners*
0 $1 Rounding radius*
0 $2 $3 $4 $5 $6 $7 $8 $9 X,Y pos of 4 corners*
0 Add a 4 corners polygon primitive as box body*
4,1,4,$2,$3,$4,$5,$6,$7,$8,$9,$2,$3,0*
0 Add four circle primitives for the rounded corners*
1,1,$1+$1,$2,$3*
1,1,$1+$1,$4,$5*
1,1,$1+$1,$6,$7*
1,1,$1+$1,$8,$9*
0 Add four rect primitives between the rounded corners*
20,1,$1+$1,$2,$3,$4,$5,0*
20,1,$1+$1,$4,$5,$6,$7,0*
20,1,$1+$1,$6,$7,$8,$9,0*
20,1,$1+$1,$8,$9,$2,$3,0*%
%AMOutline4P*
0 Free polygon, 4 corners , with rotation*
0 The origin of the aperture is its center*
0 number of corners: always 4*
0 $1 to $8 corner X, Y*
0 $9 Rotation angle, in degrees counterclockwise*
0 create outline with 4 corners*
4,1,4,$1,$2,$3,$4,$5,$6,$7,$8,$1,$2,$9*%
G04 Aperture macros list end*
%ADD10R,1.300000X1.300000*%
%ADD11C,1.300000*%
%ADD12RoundRect,0.250000X0.350000X0.450000X-0.350000X0.450000X-0.350000X-0.450000X0.350000X-0.450000X0*%
%ADD13O,5.204000X2.704000*%
%ADD14O,4.704000X2.454000*%
%ADD15O,2.454000X4.704000*%
%ADD16RoundRect,0.150000X-0.725000X-0.150000X0.725000X-0.150000X0.725000X0.150000X-0.725000X0.150000X0*%
%ADD17C,2.397760*%
%ADD18R,2.900000X5.400000*%
%ADD19RoundRect,0.250001X-0.872499X-1.044999X0.872499X-1.044999X0.872499X1.044999X-0.872499X1.044999X0*%
%ADD20R,1.905000X2.000000*%
%ADD21O,1.905000X2.000000*%
%ADD22RoundRect,0.250000X1.100000X-0.412500X1.100000X0.412500X-1.100000X0.412500X-1.100000X-0.412500X0*%
%ADD23RoundRect,0.250000X0.070711X-0.565685X0.565685X-0.070711X-0.070711X0.565685X-0.565685X0.070711X0*%
%ADD24Outline4P,-2.150000X-1.800000X2.150000X-0.800000X2.150000X0.800000X-2.150000X1.800000X90.000000*%
%ADD25Outline4P,-2.150000X-1.800000X2.150000X-0.800000X2.150000X0.800000X-2.150000X1.800000X270.000000*%
%ADD26RoundRect,0.250000X-1.050000X1.050000X-1.050000X-1.050000X1.050000X-1.050000X1.050000X1.050000X0*%
%ADD27C,2.600000*%
%ADD28RoundRect,0.250000X-0.400000X-0.625000X0.400000X-0.625000X0.400000X0.625000X-0.400000X0.625000X0*%
%ADD29RoundRect,0.250000X1.950000X1.000000X-1.950000X1.000000X-1.950000X-1.000000X1.950000X-1.000000X0*%
%ADD30RoundRect,0.250000X-0.475000X0.337500X-0.475000X-0.337500X0.475000X-0.337500X0.475000X0.337500X0*%
%ADD31C,1.440000*%
%ADD32RoundRect,0.250000X0.337500X0.475000X-0.337500X0.475000X-0.337500X-0.475000X0.337500X-0.475000X0*%
%ADD33RoundRect,0.250000X-0.350000X-0.450000X0.350000X-0.450000X0.350000X0.450000X-0.350000X0.450000X0*%
%ADD34R,1.700000X1.700000*%
%ADD35C,1.700000*%
%ADD36RoundRect,0.250000X1.050000X1.050000X-1.050000X1.050000X-1.050000X-1.050000X1.050000X-1.050000X0*%
G04 APERTURE END LIST*
D10*
%TO.C,Q9*%
X134750000Y-95460000D03*
D11*
X136020000Y-96730000D03*
X134750000Y-98000000D03*
%TD*%
D12*
%TO.C,R10*%
X174800000Y-117400000D03*
X172800000Y-117400000D03*
%TD*%
D10*
%TO.C,Q2*%
X140500000Y-95480000D03*
D11*
X141770000Y-96750000D03*
X140500000Y-98020000D03*
%TD*%
D13*
%TO.C,J2*%
X176700000Y-76250000D03*
D14*
X176700000Y-70250000D03*
D15*
X172000000Y-73250000D03*
%TD*%
D12*
%TO.C,R3*%
X174750000Y-96500000D03*
X172750000Y-96500000D03*
%TD*%
D16*
%TO.C,U1*%
X157550000Y-87080000D03*
X157550000Y-88350000D03*
X157550000Y-89620000D03*
X157550000Y-90890000D03*
X162700000Y-90890000D03*
X162700000Y-89620000D03*
X162700000Y-88350000D03*
X162700000Y-87080000D03*
%TD*%
D12*
%TO.C,R11*%
X174800000Y-122600000D03*
X172800000Y-122600000D03*
%TD*%
D17*
%TO.C,NX1*%
X141251660Y-120248020D03*
X137751540Y-110502040D03*
X141251660Y-108751980D03*
X145750000Y-108751980D03*
X150248340Y-108751980D03*
X153748460Y-110502040D03*
X154749219Y-114500000D03*
X153748460Y-118497960D03*
X150248340Y-120248020D03*
X145750000Y-120248020D03*
X137751540Y-118497960D03*
X136750781Y-114500000D03*
%TD*%
D10*
%TO.C,Q7*%
X127730000Y-97089999D03*
D11*
X129000000Y-95819999D03*
X130270000Y-97089999D03*
%TD*%
D10*
%TO.C,Q3*%
X124000000Y-108500000D03*
D11*
X125270000Y-107230000D03*
X126540000Y-108500000D03*
%TD*%
D10*
%TO.C,Q1*%
X123750000Y-122610000D03*
D11*
X125020000Y-121340000D03*
X126290000Y-122610000D03*
%TD*%
D18*
%TO.C,L1*%
X152150002Y-71750000D03*
X142250000Y-71750000D03*
%TD*%
D12*
%TO.C,R1*%
X174800000Y-120000000D03*
X172800000Y-120000000D03*
%TD*%
%TO.C,R9*%
X174750000Y-104500000D03*
X172750000Y-104500000D03*
%TD*%
D19*
%TO.C,C1*%
X168200000Y-88750000D03*
X174615000Y-88750000D03*
%TD*%
D20*
%TO.C,Q12*%
X153460000Y-83545000D03*
D21*
X156000000Y-83545000D03*
X158539999Y-83545000D03*
%TD*%
D12*
%TO.C,R4*%
X174750000Y-109600000D03*
X172750000Y-109600000D03*
%TD*%
D22*
%TO.C,C5*%
X137250000Y-90312500D03*
X137250000Y-87187500D03*
%TD*%
D10*
%TO.C,Q8*%
X163750000Y-114710000D03*
D11*
X165020000Y-115980000D03*
X163750000Y-117250000D03*
%TD*%
D23*
%TO.C,R13*%
X158200000Y-97400000D03*
X159614214Y-95985786D03*
%TD*%
D24*
%TO.C,D1*%
X144000000Y-89250000D03*
D25*
X144000000Y-82850000D03*
%TD*%
D26*
%TO.C,J4*%
X126000000Y-72750000D03*
D27*
X126000000Y-77829999D03*
%TD*%
D28*
%TO.C,R_SENSE1*%
X162849999Y-84200000D03*
X165950001Y-84200000D03*
%TD*%
D10*
%TO.C,Q6*%
X163750000Y-107980000D03*
D11*
X165020000Y-109250000D03*
X163750000Y-110520000D03*
%TD*%
D29*
%TO.C,C4*%
X131200000Y-87750000D03*
X123800000Y-87750000D03*
%TD*%
D10*
%TO.C,Q5*%
X124000000Y-102750000D03*
D11*
X125270000Y-101480000D03*
X126540000Y-102750000D03*
%TD*%
D30*
%TO.C,C3*%
X163000000Y-92962500D03*
X163000000Y-95037500D03*
%TD*%
D31*
%TO.C,RV1*%
X148000000Y-98000000D03*
X150540000Y-100540000D03*
X153079999Y-98000000D03*
%TD*%
D32*
%TO.C,C2*%
X154787500Y-87500000D03*
X152712500Y-87500000D03*
%TD*%
D12*
%TO.C,R8*%
X174800000Y-114800000D03*
X172800000Y-114800000D03*
%TD*%
D10*
%TO.C,Q11*%
X124000000Y-114000000D03*
D11*
X125270000Y-112730000D03*
X126540000Y-114000000D03*
%TD*%
D12*
%TO.C,R6*%
X174800000Y-112200000D03*
X172800000Y-112200000D03*
%TD*%
D33*
%TO.C,R12*%
X152712500Y-90500000D03*
X154712500Y-90500000D03*
%TD*%
D12*
%TO.C,R2*%
X174750000Y-107000000D03*
X172750000Y-107000000D03*
%TD*%
D34*
%TO.C,J1*%
X178250000Y-122250000D03*
D35*
X178250000Y-119710000D03*
X178250000Y-117170001D03*
X178250000Y-114630000D03*
X178250000Y-112090000D03*
X178250000Y-109550000D03*
X178250000Y-107010000D03*
X178250000Y-104469999D03*
X178250000Y-101930000D03*
X178250000Y-99390000D03*
X178250000Y-96850000D03*
%TD*%
D10*
%TO.C,Q10*%
X163270001Y-122500000D03*
D11*
X162000001Y-123770000D03*
X160730001Y-122500000D03*
%TD*%
D10*
%TO.C,Q4*%
X163520001Y-102250000D03*
D11*
X162250001Y-103520000D03*
X160980001Y-102250000D03*
%TD*%
D12*
%TO.C,R5*%
X174750000Y-99250000D03*
X172750000Y-99250000D03*
%TD*%
D36*
%TO.C,J3*%
X165545001Y-67577500D03*
D27*
X160465002Y-67577500D03*
%TD*%
D12*
%TO.C,R7*%
X174750000Y-102000000D03*
X172750000Y-102000000D03*
%TD*%
%TO.C,R14*%
X127000000Y-118000000D03*
X125000000Y-118000000D03*
%TD*%
M02*
