%TF.GenerationSoftware,KiCad,Pcbnew,9.0.1*%
%TF.CreationDate,2025-07-04T13:23:47-04:00*%
%TF.ProjectId,nixie-hvdc,6e697869-652d-4687-9664-632e6b696361,rev?*%
%TF.SameCoordinates,Original*%
%TF.FileFunction,Copper,L2,Bot*%
%TF.FilePolarity,Positive*%
%FSLAX46Y46*%
G04 Gerber Fmt 4.6, Leading zero omitted, Abs format (unit mm)*
G04 Created by KiCad (PCBNEW 9.0.1) date 2025-07-04 13:23:47*
%MOMM*%
%LPD*%
G01*
G04 APERTURE LIST*
G04 Aperture macros list*
%AMRoundRect*
0 Rectangle with rounded corners*
0 $1 Rounding radius*
0 $2 $3 $4 $5 $6 $7 $8 $9 X,Y pos of 4 corners*
0 Add a 4 corners polygon primitive as box body*
4,1,4,$2,$3,$4,$5,$6,$7,$8,$9,$2,$3,0*
0 Add four circle primitives for the rounded corners*
1,1,$1+$1,$2,$3*
1,1,$1+$1,$4,$5*
1,1,$1+$1,$6,$7*
1,1,$1+$1,$8,$9*
0 Add four rect primitives between the rounded corners*
20,1,$1+$1,$2,$3,$4,$5,0*
20,1,$1+$1,$4,$5,$6,$7,0*
20,1,$1+$1,$6,$7,$8,$9,0*
20,1,$1+$1,$8,$9,$2,$3,0*%
G04 Aperture macros list end*
%TA.AperFunction,ComponentPad*%
%ADD10R,1.300000X1.300000*%
%TD*%
%TA.AperFunction,ComponentPad*%
%ADD11C,1.300000*%
%TD*%
%TA.AperFunction,ComponentPad*%
%ADD12O,5.000000X2.500000*%
%TD*%
%TA.AperFunction,ComponentPad*%
%ADD13O,4.500000X2.250000*%
%TD*%
%TA.AperFunction,ComponentPad*%
%ADD14O,2.250000X4.500000*%
%TD*%
%TA.AperFunction,ComponentPad*%
%ADD15C,2.397760*%
%TD*%
%TA.AperFunction,ComponentPad*%
%ADD16R,1.905000X2.000000*%
%TD*%
%TA.AperFunction,ComponentPad*%
%ADD17O,1.905000X2.000000*%
%TD*%
%TA.AperFunction,ComponentPad*%
%ADD18RoundRect,0.250000X-1.050000X1.050000X-1.050000X-1.050000X1.050000X-1.050000X1.050000X1.050000X0*%
%TD*%
%TA.AperFunction,ComponentPad*%
%ADD19C,2.600000*%
%TD*%
%TA.AperFunction,ComponentPad*%
%ADD20C,1.440000*%
%TD*%
%TA.AperFunction,ComponentPad*%
%ADD21R,1.700000X1.700000*%
%TD*%
%TA.AperFunction,ComponentPad*%
%ADD22C,1.700000*%
%TD*%
%TA.AperFunction,ComponentPad*%
%ADD23RoundRect,0.250000X1.050000X1.050000X-1.050000X1.050000X-1.050000X-1.050000X1.050000X-1.050000X0*%
%TD*%
%TA.AperFunction,ViaPad*%
%ADD24C,0.600000*%
%TD*%
%TA.AperFunction,ViaPad*%
%ADD25C,1.000000*%
%TD*%
%TA.AperFunction,Conductor*%
%ADD26C,0.300000*%
%TD*%
%TA.AperFunction,Conductor*%
%ADD27C,0.500000*%
%TD*%
G04 APERTURE END LIST*
D10*
%TO.P,Q9,1,E*%
%TO.N,GND*%
X134750000Y-95460000D03*
D11*
%TO.P,Q9,2,B*%
%TO.N,Net-(Q9-B)*%
X136020000Y-96730000D03*
%TO.P,Q9,3,C*%
%TO.N,/NIXIE_DIGIT_4*%
X134750000Y-98000000D03*
%TD*%
D10*
%TO.P,Q2,1,E*%
%TO.N,GND*%
X140500000Y-95480000D03*
D11*
%TO.P,Q2,2,B*%
%TO.N,Net-(Q2-B)*%
X141770000Y-96750000D03*
%TO.P,Q2,3,C*%
%TO.N,/NIXIE_DIGIT_5*%
X140500000Y-98020000D03*
%TD*%
D12*
%TO.P,J2,1*%
%TO.N,+12V*%
X176700000Y-76250000D03*
D13*
%TO.P,J2,2*%
%TO.N,GND*%
X176700000Y-70250000D03*
D14*
%TO.P,J2,3*%
%TO.N,unconnected-(J2-Pad3)*%
X172000000Y-73250000D03*
%TD*%
D15*
%TO.P,NX1,0,0*%
%TO.N,/NIXIE_DIGIT_0*%
X141251660Y-120248020D03*
%TO.P,NX1,1,1*%
%TO.N,/NIXIE_DIGIT_1*%
X137751540Y-110502040D03*
%TO.P,NX1,2,2*%
%TO.N,/NIXIE_DIGIT_2*%
X141251660Y-108751980D03*
%TO.P,NX1,3,3*%
%TO.N,/NIXIE_DIGIT_3*%
X145750000Y-108751980D03*
%TO.P,NX1,4,4*%
%TO.N,/NIXIE_DIGIT_4*%
X150248340Y-108751980D03*
%TO.P,NX1,5,5*%
%TO.N,/NIXIE_DIGIT_5*%
X153748460Y-110502040D03*
%TO.P,NX1,6,6*%
%TO.N,/NIXIE_DIGIT_6*%
X154749219Y-114500000D03*
%TO.P,NX1,7,7*%
%TO.N,/NIXIE_DIGIT_7*%
X153748460Y-118497960D03*
%TO.P,NX1,8,8*%
%TO.N,/NIXIE_DIGIT_8*%
X150248340Y-120248020D03*
%TO.P,NX1,9,9*%
%TO.N,/NIXIE_DIGIT_9*%
X145750000Y-120248020D03*
%TO.P,NX1,A,A*%
%TO.N,Net-(NX1-PadA)*%
X137751540Y-118497960D03*
%TO.P,NX1,LHDP,LHDP*%
%TO.N,/NIXIE_DIGIT_LHDP*%
X136750781Y-114500000D03*
%TD*%
D10*
%TO.P,Q7,1,E*%
%TO.N,GND*%
X127730000Y-97089999D03*
D11*
%TO.P,Q7,2,B*%
%TO.N,Net-(Q7-B)*%
X129000000Y-95819999D03*
%TO.P,Q7,3,C*%
%TO.N,/NIXIE_DIGIT_3*%
X130270000Y-97089999D03*
%TD*%
D10*
%TO.P,Q3,1,E*%
%TO.N,GND*%
X124000000Y-108500000D03*
D11*
%TO.P,Q3,2,B*%
%TO.N,Net-(Q3-B)*%
X125270000Y-107230000D03*
%TO.P,Q3,3,C*%
%TO.N,/NIXIE_DIGIT_1*%
X126540000Y-108500000D03*
%TD*%
D10*
%TO.P,Q1,1,E*%
%TO.N,GND*%
X123750000Y-122610000D03*
D11*
%TO.P,Q1,2,B*%
%TO.N,Net-(Q1-B)*%
X125020000Y-121340000D03*
%TO.P,Q1,3,C*%
%TO.N,/NIXIE_DIGIT_0*%
X126290000Y-122610000D03*
%TD*%
D16*
%TO.P,Q12,1,G*%
%TO.N,Net-(Q12-G)*%
X153460000Y-83545000D03*
D17*
%TO.P,Q12,2,D*%
%TO.N,Net-(D1-A)*%
X156000000Y-83545000D03*
%TO.P,Q12,3,S*%
%TO.N,Net-(Q12-S)*%
X158539999Y-83545000D03*
%TD*%
D10*
%TO.P,Q8,1,E*%
%TO.N,GND*%
X163750000Y-114710000D03*
D11*
%TO.P,Q8,2,B*%
%TO.N,Net-(Q8-B)*%
X165020000Y-115980000D03*
%TO.P,Q8,3,C*%
%TO.N,/NIXIE_DIGIT_8*%
X163750000Y-117250000D03*
%TD*%
D18*
%TO.P,J4,1,Pin_1*%
%TO.N,/180V*%
X126000000Y-72750000D03*
D19*
%TO.P,J4,2,Pin_2*%
%TO.N,GND*%
X126000000Y-77829999D03*
%TD*%
D10*
%TO.P,Q6,1,E*%
%TO.N,GND*%
X163750000Y-107980000D03*
D11*
%TO.P,Q6,2,B*%
%TO.N,Net-(Q6-B)*%
X165020000Y-109250000D03*
%TO.P,Q6,3,C*%
%TO.N,/NIXIE_DIGIT_7*%
X163750000Y-110520000D03*
%TD*%
D10*
%TO.P,Q5,1,E*%
%TO.N,GND*%
X124000000Y-102750000D03*
D11*
%TO.P,Q5,2,B*%
%TO.N,Net-(Q5-B)*%
X125270000Y-101480000D03*
%TO.P,Q5,3,C*%
%TO.N,/NIXIE_DIGIT_2*%
X126540000Y-102750000D03*
%TD*%
D20*
%TO.P,RV1,1,1*%
%TO.N,Net-(R13-Pad1)*%
X148000000Y-98000000D03*
%TO.P,RV1,2,2*%
X150540000Y-100540000D03*
%TO.P,RV1,3,3*%
%TO.N,Net-(U1-FB)*%
X153079999Y-98000000D03*
%TD*%
D10*
%TO.P,Q11,1,E*%
%TO.N,GND*%
X124000000Y-114000000D03*
D11*
%TO.P,Q11,2,B*%
%TO.N,Net-(Q11-B)*%
X125270000Y-112730000D03*
%TO.P,Q11,3,C*%
%TO.N,/NIXIE_DIGIT_LHDP*%
X126540000Y-114000000D03*
%TD*%
D21*
%TO.P,J1,1,Pin_1*%
%TO.N,/CTRL_DIGIT_LHDP*%
X178250000Y-122250000D03*
D22*
%TO.P,J1,2,Pin_2*%
%TO.N,/CTRL_DIGIT_0*%
X178250000Y-119710000D03*
%TO.P,J1,3,Pin_3*%
%TO.N,/CTRL_DIGIT_9*%
X178250000Y-117170001D03*
%TO.P,J1,4,Pin_4*%
%TO.N,/CTRL_DIGIT_8*%
X178250000Y-114630000D03*
%TO.P,J1,5,Pin_5*%
%TO.N,/CTRL_DIGIT_7*%
X178250000Y-112090000D03*
%TO.P,J1,6,Pin_6*%
%TO.N,/CTRL_DIGIT_6*%
X178250000Y-109550000D03*
%TO.P,J1,7,Pin_7*%
%TO.N,/CTRL_DIGIT_5*%
X178250000Y-107010000D03*
%TO.P,J1,8,Pin_8*%
%TO.N,/CTRL_DIGIT_4*%
X178250000Y-104469999D03*
%TO.P,J1,9,Pin_9*%
%TO.N,/CTRL_DIGIT_3*%
X178250000Y-101930000D03*
%TO.P,J1,10,Pin_10*%
%TO.N,/CTRL_DIGIT_2*%
X178250000Y-99390000D03*
%TO.P,J1,11,Pin_11*%
%TO.N,/CTRL_DIGIT_1*%
X178250000Y-96850000D03*
%TD*%
D10*
%TO.P,Q10,1,E*%
%TO.N,GND*%
X163270001Y-122500000D03*
D11*
%TO.P,Q10,2,B*%
%TO.N,Net-(Q10-B)*%
X162000001Y-123770000D03*
%TO.P,Q10,3,C*%
%TO.N,/NIXIE_DIGIT_9*%
X160730001Y-122500000D03*
%TD*%
D10*
%TO.P,Q4,1,E*%
%TO.N,GND*%
X163520001Y-102250000D03*
D11*
%TO.P,Q4,2,B*%
%TO.N,Net-(Q4-B)*%
X162250001Y-103520000D03*
%TO.P,Q4,3,C*%
%TO.N,/NIXIE_DIGIT_6*%
X160980001Y-102250000D03*
%TD*%
D23*
%TO.P,J3,1,Pin_1*%
%TO.N,GND*%
X165545001Y-67577500D03*
D19*
%TO.P,J3,2,Pin_2*%
%TO.N,+12V*%
X160465002Y-67577500D03*
%TD*%
D24*
%TO.N,GND*%
X173750000Y-80000000D03*
X171750000Y-81750000D03*
X180750000Y-79000000D03*
X179250000Y-80500000D03*
X180750000Y-85250000D03*
X175500000Y-85250000D03*
X177250000Y-85250000D03*
X177250000Y-83750000D03*
X179000000Y-85250000D03*
X179000000Y-83500000D03*
X179000000Y-82000000D03*
X180750000Y-83500000D03*
X180750000Y-80500000D03*
X180750000Y-82000000D03*
X158250000Y-76000000D03*
X156250000Y-74500000D03*
X160750000Y-77750000D03*
X158250000Y-77750000D03*
X156000000Y-77750000D03*
X158250000Y-74500000D03*
X146000000Y-73700000D03*
X145250000Y-68000000D03*
X145250000Y-66400000D03*
X149000000Y-83330000D03*
X149000000Y-80790000D03*
X149000000Y-85500000D03*
X134710000Y-85750000D03*
X134710000Y-83580000D03*
X134710000Y-81040000D03*
%TO.N,+12V*%
X159400000Y-88800000D03*
X168200000Y-88750000D03*
D25*
%TO.N,GND*%
X164500000Y-82050000D03*
D24*
X139400000Y-66670000D03*
X149900000Y-62800000D03*
X134660000Y-64750000D03*
X147750000Y-73700000D03*
X152440000Y-64400000D03*
X147400000Y-66400000D03*
X134710000Y-71750000D03*
D25*
X169400000Y-83400000D03*
D24*
X174600000Y-93000000D03*
D25*
X166100000Y-82050000D03*
D24*
X137250000Y-79000000D03*
X170400000Y-67577500D03*
X165800000Y-95000000D03*
X156250000Y-71750000D03*
X139400000Y-71750000D03*
X137250000Y-71750000D03*
X139350000Y-64750000D03*
X134710000Y-74290000D03*
X137200000Y-64750000D03*
X142280000Y-64400000D03*
X134710000Y-66670000D03*
D25*
X168700000Y-82050000D03*
D24*
X138000000Y-95460000D03*
D25*
X123800000Y-82000000D03*
D24*
X137250000Y-66670000D03*
X161700000Y-76000000D03*
D25*
X167400000Y-82050000D03*
D24*
X142280000Y-62800000D03*
X167100000Y-79100000D03*
D25*
X137200000Y-81800000D03*
X164850000Y-86050000D03*
D24*
X139400000Y-69210000D03*
X147360000Y-64400000D03*
X149900000Y-64400000D03*
X134660000Y-62800000D03*
X134710000Y-76830000D03*
X152440000Y-62800000D03*
X147750000Y-75600000D03*
X160250000Y-74500000D03*
X137200000Y-62800000D03*
D25*
X168000000Y-83400000D03*
D24*
X137250000Y-74290000D03*
X160300000Y-90300000D03*
X142750000Y-66400000D03*
X166000000Y-104400000D03*
X144820000Y-62800000D03*
X134710000Y-69210000D03*
X147400000Y-68000000D03*
X139400000Y-79000000D03*
X139400000Y-76830000D03*
X163300000Y-77500000D03*
X139740000Y-62800000D03*
X137250000Y-76830000D03*
X166800000Y-124600000D03*
X167800000Y-113600000D03*
X142750000Y-68000000D03*
X137250000Y-69210000D03*
D25*
X168000000Y-84600000D03*
D24*
X144820000Y-64400000D03*
X169200000Y-79100000D03*
X147360000Y-62800000D03*
X164800000Y-79100000D03*
X134710000Y-79000000D03*
X154980000Y-62800000D03*
X171500000Y-79100000D03*
X139400000Y-74290000D03*
X150400000Y-88800000D03*
X154980000Y-64400000D03*
D25*
%TO.N,Net-(Q1-B)*%
X166813173Y-119986827D03*
%TO.N,Net-(Q2-B)*%
X170200000Y-107000000D03*
%TO.N,Net-(Q3-B)*%
X160400000Y-99000000D03*
%TO.N,Net-(Q5-B)*%
X168000000Y-99250000D03*
%TO.N,Net-(Q7-B)*%
X168800000Y-102000000D03*
%TO.N,Net-(Q9-B)*%
X154500000Y-102750000D03*
%TO.N,Net-(Q10-B)*%
X170000000Y-118400000D03*
%TO.N,Net-(Q11-B)*%
X152500000Y-123000000D03*
%TD*%
D26*
%TO.N,Net-(Q7-B)*%
X168800000Y-102000000D02*
X168250000Y-102000000D01*
X159500000Y-93250000D02*
X131750000Y-93250000D01*
X168250000Y-102000000D02*
X159500000Y-93250000D01*
X129180001Y-95819999D02*
X129000000Y-95819999D01*
X131750000Y-93250000D02*
X129180001Y-95819999D01*
%TO.N,Net-(Q2-B)*%
X141770000Y-96750000D02*
X141770000Y-96730000D01*
X141770000Y-96730000D02*
X143500000Y-95000000D01*
X143500000Y-95000000D02*
X158750000Y-95000000D01*
X158750000Y-95000000D02*
X170200000Y-106450000D01*
X170200000Y-106450000D02*
X170200000Y-107000000D01*
%TO.N,Net-(Q5-B)*%
X125270000Y-101480000D02*
X125270000Y-94980000D01*
X160250000Y-91500000D02*
X168000000Y-99250000D01*
X125270000Y-94980000D02*
X128750000Y-91500000D01*
X128750000Y-91500000D02*
X160250000Y-91500000D01*
%TO.N,Net-(Q9-B)*%
X140500000Y-102750000D02*
X137000000Y-99250000D01*
X154500000Y-102750000D02*
X140500000Y-102750000D01*
X137000000Y-97710000D02*
X136020000Y-96730000D01*
X137000000Y-99250000D02*
X137000000Y-97710000D01*
%TO.N,Net-(Q3-B)*%
X160400000Y-99000000D02*
X155310000Y-104090000D01*
X155310000Y-104090000D02*
X138160000Y-104090000D01*
X138160000Y-104090000D02*
X136000000Y-106250000D01*
X136000000Y-106250000D02*
X126250000Y-106250000D01*
X126250000Y-106250000D02*
X125270000Y-107230000D01*
%TO.N,Net-(Q11-B)*%
X136000000Y-123000000D02*
X130500000Y-117500000D01*
X130500000Y-117500000D02*
X130500000Y-114000000D01*
X130500000Y-114000000D02*
X128500000Y-112000000D01*
X128500000Y-112000000D02*
X126000000Y-112000000D01*
X152500000Y-123000000D02*
X136000000Y-123000000D01*
X126000000Y-112000000D02*
X125270000Y-112730000D01*
D27*
%TO.N,+12V*%
X159450000Y-88750000D02*
X159400000Y-88800000D01*
X168200000Y-88750000D02*
X159450000Y-88750000D01*
%TO.N,GND*%
X164860000Y-113600000D02*
X167800000Y-113600000D01*
X163750000Y-114710000D02*
X164860000Y-113600000D01*
X166000000Y-104400000D02*
X166000000Y-105730000D01*
X166000000Y-105730000D02*
X163750000Y-107980000D01*
D26*
%TO.N,Net-(Q1-B)*%
X129250000Y-121340000D02*
X125020000Y-121340000D01*
X158750000Y-120000000D02*
X153500000Y-125250000D01*
X153500000Y-125250000D02*
X133160000Y-125250000D01*
X166813173Y-119986827D02*
X166800000Y-120000000D01*
X133160000Y-125250000D02*
X129250000Y-121340000D01*
X166800000Y-120000000D02*
X158750000Y-120000000D01*
%TO.N,Net-(Q10-B)*%
X162000001Y-123770000D02*
X164657760Y-123770000D01*
X164657760Y-123770000D02*
X170000000Y-118427760D01*
X170000000Y-118427760D02*
X170000000Y-118400000D01*
%TD*%
%TA.AperFunction,Conductor*%
%TO.N,GND*%
G36*
X181942539Y-62020185D02*
G01*
X181988294Y-62072989D01*
X181999500Y-62124500D01*
X181999500Y-125875500D01*
X181979815Y-125942539D01*
X181927011Y-125988294D01*
X181875500Y-125999500D01*
X153957936Y-125999500D01*
X153890897Y-125979815D01*
X153845142Y-125927011D01*
X153835198Y-125857853D01*
X153864223Y-125794297D01*
X153889045Y-125772398D01*
X153914669Y-125755277D01*
X158983126Y-120686818D01*
X159044449Y-120653334D01*
X159070807Y-120650500D01*
X166010563Y-120650500D01*
X166077602Y-120670185D01*
X166098239Y-120686814D01*
X166143005Y-120731580D01*
X166175392Y-120763967D01*
X166339252Y-120873455D01*
X166339256Y-120873457D01*
X166339259Y-120873459D01*
X166376470Y-120888872D01*
X166430872Y-120932712D01*
X166452938Y-120999006D01*
X166435659Y-121066705D01*
X166416698Y-121091114D01*
X164631682Y-122876131D01*
X164570359Y-122909616D01*
X164500667Y-122904632D01*
X164444734Y-122862760D01*
X164420317Y-122797296D01*
X164420001Y-122788450D01*
X164420001Y-122750000D01*
X163550331Y-122750000D01*
X163570076Y-122730255D01*
X163619445Y-122644745D01*
X163645001Y-122549370D01*
X163645001Y-122450630D01*
X163619445Y-122355255D01*
X163570076Y-122269745D01*
X163550331Y-122250000D01*
X164420001Y-122250000D01*
X164420001Y-121802172D01*
X164420000Y-121802155D01*
X164413599Y-121742627D01*
X164413597Y-121742620D01*
X164363355Y-121607913D01*
X164363351Y-121607906D01*
X164277191Y-121492812D01*
X164277188Y-121492809D01*
X164162094Y-121406649D01*
X164162087Y-121406645D01*
X164027380Y-121356403D01*
X164027373Y-121356401D01*
X163967845Y-121350000D01*
X163520001Y-121350000D01*
X163520001Y-122219670D01*
X163500256Y-122199925D01*
X163414746Y-122150556D01*
X163319371Y-122125000D01*
X163220631Y-122125000D01*
X163125256Y-122150556D01*
X163039746Y-122199925D01*
X163020001Y-122219670D01*
X163020001Y-121350000D01*
X162572156Y-121350000D01*
X162512628Y-121356401D01*
X162512621Y-121356403D01*
X162377914Y-121406645D01*
X162377907Y-121406649D01*
X162262813Y-121492809D01*
X162262810Y-121492812D01*
X162176650Y-121607906D01*
X162176645Y-121607915D01*
X162154970Y-121666028D01*
X162113098Y-121721961D01*
X162047634Y-121746377D01*
X161979361Y-121731525D01*
X161938472Y-121695580D01*
X161836380Y-121555063D01*
X161674938Y-121393621D01*
X161490229Y-121259421D01*
X161470656Y-121249448D01*
X161286804Y-121155770D01*
X161069661Y-121085215D01*
X160844163Y-121049500D01*
X160844158Y-121049500D01*
X160615844Y-121049500D01*
X160615839Y-121049500D01*
X160390340Y-121085215D01*
X160173197Y-121155770D01*
X159969772Y-121259421D01*
X159785062Y-121393622D01*
X159623623Y-121555061D01*
X159489422Y-121739771D01*
X159385771Y-121943196D01*
X159315216Y-122160339D01*
X159279501Y-122385837D01*
X159279501Y-122614162D01*
X159315216Y-122839660D01*
X159385771Y-123056803D01*
X159462547Y-123207483D01*
X159489422Y-123260228D01*
X159623622Y-123444937D01*
X159785064Y-123606379D01*
X159969773Y-123740579D01*
X160041526Y-123777139D01*
X160173197Y-123844229D01*
X160173199Y-123844229D01*
X160173202Y-123844231D01*
X160289593Y-123882049D01*
X160390340Y-123914784D01*
X160615839Y-123950500D01*
X160758850Y-123950500D01*
X160825889Y-123970185D01*
X160871644Y-124022989D01*
X160876781Y-124036182D01*
X160933788Y-124211636D01*
X160933789Y-124211639D01*
X161016007Y-124372997D01*
X161122442Y-124519494D01*
X161122446Y-124519499D01*
X161250501Y-124647554D01*
X161250506Y-124647558D01*
X161378288Y-124740396D01*
X161397007Y-124753996D01*
X161502485Y-124807740D01*
X161558361Y-124836211D01*
X161558364Y-124836212D01*
X161644477Y-124864191D01*
X161730592Y-124892171D01*
X161813430Y-124905291D01*
X161909450Y-124920500D01*
X161909455Y-124920500D01*
X162090552Y-124920500D01*
X162177260Y-124906765D01*
X162269410Y-124892171D01*
X162441640Y-124836211D01*
X162602995Y-124753996D01*
X162749502Y-124647553D01*
X162877554Y-124519501D01*
X162880317Y-124515697D01*
X162912346Y-124471615D01*
X162967675Y-124428949D01*
X163012664Y-124420500D01*
X164721831Y-124420500D01*
X164806375Y-124403682D01*
X164847504Y-124395501D01*
X164965887Y-124346465D01*
X164993374Y-124328099D01*
X165072429Y-124275277D01*
X169910887Y-119436819D01*
X169972210Y-119403334D01*
X169998568Y-119400500D01*
X170098543Y-119400500D01*
X170229265Y-119374497D01*
X170291835Y-119362051D01*
X170473914Y-119286632D01*
X170637782Y-119177139D01*
X170777139Y-119037782D01*
X170886632Y-118873914D01*
X170962051Y-118691835D01*
X170995438Y-118523990D01*
X171000500Y-118498543D01*
X171000500Y-118301456D01*
X170962052Y-118108170D01*
X170962051Y-118108169D01*
X170962051Y-118108165D01*
X170937870Y-118049787D01*
X170886635Y-117926092D01*
X170886628Y-117926079D01*
X170777139Y-117762218D01*
X170777136Y-117762214D01*
X170637785Y-117622863D01*
X170637781Y-117622860D01*
X170473920Y-117513371D01*
X170473907Y-117513364D01*
X170291839Y-117437950D01*
X170291829Y-117437947D01*
X170098543Y-117399500D01*
X170098541Y-117399500D01*
X169901459Y-117399500D01*
X169901457Y-117399500D01*
X169708170Y-117437947D01*
X169708160Y-117437950D01*
X169526092Y-117513364D01*
X169526079Y-117513371D01*
X169362218Y-117622860D01*
X169362214Y-117622863D01*
X169222863Y-117762214D01*
X169222860Y-117762218D01*
X169113371Y-117926079D01*
X169113364Y-117926092D01*
X169037950Y-118108160D01*
X169037947Y-118108170D01*
X168999500Y-118301456D01*
X168999500Y-118456951D01*
X168979815Y-118523990D01*
X168963181Y-118544632D01*
X167917460Y-119590352D01*
X167856137Y-119623837D01*
X167786445Y-119618853D01*
X167730512Y-119576981D01*
X167715219Y-119550127D01*
X167699805Y-119512913D01*
X167699803Y-119512910D01*
X167699801Y-119512906D01*
X167590312Y-119349045D01*
X167590309Y-119349041D01*
X167450958Y-119209690D01*
X167450954Y-119209687D01*
X167287093Y-119100198D01*
X167287080Y-119100191D01*
X167105012Y-119024777D01*
X167105002Y-119024774D01*
X166911716Y-118986327D01*
X166911714Y-118986327D01*
X166714632Y-118986327D01*
X166714630Y-118986327D01*
X166521343Y-119024774D01*
X166521333Y-119024777D01*
X166339265Y-119100191D01*
X166339252Y-119100198D01*
X166175392Y-119209686D01*
X166133894Y-119251185D01*
X166071896Y-119313182D01*
X166010576Y-119346666D01*
X165984217Y-119349500D01*
X158685929Y-119349500D01*
X158560261Y-119374497D01*
X158560255Y-119374499D01*
X158441875Y-119423533D01*
X158441866Y-119423538D01*
X158335331Y-119494723D01*
X158335327Y-119494726D01*
X153266873Y-124563181D01*
X153205550Y-124596666D01*
X153179192Y-124599500D01*
X133480808Y-124599500D01*
X133413769Y-124579815D01*
X133393127Y-124563181D01*
X129664674Y-120834727D01*
X129664673Y-120834726D01*
X129664097Y-120834341D01*
X129558127Y-120763535D01*
X129439744Y-120714499D01*
X129439738Y-120714497D01*
X129314071Y-120689500D01*
X129314069Y-120689500D01*
X126032663Y-120689500D01*
X125965624Y-120669815D01*
X125932345Y-120638385D01*
X125897558Y-120590505D01*
X125897554Y-120590500D01*
X125769499Y-120462445D01*
X125769494Y-120462441D01*
X125622997Y-120356006D01*
X125622996Y-120356005D01*
X125622994Y-120356004D01*
X125571300Y-120329664D01*
X125461639Y-120273788D01*
X125461636Y-120273787D01*
X125289410Y-120217829D01*
X125110551Y-120189500D01*
X125110546Y-120189500D01*
X124929454Y-120189500D01*
X124929449Y-120189500D01*
X124750589Y-120217829D01*
X124578363Y-120273787D01*
X124578360Y-120273788D01*
X124417002Y-120356006D01*
X124270505Y-120462441D01*
X124270500Y-120462445D01*
X124142445Y-120590500D01*
X124142441Y-120590505D01*
X124036006Y-120737002D01*
X123953788Y-120898360D01*
X123953787Y-120898363D01*
X123897829Y-121070589D01*
X123869500Y-121249448D01*
X123869500Y-121430551D01*
X123897829Y-121609410D01*
X123953787Y-121781636D01*
X123953790Y-121781643D01*
X123986484Y-121845806D01*
X124000000Y-121902102D01*
X124000000Y-122329670D01*
X123980255Y-122309925D01*
X123894745Y-122260556D01*
X123799370Y-122235000D01*
X123700630Y-122235000D01*
X123605255Y-122260556D01*
X123519745Y-122309925D01*
X123500000Y-122329670D01*
X123500000Y-121460000D01*
X123052155Y-121460000D01*
X122992627Y-121466401D01*
X122992620Y-121466403D01*
X122857913Y-121516645D01*
X122857906Y-121516649D01*
X122742812Y-121602809D01*
X122742809Y-121602812D01*
X122656649Y-121717906D01*
X122656645Y-121717913D01*
X122606403Y-121852620D01*
X122606401Y-121852627D01*
X122600000Y-121912155D01*
X122600000Y-122360000D01*
X123469670Y-122360000D01*
X123449925Y-122379745D01*
X123400556Y-122465255D01*
X123375000Y-122560630D01*
X123375000Y-122659370D01*
X123400556Y-122754745D01*
X123449925Y-122840255D01*
X123469670Y-122860000D01*
X122600000Y-122860000D01*
X122600000Y-123307844D01*
X122606401Y-123367372D01*
X122606403Y-123367379D01*
X122656645Y-123502086D01*
X122656649Y-123502093D01*
X122742809Y-123617187D01*
X122742812Y-123617190D01*
X122857906Y-123703350D01*
X122857913Y-123703354D01*
X122992620Y-123753596D01*
X122992627Y-123753598D01*
X123052155Y-123759999D01*
X123052172Y-123760000D01*
X123500000Y-123760000D01*
X123500000Y-122890330D01*
X123519745Y-122910075D01*
X123605255Y-122959444D01*
X123700630Y-122985000D01*
X123799370Y-122985000D01*
X123894745Y-122959444D01*
X123980255Y-122910075D01*
X124000000Y-122890330D01*
X124000000Y-123760000D01*
X124447828Y-123760000D01*
X124447844Y-123759999D01*
X124507372Y-123753598D01*
X124507379Y-123753596D01*
X124642086Y-123703354D01*
X124642093Y-123703350D01*
X124757187Y-123617190D01*
X124757190Y-123617187D01*
X124843350Y-123502093D01*
X124843354Y-123502086D01*
X124865029Y-123443973D01*
X124906900Y-123388039D01*
X124972364Y-123363622D01*
X125040637Y-123378473D01*
X125081527Y-123414419D01*
X125183621Y-123554937D01*
X125345063Y-123716379D01*
X125529772Y-123850579D01*
X125600530Y-123886632D01*
X125733196Y-123954229D01*
X125733198Y-123954229D01*
X125733201Y-123954231D01*
X125849592Y-123992049D01*
X125950339Y-124024784D01*
X126175838Y-124060500D01*
X126175843Y-124060500D01*
X126404162Y-124060500D01*
X126629660Y-124024784D01*
X126635184Y-124022989D01*
X126846799Y-123954231D01*
X127050228Y-123850579D01*
X127234937Y-123716379D01*
X127396379Y-123554937D01*
X127530579Y-123370228D01*
X127634231Y-123166799D01*
X127704784Y-122949660D01*
X127722112Y-122840255D01*
X127740500Y-122724162D01*
X127740500Y-122495837D01*
X127711569Y-122313181D01*
X127704784Y-122270340D01*
X127704783Y-122270336D01*
X127704783Y-122270335D01*
X127666599Y-122152818D01*
X127664604Y-122082977D01*
X127700684Y-122023144D01*
X127763385Y-121992316D01*
X127784530Y-121990500D01*
X128929192Y-121990500D01*
X128996231Y-122010185D01*
X129016873Y-122026819D01*
X132745325Y-125755272D01*
X132745328Y-125755275D01*
X132770955Y-125772398D01*
X132815760Y-125826010D01*
X132824467Y-125895335D01*
X132794313Y-125958362D01*
X132734870Y-125995082D01*
X132702064Y-125999500D01*
X120874500Y-125999500D01*
X120807461Y-125979815D01*
X120761706Y-125927011D01*
X120750500Y-125875500D01*
X120750500Y-113302155D01*
X122850000Y-113302155D01*
X122850000Y-113750000D01*
X123719670Y-113750000D01*
X123699925Y-113769745D01*
X123650556Y-113855255D01*
X123625000Y-113950630D01*
X123625000Y-114049370D01*
X123650556Y-114144745D01*
X123699925Y-114230255D01*
X123719670Y-114250000D01*
X122850000Y-114250000D01*
X122850000Y-114697844D01*
X122856401Y-114757372D01*
X122856403Y-114757379D01*
X122906645Y-114892086D01*
X122906649Y-114892093D01*
X122992809Y-115007187D01*
X122992812Y-115007190D01*
X123107906Y-115093350D01*
X123107913Y-115093354D01*
X123242620Y-115143596D01*
X123242627Y-115143598D01*
X123302155Y-115149999D01*
X123302172Y-115150000D01*
X123750000Y-115150000D01*
X123750000Y-114280330D01*
X123769745Y-114300075D01*
X123855255Y-114349444D01*
X123950630Y-114375000D01*
X124049370Y-114375000D01*
X124144745Y-114349444D01*
X124230255Y-114300075D01*
X124250000Y-114280330D01*
X124250000Y-115150000D01*
X124697828Y-115150000D01*
X124697844Y-115149999D01*
X124757372Y-115143598D01*
X124757379Y-115143596D01*
X124892086Y-115093354D01*
X124892093Y-115093350D01*
X125007187Y-115007190D01*
X125007190Y-115007187D01*
X125093350Y-114892093D01*
X125093354Y-114892086D01*
X125115029Y-114833973D01*
X125156900Y-114778039D01*
X125222364Y-114753622D01*
X125290637Y-114768473D01*
X125331527Y-114804419D01*
X125433621Y-114944937D01*
X125595063Y-115106379D01*
X125779772Y-115240579D01*
X125875884Y-115289550D01*
X125983196Y-115344229D01*
X125983198Y-115344229D01*
X125983201Y-115344231D01*
X126084072Y-115377006D01*
X126200339Y-115414784D01*
X126425838Y-115450500D01*
X126425843Y-115450500D01*
X126654162Y-115450500D01*
X126879660Y-115414784D01*
X126901019Y-115407844D01*
X127096799Y-115344231D01*
X127300228Y-115240579D01*
X127484937Y-115106379D01*
X127646379Y-114944937D01*
X127780579Y-114760228D01*
X127884231Y-114556799D01*
X127954784Y-114339660D01*
X127968985Y-114250000D01*
X127990500Y-114114162D01*
X127990500Y-113885837D01*
X127954784Y-113660339D01*
X127900972Y-113494724D01*
X127884231Y-113443201D01*
X127884229Y-113443198D01*
X127884229Y-113443196D01*
X127828078Y-113332994D01*
X127780579Y-113239772D01*
X127646379Y-113055063D01*
X127484937Y-112893621D01*
X127459056Y-112874817D01*
X127416391Y-112819488D01*
X127410412Y-112749875D01*
X127443018Y-112688080D01*
X127503857Y-112653722D01*
X127531942Y-112650500D01*
X128179192Y-112650500D01*
X128246231Y-112670185D01*
X128266873Y-112686819D01*
X129813181Y-114233126D01*
X129846666Y-114294449D01*
X129849500Y-114320807D01*
X129849500Y-117564071D01*
X129872231Y-117678342D01*
X129872232Y-117678345D01*
X129874499Y-117689743D01*
X129874499Y-117689744D01*
X129922986Y-117806803D01*
X129923535Y-117808127D01*
X129994723Y-117914669D01*
X129994726Y-117914673D01*
X135585325Y-123505272D01*
X135585332Y-123505278D01*
X135691863Y-123576459D01*
X135691867Y-123576461D01*
X135691874Y-123576466D01*
X135749896Y-123600499D01*
X135810256Y-123625501D01*
X135810260Y-123625501D01*
X135810261Y-123625502D01*
X135935928Y-123650500D01*
X135935931Y-123650500D01*
X151684217Y-123650500D01*
X151751256Y-123670185D01*
X151771893Y-123686814D01*
X151825657Y-123740578D01*
X151862219Y-123777140D01*
X152026079Y-123886628D01*
X152026092Y-123886635D01*
X152208160Y-123962049D01*
X152208165Y-123962051D01*
X152208169Y-123962051D01*
X152208170Y-123962052D01*
X152401456Y-124000500D01*
X152401459Y-124000500D01*
X152598543Y-124000500D01*
X152750943Y-123970185D01*
X152791835Y-123962051D01*
X152973914Y-123886632D01*
X153137782Y-123777139D01*
X153277139Y-123637782D01*
X153386632Y-123473914D01*
X153462051Y-123291835D01*
X153486922Y-123166803D01*
X153500500Y-123098543D01*
X153500500Y-122901456D01*
X153462052Y-122708170D01*
X153462051Y-122708169D01*
X153462051Y-122708165D01*
X153435782Y-122644745D01*
X153386635Y-122526092D01*
X153386628Y-122526079D01*
X153277139Y-122362218D01*
X153277136Y-122362214D01*
X153137785Y-122222863D01*
X153137781Y-122222860D01*
X152973920Y-122113371D01*
X152973907Y-122113364D01*
X152791839Y-122037950D01*
X152791829Y-122037947D01*
X152598543Y-121999500D01*
X152598541Y-121999500D01*
X152401459Y-121999500D01*
X152401457Y-121999500D01*
X152208170Y-122037947D01*
X152208160Y-122037950D01*
X152026092Y-122113364D01*
X152026079Y-122113371D01*
X151862219Y-122222859D01*
X151837679Y-122247400D01*
X151771896Y-122313182D01*
X151710576Y-122346666D01*
X151684217Y-122349500D01*
X151022941Y-122349500D01*
X150955902Y-122329815D01*
X150910147Y-122277011D01*
X150900203Y-122207853D01*
X150929228Y-122144297D01*
X150975488Y-122110939D01*
X151037428Y-122085282D01*
X151134541Y-122045057D01*
X151361519Y-121914011D01*
X151569451Y-121754459D01*
X151754779Y-121569131D01*
X151914331Y-121361199D01*
X152045377Y-121134221D01*
X152145675Y-120892079D01*
X152213510Y-120638917D01*
X152247720Y-120379066D01*
X152247720Y-120118012D01*
X152267405Y-120050973D01*
X152320209Y-120005218D01*
X152389367Y-119995274D01*
X152447206Y-120019636D01*
X152488045Y-120050973D01*
X152635281Y-120163951D01*
X152635288Y-120163955D01*
X152862251Y-120294993D01*
X152862256Y-120294995D01*
X152862259Y-120294997D01*
X153049547Y-120372574D01*
X153065220Y-120379066D01*
X153104401Y-120395295D01*
X153357563Y-120463130D01*
X153617414Y-120497340D01*
X153617421Y-120497340D01*
X153879499Y-120497340D01*
X153879506Y-120497340D01*
X154139357Y-120463130D01*
X154392519Y-120395295D01*
X154634661Y-120294997D01*
X154861639Y-120163951D01*
X155069571Y-120004399D01*
X155254899Y-119819071D01*
X155414451Y-119611139D01*
X155545497Y-119384161D01*
X155645795Y-119142019D01*
X155713630Y-118888857D01*
X155747840Y-118629006D01*
X155747840Y-118366914D01*
X155713630Y-118107063D01*
X155645795Y-117853901D01*
X155545497Y-117611759D01*
X155545495Y-117611756D01*
X155545493Y-117611751D01*
X155422682Y-117399038D01*
X155414451Y-117384781D01*
X155398626Y-117364157D01*
X155277619Y-117206457D01*
X155277618Y-117206456D01*
X155254903Y-117176853D01*
X155254894Y-117176843D01*
X155213888Y-117135837D01*
X162299500Y-117135837D01*
X162299500Y-117364162D01*
X162335215Y-117589660D01*
X162405770Y-117806803D01*
X162509421Y-118010228D01*
X162643621Y-118194937D01*
X162805063Y-118356379D01*
X162989772Y-118490579D01*
X163055345Y-118523990D01*
X163193196Y-118594229D01*
X163193198Y-118594229D01*
X163193201Y-118594231D01*
X163297029Y-118627967D01*
X163410339Y-118664784D01*
X163635838Y-118700500D01*
X163635843Y-118700500D01*
X163864162Y-118700500D01*
X164089660Y-118664784D01*
X164306799Y-118594231D01*
X164510228Y-118490579D01*
X164694937Y-118356379D01*
X164856379Y-118194937D01*
X164990579Y-118010228D01*
X165094231Y-117806799D01*
X165164784Y-117589660D01*
X165170779Y-117551809D01*
X165200500Y-117364162D01*
X165200500Y-117221150D01*
X165220185Y-117154111D01*
X165272989Y-117108356D01*
X165286183Y-117103219D01*
X165289407Y-117102171D01*
X165289409Y-117102171D01*
X165461639Y-117046211D01*
X165622994Y-116963996D01*
X165769501Y-116857553D01*
X165897553Y-116729501D01*
X166003996Y-116582994D01*
X166086211Y-116421639D01*
X166142171Y-116249409D01*
X166159517Y-116139891D01*
X166170500Y-116070551D01*
X166170500Y-115889448D01*
X166143216Y-115717190D01*
X166142171Y-115710591D01*
X166110518Y-115613171D01*
X166086212Y-115538363D01*
X166086211Y-115538360D01*
X166057740Y-115482484D01*
X166003996Y-115377006D01*
X165904876Y-115240578D01*
X165897558Y-115230505D01*
X165897554Y-115230500D01*
X165769499Y-115102445D01*
X165769494Y-115102441D01*
X165622997Y-114996006D01*
X165622996Y-114996005D01*
X165622994Y-114996004D01*
X165552333Y-114960000D01*
X165461639Y-114913788D01*
X165461636Y-114913787D01*
X165289410Y-114857829D01*
X165110551Y-114829500D01*
X165110546Y-114829500D01*
X164929454Y-114829500D01*
X164929449Y-114829500D01*
X164750589Y-114857829D01*
X164578363Y-114913787D01*
X164578360Y-114913788D01*
X164514192Y-114946485D01*
X164457897Y-114960000D01*
X164030330Y-114960000D01*
X164050075Y-114940255D01*
X164099444Y-114854745D01*
X164125000Y-114759370D01*
X164125000Y-114660630D01*
X164099444Y-114565255D01*
X164050075Y-114479745D01*
X164030330Y-114460000D01*
X164900000Y-114460000D01*
X164900000Y-114012172D01*
X164899999Y-114012155D01*
X164893598Y-113952627D01*
X164893596Y-113952620D01*
X164843354Y-113817913D01*
X164843350Y-113817906D01*
X164757190Y-113702812D01*
X164757187Y-113702809D01*
X164642093Y-113616649D01*
X164642086Y-113616645D01*
X164507379Y-113566403D01*
X164507372Y-113566401D01*
X164447844Y-113560000D01*
X164000000Y-113560000D01*
X164000000Y-114429670D01*
X163980255Y-114409925D01*
X163894745Y-114360556D01*
X163799370Y-114335000D01*
X163700630Y-114335000D01*
X163605255Y-114360556D01*
X163519745Y-114409925D01*
X163500000Y-114429670D01*
X163500000Y-113560000D01*
X163052155Y-113560000D01*
X162992627Y-113566401D01*
X162992620Y-113566403D01*
X162857913Y-113616645D01*
X162857906Y-113616649D01*
X162742812Y-113702809D01*
X162742809Y-113702812D01*
X162656649Y-113817906D01*
X162656645Y-113817913D01*
X162606403Y-113952620D01*
X162606401Y-113952627D01*
X162600000Y-114012155D01*
X162600000Y-114460000D01*
X163469670Y-114460000D01*
X163449925Y-114479745D01*
X163400556Y-114565255D01*
X163375000Y-114660630D01*
X163375000Y-114759370D01*
X163400556Y-114854745D01*
X163449925Y-114940255D01*
X163469670Y-114960000D01*
X162600000Y-114960000D01*
X162600000Y-115407844D01*
X162606401Y-115467372D01*
X162606403Y-115467379D01*
X162656645Y-115602086D01*
X162656649Y-115602093D01*
X162742809Y-115717187D01*
X162742812Y-115717190D01*
X162857906Y-115803350D01*
X162857913Y-115803354D01*
X162916026Y-115825029D01*
X162971960Y-115866900D01*
X162996377Y-115932365D01*
X162981525Y-116000638D01*
X162945579Y-116041528D01*
X162805069Y-116143616D01*
X162805060Y-116143623D01*
X162643622Y-116305061D01*
X162509421Y-116489771D01*
X162405770Y-116693196D01*
X162335215Y-116910339D01*
X162299500Y-117135837D01*
X155213888Y-117135837D01*
X155069576Y-116991525D01*
X155069569Y-116991519D01*
X154861647Y-116831975D01*
X154861645Y-116831973D01*
X154861639Y-116831969D01*
X154861634Y-116831966D01*
X154861631Y-116831964D01*
X154686353Y-116730767D01*
X154638137Y-116680200D01*
X154624915Y-116611593D01*
X154650883Y-116546728D01*
X154707797Y-116506200D01*
X154748353Y-116499380D01*
X154880258Y-116499380D01*
X154880265Y-116499380D01*
X155140116Y-116465170D01*
X155393278Y-116397335D01*
X155635420Y-116297037D01*
X155862398Y-116165991D01*
X156070330Y-116006439D01*
X156255658Y-115821111D01*
X156415210Y-115613179D01*
X156546256Y-115386201D01*
X156646554Y-115144059D01*
X156714389Y-114890897D01*
X156748599Y-114631046D01*
X156748599Y-114368954D01*
X156714389Y-114109103D01*
X156646554Y-113855941D01*
X156644992Y-113852171D01*
X156561481Y-113650556D01*
X156546256Y-113613799D01*
X156546254Y-113613796D01*
X156546252Y-113613791D01*
X156415214Y-113386828D01*
X156415210Y-113386821D01*
X156346665Y-113297491D01*
X156255659Y-113178890D01*
X156255653Y-113178883D01*
X156070335Y-112993565D01*
X156070328Y-112993559D01*
X155862406Y-112834015D01*
X155862404Y-112834013D01*
X155862398Y-112834009D01*
X155862393Y-112834006D01*
X155862390Y-112834004D01*
X155635427Y-112702966D01*
X155635416Y-112702961D01*
X155393282Y-112602666D01*
X155140112Y-112534829D01*
X154880274Y-112500621D01*
X154880271Y-112500620D01*
X154880265Y-112500620D01*
X154748353Y-112500620D01*
X154681314Y-112480935D01*
X154635559Y-112428131D01*
X154625615Y-112358973D01*
X154654640Y-112295417D01*
X154686353Y-112269233D01*
X154812698Y-112196287D01*
X154861639Y-112168031D01*
X155069571Y-112008479D01*
X155254899Y-111823151D01*
X155414451Y-111615219D01*
X155545497Y-111388241D01*
X155645795Y-111146099D01*
X155713630Y-110892937D01*
X155747840Y-110633086D01*
X155747840Y-110405837D01*
X162299500Y-110405837D01*
X162299500Y-110634162D01*
X162335215Y-110859660D01*
X162405770Y-111076803D01*
X162509421Y-111280228D01*
X162643621Y-111464937D01*
X162805063Y-111626379D01*
X162989772Y-111760579D01*
X163085884Y-111809550D01*
X163193196Y-111864229D01*
X163193198Y-111864229D01*
X163193201Y-111864231D01*
X163309592Y-111902049D01*
X163410339Y-111934784D01*
X163635838Y-111970500D01*
X163635843Y-111970500D01*
X163864162Y-111970500D01*
X164089660Y-111934784D01*
X164306799Y-111864231D01*
X164510228Y-111760579D01*
X164694937Y-111626379D01*
X164856379Y-111464937D01*
X164990579Y-111280228D01*
X165094231Y-111076799D01*
X165164784Y-110859660D01*
X165200500Y-110634162D01*
X165200500Y-110491150D01*
X165220185Y-110424111D01*
X165272989Y-110378356D01*
X165286183Y-110373219D01*
X165289407Y-110372171D01*
X165289409Y-110372171D01*
X165461639Y-110316211D01*
X165622994Y-110233996D01*
X165769501Y-110127553D01*
X165897553Y-109999501D01*
X166003996Y-109852994D01*
X166086211Y-109691639D01*
X166142171Y-109519409D01*
X166162849Y-109388852D01*
X166170500Y-109340551D01*
X166170500Y-109159448D01*
X166150248Y-109031588D01*
X166142171Y-108980591D01*
X166110471Y-108883026D01*
X166086212Y-108808363D01*
X166086211Y-108808360D01*
X166056474Y-108750000D01*
X166003996Y-108647006D01*
X165980130Y-108614157D01*
X165897558Y-108500505D01*
X165897554Y-108500500D01*
X165769499Y-108372445D01*
X165769494Y-108372441D01*
X165622997Y-108266006D01*
X165622996Y-108266005D01*
X165622994Y-108266004D01*
X165552333Y-108230000D01*
X165461639Y-108183788D01*
X165461636Y-108183787D01*
X165289410Y-108127829D01*
X165110551Y-108099500D01*
X165110546Y-108099500D01*
X164929454Y-108099500D01*
X164929449Y-108099500D01*
X164750589Y-108127829D01*
X164578363Y-108183787D01*
X164578360Y-108183788D01*
X164514192Y-108216485D01*
X164457897Y-108230000D01*
X164030330Y-108230000D01*
X164050075Y-108210255D01*
X164099444Y-108124745D01*
X164125000Y-108029370D01*
X164125000Y-107930630D01*
X164099444Y-107835255D01*
X164050075Y-107749745D01*
X164030330Y-107730000D01*
X164900000Y-107730000D01*
X164900000Y-107282172D01*
X164899999Y-107282155D01*
X164893598Y-107222627D01*
X164893596Y-107222620D01*
X164843354Y-107087913D01*
X164843350Y-107087906D01*
X164757190Y-106972812D01*
X164757187Y-106972809D01*
X164642093Y-106886649D01*
X164642086Y-106886645D01*
X164507379Y-106836403D01*
X164507372Y-106836401D01*
X164447844Y-106830000D01*
X164000000Y-106830000D01*
X164000000Y-107699670D01*
X163980255Y-107679925D01*
X163894745Y-107630556D01*
X163799370Y-107605000D01*
X163700630Y-107605000D01*
X163605255Y-107630556D01*
X163519745Y-107679925D01*
X163500000Y-107699670D01*
X163500000Y-106830000D01*
X163052155Y-106830000D01*
X162992627Y-106836401D01*
X162992620Y-106836403D01*
X162857913Y-106886645D01*
X162857906Y-106886649D01*
X162742812Y-106972809D01*
X162742809Y-106972812D01*
X162656649Y-107087906D01*
X162656645Y-107087913D01*
X162606403Y-107222620D01*
X162606401Y-107222627D01*
X162600000Y-107282155D01*
X162600000Y-107730000D01*
X163469670Y-107730000D01*
X163449925Y-107749745D01*
X163400556Y-107835255D01*
X163375000Y-107930630D01*
X163375000Y-108029370D01*
X163400556Y-108124745D01*
X163449925Y-108210255D01*
X163469670Y-108230000D01*
X162600000Y-108230000D01*
X162600000Y-108677844D01*
X162606401Y-108737372D01*
X162606403Y-108737379D01*
X162656645Y-108872086D01*
X162656649Y-108872093D01*
X162742809Y-108987187D01*
X162742812Y-108987190D01*
X162857906Y-109073350D01*
X162857913Y-109073354D01*
X162916026Y-109095029D01*
X162971960Y-109136900D01*
X162996377Y-109202365D01*
X162981525Y-109270638D01*
X162945579Y-109311528D01*
X162805069Y-109413616D01*
X162805060Y-109413623D01*
X162643622Y-109575061D01*
X162509421Y-109759771D01*
X162405770Y-109963196D01*
X162335215Y-110180339D01*
X162299500Y-110405837D01*
X155747840Y-110405837D01*
X155747840Y-110370994D01*
X155713630Y-110111143D01*
X155645795Y-109857981D01*
X155545497Y-109615839D01*
X155545495Y-109615836D01*
X155545493Y-109615831D01*
X155414455Y-109388868D01*
X155414451Y-109388861D01*
X155295438Y-109233760D01*
X155254900Y-109180930D01*
X155254894Y-109180923D01*
X155069576Y-108995605D01*
X155069569Y-108995599D01*
X154861647Y-108836055D01*
X154861645Y-108836053D01*
X154861639Y-108836049D01*
X154861634Y-108836046D01*
X154861631Y-108836044D01*
X154634668Y-108705006D01*
X154634657Y-108705001D01*
X154392523Y-108604706D01*
X154139353Y-108536869D01*
X153879515Y-108502661D01*
X153879512Y-108502660D01*
X153879506Y-108502660D01*
X153617414Y-108502660D01*
X153617408Y-108502660D01*
X153617404Y-108502661D01*
X153357566Y-108536869D01*
X153104396Y-108604706D01*
X152862262Y-108705001D01*
X152862251Y-108705006D01*
X152635288Y-108836044D01*
X152635272Y-108836055D01*
X152447206Y-108980363D01*
X152382037Y-109005557D01*
X152313592Y-108991518D01*
X152263603Y-108942704D01*
X152247720Y-108881987D01*
X152247720Y-108620940D01*
X152247720Y-108620934D01*
X152213510Y-108361083D01*
X152145675Y-108107921D01*
X152045377Y-107865779D01*
X152045375Y-107865776D01*
X152045373Y-107865771D01*
X151914335Y-107638808D01*
X151914331Y-107638801D01*
X151829628Y-107528414D01*
X151754780Y-107430870D01*
X151754774Y-107430863D01*
X151569456Y-107245545D01*
X151569449Y-107245539D01*
X151361527Y-107085995D01*
X151361525Y-107085993D01*
X151361519Y-107085989D01*
X151361514Y-107085986D01*
X151361511Y-107085984D01*
X151134548Y-106954946D01*
X151134537Y-106954941D01*
X150892403Y-106854646D01*
X150645025Y-106788361D01*
X150639237Y-106786810D01*
X150639236Y-106786809D01*
X150639233Y-106786809D01*
X150379395Y-106752601D01*
X150379392Y-106752600D01*
X150379386Y-106752600D01*
X150117294Y-106752600D01*
X150117288Y-106752600D01*
X150117284Y-106752601D01*
X149857446Y-106786809D01*
X149604276Y-106854646D01*
X149362142Y-106954941D01*
X149362131Y-106954946D01*
X149135168Y-107085984D01*
X149135152Y-107085995D01*
X148927230Y-107245539D01*
X148927223Y-107245545D01*
X148741905Y-107430863D01*
X148741899Y-107430870D01*
X148582355Y-107638792D01*
X148582344Y-107638808D01*
X148451306Y-107865771D01*
X148451301Y-107865782D01*
X148351006Y-108107916D01*
X148283169Y-108361086D01*
X148248961Y-108620924D01*
X148248960Y-108620940D01*
X148248960Y-108883019D01*
X148248961Y-108883035D01*
X148278211Y-109105216D01*
X148283170Y-109142877D01*
X148299110Y-109202365D01*
X148351006Y-109396043D01*
X148451301Y-109638177D01*
X148451306Y-109638188D01*
X148582344Y-109865151D01*
X148582355Y-109865167D01*
X148741899Y-110073089D01*
X148741905Y-110073096D01*
X148927223Y-110258414D01*
X148927230Y-110258420D01*
X149073926Y-110370984D01*
X149135161Y-110417971D01*
X149135168Y-110417975D01*
X149362131Y-110549013D01*
X149362136Y-110549015D01*
X149362139Y-110549017D01*
X149437190Y-110580104D01*
X149565100Y-110633086D01*
X149604281Y-110649315D01*
X149857443Y-110717150D01*
X150117294Y-110751360D01*
X150117301Y-110751360D01*
X150379379Y-110751360D01*
X150379386Y-110751360D01*
X150639237Y-110717150D01*
X150892399Y-110649315D01*
X151134541Y-110549017D01*
X151361519Y-110417971D01*
X151549594Y-110273656D01*
X151614763Y-110248462D01*
X151683208Y-110262500D01*
X151733197Y-110311314D01*
X151749080Y-110372032D01*
X151749080Y-110633079D01*
X151749081Y-110633095D01*
X151783289Y-110892933D01*
X151851126Y-111146103D01*
X151951421Y-111388237D01*
X151951426Y-111388248D01*
X152082464Y-111615211D01*
X152082475Y-111615227D01*
X152242019Y-111823149D01*
X152242025Y-111823156D01*
X152427343Y-112008474D01*
X152427350Y-112008480D01*
X152575419Y-112122097D01*
X152635281Y-112168031D01*
X152635288Y-112168035D01*
X152862251Y-112299073D01*
X152862256Y-112299075D01*
X152862259Y-112299077D01*
X153104401Y-112399375D01*
X153357563Y-112467210D01*
X153617414Y-112501420D01*
X153617421Y-112501420D01*
X153749326Y-112501420D01*
X153816365Y-112521105D01*
X153862120Y-112573909D01*
X153872064Y-112643067D01*
X153843039Y-112706623D01*
X153811326Y-112732807D01*
X153636047Y-112834004D01*
X153636031Y-112834015D01*
X153428109Y-112993559D01*
X153428102Y-112993565D01*
X153242784Y-113178883D01*
X153242778Y-113178890D01*
X153083234Y-113386812D01*
X153083223Y-113386828D01*
X152952185Y-113613791D01*
X152952180Y-113613802D01*
X152851885Y-113855936D01*
X152784048Y-114109106D01*
X152749840Y-114368944D01*
X152749839Y-114368960D01*
X152749839Y-114631039D01*
X152749840Y-114631055D01*
X152779695Y-114857829D01*
X152784049Y-114890897D01*
X152790182Y-114913787D01*
X152851885Y-115144063D01*
X152952180Y-115386197D01*
X152952185Y-115386208D01*
X153083223Y-115613171D01*
X153083234Y-115613187D01*
X153242778Y-115821109D01*
X153242784Y-115821116D01*
X153428102Y-116006434D01*
X153428109Y-116006440D01*
X153473837Y-116041528D01*
X153636040Y-116165991D01*
X153636047Y-116165995D01*
X153811326Y-116267193D01*
X153859542Y-116317760D01*
X153872764Y-116386367D01*
X153846796Y-116451232D01*
X153789882Y-116491760D01*
X153749326Y-116498580D01*
X153617414Y-116498580D01*
X153617408Y-116498580D01*
X153617404Y-116498581D01*
X153357566Y-116532789D01*
X153104396Y-116600626D01*
X152862262Y-116700921D01*
X152862251Y-116700926D01*
X152635288Y-116831964D01*
X152635272Y-116831975D01*
X152427350Y-116991519D01*
X152427343Y-116991525D01*
X152242025Y-117176843D01*
X152242019Y-117176850D01*
X152082475Y-117384772D01*
X152082464Y-117384788D01*
X151951426Y-117611751D01*
X151951421Y-117611762D01*
X151851126Y-117853896D01*
X151783289Y-118107066D01*
X151749081Y-118366904D01*
X151749080Y-118366920D01*
X151749080Y-118627967D01*
X151729395Y-118695006D01*
X151676591Y-118740761D01*
X151607433Y-118750705D01*
X151549594Y-118726343D01*
X151361527Y-118582035D01*
X151361525Y-118582033D01*
X151361519Y-118582029D01*
X151361514Y-118582026D01*
X151361511Y-118582024D01*
X151134548Y-118450986D01*
X151134537Y-118450981D01*
X150892403Y-118350686D01*
X150639233Y-118282849D01*
X150379395Y-118248641D01*
X150379392Y-118248640D01*
X150379386Y-118248640D01*
X150117294Y-118248640D01*
X150117288Y-118248640D01*
X150117284Y-118248641D01*
X149857446Y-118282849D01*
X149604276Y-118350686D01*
X149362142Y-118450981D01*
X149362131Y-118450986D01*
X149135168Y-118582024D01*
X149135152Y-118582035D01*
X148927230Y-118741579D01*
X148927223Y-118741585D01*
X148741905Y-118926903D01*
X148741899Y-118926910D01*
X148582355Y-119134832D01*
X148582344Y-119134848D01*
X148451306Y-119361811D01*
X148451301Y-119361822D01*
X148351006Y-119603956D01*
X148283169Y-119857126D01*
X148248961Y-120116964D01*
X148248960Y-120116980D01*
X148248960Y-120379059D01*
X148248961Y-120379075D01*
X148283169Y-120638913D01*
X148351006Y-120892083D01*
X148451301Y-121134217D01*
X148451306Y-121134228D01*
X148582344Y-121361191D01*
X148582355Y-121361207D01*
X148741899Y-121569129D01*
X148741905Y-121569136D01*
X148927223Y-121754454D01*
X148927230Y-121754460D01*
X148989410Y-121802172D01*
X149135161Y-121914011D01*
X149135168Y-121914015D01*
X149362131Y-122045053D01*
X149362136Y-122045055D01*
X149362139Y-122045057D01*
X149420471Y-122069218D01*
X149521192Y-122110939D01*
X149575595Y-122154780D01*
X149597660Y-122221074D01*
X149580381Y-122288773D01*
X149529244Y-122336384D01*
X149473739Y-122349500D01*
X146524601Y-122349500D01*
X146457562Y-122329815D01*
X146411807Y-122277011D01*
X146401863Y-122207853D01*
X146430888Y-122144297D01*
X146477148Y-122110939D01*
X146539088Y-122085282D01*
X146636201Y-122045057D01*
X146863179Y-121914011D01*
X147071111Y-121754459D01*
X147256439Y-121569131D01*
X147415991Y-121361199D01*
X147547037Y-121134221D01*
X147647335Y-120892079D01*
X147715170Y-120638917D01*
X147749380Y-120379066D01*
X147749380Y-120116974D01*
X147715170Y-119857123D01*
X147647335Y-119603961D01*
X147647330Y-119603950D01*
X147589266Y-119463769D01*
X147547037Y-119361819D01*
X147547035Y-119361816D01*
X147547033Y-119361811D01*
X147415995Y-119134848D01*
X147415991Y-119134841D01*
X147256439Y-118926909D01*
X147256434Y-118926903D01*
X147071116Y-118741585D01*
X147071109Y-118741579D01*
X146863187Y-118582035D01*
X146863185Y-118582033D01*
X146863179Y-118582029D01*
X146863174Y-118582026D01*
X146863171Y-118582024D01*
X146636208Y-118450986D01*
X146636197Y-118450981D01*
X146394063Y-118350686D01*
X146140893Y-118282849D01*
X145881055Y-118248641D01*
X145881052Y-118248640D01*
X145881046Y-118248640D01*
X145618954Y-118248640D01*
X145618948Y-118248640D01*
X145618944Y-118248641D01*
X145359106Y-118282849D01*
X145105936Y-118350686D01*
X144863802Y-118450981D01*
X144863791Y-118450986D01*
X144636828Y-118582024D01*
X144636812Y-118582035D01*
X144428890Y-118741579D01*
X144428883Y-118741585D01*
X144243565Y-118926903D01*
X144243559Y-118926910D01*
X144084015Y-119134832D01*
X144084004Y-119134848D01*
X143952966Y-119361811D01*
X143952961Y-119361822D01*
X143852666Y-119603956D01*
X143784829Y-119857126D01*
X143750621Y-120116964D01*
X143750620Y-120116980D01*
X143750620Y-120379059D01*
X143750621Y-120379075D01*
X143784829Y-120638913D01*
X143852666Y-120892083D01*
X143952961Y-121134217D01*
X143952966Y-121134228D01*
X144084004Y-121361191D01*
X144084015Y-121361207D01*
X144243559Y-121569129D01*
X144243565Y-121569136D01*
X144428883Y-121754454D01*
X144428890Y-121754460D01*
X144491070Y-121802172D01*
X144636821Y-121914011D01*
X144636828Y-121914015D01*
X144863791Y-122045053D01*
X144863796Y-122045055D01*
X144863799Y-122045057D01*
X144922131Y-122069218D01*
X145022852Y-122110939D01*
X145077255Y-122154780D01*
X145099320Y-122221074D01*
X145082041Y-122288773D01*
X145030904Y-122336384D01*
X144975399Y-122349500D01*
X142026261Y-122349500D01*
X141959222Y-122329815D01*
X141913467Y-122277011D01*
X141903523Y-122207853D01*
X141932548Y-122144297D01*
X141978808Y-122110939D01*
X142040748Y-122085282D01*
X142137861Y-122045057D01*
X142364839Y-121914011D01*
X142572771Y-121754459D01*
X142758099Y-121569131D01*
X142917651Y-121361199D01*
X143048697Y-121134221D01*
X143148995Y-120892079D01*
X143216830Y-120638917D01*
X143251040Y-120379066D01*
X143251040Y-120116974D01*
X143216830Y-119857123D01*
X143148995Y-119603961D01*
X143148990Y-119603950D01*
X143090926Y-119463769D01*
X143048697Y-119361819D01*
X143048695Y-119361816D01*
X143048693Y-119361811D01*
X142917655Y-119134848D01*
X142917651Y-119134841D01*
X142758099Y-118926909D01*
X142758094Y-118926903D01*
X142572776Y-118741585D01*
X142572769Y-118741579D01*
X142364847Y-118582035D01*
X142364845Y-118582033D01*
X142364839Y-118582029D01*
X142364834Y-118582026D01*
X142364831Y-118582024D01*
X142137868Y-118450986D01*
X142137857Y-118450981D01*
X141895723Y-118350686D01*
X141642553Y-118282849D01*
X141382715Y-118248641D01*
X141382712Y-118248640D01*
X141382706Y-118248640D01*
X141120614Y-118248640D01*
X141120608Y-118248640D01*
X141120604Y-118248641D01*
X140860766Y-118282849D01*
X140607596Y-118350686D01*
X140365462Y-118450981D01*
X140365451Y-118450986D01*
X140138488Y-118582024D01*
X140138472Y-118582035D01*
X139930550Y-118741579D01*
X139930543Y-118741585D01*
X139745225Y-118926903D01*
X139588010Y-119131790D01*
X139531582Y-119172992D01*
X139461836Y-119177147D01*
X139400915Y-119142935D01*
X139368163Y-119081217D01*
X139369859Y-119024210D01*
X139375761Y-119002184D01*
X139421843Y-118830204D01*
X139450920Y-118609343D01*
X139450920Y-118386577D01*
X139421843Y-118165716D01*
X139364187Y-117950540D01*
X139349330Y-117914673D01*
X139321562Y-117847635D01*
X139278938Y-117744731D01*
X139278936Y-117744728D01*
X139278934Y-117744723D01*
X139167558Y-117551816D01*
X139167554Y-117551809D01*
X139080185Y-117437947D01*
X139031944Y-117375078D01*
X139031938Y-117375071D01*
X138874428Y-117217561D01*
X138874421Y-117217555D01*
X138697699Y-117081952D01*
X138697697Y-117081950D01*
X138697691Y-117081946D01*
X138697686Y-117081943D01*
X138697683Y-117081941D01*
X138504776Y-116970565D01*
X138504765Y-116970560D01*
X138298962Y-116885313D01*
X138181195Y-116853758D01*
X138083784Y-116827657D01*
X138083778Y-116827656D01*
X138083773Y-116827655D01*
X137862932Y-116798581D01*
X137862929Y-116798580D01*
X137862923Y-116798580D01*
X137640157Y-116798580D01*
X137640151Y-116798580D01*
X137640147Y-116798581D01*
X137419306Y-116827655D01*
X137419299Y-116827656D01*
X137419296Y-116827657D01*
X137403181Y-116831975D01*
X137204117Y-116885313D01*
X136998314Y-116970560D01*
X136998303Y-116970565D01*
X136805396Y-117081941D01*
X136805380Y-117081952D01*
X136628658Y-117217555D01*
X136628651Y-117217561D01*
X136471141Y-117375071D01*
X136471135Y-117375078D01*
X136335532Y-117551800D01*
X136335521Y-117551816D01*
X136224145Y-117744723D01*
X136224140Y-117744734D01*
X136138893Y-117950537D01*
X136081238Y-118165713D01*
X136081235Y-118165726D01*
X136052161Y-118386567D01*
X136052160Y-118386583D01*
X136052160Y-118609336D01*
X136052161Y-118609352D01*
X136081235Y-118830193D01*
X136081236Y-118830198D01*
X136081237Y-118830204D01*
X136092947Y-118873907D01*
X136138893Y-119045382D01*
X136224140Y-119251185D01*
X136224145Y-119251196D01*
X136335521Y-119444103D01*
X136335532Y-119444119D01*
X136471135Y-119620841D01*
X136471141Y-119620848D01*
X136628651Y-119778358D01*
X136628658Y-119778364D01*
X136681706Y-119819069D01*
X136805389Y-119913974D01*
X136805396Y-119913978D01*
X136998303Y-120025354D01*
X136998308Y-120025356D01*
X136998311Y-120025358D01*
X137000438Y-120026239D01*
X137204117Y-120110606D01*
X137204118Y-120110606D01*
X137204120Y-120110607D01*
X137419296Y-120168263D01*
X137640157Y-120197340D01*
X137640164Y-120197340D01*
X137862916Y-120197340D01*
X137862923Y-120197340D01*
X138083784Y-120168263D01*
X138298960Y-120110607D01*
X138504769Y-120025358D01*
X138697691Y-119913974D01*
X138874423Y-119778363D01*
X139031943Y-119620843D01*
X139143918Y-119474912D01*
X139200343Y-119433712D01*
X139270089Y-119429557D01*
X139331010Y-119463769D01*
X139363763Y-119525486D01*
X139357950Y-119595113D01*
X139356858Y-119597841D01*
X139354328Y-119603950D01*
X139286489Y-119857126D01*
X139252281Y-120116964D01*
X139252280Y-120116980D01*
X139252280Y-120379059D01*
X139252281Y-120379075D01*
X139286489Y-120638913D01*
X139354326Y-120892083D01*
X139454621Y-121134217D01*
X139454626Y-121134228D01*
X139585664Y-121361191D01*
X139585675Y-121361207D01*
X139745219Y-121569129D01*
X139745225Y-121569136D01*
X139930543Y-121754454D01*
X139930550Y-121754460D01*
X139992730Y-121802172D01*
X140138481Y-121914011D01*
X140138488Y-121914015D01*
X140365451Y-122045053D01*
X140365456Y-122045055D01*
X140365459Y-122045057D01*
X140423791Y-122069218D01*
X140524512Y-122110939D01*
X140578915Y-122154780D01*
X140600980Y-122221074D01*
X140583701Y-122288773D01*
X140532564Y-122336384D01*
X140477059Y-122349500D01*
X136320808Y-122349500D01*
X136253769Y-122329815D01*
X136233127Y-122313181D01*
X131186819Y-117266873D01*
X131153334Y-117205550D01*
X131150500Y-117179192D01*
X131150500Y-114368960D01*
X134751401Y-114368960D01*
X134751401Y-114631039D01*
X134751402Y-114631055D01*
X134781257Y-114857829D01*
X134785611Y-114890897D01*
X134791744Y-114913787D01*
X134853447Y-115144063D01*
X134953742Y-115386197D01*
X134953747Y-115386208D01*
X135084785Y-115613171D01*
X135084796Y-115613187D01*
X135244340Y-115821109D01*
X135244346Y-115821116D01*
X135429664Y-116006434D01*
X135429671Y-116006440D01*
X135475399Y-116041528D01*
X135637602Y-116165991D01*
X135637609Y-116165995D01*
X135864572Y-116297033D01*
X135864577Y-116297035D01*
X135864580Y-116297037D01*
X136106722Y-116397335D01*
X136359884Y-116465170D01*
X136619735Y-116499380D01*
X136619742Y-116499380D01*
X136881820Y-116499380D01*
X136881827Y-116499380D01*
X137141678Y-116465170D01*
X137394840Y-116397335D01*
X137636982Y-116297037D01*
X137863960Y-116165991D01*
X138071892Y-116006439D01*
X138257220Y-115821111D01*
X138416772Y-115613179D01*
X138547818Y-115386201D01*
X138648116Y-115144059D01*
X138715951Y-114890897D01*
X138750161Y-114631046D01*
X138750161Y-114368954D01*
X138745234Y-114331526D01*
X142750140Y-114331526D01*
X142750140Y-114668473D01*
X142787863Y-115003274D01*
X142787865Y-115003290D01*
X142862839Y-115331775D01*
X142862843Y-115331787D01*
X142974121Y-115649799D01*
X142974127Y-115649813D01*
X143120313Y-115953372D01*
X143120315Y-115953375D01*
X143299576Y-116238668D01*
X143509653Y-116502096D01*
X143747904Y-116740347D01*
X144011332Y-116950424D01*
X144296625Y-117129685D01*
X144600194Y-117275876D01*
X144706204Y-117312970D01*
X144918212Y-117387156D01*
X144918224Y-117387160D01*
X145246713Y-117462135D01*
X145581527Y-117499859D01*
X145581528Y-117499860D01*
X145581531Y-117499860D01*
X145918472Y-117499860D01*
X145918472Y-117499859D01*
X146253287Y-117462135D01*
X146581776Y-117387160D01*
X146899806Y-117275876D01*
X147203375Y-117129685D01*
X147488668Y-116950424D01*
X147752096Y-116740347D01*
X147990347Y-116502096D01*
X148200424Y-116238668D01*
X148379685Y-115953375D01*
X148525876Y-115649806D01*
X148637160Y-115331776D01*
X148712135Y-115003287D01*
X148749860Y-114668469D01*
X148749860Y-114331531D01*
X148712135Y-113996713D01*
X148637160Y-113668224D01*
X148601530Y-113566401D01*
X148525878Y-113350200D01*
X148525876Y-113350194D01*
X148379685Y-113046625D01*
X148200424Y-112761332D01*
X147990347Y-112497904D01*
X147752096Y-112259653D01*
X147488668Y-112049576D01*
X147203375Y-111870315D01*
X147203372Y-111870313D01*
X146899813Y-111724127D01*
X146899799Y-111724121D01*
X146581787Y-111612843D01*
X146581775Y-111612839D01*
X146253290Y-111537865D01*
X146253274Y-111537863D01*
X145918473Y-111500140D01*
X145918469Y-111500140D01*
X145581531Y-111500140D01*
X145581526Y-111500140D01*
X145246725Y-111537863D01*
X145246709Y-111537865D01*
X144918224Y-111612839D01*
X144918212Y-111612843D01*
X144600200Y-111724121D01*
X144600186Y-111724127D01*
X144296627Y-111870313D01*
X144011333Y-112049575D01*
X143747904Y-112259652D01*
X143509652Y-112497904D01*
X143299575Y-112761333D01*
X143120313Y-113046627D01*
X142974127Y-113350186D01*
X142974121Y-113350200D01*
X142862843Y-113668212D01*
X142862839Y-113668224D01*
X142787865Y-113996709D01*
X142787863Y-113996725D01*
X142750140Y-114331526D01*
X138745234Y-114331526D01*
X138715951Y-114109103D01*
X138648116Y-113855941D01*
X138547818Y-113613799D01*
X138547816Y-113613796D01*
X138547814Y-113613791D01*
X138416776Y-113386828D01*
X138416772Y-113386821D01*
X138348227Y-113297491D01*
X138257221Y-113178890D01*
X138257215Y-113178883D01*
X138071897Y-112993565D01*
X138071890Y-112993559D01*
X137863968Y-112834015D01*
X137863966Y-112834013D01*
X137863960Y-112834009D01*
X137863955Y-112834006D01*
X137863952Y-112834004D01*
X137688674Y-112732807D01*
X137640458Y-112682240D01*
X137627236Y-112613633D01*
X137653204Y-112548768D01*
X137710118Y-112508240D01*
X137750674Y-112501420D01*
X137882579Y-112501420D01*
X137882586Y-112501420D01*
X138142437Y-112467210D01*
X138395599Y-112399375D01*
X138637741Y-112299077D01*
X138864719Y-112168031D01*
X139072651Y-112008479D01*
X139257979Y-111823151D01*
X139417531Y-111615219D01*
X139548577Y-111388241D01*
X139648875Y-111146099D01*
X139716710Y-110892937D01*
X139750920Y-110633086D01*
X139750920Y-110372032D01*
X139770605Y-110304993D01*
X139823409Y-110259238D01*
X139892567Y-110249294D01*
X139950406Y-110273656D01*
X140072056Y-110367001D01*
X140138481Y-110417971D01*
X140138488Y-110417975D01*
X140365451Y-110549013D01*
X140365456Y-110549015D01*
X140365459Y-110549017D01*
X140440510Y-110580104D01*
X140568420Y-110633086D01*
X140607601Y-110649315D01*
X140860763Y-110717150D01*
X141120614Y-110751360D01*
X141120621Y-110751360D01*
X141382699Y-110751360D01*
X141382706Y-110751360D01*
X141642557Y-110717150D01*
X141895719Y-110649315D01*
X142137861Y-110549017D01*
X142364839Y-110417971D01*
X142572771Y-110258419D01*
X142758099Y-110073091D01*
X142917651Y-109865159D01*
X143041874Y-109649999D01*
X143048693Y-109638188D01*
X143048693Y-109638187D01*
X143048697Y-109638181D01*
X143148995Y-109396039D01*
X143216830Y-109142877D01*
X143251040Y-108883026D01*
X143251040Y-108620940D01*
X143750620Y-108620940D01*
X143750620Y-108883019D01*
X143750621Y-108883035D01*
X143779871Y-109105216D01*
X143784830Y-109142877D01*
X143800770Y-109202365D01*
X143852666Y-109396043D01*
X143952961Y-109638177D01*
X143952966Y-109638188D01*
X144084004Y-109865151D01*
X144084015Y-109865167D01*
X144243559Y-110073089D01*
X144243565Y-110073096D01*
X144428883Y-110258414D01*
X144428890Y-110258420D01*
X144575586Y-110370984D01*
X144636821Y-110417971D01*
X144636828Y-110417975D01*
X144863791Y-110549013D01*
X144863796Y-110549015D01*
X144863799Y-110549017D01*
X144938850Y-110580104D01*
X145066760Y-110633086D01*
X145105941Y-110649315D01*
X145359103Y-110717150D01*
X145618954Y-110751360D01*
X145618961Y-110751360D01*
X145881039Y-110751360D01*
X145881046Y-110751360D01*
X146140897Y-110717150D01*
X146394059Y-110649315D01*
X146636201Y-110549017D01*
X146863179Y-110417971D01*
X147071111Y-110258419D01*
X147256439Y-110073091D01*
X147415991Y-109865159D01*
X147540214Y-109649999D01*
X147547033Y-109638188D01*
X147547033Y-109638187D01*
X147547037Y-109638181D01*
X147647335Y-109396039D01*
X147715170Y-109142877D01*
X147749380Y-108883026D01*
X147749380Y-108620934D01*
X147715170Y-108361083D01*
X147647335Y-108107921D01*
X147547037Y-107865779D01*
X147547035Y-107865776D01*
X147547033Y-107865771D01*
X147415995Y-107638808D01*
X147415991Y-107638801D01*
X147331288Y-107528414D01*
X147256440Y-107430870D01*
X147256434Y-107430863D01*
X147071116Y-107245545D01*
X147071109Y-107245539D01*
X146863187Y-107085995D01*
X146863185Y-107085993D01*
X146863179Y-107085989D01*
X146863174Y-107085986D01*
X146863171Y-107085984D01*
X146636208Y-106954946D01*
X146636197Y-106954941D01*
X146394063Y-106854646D01*
X146146685Y-106788361D01*
X146140897Y-106786810D01*
X146140896Y-106786809D01*
X146140893Y-106786809D01*
X145881055Y-106752601D01*
X145881052Y-106752600D01*
X145881046Y-106752600D01*
X145618954Y-106752600D01*
X145618948Y-106752600D01*
X145618944Y-106752601D01*
X145359106Y-106786809D01*
X145105936Y-106854646D01*
X144863802Y-106954941D01*
X144863791Y-106954946D01*
X144636828Y-107085984D01*
X144636812Y-107085995D01*
X144428890Y-107245539D01*
X144428883Y-107245545D01*
X144243565Y-107430863D01*
X144243559Y-107430870D01*
X144084015Y-107638792D01*
X144084004Y-107638808D01*
X143952966Y-107865771D01*
X143952961Y-107865782D01*
X143852666Y-108107916D01*
X143784829Y-108361086D01*
X143750621Y-108620924D01*
X143750620Y-108620940D01*
X143251040Y-108620940D01*
X143251040Y-108620934D01*
X143216830Y-108361083D01*
X143148995Y-108107921D01*
X143048697Y-107865779D01*
X143048695Y-107865776D01*
X143048693Y-107865771D01*
X142917655Y-107638808D01*
X142917651Y-107638801D01*
X142832948Y-107528414D01*
X142758100Y-107430870D01*
X142758094Y-107430863D01*
X142572776Y-107245545D01*
X142572769Y-107245539D01*
X142364847Y-107085995D01*
X142364845Y-107085993D01*
X142364839Y-107085989D01*
X142364834Y-107085986D01*
X142364831Y-107085984D01*
X142137868Y-106954946D01*
X142137857Y-106954941D01*
X141895723Y-106854646D01*
X141648345Y-106788361D01*
X141642557Y-106786810D01*
X141642556Y-106786809D01*
X141642553Y-106786809D01*
X141382715Y-106752601D01*
X141382712Y-106752600D01*
X141382706Y-106752600D01*
X141120614Y-106752600D01*
X141120608Y-106752600D01*
X141120604Y-106752601D01*
X140860766Y-106786809D01*
X140607596Y-106854646D01*
X140365462Y-106954941D01*
X140365451Y-106954946D01*
X140138488Y-107085984D01*
X140138472Y-107085995D01*
X139930550Y-107245539D01*
X139930543Y-107245545D01*
X139745225Y-107430863D01*
X139745219Y-107430870D01*
X139585675Y-107638792D01*
X139585664Y-107638808D01*
X139454626Y-107865771D01*
X139454621Y-107865782D01*
X139354326Y-108107916D01*
X139286489Y-108361086D01*
X139252281Y-108620924D01*
X139252280Y-108620940D01*
X139252280Y-108881987D01*
X139232595Y-108949026D01*
X139179791Y-108994781D01*
X139110633Y-109004725D01*
X139052794Y-108980363D01*
X138864727Y-108836055D01*
X138864725Y-108836053D01*
X138864719Y-108836049D01*
X138864714Y-108836046D01*
X138864711Y-108836044D01*
X138637748Y-108705006D01*
X138637737Y-108705001D01*
X138395603Y-108604706D01*
X138142433Y-108536869D01*
X137882595Y-108502661D01*
X137882592Y-108502660D01*
X137882586Y-108502660D01*
X137620494Y-108502660D01*
X137620488Y-108502660D01*
X137620484Y-108502661D01*
X137360646Y-108536869D01*
X137107476Y-108604706D01*
X136865342Y-108705001D01*
X136865331Y-108705006D01*
X136638368Y-108836044D01*
X136638352Y-108836055D01*
X136430430Y-108995599D01*
X136430423Y-108995605D01*
X136245105Y-109180923D01*
X136245099Y-109180930D01*
X136085555Y-109388852D01*
X136085544Y-109388868D01*
X135954506Y-109615831D01*
X135954501Y-109615842D01*
X135854206Y-109857976D01*
X135786369Y-110111146D01*
X135752161Y-110370984D01*
X135752160Y-110371000D01*
X135752160Y-110633079D01*
X135752161Y-110633095D01*
X135786369Y-110892933D01*
X135854206Y-111146103D01*
X135954501Y-111388237D01*
X135954506Y-111388248D01*
X136085544Y-111615211D01*
X136085555Y-111615227D01*
X136245099Y-111823149D01*
X136245105Y-111823156D01*
X136430423Y-112008474D01*
X136430430Y-112008480D01*
X136578499Y-112122097D01*
X136638361Y-112168031D01*
X136638368Y-112168035D01*
X136813647Y-112269233D01*
X136861863Y-112319800D01*
X136875085Y-112388407D01*
X136849117Y-112453272D01*
X136792203Y-112493800D01*
X136751647Y-112500620D01*
X136619735Y-112500620D01*
X136619729Y-112500620D01*
X136619725Y-112500621D01*
X136359887Y-112534829D01*
X136106717Y-112602666D01*
X135864583Y-112702961D01*
X135864572Y-112702966D01*
X135637609Y-112834004D01*
X135637593Y-112834015D01*
X135429671Y-112993559D01*
X135429664Y-112993565D01*
X135244346Y-113178883D01*
X135244340Y-113178890D01*
X135084796Y-113386812D01*
X135084785Y-113386828D01*
X134953747Y-113613791D01*
X134953742Y-113613802D01*
X134853447Y-113855936D01*
X134785610Y-114109106D01*
X134751402Y-114368944D01*
X134751401Y-114368960D01*
X131150500Y-114368960D01*
X131150500Y-113935928D01*
X131125502Y-113810261D01*
X131125501Y-113810260D01*
X131125501Y-113810256D01*
X131076465Y-113691873D01*
X131076464Y-113691872D01*
X131076461Y-113691866D01*
X131005277Y-113585332D01*
X130979945Y-113560000D01*
X130914669Y-113494724D01*
X130419354Y-112999409D01*
X128914674Y-111494727D01*
X128914673Y-111494726D01*
X128914669Y-111494723D01*
X128808127Y-111423535D01*
X128689744Y-111374499D01*
X128689738Y-111374497D01*
X128564071Y-111349500D01*
X128564069Y-111349500D01*
X125935931Y-111349500D01*
X125935929Y-111349500D01*
X125810261Y-111374497D01*
X125810255Y-111374499D01*
X125691874Y-111423534D01*
X125585331Y-111494723D01*
X125526084Y-111553969D01*
X125464760Y-111587453D01*
X125419007Y-111588759D01*
X125360546Y-111579500D01*
X125179454Y-111579500D01*
X125179449Y-111579500D01*
X125000589Y-111607829D01*
X124828363Y-111663787D01*
X124828360Y-111663788D01*
X124667002Y-111746006D01*
X124520505Y-111852441D01*
X124520500Y-111852445D01*
X124392445Y-111980500D01*
X124392441Y-111980505D01*
X124286006Y-112127002D01*
X124203788Y-112288360D01*
X124203787Y-112288363D01*
X124147829Y-112460589D01*
X124119500Y-112639448D01*
X124119500Y-112820551D01*
X124147829Y-112999410D01*
X124203787Y-113171636D01*
X124203790Y-113171643D01*
X124236484Y-113235806D01*
X124250000Y-113292102D01*
X124250000Y-113719670D01*
X124230255Y-113699925D01*
X124144745Y-113650556D01*
X124049370Y-113625000D01*
X123950630Y-113625000D01*
X123855255Y-113650556D01*
X123769745Y-113699925D01*
X123750000Y-113719670D01*
X123750000Y-112850000D01*
X123302155Y-112850000D01*
X123242627Y-112856401D01*
X123242620Y-112856403D01*
X123107913Y-112906645D01*
X123107906Y-112906649D01*
X122992812Y-112992809D01*
X122992809Y-112992812D01*
X122906649Y-113107906D01*
X122906645Y-113107913D01*
X122856403Y-113242620D01*
X122856401Y-113242627D01*
X122850000Y-113302155D01*
X120750500Y-113302155D01*
X120750500Y-107802155D01*
X122850000Y-107802155D01*
X122850000Y-108250000D01*
X123719670Y-108250000D01*
X123699925Y-108269745D01*
X123650556Y-108355255D01*
X123625000Y-108450630D01*
X123625000Y-108549370D01*
X123650556Y-108644745D01*
X123699925Y-108730255D01*
X123719670Y-108750000D01*
X122850000Y-108750000D01*
X122850000Y-109197844D01*
X122856401Y-109257372D01*
X122856403Y-109257379D01*
X122906645Y-109392086D01*
X122906649Y-109392093D01*
X122992809Y-109507187D01*
X122992812Y-109507190D01*
X123107906Y-109593350D01*
X123107913Y-109593354D01*
X123242620Y-109643596D01*
X123242627Y-109643598D01*
X123302155Y-109649999D01*
X123302172Y-109650000D01*
X123750000Y-109650000D01*
X123750000Y-108780330D01*
X123769745Y-108800075D01*
X123855255Y-108849444D01*
X123950630Y-108875000D01*
X124049370Y-108875000D01*
X124144745Y-108849444D01*
X124230255Y-108800075D01*
X124250000Y-108780330D01*
X124250000Y-109650000D01*
X124697828Y-109650000D01*
X124697844Y-109649999D01*
X124757372Y-109643598D01*
X124757379Y-109643596D01*
X124892086Y-109593354D01*
X124892093Y-109593350D01*
X125007187Y-109507190D01*
X125007190Y-109507187D01*
X125093350Y-109392093D01*
X125093354Y-109392086D01*
X125115029Y-109333973D01*
X125156900Y-109278039D01*
X125222364Y-109253622D01*
X125290637Y-109268473D01*
X125331527Y-109304419D01*
X125433621Y-109444937D01*
X125595063Y-109606379D01*
X125779772Y-109740579D01*
X125875884Y-109789550D01*
X125983196Y-109844229D01*
X125983198Y-109844229D01*
X125983201Y-109844231D01*
X126050947Y-109866243D01*
X126200339Y-109914784D01*
X126425838Y-109950500D01*
X126425843Y-109950500D01*
X126654162Y-109950500D01*
X126879660Y-109914784D01*
X127096799Y-109844231D01*
X127300228Y-109740579D01*
X127484937Y-109606379D01*
X127646379Y-109444937D01*
X127780579Y-109260228D01*
X127884231Y-109056799D01*
X127954784Y-108839660D01*
X127959741Y-108808361D01*
X127990500Y-108614162D01*
X127990500Y-108385837D01*
X127954784Y-108160339D01*
X127912229Y-108029370D01*
X127884231Y-107943201D01*
X127884229Y-107943198D01*
X127884229Y-107943196D01*
X127828078Y-107832994D01*
X127780579Y-107739772D01*
X127646379Y-107555063D01*
X127484937Y-107393621D01*
X127300228Y-107259421D01*
X127228016Y-107222627D01*
X127096803Y-107155770D01*
X127077201Y-107149401D01*
X127055747Y-107142430D01*
X126998073Y-107102993D01*
X126970875Y-107038634D01*
X126982790Y-106969788D01*
X127030034Y-106918312D01*
X127094067Y-106900500D01*
X136064071Y-106900500D01*
X136148615Y-106883682D01*
X136189744Y-106875501D01*
X136308127Y-106826465D01*
X136324844Y-106815295D01*
X136414669Y-106755277D01*
X138393127Y-104776819D01*
X138454450Y-104743334D01*
X138480808Y-104740500D01*
X155374071Y-104740500D01*
X155458615Y-104723682D01*
X155499744Y-104715501D01*
X155618127Y-104666465D01*
X155654486Y-104642171D01*
X155724669Y-104595277D01*
X160283127Y-100036819D01*
X160344450Y-100003334D01*
X160370808Y-100000500D01*
X160498543Y-100000500D01*
X160628582Y-99974632D01*
X160691835Y-99962051D01*
X160840873Y-99900318D01*
X160873907Y-99886635D01*
X160873907Y-99886634D01*
X160873914Y-99886632D01*
X161037782Y-99777139D01*
X161177139Y-99637782D01*
X161286632Y-99473914D01*
X161362051Y-99291835D01*
X161389974Y-99151459D01*
X161400500Y-99098543D01*
X161400500Y-98901460D01*
X161400499Y-98901456D01*
X161398056Y-98889173D01*
X161404282Y-98819585D01*
X161447143Y-98764406D01*
X161513032Y-98741159D01*
X161581029Y-98757225D01*
X161607354Y-98777300D01*
X163762346Y-100932292D01*
X163795831Y-100993615D01*
X163790847Y-101063307D01*
X163770001Y-101095744D01*
X163770001Y-101969670D01*
X163750256Y-101949925D01*
X163664746Y-101900556D01*
X163569371Y-101875000D01*
X163470631Y-101875000D01*
X163375256Y-101900556D01*
X163289746Y-101949925D01*
X163270001Y-101969670D01*
X163270001Y-101100000D01*
X162822156Y-101100000D01*
X162762628Y-101106401D01*
X162762621Y-101106403D01*
X162627914Y-101156645D01*
X162627907Y-101156649D01*
X162512813Y-101242809D01*
X162512810Y-101242812D01*
X162426650Y-101357906D01*
X162426645Y-101357915D01*
X162404970Y-101416028D01*
X162363098Y-101471961D01*
X162297634Y-101496377D01*
X162229361Y-101481525D01*
X162188472Y-101445580D01*
X162086380Y-101305063D01*
X161924938Y-101143621D01*
X161740229Y-101009421D01*
X161709208Y-100993615D01*
X161536804Y-100905770D01*
X161319661Y-100835215D01*
X161094163Y-100799500D01*
X161094158Y-100799500D01*
X160865844Y-100799500D01*
X160865839Y-100799500D01*
X160640340Y-100835215D01*
X160423197Y-100905770D01*
X160219772Y-101009421D01*
X160035062Y-101143622D01*
X159873623Y-101305061D01*
X159739422Y-101489771D01*
X159635771Y-101693196D01*
X159565216Y-101910339D01*
X159529501Y-102135837D01*
X159529501Y-102364162D01*
X159565216Y-102589660D01*
X159635771Y-102806803D01*
X159714875Y-102962052D01*
X159739422Y-103010228D01*
X159873622Y-103194937D01*
X160035064Y-103356379D01*
X160219773Y-103490579D01*
X160293293Y-103528039D01*
X160423197Y-103594229D01*
X160423199Y-103594229D01*
X160423202Y-103594231D01*
X160473430Y-103610551D01*
X160640340Y-103664784D01*
X160865839Y-103700500D01*
X161008850Y-103700500D01*
X161075889Y-103720185D01*
X161121644Y-103772989D01*
X161126781Y-103786182D01*
X161183788Y-103961636D01*
X161183789Y-103961639D01*
X161239665Y-104071300D01*
X161251349Y-104094231D01*
X161266007Y-104122997D01*
X161372442Y-104269494D01*
X161372446Y-104269499D01*
X161500501Y-104397554D01*
X161500506Y-104397558D01*
X161628288Y-104490396D01*
X161647007Y-104503996D01*
X161752485Y-104557740D01*
X161808361Y-104586211D01*
X161808364Y-104586212D01*
X161894477Y-104614191D01*
X161980592Y-104642171D01*
X162063430Y-104655291D01*
X162159450Y-104670500D01*
X162159455Y-104670500D01*
X162340552Y-104670500D01*
X162427260Y-104656765D01*
X162519410Y-104642171D01*
X162691640Y-104586211D01*
X162852995Y-104503996D01*
X162999502Y-104397553D01*
X163127554Y-104269501D01*
X163233997Y-104122994D01*
X163316212Y-103961639D01*
X163372172Y-103789409D01*
X163391911Y-103664784D01*
X163400501Y-103610551D01*
X163400501Y-103429448D01*
X163381658Y-103310483D01*
X163372172Y-103250591D01*
X163344192Y-103164476D01*
X163316213Y-103078363D01*
X163316211Y-103078360D01*
X163283516Y-103014191D01*
X163270001Y-102957896D01*
X163270001Y-102530330D01*
X163289746Y-102550075D01*
X163375256Y-102599444D01*
X163470631Y-102625000D01*
X163569371Y-102625000D01*
X163664746Y-102599444D01*
X163750256Y-102550075D01*
X163770001Y-102530330D01*
X163770001Y-103400000D01*
X164217829Y-103400000D01*
X164217845Y-103399999D01*
X164277373Y-103393598D01*
X164277380Y-103393596D01*
X164412087Y-103343354D01*
X164412094Y-103343350D01*
X164527188Y-103257190D01*
X164527191Y-103257187D01*
X164613351Y-103142093D01*
X164613355Y-103142086D01*
X164663597Y-103007379D01*
X164663599Y-103007372D01*
X164670000Y-102947844D01*
X164670001Y-102947827D01*
X164670001Y-102500000D01*
X163800331Y-102500000D01*
X163820076Y-102480255D01*
X163869445Y-102394745D01*
X163895001Y-102299370D01*
X163895001Y-102200630D01*
X163869445Y-102105255D01*
X163820076Y-102019745D01*
X163800331Y-102000000D01*
X164676363Y-102000000D01*
X164723667Y-101974169D01*
X164793359Y-101979152D01*
X164837708Y-102007654D01*
X169267309Y-106437255D01*
X169300794Y-106498578D01*
X169295810Y-106568270D01*
X169294189Y-106572388D01*
X169237950Y-106708160D01*
X169237947Y-106708170D01*
X169199500Y-106901456D01*
X169199500Y-106901459D01*
X169199500Y-107098541D01*
X169199500Y-107098543D01*
X169199499Y-107098543D01*
X169237947Y-107291829D01*
X169237950Y-107291839D01*
X169313364Y-107473907D01*
X169313371Y-107473920D01*
X169422860Y-107637781D01*
X169422863Y-107637785D01*
X169562214Y-107777136D01*
X169562218Y-107777139D01*
X169726079Y-107886628D01*
X169726092Y-107886635D01*
X169908160Y-107962049D01*
X169908165Y-107962051D01*
X169908169Y-107962051D01*
X169908170Y-107962052D01*
X170101456Y-108000500D01*
X170101459Y-108000500D01*
X170298543Y-108000500D01*
X170428582Y-107974632D01*
X170491835Y-107962051D01*
X170673914Y-107886632D01*
X170837782Y-107777139D01*
X170977139Y-107637782D01*
X171086632Y-107473914D01*
X171162051Y-107291835D01*
X171174632Y-107228582D01*
X171200500Y-107098543D01*
X171200500Y-106901456D01*
X171162052Y-106708170D01*
X171162051Y-106708169D01*
X171162051Y-106708165D01*
X171128434Y-106627006D01*
X171086635Y-106526092D01*
X171086628Y-106526079D01*
X170977139Y-106362218D01*
X170977136Y-106362214D01*
X170837785Y-106222863D01*
X170837779Y-106222858D01*
X170830658Y-106218100D01*
X170822403Y-106209374D01*
X170814875Y-106205587D01*
X170804071Y-106189994D01*
X170792784Y-106178062D01*
X170788335Y-106170530D01*
X170776465Y-106141873D01*
X170734789Y-106079500D01*
X170705276Y-106035330D01*
X170705274Y-106035327D01*
X159164673Y-94494726D01*
X159164669Y-94494723D01*
X159058127Y-94423535D01*
X158939744Y-94374499D01*
X158939738Y-94374497D01*
X158814071Y-94349500D01*
X158814069Y-94349500D01*
X143435931Y-94349500D01*
X143435929Y-94349500D01*
X143310261Y-94374497D01*
X143310255Y-94374499D01*
X143191870Y-94423535D01*
X143085331Y-94494722D01*
X143085324Y-94494728D01*
X142008820Y-95571232D01*
X141947497Y-95604717D01*
X141901741Y-95606024D01*
X141860550Y-95599500D01*
X141860546Y-95599500D01*
X141679454Y-95599500D01*
X141679449Y-95599500D01*
X141500589Y-95627829D01*
X141328363Y-95683787D01*
X141328360Y-95683788D01*
X141264192Y-95716485D01*
X141207897Y-95730000D01*
X140780330Y-95730000D01*
X140800075Y-95710255D01*
X140849444Y-95624745D01*
X140875000Y-95529370D01*
X140875000Y-95430630D01*
X140849444Y-95335255D01*
X140800075Y-95249745D01*
X140780330Y-95230000D01*
X141650000Y-95230000D01*
X141650000Y-94782172D01*
X141649999Y-94782155D01*
X141643598Y-94722627D01*
X141643596Y-94722620D01*
X141593354Y-94587913D01*
X141593350Y-94587906D01*
X141507190Y-94472812D01*
X141507187Y-94472809D01*
X141392093Y-94386649D01*
X141392086Y-94386645D01*
X141257379Y-94336403D01*
X141257372Y-94336401D01*
X141197844Y-94330000D01*
X140750000Y-94330000D01*
X140750000Y-95199670D01*
X140730255Y-95179925D01*
X140644745Y-95130556D01*
X140549370Y-95105000D01*
X140450630Y-95105000D01*
X140355255Y-95130556D01*
X140269745Y-95179925D01*
X140250000Y-95199670D01*
X140250000Y-94330000D01*
X139802155Y-94330000D01*
X139742627Y-94336401D01*
X139742620Y-94336403D01*
X139607913Y-94386645D01*
X139607906Y-94386649D01*
X139492812Y-94472809D01*
X139492809Y-94472812D01*
X139406649Y-94587906D01*
X139406645Y-94587913D01*
X139356403Y-94722620D01*
X139356401Y-94722627D01*
X139350000Y-94782155D01*
X139350000Y-95230000D01*
X140219670Y-95230000D01*
X140199925Y-95249745D01*
X140150556Y-95335255D01*
X140125000Y-95430630D01*
X140125000Y-95529370D01*
X140150556Y-95624745D01*
X140199925Y-95710255D01*
X140219670Y-95730000D01*
X139350000Y-95730000D01*
X139350000Y-96177844D01*
X139356401Y-96237372D01*
X139356403Y-96237379D01*
X139406645Y-96372086D01*
X139406649Y-96372093D01*
X139492809Y-96487187D01*
X139492812Y-96487190D01*
X139607906Y-96573350D01*
X139607913Y-96573354D01*
X139666026Y-96595029D01*
X139721960Y-96636900D01*
X139746377Y-96702365D01*
X139731525Y-96770638D01*
X139695579Y-96811528D01*
X139555069Y-96913616D01*
X139555060Y-96913623D01*
X139393622Y-97075061D01*
X139259421Y-97259771D01*
X139155770Y-97463196D01*
X139085215Y-97680339D01*
X139049500Y-97905837D01*
X139049500Y-98134162D01*
X139085215Y-98359660D01*
X139155770Y-98576803D01*
X139251359Y-98764406D01*
X139259421Y-98780228D01*
X139393621Y-98964937D01*
X139555063Y-99126379D01*
X139739772Y-99260579D01*
X139835884Y-99309550D01*
X139943196Y-99364229D01*
X139943198Y-99364229D01*
X139943201Y-99364231D01*
X140059592Y-99402049D01*
X140160339Y-99434784D01*
X140385838Y-99470500D01*
X140385843Y-99470500D01*
X140614162Y-99470500D01*
X140839660Y-99434784D01*
X140901213Y-99414784D01*
X141056799Y-99364231D01*
X141260228Y-99260579D01*
X141444937Y-99126379D01*
X141606379Y-98964937D01*
X141740579Y-98780228D01*
X141844231Y-98576799D01*
X141914784Y-98359660D01*
X141932232Y-98249500D01*
X141950500Y-98134162D01*
X141950500Y-97991150D01*
X141970185Y-97924111D01*
X141993458Y-97903945D01*
X146779500Y-97903945D01*
X146779500Y-98096055D01*
X146782242Y-98113368D01*
X146809553Y-98285802D01*
X146868916Y-98468506D01*
X146913904Y-98556799D01*
X146956135Y-98639681D01*
X147069055Y-98795102D01*
X147204898Y-98930945D01*
X147360319Y-99043865D01*
X147522257Y-99126377D01*
X147531493Y-99131083D01*
X147594196Y-99151456D01*
X147714199Y-99190447D01*
X147903945Y-99220500D01*
X147903946Y-99220500D01*
X148096054Y-99220500D01*
X148096055Y-99220500D01*
X148285801Y-99190447D01*
X148468509Y-99131082D01*
X148639681Y-99043865D01*
X148795102Y-98930945D01*
X148930945Y-98795102D01*
X149043865Y-98639681D01*
X149131082Y-98468509D01*
X149190447Y-98285801D01*
X149220500Y-98096055D01*
X149220500Y-97903945D01*
X151859499Y-97903945D01*
X151859499Y-98096055D01*
X151862241Y-98113368D01*
X151889552Y-98285802D01*
X151948915Y-98468506D01*
X151993903Y-98556799D01*
X152036134Y-98639681D01*
X152149054Y-98795102D01*
X152284897Y-98930945D01*
X152440318Y-99043865D01*
X152602256Y-99126377D01*
X152611492Y-99131083D01*
X152674195Y-99151456D01*
X152794198Y-99190447D01*
X152983944Y-99220500D01*
X152983945Y-99220500D01*
X153176053Y-99220500D01*
X153176054Y-99220500D01*
X153365800Y-99190447D01*
X153548508Y-99131082D01*
X153719680Y-99043865D01*
X153875101Y-98930945D01*
X154010944Y-98795102D01*
X154123864Y-98639681D01*
X154211081Y-98468509D01*
X154270446Y-98285801D01*
X154300499Y-98096055D01*
X154300499Y-97903945D01*
X154270446Y-97714199D01*
X154219636Y-97557820D01*
X154211082Y-97531493D01*
X154176283Y-97463196D01*
X154123864Y-97360319D01*
X154010944Y-97204898D01*
X153875101Y-97069055D01*
X153719680Y-96956135D01*
X153690781Y-96941410D01*
X153548505Y-96868916D01*
X153365801Y-96809553D01*
X153241868Y-96789924D01*
X153176054Y-96779500D01*
X152983944Y-96779500D01*
X152920695Y-96789517D01*
X152794196Y-96809553D01*
X152611492Y-96868916D01*
X152440317Y-96956135D01*
X152353229Y-97019409D01*
X152284897Y-97069055D01*
X152284895Y-97069057D01*
X152284894Y-97069057D01*
X152149056Y-97204895D01*
X152149056Y-97204896D01*
X152149054Y-97204898D01*
X152109186Y-97259772D01*
X152036134Y-97360318D01*
X151948915Y-97531493D01*
X151889552Y-97714197D01*
X151863552Y-97878356D01*
X151859499Y-97903945D01*
X149220500Y-97903945D01*
X149190447Y-97714199D01*
X149139637Y-97557820D01*
X149131083Y-97531493D01*
X149096284Y-97463196D01*
X149043865Y-97360319D01*
X148930945Y-97204898D01*
X148795102Y-97069055D01*
X148639681Y-96956135D01*
X148610782Y-96941410D01*
X148468506Y-96868916D01*
X148285802Y-96809553D01*
X148161869Y-96789924D01*
X148096055Y-96779500D01*
X147903945Y-96779500D01*
X147840696Y-96789517D01*
X147714197Y-96809553D01*
X147531493Y-96868916D01*
X147360318Y-96956135D01*
X147273230Y-97019409D01*
X147204898Y-97069055D01*
X147204896Y-97069057D01*
X147204895Y-97069057D01*
X147069057Y-97204895D01*
X147069057Y-97204896D01*
X147069055Y-97204898D01*
X147029187Y-97259772D01*
X146956135Y-97360318D01*
X146868916Y-97531493D01*
X146809553Y-97714197D01*
X146783553Y-97878356D01*
X146779500Y-97903945D01*
X141993458Y-97903945D01*
X142022989Y-97878356D01*
X142036183Y-97873219D01*
X142039407Y-97872171D01*
X142039409Y-97872171D01*
X142211639Y-97816211D01*
X142372994Y-97733996D01*
X142519501Y-97627553D01*
X142647553Y-97499501D01*
X142753996Y-97352994D01*
X142836211Y-97191639D01*
X142892171Y-97019409D01*
X142908927Y-96913616D01*
X142920500Y-96840551D01*
X142920500Y-96659456D01*
X142917331Y-96639448D01*
X142908505Y-96583723D01*
X142917459Y-96514433D01*
X142943294Y-96476650D01*
X143733127Y-95686819D01*
X143794450Y-95653334D01*
X143820808Y-95650500D01*
X158429192Y-95650500D01*
X158496231Y-95670185D01*
X158516873Y-95686819D01*
X160622699Y-97792645D01*
X160656184Y-97853968D01*
X160651200Y-97923660D01*
X160609328Y-97979593D01*
X160543864Y-98004010D01*
X160510828Y-98001944D01*
X160498541Y-97999500D01*
X160301459Y-97999500D01*
X160301457Y-97999500D01*
X160108170Y-98037947D01*
X160108160Y-98037950D01*
X159926092Y-98113364D01*
X159926079Y-98113371D01*
X159762218Y-98222860D01*
X159762214Y-98222863D01*
X159622863Y-98362214D01*
X159622860Y-98362218D01*
X159513371Y-98526079D01*
X159513364Y-98526092D01*
X159437950Y-98708160D01*
X159437947Y-98708170D01*
X159399500Y-98901456D01*
X159399500Y-99029191D01*
X159379815Y-99096230D01*
X159363181Y-99116872D01*
X155712181Y-102767872D01*
X155650858Y-102801357D01*
X155581166Y-102796373D01*
X155525233Y-102754501D01*
X155500816Y-102689037D01*
X155500500Y-102680191D01*
X155500500Y-102651456D01*
X155462052Y-102458170D01*
X155462051Y-102458169D01*
X155462051Y-102458165D01*
X155458011Y-102448412D01*
X155386635Y-102276092D01*
X155386628Y-102276079D01*
X155277139Y-102112218D01*
X155277136Y-102112214D01*
X155137785Y-101972863D01*
X155137781Y-101972860D01*
X154973920Y-101863371D01*
X154973907Y-101863364D01*
X154791839Y-101787950D01*
X154791829Y-101787947D01*
X154598543Y-101749500D01*
X154598541Y-101749500D01*
X154401459Y-101749500D01*
X154401457Y-101749500D01*
X154208170Y-101787947D01*
X154208160Y-101787950D01*
X154026092Y-101863364D01*
X154026079Y-101863371D01*
X153862219Y-101972859D01*
X153835079Y-102000000D01*
X153771896Y-102063182D01*
X153710576Y-102096666D01*
X153684217Y-102099500D01*
X140820808Y-102099500D01*
X140753769Y-102079815D01*
X140733127Y-102063181D01*
X139113891Y-100443945D01*
X149319500Y-100443945D01*
X149319500Y-100636055D01*
X149322452Y-100654692D01*
X149349553Y-100825802D01*
X149408916Y-101008506D01*
X149496135Y-101179681D01*
X149609055Y-101335102D01*
X149744898Y-101470945D01*
X149900319Y-101583865D01*
X150017596Y-101643621D01*
X150071493Y-101671083D01*
X150162845Y-101700764D01*
X150254199Y-101730447D01*
X150443945Y-101760500D01*
X150443946Y-101760500D01*
X150636054Y-101760500D01*
X150636055Y-101760500D01*
X150825801Y-101730447D01*
X151008509Y-101671082D01*
X151179681Y-101583865D01*
X151335102Y-101470945D01*
X151470945Y-101335102D01*
X151583865Y-101179681D01*
X151671082Y-101008509D01*
X151730447Y-100825801D01*
X151760500Y-100636055D01*
X151760500Y-100443945D01*
X151730447Y-100254199D01*
X151700764Y-100162845D01*
X151671083Y-100071493D01*
X151634910Y-100000500D01*
X151583865Y-99900319D01*
X151470945Y-99744898D01*
X151335102Y-99609055D01*
X151179681Y-99496135D01*
X151136070Y-99473914D01*
X151008506Y-99408916D01*
X150825802Y-99349553D01*
X150730928Y-99334526D01*
X150636055Y-99319500D01*
X150443945Y-99319500D01*
X150380696Y-99329517D01*
X150254197Y-99349553D01*
X150071493Y-99408916D01*
X149900318Y-99496135D01*
X149814997Y-99558125D01*
X149744898Y-99609055D01*
X149744896Y-99609057D01*
X149744895Y-99609057D01*
X149609057Y-99744895D01*
X149609057Y-99744896D01*
X149609055Y-99744898D01*
X149585633Y-99777136D01*
X149496135Y-99900318D01*
X149408916Y-100071493D01*
X149349553Y-100254197D01*
X149349553Y-100254199D01*
X149319500Y-100443945D01*
X139113891Y-100443945D01*
X137686819Y-99016873D01*
X137653334Y-98955550D01*
X137650500Y-98929192D01*
X137650500Y-97645928D01*
X137625502Y-97520261D01*
X137625501Y-97520260D01*
X137625501Y-97520256D01*
X137576465Y-97401873D01*
X137570462Y-97392888D01*
X137564460Y-97383905D01*
X137505276Y-97295329D01*
X137505273Y-97295326D01*
X137196032Y-96986086D01*
X137162547Y-96924763D01*
X137161240Y-96879006D01*
X137162839Y-96868916D01*
X137170500Y-96820546D01*
X137170500Y-96639454D01*
X137170500Y-96639448D01*
X137150699Y-96514433D01*
X137142171Y-96460591D01*
X137113414Y-96372086D01*
X137086212Y-96288363D01*
X137086211Y-96288360D01*
X137057740Y-96232484D01*
X137003996Y-96127006D01*
X136971887Y-96082811D01*
X136897558Y-95980505D01*
X136897554Y-95980500D01*
X136769499Y-95852445D01*
X136769494Y-95852441D01*
X136622997Y-95746006D01*
X136622996Y-95746005D01*
X136622994Y-95746004D01*
X136552333Y-95710000D01*
X136461639Y-95663788D01*
X136461636Y-95663787D01*
X136289410Y-95607829D01*
X136110551Y-95579500D01*
X136110546Y-95579500D01*
X135929454Y-95579500D01*
X135929449Y-95579500D01*
X135750589Y-95607829D01*
X135578363Y-95663787D01*
X135578360Y-95663788D01*
X135514192Y-95696485D01*
X135457897Y-95710000D01*
X135030330Y-95710000D01*
X135050075Y-95690255D01*
X135099444Y-95604745D01*
X135125000Y-95509370D01*
X135125000Y-95410630D01*
X135099444Y-95315255D01*
X135050075Y-95229745D01*
X135030330Y-95210000D01*
X135900000Y-95210000D01*
X135900000Y-94762172D01*
X135899999Y-94762155D01*
X135893598Y-94702627D01*
X135893596Y-94702620D01*
X135843354Y-94567913D01*
X135843350Y-94567906D01*
X135757190Y-94452812D01*
X135757187Y-94452809D01*
X135642093Y-94366649D01*
X135642086Y-94366645D01*
X135507379Y-94316403D01*
X135507372Y-94316401D01*
X135447844Y-94310000D01*
X135000000Y-94310000D01*
X135000000Y-95179670D01*
X134980255Y-95159925D01*
X134894745Y-95110556D01*
X134799370Y-95085000D01*
X134700630Y-95085000D01*
X134605255Y-95110556D01*
X134519745Y-95159925D01*
X134500000Y-95179670D01*
X134500000Y-94310000D01*
X134052155Y-94310000D01*
X133992627Y-94316401D01*
X133992620Y-94316403D01*
X133857913Y-94366645D01*
X133857906Y-94366649D01*
X133742812Y-94452809D01*
X133742809Y-94452812D01*
X133656649Y-94567906D01*
X133656645Y-94567913D01*
X133606403Y-94702620D01*
X133606401Y-94702627D01*
X133600000Y-94762155D01*
X133600000Y-95210000D01*
X134469670Y-95210000D01*
X134449925Y-95229745D01*
X134400556Y-95315255D01*
X134375000Y-95410630D01*
X134375000Y-95509370D01*
X134400556Y-95604745D01*
X134449925Y-95690255D01*
X134469670Y-95710000D01*
X133600000Y-95710000D01*
X133600000Y-96157844D01*
X133606401Y-96217372D01*
X133606403Y-96217379D01*
X133656645Y-96352086D01*
X133656649Y-96352093D01*
X133742809Y-96467187D01*
X133742812Y-96467190D01*
X133857906Y-96553350D01*
X133857913Y-96553354D01*
X133916026Y-96575029D01*
X133971960Y-96616900D01*
X133996377Y-96682365D01*
X133981525Y-96750638D01*
X133945579Y-96791528D01*
X133805069Y-96893616D01*
X133805060Y-96893623D01*
X133643622Y-97055061D01*
X133509421Y-97239771D01*
X133405770Y-97443196D01*
X133335215Y-97660339D01*
X133299500Y-97885837D01*
X133299500Y-98114162D01*
X133335215Y-98339660D01*
X133405770Y-98556803D01*
X133482896Y-98708170D01*
X133509421Y-98760228D01*
X133643621Y-98944937D01*
X133805063Y-99106379D01*
X133989772Y-99240579D01*
X134085884Y-99289550D01*
X134193196Y-99344229D01*
X134193198Y-99344229D01*
X134193201Y-99344231D01*
X134309592Y-99382049D01*
X134410339Y-99414784D01*
X134635838Y-99450500D01*
X134635843Y-99450500D01*
X134864162Y-99450500D01*
X135089660Y-99414784D01*
X135306799Y-99344231D01*
X135510228Y-99240579D01*
X135694937Y-99106379D01*
X135856379Y-98944937D01*
X135990579Y-98760228D01*
X136094231Y-98556799D01*
X136107569Y-98515747D01*
X136147007Y-98458072D01*
X136211365Y-98430874D01*
X136280212Y-98442789D01*
X136331687Y-98490033D01*
X136349500Y-98554066D01*
X136349500Y-99314069D01*
X136349500Y-99314071D01*
X136349499Y-99314071D01*
X136368367Y-99408918D01*
X136368367Y-99408919D01*
X136374497Y-99439737D01*
X136374498Y-99439742D01*
X136416787Y-99541835D01*
X136423535Y-99558127D01*
X136476758Y-99637782D01*
X136494726Y-99664673D01*
X140057872Y-103227819D01*
X140091357Y-103289142D01*
X140086373Y-103358834D01*
X140044501Y-103414767D01*
X139979037Y-103439184D01*
X139970191Y-103439500D01*
X138095929Y-103439500D01*
X137970261Y-103464497D01*
X137970255Y-103464499D01*
X137851870Y-103513535D01*
X137745331Y-103584722D01*
X137745324Y-103584728D01*
X135766873Y-105563181D01*
X135705550Y-105596666D01*
X135679192Y-105599500D01*
X126185929Y-105599500D01*
X126060261Y-105624497D01*
X126060255Y-105624499D01*
X125941870Y-105673535D01*
X125835331Y-105744722D01*
X125835324Y-105744728D01*
X125526085Y-106053967D01*
X125464762Y-106087452D01*
X125419007Y-106088759D01*
X125360546Y-106079500D01*
X125179454Y-106079500D01*
X125179449Y-106079500D01*
X125000589Y-106107829D01*
X124828363Y-106163787D01*
X124828360Y-106163788D01*
X124667002Y-106246006D01*
X124520505Y-106352441D01*
X124520500Y-106352445D01*
X124392445Y-106480500D01*
X124392441Y-106480505D01*
X124286006Y-106627002D01*
X124203788Y-106788360D01*
X124203787Y-106788363D01*
X124147829Y-106960589D01*
X124119500Y-107139448D01*
X124119500Y-107320551D01*
X124147829Y-107499410D01*
X124203787Y-107671636D01*
X124203790Y-107671643D01*
X124236484Y-107735806D01*
X124250000Y-107792102D01*
X124250000Y-108219670D01*
X124230255Y-108199925D01*
X124144745Y-108150556D01*
X124049370Y-108125000D01*
X123950630Y-108125000D01*
X123855255Y-108150556D01*
X123769745Y-108199925D01*
X123750000Y-108219670D01*
X123750000Y-107350000D01*
X123302155Y-107350000D01*
X123242627Y-107356401D01*
X123242620Y-107356403D01*
X123107913Y-107406645D01*
X123107906Y-107406649D01*
X122992812Y-107492809D01*
X122992809Y-107492812D01*
X122906649Y-107607906D01*
X122906645Y-107607913D01*
X122856403Y-107742620D01*
X122856401Y-107742627D01*
X122850000Y-107802155D01*
X120750500Y-107802155D01*
X120750500Y-102052155D01*
X122850000Y-102052155D01*
X122850000Y-102500000D01*
X123719670Y-102500000D01*
X123699925Y-102519745D01*
X123650556Y-102605255D01*
X123625000Y-102700630D01*
X123625000Y-102799370D01*
X123650556Y-102894745D01*
X123699925Y-102980255D01*
X123719670Y-103000000D01*
X122850000Y-103000000D01*
X122850000Y-103447844D01*
X122856401Y-103507372D01*
X122856403Y-103507379D01*
X122906645Y-103642086D01*
X122906649Y-103642093D01*
X122992809Y-103757187D01*
X122992812Y-103757190D01*
X123107906Y-103843350D01*
X123107913Y-103843354D01*
X123242620Y-103893596D01*
X123242627Y-103893598D01*
X123302155Y-103899999D01*
X123302172Y-103900000D01*
X123750000Y-103900000D01*
X123750000Y-103030330D01*
X123769745Y-103050075D01*
X123855255Y-103099444D01*
X123950630Y-103125000D01*
X124049370Y-103125000D01*
X124144745Y-103099444D01*
X124230255Y-103050075D01*
X124250000Y-103030330D01*
X124250000Y-103900000D01*
X124697828Y-103900000D01*
X124697844Y-103899999D01*
X124757372Y-103893598D01*
X124757379Y-103893596D01*
X124892086Y-103843354D01*
X124892093Y-103843350D01*
X125007187Y-103757190D01*
X125007190Y-103757187D01*
X125093350Y-103642093D01*
X125093354Y-103642086D01*
X125115029Y-103583973D01*
X125156900Y-103528039D01*
X125222364Y-103503622D01*
X125290637Y-103518473D01*
X125331527Y-103554419D01*
X125433621Y-103694937D01*
X125595063Y-103856379D01*
X125779772Y-103990579D01*
X125875884Y-104039550D01*
X125983196Y-104094229D01*
X125983198Y-104094229D01*
X125983201Y-104094231D01*
X126099592Y-104132049D01*
X126200339Y-104164784D01*
X126425838Y-104200500D01*
X126425843Y-104200500D01*
X126654162Y-104200500D01*
X126879660Y-104164784D01*
X126913591Y-104153759D01*
X127096799Y-104094231D01*
X127300228Y-103990579D01*
X127484937Y-103856379D01*
X127646379Y-103694937D01*
X127780579Y-103510228D01*
X127884231Y-103306799D01*
X127954784Y-103089660D01*
X127967817Y-103007372D01*
X127990500Y-102864162D01*
X127990500Y-102635837D01*
X127954784Y-102410339D01*
X127922049Y-102309592D01*
X127884231Y-102193201D01*
X127884229Y-102193198D01*
X127884229Y-102193196D01*
X127817983Y-102063181D01*
X127780579Y-101989772D01*
X127646379Y-101805063D01*
X127484937Y-101643621D01*
X127300228Y-101509421D01*
X127245479Y-101481525D01*
X127096803Y-101405770D01*
X126879660Y-101335215D01*
X126654162Y-101299500D01*
X126654157Y-101299500D01*
X126511151Y-101299500D01*
X126444112Y-101279815D01*
X126398357Y-101227011D01*
X126393220Y-101213818D01*
X126336212Y-101038363D01*
X126336211Y-101038360D01*
X126307740Y-100982484D01*
X126253996Y-100877006D01*
X126197685Y-100799500D01*
X126147558Y-100730505D01*
X126147554Y-100730500D01*
X126019503Y-100602449D01*
X126019501Y-100602447D01*
X126000382Y-100588556D01*
X125971614Y-100567654D01*
X125928948Y-100512324D01*
X125920500Y-100467337D01*
X125920500Y-95300807D01*
X125940185Y-95233768D01*
X125956819Y-95213126D01*
X128983126Y-92186819D01*
X129044449Y-92153334D01*
X129070807Y-92150500D01*
X159929192Y-92150500D01*
X159996231Y-92170185D01*
X160016873Y-92186819D01*
X166963181Y-99133127D01*
X166996666Y-99194450D01*
X166999500Y-99220808D01*
X166999500Y-99348541D01*
X166999500Y-99348543D01*
X166999499Y-99348543D01*
X167039137Y-99547809D01*
X167036421Y-99548349D01*
X167036832Y-99606396D01*
X166999474Y-99665439D01*
X166936126Y-99694913D01*
X166866899Y-99685459D01*
X166829930Y-99659984D01*
X159914674Y-92744727D01*
X159914673Y-92744726D01*
X159914669Y-92744723D01*
X159808127Y-92673535D01*
X159689744Y-92624499D01*
X159689738Y-92624497D01*
X159564071Y-92599500D01*
X159564069Y-92599500D01*
X131685931Y-92599500D01*
X131685929Y-92599500D01*
X131560261Y-92624497D01*
X131560255Y-92624499D01*
X131441870Y-92673535D01*
X131335331Y-92744722D01*
X131335324Y-92744728D01*
X129408289Y-94671763D01*
X129346966Y-94705248D01*
X129282290Y-94702013D01*
X129269409Y-94697827D01*
X129090551Y-94669499D01*
X129090546Y-94669499D01*
X128909454Y-94669499D01*
X128909449Y-94669499D01*
X128730589Y-94697828D01*
X128558363Y-94753786D01*
X128558360Y-94753787D01*
X128397002Y-94836005D01*
X128250505Y-94942440D01*
X128250500Y-94942444D01*
X128122445Y-95070499D01*
X128122441Y-95070504D01*
X128016006Y-95217001D01*
X127933788Y-95378359D01*
X127933787Y-95378362D01*
X127877829Y-95550588D01*
X127849500Y-95729447D01*
X127849500Y-95910550D01*
X127877829Y-96089409D01*
X127933787Y-96261635D01*
X127933790Y-96261642D01*
X127966484Y-96325805D01*
X127980000Y-96382101D01*
X127980000Y-96809669D01*
X127960255Y-96789924D01*
X127874745Y-96740555D01*
X127779370Y-96714999D01*
X127680630Y-96714999D01*
X127585255Y-96740555D01*
X127499745Y-96789924D01*
X127480000Y-96809669D01*
X127480000Y-95939999D01*
X127032155Y-95939999D01*
X126972627Y-95946400D01*
X126972620Y-95946402D01*
X126837913Y-95996644D01*
X126837906Y-95996648D01*
X126722812Y-96082808D01*
X126722809Y-96082811D01*
X126636649Y-96197905D01*
X126636645Y-96197912D01*
X126586403Y-96332619D01*
X126586401Y-96332626D01*
X126580000Y-96392154D01*
X126580000Y-96839999D01*
X127449670Y-96839999D01*
X127429925Y-96859744D01*
X127380556Y-96945254D01*
X127355000Y-97040629D01*
X127355000Y-97139369D01*
X127380556Y-97234744D01*
X127429925Y-97320254D01*
X127449670Y-97339999D01*
X126580000Y-97339999D01*
X126580000Y-97787843D01*
X126586401Y-97847371D01*
X126586403Y-97847378D01*
X126636645Y-97982085D01*
X126636649Y-97982092D01*
X126722809Y-98097186D01*
X126722812Y-98097189D01*
X126837906Y-98183349D01*
X126837913Y-98183353D01*
X126972620Y-98233595D01*
X126972627Y-98233597D01*
X127032155Y-98239998D01*
X127032172Y-98239999D01*
X127480000Y-98239999D01*
X127480000Y-97370329D01*
X127499745Y-97390074D01*
X127585255Y-97439443D01*
X127680630Y-97464999D01*
X127779370Y-97464999D01*
X127874745Y-97439443D01*
X127960255Y-97390074D01*
X127980000Y-97370329D01*
X127980000Y-98239999D01*
X128427828Y-98239999D01*
X128427844Y-98239998D01*
X128487372Y-98233597D01*
X128487379Y-98233595D01*
X128622086Y-98183353D01*
X128622093Y-98183349D01*
X128737187Y-98097189D01*
X128737190Y-98097186D01*
X128823350Y-97982092D01*
X128823354Y-97982085D01*
X128845029Y-97923972D01*
X128886900Y-97868038D01*
X128952364Y-97843621D01*
X129020637Y-97858472D01*
X129061527Y-97894418D01*
X129163621Y-98034936D01*
X129325063Y-98196378D01*
X129509772Y-98330578D01*
X129574126Y-98363368D01*
X129713196Y-98434228D01*
X129713198Y-98434228D01*
X129713201Y-98434230D01*
X129786579Y-98458072D01*
X129930339Y-98504783D01*
X130155838Y-98540499D01*
X130155843Y-98540499D01*
X130384162Y-98540499D01*
X130609660Y-98504783D01*
X130826799Y-98434230D01*
X131030228Y-98330578D01*
X131214937Y-98196378D01*
X131376379Y-98034936D01*
X131510579Y-97850227D01*
X131614231Y-97646798D01*
X131684784Y-97429659D01*
X131694485Y-97368412D01*
X131720500Y-97204161D01*
X131720500Y-96975836D01*
X131684784Y-96750338D01*
X131641427Y-96616900D01*
X131614231Y-96533200D01*
X131614229Y-96533197D01*
X131614229Y-96533195D01*
X131558078Y-96422993D01*
X131510579Y-96329771D01*
X131376379Y-96145062D01*
X131214937Y-95983620D01*
X131030228Y-95849420D01*
X130972284Y-95819896D01*
X130826803Y-95745769D01*
X130609661Y-95675215D01*
X130534993Y-95663388D01*
X130471858Y-95633458D01*
X130434928Y-95574146D01*
X130435926Y-95504283D01*
X130466709Y-95453236D01*
X131983127Y-93936819D01*
X132044450Y-93903334D01*
X132070808Y-93900500D01*
X159179192Y-93900500D01*
X159246231Y-93920185D01*
X159266873Y-93936819D01*
X167835325Y-102505272D01*
X167835332Y-102505278D01*
X167941863Y-102576459D01*
X167941867Y-102576461D01*
X167941874Y-102576466D01*
X167962451Y-102584989D01*
X168016854Y-102628828D01*
X168018100Y-102630658D01*
X168022858Y-102637779D01*
X168022863Y-102637785D01*
X168162214Y-102777136D01*
X168162218Y-102777139D01*
X168326079Y-102886628D01*
X168326092Y-102886635D01*
X168508160Y-102962049D01*
X168508165Y-102962051D01*
X168508169Y-102962051D01*
X168508170Y-102962052D01*
X168701456Y-103000500D01*
X168701459Y-103000500D01*
X168898543Y-103000500D01*
X169028582Y-102974632D01*
X169091835Y-102962051D01*
X169273914Y-102886632D01*
X169437782Y-102777139D01*
X169577139Y-102637782D01*
X169686632Y-102473914D01*
X169693158Y-102458160D01*
X169762049Y-102291839D01*
X169762051Y-102291835D01*
X169793080Y-102135843D01*
X169800500Y-102098543D01*
X169800500Y-101901456D01*
X169762052Y-101708170D01*
X169762051Y-101708169D01*
X169762051Y-101708165D01*
X169735316Y-101643621D01*
X169686635Y-101526092D01*
X169686628Y-101526079D01*
X169577139Y-101362218D01*
X169577136Y-101362214D01*
X169437785Y-101222863D01*
X169437781Y-101222860D01*
X169273920Y-101113371D01*
X169273907Y-101113364D01*
X169091839Y-101037950D01*
X169091829Y-101037947D01*
X168898543Y-100999500D01*
X168898541Y-100999500D01*
X168701459Y-100999500D01*
X168701457Y-100999500D01*
X168508170Y-101037947D01*
X168508160Y-101037950D01*
X168372388Y-101094189D01*
X168302919Y-101101658D01*
X168240440Y-101070383D01*
X168237255Y-101067309D01*
X167590015Y-100420069D01*
X167556530Y-100358746D01*
X167561514Y-100289054D01*
X167603386Y-100233121D01*
X167668850Y-100208704D01*
X167701883Y-100212409D01*
X167702191Y-100210863D01*
X167901456Y-100250500D01*
X167901459Y-100250500D01*
X168098543Y-100250500D01*
X168228582Y-100224632D01*
X168291835Y-100212051D01*
X168473914Y-100136632D01*
X168637782Y-100027139D01*
X168777139Y-99887782D01*
X168886632Y-99723914D01*
X168962051Y-99541835D01*
X168980219Y-99450500D01*
X169000500Y-99348543D01*
X169000500Y-99151456D01*
X168962052Y-98958170D01*
X168962051Y-98958169D01*
X168962051Y-98958165D01*
X168904650Y-98819585D01*
X168886635Y-98776092D01*
X168886626Y-98776076D01*
X168777139Y-98612218D01*
X168777136Y-98612214D01*
X168637785Y-98472863D01*
X168637781Y-98472860D01*
X168473920Y-98363371D01*
X168473907Y-98363364D01*
X168291839Y-98287950D01*
X168291829Y-98287947D01*
X168098543Y-98249500D01*
X168098541Y-98249500D01*
X167970808Y-98249500D01*
X167903769Y-98229815D01*
X167883127Y-98213181D01*
X166496468Y-96826522D01*
X166413659Y-96743713D01*
X176899500Y-96743713D01*
X176899500Y-96956286D01*
X176928497Y-97139369D01*
X176932754Y-97166243D01*
X176995813Y-97360319D01*
X176998444Y-97368414D01*
X177094951Y-97557820D01*
X177219890Y-97729786D01*
X177370213Y-97880109D01*
X177542182Y-98005050D01*
X177550946Y-98009516D01*
X177601742Y-98057491D01*
X177618536Y-98125312D01*
X177595998Y-98191447D01*
X177550946Y-98230484D01*
X177542182Y-98234949D01*
X177370213Y-98359890D01*
X177219890Y-98510213D01*
X177094951Y-98682179D01*
X176998444Y-98871585D01*
X176932753Y-99073760D01*
X176899500Y-99283713D01*
X176899500Y-99496286D01*
X176921910Y-99637781D01*
X176932754Y-99706243D01*
X176995813Y-99900319D01*
X176998444Y-99908414D01*
X177094951Y-100097820D01*
X177219890Y-100269786D01*
X177370213Y-100420109D01*
X177542182Y-100545050D01*
X177550946Y-100549516D01*
X177601742Y-100597491D01*
X177618536Y-100665312D01*
X177595998Y-100731447D01*
X177550946Y-100770484D01*
X177542182Y-100774949D01*
X177370213Y-100899890D01*
X177219890Y-101050213D01*
X177094951Y-101222179D01*
X176998444Y-101411585D01*
X176932753Y-101613760D01*
X176899500Y-101823713D01*
X176899500Y-102036286D01*
X176925529Y-102200630D01*
X176932754Y-102246243D01*
X176986072Y-102410339D01*
X176998444Y-102448414D01*
X177094951Y-102637820D01*
X177219890Y-102809786D01*
X177370213Y-102960109D01*
X177542179Y-103085048D01*
X177542181Y-103085049D01*
X177542184Y-103085051D01*
X177550942Y-103089513D01*
X177601739Y-103137487D01*
X177618535Y-103205307D01*
X177595999Y-103271443D01*
X177550949Y-103310481D01*
X177542183Y-103314947D01*
X177370213Y-103439889D01*
X177219890Y-103590212D01*
X177094951Y-103762178D01*
X176998444Y-103951584D01*
X176932753Y-104153759D01*
X176899500Y-104363712D01*
X176899500Y-104576285D01*
X176932753Y-104786238D01*
X176998444Y-104988413D01*
X177094951Y-105177819D01*
X177219890Y-105349785D01*
X177370213Y-105500108D01*
X177542179Y-105625047D01*
X177542181Y-105625048D01*
X177542184Y-105625050D01*
X177550945Y-105629513D01*
X177601741Y-105677487D01*
X177618537Y-105745307D01*
X177596001Y-105811443D01*
X177550950Y-105850481D01*
X177542187Y-105854946D01*
X177542184Y-105854948D01*
X177370213Y-105979890D01*
X177219890Y-106130213D01*
X177094951Y-106302179D01*
X176998444Y-106491585D01*
X176932753Y-106693760D01*
X176899500Y-106903713D01*
X176899500Y-107116286D01*
X176931851Y-107320546D01*
X176932754Y-107326243D01*
X176989019Y-107499409D01*
X176998444Y-107528414D01*
X177094951Y-107717820D01*
X177219890Y-107889786D01*
X177370213Y-108040109D01*
X177542182Y-108165050D01*
X177550946Y-108169516D01*
X177601742Y-108217491D01*
X177618536Y-108285312D01*
X177595998Y-108351447D01*
X177550946Y-108390484D01*
X177542182Y-108394949D01*
X177370213Y-108519890D01*
X177219890Y-108670213D01*
X177094951Y-108842179D01*
X176998444Y-109031585D01*
X176932753Y-109233760D01*
X176899500Y-109443713D01*
X176899500Y-109656286D01*
X176932583Y-109865167D01*
X176932754Y-109866243D01*
X176976052Y-109999501D01*
X176998444Y-110068414D01*
X177094951Y-110257820D01*
X177219890Y-110429786D01*
X177370213Y-110580109D01*
X177542182Y-110705050D01*
X177550946Y-110709516D01*
X177601742Y-110757491D01*
X177618536Y-110825312D01*
X177595998Y-110891447D01*
X177550946Y-110930484D01*
X177542182Y-110934949D01*
X177370213Y-111059890D01*
X177219890Y-111210213D01*
X177094951Y-111382179D01*
X176998444Y-111571585D01*
X176932753Y-111773760D01*
X176899500Y-111983713D01*
X176899500Y-112196286D01*
X176914083Y-112288363D01*
X176932754Y-112406243D01*
X176987232Y-112573909D01*
X176998444Y-112608414D01*
X177094951Y-112797820D01*
X177219890Y-112969786D01*
X177370213Y-113120109D01*
X177542182Y-113245050D01*
X177550946Y-113249516D01*
X177601742Y-113297491D01*
X177618536Y-113365312D01*
X177595998Y-113431447D01*
X177550946Y-113470484D01*
X177542182Y-113474949D01*
X177370213Y-113599890D01*
X177219890Y-113750213D01*
X177094951Y-113922179D01*
X176998444Y-114111585D01*
X176932753Y-114313760D01*
X176899500Y-114523713D01*
X176899500Y-114736286D01*
X176931805Y-114940255D01*
X176932754Y-114946243D01*
X176996878Y-115143596D01*
X176998444Y-115148414D01*
X177094951Y-115337820D01*
X177219890Y-115509786D01*
X177370213Y-115660109D01*
X177542179Y-115785048D01*
X177542181Y-115785049D01*
X177542184Y-115785051D01*
X177550945Y-115789514D01*
X177601741Y-115837488D01*
X177618537Y-115905308D01*
X177596001Y-115971444D01*
X177550950Y-116010482D01*
X177542187Y-116014947D01*
X177542184Y-116014949D01*
X177370213Y-116139891D01*
X177219890Y-116290214D01*
X177094951Y-116462180D01*
X176998444Y-116651586D01*
X176932753Y-116853761D01*
X176899500Y-117063714D01*
X176899500Y-117276287D01*
X176928935Y-117462136D01*
X176932754Y-117486244D01*
X176977144Y-117622863D01*
X176998444Y-117688415D01*
X177094951Y-117877821D01*
X177219890Y-118049787D01*
X177370213Y-118200110D01*
X177542179Y-118325049D01*
X177542181Y-118325050D01*
X177542184Y-118325052D01*
X177550942Y-118329514D01*
X177601739Y-118377488D01*
X177618535Y-118445308D01*
X177595999Y-118511444D01*
X177550949Y-118550482D01*
X177542183Y-118554948D01*
X177370213Y-118679890D01*
X177219890Y-118830213D01*
X177094951Y-119002179D01*
X176998444Y-119191585D01*
X176932753Y-119393760D01*
X176899500Y-119603713D01*
X176899500Y-119816286D01*
X176932613Y-120025358D01*
X176932754Y-120026243D01*
X176995004Y-120217829D01*
X176998444Y-120228414D01*
X177094951Y-120417820D01*
X177219890Y-120589786D01*
X177333430Y-120703326D01*
X177366915Y-120764649D01*
X177361931Y-120834341D01*
X177320059Y-120890274D01*
X177289083Y-120907189D01*
X177157669Y-120956203D01*
X177157664Y-120956206D01*
X177042455Y-121042452D01*
X177042452Y-121042455D01*
X176956206Y-121157664D01*
X176956202Y-121157671D01*
X176905908Y-121292517D01*
X176899501Y-121352116D01*
X176899501Y-121352123D01*
X176899500Y-121352135D01*
X176899500Y-123147870D01*
X176899501Y-123147876D01*
X176905908Y-123207483D01*
X176956202Y-123342328D01*
X176956206Y-123342335D01*
X177042452Y-123457544D01*
X177042455Y-123457547D01*
X177157664Y-123543793D01*
X177157671Y-123543797D01*
X177292517Y-123594091D01*
X177292516Y-123594091D01*
X177299444Y-123594835D01*
X177352127Y-123600500D01*
X179147872Y-123600499D01*
X179207483Y-123594091D01*
X179342331Y-123543796D01*
X179457546Y-123457546D01*
X179543796Y-123342331D01*
X179594091Y-123207483D01*
X179600500Y-123147873D01*
X179600499Y-121352128D01*
X179594091Y-121292517D01*
X179578027Y-121249448D01*
X179543797Y-121157671D01*
X179543793Y-121157664D01*
X179457547Y-121042455D01*
X179457544Y-121042452D01*
X179342335Y-120956206D01*
X179342328Y-120956202D01*
X179210917Y-120907189D01*
X179154983Y-120865318D01*
X179130566Y-120799853D01*
X179145418Y-120731580D01*
X179166563Y-120703332D01*
X179280104Y-120589792D01*
X179405051Y-120417816D01*
X179501557Y-120228412D01*
X179567246Y-120026243D01*
X179600500Y-119816287D01*
X179600500Y-119603713D01*
X179567246Y-119393757D01*
X179501557Y-119191588D01*
X179405051Y-119002184D01*
X179405049Y-119002181D01*
X179405048Y-119002179D01*
X179280109Y-118830213D01*
X179129786Y-118679890D01*
X178957817Y-118554949D01*
X178949054Y-118550484D01*
X178898258Y-118502509D01*
X178881464Y-118434688D01*
X178904002Y-118368553D01*
X178949058Y-118329514D01*
X178957816Y-118325052D01*
X178990293Y-118301456D01*
X179129786Y-118200110D01*
X179129788Y-118200107D01*
X179129792Y-118200105D01*
X179280104Y-118049793D01*
X179280106Y-118049789D01*
X179280109Y-118049787D01*
X179405048Y-117877821D01*
X179405047Y-117877821D01*
X179405051Y-117877817D01*
X179501557Y-117688413D01*
X179567246Y-117486244D01*
X179600500Y-117276288D01*
X179600500Y-117063714D01*
X179567246Y-116853758D01*
X179501557Y-116651589D01*
X179405051Y-116462185D01*
X179405049Y-116462182D01*
X179405048Y-116462180D01*
X179280109Y-116290214D01*
X179129786Y-116139891D01*
X178957817Y-116014950D01*
X178949052Y-116010484D01*
X178898257Y-115962509D01*
X178881462Y-115894688D01*
X178904000Y-115828553D01*
X178949056Y-115789514D01*
X178957816Y-115785051D01*
X178957818Y-115785049D01*
X178957821Y-115785048D01*
X179129786Y-115660109D01*
X179129788Y-115660106D01*
X179129792Y-115660104D01*
X179280104Y-115509792D01*
X179280106Y-115509788D01*
X179280109Y-115509786D01*
X179405048Y-115337820D01*
X179405047Y-115337820D01*
X179405051Y-115337816D01*
X179501557Y-115148412D01*
X179567246Y-114946243D01*
X179600500Y-114736287D01*
X179600500Y-114523713D01*
X179567246Y-114313757D01*
X179501557Y-114111588D01*
X179405051Y-113922184D01*
X179405049Y-113922181D01*
X179405048Y-113922179D01*
X179280109Y-113750213D01*
X179129786Y-113599890D01*
X178957820Y-113474951D01*
X178957115Y-113474591D01*
X178949054Y-113470485D01*
X178898259Y-113422512D01*
X178881463Y-113354692D01*
X178903999Y-113288556D01*
X178949054Y-113249515D01*
X178957816Y-113245051D01*
X178979789Y-113229086D01*
X179129786Y-113120109D01*
X179129788Y-113120106D01*
X179129792Y-113120104D01*
X179280104Y-112969792D01*
X179280106Y-112969788D01*
X179280109Y-112969786D01*
X179405048Y-112797820D01*
X179405047Y-112797820D01*
X179405051Y-112797816D01*
X179501557Y-112608412D01*
X179567246Y-112406243D01*
X179600500Y-112196287D01*
X179600500Y-111983713D01*
X179567246Y-111773757D01*
X179501557Y-111571588D01*
X179405051Y-111382184D01*
X179405049Y-111382181D01*
X179405048Y-111382179D01*
X179280109Y-111210213D01*
X179129786Y-111059890D01*
X178957820Y-110934951D01*
X178957115Y-110934591D01*
X178949054Y-110930485D01*
X178898259Y-110882512D01*
X178881463Y-110814692D01*
X178903999Y-110748556D01*
X178949054Y-110709515D01*
X178957816Y-110705051D01*
X179034531Y-110649315D01*
X179129786Y-110580109D01*
X179129788Y-110580106D01*
X179129792Y-110580104D01*
X179280104Y-110429792D01*
X179280106Y-110429788D01*
X179280109Y-110429786D01*
X179404613Y-110258419D01*
X179405051Y-110257816D01*
X179501557Y-110068412D01*
X179567246Y-109866243D01*
X179600500Y-109656287D01*
X179600500Y-109443713D01*
X179567246Y-109233757D01*
X179501557Y-109031588D01*
X179405051Y-108842184D01*
X179405049Y-108842181D01*
X179405048Y-108842179D01*
X179280109Y-108670213D01*
X179129786Y-108519890D01*
X178957820Y-108394951D01*
X178957115Y-108394591D01*
X178949054Y-108390485D01*
X178898259Y-108342512D01*
X178881463Y-108274692D01*
X178903999Y-108208556D01*
X178949054Y-108169515D01*
X178957816Y-108165051D01*
X179013293Y-108124745D01*
X179129786Y-108040109D01*
X179129788Y-108040106D01*
X179129792Y-108040104D01*
X179280104Y-107889792D01*
X179280106Y-107889788D01*
X179280109Y-107889786D01*
X179405048Y-107717820D01*
X179405047Y-107717820D01*
X179405051Y-107717816D01*
X179501557Y-107528412D01*
X179567246Y-107326243D01*
X179600500Y-107116287D01*
X179600500Y-106903713D01*
X179567246Y-106693757D01*
X179501557Y-106491588D01*
X179405051Y-106302184D01*
X179405049Y-106302181D01*
X179405048Y-106302179D01*
X179280109Y-106130213D01*
X179129786Y-105979890D01*
X178957817Y-105854949D01*
X178949052Y-105850483D01*
X178898257Y-105802508D01*
X178881462Y-105734687D01*
X178904000Y-105668552D01*
X178949056Y-105629513D01*
X178957816Y-105625050D01*
X178957818Y-105625048D01*
X178957821Y-105625047D01*
X179129786Y-105500108D01*
X179129788Y-105500105D01*
X179129792Y-105500103D01*
X179280104Y-105349791D01*
X179280106Y-105349787D01*
X179280109Y-105349785D01*
X179405048Y-105177819D01*
X179405047Y-105177819D01*
X179405051Y-105177815D01*
X179501557Y-104988411D01*
X179567246Y-104786242D01*
X179600500Y-104576286D01*
X179600500Y-104363712D01*
X179567246Y-104153756D01*
X179501557Y-103951587D01*
X179405051Y-103762183D01*
X179405049Y-103762180D01*
X179405048Y-103762178D01*
X179280109Y-103590212D01*
X179129786Y-103439889D01*
X178957817Y-103314948D01*
X178949054Y-103310483D01*
X178898258Y-103262508D01*
X178881464Y-103194687D01*
X178904002Y-103128552D01*
X178949058Y-103089513D01*
X178957816Y-103085051D01*
X179005957Y-103050075D01*
X179129786Y-102960109D01*
X179129788Y-102960106D01*
X179129792Y-102960104D01*
X179280104Y-102809792D01*
X179280106Y-102809788D01*
X179280109Y-102809786D01*
X179405048Y-102637820D01*
X179405047Y-102637820D01*
X179405051Y-102637816D01*
X179501557Y-102448412D01*
X179567246Y-102246243D01*
X179600500Y-102036287D01*
X179600500Y-101823713D01*
X179567246Y-101613757D01*
X179501557Y-101411588D01*
X179405051Y-101222184D01*
X179405049Y-101222181D01*
X179405048Y-101222179D01*
X179280109Y-101050213D01*
X179129786Y-100899890D01*
X178957820Y-100774951D01*
X178957115Y-100774591D01*
X178949054Y-100770485D01*
X178898259Y-100722512D01*
X178881463Y-100654692D01*
X178903999Y-100588556D01*
X178949054Y-100549515D01*
X178957816Y-100545051D01*
X179064781Y-100467337D01*
X179129786Y-100420109D01*
X179129788Y-100420106D01*
X179129792Y-100420104D01*
X179280104Y-100269792D01*
X179280106Y-100269788D01*
X179280109Y-100269786D01*
X179405048Y-100097820D01*
X179405047Y-100097820D01*
X179405051Y-100097816D01*
X179501557Y-99908412D01*
X179567246Y-99706243D01*
X179600500Y-99496287D01*
X179600500Y-99283713D01*
X179567246Y-99073757D01*
X179501557Y-98871588D01*
X179405051Y-98682184D01*
X179405049Y-98682181D01*
X179405048Y-98682179D01*
X179280109Y-98510213D01*
X179129786Y-98359890D01*
X178957820Y-98234951D01*
X178957115Y-98234591D01*
X178949054Y-98230485D01*
X178898259Y-98182512D01*
X178881463Y-98114692D01*
X178903999Y-98048556D01*
X178949054Y-98009515D01*
X178957816Y-98005051D01*
X178993059Y-97979446D01*
X179129786Y-97880109D01*
X179129788Y-97880106D01*
X179129792Y-97880104D01*
X179280104Y-97729792D01*
X179280106Y-97729788D01*
X179280109Y-97729786D01*
X179405048Y-97557820D01*
X179405047Y-97557820D01*
X179405051Y-97557816D01*
X179501557Y-97368412D01*
X179567246Y-97166243D01*
X179600500Y-96956287D01*
X179600500Y-96743713D01*
X179567246Y-96533757D01*
X179501557Y-96331588D01*
X179405051Y-96142184D01*
X179405049Y-96142181D01*
X179405048Y-96142179D01*
X179280109Y-95970213D01*
X179129786Y-95819890D01*
X178957820Y-95694951D01*
X178768414Y-95598444D01*
X178768413Y-95598443D01*
X178768412Y-95598443D01*
X178566243Y-95532754D01*
X178566241Y-95532753D01*
X178566240Y-95532753D01*
X178386485Y-95504283D01*
X178356287Y-95499500D01*
X178143713Y-95499500D01*
X178113515Y-95504283D01*
X177933760Y-95532753D01*
X177731585Y-95598444D01*
X177542179Y-95694951D01*
X177370213Y-95819890D01*
X177219890Y-95970213D01*
X177094951Y-96142179D01*
X176998444Y-96331585D01*
X176998443Y-96331587D01*
X176998443Y-96331588D01*
X176985284Y-96372086D01*
X176932753Y-96533760D01*
X176899500Y-96743713D01*
X166413659Y-96743713D01*
X160664674Y-90994727D01*
X160664673Y-90994726D01*
X160558131Y-90923538D01*
X160558127Y-90923535D01*
X160558122Y-90923533D01*
X160439744Y-90874499D01*
X160439738Y-90874497D01*
X160314071Y-90849500D01*
X160314069Y-90849500D01*
X128685931Y-90849500D01*
X128685929Y-90849500D01*
X128560261Y-90874497D01*
X128560255Y-90874499D01*
X128441875Y-90923533D01*
X128441866Y-90923538D01*
X128335331Y-90994723D01*
X128335327Y-90994726D01*
X124764724Y-94565329D01*
X124751360Y-94585331D01*
X124693534Y-94671874D01*
X124644499Y-94790255D01*
X124644497Y-94790261D01*
X124619500Y-94915928D01*
X124619500Y-100467337D01*
X124599815Y-100534376D01*
X124568386Y-100567654D01*
X124520505Y-100602442D01*
X124520496Y-100602449D01*
X124392445Y-100730500D01*
X124392441Y-100730505D01*
X124286006Y-100877002D01*
X124203788Y-101038360D01*
X124203787Y-101038363D01*
X124147829Y-101210589D01*
X124119500Y-101389448D01*
X124119500Y-101570551D01*
X124147829Y-101749410D01*
X124203787Y-101921636D01*
X124203790Y-101921643D01*
X124236484Y-101985806D01*
X124250000Y-102042102D01*
X124250000Y-102469670D01*
X124230255Y-102449925D01*
X124144745Y-102400556D01*
X124049370Y-102375000D01*
X123950630Y-102375000D01*
X123855255Y-102400556D01*
X123769745Y-102449925D01*
X123750000Y-102469670D01*
X123750000Y-101600000D01*
X123302155Y-101600000D01*
X123242627Y-101606401D01*
X123242620Y-101606403D01*
X123107913Y-101656645D01*
X123107906Y-101656649D01*
X122992812Y-101742809D01*
X122992809Y-101742812D01*
X122906649Y-101857906D01*
X122906645Y-101857913D01*
X122856403Y-101992620D01*
X122856401Y-101992627D01*
X122850000Y-102052155D01*
X120750500Y-102052155D01*
X120750500Y-88713389D01*
X158299500Y-88713389D01*
X158299500Y-88886611D01*
X158326598Y-89057701D01*
X158380127Y-89222445D01*
X158458768Y-89376788D01*
X158560586Y-89516928D01*
X158683072Y-89639414D01*
X158823212Y-89741232D01*
X158977555Y-89819873D01*
X159142299Y-89873402D01*
X159313389Y-89900500D01*
X159313390Y-89900500D01*
X159486610Y-89900500D01*
X159486611Y-89900500D01*
X159657701Y-89873402D01*
X159822445Y-89819873D01*
X159822449Y-89819871D01*
X159833941Y-89814016D01*
X159890237Y-89800500D01*
X167852174Y-89800500D01*
X167890491Y-89806568D01*
X167909244Y-89812662D01*
X167942298Y-89823402D01*
X168027844Y-89836951D01*
X168113389Y-89850500D01*
X168113390Y-89850500D01*
X168286610Y-89850500D01*
X168286611Y-89850500D01*
X168457701Y-89823402D01*
X168622445Y-89769873D01*
X168776788Y-89691232D01*
X168916928Y-89589414D01*
X169039414Y-89466928D01*
X169141232Y-89326788D01*
X169219873Y-89172445D01*
X169273402Y-89007701D01*
X169300500Y-88836611D01*
X169300500Y-88663389D01*
X169273402Y-88492299D01*
X169219873Y-88327555D01*
X169141232Y-88173212D01*
X169039414Y-88033072D01*
X168916928Y-87910586D01*
X168776788Y-87808768D01*
X168622445Y-87730127D01*
X168457701Y-87676598D01*
X168457699Y-87676597D01*
X168457698Y-87676597D01*
X168326271Y-87655781D01*
X168286611Y-87649500D01*
X168113389Y-87649500D01*
X168092810Y-87652759D01*
X167942298Y-87676597D01*
X167896820Y-87691374D01*
X167890491Y-87693431D01*
X167852174Y-87699500D01*
X159553471Y-87699500D01*
X159553466Y-87699499D01*
X159346535Y-87699499D01*
X159346530Y-87699500D01*
X159313389Y-87699500D01*
X159273728Y-87705781D01*
X159142302Y-87726597D01*
X158977552Y-87780128D01*
X158823211Y-87858768D01*
X158751891Y-87910586D01*
X158683072Y-87960586D01*
X158683070Y-87960588D01*
X158683069Y-87960588D01*
X158560588Y-88083069D01*
X158560588Y-88083070D01*
X158560586Y-88083072D01*
X158516859Y-88143256D01*
X158458768Y-88223211D01*
X158380128Y-88377552D01*
X158326597Y-88542302D01*
X158307419Y-88663389D01*
X158299500Y-88713389D01*
X120750500Y-88713389D01*
X120750500Y-82497135D01*
X152007000Y-82497135D01*
X152007000Y-84592870D01*
X152007001Y-84592876D01*
X152013408Y-84652483D01*
X152063702Y-84787328D01*
X152063706Y-84787335D01*
X152149952Y-84902544D01*
X152149955Y-84902547D01*
X152265164Y-84988793D01*
X152265171Y-84988797D01*
X152400017Y-85039091D01*
X152400016Y-85039091D01*
X152406944Y-85039835D01*
X152459627Y-85045500D01*
X154460372Y-85045499D01*
X154519983Y-85039091D01*
X154654831Y-84988796D01*
X154770046Y-84902546D01*
X154856296Y-84787331D01*
X154866690Y-84759460D01*
X154908560Y-84703527D01*
X154974023Y-84679108D01*
X155042297Y-84693958D01*
X155055746Y-84702465D01*
X155238462Y-84835217D01*
X155370599Y-84902544D01*
X155442244Y-84939049D01*
X155659751Y-85009721D01*
X155659752Y-85009721D01*
X155659755Y-85009722D01*
X155885646Y-85045500D01*
X155885647Y-85045500D01*
X156114353Y-85045500D01*
X156114354Y-85045500D01*
X156340245Y-85009722D01*
X156340248Y-85009721D01*
X156340249Y-85009721D01*
X156557755Y-84939049D01*
X156557755Y-84939048D01*
X156557758Y-84939048D01*
X156761538Y-84835217D01*
X156946566Y-84700786D01*
X157108286Y-84539066D01*
X157169684Y-84454558D01*
X157225010Y-84411896D01*
X157294624Y-84405917D01*
X157356419Y-84438522D01*
X157370313Y-84454556D01*
X157431713Y-84539066D01*
X157593433Y-84700786D01*
X157778461Y-84835217D01*
X157910598Y-84902544D01*
X157982243Y-84939049D01*
X158199750Y-85009721D01*
X158199751Y-85009721D01*
X158199754Y-85009722D01*
X158425645Y-85045500D01*
X158425646Y-85045500D01*
X158654352Y-85045500D01*
X158654353Y-85045500D01*
X158880244Y-85009722D01*
X158880247Y-85009721D01*
X158880248Y-85009721D01*
X159097754Y-84939049D01*
X159097754Y-84939048D01*
X159097757Y-84939048D01*
X159301537Y-84835217D01*
X159486565Y-84700786D01*
X159648285Y-84539066D01*
X159782716Y-84354038D01*
X159886547Y-84150258D01*
X159957221Y-83932745D01*
X159992999Y-83706854D01*
X159992999Y-83383146D01*
X159957221Y-83157255D01*
X159957220Y-83157251D01*
X159957220Y-83157250D01*
X159886548Y-82939744D01*
X159782715Y-82735961D01*
X159648285Y-82550934D01*
X159486565Y-82389214D01*
X159301537Y-82254783D01*
X159097754Y-82150950D01*
X158880247Y-82080278D01*
X158694811Y-82050908D01*
X158654353Y-82044500D01*
X158425645Y-82044500D01*
X158385187Y-82050908D01*
X158199752Y-82080278D01*
X158199749Y-82080278D01*
X157982243Y-82150950D01*
X157778460Y-82254783D01*
X157712549Y-82302671D01*
X157593433Y-82389214D01*
X157593431Y-82389216D01*
X157593430Y-82389216D01*
X157431714Y-82550932D01*
X157370317Y-82635438D01*
X157314986Y-82678103D01*
X157245373Y-82684082D01*
X157183578Y-82651476D01*
X157169681Y-82635437D01*
X157108288Y-82550937D01*
X157108283Y-82550931D01*
X156946568Y-82389216D01*
X156946566Y-82389214D01*
X156761538Y-82254783D01*
X156557755Y-82150950D01*
X156340248Y-82080278D01*
X156154812Y-82050908D01*
X156114354Y-82044500D01*
X155885646Y-82044500D01*
X155845188Y-82050908D01*
X155659753Y-82080278D01*
X155659750Y-82080278D01*
X155442244Y-82150950D01*
X155238461Y-82254783D01*
X155055759Y-82387525D01*
X154989952Y-82411005D01*
X154921898Y-82395180D01*
X154873203Y-82345074D01*
X154866690Y-82330538D01*
X154856296Y-82302669D01*
X154856293Y-82302664D01*
X154770047Y-82187455D01*
X154770044Y-82187452D01*
X154654835Y-82101206D01*
X154654828Y-82101202D01*
X154519982Y-82050908D01*
X154519983Y-82050908D01*
X154460383Y-82044501D01*
X154460381Y-82044500D01*
X154460373Y-82044500D01*
X154460364Y-82044500D01*
X152459629Y-82044500D01*
X152459623Y-82044501D01*
X152400016Y-82050908D01*
X152265171Y-82101202D01*
X152265164Y-82101206D01*
X152149955Y-82187452D01*
X152149952Y-82187455D01*
X152063706Y-82302664D01*
X152063702Y-82302671D01*
X152013408Y-82437517D01*
X152007001Y-82497116D01*
X152007000Y-82497135D01*
X120750500Y-82497135D01*
X120750500Y-77712013D01*
X124200000Y-77712013D01*
X124200000Y-77947984D01*
X124230799Y-78181913D01*
X124291870Y-78409836D01*
X124382160Y-78627818D01*
X124382165Y-78627827D01*
X124500144Y-78832170D01*
X124500145Y-78832171D01*
X124562721Y-78913722D01*
X125398958Y-78077486D01*
X125423978Y-78137889D01*
X125495112Y-78244350D01*
X125585649Y-78334887D01*
X125692110Y-78406021D01*
X125752511Y-78431040D01*
X124916275Y-79267276D01*
X124997827Y-79329853D01*
X124997828Y-79329854D01*
X125202171Y-79447833D01*
X125202180Y-79447838D01*
X125420163Y-79538128D01*
X125420161Y-79538128D01*
X125648085Y-79599199D01*
X125882014Y-79629998D01*
X125882029Y-79629999D01*
X126117971Y-79629999D01*
X126117985Y-79629998D01*
X126351914Y-79599199D01*
X126579837Y-79538128D01*
X126797819Y-79447838D01*
X126797828Y-79447833D01*
X127002181Y-79329849D01*
X127083723Y-79267278D01*
X127083723Y-79267275D01*
X126247487Y-78431040D01*
X126307890Y-78406021D01*
X126414351Y-78334887D01*
X126504888Y-78244350D01*
X126576022Y-78137889D01*
X126601041Y-78077487D01*
X127437276Y-78913722D01*
X127437279Y-78913722D01*
X127499850Y-78832180D01*
X127617834Y-78627827D01*
X127617839Y-78627818D01*
X127708129Y-78409836D01*
X127769200Y-78181913D01*
X127799999Y-77947984D01*
X127800000Y-77947970D01*
X127800000Y-77712027D01*
X127799999Y-77712013D01*
X127769200Y-77478084D01*
X127708129Y-77250161D01*
X127617839Y-77032179D01*
X127617834Y-77032170D01*
X127499855Y-76827827D01*
X127499854Y-76827826D01*
X127437277Y-76746274D01*
X126601041Y-77582510D01*
X126576022Y-77522109D01*
X126504888Y-77415648D01*
X126414351Y-77325111D01*
X126307890Y-77253977D01*
X126247488Y-77228957D01*
X127083723Y-76392720D01*
X127002172Y-76330144D01*
X127002171Y-76330143D01*
X126797828Y-76212164D01*
X126797819Y-76212159D01*
X126579836Y-76121869D01*
X126579838Y-76121869D01*
X126556449Y-76115602D01*
X173399500Y-76115602D01*
X173399500Y-76384397D01*
X173434582Y-76650880D01*
X173434583Y-76650885D01*
X173434584Y-76650891D01*
X173434585Y-76650893D01*
X173504152Y-76910524D01*
X173607011Y-77158850D01*
X173607019Y-77158866D01*
X173687830Y-77298832D01*
X173741413Y-77391641D01*
X173741415Y-77391644D01*
X173741416Y-77391645D01*
X173905042Y-77604888D01*
X173905048Y-77604895D01*
X174095104Y-77794951D01*
X174095110Y-77794956D01*
X174308359Y-77958587D01*
X174457968Y-78044964D01*
X174541133Y-78092980D01*
X174541149Y-78092988D01*
X174649551Y-78137889D01*
X174789474Y-78195847D01*
X175049109Y-78265416D01*
X175237319Y-78290193D01*
X175315602Y-78300500D01*
X175315603Y-78300500D01*
X178084398Y-78300500D01*
X178144905Y-78292534D01*
X178350891Y-78265416D01*
X178610526Y-78195847D01*
X178797457Y-78118417D01*
X178858850Y-78092988D01*
X178858853Y-78092986D01*
X178858859Y-78092984D01*
X179091641Y-77958587D01*
X179304890Y-77794956D01*
X179494956Y-77604890D01*
X179658587Y-77391641D01*
X179792984Y-77158859D01*
X179895847Y-76910526D01*
X179965416Y-76650891D01*
X180000500Y-76384397D01*
X180000500Y-76115603D01*
X179965416Y-75849109D01*
X179895847Y-75589474D01*
X179857132Y-75496008D01*
X179792988Y-75341149D01*
X179792980Y-75341133D01*
X179732126Y-75235732D01*
X179658587Y-75108359D01*
X179494956Y-74895110D01*
X179494951Y-74895104D01*
X179304895Y-74705048D01*
X179304888Y-74705042D01*
X179091645Y-74541416D01*
X179091644Y-74541415D01*
X179091641Y-74541413D01*
X178998832Y-74487830D01*
X178858866Y-74407019D01*
X178858850Y-74407011D01*
X178610524Y-74304152D01*
X178480708Y-74269368D01*
X178350891Y-74234584D01*
X178350885Y-74234583D01*
X178350880Y-74234582D01*
X178084398Y-74199500D01*
X178084397Y-74199500D01*
X175315603Y-74199500D01*
X175315602Y-74199500D01*
X175049119Y-74234582D01*
X175049112Y-74234583D01*
X175049109Y-74234584D01*
X174994239Y-74249286D01*
X174789475Y-74304152D01*
X174541149Y-74407011D01*
X174541133Y-74407019D01*
X174308354Y-74541416D01*
X174095111Y-74705042D01*
X174095104Y-74705048D01*
X173905048Y-74895104D01*
X173905042Y-74895111D01*
X173741418Y-75108351D01*
X173635098Y-75292499D01*
X173635075Y-75292540D01*
X173607016Y-75341141D01*
X173601156Y-75355287D01*
X173601149Y-75355301D01*
X173504152Y-75589475D01*
X173434585Y-75849106D01*
X173434582Y-75849119D01*
X173399500Y-76115602D01*
X126556449Y-76115602D01*
X126351914Y-76060798D01*
X126117985Y-76029999D01*
X125882014Y-76029999D01*
X125648085Y-76060798D01*
X125420162Y-76121869D01*
X125202180Y-76212159D01*
X125202171Y-76212164D01*
X124997828Y-76330143D01*
X124997818Y-76330149D01*
X124916275Y-76392719D01*
X124916275Y-76392720D01*
X125752512Y-77228957D01*
X125692110Y-77253977D01*
X125585649Y-77325111D01*
X125495112Y-77415648D01*
X125423978Y-77522109D01*
X125398958Y-77582510D01*
X124562721Y-76746274D01*
X124562720Y-76746274D01*
X124500150Y-76827817D01*
X124500144Y-76827827D01*
X124382165Y-77032170D01*
X124382160Y-77032179D01*
X124291870Y-77250161D01*
X124230799Y-77478084D01*
X124200000Y-77712013D01*
X120750500Y-77712013D01*
X120750500Y-71648395D01*
X123899500Y-71648395D01*
X123899500Y-73851604D01*
X123914699Y-74005932D01*
X123914700Y-74005934D01*
X123974768Y-74203954D01*
X124072315Y-74386450D01*
X124106969Y-74428677D01*
X124203589Y-74546410D01*
X124300209Y-74625702D01*
X124363550Y-74677685D01*
X124546046Y-74775232D01*
X124744066Y-74835300D01*
X124744065Y-74835300D01*
X124782647Y-74839100D01*
X124898392Y-74850500D01*
X124898395Y-74850500D01*
X127101605Y-74850500D01*
X127101608Y-74850500D01*
X127255934Y-74835300D01*
X127453954Y-74775232D01*
X127636450Y-74677685D01*
X127796410Y-74546410D01*
X127927685Y-74386450D01*
X128025232Y-74203954D01*
X128085300Y-74005934D01*
X128100500Y-73851608D01*
X128100500Y-71997070D01*
X170374500Y-71997070D01*
X170374500Y-74502929D01*
X170414526Y-74755640D01*
X170493588Y-74998972D01*
X170493589Y-74998975D01*
X170609750Y-75226950D01*
X170760132Y-75433935D01*
X170760136Y-75433940D01*
X170941059Y-75614863D01*
X170941064Y-75614867D01*
X171121607Y-75746038D01*
X171148053Y-75765252D01*
X171297080Y-75841185D01*
X171376024Y-75881410D01*
X171376027Y-75881411D01*
X171497693Y-75920942D01*
X171619361Y-75960474D01*
X171872070Y-76000500D01*
X171872071Y-76000500D01*
X172127929Y-76000500D01*
X172127930Y-76000500D01*
X172380639Y-75960474D01*
X172623975Y-75881410D01*
X172851947Y-75765252D01*
X173058942Y-75614862D01*
X173239862Y-75433942D01*
X173390252Y-75226947D01*
X173506410Y-74998975D01*
X173585474Y-74755639D01*
X173625500Y-74502930D01*
X173625500Y-71997070D01*
X173585474Y-71744361D01*
X173506410Y-71501025D01*
X173506410Y-71501024D01*
X173466185Y-71422080D01*
X173390252Y-71273053D01*
X173274365Y-71113547D01*
X173239867Y-71066064D01*
X173239863Y-71066059D01*
X173058940Y-70885136D01*
X173058935Y-70885132D01*
X172851950Y-70734750D01*
X172851949Y-70734749D01*
X172851947Y-70734748D01*
X172714469Y-70664699D01*
X172623975Y-70618589D01*
X172623972Y-70618588D01*
X172507879Y-70580868D01*
X172380640Y-70539526D01*
X172254284Y-70519513D01*
X172127930Y-70499500D01*
X171872070Y-70499500D01*
X171787833Y-70512842D01*
X171619359Y-70539526D01*
X171376027Y-70618588D01*
X171376024Y-70618589D01*
X171148049Y-70734750D01*
X170941064Y-70885132D01*
X170941059Y-70885136D01*
X170760136Y-71066059D01*
X170760132Y-71066064D01*
X170609750Y-71273049D01*
X170493589Y-71501024D01*
X170493588Y-71501027D01*
X170414526Y-71744359D01*
X170374500Y-71997070D01*
X128100500Y-71997070D01*
X128100500Y-71648392D01*
X128085300Y-71494066D01*
X128025232Y-71296046D01*
X127927685Y-71113550D01*
X127875702Y-71050209D01*
X127796410Y-70953589D01*
X127636452Y-70822317D01*
X127636453Y-70822317D01*
X127636450Y-70822315D01*
X127453954Y-70724768D01*
X127255934Y-70664700D01*
X127255932Y-70664699D01*
X127255934Y-70664699D01*
X127136805Y-70652966D01*
X127101608Y-70649500D01*
X124898392Y-70649500D01*
X124860298Y-70653251D01*
X124744067Y-70664699D01*
X124546043Y-70724769D01*
X124435898Y-70783643D01*
X124363550Y-70822315D01*
X124363548Y-70822316D01*
X124363547Y-70822317D01*
X124203589Y-70953589D01*
X124072317Y-71113547D01*
X123974769Y-71296043D01*
X123914699Y-71494067D01*
X123899500Y-71648395D01*
X120750500Y-71648395D01*
X120750500Y-70000000D01*
X173969340Y-70000000D01*
X175266988Y-70000000D01*
X175234075Y-70057007D01*
X175200000Y-70184174D01*
X175200000Y-70315826D01*
X175234075Y-70442993D01*
X175266988Y-70500000D01*
X173969340Y-70500000D01*
X173990013Y-70630523D01*
X174069051Y-70873781D01*
X174069052Y-70873784D01*
X174185175Y-71101686D01*
X174335521Y-71308619D01*
X174516380Y-71489478D01*
X174723313Y-71639824D01*
X174951215Y-71755947D01*
X174951218Y-71755948D01*
X175194476Y-71834986D01*
X175447111Y-71875000D01*
X176450000Y-71875000D01*
X176450000Y-70750000D01*
X176950000Y-70750000D01*
X176950000Y-71875000D01*
X177952889Y-71875000D01*
X178205523Y-71834986D01*
X178448781Y-71755948D01*
X178448784Y-71755947D01*
X178676686Y-71639824D01*
X178883619Y-71489478D01*
X179064478Y-71308619D01*
X179214824Y-71101686D01*
X179330947Y-70873784D01*
X179330948Y-70873781D01*
X179409986Y-70630523D01*
X179430660Y-70500000D01*
X178133012Y-70500000D01*
X178165925Y-70442993D01*
X178200000Y-70315826D01*
X178200000Y-70184174D01*
X178165925Y-70057007D01*
X178133012Y-70000000D01*
X179430660Y-70000000D01*
X179409986Y-69869476D01*
X179330948Y-69626218D01*
X179330947Y-69626215D01*
X179214824Y-69398313D01*
X179064478Y-69191380D01*
X178883619Y-69010521D01*
X178676686Y-68860175D01*
X178448784Y-68744052D01*
X178448781Y-68744051D01*
X178205523Y-68665013D01*
X177952889Y-68625000D01*
X176950000Y-68625000D01*
X176950000Y-69750000D01*
X176450000Y-69750000D01*
X176450000Y-68625000D01*
X175447111Y-68625000D01*
X175194476Y-68665013D01*
X174951218Y-68744051D01*
X174951215Y-68744052D01*
X174723313Y-68860175D01*
X174516380Y-69010521D01*
X174335521Y-69191380D01*
X174185175Y-69398313D01*
X174069052Y-69626215D01*
X174069051Y-69626218D01*
X173990013Y-69869476D01*
X173969340Y-70000000D01*
X120750500Y-70000000D01*
X120750500Y-67439832D01*
X158364502Y-67439832D01*
X158364502Y-67715167D01*
X158364503Y-67715184D01*
X158400440Y-67988155D01*
X158400441Y-67988160D01*
X158400442Y-67988166D01*
X158425689Y-68082388D01*
X158471706Y-68254130D01*
X158577077Y-68508517D01*
X158577082Y-68508528D01*
X158644328Y-68625000D01*
X158714753Y-68746979D01*
X158714755Y-68746982D01*
X158714756Y-68746983D01*
X158882372Y-68965426D01*
X158882378Y-68965433D01*
X159077068Y-69160123D01*
X159077075Y-69160129D01*
X159154860Y-69219815D01*
X159295523Y-69327749D01*
X159448780Y-69416232D01*
X159533973Y-69465419D01*
X159533978Y-69465421D01*
X159533981Y-69465423D01*
X159788370Y-69570795D01*
X160054336Y-69642060D01*
X160327328Y-69678000D01*
X160327335Y-69678000D01*
X160602669Y-69678000D01*
X160602676Y-69678000D01*
X160875668Y-69642060D01*
X161141634Y-69570795D01*
X161396023Y-69465423D01*
X161634481Y-69327749D01*
X161852930Y-69160128D01*
X162047630Y-68965428D01*
X162215251Y-68746979D01*
X162352925Y-68508521D01*
X162458297Y-68254132D01*
X162529562Y-67988166D01*
X162565502Y-67715174D01*
X162565502Y-67439826D01*
X162529562Y-67166834D01*
X162458297Y-66900868D01*
X162352925Y-66646479D01*
X162352923Y-66646476D01*
X162352921Y-66646471D01*
X162289350Y-66536364D01*
X162287937Y-66533916D01*
X162255372Y-66477513D01*
X163745001Y-66477513D01*
X163745001Y-67327500D01*
X164945000Y-67327500D01*
X164919980Y-67387902D01*
X164895001Y-67513481D01*
X164895001Y-67641519D01*
X164919980Y-67767098D01*
X164945000Y-67827500D01*
X163745002Y-67827500D01*
X163745002Y-68677486D01*
X163755495Y-68780197D01*
X163810642Y-68946619D01*
X163810644Y-68946624D01*
X163902685Y-69095845D01*
X164026655Y-69219815D01*
X164175876Y-69311856D01*
X164175881Y-69311858D01*
X164342303Y-69367005D01*
X164342310Y-69367006D01*
X164445020Y-69377499D01*
X165295000Y-69377499D01*
X165295001Y-69377498D01*
X165295001Y-68177501D01*
X165355403Y-68202521D01*
X165480982Y-68227500D01*
X165609020Y-68227500D01*
X165734599Y-68202521D01*
X165795001Y-68177501D01*
X165795001Y-69377499D01*
X166644973Y-69377499D01*
X166644987Y-69377498D01*
X166747698Y-69367005D01*
X166914120Y-69311858D01*
X166914125Y-69311856D01*
X167063346Y-69219815D01*
X167187316Y-69095845D01*
X167279357Y-68946624D01*
X167279359Y-68946619D01*
X167334506Y-68780197D01*
X167334507Y-68780190D01*
X167345000Y-68677486D01*
X167345001Y-68677473D01*
X167345001Y-67827500D01*
X166145002Y-67827500D01*
X166170022Y-67767098D01*
X166195001Y-67641519D01*
X166195001Y-67513481D01*
X166170022Y-67387902D01*
X166145002Y-67327500D01*
X167345000Y-67327500D01*
X167345000Y-66477528D01*
X167344999Y-66477513D01*
X167334506Y-66374802D01*
X167279359Y-66208380D01*
X167279357Y-66208375D01*
X167187316Y-66059154D01*
X167063346Y-65935184D01*
X166914125Y-65843143D01*
X166914120Y-65843141D01*
X166747698Y-65787994D01*
X166747691Y-65787993D01*
X166644987Y-65777500D01*
X165795001Y-65777500D01*
X165795001Y-66977498D01*
X165734599Y-66952479D01*
X165609020Y-66927500D01*
X165480982Y-66927500D01*
X165355403Y-66952479D01*
X165295001Y-66977498D01*
X165295001Y-65777500D01*
X164445029Y-65777500D01*
X164445013Y-65777501D01*
X164342303Y-65787994D01*
X164175881Y-65843141D01*
X164175876Y-65843143D01*
X164026655Y-65935184D01*
X163902685Y-66059154D01*
X163810644Y-66208375D01*
X163810642Y-66208380D01*
X163755495Y-66374802D01*
X163755494Y-66374809D01*
X163745001Y-66477513D01*
X162255372Y-66477513D01*
X162215251Y-66408021D01*
X162047630Y-66189572D01*
X162047625Y-66189566D01*
X161852935Y-65994876D01*
X161852928Y-65994870D01*
X161634485Y-65827254D01*
X161634484Y-65827253D01*
X161634481Y-65827251D01*
X161539409Y-65772361D01*
X161396030Y-65689580D01*
X161396019Y-65689575D01*
X161141632Y-65584204D01*
X161008651Y-65548572D01*
X160875668Y-65512940D01*
X160875662Y-65512939D01*
X160875657Y-65512938D01*
X160602686Y-65477001D01*
X160602681Y-65477000D01*
X160602676Y-65477000D01*
X160327328Y-65477000D01*
X160327322Y-65477000D01*
X160327317Y-65477001D01*
X160054346Y-65512938D01*
X160054339Y-65512939D01*
X160054336Y-65512940D01*
X159998127Y-65528000D01*
X159788371Y-65584204D01*
X159533984Y-65689575D01*
X159533973Y-65689580D01*
X159295518Y-65827254D01*
X159077075Y-65994870D01*
X159077068Y-65994876D01*
X158882378Y-66189566D01*
X158882372Y-66189573D01*
X158714756Y-66408016D01*
X158577082Y-66646471D01*
X158577077Y-66646482D01*
X158471706Y-66900869D01*
X158415502Y-67110625D01*
X158401430Y-67163149D01*
X158400443Y-67166831D01*
X158400440Y-67166844D01*
X158364503Y-67439815D01*
X158364502Y-67439832D01*
X120750500Y-67439832D01*
X120750500Y-62124500D01*
X120770185Y-62057461D01*
X120822989Y-62011706D01*
X120874500Y-62000500D01*
X181875500Y-62000500D01*
X181942539Y-62020185D01*
G37*
%TD.AperFunction*%
%TD*%
M02*
