%TF.GenerationSoftware,KiCad,Pcbnew,9.0.1*%
%TF.CreationDate,2025-06-28T16:23:07-04:00*%
%TF.ProjectId,nixie-hvdc,6e697869-652d-4687-9664-632e6b696361,rev?*%
%TF.SameCoordinates,Original*%
%TF.FileFunction,Legend,Top*%
%TF.FilePolarity,Positive*%
%FSLAX46Y46*%
G04 Gerber Fmt 4.6, Leading zero omitted, Abs format (unit mm)*
G04 Created by KiCad (PCBNEW 9.0.1) date 2025-06-28 16:23:07*
%MOMM*%
%LPD*%
G01*
G04 APERTURE LIST*
G04 Aperture macros list*
%AMRoundRect*
0 Rectangle with rounded corners*
0 $1 Rounding radius*
0 $2 $3 $4 $5 $6 $7 $8 $9 X,Y pos of 4 corners*
0 Add a 4 corners polygon primitive as box body*
4,1,4,$2,$3,$4,$5,$6,$7,$8,$9,$2,$3,0*
0 Add four circle primitives for the rounded corners*
1,1,$1+$1,$2,$3*
1,1,$1+$1,$4,$5*
1,1,$1+$1,$6,$7*
1,1,$1+$1,$8,$9*
0 Add four rect primitives between the rounded corners*
20,1,$1+$1,$2,$3,$4,$5,0*
20,1,$1+$1,$4,$5,$6,$7,0*
20,1,$1+$1,$6,$7,$8,$9,0*
20,1,$1+$1,$8,$9,$2,$3,0*%
%AMOutline4P*
0 Free polygon, 4 corners , with rotation*
0 The origin of the aperture is its center*
0 number of corners: always 4*
0 $1 to $8 corner X, Y*
0 $9 Rotation angle, in degrees counterclockwise*
0 create outline with 4 corners*
4,1,4,$1,$2,$3,$4,$5,$6,$7,$8,$1,$2,$9*%
G04 Aperture macros list end*
%ADD10C,0.180000*%
%ADD11C,0.150000*%
%ADD12C,0.200000*%
%ADD13C,0.120000*%
%ADD14C,0.127000*%
%ADD15C,0.400000*%
%ADD16C,0.254000*%
%ADD17C,0.000000*%
%ADD18R,1.300000X1.300000*%
%ADD19C,1.300000*%
%ADD20RoundRect,0.250000X0.350000X0.450000X-0.350000X0.450000X-0.350000X-0.450000X0.350000X-0.450000X0*%
%ADD21O,5.204000X2.704000*%
%ADD22O,4.704000X2.454000*%
%ADD23O,2.454000X4.704000*%
%ADD24RoundRect,0.150000X-0.725000X-0.150000X0.725000X-0.150000X0.725000X0.150000X-0.725000X0.150000X0*%
%ADD25C,4.998720*%
%ADD26C,2.397760*%
%ADD27R,2.900000X5.400000*%
%ADD28RoundRect,0.250001X-0.872499X-1.044999X0.872499X-1.044999X0.872499X1.044999X-0.872499X1.044999X0*%
%ADD29R,2.000000X1.905000*%
%ADD30O,2.000000X1.905000*%
%ADD31RoundRect,0.250000X1.100000X-0.412500X1.100000X0.412500X-1.100000X0.412500X-1.100000X-0.412500X0*%
%ADD32RoundRect,0.250000X-0.450000X0.350000X-0.450000X-0.350000X0.450000X-0.350000X0.450000X0.350000X0*%
%ADD33Outline4P,-2.150000X-1.800000X2.150000X-0.800000X2.150000X0.800000X-2.150000X1.800000X90.000000*%
%ADD34Outline4P,-2.150000X-1.800000X2.150000X-0.800000X2.150000X0.800000X-2.150000X1.800000X270.000000*%
%ADD35RoundRect,0.250000X-1.050000X1.050000X-1.050000X-1.050000X1.050000X-1.050000X1.050000X1.050000X0*%
%ADD36C,2.600000*%
%ADD37RoundRect,0.250000X-0.400000X-0.625000X0.400000X-0.625000X0.400000X0.625000X-0.400000X0.625000X0*%
%ADD38RoundRect,0.250000X1.950000X1.000000X-1.950000X1.000000X-1.950000X-1.000000X1.950000X-1.000000X0*%
%ADD39RoundRect,0.250000X-0.475000X0.337500X-0.475000X-0.337500X0.475000X-0.337500X0.475000X0.337500X0*%
%ADD40R,1.200000X1.200000*%
%ADD41R,1.600000X1.500000*%
%ADD42RoundRect,0.250000X0.337500X0.475000X-0.337500X0.475000X-0.337500X-0.475000X0.337500X-0.475000X0*%
%ADD43RoundRect,0.250000X-0.350000X-0.450000X0.350000X-0.450000X0.350000X0.450000X-0.350000X0.450000X0*%
%ADD44R,1.700000X1.700000*%
%ADD45C,1.700000*%
%ADD46RoundRect,0.250000X1.050000X1.050000X-1.050000X1.050000X-1.050000X-1.050000X1.050000X-1.050000X0*%
G04 APERTURE END LIST*
D10*
X181046830Y-114750626D02*
X180999211Y-114845864D01*
X180999211Y-114845864D02*
X180951592Y-114893483D01*
X180951592Y-114893483D02*
X180856354Y-114941102D01*
X180856354Y-114941102D02*
X180808735Y-114941102D01*
X180808735Y-114941102D02*
X180713497Y-114893483D01*
X180713497Y-114893483D02*
X180665878Y-114845864D01*
X180665878Y-114845864D02*
X180618259Y-114750626D01*
X180618259Y-114750626D02*
X180618259Y-114560150D01*
X180618259Y-114560150D02*
X180665878Y-114464912D01*
X180665878Y-114464912D02*
X180713497Y-114417293D01*
X180713497Y-114417293D02*
X180808735Y-114369674D01*
X180808735Y-114369674D02*
X180856354Y-114369674D01*
X180856354Y-114369674D02*
X180951592Y-114417293D01*
X180951592Y-114417293D02*
X180999211Y-114464912D01*
X180999211Y-114464912D02*
X181046830Y-114560150D01*
X181046830Y-114560150D02*
X181046830Y-114750626D01*
X181046830Y-114750626D02*
X181094449Y-114845864D01*
X181094449Y-114845864D02*
X181142068Y-114893483D01*
X181142068Y-114893483D02*
X181237306Y-114941102D01*
X181237306Y-114941102D02*
X181427782Y-114941102D01*
X181427782Y-114941102D02*
X181523020Y-114893483D01*
X181523020Y-114893483D02*
X181570640Y-114845864D01*
X181570640Y-114845864D02*
X181618259Y-114750626D01*
X181618259Y-114750626D02*
X181618259Y-114560150D01*
X181618259Y-114560150D02*
X181570640Y-114464912D01*
X181570640Y-114464912D02*
X181523020Y-114417293D01*
X181523020Y-114417293D02*
X181427782Y-114369674D01*
X181427782Y-114369674D02*
X181237306Y-114369674D01*
X181237306Y-114369674D02*
X181142068Y-114417293D01*
X181142068Y-114417293D02*
X181094449Y-114464912D01*
X181094449Y-114464912D02*
X181046830Y-114560150D01*
X180618259Y-106667293D02*
X180618259Y-107143483D01*
X180618259Y-107143483D02*
X181094449Y-107191102D01*
X181094449Y-107191102D02*
X181046830Y-107143483D01*
X181046830Y-107143483D02*
X180999211Y-107048245D01*
X180999211Y-107048245D02*
X180999211Y-106810150D01*
X180999211Y-106810150D02*
X181046830Y-106714912D01*
X181046830Y-106714912D02*
X181094449Y-106667293D01*
X181094449Y-106667293D02*
X181189687Y-106619674D01*
X181189687Y-106619674D02*
X181427782Y-106619674D01*
X181427782Y-106619674D02*
X181523020Y-106667293D01*
X181523020Y-106667293D02*
X181570640Y-106714912D01*
X181570640Y-106714912D02*
X181618259Y-106810150D01*
X181618259Y-106810150D02*
X181618259Y-107048245D01*
X181618259Y-107048245D02*
X181570640Y-107143483D01*
X181570640Y-107143483D02*
X181523020Y-107191102D01*
X180618259Y-102238721D02*
X180618259Y-101619674D01*
X180618259Y-101619674D02*
X180999211Y-101953007D01*
X180999211Y-101953007D02*
X180999211Y-101810150D01*
X180999211Y-101810150D02*
X181046830Y-101714912D01*
X181046830Y-101714912D02*
X181094449Y-101667293D01*
X181094449Y-101667293D02*
X181189687Y-101619674D01*
X181189687Y-101619674D02*
X181427782Y-101619674D01*
X181427782Y-101619674D02*
X181523020Y-101667293D01*
X181523020Y-101667293D02*
X181570640Y-101714912D01*
X181570640Y-101714912D02*
X181618259Y-101810150D01*
X181618259Y-101810150D02*
X181618259Y-102095864D01*
X181618259Y-102095864D02*
X181570640Y-102191102D01*
X181570640Y-102191102D02*
X181523020Y-102238721D01*
X180618259Y-109214912D02*
X180618259Y-109405388D01*
X180618259Y-109405388D02*
X180665878Y-109500626D01*
X180665878Y-109500626D02*
X180713497Y-109548245D01*
X180713497Y-109548245D02*
X180856354Y-109643483D01*
X180856354Y-109643483D02*
X181046830Y-109691102D01*
X181046830Y-109691102D02*
X181427782Y-109691102D01*
X181427782Y-109691102D02*
X181523020Y-109643483D01*
X181523020Y-109643483D02*
X181570640Y-109595864D01*
X181570640Y-109595864D02*
X181618259Y-109500626D01*
X181618259Y-109500626D02*
X181618259Y-109310150D01*
X181618259Y-109310150D02*
X181570640Y-109214912D01*
X181570640Y-109214912D02*
X181523020Y-109167293D01*
X181523020Y-109167293D02*
X181427782Y-109119674D01*
X181427782Y-109119674D02*
X181189687Y-109119674D01*
X181189687Y-109119674D02*
X181094449Y-109167293D01*
X181094449Y-109167293D02*
X181046830Y-109214912D01*
X181046830Y-109214912D02*
X180999211Y-109310150D01*
X180999211Y-109310150D02*
X180999211Y-109500626D01*
X180999211Y-109500626D02*
X181046830Y-109595864D01*
X181046830Y-109595864D02*
X181094449Y-109643483D01*
X181094449Y-109643483D02*
X181189687Y-109691102D01*
X156868259Y-65619674D02*
X156868259Y-66191102D01*
X156868259Y-65905388D02*
X155868259Y-65905388D01*
X155868259Y-65905388D02*
X156011116Y-66000626D01*
X156011116Y-66000626D02*
X156106354Y-66095864D01*
X156106354Y-66095864D02*
X156153973Y-66191102D01*
X155963497Y-65238721D02*
X155915878Y-65191102D01*
X155915878Y-65191102D02*
X155868259Y-65095864D01*
X155868259Y-65095864D02*
X155868259Y-64857769D01*
X155868259Y-64857769D02*
X155915878Y-64762531D01*
X155915878Y-64762531D02*
X155963497Y-64714912D01*
X155963497Y-64714912D02*
X156058735Y-64667293D01*
X156058735Y-64667293D02*
X156153973Y-64667293D01*
X156153973Y-64667293D02*
X156296830Y-64714912D01*
X156296830Y-64714912D02*
X156868259Y-65286340D01*
X156868259Y-65286340D02*
X156868259Y-64667293D01*
X155868259Y-64381578D02*
X156868259Y-64048245D01*
X156868259Y-64048245D02*
X155868259Y-63714912D01*
X180713497Y-99441102D02*
X180665878Y-99393483D01*
X180665878Y-99393483D02*
X180618259Y-99298245D01*
X180618259Y-99298245D02*
X180618259Y-99060150D01*
X180618259Y-99060150D02*
X180665878Y-98964912D01*
X180665878Y-98964912D02*
X180713497Y-98917293D01*
X180713497Y-98917293D02*
X180808735Y-98869674D01*
X180808735Y-98869674D02*
X180903973Y-98869674D01*
X180903973Y-98869674D02*
X181046830Y-98917293D01*
X181046830Y-98917293D02*
X181618259Y-99488721D01*
X181618259Y-99488721D02*
X181618259Y-98869674D01*
X181618259Y-96369674D02*
X181618259Y-96941102D01*
X181618259Y-96655388D02*
X180618259Y-96655388D01*
X180618259Y-96655388D02*
X180761116Y-96750626D01*
X180761116Y-96750626D02*
X180856354Y-96845864D01*
X180856354Y-96845864D02*
X180903973Y-96941102D01*
X132881740Y-71856516D02*
X133881740Y-71856516D01*
X133405550Y-71856516D02*
X133405550Y-72427944D01*
X132881740Y-72427944D02*
X133881740Y-72427944D01*
X133881740Y-72761278D02*
X132881740Y-73094611D01*
X132881740Y-73094611D02*
X133881740Y-73427944D01*
X170084121Y-64380325D02*
X170131740Y-64285087D01*
X170131740Y-64285087D02*
X170131740Y-64142230D01*
X170131740Y-64142230D02*
X170084121Y-63999373D01*
X170084121Y-63999373D02*
X169988883Y-63904135D01*
X169988883Y-63904135D02*
X169893645Y-63856516D01*
X169893645Y-63856516D02*
X169703169Y-63808897D01*
X169703169Y-63808897D02*
X169560312Y-63808897D01*
X169560312Y-63808897D02*
X169369836Y-63856516D01*
X169369836Y-63856516D02*
X169274598Y-63904135D01*
X169274598Y-63904135D02*
X169179360Y-63999373D01*
X169179360Y-63999373D02*
X169131740Y-64142230D01*
X169131740Y-64142230D02*
X169131740Y-64237468D01*
X169131740Y-64237468D02*
X169179360Y-64380325D01*
X169179360Y-64380325D02*
X169226979Y-64427944D01*
X169226979Y-64427944D02*
X169560312Y-64427944D01*
X169560312Y-64427944D02*
X169560312Y-64237468D01*
X169131740Y-64856516D02*
X170131740Y-64856516D01*
X170131740Y-64856516D02*
X169131740Y-65427944D01*
X169131740Y-65427944D02*
X170131740Y-65427944D01*
X169131740Y-65904135D02*
X170131740Y-65904135D01*
X170131740Y-65904135D02*
X170131740Y-66142230D01*
X170131740Y-66142230D02*
X170084121Y-66285087D01*
X170084121Y-66285087D02*
X169988883Y-66380325D01*
X169988883Y-66380325D02*
X169893645Y-66427944D01*
X169893645Y-66427944D02*
X169703169Y-66475563D01*
X169703169Y-66475563D02*
X169560312Y-66475563D01*
X169560312Y-66475563D02*
X169369836Y-66427944D01*
X169369836Y-66427944D02*
X169274598Y-66380325D01*
X169274598Y-66380325D02*
X169179360Y-66285087D01*
X169179360Y-66285087D02*
X169131740Y-66142230D01*
X169131740Y-66142230D02*
X169131740Y-65904135D01*
X133584121Y-77130325D02*
X133631740Y-77035087D01*
X133631740Y-77035087D02*
X133631740Y-76892230D01*
X133631740Y-76892230D02*
X133584121Y-76749373D01*
X133584121Y-76749373D02*
X133488883Y-76654135D01*
X133488883Y-76654135D02*
X133393645Y-76606516D01*
X133393645Y-76606516D02*
X133203169Y-76558897D01*
X133203169Y-76558897D02*
X133060312Y-76558897D01*
X133060312Y-76558897D02*
X132869836Y-76606516D01*
X132869836Y-76606516D02*
X132774598Y-76654135D01*
X132774598Y-76654135D02*
X132679360Y-76749373D01*
X132679360Y-76749373D02*
X132631740Y-76892230D01*
X132631740Y-76892230D02*
X132631740Y-76987468D01*
X132631740Y-76987468D02*
X132679360Y-77130325D01*
X132679360Y-77130325D02*
X132726979Y-77177944D01*
X132726979Y-77177944D02*
X133060312Y-77177944D01*
X133060312Y-77177944D02*
X133060312Y-76987468D01*
X132631740Y-77606516D02*
X133631740Y-77606516D01*
X133631740Y-77606516D02*
X132631740Y-78177944D01*
X132631740Y-78177944D02*
X133631740Y-78177944D01*
X132631740Y-78654135D02*
X133631740Y-78654135D01*
X133631740Y-78654135D02*
X133631740Y-78892230D01*
X133631740Y-78892230D02*
X133584121Y-79035087D01*
X133584121Y-79035087D02*
X133488883Y-79130325D01*
X133488883Y-79130325D02*
X133393645Y-79177944D01*
X133393645Y-79177944D02*
X133203169Y-79225563D01*
X133203169Y-79225563D02*
X133060312Y-79225563D01*
X133060312Y-79225563D02*
X132869836Y-79177944D01*
X132869836Y-79177944D02*
X132774598Y-79130325D01*
X132774598Y-79130325D02*
X132679360Y-79035087D01*
X132679360Y-79035087D02*
X132631740Y-78892230D01*
X132631740Y-78892230D02*
X132631740Y-78654135D01*
X180951592Y-104214912D02*
X181618259Y-104214912D01*
X180570640Y-104453007D02*
X181284925Y-104691102D01*
X181284925Y-104691102D02*
X181284925Y-104072055D01*
X180618259Y-112488721D02*
X180618259Y-111822055D01*
X180618259Y-111822055D02*
X181618259Y-112250626D01*
X180618259Y-119953007D02*
X180618259Y-119857769D01*
X180618259Y-119857769D02*
X180665878Y-119762531D01*
X180665878Y-119762531D02*
X180713497Y-119714912D01*
X180713497Y-119714912D02*
X180808735Y-119667293D01*
X180808735Y-119667293D02*
X180999211Y-119619674D01*
X180999211Y-119619674D02*
X181237306Y-119619674D01*
X181237306Y-119619674D02*
X181427782Y-119667293D01*
X181427782Y-119667293D02*
X181523020Y-119714912D01*
X181523020Y-119714912D02*
X181570640Y-119762531D01*
X181570640Y-119762531D02*
X181618259Y-119857769D01*
X181618259Y-119857769D02*
X181618259Y-119953007D01*
X181618259Y-119953007D02*
X181570640Y-120048245D01*
X181570640Y-120048245D02*
X181523020Y-120095864D01*
X181523020Y-120095864D02*
X181427782Y-120143483D01*
X181427782Y-120143483D02*
X181237306Y-120191102D01*
X181237306Y-120191102D02*
X180999211Y-120191102D01*
X180999211Y-120191102D02*
X180808735Y-120143483D01*
X180808735Y-120143483D02*
X180713497Y-120095864D01*
X180713497Y-120095864D02*
X180665878Y-120048245D01*
X180665878Y-120048245D02*
X180618259Y-119953007D01*
X181618259Y-124167293D02*
X181618259Y-124643483D01*
X181618259Y-124643483D02*
X180618259Y-124643483D01*
X181618259Y-123833959D02*
X180618259Y-123833959D01*
X181094449Y-123833959D02*
X181094449Y-123262531D01*
X181618259Y-123262531D02*
X180618259Y-123262531D01*
X181618259Y-122786340D02*
X180618259Y-122786340D01*
X180618259Y-122786340D02*
X180618259Y-122548245D01*
X180618259Y-122548245D02*
X180665878Y-122405388D01*
X180665878Y-122405388D02*
X180761116Y-122310150D01*
X180761116Y-122310150D02*
X180856354Y-122262531D01*
X180856354Y-122262531D02*
X181046830Y-122214912D01*
X181046830Y-122214912D02*
X181189687Y-122214912D01*
X181189687Y-122214912D02*
X181380163Y-122262531D01*
X181380163Y-122262531D02*
X181475401Y-122310150D01*
X181475401Y-122310150D02*
X181570640Y-122405388D01*
X181570640Y-122405388D02*
X181618259Y-122548245D01*
X181618259Y-122548245D02*
X181618259Y-122786340D01*
X181618259Y-121786340D02*
X180618259Y-121786340D01*
X180618259Y-121786340D02*
X180618259Y-121405388D01*
X180618259Y-121405388D02*
X180665878Y-121310150D01*
X180665878Y-121310150D02*
X180713497Y-121262531D01*
X180713497Y-121262531D02*
X180808735Y-121214912D01*
X180808735Y-121214912D02*
X180951592Y-121214912D01*
X180951592Y-121214912D02*
X181046830Y-121262531D01*
X181046830Y-121262531D02*
X181094449Y-121310150D01*
X181094449Y-121310150D02*
X181142068Y-121405388D01*
X181142068Y-121405388D02*
X181142068Y-121786340D01*
X181618259Y-117345864D02*
X181618259Y-117155388D01*
X181618259Y-117155388D02*
X181570640Y-117060150D01*
X181570640Y-117060150D02*
X181523020Y-117012531D01*
X181523020Y-117012531D02*
X181380163Y-116917293D01*
X181380163Y-116917293D02*
X181189687Y-116869674D01*
X181189687Y-116869674D02*
X180808735Y-116869674D01*
X180808735Y-116869674D02*
X180713497Y-116917293D01*
X180713497Y-116917293D02*
X180665878Y-116964912D01*
X180665878Y-116964912D02*
X180618259Y-117060150D01*
X180618259Y-117060150D02*
X180618259Y-117250626D01*
X180618259Y-117250626D02*
X180665878Y-117345864D01*
X180665878Y-117345864D02*
X180713497Y-117393483D01*
X180713497Y-117393483D02*
X180808735Y-117441102D01*
X180808735Y-117441102D02*
X181046830Y-117441102D01*
X181046830Y-117441102D02*
X181142068Y-117393483D01*
X181142068Y-117393483D02*
X181189687Y-117345864D01*
X181189687Y-117345864D02*
X181237306Y-117250626D01*
X181237306Y-117250626D02*
X181237306Y-117060150D01*
X181237306Y-117060150D02*
X181189687Y-116964912D01*
X181189687Y-116964912D02*
X181142068Y-116917293D01*
X181142068Y-116917293D02*
X181046830Y-116869674D01*
D11*
X141404761Y-101050057D02*
X141309523Y-101002438D01*
X141309523Y-101002438D02*
X141214285Y-100907200D01*
X141214285Y-100907200D02*
X141071428Y-100764342D01*
X141071428Y-100764342D02*
X140976190Y-100716723D01*
X140976190Y-100716723D02*
X140880952Y-100716723D01*
X140928571Y-100954819D02*
X140833333Y-100907200D01*
X140833333Y-100907200D02*
X140738095Y-100811961D01*
X140738095Y-100811961D02*
X140690476Y-100621485D01*
X140690476Y-100621485D02*
X140690476Y-100288152D01*
X140690476Y-100288152D02*
X140738095Y-100097676D01*
X140738095Y-100097676D02*
X140833333Y-100002438D01*
X140833333Y-100002438D02*
X140928571Y-99954819D01*
X140928571Y-99954819D02*
X141119047Y-99954819D01*
X141119047Y-99954819D02*
X141214285Y-100002438D01*
X141214285Y-100002438D02*
X141309523Y-100097676D01*
X141309523Y-100097676D02*
X141357142Y-100288152D01*
X141357142Y-100288152D02*
X141357142Y-100621485D01*
X141357142Y-100621485D02*
X141309523Y-100811961D01*
X141309523Y-100811961D02*
X141214285Y-100907200D01*
X141214285Y-100907200D02*
X141119047Y-100954819D01*
X141119047Y-100954819D02*
X140928571Y-100954819D01*
X141833333Y-100954819D02*
X142023809Y-100954819D01*
X142023809Y-100954819D02*
X142119047Y-100907200D01*
X142119047Y-100907200D02*
X142166666Y-100859580D01*
X142166666Y-100859580D02*
X142261904Y-100716723D01*
X142261904Y-100716723D02*
X142309523Y-100526247D01*
X142309523Y-100526247D02*
X142309523Y-100145295D01*
X142309523Y-100145295D02*
X142261904Y-100050057D01*
X142261904Y-100050057D02*
X142214285Y-100002438D01*
X142214285Y-100002438D02*
X142119047Y-99954819D01*
X142119047Y-99954819D02*
X141928571Y-99954819D01*
X141928571Y-99954819D02*
X141833333Y-100002438D01*
X141833333Y-100002438D02*
X141785714Y-100050057D01*
X141785714Y-100050057D02*
X141738095Y-100145295D01*
X141738095Y-100145295D02*
X141738095Y-100383390D01*
X141738095Y-100383390D02*
X141785714Y-100478628D01*
X141785714Y-100478628D02*
X141833333Y-100526247D01*
X141833333Y-100526247D02*
X141928571Y-100573866D01*
X141928571Y-100573866D02*
X142119047Y-100573866D01*
X142119047Y-100573866D02*
X142214285Y-100526247D01*
X142214285Y-100526247D02*
X142261904Y-100478628D01*
X142261904Y-100478628D02*
X142309523Y-100383390D01*
X169407142Y-117254819D02*
X169073809Y-116778628D01*
X168835714Y-117254819D02*
X168835714Y-116254819D01*
X168835714Y-116254819D02*
X169216666Y-116254819D01*
X169216666Y-116254819D02*
X169311904Y-116302438D01*
X169311904Y-116302438D02*
X169359523Y-116350057D01*
X169359523Y-116350057D02*
X169407142Y-116445295D01*
X169407142Y-116445295D02*
X169407142Y-116588152D01*
X169407142Y-116588152D02*
X169359523Y-116683390D01*
X169359523Y-116683390D02*
X169311904Y-116731009D01*
X169311904Y-116731009D02*
X169216666Y-116778628D01*
X169216666Y-116778628D02*
X168835714Y-116778628D01*
X170359523Y-117254819D02*
X169788095Y-117254819D01*
X170073809Y-117254819D02*
X170073809Y-116254819D01*
X170073809Y-116254819D02*
X169978571Y-116397676D01*
X169978571Y-116397676D02*
X169883333Y-116492914D01*
X169883333Y-116492914D02*
X169788095Y-116540533D01*
X170978571Y-116254819D02*
X171073809Y-116254819D01*
X171073809Y-116254819D02*
X171169047Y-116302438D01*
X171169047Y-116302438D02*
X171216666Y-116350057D01*
X171216666Y-116350057D02*
X171264285Y-116445295D01*
X171264285Y-116445295D02*
X171311904Y-116635771D01*
X171311904Y-116635771D02*
X171311904Y-116873866D01*
X171311904Y-116873866D02*
X171264285Y-117064342D01*
X171264285Y-117064342D02*
X171216666Y-117159580D01*
X171216666Y-117159580D02*
X171169047Y-117207200D01*
X171169047Y-117207200D02*
X171073809Y-117254819D01*
X171073809Y-117254819D02*
X170978571Y-117254819D01*
X170978571Y-117254819D02*
X170883333Y-117207200D01*
X170883333Y-117207200D02*
X170835714Y-117159580D01*
X170835714Y-117159580D02*
X170788095Y-117064342D01*
X170788095Y-117064342D02*
X170740476Y-116873866D01*
X170740476Y-116873866D02*
X170740476Y-116635771D01*
X170740476Y-116635771D02*
X170788095Y-116445295D01*
X170788095Y-116445295D02*
X170835714Y-116350057D01*
X170835714Y-116350057D02*
X170883333Y-116302438D01*
X170883333Y-116302438D02*
X170978571Y-116254819D01*
X147654761Y-101050057D02*
X147559523Y-101002438D01*
X147559523Y-101002438D02*
X147464285Y-100907200D01*
X147464285Y-100907200D02*
X147321428Y-100764342D01*
X147321428Y-100764342D02*
X147226190Y-100716723D01*
X147226190Y-100716723D02*
X147130952Y-100716723D01*
X147178571Y-100954819D02*
X147083333Y-100907200D01*
X147083333Y-100907200D02*
X146988095Y-100811961D01*
X146988095Y-100811961D02*
X146940476Y-100621485D01*
X146940476Y-100621485D02*
X146940476Y-100288152D01*
X146940476Y-100288152D02*
X146988095Y-100097676D01*
X146988095Y-100097676D02*
X147083333Y-100002438D01*
X147083333Y-100002438D02*
X147178571Y-99954819D01*
X147178571Y-99954819D02*
X147369047Y-99954819D01*
X147369047Y-99954819D02*
X147464285Y-100002438D01*
X147464285Y-100002438D02*
X147559523Y-100097676D01*
X147559523Y-100097676D02*
X147607142Y-100288152D01*
X147607142Y-100288152D02*
X147607142Y-100621485D01*
X147607142Y-100621485D02*
X147559523Y-100811961D01*
X147559523Y-100811961D02*
X147464285Y-100907200D01*
X147464285Y-100907200D02*
X147369047Y-100954819D01*
X147369047Y-100954819D02*
X147178571Y-100954819D01*
X147988095Y-100050057D02*
X148035714Y-100002438D01*
X148035714Y-100002438D02*
X148130952Y-99954819D01*
X148130952Y-99954819D02*
X148369047Y-99954819D01*
X148369047Y-99954819D02*
X148464285Y-100002438D01*
X148464285Y-100002438D02*
X148511904Y-100050057D01*
X148511904Y-100050057D02*
X148559523Y-100145295D01*
X148559523Y-100145295D02*
X148559523Y-100240533D01*
X148559523Y-100240533D02*
X148511904Y-100383390D01*
X148511904Y-100383390D02*
X147940476Y-100954819D01*
X147940476Y-100954819D02*
X148559523Y-100954819D01*
X169385290Y-74096993D02*
X170100020Y-74096993D01*
X170100020Y-74096993D02*
X170242966Y-74144642D01*
X170242966Y-74144642D02*
X170338264Y-74239939D01*
X170338264Y-74239939D02*
X170385912Y-74382885D01*
X170385912Y-74382885D02*
X170385912Y-74478183D01*
X169480588Y-73668155D02*
X169432939Y-73620506D01*
X169432939Y-73620506D02*
X169385290Y-73525209D01*
X169385290Y-73525209D02*
X169385290Y-73286966D01*
X169385290Y-73286966D02*
X169432939Y-73191668D01*
X169432939Y-73191668D02*
X169480588Y-73144020D01*
X169480588Y-73144020D02*
X169575885Y-73096371D01*
X169575885Y-73096371D02*
X169671182Y-73096371D01*
X169671182Y-73096371D02*
X169814128Y-73144020D01*
X169814128Y-73144020D02*
X170385912Y-73715804D01*
X170385912Y-73715804D02*
X170385912Y-73096371D01*
X170333333Y-96954819D02*
X170000000Y-96478628D01*
X169761905Y-96954819D02*
X169761905Y-95954819D01*
X169761905Y-95954819D02*
X170142857Y-95954819D01*
X170142857Y-95954819D02*
X170238095Y-96002438D01*
X170238095Y-96002438D02*
X170285714Y-96050057D01*
X170285714Y-96050057D02*
X170333333Y-96145295D01*
X170333333Y-96145295D02*
X170333333Y-96288152D01*
X170333333Y-96288152D02*
X170285714Y-96383390D01*
X170285714Y-96383390D02*
X170238095Y-96431009D01*
X170238095Y-96431009D02*
X170142857Y-96478628D01*
X170142857Y-96478628D02*
X169761905Y-96478628D01*
X170666667Y-95954819D02*
X171285714Y-95954819D01*
X171285714Y-95954819D02*
X170952381Y-96335771D01*
X170952381Y-96335771D02*
X171095238Y-96335771D01*
X171095238Y-96335771D02*
X171190476Y-96383390D01*
X171190476Y-96383390D02*
X171238095Y-96431009D01*
X171238095Y-96431009D02*
X171285714Y-96526247D01*
X171285714Y-96526247D02*
X171285714Y-96764342D01*
X171285714Y-96764342D02*
X171238095Y-96859580D01*
X171238095Y-96859580D02*
X171190476Y-96907200D01*
X171190476Y-96907200D02*
X171095238Y-96954819D01*
X171095238Y-96954819D02*
X170809524Y-96954819D01*
X170809524Y-96954819D02*
X170714286Y-96907200D01*
X170714286Y-96907200D02*
X170666667Y-96859580D01*
X164738095Y-91954819D02*
X164738095Y-92764342D01*
X164738095Y-92764342D02*
X164785714Y-92859580D01*
X164785714Y-92859580D02*
X164833333Y-92907200D01*
X164833333Y-92907200D02*
X164928571Y-92954819D01*
X164928571Y-92954819D02*
X165119047Y-92954819D01*
X165119047Y-92954819D02*
X165214285Y-92907200D01*
X165214285Y-92907200D02*
X165261904Y-92859580D01*
X165261904Y-92859580D02*
X165309523Y-92764342D01*
X165309523Y-92764342D02*
X165309523Y-91954819D01*
X166309523Y-92954819D02*
X165738095Y-92954819D01*
X166023809Y-92954819D02*
X166023809Y-91954819D01*
X166023809Y-91954819D02*
X165928571Y-92097676D01*
X165928571Y-92097676D02*
X165833333Y-92192914D01*
X165833333Y-92192914D02*
X165738095Y-92240533D01*
X169657142Y-123054819D02*
X169323809Y-122578628D01*
X169085714Y-123054819D02*
X169085714Y-122054819D01*
X169085714Y-122054819D02*
X169466666Y-122054819D01*
X169466666Y-122054819D02*
X169561904Y-122102438D01*
X169561904Y-122102438D02*
X169609523Y-122150057D01*
X169609523Y-122150057D02*
X169657142Y-122245295D01*
X169657142Y-122245295D02*
X169657142Y-122388152D01*
X169657142Y-122388152D02*
X169609523Y-122483390D01*
X169609523Y-122483390D02*
X169561904Y-122531009D01*
X169561904Y-122531009D02*
X169466666Y-122578628D01*
X169466666Y-122578628D02*
X169085714Y-122578628D01*
X170609523Y-123054819D02*
X170038095Y-123054819D01*
X170323809Y-123054819D02*
X170323809Y-122054819D01*
X170323809Y-122054819D02*
X170228571Y-122197676D01*
X170228571Y-122197676D02*
X170133333Y-122292914D01*
X170133333Y-122292914D02*
X170038095Y-122340533D01*
X171561904Y-123054819D02*
X170990476Y-123054819D01*
X171276190Y-123054819D02*
X171276190Y-122054819D01*
X171276190Y-122054819D02*
X171180952Y-122197676D01*
X171180952Y-122197676D02*
X171085714Y-122292914D01*
X171085714Y-122292914D02*
X170990476Y-122340533D01*
D12*
X144495118Y-125049606D02*
X144495118Y-123779606D01*
X144495118Y-123779606D02*
X145220833Y-125049606D01*
X145220833Y-125049606D02*
X145220833Y-123779606D01*
X145704642Y-123779606D02*
X146551309Y-125049606D01*
X146551309Y-123779606D02*
X145704642Y-125049606D01*
X147700357Y-125049606D02*
X146974642Y-125049606D01*
X147337499Y-125049606D02*
X147337499Y-123779606D01*
X147337499Y-123779606D02*
X147216547Y-123961034D01*
X147216547Y-123961034D02*
X147095595Y-124081987D01*
X147095595Y-124081987D02*
X146974642Y-124142463D01*
D10*
X139947928Y-113731666D02*
X140008404Y-113550238D01*
X140008404Y-113550238D02*
X140068880Y-113489761D01*
X140068880Y-113489761D02*
X140189832Y-113429285D01*
X140189832Y-113429285D02*
X140371261Y-113429285D01*
X140371261Y-113429285D02*
X140492213Y-113489761D01*
X140492213Y-113489761D02*
X140552690Y-113550238D01*
X140552690Y-113550238D02*
X140613166Y-113671190D01*
X140613166Y-113671190D02*
X140613166Y-114155000D01*
X140613166Y-114155000D02*
X139343166Y-114155000D01*
X139343166Y-114155000D02*
X139343166Y-113731666D01*
X139343166Y-113731666D02*
X139403642Y-113610714D01*
X139403642Y-113610714D02*
X139464118Y-113550238D01*
X139464118Y-113550238D02*
X139585070Y-113489761D01*
X139585070Y-113489761D02*
X139706023Y-113489761D01*
X139706023Y-113489761D02*
X139826975Y-113550238D01*
X139826975Y-113550238D02*
X139887451Y-113610714D01*
X139887451Y-113610714D02*
X139947928Y-113731666D01*
X139947928Y-113731666D02*
X139947928Y-114155000D01*
X140613166Y-112703571D02*
X140552690Y-112824523D01*
X140552690Y-112824523D02*
X140492213Y-112885000D01*
X140492213Y-112885000D02*
X140371261Y-112945476D01*
X140371261Y-112945476D02*
X140008404Y-112945476D01*
X140008404Y-112945476D02*
X139887451Y-112885000D01*
X139887451Y-112885000D02*
X139826975Y-112824523D01*
X139826975Y-112824523D02*
X139766499Y-112703571D01*
X139766499Y-112703571D02*
X139766499Y-112522142D01*
X139766499Y-112522142D02*
X139826975Y-112401190D01*
X139826975Y-112401190D02*
X139887451Y-112340714D01*
X139887451Y-112340714D02*
X140008404Y-112280238D01*
X140008404Y-112280238D02*
X140371261Y-112280238D01*
X140371261Y-112280238D02*
X140492213Y-112340714D01*
X140492213Y-112340714D02*
X140552690Y-112401190D01*
X140552690Y-112401190D02*
X140613166Y-112522142D01*
X140613166Y-112522142D02*
X140613166Y-112703571D01*
X139766499Y-111917380D02*
X139766499Y-111433571D01*
X139343166Y-111735952D02*
X140431737Y-111735952D01*
X140431737Y-111735952D02*
X140552690Y-111675475D01*
X140552690Y-111675475D02*
X140613166Y-111554523D01*
X140613166Y-111554523D02*
X140613166Y-111433571D01*
X150773166Y-114396904D02*
X150773166Y-113671190D01*
X152043166Y-114034047D02*
X150773166Y-114034047D01*
X152043166Y-113066428D02*
X151982690Y-113187380D01*
X151982690Y-113187380D02*
X151922213Y-113247857D01*
X151922213Y-113247857D02*
X151801261Y-113308333D01*
X151801261Y-113308333D02*
X151438404Y-113308333D01*
X151438404Y-113308333D02*
X151317451Y-113247857D01*
X151317451Y-113247857D02*
X151256975Y-113187380D01*
X151256975Y-113187380D02*
X151196499Y-113066428D01*
X151196499Y-113066428D02*
X151196499Y-112884999D01*
X151196499Y-112884999D02*
X151256975Y-112764047D01*
X151256975Y-112764047D02*
X151317451Y-112703571D01*
X151317451Y-112703571D02*
X151438404Y-112643095D01*
X151438404Y-112643095D02*
X151801261Y-112643095D01*
X151801261Y-112643095D02*
X151922213Y-112703571D01*
X151922213Y-112703571D02*
X151982690Y-112764047D01*
X151982690Y-112764047D02*
X152043166Y-112884999D01*
X152043166Y-112884999D02*
X152043166Y-113066428D01*
X151196499Y-112098809D02*
X152466499Y-112098809D01*
X151256975Y-112098809D02*
X151196499Y-111977856D01*
X151196499Y-111977856D02*
X151196499Y-111735951D01*
X151196499Y-111735951D02*
X151256975Y-111614999D01*
X151256975Y-111614999D02*
X151317451Y-111554523D01*
X151317451Y-111554523D02*
X151438404Y-111494047D01*
X151438404Y-111494047D02*
X151801261Y-111494047D01*
X151801261Y-111494047D02*
X151922213Y-111554523D01*
X151922213Y-111554523D02*
X151982690Y-111614999D01*
X151982690Y-111614999D02*
X152043166Y-111735951D01*
X152043166Y-111735951D02*
X152043166Y-111977856D01*
X152043166Y-111977856D02*
X151982690Y-112098809D01*
D11*
X135404761Y-101050057D02*
X135309523Y-101002438D01*
X135309523Y-101002438D02*
X135214285Y-100907200D01*
X135214285Y-100907200D02*
X135071428Y-100764342D01*
X135071428Y-100764342D02*
X134976190Y-100716723D01*
X134976190Y-100716723D02*
X134880952Y-100716723D01*
X134928571Y-100954819D02*
X134833333Y-100907200D01*
X134833333Y-100907200D02*
X134738095Y-100811961D01*
X134738095Y-100811961D02*
X134690476Y-100621485D01*
X134690476Y-100621485D02*
X134690476Y-100288152D01*
X134690476Y-100288152D02*
X134738095Y-100097676D01*
X134738095Y-100097676D02*
X134833333Y-100002438D01*
X134833333Y-100002438D02*
X134928571Y-99954819D01*
X134928571Y-99954819D02*
X135119047Y-99954819D01*
X135119047Y-99954819D02*
X135214285Y-100002438D01*
X135214285Y-100002438D02*
X135309523Y-100097676D01*
X135309523Y-100097676D02*
X135357142Y-100288152D01*
X135357142Y-100288152D02*
X135357142Y-100621485D01*
X135357142Y-100621485D02*
X135309523Y-100811961D01*
X135309523Y-100811961D02*
X135214285Y-100907200D01*
X135214285Y-100907200D02*
X135119047Y-100954819D01*
X135119047Y-100954819D02*
X134928571Y-100954819D01*
X135690476Y-99954819D02*
X136357142Y-99954819D01*
X136357142Y-99954819D02*
X135928571Y-100954819D01*
X123654761Y-107300057D02*
X123559523Y-107252438D01*
X123559523Y-107252438D02*
X123464285Y-107157200D01*
X123464285Y-107157200D02*
X123321428Y-107014342D01*
X123321428Y-107014342D02*
X123226190Y-106966723D01*
X123226190Y-106966723D02*
X123130952Y-106966723D01*
X123178571Y-107204819D02*
X123083333Y-107157200D01*
X123083333Y-107157200D02*
X122988095Y-107061961D01*
X122988095Y-107061961D02*
X122940476Y-106871485D01*
X122940476Y-106871485D02*
X122940476Y-106538152D01*
X122940476Y-106538152D02*
X122988095Y-106347676D01*
X122988095Y-106347676D02*
X123083333Y-106252438D01*
X123083333Y-106252438D02*
X123178571Y-106204819D01*
X123178571Y-106204819D02*
X123369047Y-106204819D01*
X123369047Y-106204819D02*
X123464285Y-106252438D01*
X123464285Y-106252438D02*
X123559523Y-106347676D01*
X123559523Y-106347676D02*
X123607142Y-106538152D01*
X123607142Y-106538152D02*
X123607142Y-106871485D01*
X123607142Y-106871485D02*
X123559523Y-107061961D01*
X123559523Y-107061961D02*
X123464285Y-107157200D01*
X123464285Y-107157200D02*
X123369047Y-107204819D01*
X123369047Y-107204819D02*
X123178571Y-107204819D01*
X123940476Y-106204819D02*
X124559523Y-106204819D01*
X124559523Y-106204819D02*
X124226190Y-106585771D01*
X124226190Y-106585771D02*
X124369047Y-106585771D01*
X124369047Y-106585771D02*
X124464285Y-106633390D01*
X124464285Y-106633390D02*
X124511904Y-106681009D01*
X124511904Y-106681009D02*
X124559523Y-106776247D01*
X124559523Y-106776247D02*
X124559523Y-107014342D01*
X124559523Y-107014342D02*
X124511904Y-107109580D01*
X124511904Y-107109580D02*
X124464285Y-107157200D01*
X124464285Y-107157200D02*
X124369047Y-107204819D01*
X124369047Y-107204819D02*
X124083333Y-107204819D01*
X124083333Y-107204819D02*
X123988095Y-107157200D01*
X123988095Y-107157200D02*
X123940476Y-107109580D01*
X133404761Y-124550057D02*
X133309523Y-124502438D01*
X133309523Y-124502438D02*
X133214285Y-124407200D01*
X133214285Y-124407200D02*
X133071428Y-124264342D01*
X133071428Y-124264342D02*
X132976190Y-124216723D01*
X132976190Y-124216723D02*
X132880952Y-124216723D01*
X132928571Y-124454819D02*
X132833333Y-124407200D01*
X132833333Y-124407200D02*
X132738095Y-124311961D01*
X132738095Y-124311961D02*
X132690476Y-124121485D01*
X132690476Y-124121485D02*
X132690476Y-123788152D01*
X132690476Y-123788152D02*
X132738095Y-123597676D01*
X132738095Y-123597676D02*
X132833333Y-123502438D01*
X132833333Y-123502438D02*
X132928571Y-123454819D01*
X132928571Y-123454819D02*
X133119047Y-123454819D01*
X133119047Y-123454819D02*
X133214285Y-123502438D01*
X133214285Y-123502438D02*
X133309523Y-123597676D01*
X133309523Y-123597676D02*
X133357142Y-123788152D01*
X133357142Y-123788152D02*
X133357142Y-124121485D01*
X133357142Y-124121485D02*
X133309523Y-124311961D01*
X133309523Y-124311961D02*
X133214285Y-124407200D01*
X133214285Y-124407200D02*
X133119047Y-124454819D01*
X133119047Y-124454819D02*
X132928571Y-124454819D01*
X134309523Y-124454819D02*
X133738095Y-124454819D01*
X134023809Y-124454819D02*
X134023809Y-123454819D01*
X134023809Y-123454819D02*
X133928571Y-123597676D01*
X133928571Y-123597676D02*
X133833333Y-123692914D01*
X133833333Y-123692914D02*
X133738095Y-123740533D01*
X147033334Y-79304819D02*
X146557144Y-79304819D01*
X146557144Y-79304819D02*
X146557144Y-78304819D01*
X147890477Y-79304819D02*
X147319049Y-79304819D01*
X147604763Y-79304819D02*
X147604763Y-78304819D01*
X147604763Y-78304819D02*
X147509525Y-78447676D01*
X147509525Y-78447676D02*
X147414287Y-78542914D01*
X147414287Y-78542914D02*
X147319049Y-78590533D01*
X170133333Y-120454819D02*
X169800000Y-119978628D01*
X169561905Y-120454819D02*
X169561905Y-119454819D01*
X169561905Y-119454819D02*
X169942857Y-119454819D01*
X169942857Y-119454819D02*
X170038095Y-119502438D01*
X170038095Y-119502438D02*
X170085714Y-119550057D01*
X170085714Y-119550057D02*
X170133333Y-119645295D01*
X170133333Y-119645295D02*
X170133333Y-119788152D01*
X170133333Y-119788152D02*
X170085714Y-119883390D01*
X170085714Y-119883390D02*
X170038095Y-119931009D01*
X170038095Y-119931009D02*
X169942857Y-119978628D01*
X169942857Y-119978628D02*
X169561905Y-119978628D01*
X171085714Y-120454819D02*
X170514286Y-120454819D01*
X170800000Y-120454819D02*
X170800000Y-119454819D01*
X170800000Y-119454819D02*
X170704762Y-119597676D01*
X170704762Y-119597676D02*
X170609524Y-119692914D01*
X170609524Y-119692914D02*
X170514286Y-119740533D01*
X170333333Y-104954819D02*
X170000000Y-104478628D01*
X169761905Y-104954819D02*
X169761905Y-103954819D01*
X169761905Y-103954819D02*
X170142857Y-103954819D01*
X170142857Y-103954819D02*
X170238095Y-104002438D01*
X170238095Y-104002438D02*
X170285714Y-104050057D01*
X170285714Y-104050057D02*
X170333333Y-104145295D01*
X170333333Y-104145295D02*
X170333333Y-104288152D01*
X170333333Y-104288152D02*
X170285714Y-104383390D01*
X170285714Y-104383390D02*
X170238095Y-104431009D01*
X170238095Y-104431009D02*
X170142857Y-104478628D01*
X170142857Y-104478628D02*
X169761905Y-104478628D01*
X170809524Y-104954819D02*
X171000000Y-104954819D01*
X171000000Y-104954819D02*
X171095238Y-104907200D01*
X171095238Y-104907200D02*
X171142857Y-104859580D01*
X171142857Y-104859580D02*
X171238095Y-104716723D01*
X171238095Y-104716723D02*
X171285714Y-104526247D01*
X171285714Y-104526247D02*
X171285714Y-104145295D01*
X171285714Y-104145295D02*
X171238095Y-104050057D01*
X171238095Y-104050057D02*
X171190476Y-104002438D01*
X171190476Y-104002438D02*
X171095238Y-103954819D01*
X171095238Y-103954819D02*
X170904762Y-103954819D01*
X170904762Y-103954819D02*
X170809524Y-104002438D01*
X170809524Y-104002438D02*
X170761905Y-104050057D01*
X170761905Y-104050057D02*
X170714286Y-104145295D01*
X170714286Y-104145295D02*
X170714286Y-104383390D01*
X170714286Y-104383390D02*
X170761905Y-104478628D01*
X170761905Y-104478628D02*
X170809524Y-104526247D01*
X170809524Y-104526247D02*
X170904762Y-104573866D01*
X170904762Y-104573866D02*
X171095238Y-104573866D01*
X171095238Y-104573866D02*
X171190476Y-104526247D01*
X171190476Y-104526247D02*
X171238095Y-104478628D01*
X171238095Y-104478628D02*
X171285714Y-104383390D01*
X178390833Y-89159580D02*
X178343214Y-89207200D01*
X178343214Y-89207200D02*
X178200357Y-89254819D01*
X178200357Y-89254819D02*
X178105119Y-89254819D01*
X178105119Y-89254819D02*
X177962262Y-89207200D01*
X177962262Y-89207200D02*
X177867024Y-89111961D01*
X177867024Y-89111961D02*
X177819405Y-89016723D01*
X177819405Y-89016723D02*
X177771786Y-88826247D01*
X177771786Y-88826247D02*
X177771786Y-88683390D01*
X177771786Y-88683390D02*
X177819405Y-88492914D01*
X177819405Y-88492914D02*
X177867024Y-88397676D01*
X177867024Y-88397676D02*
X177962262Y-88302438D01*
X177962262Y-88302438D02*
X178105119Y-88254819D01*
X178105119Y-88254819D02*
X178200357Y-88254819D01*
X178200357Y-88254819D02*
X178343214Y-88302438D01*
X178343214Y-88302438D02*
X178390833Y-88350057D01*
X179343214Y-89254819D02*
X178771786Y-89254819D01*
X179057500Y-89254819D02*
X179057500Y-88254819D01*
X179057500Y-88254819D02*
X178962262Y-88397676D01*
X178962262Y-88397676D02*
X178867024Y-88492914D01*
X178867024Y-88492914D02*
X178771786Y-88540533D01*
X154550057Y-83071428D02*
X154502438Y-83166666D01*
X154502438Y-83166666D02*
X154407200Y-83261904D01*
X154407200Y-83261904D02*
X154264342Y-83404761D01*
X154264342Y-83404761D02*
X154216723Y-83499999D01*
X154216723Y-83499999D02*
X154216723Y-83595237D01*
X154454819Y-83547618D02*
X154407200Y-83642856D01*
X154407200Y-83642856D02*
X154311961Y-83738094D01*
X154311961Y-83738094D02*
X154121485Y-83785713D01*
X154121485Y-83785713D02*
X153788152Y-83785713D01*
X153788152Y-83785713D02*
X153597676Y-83738094D01*
X153597676Y-83738094D02*
X153502438Y-83642856D01*
X153502438Y-83642856D02*
X153454819Y-83547618D01*
X153454819Y-83547618D02*
X153454819Y-83357142D01*
X153454819Y-83357142D02*
X153502438Y-83261904D01*
X153502438Y-83261904D02*
X153597676Y-83166666D01*
X153597676Y-83166666D02*
X153788152Y-83119047D01*
X153788152Y-83119047D02*
X154121485Y-83119047D01*
X154121485Y-83119047D02*
X154311961Y-83166666D01*
X154311961Y-83166666D02*
X154407200Y-83261904D01*
X154407200Y-83261904D02*
X154454819Y-83357142D01*
X154454819Y-83357142D02*
X154454819Y-83547618D01*
X154454819Y-82166666D02*
X154454819Y-82738094D01*
X154454819Y-82452380D02*
X153454819Y-82452380D01*
X153454819Y-82452380D02*
X153597676Y-82547618D01*
X153597676Y-82547618D02*
X153692914Y-82642856D01*
X153692914Y-82642856D02*
X153740533Y-82738094D01*
X153550057Y-81785713D02*
X153502438Y-81738094D01*
X153502438Y-81738094D02*
X153454819Y-81642856D01*
X153454819Y-81642856D02*
X153454819Y-81404761D01*
X153454819Y-81404761D02*
X153502438Y-81309523D01*
X153502438Y-81309523D02*
X153550057Y-81261904D01*
X153550057Y-81261904D02*
X153645295Y-81214285D01*
X153645295Y-81214285D02*
X153740533Y-81214285D01*
X153740533Y-81214285D02*
X153883390Y-81261904D01*
X153883390Y-81261904D02*
X154454819Y-81833332D01*
X154454819Y-81833332D02*
X154454819Y-81214285D01*
X170333333Y-110054819D02*
X170000000Y-109578628D01*
X169761905Y-110054819D02*
X169761905Y-109054819D01*
X169761905Y-109054819D02*
X170142857Y-109054819D01*
X170142857Y-109054819D02*
X170238095Y-109102438D01*
X170238095Y-109102438D02*
X170285714Y-109150057D01*
X170285714Y-109150057D02*
X170333333Y-109245295D01*
X170333333Y-109245295D02*
X170333333Y-109388152D01*
X170333333Y-109388152D02*
X170285714Y-109483390D01*
X170285714Y-109483390D02*
X170238095Y-109531009D01*
X170238095Y-109531009D02*
X170142857Y-109578628D01*
X170142857Y-109578628D02*
X169761905Y-109578628D01*
X171190476Y-109388152D02*
X171190476Y-110054819D01*
X170952381Y-109007200D02*
X170714286Y-109721485D01*
X170714286Y-109721485D02*
X171333333Y-109721485D01*
X137609580Y-84666666D02*
X137657200Y-84714285D01*
X137657200Y-84714285D02*
X137704819Y-84857142D01*
X137704819Y-84857142D02*
X137704819Y-84952380D01*
X137704819Y-84952380D02*
X137657200Y-85095237D01*
X137657200Y-85095237D02*
X137561961Y-85190475D01*
X137561961Y-85190475D02*
X137466723Y-85238094D01*
X137466723Y-85238094D02*
X137276247Y-85285713D01*
X137276247Y-85285713D02*
X137133390Y-85285713D01*
X137133390Y-85285713D02*
X136942914Y-85238094D01*
X136942914Y-85238094D02*
X136847676Y-85190475D01*
X136847676Y-85190475D02*
X136752438Y-85095237D01*
X136752438Y-85095237D02*
X136704819Y-84952380D01*
X136704819Y-84952380D02*
X136704819Y-84857142D01*
X136704819Y-84857142D02*
X136752438Y-84714285D01*
X136752438Y-84714285D02*
X136800057Y-84666666D01*
X136704819Y-83761904D02*
X136704819Y-84238094D01*
X136704819Y-84238094D02*
X137181009Y-84285713D01*
X137181009Y-84285713D02*
X137133390Y-84238094D01*
X137133390Y-84238094D02*
X137085771Y-84142856D01*
X137085771Y-84142856D02*
X137085771Y-83904761D01*
X137085771Y-83904761D02*
X137133390Y-83809523D01*
X137133390Y-83809523D02*
X137181009Y-83761904D01*
X137181009Y-83761904D02*
X137276247Y-83714285D01*
X137276247Y-83714285D02*
X137514342Y-83714285D01*
X137514342Y-83714285D02*
X137609580Y-83761904D01*
X137609580Y-83761904D02*
X137657200Y-83809523D01*
X137657200Y-83809523D02*
X137704819Y-83904761D01*
X137704819Y-83904761D02*
X137704819Y-84142856D01*
X137704819Y-84142856D02*
X137657200Y-84238094D01*
X137657200Y-84238094D02*
X137609580Y-84285713D01*
X167860058Y-116075238D02*
X167812439Y-116170476D01*
X167812439Y-116170476D02*
X167717201Y-116265714D01*
X167717201Y-116265714D02*
X167574343Y-116408571D01*
X167574343Y-116408571D02*
X167526724Y-116503809D01*
X167526724Y-116503809D02*
X167526724Y-116599047D01*
X167764820Y-116551428D02*
X167717201Y-116646666D01*
X167717201Y-116646666D02*
X167621962Y-116741904D01*
X167621962Y-116741904D02*
X167431486Y-116789523D01*
X167431486Y-116789523D02*
X167098153Y-116789523D01*
X167098153Y-116789523D02*
X166907677Y-116741904D01*
X166907677Y-116741904D02*
X166812439Y-116646666D01*
X166812439Y-116646666D02*
X166764820Y-116551428D01*
X166764820Y-116551428D02*
X166764820Y-116360952D01*
X166764820Y-116360952D02*
X166812439Y-116265714D01*
X166812439Y-116265714D02*
X166907677Y-116170476D01*
X166907677Y-116170476D02*
X167098153Y-116122857D01*
X167098153Y-116122857D02*
X167431486Y-116122857D01*
X167431486Y-116122857D02*
X167621962Y-116170476D01*
X167621962Y-116170476D02*
X167717201Y-116265714D01*
X167717201Y-116265714D02*
X167764820Y-116360952D01*
X167764820Y-116360952D02*
X167764820Y-116551428D01*
X167193391Y-115551428D02*
X167145772Y-115646666D01*
X167145772Y-115646666D02*
X167098153Y-115694285D01*
X167098153Y-115694285D02*
X167002915Y-115741904D01*
X167002915Y-115741904D02*
X166955296Y-115741904D01*
X166955296Y-115741904D02*
X166860058Y-115694285D01*
X166860058Y-115694285D02*
X166812439Y-115646666D01*
X166812439Y-115646666D02*
X166764820Y-115551428D01*
X166764820Y-115551428D02*
X166764820Y-115360952D01*
X166764820Y-115360952D02*
X166812439Y-115265714D01*
X166812439Y-115265714D02*
X166860058Y-115218095D01*
X166860058Y-115218095D02*
X166955296Y-115170476D01*
X166955296Y-115170476D02*
X167002915Y-115170476D01*
X167002915Y-115170476D02*
X167098153Y-115218095D01*
X167098153Y-115218095D02*
X167145772Y-115265714D01*
X167145772Y-115265714D02*
X167193391Y-115360952D01*
X167193391Y-115360952D02*
X167193391Y-115551428D01*
X167193391Y-115551428D02*
X167241010Y-115646666D01*
X167241010Y-115646666D02*
X167288629Y-115694285D01*
X167288629Y-115694285D02*
X167383867Y-115741904D01*
X167383867Y-115741904D02*
X167574343Y-115741904D01*
X167574343Y-115741904D02*
X167669581Y-115694285D01*
X167669581Y-115694285D02*
X167717201Y-115646666D01*
X167717201Y-115646666D02*
X167764820Y-115551428D01*
X167764820Y-115551428D02*
X167764820Y-115360952D01*
X167764820Y-115360952D02*
X167717201Y-115265714D01*
X167717201Y-115265714D02*
X167669581Y-115218095D01*
X167669581Y-115218095D02*
X167574343Y-115170476D01*
X167574343Y-115170476D02*
X167383867Y-115170476D01*
X167383867Y-115170476D02*
X167288629Y-115218095D01*
X167288629Y-115218095D02*
X167241010Y-115265714D01*
X167241010Y-115265714D02*
X167193391Y-115360952D01*
X158607142Y-93704819D02*
X158273809Y-93228628D01*
X158035714Y-93704819D02*
X158035714Y-92704819D01*
X158035714Y-92704819D02*
X158416666Y-92704819D01*
X158416666Y-92704819D02*
X158511904Y-92752438D01*
X158511904Y-92752438D02*
X158559523Y-92800057D01*
X158559523Y-92800057D02*
X158607142Y-92895295D01*
X158607142Y-92895295D02*
X158607142Y-93038152D01*
X158607142Y-93038152D02*
X158559523Y-93133390D01*
X158559523Y-93133390D02*
X158511904Y-93181009D01*
X158511904Y-93181009D02*
X158416666Y-93228628D01*
X158416666Y-93228628D02*
X158035714Y-93228628D01*
X159559523Y-93704819D02*
X158988095Y-93704819D01*
X159273809Y-93704819D02*
X159273809Y-92704819D01*
X159273809Y-92704819D02*
X159178571Y-92847676D01*
X159178571Y-92847676D02*
X159083333Y-92942914D01*
X159083333Y-92942914D02*
X158988095Y-92990533D01*
X159892857Y-92704819D02*
X160511904Y-92704819D01*
X160511904Y-92704819D02*
X160178571Y-93085771D01*
X160178571Y-93085771D02*
X160321428Y-93085771D01*
X160321428Y-93085771D02*
X160416666Y-93133390D01*
X160416666Y-93133390D02*
X160464285Y-93181009D01*
X160464285Y-93181009D02*
X160511904Y-93276247D01*
X160511904Y-93276247D02*
X160511904Y-93514342D01*
X160511904Y-93514342D02*
X160464285Y-93609580D01*
X160464285Y-93609580D02*
X160416666Y-93657200D01*
X160416666Y-93657200D02*
X160321428Y-93704819D01*
X160321428Y-93704819D02*
X160035714Y-93704819D01*
X160035714Y-93704819D02*
X159940476Y-93657200D01*
X159940476Y-93657200D02*
X159892857Y-93609580D01*
X140661905Y-79954819D02*
X140661905Y-78954819D01*
X140661905Y-78954819D02*
X140900000Y-78954819D01*
X140900000Y-78954819D02*
X141042857Y-79002438D01*
X141042857Y-79002438D02*
X141138095Y-79097676D01*
X141138095Y-79097676D02*
X141185714Y-79192914D01*
X141185714Y-79192914D02*
X141233333Y-79383390D01*
X141233333Y-79383390D02*
X141233333Y-79526247D01*
X141233333Y-79526247D02*
X141185714Y-79716723D01*
X141185714Y-79716723D02*
X141138095Y-79811961D01*
X141138095Y-79811961D02*
X141042857Y-79907200D01*
X141042857Y-79907200D02*
X140900000Y-79954819D01*
X140900000Y-79954819D02*
X140661905Y-79954819D01*
X142185714Y-79954819D02*
X141614286Y-79954819D01*
X141900000Y-79954819D02*
X141900000Y-78954819D01*
X141900000Y-78954819D02*
X141804762Y-79097676D01*
X141804762Y-79097676D02*
X141709524Y-79192914D01*
X141709524Y-79192914D02*
X141614286Y-79240533D01*
X130666666Y-67999819D02*
X130666666Y-68714104D01*
X130666666Y-68714104D02*
X130619047Y-68856961D01*
X130619047Y-68856961D02*
X130523809Y-68952200D01*
X130523809Y-68952200D02*
X130380952Y-68999819D01*
X130380952Y-68999819D02*
X130285714Y-68999819D01*
X131571428Y-68333152D02*
X131571428Y-68999819D01*
X131333333Y-67952200D02*
X131095238Y-68666485D01*
X131095238Y-68666485D02*
X131714285Y-68666485D01*
X162671428Y-82254818D02*
X162338095Y-81778627D01*
X162100000Y-82254818D02*
X162100000Y-81254818D01*
X162100000Y-81254818D02*
X162480952Y-81254818D01*
X162480952Y-81254818D02*
X162576190Y-81302437D01*
X162576190Y-81302437D02*
X162623809Y-81350056D01*
X162623809Y-81350056D02*
X162671428Y-81445294D01*
X162671428Y-81445294D02*
X162671428Y-81588151D01*
X162671428Y-81588151D02*
X162623809Y-81683389D01*
X162623809Y-81683389D02*
X162576190Y-81731008D01*
X162576190Y-81731008D02*
X162480952Y-81778627D01*
X162480952Y-81778627D02*
X162100000Y-81778627D01*
X162861905Y-82350056D02*
X163623809Y-82350056D01*
X163814286Y-82207199D02*
X163957143Y-82254818D01*
X163957143Y-82254818D02*
X164195238Y-82254818D01*
X164195238Y-82254818D02*
X164290476Y-82207199D01*
X164290476Y-82207199D02*
X164338095Y-82159579D01*
X164338095Y-82159579D02*
X164385714Y-82064341D01*
X164385714Y-82064341D02*
X164385714Y-81969103D01*
X164385714Y-81969103D02*
X164338095Y-81873865D01*
X164338095Y-81873865D02*
X164290476Y-81826246D01*
X164290476Y-81826246D02*
X164195238Y-81778627D01*
X164195238Y-81778627D02*
X164004762Y-81731008D01*
X164004762Y-81731008D02*
X163909524Y-81683389D01*
X163909524Y-81683389D02*
X163861905Y-81635770D01*
X163861905Y-81635770D02*
X163814286Y-81540532D01*
X163814286Y-81540532D02*
X163814286Y-81445294D01*
X163814286Y-81445294D02*
X163861905Y-81350056D01*
X163861905Y-81350056D02*
X163909524Y-81302437D01*
X163909524Y-81302437D02*
X164004762Y-81254818D01*
X164004762Y-81254818D02*
X164242857Y-81254818D01*
X164242857Y-81254818D02*
X164385714Y-81302437D01*
X164814286Y-81731008D02*
X165147619Y-81731008D01*
X165290476Y-82254818D02*
X164814286Y-82254818D01*
X164814286Y-82254818D02*
X164814286Y-81254818D01*
X164814286Y-81254818D02*
X165290476Y-81254818D01*
X165719048Y-82254818D02*
X165719048Y-81254818D01*
X165719048Y-81254818D02*
X166290476Y-82254818D01*
X166290476Y-82254818D02*
X166290476Y-81254818D01*
X166719048Y-82207199D02*
X166861905Y-82254818D01*
X166861905Y-82254818D02*
X167100000Y-82254818D01*
X167100000Y-82254818D02*
X167195238Y-82207199D01*
X167195238Y-82207199D02*
X167242857Y-82159579D01*
X167242857Y-82159579D02*
X167290476Y-82064341D01*
X167290476Y-82064341D02*
X167290476Y-81969103D01*
X167290476Y-81969103D02*
X167242857Y-81873865D01*
X167242857Y-81873865D02*
X167195238Y-81826246D01*
X167195238Y-81826246D02*
X167100000Y-81778627D01*
X167100000Y-81778627D02*
X166909524Y-81731008D01*
X166909524Y-81731008D02*
X166814286Y-81683389D01*
X166814286Y-81683389D02*
X166766667Y-81635770D01*
X166766667Y-81635770D02*
X166719048Y-81540532D01*
X166719048Y-81540532D02*
X166719048Y-81445294D01*
X166719048Y-81445294D02*
X166766667Y-81350056D01*
X166766667Y-81350056D02*
X166814286Y-81302437D01*
X166814286Y-81302437D02*
X166909524Y-81254818D01*
X166909524Y-81254818D02*
X167147619Y-81254818D01*
X167147619Y-81254818D02*
X167290476Y-81302437D01*
X167719048Y-81731008D02*
X168052381Y-81731008D01*
X168195238Y-82254818D02*
X167719048Y-82254818D01*
X167719048Y-82254818D02*
X167719048Y-81254818D01*
X167719048Y-81254818D02*
X168195238Y-81254818D01*
X169147619Y-82254818D02*
X168576191Y-82254818D01*
X168861905Y-82254818D02*
X168861905Y-81254818D01*
X168861905Y-81254818D02*
X168766667Y-81397675D01*
X168766667Y-81397675D02*
X168671429Y-81492913D01*
X168671429Y-81492913D02*
X168576191Y-81540532D01*
X167860058Y-109345238D02*
X167812439Y-109440476D01*
X167812439Y-109440476D02*
X167717201Y-109535714D01*
X167717201Y-109535714D02*
X167574343Y-109678571D01*
X167574343Y-109678571D02*
X167526724Y-109773809D01*
X167526724Y-109773809D02*
X167526724Y-109869047D01*
X167764820Y-109821428D02*
X167717201Y-109916666D01*
X167717201Y-109916666D02*
X167621962Y-110011904D01*
X167621962Y-110011904D02*
X167431486Y-110059523D01*
X167431486Y-110059523D02*
X167098153Y-110059523D01*
X167098153Y-110059523D02*
X166907677Y-110011904D01*
X166907677Y-110011904D02*
X166812439Y-109916666D01*
X166812439Y-109916666D02*
X166764820Y-109821428D01*
X166764820Y-109821428D02*
X166764820Y-109630952D01*
X166764820Y-109630952D02*
X166812439Y-109535714D01*
X166812439Y-109535714D02*
X166907677Y-109440476D01*
X166907677Y-109440476D02*
X167098153Y-109392857D01*
X167098153Y-109392857D02*
X167431486Y-109392857D01*
X167431486Y-109392857D02*
X167621962Y-109440476D01*
X167621962Y-109440476D02*
X167717201Y-109535714D01*
X167717201Y-109535714D02*
X167764820Y-109630952D01*
X167764820Y-109630952D02*
X167764820Y-109821428D01*
X166764820Y-108535714D02*
X166764820Y-108726190D01*
X166764820Y-108726190D02*
X166812439Y-108821428D01*
X166812439Y-108821428D02*
X166860058Y-108869047D01*
X166860058Y-108869047D02*
X167002915Y-108964285D01*
X167002915Y-108964285D02*
X167193391Y-109011904D01*
X167193391Y-109011904D02*
X167574343Y-109011904D01*
X167574343Y-109011904D02*
X167669581Y-108964285D01*
X167669581Y-108964285D02*
X167717201Y-108916666D01*
X167717201Y-108916666D02*
X167764820Y-108821428D01*
X167764820Y-108821428D02*
X167764820Y-108630952D01*
X167764820Y-108630952D02*
X167717201Y-108535714D01*
X167717201Y-108535714D02*
X167669581Y-108488095D01*
X167669581Y-108488095D02*
X167574343Y-108440476D01*
X167574343Y-108440476D02*
X167336248Y-108440476D01*
X167336248Y-108440476D02*
X167241010Y-108488095D01*
X167241010Y-108488095D02*
X167193391Y-108535714D01*
X167193391Y-108535714D02*
X167145772Y-108630952D01*
X167145772Y-108630952D02*
X167145772Y-108821428D01*
X167145772Y-108821428D02*
X167193391Y-108916666D01*
X167193391Y-108916666D02*
X167241010Y-108964285D01*
X167241010Y-108964285D02*
X167336248Y-109011904D01*
X122559580Y-84916666D02*
X122607200Y-84964285D01*
X122607200Y-84964285D02*
X122654819Y-85107142D01*
X122654819Y-85107142D02*
X122654819Y-85202380D01*
X122654819Y-85202380D02*
X122607200Y-85345237D01*
X122607200Y-85345237D02*
X122511961Y-85440475D01*
X122511961Y-85440475D02*
X122416723Y-85488094D01*
X122416723Y-85488094D02*
X122226247Y-85535713D01*
X122226247Y-85535713D02*
X122083390Y-85535713D01*
X122083390Y-85535713D02*
X121892914Y-85488094D01*
X121892914Y-85488094D02*
X121797676Y-85440475D01*
X121797676Y-85440475D02*
X121702438Y-85345237D01*
X121702438Y-85345237D02*
X121654819Y-85202380D01*
X121654819Y-85202380D02*
X121654819Y-85107142D01*
X121654819Y-85107142D02*
X121702438Y-84964285D01*
X121702438Y-84964285D02*
X121750057Y-84916666D01*
X121988152Y-84059523D02*
X122654819Y-84059523D01*
X121607200Y-84297618D02*
X122321485Y-84535713D01*
X122321485Y-84535713D02*
X122321485Y-83916666D01*
X129654761Y-101050057D02*
X129559523Y-101002438D01*
X129559523Y-101002438D02*
X129464285Y-100907200D01*
X129464285Y-100907200D02*
X129321428Y-100764342D01*
X129321428Y-100764342D02*
X129226190Y-100716723D01*
X129226190Y-100716723D02*
X129130952Y-100716723D01*
X129178571Y-100954819D02*
X129083333Y-100907200D01*
X129083333Y-100907200D02*
X128988095Y-100811961D01*
X128988095Y-100811961D02*
X128940476Y-100621485D01*
X128940476Y-100621485D02*
X128940476Y-100288152D01*
X128940476Y-100288152D02*
X128988095Y-100097676D01*
X128988095Y-100097676D02*
X129083333Y-100002438D01*
X129083333Y-100002438D02*
X129178571Y-99954819D01*
X129178571Y-99954819D02*
X129369047Y-99954819D01*
X129369047Y-99954819D02*
X129464285Y-100002438D01*
X129464285Y-100002438D02*
X129559523Y-100097676D01*
X129559523Y-100097676D02*
X129607142Y-100288152D01*
X129607142Y-100288152D02*
X129607142Y-100621485D01*
X129607142Y-100621485D02*
X129559523Y-100811961D01*
X129559523Y-100811961D02*
X129464285Y-100907200D01*
X129464285Y-100907200D02*
X129369047Y-100954819D01*
X129369047Y-100954819D02*
X129178571Y-100954819D01*
X130511904Y-99954819D02*
X130035714Y-99954819D01*
X130035714Y-99954819D02*
X129988095Y-100431009D01*
X129988095Y-100431009D02*
X130035714Y-100383390D01*
X130035714Y-100383390D02*
X130130952Y-100335771D01*
X130130952Y-100335771D02*
X130369047Y-100335771D01*
X130369047Y-100335771D02*
X130464285Y-100383390D01*
X130464285Y-100383390D02*
X130511904Y-100431009D01*
X130511904Y-100431009D02*
X130559523Y-100526247D01*
X130559523Y-100526247D02*
X130559523Y-100764342D01*
X130559523Y-100764342D02*
X130511904Y-100859580D01*
X130511904Y-100859580D02*
X130464285Y-100907200D01*
X130464285Y-100907200D02*
X130369047Y-100954819D01*
X130369047Y-100954819D02*
X130130952Y-100954819D01*
X130130952Y-100954819D02*
X130035714Y-100907200D01*
X130035714Y-100907200D02*
X129988095Y-100859580D01*
X163359580Y-97379167D02*
X163407200Y-97426786D01*
X163407200Y-97426786D02*
X163454819Y-97569643D01*
X163454819Y-97569643D02*
X163454819Y-97664881D01*
X163454819Y-97664881D02*
X163407200Y-97807738D01*
X163407200Y-97807738D02*
X163311961Y-97902976D01*
X163311961Y-97902976D02*
X163216723Y-97950595D01*
X163216723Y-97950595D02*
X163026247Y-97998214D01*
X163026247Y-97998214D02*
X162883390Y-97998214D01*
X162883390Y-97998214D02*
X162692914Y-97950595D01*
X162692914Y-97950595D02*
X162597676Y-97902976D01*
X162597676Y-97902976D02*
X162502438Y-97807738D01*
X162502438Y-97807738D02*
X162454819Y-97664881D01*
X162454819Y-97664881D02*
X162454819Y-97569643D01*
X162454819Y-97569643D02*
X162502438Y-97426786D01*
X162502438Y-97426786D02*
X162550057Y-97379167D01*
X162454819Y-97045833D02*
X162454819Y-96426786D01*
X162454819Y-96426786D02*
X162835771Y-96760119D01*
X162835771Y-96760119D02*
X162835771Y-96617262D01*
X162835771Y-96617262D02*
X162883390Y-96522024D01*
X162883390Y-96522024D02*
X162931009Y-96474405D01*
X162931009Y-96474405D02*
X163026247Y-96426786D01*
X163026247Y-96426786D02*
X163264342Y-96426786D01*
X163264342Y-96426786D02*
X163359580Y-96474405D01*
X163359580Y-96474405D02*
X163407200Y-96522024D01*
X163407200Y-96522024D02*
X163454819Y-96617262D01*
X163454819Y-96617262D02*
X163454819Y-96902976D01*
X163454819Y-96902976D02*
X163407200Y-96998214D01*
X163407200Y-96998214D02*
X163359580Y-97045833D01*
X154654761Y-99204819D02*
X154321428Y-98728628D01*
X154083333Y-99204819D02*
X154083333Y-98204819D01*
X154083333Y-98204819D02*
X154464285Y-98204819D01*
X154464285Y-98204819D02*
X154559523Y-98252438D01*
X154559523Y-98252438D02*
X154607142Y-98300057D01*
X154607142Y-98300057D02*
X154654761Y-98395295D01*
X154654761Y-98395295D02*
X154654761Y-98538152D01*
X154654761Y-98538152D02*
X154607142Y-98633390D01*
X154607142Y-98633390D02*
X154559523Y-98681009D01*
X154559523Y-98681009D02*
X154464285Y-98728628D01*
X154464285Y-98728628D02*
X154083333Y-98728628D01*
X154940476Y-98204819D02*
X155273809Y-99204819D01*
X155273809Y-99204819D02*
X155607142Y-98204819D01*
X156464285Y-99204819D02*
X155892857Y-99204819D01*
X156178571Y-99204819D02*
X156178571Y-98204819D01*
X156178571Y-98204819D02*
X156083333Y-98347676D01*
X156083333Y-98347676D02*
X155988095Y-98442914D01*
X155988095Y-98442914D02*
X155892857Y-98490533D01*
X150590833Y-87929580D02*
X150543214Y-87977200D01*
X150543214Y-87977200D02*
X150400357Y-88024819D01*
X150400357Y-88024819D02*
X150305119Y-88024819D01*
X150305119Y-88024819D02*
X150162262Y-87977200D01*
X150162262Y-87977200D02*
X150067024Y-87881961D01*
X150067024Y-87881961D02*
X150019405Y-87786723D01*
X150019405Y-87786723D02*
X149971786Y-87596247D01*
X149971786Y-87596247D02*
X149971786Y-87453390D01*
X149971786Y-87453390D02*
X150019405Y-87262914D01*
X150019405Y-87262914D02*
X150067024Y-87167676D01*
X150067024Y-87167676D02*
X150162262Y-87072438D01*
X150162262Y-87072438D02*
X150305119Y-87024819D01*
X150305119Y-87024819D02*
X150400357Y-87024819D01*
X150400357Y-87024819D02*
X150543214Y-87072438D01*
X150543214Y-87072438D02*
X150590833Y-87120057D01*
X150971786Y-87120057D02*
X151019405Y-87072438D01*
X151019405Y-87072438D02*
X151114643Y-87024819D01*
X151114643Y-87024819D02*
X151352738Y-87024819D01*
X151352738Y-87024819D02*
X151447976Y-87072438D01*
X151447976Y-87072438D02*
X151495595Y-87120057D01*
X151495595Y-87120057D02*
X151543214Y-87215295D01*
X151543214Y-87215295D02*
X151543214Y-87310533D01*
X151543214Y-87310533D02*
X151495595Y-87453390D01*
X151495595Y-87453390D02*
X150924167Y-88024819D01*
X150924167Y-88024819D02*
X151543214Y-88024819D01*
X170383333Y-115254819D02*
X170050000Y-114778628D01*
X169811905Y-115254819D02*
X169811905Y-114254819D01*
X169811905Y-114254819D02*
X170192857Y-114254819D01*
X170192857Y-114254819D02*
X170288095Y-114302438D01*
X170288095Y-114302438D02*
X170335714Y-114350057D01*
X170335714Y-114350057D02*
X170383333Y-114445295D01*
X170383333Y-114445295D02*
X170383333Y-114588152D01*
X170383333Y-114588152D02*
X170335714Y-114683390D01*
X170335714Y-114683390D02*
X170288095Y-114731009D01*
X170288095Y-114731009D02*
X170192857Y-114778628D01*
X170192857Y-114778628D02*
X169811905Y-114778628D01*
X170954762Y-114683390D02*
X170859524Y-114635771D01*
X170859524Y-114635771D02*
X170811905Y-114588152D01*
X170811905Y-114588152D02*
X170764286Y-114492914D01*
X170764286Y-114492914D02*
X170764286Y-114445295D01*
X170764286Y-114445295D02*
X170811905Y-114350057D01*
X170811905Y-114350057D02*
X170859524Y-114302438D01*
X170859524Y-114302438D02*
X170954762Y-114254819D01*
X170954762Y-114254819D02*
X171145238Y-114254819D01*
X171145238Y-114254819D02*
X171240476Y-114302438D01*
X171240476Y-114302438D02*
X171288095Y-114350057D01*
X171288095Y-114350057D02*
X171335714Y-114445295D01*
X171335714Y-114445295D02*
X171335714Y-114492914D01*
X171335714Y-114492914D02*
X171288095Y-114588152D01*
X171288095Y-114588152D02*
X171240476Y-114635771D01*
X171240476Y-114635771D02*
X171145238Y-114683390D01*
X171145238Y-114683390D02*
X170954762Y-114683390D01*
X170954762Y-114683390D02*
X170859524Y-114731009D01*
X170859524Y-114731009D02*
X170811905Y-114778628D01*
X170811905Y-114778628D02*
X170764286Y-114873866D01*
X170764286Y-114873866D02*
X170764286Y-115064342D01*
X170764286Y-115064342D02*
X170811905Y-115159580D01*
X170811905Y-115159580D02*
X170859524Y-115207200D01*
X170859524Y-115207200D02*
X170954762Y-115254819D01*
X170954762Y-115254819D02*
X171145238Y-115254819D01*
X171145238Y-115254819D02*
X171240476Y-115207200D01*
X171240476Y-115207200D02*
X171288095Y-115159580D01*
X171288095Y-115159580D02*
X171335714Y-115064342D01*
X171335714Y-115064342D02*
X171335714Y-114873866D01*
X171335714Y-114873866D02*
X171288095Y-114778628D01*
X171288095Y-114778628D02*
X171240476Y-114731009D01*
X171240476Y-114731009D02*
X171145238Y-114683390D01*
X122678571Y-114050057D02*
X122583333Y-114002438D01*
X122583333Y-114002438D02*
X122488095Y-113907200D01*
X122488095Y-113907200D02*
X122345238Y-113764342D01*
X122345238Y-113764342D02*
X122250000Y-113716723D01*
X122250000Y-113716723D02*
X122154762Y-113716723D01*
X122202381Y-113954819D02*
X122107143Y-113907200D01*
X122107143Y-113907200D02*
X122011905Y-113811961D01*
X122011905Y-113811961D02*
X121964286Y-113621485D01*
X121964286Y-113621485D02*
X121964286Y-113288152D01*
X121964286Y-113288152D02*
X122011905Y-113097676D01*
X122011905Y-113097676D02*
X122107143Y-113002438D01*
X122107143Y-113002438D02*
X122202381Y-112954819D01*
X122202381Y-112954819D02*
X122392857Y-112954819D01*
X122392857Y-112954819D02*
X122488095Y-113002438D01*
X122488095Y-113002438D02*
X122583333Y-113097676D01*
X122583333Y-113097676D02*
X122630952Y-113288152D01*
X122630952Y-113288152D02*
X122630952Y-113621485D01*
X122630952Y-113621485D02*
X122583333Y-113811961D01*
X122583333Y-113811961D02*
X122488095Y-113907200D01*
X122488095Y-113907200D02*
X122392857Y-113954819D01*
X122392857Y-113954819D02*
X122202381Y-113954819D01*
X123583333Y-113954819D02*
X123011905Y-113954819D01*
X123297619Y-113954819D02*
X123297619Y-112954819D01*
X123297619Y-112954819D02*
X123202381Y-113097676D01*
X123202381Y-113097676D02*
X123107143Y-113192914D01*
X123107143Y-113192914D02*
X123011905Y-113240533D01*
X124535714Y-113954819D02*
X123964286Y-113954819D01*
X124250000Y-113954819D02*
X124250000Y-112954819D01*
X124250000Y-112954819D02*
X124154762Y-113097676D01*
X124154762Y-113097676D02*
X124059524Y-113192914D01*
X124059524Y-113192914D02*
X123964286Y-113240533D01*
X170383333Y-112654819D02*
X170050000Y-112178628D01*
X169811905Y-112654819D02*
X169811905Y-111654819D01*
X169811905Y-111654819D02*
X170192857Y-111654819D01*
X170192857Y-111654819D02*
X170288095Y-111702438D01*
X170288095Y-111702438D02*
X170335714Y-111750057D01*
X170335714Y-111750057D02*
X170383333Y-111845295D01*
X170383333Y-111845295D02*
X170383333Y-111988152D01*
X170383333Y-111988152D02*
X170335714Y-112083390D01*
X170335714Y-112083390D02*
X170288095Y-112131009D01*
X170288095Y-112131009D02*
X170192857Y-112178628D01*
X170192857Y-112178628D02*
X169811905Y-112178628D01*
X171240476Y-111654819D02*
X171050000Y-111654819D01*
X171050000Y-111654819D02*
X170954762Y-111702438D01*
X170954762Y-111702438D02*
X170907143Y-111750057D01*
X170907143Y-111750057D02*
X170811905Y-111892914D01*
X170811905Y-111892914D02*
X170764286Y-112083390D01*
X170764286Y-112083390D02*
X170764286Y-112464342D01*
X170764286Y-112464342D02*
X170811905Y-112559580D01*
X170811905Y-112559580D02*
X170859524Y-112607200D01*
X170859524Y-112607200D02*
X170954762Y-112654819D01*
X170954762Y-112654819D02*
X171145238Y-112654819D01*
X171145238Y-112654819D02*
X171240476Y-112607200D01*
X171240476Y-112607200D02*
X171288095Y-112559580D01*
X171288095Y-112559580D02*
X171335714Y-112464342D01*
X171335714Y-112464342D02*
X171335714Y-112226247D01*
X171335714Y-112226247D02*
X171288095Y-112131009D01*
X171288095Y-112131009D02*
X171240476Y-112083390D01*
X171240476Y-112083390D02*
X171145238Y-112035771D01*
X171145238Y-112035771D02*
X170954762Y-112035771D01*
X170954762Y-112035771D02*
X170859524Y-112083390D01*
X170859524Y-112083390D02*
X170811905Y-112131009D01*
X170811905Y-112131009D02*
X170764286Y-112226247D01*
X149569642Y-90954819D02*
X149236309Y-90478628D01*
X148998214Y-90954819D02*
X148998214Y-89954819D01*
X148998214Y-89954819D02*
X149379166Y-89954819D01*
X149379166Y-89954819D02*
X149474404Y-90002438D01*
X149474404Y-90002438D02*
X149522023Y-90050057D01*
X149522023Y-90050057D02*
X149569642Y-90145295D01*
X149569642Y-90145295D02*
X149569642Y-90288152D01*
X149569642Y-90288152D02*
X149522023Y-90383390D01*
X149522023Y-90383390D02*
X149474404Y-90431009D01*
X149474404Y-90431009D02*
X149379166Y-90478628D01*
X149379166Y-90478628D02*
X148998214Y-90478628D01*
X150522023Y-90954819D02*
X149950595Y-90954819D01*
X150236309Y-90954819D02*
X150236309Y-89954819D01*
X150236309Y-89954819D02*
X150141071Y-90097676D01*
X150141071Y-90097676D02*
X150045833Y-90192914D01*
X150045833Y-90192914D02*
X149950595Y-90240533D01*
X150902976Y-90050057D02*
X150950595Y-90002438D01*
X150950595Y-90002438D02*
X151045833Y-89954819D01*
X151045833Y-89954819D02*
X151283928Y-89954819D01*
X151283928Y-89954819D02*
X151379166Y-90002438D01*
X151379166Y-90002438D02*
X151426785Y-90050057D01*
X151426785Y-90050057D02*
X151474404Y-90145295D01*
X151474404Y-90145295D02*
X151474404Y-90240533D01*
X151474404Y-90240533D02*
X151426785Y-90383390D01*
X151426785Y-90383390D02*
X150855357Y-90954819D01*
X150855357Y-90954819D02*
X151474404Y-90954819D01*
X170333333Y-107454819D02*
X170000000Y-106978628D01*
X169761905Y-107454819D02*
X169761905Y-106454819D01*
X169761905Y-106454819D02*
X170142857Y-106454819D01*
X170142857Y-106454819D02*
X170238095Y-106502438D01*
X170238095Y-106502438D02*
X170285714Y-106550057D01*
X170285714Y-106550057D02*
X170333333Y-106645295D01*
X170333333Y-106645295D02*
X170333333Y-106788152D01*
X170333333Y-106788152D02*
X170285714Y-106883390D01*
X170285714Y-106883390D02*
X170238095Y-106931009D01*
X170238095Y-106931009D02*
X170142857Y-106978628D01*
X170142857Y-106978628D02*
X169761905Y-106978628D01*
X170714286Y-106550057D02*
X170761905Y-106502438D01*
X170761905Y-106502438D02*
X170857143Y-106454819D01*
X170857143Y-106454819D02*
X171095238Y-106454819D01*
X171095238Y-106454819D02*
X171190476Y-106502438D01*
X171190476Y-106502438D02*
X171238095Y-106550057D01*
X171238095Y-106550057D02*
X171285714Y-106645295D01*
X171285714Y-106645295D02*
X171285714Y-106740533D01*
X171285714Y-106740533D02*
X171238095Y-106883390D01*
X171238095Y-106883390D02*
X170666667Y-107454819D01*
X170666667Y-107454819D02*
X171285714Y-107454819D01*
X177916666Y-124084819D02*
X177916666Y-124799104D01*
X177916666Y-124799104D02*
X177869047Y-124941961D01*
X177869047Y-124941961D02*
X177773809Y-125037200D01*
X177773809Y-125037200D02*
X177630952Y-125084819D01*
X177630952Y-125084819D02*
X177535714Y-125084819D01*
X178916666Y-125084819D02*
X178345238Y-125084819D01*
X178630952Y-125084819D02*
X178630952Y-124084819D01*
X178630952Y-124084819D02*
X178535714Y-124227676D01*
X178535714Y-124227676D02*
X178440476Y-124322914D01*
X178440476Y-124322914D02*
X178345238Y-124370533D01*
X156948572Y-125050057D02*
X156853334Y-125002438D01*
X156853334Y-125002438D02*
X156758096Y-124907200D01*
X156758096Y-124907200D02*
X156615239Y-124764342D01*
X156615239Y-124764342D02*
X156520001Y-124716723D01*
X156520001Y-124716723D02*
X156424763Y-124716723D01*
X156472382Y-124954819D02*
X156377144Y-124907200D01*
X156377144Y-124907200D02*
X156281906Y-124811961D01*
X156281906Y-124811961D02*
X156234287Y-124621485D01*
X156234287Y-124621485D02*
X156234287Y-124288152D01*
X156234287Y-124288152D02*
X156281906Y-124097676D01*
X156281906Y-124097676D02*
X156377144Y-124002438D01*
X156377144Y-124002438D02*
X156472382Y-123954819D01*
X156472382Y-123954819D02*
X156662858Y-123954819D01*
X156662858Y-123954819D02*
X156758096Y-124002438D01*
X156758096Y-124002438D02*
X156853334Y-124097676D01*
X156853334Y-124097676D02*
X156900953Y-124288152D01*
X156900953Y-124288152D02*
X156900953Y-124621485D01*
X156900953Y-124621485D02*
X156853334Y-124811961D01*
X156853334Y-124811961D02*
X156758096Y-124907200D01*
X156758096Y-124907200D02*
X156662858Y-124954819D01*
X156662858Y-124954819D02*
X156472382Y-124954819D01*
X157853334Y-124954819D02*
X157281906Y-124954819D01*
X157567620Y-124954819D02*
X157567620Y-123954819D01*
X157567620Y-123954819D02*
X157472382Y-124097676D01*
X157472382Y-124097676D02*
X157377144Y-124192914D01*
X157377144Y-124192914D02*
X157281906Y-124240533D01*
X158472382Y-123954819D02*
X158567620Y-123954819D01*
X158567620Y-123954819D02*
X158662858Y-124002438D01*
X158662858Y-124002438D02*
X158710477Y-124050057D01*
X158710477Y-124050057D02*
X158758096Y-124145295D01*
X158758096Y-124145295D02*
X158805715Y-124335771D01*
X158805715Y-124335771D02*
X158805715Y-124573866D01*
X158805715Y-124573866D02*
X158758096Y-124764342D01*
X158758096Y-124764342D02*
X158710477Y-124859580D01*
X158710477Y-124859580D02*
X158662858Y-124907200D01*
X158662858Y-124907200D02*
X158567620Y-124954819D01*
X158567620Y-124954819D02*
X158472382Y-124954819D01*
X158472382Y-124954819D02*
X158377144Y-124907200D01*
X158377144Y-124907200D02*
X158329525Y-124859580D01*
X158329525Y-124859580D02*
X158281906Y-124764342D01*
X158281906Y-124764342D02*
X158234287Y-124573866D01*
X158234287Y-124573866D02*
X158234287Y-124335771D01*
X158234287Y-124335771D02*
X158281906Y-124145295D01*
X158281906Y-124145295D02*
X158329525Y-124050057D01*
X158329525Y-124050057D02*
X158377144Y-124002438D01*
X158377144Y-124002438D02*
X158472382Y-123954819D01*
X159350057Y-101295238D02*
X159302438Y-101390476D01*
X159302438Y-101390476D02*
X159207200Y-101485714D01*
X159207200Y-101485714D02*
X159064342Y-101628571D01*
X159064342Y-101628571D02*
X159016723Y-101723809D01*
X159016723Y-101723809D02*
X159016723Y-101819047D01*
X159254819Y-101771428D02*
X159207200Y-101866666D01*
X159207200Y-101866666D02*
X159111961Y-101961904D01*
X159111961Y-101961904D02*
X158921485Y-102009523D01*
X158921485Y-102009523D02*
X158588152Y-102009523D01*
X158588152Y-102009523D02*
X158397676Y-101961904D01*
X158397676Y-101961904D02*
X158302438Y-101866666D01*
X158302438Y-101866666D02*
X158254819Y-101771428D01*
X158254819Y-101771428D02*
X158254819Y-101580952D01*
X158254819Y-101580952D02*
X158302438Y-101485714D01*
X158302438Y-101485714D02*
X158397676Y-101390476D01*
X158397676Y-101390476D02*
X158588152Y-101342857D01*
X158588152Y-101342857D02*
X158921485Y-101342857D01*
X158921485Y-101342857D02*
X159111961Y-101390476D01*
X159111961Y-101390476D02*
X159207200Y-101485714D01*
X159207200Y-101485714D02*
X159254819Y-101580952D01*
X159254819Y-101580952D02*
X159254819Y-101771428D01*
X158588152Y-100485714D02*
X159254819Y-100485714D01*
X158207200Y-100723809D02*
X158921485Y-100961904D01*
X158921485Y-100961904D02*
X158921485Y-100342857D01*
X170333333Y-99704819D02*
X170000000Y-99228628D01*
X169761905Y-99704819D02*
X169761905Y-98704819D01*
X169761905Y-98704819D02*
X170142857Y-98704819D01*
X170142857Y-98704819D02*
X170238095Y-98752438D01*
X170238095Y-98752438D02*
X170285714Y-98800057D01*
X170285714Y-98800057D02*
X170333333Y-98895295D01*
X170333333Y-98895295D02*
X170333333Y-99038152D01*
X170333333Y-99038152D02*
X170285714Y-99133390D01*
X170285714Y-99133390D02*
X170238095Y-99181009D01*
X170238095Y-99181009D02*
X170142857Y-99228628D01*
X170142857Y-99228628D02*
X169761905Y-99228628D01*
X171238095Y-98704819D02*
X170761905Y-98704819D01*
X170761905Y-98704819D02*
X170714286Y-99181009D01*
X170714286Y-99181009D02*
X170761905Y-99133390D01*
X170761905Y-99133390D02*
X170857143Y-99085771D01*
X170857143Y-99085771D02*
X171095238Y-99085771D01*
X171095238Y-99085771D02*
X171190476Y-99133390D01*
X171190476Y-99133390D02*
X171238095Y-99181009D01*
X171238095Y-99181009D02*
X171285714Y-99276247D01*
X171285714Y-99276247D02*
X171285714Y-99514342D01*
X171285714Y-99514342D02*
X171238095Y-99609580D01*
X171238095Y-99609580D02*
X171190476Y-99657200D01*
X171190476Y-99657200D02*
X171095238Y-99704819D01*
X171095238Y-99704819D02*
X170857143Y-99704819D01*
X170857143Y-99704819D02*
X170761905Y-99657200D01*
X170761905Y-99657200D02*
X170714286Y-99609580D01*
X162671667Y-73352319D02*
X162671667Y-74066604D01*
X162671667Y-74066604D02*
X162624048Y-74209461D01*
X162624048Y-74209461D02*
X162528810Y-74304700D01*
X162528810Y-74304700D02*
X162385953Y-74352319D01*
X162385953Y-74352319D02*
X162290715Y-74352319D01*
X163052620Y-73352319D02*
X163671667Y-73352319D01*
X163671667Y-73352319D02*
X163338334Y-73733271D01*
X163338334Y-73733271D02*
X163481191Y-73733271D01*
X163481191Y-73733271D02*
X163576429Y-73780890D01*
X163576429Y-73780890D02*
X163624048Y-73828509D01*
X163624048Y-73828509D02*
X163671667Y-73923747D01*
X163671667Y-73923747D02*
X163671667Y-74161842D01*
X163671667Y-74161842D02*
X163624048Y-74257080D01*
X163624048Y-74257080D02*
X163576429Y-74304700D01*
X163576429Y-74304700D02*
X163481191Y-74352319D01*
X163481191Y-74352319D02*
X163195477Y-74352319D01*
X163195477Y-74352319D02*
X163100239Y-74304700D01*
X163100239Y-74304700D02*
X163052620Y-74257080D01*
X170333333Y-102454819D02*
X170000000Y-101978628D01*
X169761905Y-102454819D02*
X169761905Y-101454819D01*
X169761905Y-101454819D02*
X170142857Y-101454819D01*
X170142857Y-101454819D02*
X170238095Y-101502438D01*
X170238095Y-101502438D02*
X170285714Y-101550057D01*
X170285714Y-101550057D02*
X170333333Y-101645295D01*
X170333333Y-101645295D02*
X170333333Y-101788152D01*
X170333333Y-101788152D02*
X170285714Y-101883390D01*
X170285714Y-101883390D02*
X170238095Y-101931009D01*
X170238095Y-101931009D02*
X170142857Y-101978628D01*
X170142857Y-101978628D02*
X169761905Y-101978628D01*
X170666667Y-101454819D02*
X171333333Y-101454819D01*
X171333333Y-101454819D02*
X170904762Y-102454819D01*
X124357142Y-117704819D02*
X124023809Y-117228628D01*
X123785714Y-117704819D02*
X123785714Y-116704819D01*
X123785714Y-116704819D02*
X124166666Y-116704819D01*
X124166666Y-116704819D02*
X124261904Y-116752438D01*
X124261904Y-116752438D02*
X124309523Y-116800057D01*
X124309523Y-116800057D02*
X124357142Y-116895295D01*
X124357142Y-116895295D02*
X124357142Y-117038152D01*
X124357142Y-117038152D02*
X124309523Y-117133390D01*
X124309523Y-117133390D02*
X124261904Y-117181009D01*
X124261904Y-117181009D02*
X124166666Y-117228628D01*
X124166666Y-117228628D02*
X123785714Y-117228628D01*
X125309523Y-117704819D02*
X124738095Y-117704819D01*
X125023809Y-117704819D02*
X125023809Y-116704819D01*
X125023809Y-116704819D02*
X124928571Y-116847676D01*
X124928571Y-116847676D02*
X124833333Y-116942914D01*
X124833333Y-116942914D02*
X124738095Y-116990533D01*
X126166666Y-117038152D02*
X126166666Y-117704819D01*
X125928571Y-116657200D02*
X125690476Y-117371485D01*
X125690476Y-117371485D02*
X126309523Y-117371485D01*
D13*
%TO.C,Q9*%
X140690001Y-94930000D02*
X140690001Y-98530000D01*
X140701523Y-94891522D02*
G75*
G02*
X145140001Y-96730000I1838477J-1838479D01*
G01*
X145140001Y-96730000D02*
G75*
G02*
X140701523Y-98568478I-2600000J0D01*
G01*
%TO.C,R10*%
X174027064Y-116665000D02*
X173572936Y-116665000D01*
X174027064Y-118135000D02*
X173572936Y-118135000D01*
%TO.C,Q2*%
X146880000Y-94950000D02*
X146880000Y-98550000D01*
X146891522Y-94911522D02*
G75*
G02*
X151330000Y-96750000I1838477J-1838479D01*
G01*
X151330000Y-96750000D02*
G75*
G02*
X146891522Y-98588478I-2600000J0D01*
G01*
D14*
%TO.C,J2*%
X172200000Y-62550001D02*
X181200000Y-62550001D01*
X172200000Y-70700000D02*
X172200000Y-62550001D01*
X172200000Y-76950000D02*
X172200000Y-75799999D01*
X174150000Y-76950000D02*
X172200000Y-76950000D01*
X181200000Y-62550001D02*
X181200000Y-76950000D01*
X181200000Y-76950000D02*
X179350000Y-76950000D01*
D15*
X176900001Y-78250001D02*
G75*
G02*
X176499999Y-78250001I-200001J0D01*
G01*
X176499999Y-78250001D02*
G75*
G02*
X176900001Y-78250001I200001J0D01*
G01*
D13*
%TO.C,R3*%
X173977064Y-95765000D02*
X173522936Y-95765000D01*
X173977064Y-97235000D02*
X173522936Y-97235000D01*
%TO.C,U1*%
X160125000Y-86425000D02*
X158175000Y-86425000D01*
X160125000Y-86425000D02*
X162075000Y-86425000D01*
X160125000Y-91545000D02*
X158175000Y-91545000D01*
X160125000Y-91545000D02*
X162075000Y-91545000D01*
X157425000Y-86520000D02*
X157185000Y-86190000D01*
X157665000Y-86190000D01*
X157425000Y-86520000D01*
G36*
X157425000Y-86520000D02*
G01*
X157185000Y-86190000D01*
X157665000Y-86190000D01*
X157425000Y-86520000D01*
G37*
%TO.C,R11*%
X174027064Y-121865000D02*
X173572936Y-121865000D01*
X174027064Y-123335000D02*
X173572936Y-123335000D01*
D16*
%TO.C,NX1*%
X135828760Y-102328760D02*
X155671240Y-102328760D01*
X155671240Y-122171240D02*
X135828760Y-122171240D01*
X135828760Y-122171240D02*
G75*
G02*
X135830181Y-102327567I8326119J9921240D01*
G01*
X155671240Y-102328760D02*
G75*
G02*
X155669819Y-122172433I-8326120J-9921240D01*
G01*
D14*
X148290000Y-112250000D02*
G75*
G02*
X143210000Y-112250000I-2540000J0D01*
G01*
X143210000Y-112250000D02*
G75*
G02*
X148290000Y-112250000I2540000J0D01*
G01*
D13*
%TO.C,Q7*%
X134690001Y-94930000D02*
X134690001Y-98530000D01*
X134701523Y-94891522D02*
G75*
G02*
X139140001Y-96730000I1838477J-1838479D01*
G01*
X139140001Y-96730000D02*
G75*
G02*
X134701523Y-98568478I-2600000J0D01*
G01*
%TO.C,Q3*%
X125950000Y-107210000D02*
X129550000Y-107210000D01*
X125911522Y-107198478D02*
G75*
G02*
X127750000Y-102760000I1838479J1838477D01*
G01*
X127750000Y-102760000D02*
G75*
G02*
X129588478Y-107198478I0J-2600000D01*
G01*
D17*
%TO.C,G\u002A\u002A\u002A*%
G36*
X124239253Y-65167401D02*
G01*
X124268267Y-65175016D01*
X124314165Y-65187598D01*
X124375315Y-65204685D01*
X124450083Y-65225813D01*
X124536832Y-65250519D01*
X124633927Y-65278339D01*
X124739734Y-65308810D01*
X124852618Y-65341468D01*
X124929772Y-65363872D01*
X125626768Y-65566540D01*
X125629627Y-65764054D01*
X125630531Y-65832892D01*
X125630798Y-65883426D01*
X125630191Y-65918347D01*
X125628471Y-65940349D01*
X125625400Y-65952123D01*
X125620739Y-65956361D01*
X125614250Y-65955755D01*
X125612695Y-65955287D01*
X125599573Y-65949913D01*
X125569120Y-65936774D01*
X125523173Y-65916681D01*
X125463569Y-65890445D01*
X125392145Y-65858877D01*
X125310739Y-65822790D01*
X125221189Y-65782994D01*
X125125332Y-65740301D01*
X125075900Y-65718249D01*
X124978215Y-65674677D01*
X124886433Y-65633791D01*
X124802315Y-65596373D01*
X124727626Y-65563205D01*
X124664128Y-65535068D01*
X124613585Y-65512744D01*
X124577760Y-65497016D01*
X124558415Y-65488663D01*
X124555450Y-65487494D01*
X124559682Y-65496247D01*
X124573252Y-65521139D01*
X124595006Y-65560119D01*
X124623789Y-65611137D01*
X124658440Y-65672143D01*
X124697808Y-65741087D01*
X124736300Y-65808203D01*
X124778940Y-65882721D01*
X124817861Y-65951343D01*
X124851905Y-66011987D01*
X124879919Y-66062570D01*
X124900747Y-66101008D01*
X124913235Y-66125218D01*
X124916397Y-66133114D01*
X124905813Y-66131145D01*
X124876689Y-66124053D01*
X124830730Y-66112289D01*
X124769645Y-66096307D01*
X124695136Y-66076559D01*
X124608912Y-66053498D01*
X124512678Y-66027578D01*
X124408139Y-65999250D01*
X124297004Y-65968968D01*
X124262273Y-65959472D01*
X124149520Y-65928668D01*
X124042893Y-65899633D01*
X123944091Y-65872825D01*
X123854817Y-65848699D01*
X123776770Y-65827713D01*
X123711651Y-65810324D01*
X123661162Y-65796989D01*
X123627002Y-65788165D01*
X123610873Y-65784307D01*
X123609802Y-65784189D01*
X123613912Y-65793566D01*
X123627017Y-65816897D01*
X123646920Y-65850371D01*
X123664926Y-65879745D01*
X123687163Y-65916857D01*
X123702744Y-65945374D01*
X123710000Y-65962056D01*
X123708663Y-65964690D01*
X123692742Y-65954648D01*
X123662915Y-65935070D01*
X123621913Y-65907804D01*
X123572471Y-65874700D01*
X123517323Y-65837608D01*
X123459203Y-65798378D01*
X123400845Y-65758859D01*
X123344983Y-65720901D01*
X123294350Y-65686353D01*
X123251682Y-65657069D01*
X123219712Y-65634894D01*
X123201173Y-65621679D01*
X123197877Y-65619089D01*
X123196459Y-65613600D01*
X123205345Y-65607698D01*
X123226743Y-65600757D01*
X123262862Y-65592155D01*
X123315910Y-65581269D01*
X123365879Y-65571657D01*
X123436995Y-65558200D01*
X123512140Y-65543974D01*
X123584257Y-65530316D01*
X123646291Y-65518561D01*
X123671104Y-65513857D01*
X123718787Y-65505056D01*
X123757902Y-65498296D01*
X123784461Y-65494234D01*
X123794478Y-65493527D01*
X123794482Y-65493552D01*
X123786897Y-65501057D01*
X123766465Y-65518786D01*
X123736668Y-65543761D01*
X123714035Y-65562381D01*
X123681177Y-65590207D01*
X123656792Y-65612764D01*
X123643876Y-65627163D01*
X123643158Y-65630816D01*
X123655311Y-65632769D01*
X123686043Y-65637223D01*
X123733126Y-65643870D01*
X123794330Y-65652398D01*
X123867421Y-65662499D01*
X123950172Y-65673861D01*
X124040350Y-65686175D01*
X124083237Y-65692009D01*
X124176459Y-65704710D01*
X124263606Y-65716649D01*
X124342390Y-65727512D01*
X124410522Y-65736975D01*
X124465713Y-65744723D01*
X124505674Y-65750436D01*
X124528116Y-65753796D01*
X124531845Y-65754445D01*
X124537500Y-65755853D01*
X124541655Y-65756251D01*
X124543441Y-65753894D01*
X124541986Y-65747039D01*
X124536421Y-65733942D01*
X124525874Y-65712859D01*
X124509475Y-65682043D01*
X124486352Y-65639755D01*
X124455637Y-65584247D01*
X124416458Y-65513778D01*
X124370245Y-65430740D01*
X124333005Y-65363428D01*
X124299564Y-65302256D01*
X124271171Y-65249566D01*
X124249074Y-65207698D01*
X124234518Y-65178993D01*
X124228751Y-65165790D01*
X124228760Y-65165217D01*
X124239253Y-65167401D01*
G37*
G36*
X123017467Y-63459064D02*
G01*
X123026193Y-63461496D01*
X123033217Y-63464654D01*
X123048206Y-63472575D01*
X123080404Y-63490310D01*
X123128775Y-63517278D01*
X123192285Y-63552890D01*
X123269899Y-63596564D01*
X123360583Y-63647710D01*
X123463299Y-63705747D01*
X123577015Y-63770087D01*
X123700695Y-63840147D01*
X123833305Y-63915339D01*
X123973809Y-63995080D01*
X124121172Y-64078784D01*
X124274359Y-64165864D01*
X124432336Y-64255737D01*
X124487494Y-64287134D01*
X124720135Y-64419571D01*
X124935226Y-64542028D01*
X125133475Y-64654908D01*
X125315585Y-64758619D01*
X125482260Y-64853565D01*
X125634206Y-64940153D01*
X125772127Y-65018787D01*
X125896728Y-65089871D01*
X126008713Y-65153812D01*
X126108786Y-65211016D01*
X126197653Y-65261887D01*
X126276017Y-65306831D01*
X126344584Y-65346253D01*
X126404058Y-65380559D01*
X126455143Y-65410154D01*
X126498544Y-65435443D01*
X126534966Y-65456831D01*
X126565113Y-65474725D01*
X126589690Y-65489529D01*
X126609400Y-65501649D01*
X126624950Y-65511489D01*
X126637043Y-65519456D01*
X126646384Y-65525955D01*
X126653677Y-65531391D01*
X126659628Y-65536169D01*
X126662099Y-65538252D01*
X126715785Y-65595770D01*
X126749890Y-65658735D01*
X126764420Y-65725011D01*
X126759379Y-65792464D01*
X126734773Y-65858960D01*
X126690606Y-65922363D01*
X126661190Y-65952237D01*
X126644397Y-65964515D01*
X126610592Y-65986437D01*
X126560845Y-66017385D01*
X126496231Y-66056742D01*
X126417820Y-66103889D01*
X126326685Y-66158208D01*
X126223899Y-66219083D01*
X126110533Y-66285895D01*
X125987661Y-66358025D01*
X125856353Y-66434857D01*
X125717685Y-66515773D01*
X125572726Y-66600153D01*
X125422550Y-66687382D01*
X125268228Y-66776840D01*
X125110834Y-66867909D01*
X124951439Y-66959973D01*
X124791115Y-67052413D01*
X124630936Y-67144611D01*
X124471973Y-67235949D01*
X124315299Y-67325810D01*
X124161986Y-67413576D01*
X124013106Y-67498628D01*
X123869732Y-67580349D01*
X123732936Y-67658120D01*
X123603791Y-67731325D01*
X123483368Y-67799345D01*
X123372741Y-67861563D01*
X123272980Y-67917360D01*
X123185159Y-67966118D01*
X123110350Y-68007220D01*
X123049625Y-68040048D01*
X123004057Y-68063984D01*
X122974719Y-68078410D01*
X122963862Y-68082648D01*
X122897246Y-68087612D01*
X122837559Y-68073054D01*
X122782687Y-68038406D01*
X122775428Y-68032062D01*
X122767020Y-68025025D01*
X122759282Y-68019155D01*
X122752184Y-68013597D01*
X122745699Y-68007497D01*
X122739801Y-68000000D01*
X122734462Y-67990254D01*
X122729655Y-67977401D01*
X122725352Y-67960590D01*
X122721527Y-67938965D01*
X122718153Y-67911672D01*
X122715202Y-67877858D01*
X122712647Y-67836666D01*
X122710459Y-67787244D01*
X122708616Y-67728737D01*
X122707086Y-67660291D01*
X122705843Y-67581051D01*
X122704861Y-67490164D01*
X122704111Y-67386775D01*
X122703567Y-67270029D01*
X122703203Y-67139073D01*
X122702989Y-66993051D01*
X122702900Y-66831111D01*
X122702907Y-66652397D01*
X122702987Y-66456056D01*
X122703108Y-66241232D01*
X122703244Y-66007073D01*
X122703363Y-65766469D01*
X122703367Y-65759994D01*
X123017467Y-65759994D01*
X123017467Y-67711867D01*
X123230341Y-67589325D01*
X123441241Y-67467890D01*
X123651019Y-67347043D01*
X123858890Y-67227239D01*
X124064071Y-67108931D01*
X124265777Y-66992574D01*
X124463224Y-66878621D01*
X124655629Y-66767526D01*
X124842208Y-66659744D01*
X125022176Y-66555728D01*
X125194750Y-66455930D01*
X125359145Y-66360807D01*
X125514578Y-66270811D01*
X125660264Y-66186397D01*
X125795421Y-66108018D01*
X125919263Y-66036129D01*
X126031007Y-65971183D01*
X126129868Y-65913633D01*
X126215063Y-65863935D01*
X126285808Y-65822541D01*
X126341319Y-65789906D01*
X126380812Y-65766484D01*
X126403503Y-65752728D01*
X126409033Y-65748999D01*
X126406923Y-65746802D01*
X126400156Y-65742029D01*
X126388074Y-65734305D01*
X126370021Y-65723252D01*
X126345341Y-65708494D01*
X126313376Y-65689654D01*
X126273470Y-65666356D01*
X126224966Y-65638224D01*
X126167208Y-65604880D01*
X126099539Y-65565949D01*
X126021302Y-65521053D01*
X125931841Y-65469816D01*
X125830498Y-65411862D01*
X125716619Y-65346814D01*
X125589543Y-65274295D01*
X125448617Y-65193929D01*
X125293183Y-65105340D01*
X125122585Y-65008150D01*
X124936165Y-64901985D01*
X124733268Y-64786465D01*
X124513236Y-64661215D01*
X124345743Y-64565885D01*
X124197607Y-64481571D01*
X124053785Y-64399698D01*
X123915410Y-64320913D01*
X123783617Y-64245862D01*
X123659539Y-64175192D01*
X123544311Y-64109549D01*
X123439067Y-64049579D01*
X123344942Y-63995928D01*
X123263068Y-63949244D01*
X123194582Y-63910173D01*
X123140616Y-63879358D01*
X123102306Y-63857449D01*
X123080785Y-63845092D01*
X123077843Y-63843385D01*
X123017467Y-63808120D01*
X123017467Y-65759994D01*
X122703367Y-65759994D01*
X122703492Y-65556588D01*
X122703693Y-65352132D01*
X122703964Y-65154103D01*
X122704299Y-64963509D01*
X122704696Y-64781355D01*
X122705149Y-64608648D01*
X122705654Y-64446389D01*
X122706208Y-64295587D01*
X122706806Y-64157247D01*
X122707444Y-64032373D01*
X122708118Y-63921970D01*
X122708823Y-63827046D01*
X122709556Y-63748604D01*
X122710312Y-63687650D01*
X122711087Y-63645189D01*
X122711876Y-63622228D01*
X122712271Y-63618388D01*
X122741790Y-63551946D01*
X122784014Y-63499903D01*
X122836254Y-63463549D01*
X122895822Y-63444172D01*
X122960031Y-63443058D01*
X123017467Y-63459064D01*
G37*
D13*
%TO.C,Q1*%
X127699999Y-124460000D02*
X131299999Y-124460000D01*
X127661521Y-124448478D02*
G75*
G02*
X129499999Y-120010000I1838479J1838477D01*
G01*
X129499999Y-120010000D02*
G75*
G02*
X131338477Y-124448478I0J-2600000D01*
G01*
%TO.C,L1*%
X140900001Y-65450000D02*
X153500001Y-65450000D01*
X140900001Y-68450000D02*
X140900001Y-65450000D01*
X140900001Y-78050000D02*
X140900001Y-75050000D01*
X153500001Y-65450000D02*
X153500001Y-68450000D01*
X153500001Y-75050000D02*
X153500001Y-78050000D01*
X153500001Y-78050000D02*
X140900001Y-78050000D01*
%TO.C,R1*%
X174027064Y-119265000D02*
X173572936Y-119265000D01*
X174027064Y-120735000D02*
X173572936Y-120735000D01*
%TO.C,R9*%
X173977064Y-103765000D02*
X173522936Y-103765000D01*
X173977064Y-105235000D02*
X173522936Y-105235000D01*
%TO.C,C1*%
X166817500Y-86490000D02*
X166817500Y-91010000D01*
X166817500Y-91010000D02*
X175057500Y-91010000D01*
X175057500Y-86490000D02*
X166817500Y-86490000D01*
%TO.C,Q12*%
X155730000Y-74880000D02*
X160370999Y-74880000D01*
X155730000Y-78149000D02*
X157240000Y-78149000D01*
X155730000Y-81850000D02*
X157240000Y-81850000D01*
X155730000Y-85120000D02*
X155730000Y-74880000D01*
X155730000Y-85120000D02*
X160371000Y-85120000D01*
X157240001Y-85120000D02*
X157240000Y-74880000D01*
X160371000Y-85120000D02*
X160370999Y-74880000D01*
%TO.C,R4*%
X173977064Y-108865000D02*
X173522936Y-108865000D01*
X173977064Y-110335000D02*
X173522936Y-110335000D01*
%TO.C,C5*%
X135890000Y-89461252D02*
X135890000Y-88038748D01*
X138610000Y-89461252D02*
X138610000Y-88038748D01*
%TO.C,Q8*%
X161900000Y-114180000D02*
X161900000Y-117780000D01*
X161911522Y-114141522D02*
G75*
G02*
X166350000Y-115980000I1838477J-1838479D01*
G01*
X166350000Y-115980000D02*
G75*
G02*
X161911522Y-117818478I-2600000J0D01*
G01*
%TO.C,R13*%
X158015000Y-96022936D02*
X158015000Y-96477064D01*
X159485000Y-96022936D02*
X159485000Y-96477064D01*
%TO.C,D1*%
X140750000Y-91660000D02*
X140750000Y-81650000D01*
X147250000Y-91660000D02*
X140750000Y-91660000D01*
X147250000Y-91660000D02*
X147250000Y-81650000D01*
%TO.C,J4*%
X121280000Y-70090000D02*
X121280000Y-72450000D01*
X121280000Y-73050000D02*
X121280000Y-80489999D01*
X121900000Y-70090000D02*
X121900000Y-80490000D01*
X123399999Y-70090000D02*
X123400000Y-80490000D01*
X128300001Y-70090000D02*
X128300000Y-80490000D01*
X131320000Y-70090000D02*
X121280000Y-70090000D01*
X131320000Y-70090000D02*
X131320001Y-80490000D01*
X131320001Y-80490000D02*
X121280000Y-80489999D01*
X121280000Y-72750000D02*
X120670000Y-73190000D01*
X120670000Y-72310000D01*
X121280000Y-72750000D01*
G36*
X121280000Y-72750000D02*
G01*
X120670000Y-73190000D01*
X120670000Y-72310000D01*
X121280000Y-72750000D01*
G37*
%TO.C,R_SENSE1*%
X163672936Y-83290000D02*
X165127064Y-83290000D01*
X163672936Y-85110000D02*
X165127064Y-85110000D01*
%TO.C,Q6*%
X161900000Y-107450000D02*
X161900000Y-111050000D01*
X161911522Y-107411522D02*
G75*
G02*
X166350000Y-109250000I1838477J-1838479D01*
G01*
X166350000Y-109250000D02*
G75*
G02*
X161911522Y-111088478I-2600000J0D01*
G01*
%TO.C,C4*%
X123140000Y-83390000D02*
X123140000Y-86240000D01*
X123140000Y-92110000D02*
X123140000Y-89260000D01*
X130795563Y-83389999D02*
X123140000Y-83390000D01*
X130795563Y-92110001D02*
X123140000Y-92110000D01*
X131860001Y-84454437D02*
X130795563Y-83389999D01*
X131860001Y-84454437D02*
X131860000Y-86240000D01*
X131860001Y-91045563D02*
X130795563Y-92110001D01*
X131860001Y-91045563D02*
X131860000Y-89260000D01*
X132600000Y-90760000D02*
X132600000Y-89760000D01*
X133100000Y-90260000D02*
X132100000Y-90260000D01*
%TO.C,Q5*%
X128830002Y-94949999D02*
X128830002Y-98549999D01*
X128841524Y-94911521D02*
G75*
G02*
X133280002Y-96749999I1838477J-1838479D01*
G01*
X133280002Y-96749999D02*
G75*
G02*
X128841524Y-98588477I-2600000J0D01*
G01*
%TO.C,C3*%
X162265000Y-93738747D02*
X162265000Y-94261253D01*
X163735000Y-93738747D02*
X163735000Y-94261253D01*
%TO.C,RV1*%
X153575000Y-94325000D02*
X153575000Y-97225000D01*
X153575000Y-97225000D02*
X154175000Y-97225000D01*
X155450000Y-93150000D02*
X155050000Y-93150000D01*
X156925000Y-94325000D02*
X156925000Y-97225000D01*
X156925000Y-97225000D02*
X156325000Y-97225000D01*
X157100000Y-92600000D02*
X156400000Y-92600000D01*
X157100000Y-93300000D02*
X157100000Y-92600000D01*
%TO.C,C2*%
X154011253Y-86765000D02*
X153488747Y-86765000D01*
X154011253Y-88235000D02*
X153488747Y-88235000D01*
%TO.C,R8*%
X174027064Y-114065000D02*
X173572936Y-114065000D01*
X174027064Y-115535000D02*
X173572936Y-115535000D01*
%TO.C,Q11*%
X125930000Y-114100000D02*
X129530000Y-114100000D01*
X125891522Y-114088478D02*
G75*
G02*
X127730000Y-109650000I1838479J1838477D01*
G01*
X127730000Y-109650000D02*
G75*
G02*
X129568478Y-114088478I0J-2600000D01*
G01*
%TO.C,R6*%
X174027064Y-111465000D02*
X173572936Y-111465000D01*
X174027064Y-112935000D02*
X173572936Y-112935000D01*
%TO.C,R12*%
X153485436Y-89765000D02*
X153939564Y-89765000D01*
X153485436Y-91235000D02*
X153939564Y-91235000D01*
%TO.C,R2*%
X173977064Y-106265000D02*
X173522936Y-106265000D01*
X173977064Y-107735000D02*
X173522936Y-107735000D01*
%TO.C,J1*%
X176870000Y-120980000D02*
X176870000Y-95470000D01*
X179629999Y-122250000D02*
X179630000Y-123630000D01*
X179630000Y-95470000D02*
X176870000Y-95470000D01*
X179630000Y-120980000D02*
X176870000Y-120980000D01*
X179630000Y-120980000D02*
X179630000Y-95470000D01*
X179630000Y-123630000D02*
X178250000Y-123629999D01*
%TO.C,Q10*%
X163800001Y-120650000D02*
X160200001Y-120650000D01*
X162000001Y-125100000D02*
G75*
G02*
X160161523Y-120661522I0J2600000D01*
G01*
X163838479Y-120661522D02*
G75*
G02*
X162000001Y-125100000I-1838479J-1838477D01*
G01*
%TO.C,Q4*%
X164050001Y-100400000D02*
X160450001Y-100400000D01*
X162250001Y-104850000D02*
G75*
G02*
X160411523Y-100411522I0J2600000D01*
G01*
X164088479Y-100411522D02*
G75*
G02*
X162250001Y-104850000I-1838479J-1838477D01*
G01*
%TO.C,R5*%
X173977064Y-98515000D02*
X173522936Y-98515000D01*
X173977064Y-99985000D02*
X173522936Y-99985000D01*
%TO.C,J3*%
X157805001Y-72897501D02*
X157805002Y-62857500D01*
X165245001Y-62857500D02*
X157805002Y-62857500D01*
X168205001Y-62857500D02*
X165845001Y-62857500D01*
X168205001Y-63477500D02*
X157805001Y-63477500D01*
X168205001Y-64977499D02*
X157805001Y-64977500D01*
X168205001Y-69877501D02*
X157805001Y-69877500D01*
X168205001Y-72897500D02*
X157805001Y-72897501D01*
X168205001Y-72897500D02*
X168205001Y-62857500D01*
X165545001Y-62857500D02*
X165105001Y-62247500D01*
X165985001Y-62247500D01*
X165545001Y-62857500D01*
G36*
X165545001Y-62857500D02*
G01*
X165105001Y-62247500D01*
X165985001Y-62247500D01*
X165545001Y-62857500D01*
G37*
%TO.C,R7*%
X173977064Y-101265000D02*
X173522936Y-101265000D01*
X173977064Y-102735000D02*
X173522936Y-102735000D01*
%TO.C,R14*%
X128727064Y-116515000D02*
X128272936Y-116515000D01*
X128727064Y-117985000D02*
X128272936Y-117985000D01*
%TD*%
%LPC*%
D18*
%TO.C,Q9*%
X142540001Y-95460000D03*
D19*
X143810001Y-96730000D03*
X142540001Y-98000000D03*
%TD*%
D20*
%TO.C,R10*%
X174800000Y-117400000D03*
X172800000Y-117400000D03*
%TD*%
D18*
%TO.C,Q2*%
X148730000Y-95480000D03*
D19*
X150000000Y-96750000D03*
X148730000Y-98020000D03*
%TD*%
D21*
%TO.C,J2*%
X176700000Y-76250000D03*
D22*
X176700000Y-70250000D03*
D23*
X172000000Y-73250000D03*
%TD*%
D20*
%TO.C,R3*%
X174750000Y-96500000D03*
X172750000Y-96500000D03*
%TD*%
D24*
%TO.C,U1*%
X157550000Y-87080000D03*
X157550000Y-88350000D03*
X157550000Y-89620000D03*
X157550000Y-90890000D03*
X162700000Y-90890000D03*
X162700000Y-89620000D03*
X162700000Y-88350000D03*
X162700000Y-87080000D03*
%TD*%
D20*
%TO.C,R11*%
X174800000Y-122600000D03*
X172800000Y-122600000D03*
%TD*%
D25*
%TO.C,NX1*%
X145750000Y-112250000D03*
D26*
X141251660Y-117998020D03*
X137751540Y-108252040D03*
X141251660Y-106501980D03*
X145750000Y-106501980D03*
X150248340Y-106501980D03*
X153748460Y-108252040D03*
X154749219Y-112250000D03*
X153748460Y-116247960D03*
X150248340Y-117998020D03*
X145750000Y-117998020D03*
X137751540Y-116247960D03*
X136750781Y-112250000D03*
%TD*%
D18*
%TO.C,Q7*%
X136540001Y-95460000D03*
D19*
X137810001Y-96730000D03*
X136540001Y-98000000D03*
%TD*%
D18*
%TO.C,Q3*%
X126480000Y-105360000D03*
D19*
X127750000Y-104090000D03*
X129020000Y-105360000D03*
%TD*%
D18*
%TO.C,Q1*%
X128229999Y-122610000D03*
D19*
X129499999Y-121340000D03*
X130769999Y-122610000D03*
%TD*%
D27*
%TO.C,L1*%
X152150002Y-71750000D03*
X142250000Y-71750000D03*
%TD*%
D20*
%TO.C,R1*%
X174800000Y-120000000D03*
X172800000Y-120000000D03*
%TD*%
%TO.C,R9*%
X174750000Y-104500000D03*
X172750000Y-104500000D03*
%TD*%
D28*
%TO.C,C1*%
X168200000Y-88750000D03*
X174615000Y-88750000D03*
%TD*%
D29*
%TO.C,Q12*%
X159000000Y-82540000D03*
D30*
X159000000Y-80000000D03*
X159000000Y-77460001D03*
%TD*%
D20*
%TO.C,R4*%
X174750000Y-109600000D03*
X172750000Y-109600000D03*
%TD*%
D31*
%TO.C,C5*%
X137250000Y-90312500D03*
X137250000Y-87187500D03*
%TD*%
D18*
%TO.C,Q8*%
X163750000Y-114710000D03*
D19*
X165020000Y-115980000D03*
X163750000Y-117250000D03*
%TD*%
D32*
%TO.C,R13*%
X158750000Y-95250000D03*
X158750000Y-97250000D03*
%TD*%
D33*
%TO.C,D1*%
X144000000Y-89250000D03*
D34*
X144000000Y-82850000D03*
%TD*%
D35*
%TO.C,J4*%
X126000000Y-72750000D03*
D36*
X126000000Y-77829999D03*
%TD*%
D37*
%TO.C,R_SENSE1*%
X162849999Y-84200000D03*
X165950001Y-84200000D03*
%TD*%
D18*
%TO.C,Q6*%
X163750000Y-107980000D03*
D19*
X165020000Y-109250000D03*
X163750000Y-110520000D03*
%TD*%
D38*
%TO.C,C4*%
X131200000Y-87750000D03*
X123800000Y-87750000D03*
%TD*%
D18*
%TO.C,Q5*%
X130680002Y-95479999D03*
D19*
X131950002Y-96749999D03*
X130680002Y-98019999D03*
%TD*%
D39*
%TO.C,C3*%
X163000000Y-92962500D03*
X163000000Y-95037500D03*
%TD*%
D40*
%TO.C,RV1*%
X156250000Y-93450000D03*
D41*
X155250000Y-96700000D03*
D40*
X154250000Y-93450000D03*
%TD*%
D42*
%TO.C,C2*%
X154787500Y-87500000D03*
X152712500Y-87500000D03*
%TD*%
D20*
%TO.C,R8*%
X174800000Y-114800000D03*
X172800000Y-114800000D03*
%TD*%
D18*
%TO.C,Q11*%
X126460000Y-112250000D03*
D19*
X127730000Y-110980000D03*
X129000000Y-112250000D03*
%TD*%
D20*
%TO.C,R6*%
X174800000Y-112200000D03*
X172800000Y-112200000D03*
%TD*%
D43*
%TO.C,R12*%
X152712500Y-90500000D03*
X154712500Y-90500000D03*
%TD*%
D20*
%TO.C,R2*%
X174750000Y-107000000D03*
X172750000Y-107000000D03*
%TD*%
D44*
%TO.C,J1*%
X178250000Y-122250000D03*
D45*
X178250000Y-119710000D03*
X178250000Y-117170001D03*
X178250000Y-114630000D03*
X178250000Y-112090000D03*
X178250000Y-109550000D03*
X178250000Y-107010000D03*
X178250000Y-104469999D03*
X178250000Y-101930000D03*
X178250000Y-99390000D03*
X178250000Y-96850000D03*
%TD*%
D18*
%TO.C,Q10*%
X163270001Y-122500000D03*
D19*
X162000001Y-123770000D03*
X160730001Y-122500000D03*
%TD*%
D18*
%TO.C,Q4*%
X163520001Y-102250000D03*
D19*
X162250001Y-103520000D03*
X160980001Y-102250000D03*
%TD*%
D20*
%TO.C,R5*%
X174750000Y-99250000D03*
X172750000Y-99250000D03*
%TD*%
D46*
%TO.C,J3*%
X165545001Y-67577500D03*
D36*
X160465002Y-67577500D03*
%TD*%
D20*
%TO.C,R7*%
X174750000Y-102000000D03*
X172750000Y-102000000D03*
%TD*%
%TO.C,R14*%
X129500000Y-117250000D03*
X127500000Y-117250000D03*
%TD*%
%LPD*%
M02*
