%TF.GenerationSoftware,KiCad,Pcbnew,9.0.1*%
%TF.CreationDate,2025-07-04T13:23:47-04:00*%
%TF.ProjectId,nixie-hvdc,6e697869-652d-4687-9664-632e6b696361,rev?*%
%TF.SameCoordinates,Original*%
%TF.FileFunction,Legend,Top*%
%TF.FilePolarity,Positive*%
%FSLAX46Y46*%
G04 Gerber Fmt 4.6, Leading zero omitted, Abs format (unit mm)*
G04 Created by KiCad (PCBNEW 9.0.1) date 2025-07-04 13:23:47*
%MOMM*%
%LPD*%
G01*
G04 APERTURE LIST*
G04 Aperture macros list*
%AMRoundRect*
0 Rectangle with rounded corners*
0 $1 Rounding radius*
0 $2 $3 $4 $5 $6 $7 $8 $9 X,Y pos of 4 corners*
0 Add a 4 corners polygon primitive as box body*
4,1,4,$2,$3,$4,$5,$6,$7,$8,$9,$2,$3,0*
0 Add four circle primitives for the rounded corners*
1,1,$1+$1,$2,$3*
1,1,$1+$1,$4,$5*
1,1,$1+$1,$6,$7*
1,1,$1+$1,$8,$9*
0 Add four rect primitives between the rounded corners*
20,1,$1+$1,$2,$3,$4,$5,0*
20,1,$1+$1,$4,$5,$6,$7,0*
20,1,$1+$1,$6,$7,$8,$9,0*
20,1,$1+$1,$8,$9,$2,$3,0*%
%AMOutline4P*
0 Free polygon, 4 corners , with rotation*
0 The origin of the aperture is its center*
0 number of corners: always 4*
0 $1 to $8 corner X, Y*
0 $9 Rotation angle, in degrees counterclockwise*
0 create outline with 4 corners*
4,1,4,$1,$2,$3,$4,$5,$6,$7,$8,$1,$2,$9*%
G04 Aperture macros list end*
%ADD10C,0.180000*%
%ADD11C,0.150000*%
%ADD12C,0.200000*%
%ADD13C,0.120000*%
%ADD14C,0.127000*%
%ADD15C,0.400000*%
%ADD16C,0.254000*%
%ADD17C,0.000000*%
%ADD18R,1.300000X1.300000*%
%ADD19C,1.300000*%
%ADD20RoundRect,0.250000X0.350000X0.450000X-0.350000X0.450000X-0.350000X-0.450000X0.350000X-0.450000X0*%
%ADD21O,5.204000X2.704000*%
%ADD22O,4.704000X2.454000*%
%ADD23O,2.454000X4.704000*%
%ADD24RoundRect,0.150000X-0.725000X-0.150000X0.725000X-0.150000X0.725000X0.150000X-0.725000X0.150000X0*%
%ADD25C,4.998720*%
%ADD26C,2.397760*%
%ADD27R,2.900000X5.400000*%
%ADD28RoundRect,0.250001X-0.872499X-1.044999X0.872499X-1.044999X0.872499X1.044999X-0.872499X1.044999X0*%
%ADD29R,1.905000X2.000000*%
%ADD30O,1.905000X2.000000*%
%ADD31RoundRect,0.250000X1.100000X-0.412500X1.100000X0.412500X-1.100000X0.412500X-1.100000X-0.412500X0*%
%ADD32RoundRect,0.250000X0.070711X-0.565685X0.565685X-0.070711X-0.070711X0.565685X-0.565685X0.070711X0*%
%ADD33Outline4P,-2.150000X-1.800000X2.150000X-0.800000X2.150000X0.800000X-2.150000X1.800000X90.000000*%
%ADD34Outline4P,-2.150000X-1.800000X2.150000X-0.800000X2.150000X0.800000X-2.150000X1.800000X270.000000*%
%ADD35RoundRect,0.250000X-1.050000X1.050000X-1.050000X-1.050000X1.050000X-1.050000X1.050000X1.050000X0*%
%ADD36C,2.600000*%
%ADD37RoundRect,0.250000X-0.400000X-0.625000X0.400000X-0.625000X0.400000X0.625000X-0.400000X0.625000X0*%
%ADD38RoundRect,0.250000X1.950000X1.000000X-1.950000X1.000000X-1.950000X-1.000000X1.950000X-1.000000X0*%
%ADD39RoundRect,0.250000X-0.475000X0.337500X-0.475000X-0.337500X0.475000X-0.337500X0.475000X0.337500X0*%
%ADD40C,1.440000*%
%ADD41RoundRect,0.250000X0.337500X0.475000X-0.337500X0.475000X-0.337500X-0.475000X0.337500X-0.475000X0*%
%ADD42RoundRect,0.250000X-0.350000X-0.450000X0.350000X-0.450000X0.350000X0.450000X-0.350000X0.450000X0*%
%ADD43R,1.700000X1.700000*%
%ADD44C,1.700000*%
%ADD45RoundRect,0.250000X1.050000X1.050000X-1.050000X1.050000X-1.050000X-1.050000X1.050000X-1.050000X0*%
G04 APERTURE END LIST*
D10*
X181046830Y-114750626D02*
X180999211Y-114845864D01*
X180999211Y-114845864D02*
X180951592Y-114893483D01*
X180951592Y-114893483D02*
X180856354Y-114941102D01*
X180856354Y-114941102D02*
X180808735Y-114941102D01*
X180808735Y-114941102D02*
X180713497Y-114893483D01*
X180713497Y-114893483D02*
X180665878Y-114845864D01*
X180665878Y-114845864D02*
X180618259Y-114750626D01*
X180618259Y-114750626D02*
X180618259Y-114560150D01*
X180618259Y-114560150D02*
X180665878Y-114464912D01*
X180665878Y-114464912D02*
X180713497Y-114417293D01*
X180713497Y-114417293D02*
X180808735Y-114369674D01*
X180808735Y-114369674D02*
X180856354Y-114369674D01*
X180856354Y-114369674D02*
X180951592Y-114417293D01*
X180951592Y-114417293D02*
X180999211Y-114464912D01*
X180999211Y-114464912D02*
X181046830Y-114560150D01*
X181046830Y-114560150D02*
X181046830Y-114750626D01*
X181046830Y-114750626D02*
X181094449Y-114845864D01*
X181094449Y-114845864D02*
X181142068Y-114893483D01*
X181142068Y-114893483D02*
X181237306Y-114941102D01*
X181237306Y-114941102D02*
X181427782Y-114941102D01*
X181427782Y-114941102D02*
X181523020Y-114893483D01*
X181523020Y-114893483D02*
X181570640Y-114845864D01*
X181570640Y-114845864D02*
X181618259Y-114750626D01*
X181618259Y-114750626D02*
X181618259Y-114560150D01*
X181618259Y-114560150D02*
X181570640Y-114464912D01*
X181570640Y-114464912D02*
X181523020Y-114417293D01*
X181523020Y-114417293D02*
X181427782Y-114369674D01*
X181427782Y-114369674D02*
X181237306Y-114369674D01*
X181237306Y-114369674D02*
X181142068Y-114417293D01*
X181142068Y-114417293D02*
X181094449Y-114464912D01*
X181094449Y-114464912D02*
X181046830Y-114560150D01*
D11*
X166886779Y-91888866D02*
X167648684Y-91888866D01*
X167267731Y-92269819D02*
X167267731Y-91507914D01*
D10*
X180618259Y-106667293D02*
X180618259Y-107143483D01*
X180618259Y-107143483D02*
X181094449Y-107191102D01*
X181094449Y-107191102D02*
X181046830Y-107143483D01*
X181046830Y-107143483D02*
X180999211Y-107048245D01*
X180999211Y-107048245D02*
X180999211Y-106810150D01*
X180999211Y-106810150D02*
X181046830Y-106714912D01*
X181046830Y-106714912D02*
X181094449Y-106667293D01*
X181094449Y-106667293D02*
X181189687Y-106619674D01*
X181189687Y-106619674D02*
X181427782Y-106619674D01*
X181427782Y-106619674D02*
X181523020Y-106667293D01*
X181523020Y-106667293D02*
X181570640Y-106714912D01*
X181570640Y-106714912D02*
X181618259Y-106810150D01*
X181618259Y-106810150D02*
X181618259Y-107048245D01*
X181618259Y-107048245D02*
X181570640Y-107143483D01*
X181570640Y-107143483D02*
X181523020Y-107191102D01*
X180618259Y-102238721D02*
X180618259Y-101619674D01*
X180618259Y-101619674D02*
X180999211Y-101953007D01*
X180999211Y-101953007D02*
X180999211Y-101810150D01*
X180999211Y-101810150D02*
X181046830Y-101714912D01*
X181046830Y-101714912D02*
X181094449Y-101667293D01*
X181094449Y-101667293D02*
X181189687Y-101619674D01*
X181189687Y-101619674D02*
X181427782Y-101619674D01*
X181427782Y-101619674D02*
X181523020Y-101667293D01*
X181523020Y-101667293D02*
X181570640Y-101714912D01*
X181570640Y-101714912D02*
X181618259Y-101810150D01*
X181618259Y-101810150D02*
X181618259Y-102095864D01*
X181618259Y-102095864D02*
X181570640Y-102191102D01*
X181570640Y-102191102D02*
X181523020Y-102238721D01*
X180618259Y-109214912D02*
X180618259Y-109405388D01*
X180618259Y-109405388D02*
X180665878Y-109500626D01*
X180665878Y-109500626D02*
X180713497Y-109548245D01*
X180713497Y-109548245D02*
X180856354Y-109643483D01*
X180856354Y-109643483D02*
X181046830Y-109691102D01*
X181046830Y-109691102D02*
X181427782Y-109691102D01*
X181427782Y-109691102D02*
X181523020Y-109643483D01*
X181523020Y-109643483D02*
X181570640Y-109595864D01*
X181570640Y-109595864D02*
X181618259Y-109500626D01*
X181618259Y-109500626D02*
X181618259Y-109310150D01*
X181618259Y-109310150D02*
X181570640Y-109214912D01*
X181570640Y-109214912D02*
X181523020Y-109167293D01*
X181523020Y-109167293D02*
X181427782Y-109119674D01*
X181427782Y-109119674D02*
X181189687Y-109119674D01*
X181189687Y-109119674D02*
X181094449Y-109167293D01*
X181094449Y-109167293D02*
X181046830Y-109214912D01*
X181046830Y-109214912D02*
X180999211Y-109310150D01*
X180999211Y-109310150D02*
X180999211Y-109500626D01*
X180999211Y-109500626D02*
X181046830Y-109595864D01*
X181046830Y-109595864D02*
X181094449Y-109643483D01*
X181094449Y-109643483D02*
X181189687Y-109691102D01*
X156868259Y-65619674D02*
X156868259Y-66191102D01*
X156868259Y-65905388D02*
X155868259Y-65905388D01*
X155868259Y-65905388D02*
X156011116Y-66000626D01*
X156011116Y-66000626D02*
X156106354Y-66095864D01*
X156106354Y-66095864D02*
X156153973Y-66191102D01*
X155963497Y-65238721D02*
X155915878Y-65191102D01*
X155915878Y-65191102D02*
X155868259Y-65095864D01*
X155868259Y-65095864D02*
X155868259Y-64857769D01*
X155868259Y-64857769D02*
X155915878Y-64762531D01*
X155915878Y-64762531D02*
X155963497Y-64714912D01*
X155963497Y-64714912D02*
X156058735Y-64667293D01*
X156058735Y-64667293D02*
X156153973Y-64667293D01*
X156153973Y-64667293D02*
X156296830Y-64714912D01*
X156296830Y-64714912D02*
X156868259Y-65286340D01*
X156868259Y-65286340D02*
X156868259Y-64667293D01*
X155868259Y-64381578D02*
X156868259Y-64048245D01*
X156868259Y-64048245D02*
X155868259Y-63714912D01*
X180713497Y-99441102D02*
X180665878Y-99393483D01*
X180665878Y-99393483D02*
X180618259Y-99298245D01*
X180618259Y-99298245D02*
X180618259Y-99060150D01*
X180618259Y-99060150D02*
X180665878Y-98964912D01*
X180665878Y-98964912D02*
X180713497Y-98917293D01*
X180713497Y-98917293D02*
X180808735Y-98869674D01*
X180808735Y-98869674D02*
X180903973Y-98869674D01*
X180903973Y-98869674D02*
X181046830Y-98917293D01*
X181046830Y-98917293D02*
X181618259Y-99488721D01*
X181618259Y-99488721D02*
X181618259Y-98869674D01*
X181618259Y-96369674D02*
X181618259Y-96941102D01*
X181618259Y-96655388D02*
X180618259Y-96655388D01*
X180618259Y-96655388D02*
X180761116Y-96750626D01*
X180761116Y-96750626D02*
X180856354Y-96845864D01*
X180856354Y-96845864D02*
X180903973Y-96941102D01*
X132881740Y-71856516D02*
X133881740Y-71856516D01*
X133405550Y-71856516D02*
X133405550Y-72427944D01*
X132881740Y-72427944D02*
X133881740Y-72427944D01*
X133881740Y-72761278D02*
X132881740Y-73094611D01*
X132881740Y-73094611D02*
X133881740Y-73427944D01*
X170084121Y-64380325D02*
X170131740Y-64285087D01*
X170131740Y-64285087D02*
X170131740Y-64142230D01*
X170131740Y-64142230D02*
X170084121Y-63999373D01*
X170084121Y-63999373D02*
X169988883Y-63904135D01*
X169988883Y-63904135D02*
X169893645Y-63856516D01*
X169893645Y-63856516D02*
X169703169Y-63808897D01*
X169703169Y-63808897D02*
X169560312Y-63808897D01*
X169560312Y-63808897D02*
X169369836Y-63856516D01*
X169369836Y-63856516D02*
X169274598Y-63904135D01*
X169274598Y-63904135D02*
X169179360Y-63999373D01*
X169179360Y-63999373D02*
X169131740Y-64142230D01*
X169131740Y-64142230D02*
X169131740Y-64237468D01*
X169131740Y-64237468D02*
X169179360Y-64380325D01*
X169179360Y-64380325D02*
X169226979Y-64427944D01*
X169226979Y-64427944D02*
X169560312Y-64427944D01*
X169560312Y-64427944D02*
X169560312Y-64237468D01*
X169131740Y-64856516D02*
X170131740Y-64856516D01*
X170131740Y-64856516D02*
X169131740Y-65427944D01*
X169131740Y-65427944D02*
X170131740Y-65427944D01*
X169131740Y-65904135D02*
X170131740Y-65904135D01*
X170131740Y-65904135D02*
X170131740Y-66142230D01*
X170131740Y-66142230D02*
X170084121Y-66285087D01*
X170084121Y-66285087D02*
X169988883Y-66380325D01*
X169988883Y-66380325D02*
X169893645Y-66427944D01*
X169893645Y-66427944D02*
X169703169Y-66475563D01*
X169703169Y-66475563D02*
X169560312Y-66475563D01*
X169560312Y-66475563D02*
X169369836Y-66427944D01*
X169369836Y-66427944D02*
X169274598Y-66380325D01*
X169274598Y-66380325D02*
X169179360Y-66285087D01*
X169179360Y-66285087D02*
X169131740Y-66142230D01*
X169131740Y-66142230D02*
X169131740Y-65904135D01*
D11*
X139486779Y-82088866D02*
X140248684Y-82088866D01*
X139867731Y-82469819D02*
X139867731Y-81707914D01*
D10*
X133584121Y-77130325D02*
X133631740Y-77035087D01*
X133631740Y-77035087D02*
X133631740Y-76892230D01*
X133631740Y-76892230D02*
X133584121Y-76749373D01*
X133584121Y-76749373D02*
X133488883Y-76654135D01*
X133488883Y-76654135D02*
X133393645Y-76606516D01*
X133393645Y-76606516D02*
X133203169Y-76558897D01*
X133203169Y-76558897D02*
X133060312Y-76558897D01*
X133060312Y-76558897D02*
X132869836Y-76606516D01*
X132869836Y-76606516D02*
X132774598Y-76654135D01*
X132774598Y-76654135D02*
X132679360Y-76749373D01*
X132679360Y-76749373D02*
X132631740Y-76892230D01*
X132631740Y-76892230D02*
X132631740Y-76987468D01*
X132631740Y-76987468D02*
X132679360Y-77130325D01*
X132679360Y-77130325D02*
X132726979Y-77177944D01*
X132726979Y-77177944D02*
X133060312Y-77177944D01*
X133060312Y-77177944D02*
X133060312Y-76987468D01*
X132631740Y-77606516D02*
X133631740Y-77606516D01*
X133631740Y-77606516D02*
X132631740Y-78177944D01*
X132631740Y-78177944D02*
X133631740Y-78177944D01*
X132631740Y-78654135D02*
X133631740Y-78654135D01*
X133631740Y-78654135D02*
X133631740Y-78892230D01*
X133631740Y-78892230D02*
X133584121Y-79035087D01*
X133584121Y-79035087D02*
X133488883Y-79130325D01*
X133488883Y-79130325D02*
X133393645Y-79177944D01*
X133393645Y-79177944D02*
X133203169Y-79225563D01*
X133203169Y-79225563D02*
X133060312Y-79225563D01*
X133060312Y-79225563D02*
X132869836Y-79177944D01*
X132869836Y-79177944D02*
X132774598Y-79130325D01*
X132774598Y-79130325D02*
X132679360Y-79035087D01*
X132679360Y-79035087D02*
X132631740Y-78892230D01*
X132631740Y-78892230D02*
X132631740Y-78654135D01*
X180951592Y-104214912D02*
X181618259Y-104214912D01*
X180570640Y-104453007D02*
X181284925Y-104691102D01*
X181284925Y-104691102D02*
X181284925Y-104072055D01*
X180618259Y-112488721D02*
X180618259Y-111822055D01*
X180618259Y-111822055D02*
X181618259Y-112250626D01*
X180618259Y-119953007D02*
X180618259Y-119857769D01*
X180618259Y-119857769D02*
X180665878Y-119762531D01*
X180665878Y-119762531D02*
X180713497Y-119714912D01*
X180713497Y-119714912D02*
X180808735Y-119667293D01*
X180808735Y-119667293D02*
X180999211Y-119619674D01*
X180999211Y-119619674D02*
X181237306Y-119619674D01*
X181237306Y-119619674D02*
X181427782Y-119667293D01*
X181427782Y-119667293D02*
X181523020Y-119714912D01*
X181523020Y-119714912D02*
X181570640Y-119762531D01*
X181570640Y-119762531D02*
X181618259Y-119857769D01*
X181618259Y-119857769D02*
X181618259Y-119953007D01*
X181618259Y-119953007D02*
X181570640Y-120048245D01*
X181570640Y-120048245D02*
X181523020Y-120095864D01*
X181523020Y-120095864D02*
X181427782Y-120143483D01*
X181427782Y-120143483D02*
X181237306Y-120191102D01*
X181237306Y-120191102D02*
X180999211Y-120191102D01*
X180999211Y-120191102D02*
X180808735Y-120143483D01*
X180808735Y-120143483D02*
X180713497Y-120095864D01*
X180713497Y-120095864D02*
X180665878Y-120048245D01*
X180665878Y-120048245D02*
X180618259Y-119953007D01*
X181618259Y-124167293D02*
X181618259Y-124643483D01*
X181618259Y-124643483D02*
X180618259Y-124643483D01*
X181618259Y-123833959D02*
X180618259Y-123833959D01*
X181094449Y-123833959D02*
X181094449Y-123262531D01*
X181618259Y-123262531D02*
X180618259Y-123262531D01*
X181618259Y-122786340D02*
X180618259Y-122786340D01*
X180618259Y-122786340D02*
X180618259Y-122548245D01*
X180618259Y-122548245D02*
X180665878Y-122405388D01*
X180665878Y-122405388D02*
X180761116Y-122310150D01*
X180761116Y-122310150D02*
X180856354Y-122262531D01*
X180856354Y-122262531D02*
X181046830Y-122214912D01*
X181046830Y-122214912D02*
X181189687Y-122214912D01*
X181189687Y-122214912D02*
X181380163Y-122262531D01*
X181380163Y-122262531D02*
X181475401Y-122310150D01*
X181475401Y-122310150D02*
X181570640Y-122405388D01*
X181570640Y-122405388D02*
X181618259Y-122548245D01*
X181618259Y-122548245D02*
X181618259Y-122786340D01*
X181618259Y-121786340D02*
X180618259Y-121786340D01*
X180618259Y-121786340D02*
X180618259Y-121405388D01*
X180618259Y-121405388D02*
X180665878Y-121310150D01*
X180665878Y-121310150D02*
X180713497Y-121262531D01*
X180713497Y-121262531D02*
X180808735Y-121214912D01*
X180808735Y-121214912D02*
X180951592Y-121214912D01*
X180951592Y-121214912D02*
X181046830Y-121262531D01*
X181046830Y-121262531D02*
X181094449Y-121310150D01*
X181094449Y-121310150D02*
X181142068Y-121405388D01*
X181142068Y-121405388D02*
X181142068Y-121786340D01*
X181618259Y-117345864D02*
X181618259Y-117155388D01*
X181618259Y-117155388D02*
X181570640Y-117060150D01*
X181570640Y-117060150D02*
X181523020Y-117012531D01*
X181523020Y-117012531D02*
X181380163Y-116917293D01*
X181380163Y-116917293D02*
X181189687Y-116869674D01*
X181189687Y-116869674D02*
X180808735Y-116869674D01*
X180808735Y-116869674D02*
X180713497Y-116917293D01*
X180713497Y-116917293D02*
X180665878Y-116964912D01*
X180665878Y-116964912D02*
X180618259Y-117060150D01*
X180618259Y-117060150D02*
X180618259Y-117250626D01*
X180618259Y-117250626D02*
X180665878Y-117345864D01*
X180665878Y-117345864D02*
X180713497Y-117393483D01*
X180713497Y-117393483D02*
X180808735Y-117441102D01*
X180808735Y-117441102D02*
X181046830Y-117441102D01*
X181046830Y-117441102D02*
X181142068Y-117393483D01*
X181142068Y-117393483D02*
X181189687Y-117345864D01*
X181189687Y-117345864D02*
X181237306Y-117250626D01*
X181237306Y-117250626D02*
X181237306Y-117060150D01*
X181237306Y-117060150D02*
X181189687Y-116964912D01*
X181189687Y-116964912D02*
X181142068Y-116917293D01*
X181142068Y-116917293D02*
X181046830Y-116869674D01*
D11*
X136654761Y-100800057D02*
X136559523Y-100752438D01*
X136559523Y-100752438D02*
X136464285Y-100657200D01*
X136464285Y-100657200D02*
X136321428Y-100514342D01*
X136321428Y-100514342D02*
X136226190Y-100466723D01*
X136226190Y-100466723D02*
X136130952Y-100466723D01*
X136178571Y-100704819D02*
X136083333Y-100657200D01*
X136083333Y-100657200D02*
X135988095Y-100561961D01*
X135988095Y-100561961D02*
X135940476Y-100371485D01*
X135940476Y-100371485D02*
X135940476Y-100038152D01*
X135940476Y-100038152D02*
X135988095Y-99847676D01*
X135988095Y-99847676D02*
X136083333Y-99752438D01*
X136083333Y-99752438D02*
X136178571Y-99704819D01*
X136178571Y-99704819D02*
X136369047Y-99704819D01*
X136369047Y-99704819D02*
X136464285Y-99752438D01*
X136464285Y-99752438D02*
X136559523Y-99847676D01*
X136559523Y-99847676D02*
X136607142Y-100038152D01*
X136607142Y-100038152D02*
X136607142Y-100371485D01*
X136607142Y-100371485D02*
X136559523Y-100561961D01*
X136559523Y-100561961D02*
X136464285Y-100657200D01*
X136464285Y-100657200D02*
X136369047Y-100704819D01*
X136369047Y-100704819D02*
X136178571Y-100704819D01*
X137083333Y-100704819D02*
X137273809Y-100704819D01*
X137273809Y-100704819D02*
X137369047Y-100657200D01*
X137369047Y-100657200D02*
X137416666Y-100609580D01*
X137416666Y-100609580D02*
X137511904Y-100466723D01*
X137511904Y-100466723D02*
X137559523Y-100276247D01*
X137559523Y-100276247D02*
X137559523Y-99895295D01*
X137559523Y-99895295D02*
X137511904Y-99800057D01*
X137511904Y-99800057D02*
X137464285Y-99752438D01*
X137464285Y-99752438D02*
X137369047Y-99704819D01*
X137369047Y-99704819D02*
X137178571Y-99704819D01*
X137178571Y-99704819D02*
X137083333Y-99752438D01*
X137083333Y-99752438D02*
X137035714Y-99800057D01*
X137035714Y-99800057D02*
X136988095Y-99895295D01*
X136988095Y-99895295D02*
X136988095Y-100133390D01*
X136988095Y-100133390D02*
X137035714Y-100228628D01*
X137035714Y-100228628D02*
X137083333Y-100276247D01*
X137083333Y-100276247D02*
X137178571Y-100323866D01*
X137178571Y-100323866D02*
X137369047Y-100323866D01*
X137369047Y-100323866D02*
X137464285Y-100276247D01*
X137464285Y-100276247D02*
X137511904Y-100228628D01*
X137511904Y-100228628D02*
X137559523Y-100133390D01*
X169407142Y-117254819D02*
X169073809Y-116778628D01*
X168835714Y-117254819D02*
X168835714Y-116254819D01*
X168835714Y-116254819D02*
X169216666Y-116254819D01*
X169216666Y-116254819D02*
X169311904Y-116302438D01*
X169311904Y-116302438D02*
X169359523Y-116350057D01*
X169359523Y-116350057D02*
X169407142Y-116445295D01*
X169407142Y-116445295D02*
X169407142Y-116588152D01*
X169407142Y-116588152D02*
X169359523Y-116683390D01*
X169359523Y-116683390D02*
X169311904Y-116731009D01*
X169311904Y-116731009D02*
X169216666Y-116778628D01*
X169216666Y-116778628D02*
X168835714Y-116778628D01*
X170359523Y-117254819D02*
X169788095Y-117254819D01*
X170073809Y-117254819D02*
X170073809Y-116254819D01*
X170073809Y-116254819D02*
X169978571Y-116397676D01*
X169978571Y-116397676D02*
X169883333Y-116492914D01*
X169883333Y-116492914D02*
X169788095Y-116540533D01*
X170978571Y-116254819D02*
X171073809Y-116254819D01*
X171073809Y-116254819D02*
X171169047Y-116302438D01*
X171169047Y-116302438D02*
X171216666Y-116350057D01*
X171216666Y-116350057D02*
X171264285Y-116445295D01*
X171264285Y-116445295D02*
X171311904Y-116635771D01*
X171311904Y-116635771D02*
X171311904Y-116873866D01*
X171311904Y-116873866D02*
X171264285Y-117064342D01*
X171264285Y-117064342D02*
X171216666Y-117159580D01*
X171216666Y-117159580D02*
X171169047Y-117207200D01*
X171169047Y-117207200D02*
X171073809Y-117254819D01*
X171073809Y-117254819D02*
X170978571Y-117254819D01*
X170978571Y-117254819D02*
X170883333Y-117207200D01*
X170883333Y-117207200D02*
X170835714Y-117159580D01*
X170835714Y-117159580D02*
X170788095Y-117064342D01*
X170788095Y-117064342D02*
X170740476Y-116873866D01*
X170740476Y-116873866D02*
X170740476Y-116635771D01*
X170740476Y-116635771D02*
X170788095Y-116445295D01*
X170788095Y-116445295D02*
X170835714Y-116350057D01*
X170835714Y-116350057D02*
X170883333Y-116302438D01*
X170883333Y-116302438D02*
X170978571Y-116254819D01*
X139424761Y-101050057D02*
X139329523Y-101002438D01*
X139329523Y-101002438D02*
X139234285Y-100907200D01*
X139234285Y-100907200D02*
X139091428Y-100764342D01*
X139091428Y-100764342D02*
X138996190Y-100716723D01*
X138996190Y-100716723D02*
X138900952Y-100716723D01*
X138948571Y-100954819D02*
X138853333Y-100907200D01*
X138853333Y-100907200D02*
X138758095Y-100811961D01*
X138758095Y-100811961D02*
X138710476Y-100621485D01*
X138710476Y-100621485D02*
X138710476Y-100288152D01*
X138710476Y-100288152D02*
X138758095Y-100097676D01*
X138758095Y-100097676D02*
X138853333Y-100002438D01*
X138853333Y-100002438D02*
X138948571Y-99954819D01*
X138948571Y-99954819D02*
X139139047Y-99954819D01*
X139139047Y-99954819D02*
X139234285Y-100002438D01*
X139234285Y-100002438D02*
X139329523Y-100097676D01*
X139329523Y-100097676D02*
X139377142Y-100288152D01*
X139377142Y-100288152D02*
X139377142Y-100621485D01*
X139377142Y-100621485D02*
X139329523Y-100811961D01*
X139329523Y-100811961D02*
X139234285Y-100907200D01*
X139234285Y-100907200D02*
X139139047Y-100954819D01*
X139139047Y-100954819D02*
X138948571Y-100954819D01*
X139758095Y-100050057D02*
X139805714Y-100002438D01*
X139805714Y-100002438D02*
X139900952Y-99954819D01*
X139900952Y-99954819D02*
X140139047Y-99954819D01*
X140139047Y-99954819D02*
X140234285Y-100002438D01*
X140234285Y-100002438D02*
X140281904Y-100050057D01*
X140281904Y-100050057D02*
X140329523Y-100145295D01*
X140329523Y-100145295D02*
X140329523Y-100240533D01*
X140329523Y-100240533D02*
X140281904Y-100383390D01*
X140281904Y-100383390D02*
X139710476Y-100954819D01*
X139710476Y-100954819D02*
X140329523Y-100954819D01*
X169385290Y-74096993D02*
X170100020Y-74096993D01*
X170100020Y-74096993D02*
X170242966Y-74144642D01*
X170242966Y-74144642D02*
X170338264Y-74239939D01*
X170338264Y-74239939D02*
X170385912Y-74382885D01*
X170385912Y-74382885D02*
X170385912Y-74478183D01*
X169480588Y-73668155D02*
X169432939Y-73620506D01*
X169432939Y-73620506D02*
X169385290Y-73525209D01*
X169385290Y-73525209D02*
X169385290Y-73286966D01*
X169385290Y-73286966D02*
X169432939Y-73191668D01*
X169432939Y-73191668D02*
X169480588Y-73144020D01*
X169480588Y-73144020D02*
X169575885Y-73096371D01*
X169575885Y-73096371D02*
X169671182Y-73096371D01*
X169671182Y-73096371D02*
X169814128Y-73144020D01*
X169814128Y-73144020D02*
X170385912Y-73715804D01*
X170385912Y-73715804D02*
X170385912Y-73096371D01*
X170333333Y-96954819D02*
X170000000Y-96478628D01*
X169761905Y-96954819D02*
X169761905Y-95954819D01*
X169761905Y-95954819D02*
X170142857Y-95954819D01*
X170142857Y-95954819D02*
X170238095Y-96002438D01*
X170238095Y-96002438D02*
X170285714Y-96050057D01*
X170285714Y-96050057D02*
X170333333Y-96145295D01*
X170333333Y-96145295D02*
X170333333Y-96288152D01*
X170333333Y-96288152D02*
X170285714Y-96383390D01*
X170285714Y-96383390D02*
X170238095Y-96431009D01*
X170238095Y-96431009D02*
X170142857Y-96478628D01*
X170142857Y-96478628D02*
X169761905Y-96478628D01*
X170666667Y-95954819D02*
X171285714Y-95954819D01*
X171285714Y-95954819D02*
X170952381Y-96335771D01*
X170952381Y-96335771D02*
X171095238Y-96335771D01*
X171095238Y-96335771D02*
X171190476Y-96383390D01*
X171190476Y-96383390D02*
X171238095Y-96431009D01*
X171238095Y-96431009D02*
X171285714Y-96526247D01*
X171285714Y-96526247D02*
X171285714Y-96764342D01*
X171285714Y-96764342D02*
X171238095Y-96859580D01*
X171238095Y-96859580D02*
X171190476Y-96907200D01*
X171190476Y-96907200D02*
X171095238Y-96954819D01*
X171095238Y-96954819D02*
X170809524Y-96954819D01*
X170809524Y-96954819D02*
X170714286Y-96907200D01*
X170714286Y-96907200D02*
X170666667Y-96859580D01*
X164438095Y-90504819D02*
X164438095Y-91314342D01*
X164438095Y-91314342D02*
X164485714Y-91409580D01*
X164485714Y-91409580D02*
X164533333Y-91457200D01*
X164533333Y-91457200D02*
X164628571Y-91504819D01*
X164628571Y-91504819D02*
X164819047Y-91504819D01*
X164819047Y-91504819D02*
X164914285Y-91457200D01*
X164914285Y-91457200D02*
X164961904Y-91409580D01*
X164961904Y-91409580D02*
X165009523Y-91314342D01*
X165009523Y-91314342D02*
X165009523Y-90504819D01*
X166009523Y-91504819D02*
X165438095Y-91504819D01*
X165723809Y-91504819D02*
X165723809Y-90504819D01*
X165723809Y-90504819D02*
X165628571Y-90647676D01*
X165628571Y-90647676D02*
X165533333Y-90742914D01*
X165533333Y-90742914D02*
X165438095Y-90790533D01*
X169657142Y-123054819D02*
X169323809Y-122578628D01*
X169085714Y-123054819D02*
X169085714Y-122054819D01*
X169085714Y-122054819D02*
X169466666Y-122054819D01*
X169466666Y-122054819D02*
X169561904Y-122102438D01*
X169561904Y-122102438D02*
X169609523Y-122150057D01*
X169609523Y-122150057D02*
X169657142Y-122245295D01*
X169657142Y-122245295D02*
X169657142Y-122388152D01*
X169657142Y-122388152D02*
X169609523Y-122483390D01*
X169609523Y-122483390D02*
X169561904Y-122531009D01*
X169561904Y-122531009D02*
X169466666Y-122578628D01*
X169466666Y-122578628D02*
X169085714Y-122578628D01*
X170609523Y-123054819D02*
X170038095Y-123054819D01*
X170323809Y-123054819D02*
X170323809Y-122054819D01*
X170323809Y-122054819D02*
X170228571Y-122197676D01*
X170228571Y-122197676D02*
X170133333Y-122292914D01*
X170133333Y-122292914D02*
X170038095Y-122340533D01*
X171561904Y-123054819D02*
X170990476Y-123054819D01*
X171276190Y-123054819D02*
X171276190Y-122054819D01*
X171276190Y-122054819D02*
X171180952Y-122197676D01*
X171180952Y-122197676D02*
X171085714Y-122292914D01*
X171085714Y-122292914D02*
X170990476Y-122340533D01*
D12*
X131177618Y-124827126D02*
X131177618Y-123557126D01*
X131177618Y-123557126D02*
X131903333Y-124827126D01*
X131903333Y-124827126D02*
X131903333Y-123557126D01*
X132387142Y-123557126D02*
X133233809Y-124827126D01*
X133233809Y-123557126D02*
X132387142Y-124827126D01*
X134382857Y-124827126D02*
X133657142Y-124827126D01*
X134019999Y-124827126D02*
X134019999Y-123557126D01*
X134019999Y-123557126D02*
X133899047Y-123738554D01*
X133899047Y-123738554D02*
X133778095Y-123859507D01*
X133778095Y-123859507D02*
X133657142Y-123919983D01*
D10*
X139947928Y-115981666D02*
X140008404Y-115800238D01*
X140008404Y-115800238D02*
X140068880Y-115739761D01*
X140068880Y-115739761D02*
X140189832Y-115679285D01*
X140189832Y-115679285D02*
X140371261Y-115679285D01*
X140371261Y-115679285D02*
X140492213Y-115739761D01*
X140492213Y-115739761D02*
X140552690Y-115800238D01*
X140552690Y-115800238D02*
X140613166Y-115921190D01*
X140613166Y-115921190D02*
X140613166Y-116405000D01*
X140613166Y-116405000D02*
X139343166Y-116405000D01*
X139343166Y-116405000D02*
X139343166Y-115981666D01*
X139343166Y-115981666D02*
X139403642Y-115860714D01*
X139403642Y-115860714D02*
X139464118Y-115800238D01*
X139464118Y-115800238D02*
X139585070Y-115739761D01*
X139585070Y-115739761D02*
X139706023Y-115739761D01*
X139706023Y-115739761D02*
X139826975Y-115800238D01*
X139826975Y-115800238D02*
X139887451Y-115860714D01*
X139887451Y-115860714D02*
X139947928Y-115981666D01*
X139947928Y-115981666D02*
X139947928Y-116405000D01*
X140613166Y-114953571D02*
X140552690Y-115074523D01*
X140552690Y-115074523D02*
X140492213Y-115135000D01*
X140492213Y-115135000D02*
X140371261Y-115195476D01*
X140371261Y-115195476D02*
X140008404Y-115195476D01*
X140008404Y-115195476D02*
X139887451Y-115135000D01*
X139887451Y-115135000D02*
X139826975Y-115074523D01*
X139826975Y-115074523D02*
X139766499Y-114953571D01*
X139766499Y-114953571D02*
X139766499Y-114772142D01*
X139766499Y-114772142D02*
X139826975Y-114651190D01*
X139826975Y-114651190D02*
X139887451Y-114590714D01*
X139887451Y-114590714D02*
X140008404Y-114530238D01*
X140008404Y-114530238D02*
X140371261Y-114530238D01*
X140371261Y-114530238D02*
X140492213Y-114590714D01*
X140492213Y-114590714D02*
X140552690Y-114651190D01*
X140552690Y-114651190D02*
X140613166Y-114772142D01*
X140613166Y-114772142D02*
X140613166Y-114953571D01*
X139766499Y-114167380D02*
X139766499Y-113683571D01*
X139343166Y-113985952D02*
X140431737Y-113985952D01*
X140431737Y-113985952D02*
X140552690Y-113925475D01*
X140552690Y-113925475D02*
X140613166Y-113804523D01*
X140613166Y-113804523D02*
X140613166Y-113683571D01*
X150773166Y-116646904D02*
X150773166Y-115921190D01*
X152043166Y-116284047D02*
X150773166Y-116284047D01*
X152043166Y-115316428D02*
X151982690Y-115437380D01*
X151982690Y-115437380D02*
X151922213Y-115497857D01*
X151922213Y-115497857D02*
X151801261Y-115558333D01*
X151801261Y-115558333D02*
X151438404Y-115558333D01*
X151438404Y-115558333D02*
X151317451Y-115497857D01*
X151317451Y-115497857D02*
X151256975Y-115437380D01*
X151256975Y-115437380D02*
X151196499Y-115316428D01*
X151196499Y-115316428D02*
X151196499Y-115134999D01*
X151196499Y-115134999D02*
X151256975Y-115014047D01*
X151256975Y-115014047D02*
X151317451Y-114953571D01*
X151317451Y-114953571D02*
X151438404Y-114893095D01*
X151438404Y-114893095D02*
X151801261Y-114893095D01*
X151801261Y-114893095D02*
X151922213Y-114953571D01*
X151922213Y-114953571D02*
X151982690Y-115014047D01*
X151982690Y-115014047D02*
X152043166Y-115134999D01*
X152043166Y-115134999D02*
X152043166Y-115316428D01*
X151196499Y-114348809D02*
X152466499Y-114348809D01*
X151256975Y-114348809D02*
X151196499Y-114227856D01*
X151196499Y-114227856D02*
X151196499Y-113985951D01*
X151196499Y-113985951D02*
X151256975Y-113864999D01*
X151256975Y-113864999D02*
X151317451Y-113804523D01*
X151317451Y-113804523D02*
X151438404Y-113744047D01*
X151438404Y-113744047D02*
X151801261Y-113744047D01*
X151801261Y-113744047D02*
X151922213Y-113804523D01*
X151922213Y-113804523D02*
X151982690Y-113864999D01*
X151982690Y-113864999D02*
X152043166Y-113985951D01*
X152043166Y-113985951D02*
X152043166Y-114227856D01*
X152043166Y-114227856D02*
X151982690Y-114348809D01*
D11*
X130904761Y-100550057D02*
X130809523Y-100502438D01*
X130809523Y-100502438D02*
X130714285Y-100407200D01*
X130714285Y-100407200D02*
X130571428Y-100264342D01*
X130571428Y-100264342D02*
X130476190Y-100216723D01*
X130476190Y-100216723D02*
X130380952Y-100216723D01*
X130428571Y-100454819D02*
X130333333Y-100407200D01*
X130333333Y-100407200D02*
X130238095Y-100311961D01*
X130238095Y-100311961D02*
X130190476Y-100121485D01*
X130190476Y-100121485D02*
X130190476Y-99788152D01*
X130190476Y-99788152D02*
X130238095Y-99597676D01*
X130238095Y-99597676D02*
X130333333Y-99502438D01*
X130333333Y-99502438D02*
X130428571Y-99454819D01*
X130428571Y-99454819D02*
X130619047Y-99454819D01*
X130619047Y-99454819D02*
X130714285Y-99502438D01*
X130714285Y-99502438D02*
X130809523Y-99597676D01*
X130809523Y-99597676D02*
X130857142Y-99788152D01*
X130857142Y-99788152D02*
X130857142Y-100121485D01*
X130857142Y-100121485D02*
X130809523Y-100311961D01*
X130809523Y-100311961D02*
X130714285Y-100407200D01*
X130714285Y-100407200D02*
X130619047Y-100454819D01*
X130619047Y-100454819D02*
X130428571Y-100454819D01*
X131190476Y-99454819D02*
X131857142Y-99454819D01*
X131857142Y-99454819D02*
X131428571Y-100454819D01*
X129154761Y-110550057D02*
X129059523Y-110502438D01*
X129059523Y-110502438D02*
X128964285Y-110407200D01*
X128964285Y-110407200D02*
X128821428Y-110264342D01*
X128821428Y-110264342D02*
X128726190Y-110216723D01*
X128726190Y-110216723D02*
X128630952Y-110216723D01*
X128678571Y-110454819D02*
X128583333Y-110407200D01*
X128583333Y-110407200D02*
X128488095Y-110311961D01*
X128488095Y-110311961D02*
X128440476Y-110121485D01*
X128440476Y-110121485D02*
X128440476Y-109788152D01*
X128440476Y-109788152D02*
X128488095Y-109597676D01*
X128488095Y-109597676D02*
X128583333Y-109502438D01*
X128583333Y-109502438D02*
X128678571Y-109454819D01*
X128678571Y-109454819D02*
X128869047Y-109454819D01*
X128869047Y-109454819D02*
X128964285Y-109502438D01*
X128964285Y-109502438D02*
X129059523Y-109597676D01*
X129059523Y-109597676D02*
X129107142Y-109788152D01*
X129107142Y-109788152D02*
X129107142Y-110121485D01*
X129107142Y-110121485D02*
X129059523Y-110311961D01*
X129059523Y-110311961D02*
X128964285Y-110407200D01*
X128964285Y-110407200D02*
X128869047Y-110454819D01*
X128869047Y-110454819D02*
X128678571Y-110454819D01*
X129440476Y-109454819D02*
X130059523Y-109454819D01*
X130059523Y-109454819D02*
X129726190Y-109835771D01*
X129726190Y-109835771D02*
X129869047Y-109835771D01*
X129869047Y-109835771D02*
X129964285Y-109883390D01*
X129964285Y-109883390D02*
X130011904Y-109931009D01*
X130011904Y-109931009D02*
X130059523Y-110026247D01*
X130059523Y-110026247D02*
X130059523Y-110264342D01*
X130059523Y-110264342D02*
X130011904Y-110359580D01*
X130011904Y-110359580D02*
X129964285Y-110407200D01*
X129964285Y-110407200D02*
X129869047Y-110454819D01*
X129869047Y-110454819D02*
X129583333Y-110454819D01*
X129583333Y-110454819D02*
X129488095Y-110407200D01*
X129488095Y-110407200D02*
X129440476Y-110359580D01*
X128924762Y-124550057D02*
X128829524Y-124502438D01*
X128829524Y-124502438D02*
X128734286Y-124407200D01*
X128734286Y-124407200D02*
X128591429Y-124264342D01*
X128591429Y-124264342D02*
X128496191Y-124216723D01*
X128496191Y-124216723D02*
X128400953Y-124216723D01*
X128448572Y-124454819D02*
X128353334Y-124407200D01*
X128353334Y-124407200D02*
X128258096Y-124311961D01*
X128258096Y-124311961D02*
X128210477Y-124121485D01*
X128210477Y-124121485D02*
X128210477Y-123788152D01*
X128210477Y-123788152D02*
X128258096Y-123597676D01*
X128258096Y-123597676D02*
X128353334Y-123502438D01*
X128353334Y-123502438D02*
X128448572Y-123454819D01*
X128448572Y-123454819D02*
X128639048Y-123454819D01*
X128639048Y-123454819D02*
X128734286Y-123502438D01*
X128734286Y-123502438D02*
X128829524Y-123597676D01*
X128829524Y-123597676D02*
X128877143Y-123788152D01*
X128877143Y-123788152D02*
X128877143Y-124121485D01*
X128877143Y-124121485D02*
X128829524Y-124311961D01*
X128829524Y-124311961D02*
X128734286Y-124407200D01*
X128734286Y-124407200D02*
X128639048Y-124454819D01*
X128639048Y-124454819D02*
X128448572Y-124454819D01*
X129829524Y-124454819D02*
X129258096Y-124454819D01*
X129543810Y-124454819D02*
X129543810Y-123454819D01*
X129543810Y-123454819D02*
X129448572Y-123597676D01*
X129448572Y-123597676D02*
X129353334Y-123692914D01*
X129353334Y-123692914D02*
X129258096Y-123740533D01*
X147033334Y-79304819D02*
X146557144Y-79304819D01*
X146557144Y-79304819D02*
X146557144Y-78304819D01*
X147890477Y-79304819D02*
X147319049Y-79304819D01*
X147604763Y-79304819D02*
X147604763Y-78304819D01*
X147604763Y-78304819D02*
X147509525Y-78447676D01*
X147509525Y-78447676D02*
X147414287Y-78542914D01*
X147414287Y-78542914D02*
X147319049Y-78590533D01*
X170133333Y-120454819D02*
X169800000Y-119978628D01*
X169561905Y-120454819D02*
X169561905Y-119454819D01*
X169561905Y-119454819D02*
X169942857Y-119454819D01*
X169942857Y-119454819D02*
X170038095Y-119502438D01*
X170038095Y-119502438D02*
X170085714Y-119550057D01*
X170085714Y-119550057D02*
X170133333Y-119645295D01*
X170133333Y-119645295D02*
X170133333Y-119788152D01*
X170133333Y-119788152D02*
X170085714Y-119883390D01*
X170085714Y-119883390D02*
X170038095Y-119931009D01*
X170038095Y-119931009D02*
X169942857Y-119978628D01*
X169942857Y-119978628D02*
X169561905Y-119978628D01*
X171085714Y-120454819D02*
X170514286Y-120454819D01*
X170800000Y-120454819D02*
X170800000Y-119454819D01*
X170800000Y-119454819D02*
X170704762Y-119597676D01*
X170704762Y-119597676D02*
X170609524Y-119692914D01*
X170609524Y-119692914D02*
X170514286Y-119740533D01*
X170333333Y-104954819D02*
X170000000Y-104478628D01*
X169761905Y-104954819D02*
X169761905Y-103954819D01*
X169761905Y-103954819D02*
X170142857Y-103954819D01*
X170142857Y-103954819D02*
X170238095Y-104002438D01*
X170238095Y-104002438D02*
X170285714Y-104050057D01*
X170285714Y-104050057D02*
X170333333Y-104145295D01*
X170333333Y-104145295D02*
X170333333Y-104288152D01*
X170333333Y-104288152D02*
X170285714Y-104383390D01*
X170285714Y-104383390D02*
X170238095Y-104431009D01*
X170238095Y-104431009D02*
X170142857Y-104478628D01*
X170142857Y-104478628D02*
X169761905Y-104478628D01*
X170809524Y-104954819D02*
X171000000Y-104954819D01*
X171000000Y-104954819D02*
X171095238Y-104907200D01*
X171095238Y-104907200D02*
X171142857Y-104859580D01*
X171142857Y-104859580D02*
X171238095Y-104716723D01*
X171238095Y-104716723D02*
X171285714Y-104526247D01*
X171285714Y-104526247D02*
X171285714Y-104145295D01*
X171285714Y-104145295D02*
X171238095Y-104050057D01*
X171238095Y-104050057D02*
X171190476Y-104002438D01*
X171190476Y-104002438D02*
X171095238Y-103954819D01*
X171095238Y-103954819D02*
X170904762Y-103954819D01*
X170904762Y-103954819D02*
X170809524Y-104002438D01*
X170809524Y-104002438D02*
X170761905Y-104050057D01*
X170761905Y-104050057D02*
X170714286Y-104145295D01*
X170714286Y-104145295D02*
X170714286Y-104383390D01*
X170714286Y-104383390D02*
X170761905Y-104478628D01*
X170761905Y-104478628D02*
X170809524Y-104526247D01*
X170809524Y-104526247D02*
X170904762Y-104573866D01*
X170904762Y-104573866D02*
X171095238Y-104573866D01*
X171095238Y-104573866D02*
X171190476Y-104526247D01*
X171190476Y-104526247D02*
X171238095Y-104478628D01*
X171238095Y-104478628D02*
X171285714Y-104383390D01*
X178390833Y-89159580D02*
X178343214Y-89207200D01*
X178343214Y-89207200D02*
X178200357Y-89254819D01*
X178200357Y-89254819D02*
X178105119Y-89254819D01*
X178105119Y-89254819D02*
X177962262Y-89207200D01*
X177962262Y-89207200D02*
X177867024Y-89111961D01*
X177867024Y-89111961D02*
X177819405Y-89016723D01*
X177819405Y-89016723D02*
X177771786Y-88826247D01*
X177771786Y-88826247D02*
X177771786Y-88683390D01*
X177771786Y-88683390D02*
X177819405Y-88492914D01*
X177819405Y-88492914D02*
X177867024Y-88397676D01*
X177867024Y-88397676D02*
X177962262Y-88302438D01*
X177962262Y-88302438D02*
X178105119Y-88254819D01*
X178105119Y-88254819D02*
X178200357Y-88254819D01*
X178200357Y-88254819D02*
X178343214Y-88302438D01*
X178343214Y-88302438D02*
X178390833Y-88350057D01*
X179343214Y-89254819D02*
X178771786Y-89254819D01*
X179057500Y-89254819D02*
X179057500Y-88254819D01*
X179057500Y-88254819D02*
X178962262Y-88397676D01*
X178962262Y-88397676D02*
X178867024Y-88492914D01*
X178867024Y-88492914D02*
X178771786Y-88540533D01*
X159228571Y-79950057D02*
X159133333Y-79902438D01*
X159133333Y-79902438D02*
X159038095Y-79807200D01*
X159038095Y-79807200D02*
X158895238Y-79664342D01*
X158895238Y-79664342D02*
X158800000Y-79616723D01*
X158800000Y-79616723D02*
X158704762Y-79616723D01*
X158752381Y-79854819D02*
X158657143Y-79807200D01*
X158657143Y-79807200D02*
X158561905Y-79711961D01*
X158561905Y-79711961D02*
X158514286Y-79521485D01*
X158514286Y-79521485D02*
X158514286Y-79188152D01*
X158514286Y-79188152D02*
X158561905Y-78997676D01*
X158561905Y-78997676D02*
X158657143Y-78902438D01*
X158657143Y-78902438D02*
X158752381Y-78854819D01*
X158752381Y-78854819D02*
X158942857Y-78854819D01*
X158942857Y-78854819D02*
X159038095Y-78902438D01*
X159038095Y-78902438D02*
X159133333Y-78997676D01*
X159133333Y-78997676D02*
X159180952Y-79188152D01*
X159180952Y-79188152D02*
X159180952Y-79521485D01*
X159180952Y-79521485D02*
X159133333Y-79711961D01*
X159133333Y-79711961D02*
X159038095Y-79807200D01*
X159038095Y-79807200D02*
X158942857Y-79854819D01*
X158942857Y-79854819D02*
X158752381Y-79854819D01*
X160133333Y-79854819D02*
X159561905Y-79854819D01*
X159847619Y-79854819D02*
X159847619Y-78854819D01*
X159847619Y-78854819D02*
X159752381Y-78997676D01*
X159752381Y-78997676D02*
X159657143Y-79092914D01*
X159657143Y-79092914D02*
X159561905Y-79140533D01*
X160514286Y-78950057D02*
X160561905Y-78902438D01*
X160561905Y-78902438D02*
X160657143Y-78854819D01*
X160657143Y-78854819D02*
X160895238Y-78854819D01*
X160895238Y-78854819D02*
X160990476Y-78902438D01*
X160990476Y-78902438D02*
X161038095Y-78950057D01*
X161038095Y-78950057D02*
X161085714Y-79045295D01*
X161085714Y-79045295D02*
X161085714Y-79140533D01*
X161085714Y-79140533D02*
X161038095Y-79283390D01*
X161038095Y-79283390D02*
X160466667Y-79854819D01*
X160466667Y-79854819D02*
X161085714Y-79854819D01*
X170333333Y-110054819D02*
X170000000Y-109578628D01*
X169761905Y-110054819D02*
X169761905Y-109054819D01*
X169761905Y-109054819D02*
X170142857Y-109054819D01*
X170142857Y-109054819D02*
X170238095Y-109102438D01*
X170238095Y-109102438D02*
X170285714Y-109150057D01*
X170285714Y-109150057D02*
X170333333Y-109245295D01*
X170333333Y-109245295D02*
X170333333Y-109388152D01*
X170333333Y-109388152D02*
X170285714Y-109483390D01*
X170285714Y-109483390D02*
X170238095Y-109531009D01*
X170238095Y-109531009D02*
X170142857Y-109578628D01*
X170142857Y-109578628D02*
X169761905Y-109578628D01*
X171190476Y-109388152D02*
X171190476Y-110054819D01*
X170952381Y-109007200D02*
X170714286Y-109721485D01*
X170714286Y-109721485D02*
X171333333Y-109721485D01*
X137609580Y-84666666D02*
X137657200Y-84714285D01*
X137657200Y-84714285D02*
X137704819Y-84857142D01*
X137704819Y-84857142D02*
X137704819Y-84952380D01*
X137704819Y-84952380D02*
X137657200Y-85095237D01*
X137657200Y-85095237D02*
X137561961Y-85190475D01*
X137561961Y-85190475D02*
X137466723Y-85238094D01*
X137466723Y-85238094D02*
X137276247Y-85285713D01*
X137276247Y-85285713D02*
X137133390Y-85285713D01*
X137133390Y-85285713D02*
X136942914Y-85238094D01*
X136942914Y-85238094D02*
X136847676Y-85190475D01*
X136847676Y-85190475D02*
X136752438Y-85095237D01*
X136752438Y-85095237D02*
X136704819Y-84952380D01*
X136704819Y-84952380D02*
X136704819Y-84857142D01*
X136704819Y-84857142D02*
X136752438Y-84714285D01*
X136752438Y-84714285D02*
X136800057Y-84666666D01*
X136704819Y-83761904D02*
X136704819Y-84238094D01*
X136704819Y-84238094D02*
X137181009Y-84285713D01*
X137181009Y-84285713D02*
X137133390Y-84238094D01*
X137133390Y-84238094D02*
X137085771Y-84142856D01*
X137085771Y-84142856D02*
X137085771Y-83904761D01*
X137085771Y-83904761D02*
X137133390Y-83809523D01*
X137133390Y-83809523D02*
X137181009Y-83761904D01*
X137181009Y-83761904D02*
X137276247Y-83714285D01*
X137276247Y-83714285D02*
X137514342Y-83714285D01*
X137514342Y-83714285D02*
X137609580Y-83761904D01*
X137609580Y-83761904D02*
X137657200Y-83809523D01*
X137657200Y-83809523D02*
X137704819Y-83904761D01*
X137704819Y-83904761D02*
X137704819Y-84142856D01*
X137704819Y-84142856D02*
X137657200Y-84238094D01*
X137657200Y-84238094D02*
X137609580Y-84285713D01*
X167860058Y-116075238D02*
X167812439Y-116170476D01*
X167812439Y-116170476D02*
X167717201Y-116265714D01*
X167717201Y-116265714D02*
X167574343Y-116408571D01*
X167574343Y-116408571D02*
X167526724Y-116503809D01*
X167526724Y-116503809D02*
X167526724Y-116599047D01*
X167764820Y-116551428D02*
X167717201Y-116646666D01*
X167717201Y-116646666D02*
X167621962Y-116741904D01*
X167621962Y-116741904D02*
X167431486Y-116789523D01*
X167431486Y-116789523D02*
X167098153Y-116789523D01*
X167098153Y-116789523D02*
X166907677Y-116741904D01*
X166907677Y-116741904D02*
X166812439Y-116646666D01*
X166812439Y-116646666D02*
X166764820Y-116551428D01*
X166764820Y-116551428D02*
X166764820Y-116360952D01*
X166764820Y-116360952D02*
X166812439Y-116265714D01*
X166812439Y-116265714D02*
X166907677Y-116170476D01*
X166907677Y-116170476D02*
X167098153Y-116122857D01*
X167098153Y-116122857D02*
X167431486Y-116122857D01*
X167431486Y-116122857D02*
X167621962Y-116170476D01*
X167621962Y-116170476D02*
X167717201Y-116265714D01*
X167717201Y-116265714D02*
X167764820Y-116360952D01*
X167764820Y-116360952D02*
X167764820Y-116551428D01*
X167193391Y-115551428D02*
X167145772Y-115646666D01*
X167145772Y-115646666D02*
X167098153Y-115694285D01*
X167098153Y-115694285D02*
X167002915Y-115741904D01*
X167002915Y-115741904D02*
X166955296Y-115741904D01*
X166955296Y-115741904D02*
X166860058Y-115694285D01*
X166860058Y-115694285D02*
X166812439Y-115646666D01*
X166812439Y-115646666D02*
X166764820Y-115551428D01*
X166764820Y-115551428D02*
X166764820Y-115360952D01*
X166764820Y-115360952D02*
X166812439Y-115265714D01*
X166812439Y-115265714D02*
X166860058Y-115218095D01*
X166860058Y-115218095D02*
X166955296Y-115170476D01*
X166955296Y-115170476D02*
X167002915Y-115170476D01*
X167002915Y-115170476D02*
X167098153Y-115218095D01*
X167098153Y-115218095D02*
X167145772Y-115265714D01*
X167145772Y-115265714D02*
X167193391Y-115360952D01*
X167193391Y-115360952D02*
X167193391Y-115551428D01*
X167193391Y-115551428D02*
X167241010Y-115646666D01*
X167241010Y-115646666D02*
X167288629Y-115694285D01*
X167288629Y-115694285D02*
X167383867Y-115741904D01*
X167383867Y-115741904D02*
X167574343Y-115741904D01*
X167574343Y-115741904D02*
X167669581Y-115694285D01*
X167669581Y-115694285D02*
X167717201Y-115646666D01*
X167717201Y-115646666D02*
X167764820Y-115551428D01*
X167764820Y-115551428D02*
X167764820Y-115360952D01*
X167764820Y-115360952D02*
X167717201Y-115265714D01*
X167717201Y-115265714D02*
X167669581Y-115218095D01*
X167669581Y-115218095D02*
X167574343Y-115170476D01*
X167574343Y-115170476D02*
X167383867Y-115170476D01*
X167383867Y-115170476D02*
X167288629Y-115218095D01*
X167288629Y-115218095D02*
X167241010Y-115265714D01*
X167241010Y-115265714D02*
X167193391Y-115360952D01*
X157467036Y-95976174D02*
X156894617Y-95875159D01*
X157062975Y-96380235D02*
X156355869Y-95673128D01*
X156355869Y-95673128D02*
X156625243Y-95403754D01*
X156625243Y-95403754D02*
X156726258Y-95370082D01*
X156726258Y-95370082D02*
X156793601Y-95370082D01*
X156793601Y-95370082D02*
X156894617Y-95403754D01*
X156894617Y-95403754D02*
X156995632Y-95504769D01*
X156995632Y-95504769D02*
X157029304Y-95605785D01*
X157029304Y-95605785D02*
X157029304Y-95673128D01*
X157029304Y-95673128D02*
X156995632Y-95774143D01*
X156995632Y-95774143D02*
X156726258Y-96043517D01*
X158140471Y-95302739D02*
X157736410Y-95706800D01*
X157938441Y-95504769D02*
X157231334Y-94797663D01*
X157231334Y-94797663D02*
X157265006Y-94966021D01*
X157265006Y-94966021D02*
X157265006Y-95100708D01*
X157265006Y-95100708D02*
X157231334Y-95201724D01*
X157669067Y-94359930D02*
X158106800Y-93922197D01*
X158106800Y-93922197D02*
X158140472Y-94427273D01*
X158140472Y-94427273D02*
X158241487Y-94326258D01*
X158241487Y-94326258D02*
X158342502Y-94292586D01*
X158342502Y-94292586D02*
X158409846Y-94292586D01*
X158409846Y-94292586D02*
X158510861Y-94326258D01*
X158510861Y-94326258D02*
X158679220Y-94494617D01*
X158679220Y-94494617D02*
X158712891Y-94595632D01*
X158712891Y-94595632D02*
X158712891Y-94662975D01*
X158712891Y-94662975D02*
X158679220Y-94763991D01*
X158679220Y-94763991D02*
X158477189Y-94966021D01*
X158477189Y-94966021D02*
X158376174Y-94999693D01*
X158376174Y-94999693D02*
X158308830Y-94999693D01*
X140661905Y-79954819D02*
X140661905Y-78954819D01*
X140661905Y-78954819D02*
X140900000Y-78954819D01*
X140900000Y-78954819D02*
X141042857Y-79002438D01*
X141042857Y-79002438D02*
X141138095Y-79097676D01*
X141138095Y-79097676D02*
X141185714Y-79192914D01*
X141185714Y-79192914D02*
X141233333Y-79383390D01*
X141233333Y-79383390D02*
X141233333Y-79526247D01*
X141233333Y-79526247D02*
X141185714Y-79716723D01*
X141185714Y-79716723D02*
X141138095Y-79811961D01*
X141138095Y-79811961D02*
X141042857Y-79907200D01*
X141042857Y-79907200D02*
X140900000Y-79954819D01*
X140900000Y-79954819D02*
X140661905Y-79954819D01*
X142185714Y-79954819D02*
X141614286Y-79954819D01*
X141900000Y-79954819D02*
X141900000Y-78954819D01*
X141900000Y-78954819D02*
X141804762Y-79097676D01*
X141804762Y-79097676D02*
X141709524Y-79192914D01*
X141709524Y-79192914D02*
X141614286Y-79240533D01*
X130666666Y-67999819D02*
X130666666Y-68714104D01*
X130666666Y-68714104D02*
X130619047Y-68856961D01*
X130619047Y-68856961D02*
X130523809Y-68952200D01*
X130523809Y-68952200D02*
X130380952Y-68999819D01*
X130380952Y-68999819D02*
X130285714Y-68999819D01*
X131571428Y-68333152D02*
X131571428Y-68999819D01*
X131333333Y-67952200D02*
X131095238Y-68666485D01*
X131095238Y-68666485D02*
X131714285Y-68666485D01*
X162671428Y-81254819D02*
X162338095Y-80778628D01*
X162100000Y-81254819D02*
X162100000Y-80254819D01*
X162100000Y-80254819D02*
X162480952Y-80254819D01*
X162480952Y-80254819D02*
X162576190Y-80302438D01*
X162576190Y-80302438D02*
X162623809Y-80350057D01*
X162623809Y-80350057D02*
X162671428Y-80445295D01*
X162671428Y-80445295D02*
X162671428Y-80588152D01*
X162671428Y-80588152D02*
X162623809Y-80683390D01*
X162623809Y-80683390D02*
X162576190Y-80731009D01*
X162576190Y-80731009D02*
X162480952Y-80778628D01*
X162480952Y-80778628D02*
X162100000Y-80778628D01*
X162861905Y-81350057D02*
X163623809Y-81350057D01*
X163814286Y-81207200D02*
X163957143Y-81254819D01*
X163957143Y-81254819D02*
X164195238Y-81254819D01*
X164195238Y-81254819D02*
X164290476Y-81207200D01*
X164290476Y-81207200D02*
X164338095Y-81159580D01*
X164338095Y-81159580D02*
X164385714Y-81064342D01*
X164385714Y-81064342D02*
X164385714Y-80969104D01*
X164385714Y-80969104D02*
X164338095Y-80873866D01*
X164338095Y-80873866D02*
X164290476Y-80826247D01*
X164290476Y-80826247D02*
X164195238Y-80778628D01*
X164195238Y-80778628D02*
X164004762Y-80731009D01*
X164004762Y-80731009D02*
X163909524Y-80683390D01*
X163909524Y-80683390D02*
X163861905Y-80635771D01*
X163861905Y-80635771D02*
X163814286Y-80540533D01*
X163814286Y-80540533D02*
X163814286Y-80445295D01*
X163814286Y-80445295D02*
X163861905Y-80350057D01*
X163861905Y-80350057D02*
X163909524Y-80302438D01*
X163909524Y-80302438D02*
X164004762Y-80254819D01*
X164004762Y-80254819D02*
X164242857Y-80254819D01*
X164242857Y-80254819D02*
X164385714Y-80302438D01*
X164814286Y-80731009D02*
X165147619Y-80731009D01*
X165290476Y-81254819D02*
X164814286Y-81254819D01*
X164814286Y-81254819D02*
X164814286Y-80254819D01*
X164814286Y-80254819D02*
X165290476Y-80254819D01*
X165719048Y-81254819D02*
X165719048Y-80254819D01*
X165719048Y-80254819D02*
X166290476Y-81254819D01*
X166290476Y-81254819D02*
X166290476Y-80254819D01*
X166719048Y-81207200D02*
X166861905Y-81254819D01*
X166861905Y-81254819D02*
X167100000Y-81254819D01*
X167100000Y-81254819D02*
X167195238Y-81207200D01*
X167195238Y-81207200D02*
X167242857Y-81159580D01*
X167242857Y-81159580D02*
X167290476Y-81064342D01*
X167290476Y-81064342D02*
X167290476Y-80969104D01*
X167290476Y-80969104D02*
X167242857Y-80873866D01*
X167242857Y-80873866D02*
X167195238Y-80826247D01*
X167195238Y-80826247D02*
X167100000Y-80778628D01*
X167100000Y-80778628D02*
X166909524Y-80731009D01*
X166909524Y-80731009D02*
X166814286Y-80683390D01*
X166814286Y-80683390D02*
X166766667Y-80635771D01*
X166766667Y-80635771D02*
X166719048Y-80540533D01*
X166719048Y-80540533D02*
X166719048Y-80445295D01*
X166719048Y-80445295D02*
X166766667Y-80350057D01*
X166766667Y-80350057D02*
X166814286Y-80302438D01*
X166814286Y-80302438D02*
X166909524Y-80254819D01*
X166909524Y-80254819D02*
X167147619Y-80254819D01*
X167147619Y-80254819D02*
X167290476Y-80302438D01*
X167719048Y-80731009D02*
X168052381Y-80731009D01*
X168195238Y-81254819D02*
X167719048Y-81254819D01*
X167719048Y-81254819D02*
X167719048Y-80254819D01*
X167719048Y-80254819D02*
X168195238Y-80254819D01*
X169147619Y-81254819D02*
X168576191Y-81254819D01*
X168861905Y-81254819D02*
X168861905Y-80254819D01*
X168861905Y-80254819D02*
X168766667Y-80397676D01*
X168766667Y-80397676D02*
X168671429Y-80492914D01*
X168671429Y-80492914D02*
X168576191Y-80540533D01*
X167860058Y-109345238D02*
X167812439Y-109440476D01*
X167812439Y-109440476D02*
X167717201Y-109535714D01*
X167717201Y-109535714D02*
X167574343Y-109678571D01*
X167574343Y-109678571D02*
X167526724Y-109773809D01*
X167526724Y-109773809D02*
X167526724Y-109869047D01*
X167764820Y-109821428D02*
X167717201Y-109916666D01*
X167717201Y-109916666D02*
X167621962Y-110011904D01*
X167621962Y-110011904D02*
X167431486Y-110059523D01*
X167431486Y-110059523D02*
X167098153Y-110059523D01*
X167098153Y-110059523D02*
X166907677Y-110011904D01*
X166907677Y-110011904D02*
X166812439Y-109916666D01*
X166812439Y-109916666D02*
X166764820Y-109821428D01*
X166764820Y-109821428D02*
X166764820Y-109630952D01*
X166764820Y-109630952D02*
X166812439Y-109535714D01*
X166812439Y-109535714D02*
X166907677Y-109440476D01*
X166907677Y-109440476D02*
X167098153Y-109392857D01*
X167098153Y-109392857D02*
X167431486Y-109392857D01*
X167431486Y-109392857D02*
X167621962Y-109440476D01*
X167621962Y-109440476D02*
X167717201Y-109535714D01*
X167717201Y-109535714D02*
X167764820Y-109630952D01*
X167764820Y-109630952D02*
X167764820Y-109821428D01*
X166764820Y-108535714D02*
X166764820Y-108726190D01*
X166764820Y-108726190D02*
X166812439Y-108821428D01*
X166812439Y-108821428D02*
X166860058Y-108869047D01*
X166860058Y-108869047D02*
X167002915Y-108964285D01*
X167002915Y-108964285D02*
X167193391Y-109011904D01*
X167193391Y-109011904D02*
X167574343Y-109011904D01*
X167574343Y-109011904D02*
X167669581Y-108964285D01*
X167669581Y-108964285D02*
X167717201Y-108916666D01*
X167717201Y-108916666D02*
X167764820Y-108821428D01*
X167764820Y-108821428D02*
X167764820Y-108630952D01*
X167764820Y-108630952D02*
X167717201Y-108535714D01*
X167717201Y-108535714D02*
X167669581Y-108488095D01*
X167669581Y-108488095D02*
X167574343Y-108440476D01*
X167574343Y-108440476D02*
X167336248Y-108440476D01*
X167336248Y-108440476D02*
X167241010Y-108488095D01*
X167241010Y-108488095D02*
X167193391Y-108535714D01*
X167193391Y-108535714D02*
X167145772Y-108630952D01*
X167145772Y-108630952D02*
X167145772Y-108821428D01*
X167145772Y-108821428D02*
X167193391Y-108916666D01*
X167193391Y-108916666D02*
X167241010Y-108964285D01*
X167241010Y-108964285D02*
X167336248Y-109011904D01*
X122559580Y-84916666D02*
X122607200Y-84964285D01*
X122607200Y-84964285D02*
X122654819Y-85107142D01*
X122654819Y-85107142D02*
X122654819Y-85202380D01*
X122654819Y-85202380D02*
X122607200Y-85345237D01*
X122607200Y-85345237D02*
X122511961Y-85440475D01*
X122511961Y-85440475D02*
X122416723Y-85488094D01*
X122416723Y-85488094D02*
X122226247Y-85535713D01*
X122226247Y-85535713D02*
X122083390Y-85535713D01*
X122083390Y-85535713D02*
X121892914Y-85488094D01*
X121892914Y-85488094D02*
X121797676Y-85440475D01*
X121797676Y-85440475D02*
X121702438Y-85345237D01*
X121702438Y-85345237D02*
X121654819Y-85202380D01*
X121654819Y-85202380D02*
X121654819Y-85107142D01*
X121654819Y-85107142D02*
X121702438Y-84964285D01*
X121702438Y-84964285D02*
X121750057Y-84916666D01*
X121988152Y-84059523D02*
X122654819Y-84059523D01*
X121607200Y-84297618D02*
X122321485Y-84535713D01*
X122321485Y-84535713D02*
X122321485Y-83916666D01*
X129154761Y-104800057D02*
X129059523Y-104752438D01*
X129059523Y-104752438D02*
X128964285Y-104657200D01*
X128964285Y-104657200D02*
X128821428Y-104514342D01*
X128821428Y-104514342D02*
X128726190Y-104466723D01*
X128726190Y-104466723D02*
X128630952Y-104466723D01*
X128678571Y-104704819D02*
X128583333Y-104657200D01*
X128583333Y-104657200D02*
X128488095Y-104561961D01*
X128488095Y-104561961D02*
X128440476Y-104371485D01*
X128440476Y-104371485D02*
X128440476Y-104038152D01*
X128440476Y-104038152D02*
X128488095Y-103847676D01*
X128488095Y-103847676D02*
X128583333Y-103752438D01*
X128583333Y-103752438D02*
X128678571Y-103704819D01*
X128678571Y-103704819D02*
X128869047Y-103704819D01*
X128869047Y-103704819D02*
X128964285Y-103752438D01*
X128964285Y-103752438D02*
X129059523Y-103847676D01*
X129059523Y-103847676D02*
X129107142Y-104038152D01*
X129107142Y-104038152D02*
X129107142Y-104371485D01*
X129107142Y-104371485D02*
X129059523Y-104561961D01*
X129059523Y-104561961D02*
X128964285Y-104657200D01*
X128964285Y-104657200D02*
X128869047Y-104704819D01*
X128869047Y-104704819D02*
X128678571Y-104704819D01*
X130011904Y-103704819D02*
X129535714Y-103704819D01*
X129535714Y-103704819D02*
X129488095Y-104181009D01*
X129488095Y-104181009D02*
X129535714Y-104133390D01*
X129535714Y-104133390D02*
X129630952Y-104085771D01*
X129630952Y-104085771D02*
X129869047Y-104085771D01*
X129869047Y-104085771D02*
X129964285Y-104133390D01*
X129964285Y-104133390D02*
X130011904Y-104181009D01*
X130011904Y-104181009D02*
X130059523Y-104276247D01*
X130059523Y-104276247D02*
X130059523Y-104514342D01*
X130059523Y-104514342D02*
X130011904Y-104609580D01*
X130011904Y-104609580D02*
X129964285Y-104657200D01*
X129964285Y-104657200D02*
X129869047Y-104704819D01*
X129869047Y-104704819D02*
X129630952Y-104704819D01*
X129630952Y-104704819D02*
X129535714Y-104657200D01*
X129535714Y-104657200D02*
X129488095Y-104609580D01*
X163359580Y-97379167D02*
X163407200Y-97426786D01*
X163407200Y-97426786D02*
X163454819Y-97569643D01*
X163454819Y-97569643D02*
X163454819Y-97664881D01*
X163454819Y-97664881D02*
X163407200Y-97807738D01*
X163407200Y-97807738D02*
X163311961Y-97902976D01*
X163311961Y-97902976D02*
X163216723Y-97950595D01*
X163216723Y-97950595D02*
X163026247Y-97998214D01*
X163026247Y-97998214D02*
X162883390Y-97998214D01*
X162883390Y-97998214D02*
X162692914Y-97950595D01*
X162692914Y-97950595D02*
X162597676Y-97902976D01*
X162597676Y-97902976D02*
X162502438Y-97807738D01*
X162502438Y-97807738D02*
X162454819Y-97664881D01*
X162454819Y-97664881D02*
X162454819Y-97569643D01*
X162454819Y-97569643D02*
X162502438Y-97426786D01*
X162502438Y-97426786D02*
X162550057Y-97379167D01*
X162454819Y-97045833D02*
X162454819Y-96426786D01*
X162454819Y-96426786D02*
X162835771Y-96760119D01*
X162835771Y-96760119D02*
X162835771Y-96617262D01*
X162835771Y-96617262D02*
X162883390Y-96522024D01*
X162883390Y-96522024D02*
X162931009Y-96474405D01*
X162931009Y-96474405D02*
X163026247Y-96426786D01*
X163026247Y-96426786D02*
X163264342Y-96426786D01*
X163264342Y-96426786D02*
X163359580Y-96474405D01*
X163359580Y-96474405D02*
X163407200Y-96522024D01*
X163407200Y-96522024D02*
X163454819Y-96617262D01*
X163454819Y-96617262D02*
X163454819Y-96902976D01*
X163454819Y-96902976D02*
X163407200Y-96998214D01*
X163407200Y-96998214D02*
X163359580Y-97045833D01*
X144954819Y-102345238D02*
X144478628Y-102678571D01*
X144954819Y-102916666D02*
X143954819Y-102916666D01*
X143954819Y-102916666D02*
X143954819Y-102535714D01*
X143954819Y-102535714D02*
X144002438Y-102440476D01*
X144002438Y-102440476D02*
X144050057Y-102392857D01*
X144050057Y-102392857D02*
X144145295Y-102345238D01*
X144145295Y-102345238D02*
X144288152Y-102345238D01*
X144288152Y-102345238D02*
X144383390Y-102392857D01*
X144383390Y-102392857D02*
X144431009Y-102440476D01*
X144431009Y-102440476D02*
X144478628Y-102535714D01*
X144478628Y-102535714D02*
X144478628Y-102916666D01*
X143954819Y-102059523D02*
X144954819Y-101726190D01*
X144954819Y-101726190D02*
X143954819Y-101392857D01*
X144954819Y-100535714D02*
X144954819Y-101107142D01*
X144954819Y-100821428D02*
X143954819Y-100821428D01*
X143954819Y-100821428D02*
X144097676Y-100916666D01*
X144097676Y-100916666D02*
X144192914Y-101011904D01*
X144192914Y-101011904D02*
X144240533Y-101107142D01*
X150590833Y-87929580D02*
X150543214Y-87977200D01*
X150543214Y-87977200D02*
X150400357Y-88024819D01*
X150400357Y-88024819D02*
X150305119Y-88024819D01*
X150305119Y-88024819D02*
X150162262Y-87977200D01*
X150162262Y-87977200D02*
X150067024Y-87881961D01*
X150067024Y-87881961D02*
X150019405Y-87786723D01*
X150019405Y-87786723D02*
X149971786Y-87596247D01*
X149971786Y-87596247D02*
X149971786Y-87453390D01*
X149971786Y-87453390D02*
X150019405Y-87262914D01*
X150019405Y-87262914D02*
X150067024Y-87167676D01*
X150067024Y-87167676D02*
X150162262Y-87072438D01*
X150162262Y-87072438D02*
X150305119Y-87024819D01*
X150305119Y-87024819D02*
X150400357Y-87024819D01*
X150400357Y-87024819D02*
X150543214Y-87072438D01*
X150543214Y-87072438D02*
X150590833Y-87120057D01*
X150971786Y-87120057D02*
X151019405Y-87072438D01*
X151019405Y-87072438D02*
X151114643Y-87024819D01*
X151114643Y-87024819D02*
X151352738Y-87024819D01*
X151352738Y-87024819D02*
X151447976Y-87072438D01*
X151447976Y-87072438D02*
X151495595Y-87120057D01*
X151495595Y-87120057D02*
X151543214Y-87215295D01*
X151543214Y-87215295D02*
X151543214Y-87310533D01*
X151543214Y-87310533D02*
X151495595Y-87453390D01*
X151495595Y-87453390D02*
X150924167Y-88024819D01*
X150924167Y-88024819D02*
X151543214Y-88024819D01*
X170383333Y-115254819D02*
X170050000Y-114778628D01*
X169811905Y-115254819D02*
X169811905Y-114254819D01*
X169811905Y-114254819D02*
X170192857Y-114254819D01*
X170192857Y-114254819D02*
X170288095Y-114302438D01*
X170288095Y-114302438D02*
X170335714Y-114350057D01*
X170335714Y-114350057D02*
X170383333Y-114445295D01*
X170383333Y-114445295D02*
X170383333Y-114588152D01*
X170383333Y-114588152D02*
X170335714Y-114683390D01*
X170335714Y-114683390D02*
X170288095Y-114731009D01*
X170288095Y-114731009D02*
X170192857Y-114778628D01*
X170192857Y-114778628D02*
X169811905Y-114778628D01*
X170954762Y-114683390D02*
X170859524Y-114635771D01*
X170859524Y-114635771D02*
X170811905Y-114588152D01*
X170811905Y-114588152D02*
X170764286Y-114492914D01*
X170764286Y-114492914D02*
X170764286Y-114445295D01*
X170764286Y-114445295D02*
X170811905Y-114350057D01*
X170811905Y-114350057D02*
X170859524Y-114302438D01*
X170859524Y-114302438D02*
X170954762Y-114254819D01*
X170954762Y-114254819D02*
X171145238Y-114254819D01*
X171145238Y-114254819D02*
X171240476Y-114302438D01*
X171240476Y-114302438D02*
X171288095Y-114350057D01*
X171288095Y-114350057D02*
X171335714Y-114445295D01*
X171335714Y-114445295D02*
X171335714Y-114492914D01*
X171335714Y-114492914D02*
X171288095Y-114588152D01*
X171288095Y-114588152D02*
X171240476Y-114635771D01*
X171240476Y-114635771D02*
X171145238Y-114683390D01*
X171145238Y-114683390D02*
X170954762Y-114683390D01*
X170954762Y-114683390D02*
X170859524Y-114731009D01*
X170859524Y-114731009D02*
X170811905Y-114778628D01*
X170811905Y-114778628D02*
X170764286Y-114873866D01*
X170764286Y-114873866D02*
X170764286Y-115064342D01*
X170764286Y-115064342D02*
X170811905Y-115159580D01*
X170811905Y-115159580D02*
X170859524Y-115207200D01*
X170859524Y-115207200D02*
X170954762Y-115254819D01*
X170954762Y-115254819D02*
X171145238Y-115254819D01*
X171145238Y-115254819D02*
X171240476Y-115207200D01*
X171240476Y-115207200D02*
X171288095Y-115159580D01*
X171288095Y-115159580D02*
X171335714Y-115064342D01*
X171335714Y-115064342D02*
X171335714Y-114873866D01*
X171335714Y-114873866D02*
X171288095Y-114778628D01*
X171288095Y-114778628D02*
X171240476Y-114731009D01*
X171240476Y-114731009D02*
X171145238Y-114683390D01*
X129178571Y-115800057D02*
X129083333Y-115752438D01*
X129083333Y-115752438D02*
X128988095Y-115657200D01*
X128988095Y-115657200D02*
X128845238Y-115514342D01*
X128845238Y-115514342D02*
X128750000Y-115466723D01*
X128750000Y-115466723D02*
X128654762Y-115466723D01*
X128702381Y-115704819D02*
X128607143Y-115657200D01*
X128607143Y-115657200D02*
X128511905Y-115561961D01*
X128511905Y-115561961D02*
X128464286Y-115371485D01*
X128464286Y-115371485D02*
X128464286Y-115038152D01*
X128464286Y-115038152D02*
X128511905Y-114847676D01*
X128511905Y-114847676D02*
X128607143Y-114752438D01*
X128607143Y-114752438D02*
X128702381Y-114704819D01*
X128702381Y-114704819D02*
X128892857Y-114704819D01*
X128892857Y-114704819D02*
X128988095Y-114752438D01*
X128988095Y-114752438D02*
X129083333Y-114847676D01*
X129083333Y-114847676D02*
X129130952Y-115038152D01*
X129130952Y-115038152D02*
X129130952Y-115371485D01*
X129130952Y-115371485D02*
X129083333Y-115561961D01*
X129083333Y-115561961D02*
X128988095Y-115657200D01*
X128988095Y-115657200D02*
X128892857Y-115704819D01*
X128892857Y-115704819D02*
X128702381Y-115704819D01*
X130083333Y-115704819D02*
X129511905Y-115704819D01*
X129797619Y-115704819D02*
X129797619Y-114704819D01*
X129797619Y-114704819D02*
X129702381Y-114847676D01*
X129702381Y-114847676D02*
X129607143Y-114942914D01*
X129607143Y-114942914D02*
X129511905Y-114990533D01*
X131035714Y-115704819D02*
X130464286Y-115704819D01*
X130750000Y-115704819D02*
X130750000Y-114704819D01*
X130750000Y-114704819D02*
X130654762Y-114847676D01*
X130654762Y-114847676D02*
X130559524Y-114942914D01*
X130559524Y-114942914D02*
X130464286Y-114990533D01*
X170383333Y-112654819D02*
X170050000Y-112178628D01*
X169811905Y-112654819D02*
X169811905Y-111654819D01*
X169811905Y-111654819D02*
X170192857Y-111654819D01*
X170192857Y-111654819D02*
X170288095Y-111702438D01*
X170288095Y-111702438D02*
X170335714Y-111750057D01*
X170335714Y-111750057D02*
X170383333Y-111845295D01*
X170383333Y-111845295D02*
X170383333Y-111988152D01*
X170383333Y-111988152D02*
X170335714Y-112083390D01*
X170335714Y-112083390D02*
X170288095Y-112131009D01*
X170288095Y-112131009D02*
X170192857Y-112178628D01*
X170192857Y-112178628D02*
X169811905Y-112178628D01*
X171240476Y-111654819D02*
X171050000Y-111654819D01*
X171050000Y-111654819D02*
X170954762Y-111702438D01*
X170954762Y-111702438D02*
X170907143Y-111750057D01*
X170907143Y-111750057D02*
X170811905Y-111892914D01*
X170811905Y-111892914D02*
X170764286Y-112083390D01*
X170764286Y-112083390D02*
X170764286Y-112464342D01*
X170764286Y-112464342D02*
X170811905Y-112559580D01*
X170811905Y-112559580D02*
X170859524Y-112607200D01*
X170859524Y-112607200D02*
X170954762Y-112654819D01*
X170954762Y-112654819D02*
X171145238Y-112654819D01*
X171145238Y-112654819D02*
X171240476Y-112607200D01*
X171240476Y-112607200D02*
X171288095Y-112559580D01*
X171288095Y-112559580D02*
X171335714Y-112464342D01*
X171335714Y-112464342D02*
X171335714Y-112226247D01*
X171335714Y-112226247D02*
X171288095Y-112131009D01*
X171288095Y-112131009D02*
X171240476Y-112083390D01*
X171240476Y-112083390D02*
X171145238Y-112035771D01*
X171145238Y-112035771D02*
X170954762Y-112035771D01*
X170954762Y-112035771D02*
X170859524Y-112083390D01*
X170859524Y-112083390D02*
X170811905Y-112131009D01*
X170811905Y-112131009D02*
X170764286Y-112226247D01*
X149569642Y-90954819D02*
X149236309Y-90478628D01*
X148998214Y-90954819D02*
X148998214Y-89954819D01*
X148998214Y-89954819D02*
X149379166Y-89954819D01*
X149379166Y-89954819D02*
X149474404Y-90002438D01*
X149474404Y-90002438D02*
X149522023Y-90050057D01*
X149522023Y-90050057D02*
X149569642Y-90145295D01*
X149569642Y-90145295D02*
X149569642Y-90288152D01*
X149569642Y-90288152D02*
X149522023Y-90383390D01*
X149522023Y-90383390D02*
X149474404Y-90431009D01*
X149474404Y-90431009D02*
X149379166Y-90478628D01*
X149379166Y-90478628D02*
X148998214Y-90478628D01*
X150522023Y-90954819D02*
X149950595Y-90954819D01*
X150236309Y-90954819D02*
X150236309Y-89954819D01*
X150236309Y-89954819D02*
X150141071Y-90097676D01*
X150141071Y-90097676D02*
X150045833Y-90192914D01*
X150045833Y-90192914D02*
X149950595Y-90240533D01*
X150902976Y-90050057D02*
X150950595Y-90002438D01*
X150950595Y-90002438D02*
X151045833Y-89954819D01*
X151045833Y-89954819D02*
X151283928Y-89954819D01*
X151283928Y-89954819D02*
X151379166Y-90002438D01*
X151379166Y-90002438D02*
X151426785Y-90050057D01*
X151426785Y-90050057D02*
X151474404Y-90145295D01*
X151474404Y-90145295D02*
X151474404Y-90240533D01*
X151474404Y-90240533D02*
X151426785Y-90383390D01*
X151426785Y-90383390D02*
X150855357Y-90954819D01*
X150855357Y-90954819D02*
X151474404Y-90954819D01*
X170333333Y-107454819D02*
X170000000Y-106978628D01*
X169761905Y-107454819D02*
X169761905Y-106454819D01*
X169761905Y-106454819D02*
X170142857Y-106454819D01*
X170142857Y-106454819D02*
X170238095Y-106502438D01*
X170238095Y-106502438D02*
X170285714Y-106550057D01*
X170285714Y-106550057D02*
X170333333Y-106645295D01*
X170333333Y-106645295D02*
X170333333Y-106788152D01*
X170333333Y-106788152D02*
X170285714Y-106883390D01*
X170285714Y-106883390D02*
X170238095Y-106931009D01*
X170238095Y-106931009D02*
X170142857Y-106978628D01*
X170142857Y-106978628D02*
X169761905Y-106978628D01*
X170714286Y-106550057D02*
X170761905Y-106502438D01*
X170761905Y-106502438D02*
X170857143Y-106454819D01*
X170857143Y-106454819D02*
X171095238Y-106454819D01*
X171095238Y-106454819D02*
X171190476Y-106502438D01*
X171190476Y-106502438D02*
X171238095Y-106550057D01*
X171238095Y-106550057D02*
X171285714Y-106645295D01*
X171285714Y-106645295D02*
X171285714Y-106740533D01*
X171285714Y-106740533D02*
X171238095Y-106883390D01*
X171238095Y-106883390D02*
X170666667Y-107454819D01*
X170666667Y-107454819D02*
X171285714Y-107454819D01*
X177916666Y-124084819D02*
X177916666Y-124799104D01*
X177916666Y-124799104D02*
X177869047Y-124941961D01*
X177869047Y-124941961D02*
X177773809Y-125037200D01*
X177773809Y-125037200D02*
X177630952Y-125084819D01*
X177630952Y-125084819D02*
X177535714Y-125084819D01*
X178916666Y-125084819D02*
X178345238Y-125084819D01*
X178630952Y-125084819D02*
X178630952Y-124084819D01*
X178630952Y-124084819D02*
X178535714Y-124227676D01*
X178535714Y-124227676D02*
X178440476Y-124322914D01*
X178440476Y-124322914D02*
X178345238Y-124370533D01*
X166300057Y-122821428D02*
X166252438Y-122916666D01*
X166252438Y-122916666D02*
X166157200Y-123011904D01*
X166157200Y-123011904D02*
X166014342Y-123154761D01*
X166014342Y-123154761D02*
X165966723Y-123249999D01*
X165966723Y-123249999D02*
X165966723Y-123345237D01*
X166204819Y-123297618D02*
X166157200Y-123392856D01*
X166157200Y-123392856D02*
X166061961Y-123488094D01*
X166061961Y-123488094D02*
X165871485Y-123535713D01*
X165871485Y-123535713D02*
X165538152Y-123535713D01*
X165538152Y-123535713D02*
X165347676Y-123488094D01*
X165347676Y-123488094D02*
X165252438Y-123392856D01*
X165252438Y-123392856D02*
X165204819Y-123297618D01*
X165204819Y-123297618D02*
X165204819Y-123107142D01*
X165204819Y-123107142D02*
X165252438Y-123011904D01*
X165252438Y-123011904D02*
X165347676Y-122916666D01*
X165347676Y-122916666D02*
X165538152Y-122869047D01*
X165538152Y-122869047D02*
X165871485Y-122869047D01*
X165871485Y-122869047D02*
X166061961Y-122916666D01*
X166061961Y-122916666D02*
X166157200Y-123011904D01*
X166157200Y-123011904D02*
X166204819Y-123107142D01*
X166204819Y-123107142D02*
X166204819Y-123297618D01*
X166204819Y-121916666D02*
X166204819Y-122488094D01*
X166204819Y-122202380D02*
X165204819Y-122202380D01*
X165204819Y-122202380D02*
X165347676Y-122297618D01*
X165347676Y-122297618D02*
X165442914Y-122392856D01*
X165442914Y-122392856D02*
X165490533Y-122488094D01*
X165204819Y-121297618D02*
X165204819Y-121202380D01*
X165204819Y-121202380D02*
X165252438Y-121107142D01*
X165252438Y-121107142D02*
X165300057Y-121059523D01*
X165300057Y-121059523D02*
X165395295Y-121011904D01*
X165395295Y-121011904D02*
X165585771Y-120964285D01*
X165585771Y-120964285D02*
X165823866Y-120964285D01*
X165823866Y-120964285D02*
X166014342Y-121011904D01*
X166014342Y-121011904D02*
X166109580Y-121059523D01*
X166109580Y-121059523D02*
X166157200Y-121107142D01*
X166157200Y-121107142D02*
X166204819Y-121202380D01*
X166204819Y-121202380D02*
X166204819Y-121297618D01*
X166204819Y-121297618D02*
X166157200Y-121392856D01*
X166157200Y-121392856D02*
X166109580Y-121440475D01*
X166109580Y-121440475D02*
X166014342Y-121488094D01*
X166014342Y-121488094D02*
X165823866Y-121535713D01*
X165823866Y-121535713D02*
X165585771Y-121535713D01*
X165585771Y-121535713D02*
X165395295Y-121488094D01*
X165395295Y-121488094D02*
X165300057Y-121440475D01*
X165300057Y-121440475D02*
X165252438Y-121392856D01*
X165252438Y-121392856D02*
X165204819Y-121297618D01*
X159350057Y-101295238D02*
X159302438Y-101390476D01*
X159302438Y-101390476D02*
X159207200Y-101485714D01*
X159207200Y-101485714D02*
X159064342Y-101628571D01*
X159064342Y-101628571D02*
X159016723Y-101723809D01*
X159016723Y-101723809D02*
X159016723Y-101819047D01*
X159254819Y-101771428D02*
X159207200Y-101866666D01*
X159207200Y-101866666D02*
X159111961Y-101961904D01*
X159111961Y-101961904D02*
X158921485Y-102009523D01*
X158921485Y-102009523D02*
X158588152Y-102009523D01*
X158588152Y-102009523D02*
X158397676Y-101961904D01*
X158397676Y-101961904D02*
X158302438Y-101866666D01*
X158302438Y-101866666D02*
X158254819Y-101771428D01*
X158254819Y-101771428D02*
X158254819Y-101580952D01*
X158254819Y-101580952D02*
X158302438Y-101485714D01*
X158302438Y-101485714D02*
X158397676Y-101390476D01*
X158397676Y-101390476D02*
X158588152Y-101342857D01*
X158588152Y-101342857D02*
X158921485Y-101342857D01*
X158921485Y-101342857D02*
X159111961Y-101390476D01*
X159111961Y-101390476D02*
X159207200Y-101485714D01*
X159207200Y-101485714D02*
X159254819Y-101580952D01*
X159254819Y-101580952D02*
X159254819Y-101771428D01*
X158588152Y-100485714D02*
X159254819Y-100485714D01*
X158207200Y-100723809D02*
X158921485Y-100961904D01*
X158921485Y-100961904D02*
X158921485Y-100342857D01*
X170333333Y-99704819D02*
X170000000Y-99228628D01*
X169761905Y-99704819D02*
X169761905Y-98704819D01*
X169761905Y-98704819D02*
X170142857Y-98704819D01*
X170142857Y-98704819D02*
X170238095Y-98752438D01*
X170238095Y-98752438D02*
X170285714Y-98800057D01*
X170285714Y-98800057D02*
X170333333Y-98895295D01*
X170333333Y-98895295D02*
X170333333Y-99038152D01*
X170333333Y-99038152D02*
X170285714Y-99133390D01*
X170285714Y-99133390D02*
X170238095Y-99181009D01*
X170238095Y-99181009D02*
X170142857Y-99228628D01*
X170142857Y-99228628D02*
X169761905Y-99228628D01*
X171238095Y-98704819D02*
X170761905Y-98704819D01*
X170761905Y-98704819D02*
X170714286Y-99181009D01*
X170714286Y-99181009D02*
X170761905Y-99133390D01*
X170761905Y-99133390D02*
X170857143Y-99085771D01*
X170857143Y-99085771D02*
X171095238Y-99085771D01*
X171095238Y-99085771D02*
X171190476Y-99133390D01*
X171190476Y-99133390D02*
X171238095Y-99181009D01*
X171238095Y-99181009D02*
X171285714Y-99276247D01*
X171285714Y-99276247D02*
X171285714Y-99514342D01*
X171285714Y-99514342D02*
X171238095Y-99609580D01*
X171238095Y-99609580D02*
X171190476Y-99657200D01*
X171190476Y-99657200D02*
X171095238Y-99704819D01*
X171095238Y-99704819D02*
X170857143Y-99704819D01*
X170857143Y-99704819D02*
X170761905Y-99657200D01*
X170761905Y-99657200D02*
X170714286Y-99609580D01*
X162671667Y-73352319D02*
X162671667Y-74066604D01*
X162671667Y-74066604D02*
X162624048Y-74209461D01*
X162624048Y-74209461D02*
X162528810Y-74304700D01*
X162528810Y-74304700D02*
X162385953Y-74352319D01*
X162385953Y-74352319D02*
X162290715Y-74352319D01*
X163052620Y-73352319D02*
X163671667Y-73352319D01*
X163671667Y-73352319D02*
X163338334Y-73733271D01*
X163338334Y-73733271D02*
X163481191Y-73733271D01*
X163481191Y-73733271D02*
X163576429Y-73780890D01*
X163576429Y-73780890D02*
X163624048Y-73828509D01*
X163624048Y-73828509D02*
X163671667Y-73923747D01*
X163671667Y-73923747D02*
X163671667Y-74161842D01*
X163671667Y-74161842D02*
X163624048Y-74257080D01*
X163624048Y-74257080D02*
X163576429Y-74304700D01*
X163576429Y-74304700D02*
X163481191Y-74352319D01*
X163481191Y-74352319D02*
X163195477Y-74352319D01*
X163195477Y-74352319D02*
X163100239Y-74304700D01*
X163100239Y-74304700D02*
X163052620Y-74257080D01*
X170333333Y-102454819D02*
X170000000Y-101978628D01*
X169761905Y-102454819D02*
X169761905Y-101454819D01*
X169761905Y-101454819D02*
X170142857Y-101454819D01*
X170142857Y-101454819D02*
X170238095Y-101502438D01*
X170238095Y-101502438D02*
X170285714Y-101550057D01*
X170285714Y-101550057D02*
X170333333Y-101645295D01*
X170333333Y-101645295D02*
X170333333Y-101788152D01*
X170333333Y-101788152D02*
X170285714Y-101883390D01*
X170285714Y-101883390D02*
X170238095Y-101931009D01*
X170238095Y-101931009D02*
X170142857Y-101978628D01*
X170142857Y-101978628D02*
X169761905Y-101978628D01*
X170666667Y-101454819D02*
X171333333Y-101454819D01*
X171333333Y-101454819D02*
X170904762Y-102454819D01*
X121857142Y-118454819D02*
X121523809Y-117978628D01*
X121285714Y-118454819D02*
X121285714Y-117454819D01*
X121285714Y-117454819D02*
X121666666Y-117454819D01*
X121666666Y-117454819D02*
X121761904Y-117502438D01*
X121761904Y-117502438D02*
X121809523Y-117550057D01*
X121809523Y-117550057D02*
X121857142Y-117645295D01*
X121857142Y-117645295D02*
X121857142Y-117788152D01*
X121857142Y-117788152D02*
X121809523Y-117883390D01*
X121809523Y-117883390D02*
X121761904Y-117931009D01*
X121761904Y-117931009D02*
X121666666Y-117978628D01*
X121666666Y-117978628D02*
X121285714Y-117978628D01*
X122809523Y-118454819D02*
X122238095Y-118454819D01*
X122523809Y-118454819D02*
X122523809Y-117454819D01*
X122523809Y-117454819D02*
X122428571Y-117597676D01*
X122428571Y-117597676D02*
X122333333Y-117692914D01*
X122333333Y-117692914D02*
X122238095Y-117740533D01*
X123666666Y-117788152D02*
X123666666Y-118454819D01*
X123428571Y-117407200D02*
X123190476Y-118121485D01*
X123190476Y-118121485D02*
X123809523Y-118121485D01*
D13*
%TO.C,Q9*%
X132900000Y-94930000D02*
X132900000Y-98530000D01*
X132911522Y-94891522D02*
G75*
G02*
X137350000Y-96730000I1838477J-1838479D01*
G01*
X137350000Y-96730000D02*
G75*
G02*
X132911522Y-98568478I-2600000J0D01*
G01*
%TO.C,R10*%
X174027064Y-116665000D02*
X173572936Y-116665000D01*
X174027064Y-118135000D02*
X173572936Y-118135000D01*
%TO.C,Q2*%
X138650000Y-94950000D02*
X138650000Y-98550000D01*
X138661522Y-94911522D02*
G75*
G02*
X143100000Y-96750000I1838477J-1838479D01*
G01*
X143100000Y-96750000D02*
G75*
G02*
X138661522Y-98588478I-2600000J0D01*
G01*
D14*
%TO.C,J2*%
X172200000Y-62550001D02*
X181200000Y-62550001D01*
X172200000Y-70700000D02*
X172200000Y-62550001D01*
X172200000Y-76950000D02*
X172200000Y-75799999D01*
X174150000Y-76950000D02*
X172200000Y-76950000D01*
X181200000Y-62550001D02*
X181200000Y-76950000D01*
X181200000Y-76950000D02*
X179350000Y-76950000D01*
D15*
X176900001Y-78250001D02*
G75*
G02*
X176499999Y-78250001I-200001J0D01*
G01*
X176499999Y-78250001D02*
G75*
G02*
X176900001Y-78250001I200001J0D01*
G01*
D13*
%TO.C,R3*%
X173977064Y-95765000D02*
X173522936Y-95765000D01*
X173977064Y-97235000D02*
X173522936Y-97235000D01*
%TO.C,U1*%
X160125000Y-86425000D02*
X158175000Y-86425000D01*
X160125000Y-86425000D02*
X162075000Y-86425000D01*
X160125000Y-91545000D02*
X158175000Y-91545000D01*
X160125000Y-91545000D02*
X162075000Y-91545000D01*
X157425000Y-86520000D02*
X157185000Y-86190000D01*
X157665000Y-86190000D01*
X157425000Y-86520000D01*
G36*
X157425000Y-86520000D02*
G01*
X157185000Y-86190000D01*
X157665000Y-86190000D01*
X157425000Y-86520000D01*
G37*
%TO.C,R11*%
X174027064Y-121865000D02*
X173572936Y-121865000D01*
X174027064Y-123335000D02*
X173572936Y-123335000D01*
D16*
%TO.C,NX1*%
X135828760Y-104578760D02*
X155671240Y-104578760D01*
X155671240Y-124421240D02*
X135828760Y-124421240D01*
X135828760Y-124421240D02*
G75*
G02*
X135830181Y-104577567I8326119J9921240D01*
G01*
X155671240Y-104578760D02*
G75*
G02*
X155669819Y-124422433I-8326120J-9921240D01*
G01*
D14*
X148290000Y-114500000D02*
G75*
G02*
X143210000Y-114500000I-2540000J0D01*
G01*
X143210000Y-114500000D02*
G75*
G02*
X148290000Y-114500000I2540000J0D01*
G01*
D13*
%TO.C,Q7*%
X127200000Y-98939999D02*
X130800000Y-98939999D01*
X127161522Y-98928477D02*
G75*
G02*
X129000000Y-94489999I1838479J1838477D01*
G01*
X129000000Y-94489999D02*
G75*
G02*
X130838478Y-98928477I0J-2600000D01*
G01*
%TO.C,Q3*%
X123470000Y-110350000D02*
X127070000Y-110350000D01*
X123431522Y-110338478D02*
G75*
G02*
X125270000Y-105900000I1838479J1838477D01*
G01*
X125270000Y-105900000D02*
G75*
G02*
X127108478Y-110338478I0J-2600000D01*
G01*
D17*
%TO.C,G\u002A\u002A\u002A*%
G36*
X124239253Y-65167401D02*
G01*
X124268267Y-65175016D01*
X124314165Y-65187598D01*
X124375315Y-65204685D01*
X124450083Y-65225813D01*
X124536832Y-65250519D01*
X124633927Y-65278339D01*
X124739734Y-65308810D01*
X124852618Y-65341468D01*
X124929772Y-65363872D01*
X125626768Y-65566540D01*
X125629627Y-65764054D01*
X125630531Y-65832892D01*
X125630798Y-65883426D01*
X125630191Y-65918347D01*
X125628471Y-65940349D01*
X125625400Y-65952123D01*
X125620739Y-65956361D01*
X125614250Y-65955755D01*
X125612695Y-65955287D01*
X125599573Y-65949913D01*
X125569120Y-65936774D01*
X125523173Y-65916681D01*
X125463569Y-65890445D01*
X125392145Y-65858877D01*
X125310739Y-65822790D01*
X125221189Y-65782994D01*
X125125332Y-65740301D01*
X125075900Y-65718249D01*
X124978215Y-65674677D01*
X124886433Y-65633791D01*
X124802315Y-65596373D01*
X124727626Y-65563205D01*
X124664128Y-65535068D01*
X124613585Y-65512744D01*
X124577760Y-65497016D01*
X124558415Y-65488663D01*
X124555450Y-65487494D01*
X124559682Y-65496247D01*
X124573252Y-65521139D01*
X124595006Y-65560119D01*
X124623789Y-65611137D01*
X124658440Y-65672143D01*
X124697808Y-65741087D01*
X124736300Y-65808203D01*
X124778940Y-65882721D01*
X124817861Y-65951343D01*
X124851905Y-66011987D01*
X124879919Y-66062570D01*
X124900747Y-66101008D01*
X124913235Y-66125218D01*
X124916397Y-66133114D01*
X124905813Y-66131145D01*
X124876689Y-66124053D01*
X124830730Y-66112289D01*
X124769645Y-66096307D01*
X124695136Y-66076559D01*
X124608912Y-66053498D01*
X124512678Y-66027578D01*
X124408139Y-65999250D01*
X124297004Y-65968968D01*
X124262273Y-65959472D01*
X124149520Y-65928668D01*
X124042893Y-65899633D01*
X123944091Y-65872825D01*
X123854817Y-65848699D01*
X123776770Y-65827713D01*
X123711651Y-65810324D01*
X123661162Y-65796989D01*
X123627002Y-65788165D01*
X123610873Y-65784307D01*
X123609802Y-65784189D01*
X123613912Y-65793566D01*
X123627017Y-65816897D01*
X123646920Y-65850371D01*
X123664926Y-65879745D01*
X123687163Y-65916857D01*
X123702744Y-65945374D01*
X123710000Y-65962056D01*
X123708663Y-65964690D01*
X123692742Y-65954648D01*
X123662915Y-65935070D01*
X123621913Y-65907804D01*
X123572471Y-65874700D01*
X123517323Y-65837608D01*
X123459203Y-65798378D01*
X123400845Y-65758859D01*
X123344983Y-65720901D01*
X123294350Y-65686353D01*
X123251682Y-65657069D01*
X123219712Y-65634894D01*
X123201173Y-65621679D01*
X123197877Y-65619089D01*
X123196459Y-65613600D01*
X123205345Y-65607698D01*
X123226743Y-65600757D01*
X123262862Y-65592155D01*
X123315910Y-65581269D01*
X123365879Y-65571657D01*
X123436995Y-65558200D01*
X123512140Y-65543974D01*
X123584257Y-65530316D01*
X123646291Y-65518561D01*
X123671104Y-65513857D01*
X123718787Y-65505056D01*
X123757902Y-65498296D01*
X123784461Y-65494234D01*
X123794478Y-65493527D01*
X123794482Y-65493552D01*
X123786897Y-65501057D01*
X123766465Y-65518786D01*
X123736668Y-65543761D01*
X123714035Y-65562381D01*
X123681177Y-65590207D01*
X123656792Y-65612764D01*
X123643876Y-65627163D01*
X123643158Y-65630816D01*
X123655311Y-65632769D01*
X123686043Y-65637223D01*
X123733126Y-65643870D01*
X123794330Y-65652398D01*
X123867421Y-65662499D01*
X123950172Y-65673861D01*
X124040350Y-65686175D01*
X124083237Y-65692009D01*
X124176459Y-65704710D01*
X124263606Y-65716649D01*
X124342390Y-65727512D01*
X124410522Y-65736975D01*
X124465713Y-65744723D01*
X124505674Y-65750436D01*
X124528116Y-65753796D01*
X124531845Y-65754445D01*
X124537500Y-65755853D01*
X124541655Y-65756251D01*
X124543441Y-65753894D01*
X124541986Y-65747039D01*
X124536421Y-65733942D01*
X124525874Y-65712859D01*
X124509475Y-65682043D01*
X124486352Y-65639755D01*
X124455637Y-65584247D01*
X124416458Y-65513778D01*
X124370245Y-65430740D01*
X124333005Y-65363428D01*
X124299564Y-65302256D01*
X124271171Y-65249566D01*
X124249074Y-65207698D01*
X124234518Y-65178993D01*
X124228751Y-65165790D01*
X124228760Y-65165217D01*
X124239253Y-65167401D01*
G37*
G36*
X123017467Y-63459064D02*
G01*
X123026193Y-63461496D01*
X123033217Y-63464654D01*
X123048206Y-63472575D01*
X123080404Y-63490310D01*
X123128775Y-63517278D01*
X123192285Y-63552890D01*
X123269899Y-63596564D01*
X123360583Y-63647710D01*
X123463299Y-63705747D01*
X123577015Y-63770087D01*
X123700695Y-63840147D01*
X123833305Y-63915339D01*
X123973809Y-63995080D01*
X124121172Y-64078784D01*
X124274359Y-64165864D01*
X124432336Y-64255737D01*
X124487494Y-64287134D01*
X124720135Y-64419571D01*
X124935226Y-64542028D01*
X125133475Y-64654908D01*
X125315585Y-64758619D01*
X125482260Y-64853565D01*
X125634206Y-64940153D01*
X125772127Y-65018787D01*
X125896728Y-65089871D01*
X126008713Y-65153812D01*
X126108786Y-65211016D01*
X126197653Y-65261887D01*
X126276017Y-65306831D01*
X126344584Y-65346253D01*
X126404058Y-65380559D01*
X126455143Y-65410154D01*
X126498544Y-65435443D01*
X126534966Y-65456831D01*
X126565113Y-65474725D01*
X126589690Y-65489529D01*
X126609400Y-65501649D01*
X126624950Y-65511489D01*
X126637043Y-65519456D01*
X126646384Y-65525955D01*
X126653677Y-65531391D01*
X126659628Y-65536169D01*
X126662099Y-65538252D01*
X126715785Y-65595770D01*
X126749890Y-65658735D01*
X126764420Y-65725011D01*
X126759379Y-65792464D01*
X126734773Y-65858960D01*
X126690606Y-65922363D01*
X126661190Y-65952237D01*
X126644397Y-65964515D01*
X126610592Y-65986437D01*
X126560845Y-66017385D01*
X126496231Y-66056742D01*
X126417820Y-66103889D01*
X126326685Y-66158208D01*
X126223899Y-66219083D01*
X126110533Y-66285895D01*
X125987661Y-66358025D01*
X125856353Y-66434857D01*
X125717685Y-66515773D01*
X125572726Y-66600153D01*
X125422550Y-66687382D01*
X125268228Y-66776840D01*
X125110834Y-66867909D01*
X124951439Y-66959973D01*
X124791115Y-67052413D01*
X124630936Y-67144611D01*
X124471973Y-67235949D01*
X124315299Y-67325810D01*
X124161986Y-67413576D01*
X124013106Y-67498628D01*
X123869732Y-67580349D01*
X123732936Y-67658120D01*
X123603791Y-67731325D01*
X123483368Y-67799345D01*
X123372741Y-67861563D01*
X123272980Y-67917360D01*
X123185159Y-67966118D01*
X123110350Y-68007220D01*
X123049625Y-68040048D01*
X123004057Y-68063984D01*
X122974719Y-68078410D01*
X122963862Y-68082648D01*
X122897246Y-68087612D01*
X122837559Y-68073054D01*
X122782687Y-68038406D01*
X122775428Y-68032062D01*
X122767020Y-68025025D01*
X122759282Y-68019155D01*
X122752184Y-68013597D01*
X122745699Y-68007497D01*
X122739801Y-68000000D01*
X122734462Y-67990254D01*
X122729655Y-67977401D01*
X122725352Y-67960590D01*
X122721527Y-67938965D01*
X122718153Y-67911672D01*
X122715202Y-67877858D01*
X122712647Y-67836666D01*
X122710459Y-67787244D01*
X122708616Y-67728737D01*
X122707086Y-67660291D01*
X122705843Y-67581051D01*
X122704861Y-67490164D01*
X122704111Y-67386775D01*
X122703567Y-67270029D01*
X122703203Y-67139073D01*
X122702989Y-66993051D01*
X122702900Y-66831111D01*
X122702907Y-66652397D01*
X122702987Y-66456056D01*
X122703108Y-66241232D01*
X122703244Y-66007073D01*
X122703363Y-65766469D01*
X122703367Y-65759994D01*
X123017467Y-65759994D01*
X123017467Y-67711867D01*
X123230341Y-67589325D01*
X123441241Y-67467890D01*
X123651019Y-67347043D01*
X123858890Y-67227239D01*
X124064071Y-67108931D01*
X124265777Y-66992574D01*
X124463224Y-66878621D01*
X124655629Y-66767526D01*
X124842208Y-66659744D01*
X125022176Y-66555728D01*
X125194750Y-66455930D01*
X125359145Y-66360807D01*
X125514578Y-66270811D01*
X125660264Y-66186397D01*
X125795421Y-66108018D01*
X125919263Y-66036129D01*
X126031007Y-65971183D01*
X126129868Y-65913633D01*
X126215063Y-65863935D01*
X126285808Y-65822541D01*
X126341319Y-65789906D01*
X126380812Y-65766484D01*
X126403503Y-65752728D01*
X126409033Y-65748999D01*
X126406923Y-65746802D01*
X126400156Y-65742029D01*
X126388074Y-65734305D01*
X126370021Y-65723252D01*
X126345341Y-65708494D01*
X126313376Y-65689654D01*
X126273470Y-65666356D01*
X126224966Y-65638224D01*
X126167208Y-65604880D01*
X126099539Y-65565949D01*
X126021302Y-65521053D01*
X125931841Y-65469816D01*
X125830498Y-65411862D01*
X125716619Y-65346814D01*
X125589543Y-65274295D01*
X125448617Y-65193929D01*
X125293183Y-65105340D01*
X125122585Y-65008150D01*
X124936165Y-64901985D01*
X124733268Y-64786465D01*
X124513236Y-64661215D01*
X124345743Y-64565885D01*
X124197607Y-64481571D01*
X124053785Y-64399698D01*
X123915410Y-64320913D01*
X123783617Y-64245862D01*
X123659539Y-64175192D01*
X123544311Y-64109549D01*
X123439067Y-64049579D01*
X123344942Y-63995928D01*
X123263068Y-63949244D01*
X123194582Y-63910173D01*
X123140616Y-63879358D01*
X123102306Y-63857449D01*
X123080785Y-63845092D01*
X123077843Y-63843385D01*
X123017467Y-63808120D01*
X123017467Y-65759994D01*
X122703367Y-65759994D01*
X122703492Y-65556588D01*
X122703693Y-65352132D01*
X122703964Y-65154103D01*
X122704299Y-64963509D01*
X122704696Y-64781355D01*
X122705149Y-64608648D01*
X122705654Y-64446389D01*
X122706208Y-64295587D01*
X122706806Y-64157247D01*
X122707444Y-64032373D01*
X122708118Y-63921970D01*
X122708823Y-63827046D01*
X122709556Y-63748604D01*
X122710312Y-63687650D01*
X122711087Y-63645189D01*
X122711876Y-63622228D01*
X122712271Y-63618388D01*
X122741790Y-63551946D01*
X122784014Y-63499903D01*
X122836254Y-63463549D01*
X122895822Y-63444172D01*
X122960031Y-63443058D01*
X123017467Y-63459064D01*
G37*
D13*
%TO.C,Q1*%
X123220000Y-124460000D02*
X126820000Y-124460000D01*
X123181522Y-124448478D02*
G75*
G02*
X125020000Y-120010000I1838479J1838477D01*
G01*
X125020000Y-120010000D02*
G75*
G02*
X126858478Y-124448478I0J-2600000D01*
G01*
%TO.C,L1*%
X140900001Y-65450000D02*
X153500001Y-65450000D01*
X140900001Y-68450000D02*
X140900001Y-65450000D01*
X140900001Y-78050000D02*
X140900001Y-75050000D01*
X153500001Y-65450000D02*
X153500001Y-68450000D01*
X153500001Y-75050000D02*
X153500001Y-78050000D01*
X153500001Y-78050000D02*
X140900001Y-78050000D01*
%TO.C,R1*%
X174027064Y-119265000D02*
X173572936Y-119265000D01*
X174027064Y-120735000D02*
X173572936Y-120735000D01*
%TO.C,R9*%
X173977064Y-103765000D02*
X173522936Y-103765000D01*
X173977064Y-105235000D02*
X173522936Y-105235000D01*
%TO.C,C1*%
X166817500Y-86490000D02*
X166817500Y-91010000D01*
X166817500Y-91010000D02*
X175057500Y-91010000D01*
X175057500Y-86490000D02*
X166817500Y-86490000D01*
%TO.C,Q12*%
X150880000Y-80275000D02*
X150880000Y-84916000D01*
X150880000Y-80275000D02*
X161120000Y-80275000D01*
X150880000Y-81785001D02*
X161120000Y-81785000D01*
X150880000Y-84916000D02*
X161120000Y-84915999D01*
X154150000Y-80275000D02*
X154150000Y-81785000D01*
X157851000Y-80275000D02*
X157851000Y-81785000D01*
X161120000Y-80275000D02*
X161120000Y-84915999D01*
%TO.C,R4*%
X173977064Y-108865000D02*
X173522936Y-108865000D01*
X173977064Y-110335000D02*
X173522936Y-110335000D01*
%TO.C,C5*%
X135890000Y-89461252D02*
X135890000Y-88038748D01*
X138610000Y-89461252D02*
X138610000Y-88038748D01*
%TO.C,Q8*%
X161900000Y-114180000D02*
X161900000Y-117780000D01*
X161911522Y-114141522D02*
G75*
G02*
X166350000Y-115980000I1838477J-1838479D01*
G01*
X166350000Y-115980000D02*
G75*
G02*
X161911522Y-117818478I-2600000J0D01*
G01*
%TO.C,R13*%
X158226825Y-96333728D02*
X158547942Y-96012611D01*
X159266272Y-97373175D02*
X159587389Y-97052058D01*
%TO.C,D1*%
X140750000Y-91660000D02*
X140750000Y-81650000D01*
X147250000Y-91660000D02*
X140750000Y-91660000D01*
X147250000Y-91660000D02*
X147250000Y-81650000D01*
%TO.C,J4*%
X121280000Y-70090000D02*
X121280000Y-72450000D01*
X121280000Y-73050000D02*
X121280000Y-80489999D01*
X121900000Y-70090000D02*
X121900000Y-80490000D01*
X123399999Y-70090000D02*
X123400000Y-80490000D01*
X128300001Y-70090000D02*
X128300000Y-80490000D01*
X131320000Y-70090000D02*
X121280000Y-70090000D01*
X131320000Y-70090000D02*
X131320001Y-80490000D01*
X131320001Y-80490000D02*
X121280000Y-80489999D01*
X121280000Y-72750000D02*
X120670000Y-73190000D01*
X120670000Y-72310000D01*
X121280000Y-72750000D01*
G36*
X121280000Y-72750000D02*
G01*
X120670000Y-73190000D01*
X120670000Y-72310000D01*
X121280000Y-72750000D01*
G37*
%TO.C,R_SENSE1*%
X163672936Y-83290000D02*
X165127064Y-83290000D01*
X163672936Y-85110000D02*
X165127064Y-85110000D01*
%TO.C,Q6*%
X161900000Y-107450000D02*
X161900000Y-111050000D01*
X161911522Y-107411522D02*
G75*
G02*
X166350000Y-109250000I1838477J-1838479D01*
G01*
X166350000Y-109250000D02*
G75*
G02*
X161911522Y-111088478I-2600000J0D01*
G01*
%TO.C,C4*%
X123140000Y-83390000D02*
X123140000Y-86240000D01*
X123140000Y-92110000D02*
X123140000Y-89260000D01*
X130795563Y-83389999D02*
X123140000Y-83390000D01*
X130795563Y-92110001D02*
X123140000Y-92110000D01*
X131860001Y-84454437D02*
X130795563Y-83389999D01*
X131860001Y-84454437D02*
X131860000Y-86240000D01*
X131860001Y-91045563D02*
X130795563Y-92110001D01*
X131860001Y-91045563D02*
X131860000Y-89260000D01*
X132600000Y-90760000D02*
X132600000Y-89760000D01*
X133100000Y-90260000D02*
X132100000Y-90260000D01*
%TO.C,Q5*%
X123470000Y-104600000D02*
X127070000Y-104600000D01*
X123431522Y-104588478D02*
G75*
G02*
X125270000Y-100150000I1838479J1838477D01*
G01*
X125270000Y-100150000D02*
G75*
G02*
X127108478Y-104588478I0J-2600000D01*
G01*
%TO.C,C3*%
X162265000Y-93738747D02*
X162265000Y-94261253D01*
X163735000Y-93738747D02*
X163735000Y-94261253D01*
%TO.C,RV1*%
X145665000Y-93110000D02*
X145665000Y-102860000D01*
X155415000Y-93110000D02*
X145665000Y-93110000D01*
X155415000Y-93110000D02*
X155415000Y-102860000D01*
X155415000Y-102860000D02*
X145665000Y-102860000D01*
%TO.C,C2*%
X154011253Y-86765000D02*
X153488747Y-86765000D01*
X154011253Y-88235000D02*
X153488747Y-88235000D01*
%TO.C,R8*%
X174027064Y-114065000D02*
X173572936Y-114065000D01*
X174027064Y-115535000D02*
X173572936Y-115535000D01*
%TO.C,Q11*%
X123470000Y-115850000D02*
X127070000Y-115850000D01*
X123431522Y-115838478D02*
G75*
G02*
X125270000Y-111400000I1838479J1838477D01*
G01*
X125270000Y-111400000D02*
G75*
G02*
X127108478Y-115838478I0J-2600000D01*
G01*
%TO.C,R6*%
X174027064Y-111465000D02*
X173572936Y-111465000D01*
X174027064Y-112935000D02*
X173572936Y-112935000D01*
%TO.C,R12*%
X153485436Y-89765000D02*
X153939564Y-89765000D01*
X153485436Y-91235000D02*
X153939564Y-91235000D01*
%TO.C,R2*%
X173977064Y-106265000D02*
X173522936Y-106265000D01*
X173977064Y-107735000D02*
X173522936Y-107735000D01*
%TO.C,J1*%
X176870000Y-120980000D02*
X176870000Y-95470000D01*
X179629999Y-122250000D02*
X179630000Y-123630000D01*
X179630000Y-95470000D02*
X176870000Y-95470000D01*
X179630000Y-120980000D02*
X176870000Y-120980000D01*
X179630000Y-120980000D02*
X179630000Y-95470000D01*
X179630000Y-123630000D02*
X178250000Y-123629999D01*
%TO.C,Q10*%
X163800001Y-120650000D02*
X160200001Y-120650000D01*
X162000001Y-125100000D02*
G75*
G02*
X160161523Y-120661522I0J2600000D01*
G01*
X163838479Y-120661522D02*
G75*
G02*
X162000001Y-125100000I-1838479J-1838477D01*
G01*
%TO.C,Q4*%
X164050001Y-100400000D02*
X160450001Y-100400000D01*
X162250001Y-104850000D02*
G75*
G02*
X160411523Y-100411522I0J2600000D01*
G01*
X164088479Y-100411522D02*
G75*
G02*
X162250001Y-104850000I-1838479J-1838477D01*
G01*
%TO.C,R5*%
X173977064Y-98515000D02*
X173522936Y-98515000D01*
X173977064Y-99985000D02*
X173522936Y-99985000D01*
%TO.C,J3*%
X157805001Y-72897501D02*
X157805002Y-62857500D01*
X165245001Y-62857500D02*
X157805002Y-62857500D01*
X168205001Y-62857500D02*
X165845001Y-62857500D01*
X168205001Y-63477500D02*
X157805001Y-63477500D01*
X168205001Y-64977499D02*
X157805001Y-64977500D01*
X168205001Y-69877501D02*
X157805001Y-69877500D01*
X168205001Y-72897500D02*
X157805001Y-72897501D01*
X168205001Y-72897500D02*
X168205001Y-62857500D01*
X165545001Y-62857500D02*
X165105001Y-62247500D01*
X165985001Y-62247500D01*
X165545001Y-62857500D01*
G36*
X165545001Y-62857500D02*
G01*
X165105001Y-62247500D01*
X165985001Y-62247500D01*
X165545001Y-62857500D01*
G37*
%TO.C,R7*%
X173977064Y-101265000D02*
X173522936Y-101265000D01*
X173977064Y-102735000D02*
X173522936Y-102735000D01*
%TO.C,R14*%
X126227064Y-117265000D02*
X125772936Y-117265000D01*
X126227064Y-118735000D02*
X125772936Y-118735000D01*
%TD*%
%LPC*%
D18*
%TO.C,Q9*%
X134750000Y-95460000D03*
D19*
X136020000Y-96730000D03*
X134750000Y-98000000D03*
%TD*%
D20*
%TO.C,R10*%
X174800000Y-117400000D03*
X172800000Y-117400000D03*
%TD*%
D18*
%TO.C,Q2*%
X140500000Y-95480000D03*
D19*
X141770000Y-96750000D03*
X140500000Y-98020000D03*
%TD*%
D21*
%TO.C,J2*%
X176700000Y-76250000D03*
D22*
X176700000Y-70250000D03*
D23*
X172000000Y-73250000D03*
%TD*%
D20*
%TO.C,R3*%
X174750000Y-96500000D03*
X172750000Y-96500000D03*
%TD*%
D24*
%TO.C,U1*%
X157550000Y-87080000D03*
X157550000Y-88350000D03*
X157550000Y-89620000D03*
X157550000Y-90890000D03*
X162700000Y-90890000D03*
X162700000Y-89620000D03*
X162700000Y-88350000D03*
X162700000Y-87080000D03*
%TD*%
D20*
%TO.C,R11*%
X174800000Y-122600000D03*
X172800000Y-122600000D03*
%TD*%
D25*
%TO.C,NX1*%
X145750000Y-114500000D03*
D26*
X141251660Y-120248020D03*
X137751540Y-110502040D03*
X141251660Y-108751980D03*
X145750000Y-108751980D03*
X150248340Y-108751980D03*
X153748460Y-110502040D03*
X154749219Y-114500000D03*
X153748460Y-118497960D03*
X150248340Y-120248020D03*
X145750000Y-120248020D03*
X137751540Y-118497960D03*
X136750781Y-114500000D03*
%TD*%
D18*
%TO.C,Q7*%
X127730000Y-97089999D03*
D19*
X129000000Y-95819999D03*
X130270000Y-97089999D03*
%TD*%
D18*
%TO.C,Q3*%
X124000000Y-108500000D03*
D19*
X125270000Y-107230000D03*
X126540000Y-108500000D03*
%TD*%
D18*
%TO.C,Q1*%
X123750000Y-122610000D03*
D19*
X125020000Y-121340000D03*
X126290000Y-122610000D03*
%TD*%
D27*
%TO.C,L1*%
X152150002Y-71750000D03*
X142250000Y-71750000D03*
%TD*%
D20*
%TO.C,R1*%
X174800000Y-120000000D03*
X172800000Y-120000000D03*
%TD*%
%TO.C,R9*%
X174750000Y-104500000D03*
X172750000Y-104500000D03*
%TD*%
D28*
%TO.C,C1*%
X168200000Y-88750000D03*
X174615000Y-88750000D03*
%TD*%
D29*
%TO.C,Q12*%
X153460000Y-83545000D03*
D30*
X156000000Y-83545000D03*
X158539999Y-83545000D03*
%TD*%
D20*
%TO.C,R4*%
X174750000Y-109600000D03*
X172750000Y-109600000D03*
%TD*%
D31*
%TO.C,C5*%
X137250000Y-90312500D03*
X137250000Y-87187500D03*
%TD*%
D18*
%TO.C,Q8*%
X163750000Y-114710000D03*
D19*
X165020000Y-115980000D03*
X163750000Y-117250000D03*
%TD*%
D32*
%TO.C,R13*%
X158200000Y-97400000D03*
X159614214Y-95985786D03*
%TD*%
D33*
%TO.C,D1*%
X144000000Y-89250000D03*
D34*
X144000000Y-82850000D03*
%TD*%
D35*
%TO.C,J4*%
X126000000Y-72750000D03*
D36*
X126000000Y-77829999D03*
%TD*%
D37*
%TO.C,R_SENSE1*%
X162849999Y-84200000D03*
X165950001Y-84200000D03*
%TD*%
D18*
%TO.C,Q6*%
X163750000Y-107980000D03*
D19*
X165020000Y-109250000D03*
X163750000Y-110520000D03*
%TD*%
D38*
%TO.C,C4*%
X131200000Y-87750000D03*
X123800000Y-87750000D03*
%TD*%
D18*
%TO.C,Q5*%
X124000000Y-102750000D03*
D19*
X125270000Y-101480000D03*
X126540000Y-102750000D03*
%TD*%
D39*
%TO.C,C3*%
X163000000Y-92962500D03*
X163000000Y-95037500D03*
%TD*%
D40*
%TO.C,RV1*%
X148000000Y-98000000D03*
X150540000Y-100540000D03*
X153079999Y-98000000D03*
%TD*%
D41*
%TO.C,C2*%
X154787500Y-87500000D03*
X152712500Y-87500000D03*
%TD*%
D20*
%TO.C,R8*%
X174800000Y-114800000D03*
X172800000Y-114800000D03*
%TD*%
D18*
%TO.C,Q11*%
X124000000Y-114000000D03*
D19*
X125270000Y-112730000D03*
X126540000Y-114000000D03*
%TD*%
D20*
%TO.C,R6*%
X174800000Y-112200000D03*
X172800000Y-112200000D03*
%TD*%
D42*
%TO.C,R12*%
X152712500Y-90500000D03*
X154712500Y-90500000D03*
%TD*%
D20*
%TO.C,R2*%
X174750000Y-107000000D03*
X172750000Y-107000000D03*
%TD*%
D43*
%TO.C,J1*%
X178250000Y-122250000D03*
D44*
X178250000Y-119710000D03*
X178250000Y-117170001D03*
X178250000Y-114630000D03*
X178250000Y-112090000D03*
X178250000Y-109550000D03*
X178250000Y-107010000D03*
X178250000Y-104469999D03*
X178250000Y-101930000D03*
X178250000Y-99390000D03*
X178250000Y-96850000D03*
%TD*%
D18*
%TO.C,Q10*%
X163270001Y-122500000D03*
D19*
X162000001Y-123770000D03*
X160730001Y-122500000D03*
%TD*%
D18*
%TO.C,Q4*%
X163520001Y-102250000D03*
D19*
X162250001Y-103520000D03*
X160980001Y-102250000D03*
%TD*%
D20*
%TO.C,R5*%
X174750000Y-99250000D03*
X172750000Y-99250000D03*
%TD*%
D45*
%TO.C,J3*%
X165545001Y-67577500D03*
D36*
X160465002Y-67577500D03*
%TD*%
D20*
%TO.C,R7*%
X174750000Y-102000000D03*
X172750000Y-102000000D03*
%TD*%
%TO.C,R14*%
X127000000Y-118000000D03*
X125000000Y-118000000D03*
%TD*%
%LPD*%
M02*
