%TF.GenerationSoftware,KiCad,Pcbnew,9.0.1*%
%TF.CreationDate,2025-07-04T13:23:47-04:00*%
%TF.ProjectId,nixie-hvdc,6e697869-652d-4687-9664-632e6b696361,rev?*%
%TF.SameCoordinates,Original*%
%TF.FileFunction,Copper,L1,Top*%
%TF.FilePolarity,Positive*%
%FSLAX46Y46*%
G04 Gerber Fmt 4.6, Leading zero omitted, Abs format (unit mm)*
G04 Created by KiCad (PCBNEW 9.0.1) date 2025-07-04 13:23:47*
%MOMM*%
%LPD*%
G01*
G04 APERTURE LIST*
G04 Aperture macros list*
%AMRoundRect*
0 Rectangle with rounded corners*
0 $1 Rounding radius*
0 $2 $3 $4 $5 $6 $7 $8 $9 X,Y pos of 4 corners*
0 Add a 4 corners polygon primitive as box body*
4,1,4,$2,$3,$4,$5,$6,$7,$8,$9,$2,$3,0*
0 Add four circle primitives for the rounded corners*
1,1,$1+$1,$2,$3*
1,1,$1+$1,$4,$5*
1,1,$1+$1,$6,$7*
1,1,$1+$1,$8,$9*
0 Add four rect primitives between the rounded corners*
20,1,$1+$1,$2,$3,$4,$5,0*
20,1,$1+$1,$4,$5,$6,$7,0*
20,1,$1+$1,$6,$7,$8,$9,0*
20,1,$1+$1,$8,$9,$2,$3,0*%
%AMOutline4P*
0 Free polygon, 4 corners , with rotation*
0 The origin of the aperture is its center*
0 number of corners: always 4*
0 $1 to $8 corner X, Y*
0 $9 Rotation angle, in degrees counterclockwise*
0 create outline with 4 corners*
4,1,4,$1,$2,$3,$4,$5,$6,$7,$8,$1,$2,$9*%
G04 Aperture macros list end*
%TA.AperFunction,ComponentPad*%
%ADD10R,1.300000X1.300000*%
%TD*%
%TA.AperFunction,ComponentPad*%
%ADD11C,1.300000*%
%TD*%
%TA.AperFunction,SMDPad,CuDef*%
%ADD12RoundRect,0.250000X0.350000X0.450000X-0.350000X0.450000X-0.350000X-0.450000X0.350000X-0.450000X0*%
%TD*%
%TA.AperFunction,ComponentPad*%
%ADD13O,5.000000X2.500000*%
%TD*%
%TA.AperFunction,ComponentPad*%
%ADD14O,4.500000X2.250000*%
%TD*%
%TA.AperFunction,ComponentPad*%
%ADD15O,2.250000X4.500000*%
%TD*%
%TA.AperFunction,SMDPad,CuDef*%
%ADD16RoundRect,0.150000X-0.725000X-0.150000X0.725000X-0.150000X0.725000X0.150000X-0.725000X0.150000X0*%
%TD*%
%TA.AperFunction,ComponentPad*%
%ADD17C,2.397760*%
%TD*%
%TA.AperFunction,SMDPad,CuDef*%
%ADD18R,2.900000X5.400000*%
%TD*%
%TA.AperFunction,SMDPad,CuDef*%
%ADD19RoundRect,0.250001X-0.872499X-1.044999X0.872499X-1.044999X0.872499X1.044999X-0.872499X1.044999X0*%
%TD*%
%TA.AperFunction,ComponentPad*%
%ADD20R,1.905000X2.000000*%
%TD*%
%TA.AperFunction,ComponentPad*%
%ADD21O,1.905000X2.000000*%
%TD*%
%TA.AperFunction,SMDPad,CuDef*%
%ADD22RoundRect,0.250000X1.100000X-0.412500X1.100000X0.412500X-1.100000X0.412500X-1.100000X-0.412500X0*%
%TD*%
%TA.AperFunction,SMDPad,CuDef*%
%ADD23RoundRect,0.250000X0.070711X-0.565685X0.565685X-0.070711X-0.070711X0.565685X-0.565685X0.070711X0*%
%TD*%
%TA.AperFunction,SMDPad,CuDef*%
%ADD24Outline4P,-2.150000X-1.800000X2.150000X-0.800000X2.150000X0.800000X-2.150000X1.800000X90.000000*%
%TD*%
%TA.AperFunction,SMDPad,CuDef*%
%ADD25Outline4P,-2.150000X-1.800000X2.150000X-0.800000X2.150000X0.800000X-2.150000X1.800000X270.000000*%
%TD*%
%TA.AperFunction,ComponentPad*%
%ADD26RoundRect,0.250000X-1.050000X1.050000X-1.050000X-1.050000X1.050000X-1.050000X1.050000X1.050000X0*%
%TD*%
%TA.AperFunction,ComponentPad*%
%ADD27C,2.600000*%
%TD*%
%TA.AperFunction,SMDPad,CuDef*%
%ADD28RoundRect,0.250000X-0.400000X-0.625000X0.400000X-0.625000X0.400000X0.625000X-0.400000X0.625000X0*%
%TD*%
%TA.AperFunction,SMDPad,CuDef*%
%ADD29RoundRect,0.250000X1.950000X1.000000X-1.950000X1.000000X-1.950000X-1.000000X1.950000X-1.000000X0*%
%TD*%
%TA.AperFunction,SMDPad,CuDef*%
%ADD30RoundRect,0.250000X-0.475000X0.337500X-0.475000X-0.337500X0.475000X-0.337500X0.475000X0.337500X0*%
%TD*%
%TA.AperFunction,ComponentPad*%
%ADD31C,1.440000*%
%TD*%
%TA.AperFunction,SMDPad,CuDef*%
%ADD32RoundRect,0.250000X0.337500X0.475000X-0.337500X0.475000X-0.337500X-0.475000X0.337500X-0.475000X0*%
%TD*%
%TA.AperFunction,SMDPad,CuDef*%
%ADD33RoundRect,0.250000X-0.350000X-0.450000X0.350000X-0.450000X0.350000X0.450000X-0.350000X0.450000X0*%
%TD*%
%TA.AperFunction,ComponentPad*%
%ADD34R,1.700000X1.700000*%
%TD*%
%TA.AperFunction,ComponentPad*%
%ADD35C,1.700000*%
%TD*%
%TA.AperFunction,ComponentPad*%
%ADD36RoundRect,0.250000X1.050000X1.050000X-1.050000X1.050000X-1.050000X-1.050000X1.050000X-1.050000X0*%
%TD*%
%TA.AperFunction,ViaPad*%
%ADD37C,0.600000*%
%TD*%
%TA.AperFunction,ViaPad*%
%ADD38C,1.000000*%
%TD*%
%TA.AperFunction,Conductor*%
%ADD39C,0.500000*%
%TD*%
%TA.AperFunction,Conductor*%
%ADD40C,0.300000*%
%TD*%
%TA.AperFunction,Conductor*%
%ADD41C,0.700000*%
%TD*%
G04 APERTURE END LIST*
D10*
%TO.P,Q9,1,E*%
%TO.N,GND*%
X134750000Y-95460000D03*
D11*
%TO.P,Q9,2,B*%
%TO.N,Net-(Q9-B)*%
X136020000Y-96730000D03*
%TO.P,Q9,3,C*%
%TO.N,/NIXIE_DIGIT_4*%
X134750000Y-98000000D03*
%TD*%
D12*
%TO.P,R10,1*%
%TO.N,/CTRL_DIGIT_9*%
X174800000Y-117400000D03*
%TO.P,R10,2*%
%TO.N,Net-(Q10-B)*%
X172800000Y-117400000D03*
%TD*%
D10*
%TO.P,Q2,1,E*%
%TO.N,GND*%
X140500000Y-95480000D03*
D11*
%TO.P,Q2,2,B*%
%TO.N,Net-(Q2-B)*%
X141770000Y-96750000D03*
%TO.P,Q2,3,C*%
%TO.N,/NIXIE_DIGIT_5*%
X140500000Y-98020000D03*
%TD*%
D13*
%TO.P,J2,1*%
%TO.N,+12V*%
X176700000Y-76250000D03*
D14*
%TO.P,J2,2*%
%TO.N,GND*%
X176700000Y-70250000D03*
D15*
%TO.P,J2,3*%
%TO.N,unconnected-(J2-Pad3)*%
X172000000Y-73250000D03*
%TD*%
D12*
%TO.P,R3,1*%
%TO.N,/CTRL_DIGIT_1*%
X174750000Y-96500000D03*
%TO.P,R3,2*%
%TO.N,Net-(Q3-B)*%
X172750000Y-96500000D03*
%TD*%
D16*
%TO.P,U1,1,EXT*%
%TO.N,Net-(Q12-G)*%
X157550000Y-87080000D03*
%TO.P,U1,2,V+*%
%TO.N,+12V*%
X157550000Y-88350000D03*
%TO.P,U1,3,FB*%
%TO.N,Net-(U1-FB)*%
X157550000Y-89620000D03*
%TO.P,U1,4,SHDN*%
%TO.N,GND*%
X157550000Y-90890000D03*
%TO.P,U1,5,REF*%
%TO.N,Net-(U1-REF)*%
X162700000Y-90890000D03*
%TO.P,U1,6,AGND*%
%TO.N,GND*%
X162700000Y-89620000D03*
%TO.P,U1,7,GND*%
X162700000Y-88350000D03*
%TO.P,U1,8,CS*%
%TO.N,Net-(Q12-S)*%
X162700000Y-87080000D03*
%TD*%
D12*
%TO.P,R11,1*%
%TO.N,/CTRL_DIGIT_LHDP*%
X174800000Y-122600000D03*
%TO.P,R11,2*%
%TO.N,Net-(Q11-B)*%
X172800000Y-122600000D03*
%TD*%
D17*
%TO.P,NX1,0,0*%
%TO.N,/NIXIE_DIGIT_0*%
X141251660Y-120248020D03*
%TO.P,NX1,1,1*%
%TO.N,/NIXIE_DIGIT_1*%
X137751540Y-110502040D03*
%TO.P,NX1,2,2*%
%TO.N,/NIXIE_DIGIT_2*%
X141251660Y-108751980D03*
%TO.P,NX1,3,3*%
%TO.N,/NIXIE_DIGIT_3*%
X145750000Y-108751980D03*
%TO.P,NX1,4,4*%
%TO.N,/NIXIE_DIGIT_4*%
X150248340Y-108751980D03*
%TO.P,NX1,5,5*%
%TO.N,/NIXIE_DIGIT_5*%
X153748460Y-110502040D03*
%TO.P,NX1,6,6*%
%TO.N,/NIXIE_DIGIT_6*%
X154749219Y-114500000D03*
%TO.P,NX1,7,7*%
%TO.N,/NIXIE_DIGIT_7*%
X153748460Y-118497960D03*
%TO.P,NX1,8,8*%
%TO.N,/NIXIE_DIGIT_8*%
X150248340Y-120248020D03*
%TO.P,NX1,9,9*%
%TO.N,/NIXIE_DIGIT_9*%
X145750000Y-120248020D03*
%TO.P,NX1,A,A*%
%TO.N,Net-(NX1-PadA)*%
X137751540Y-118497960D03*
%TO.P,NX1,LHDP,LHDP*%
%TO.N,/NIXIE_DIGIT_LHDP*%
X136750781Y-114500000D03*
%TD*%
D10*
%TO.P,Q7,1,E*%
%TO.N,GND*%
X127730000Y-97089999D03*
D11*
%TO.P,Q7,2,B*%
%TO.N,Net-(Q7-B)*%
X129000000Y-95819999D03*
%TO.P,Q7,3,C*%
%TO.N,/NIXIE_DIGIT_3*%
X130270000Y-97089999D03*
%TD*%
D10*
%TO.P,Q3,1,E*%
%TO.N,GND*%
X124000000Y-108500000D03*
D11*
%TO.P,Q3,2,B*%
%TO.N,Net-(Q3-B)*%
X125270000Y-107230000D03*
%TO.P,Q3,3,C*%
%TO.N,/NIXIE_DIGIT_1*%
X126540000Y-108500000D03*
%TD*%
D10*
%TO.P,Q1,1,E*%
%TO.N,GND*%
X123750000Y-122610000D03*
D11*
%TO.P,Q1,2,B*%
%TO.N,Net-(Q1-B)*%
X125020000Y-121340000D03*
%TO.P,Q1,3,C*%
%TO.N,/NIXIE_DIGIT_0*%
X126290000Y-122610000D03*
%TD*%
D18*
%TO.P,L1,1,1*%
%TO.N,+12V*%
X152150002Y-71750000D03*
%TO.P,L1,2,2*%
%TO.N,Net-(D1-A)*%
X142250000Y-71750000D03*
%TD*%
D12*
%TO.P,R1,1*%
%TO.N,/CTRL_DIGIT_0*%
X174800000Y-120000000D03*
%TO.P,R1,2*%
%TO.N,Net-(Q1-B)*%
X172800000Y-120000000D03*
%TD*%
%TO.P,R9,1*%
%TO.N,/CTRL_DIGIT_4*%
X174750000Y-104500000D03*
%TO.P,R9,2*%
%TO.N,Net-(Q9-B)*%
X172750000Y-104500000D03*
%TD*%
D19*
%TO.P,C1,1*%
%TO.N,+12V*%
X168200000Y-88750000D03*
%TO.P,C1,2*%
%TO.N,GND*%
X174615000Y-88750000D03*
%TD*%
D20*
%TO.P,Q12,1,G*%
%TO.N,Net-(Q12-G)*%
X153460000Y-83545000D03*
D21*
%TO.P,Q12,2,D*%
%TO.N,Net-(D1-A)*%
X156000000Y-83545000D03*
%TO.P,Q12,3,S*%
%TO.N,Net-(Q12-S)*%
X158539999Y-83545000D03*
%TD*%
D12*
%TO.P,R4,1*%
%TO.N,/CTRL_DIGIT_6*%
X174750000Y-109600000D03*
%TO.P,R4,2*%
%TO.N,Net-(Q4-B)*%
X172750000Y-109600000D03*
%TD*%
D22*
%TO.P,C5,1*%
%TO.N,/180V*%
X137250000Y-90312500D03*
%TO.P,C5,2*%
%TO.N,GND*%
X137250000Y-87187500D03*
%TD*%
D10*
%TO.P,Q8,1,E*%
%TO.N,GND*%
X163750000Y-114710000D03*
D11*
%TO.P,Q8,2,B*%
%TO.N,Net-(Q8-B)*%
X165020000Y-115980000D03*
%TO.P,Q8,3,C*%
%TO.N,/NIXIE_DIGIT_8*%
X163750000Y-117250000D03*
%TD*%
D23*
%TO.P,R13,1*%
%TO.N,Net-(R13-Pad1)*%
X158200000Y-97400000D03*
%TO.P,R13,2*%
%TO.N,GND*%
X159614214Y-95985786D03*
%TD*%
D24*
%TO.P,D1,1,K*%
%TO.N,/180V*%
X144000000Y-89250000D03*
D25*
%TO.P,D1,2,A*%
%TO.N,Net-(D1-A)*%
X144000000Y-82850000D03*
%TD*%
D26*
%TO.P,J4,1,Pin_1*%
%TO.N,/180V*%
X126000000Y-72750000D03*
D27*
%TO.P,J4,2,Pin_2*%
%TO.N,GND*%
X126000000Y-77829999D03*
%TD*%
D28*
%TO.P,R_SENSE1,1*%
%TO.N,Net-(Q12-S)*%
X162849999Y-84200000D03*
%TO.P,R_SENSE1,2*%
%TO.N,GND*%
X165950001Y-84200000D03*
%TD*%
D10*
%TO.P,Q6,1,E*%
%TO.N,GND*%
X163750000Y-107980000D03*
D11*
%TO.P,Q6,2,B*%
%TO.N,Net-(Q6-B)*%
X165020000Y-109250000D03*
%TO.P,Q6,3,C*%
%TO.N,/NIXIE_DIGIT_7*%
X163750000Y-110520000D03*
%TD*%
D29*
%TO.P,C4,1*%
%TO.N,/180V*%
X131200000Y-87750000D03*
%TO.P,C4,2*%
%TO.N,GND*%
X123800000Y-87750000D03*
%TD*%
D10*
%TO.P,Q5,1,E*%
%TO.N,GND*%
X124000000Y-102750000D03*
D11*
%TO.P,Q5,2,B*%
%TO.N,Net-(Q5-B)*%
X125270000Y-101480000D03*
%TO.P,Q5,3,C*%
%TO.N,/NIXIE_DIGIT_2*%
X126540000Y-102750000D03*
%TD*%
D30*
%TO.P,C3,1*%
%TO.N,Net-(U1-REF)*%
X163000000Y-92962500D03*
%TO.P,C3,2*%
%TO.N,GND*%
X163000000Y-95037500D03*
%TD*%
D31*
%TO.P,RV1,1,1*%
%TO.N,Net-(R13-Pad1)*%
X148000000Y-98000000D03*
%TO.P,RV1,2,2*%
X150540000Y-100540000D03*
%TO.P,RV1,3,3*%
%TO.N,Net-(U1-FB)*%
X153079999Y-98000000D03*
%TD*%
D32*
%TO.P,C2,1*%
%TO.N,+12V*%
X154787500Y-87500000D03*
%TO.P,C2,2*%
%TO.N,GND*%
X152712500Y-87500000D03*
%TD*%
D12*
%TO.P,R8,1*%
%TO.N,/CTRL_DIGIT_8*%
X174800000Y-114800000D03*
%TO.P,R8,2*%
%TO.N,Net-(Q8-B)*%
X172800000Y-114800000D03*
%TD*%
D10*
%TO.P,Q11,1,E*%
%TO.N,GND*%
X124000000Y-114000000D03*
D11*
%TO.P,Q11,2,B*%
%TO.N,Net-(Q11-B)*%
X125270000Y-112730000D03*
%TO.P,Q11,3,C*%
%TO.N,/NIXIE_DIGIT_LHDP*%
X126540000Y-114000000D03*
%TD*%
D12*
%TO.P,R6,1*%
%TO.N,/CTRL_DIGIT_7*%
X174800000Y-112200000D03*
%TO.P,R6,2*%
%TO.N,Net-(Q6-B)*%
X172800000Y-112200000D03*
%TD*%
D33*
%TO.P,R12,1*%
%TO.N,/180V*%
X152712500Y-90500000D03*
%TO.P,R12,2*%
%TO.N,Net-(U1-FB)*%
X154712500Y-90500000D03*
%TD*%
D12*
%TO.P,R2,1*%
%TO.N,/CTRL_DIGIT_5*%
X174750000Y-107000000D03*
%TO.P,R2,2*%
%TO.N,Net-(Q2-B)*%
X172750000Y-107000000D03*
%TD*%
D34*
%TO.P,J1,1,Pin_1*%
%TO.N,/CTRL_DIGIT_LHDP*%
X178250000Y-122250000D03*
D35*
%TO.P,J1,2,Pin_2*%
%TO.N,/CTRL_DIGIT_0*%
X178250000Y-119710000D03*
%TO.P,J1,3,Pin_3*%
%TO.N,/CTRL_DIGIT_9*%
X178250000Y-117170001D03*
%TO.P,J1,4,Pin_4*%
%TO.N,/CTRL_DIGIT_8*%
X178250000Y-114630000D03*
%TO.P,J1,5,Pin_5*%
%TO.N,/CTRL_DIGIT_7*%
X178250000Y-112090000D03*
%TO.P,J1,6,Pin_6*%
%TO.N,/CTRL_DIGIT_6*%
X178250000Y-109550000D03*
%TO.P,J1,7,Pin_7*%
%TO.N,/CTRL_DIGIT_5*%
X178250000Y-107010000D03*
%TO.P,J1,8,Pin_8*%
%TO.N,/CTRL_DIGIT_4*%
X178250000Y-104469999D03*
%TO.P,J1,9,Pin_9*%
%TO.N,/CTRL_DIGIT_3*%
X178250000Y-101930000D03*
%TO.P,J1,10,Pin_10*%
%TO.N,/CTRL_DIGIT_2*%
X178250000Y-99390000D03*
%TO.P,J1,11,Pin_11*%
%TO.N,/CTRL_DIGIT_1*%
X178250000Y-96850000D03*
%TD*%
D10*
%TO.P,Q10,1,E*%
%TO.N,GND*%
X163270001Y-122500000D03*
D11*
%TO.P,Q10,2,B*%
%TO.N,Net-(Q10-B)*%
X162000001Y-123770000D03*
%TO.P,Q10,3,C*%
%TO.N,/NIXIE_DIGIT_9*%
X160730001Y-122500000D03*
%TD*%
D10*
%TO.P,Q4,1,E*%
%TO.N,GND*%
X163520001Y-102250000D03*
D11*
%TO.P,Q4,2,B*%
%TO.N,Net-(Q4-B)*%
X162250001Y-103520000D03*
%TO.P,Q4,3,C*%
%TO.N,/NIXIE_DIGIT_6*%
X160980001Y-102250000D03*
%TD*%
D12*
%TO.P,R5,1*%
%TO.N,/CTRL_DIGIT_2*%
X174750000Y-99250000D03*
%TO.P,R5,2*%
%TO.N,Net-(Q5-B)*%
X172750000Y-99250000D03*
%TD*%
D36*
%TO.P,J3,1,Pin_1*%
%TO.N,GND*%
X165545001Y-67577500D03*
D27*
%TO.P,J3,2,Pin_2*%
%TO.N,+12V*%
X160465002Y-67577500D03*
%TD*%
D12*
%TO.P,R7,1*%
%TO.N,/CTRL_DIGIT_3*%
X174750000Y-102000000D03*
%TO.P,R7,2*%
%TO.N,Net-(Q7-B)*%
X172750000Y-102000000D03*
%TD*%
%TO.P,R14,1*%
%TO.N,Net-(NX1-PadA)*%
X127000000Y-118000000D03*
%TO.P,R14,2*%
%TO.N,/180V*%
X125000000Y-118000000D03*
%TD*%
D37*
%TO.N,GND*%
X173750000Y-80000000D03*
X171750000Y-81750000D03*
X180750000Y-79000000D03*
X179250000Y-80500000D03*
X180750000Y-85250000D03*
X175500000Y-85250000D03*
X177250000Y-85250000D03*
X177250000Y-83750000D03*
X179000000Y-85250000D03*
X179000000Y-83500000D03*
X179000000Y-82000000D03*
X180750000Y-83500000D03*
X180750000Y-80500000D03*
X180750000Y-82000000D03*
X158250000Y-76000000D03*
X156250000Y-74500000D03*
X160750000Y-77750000D03*
X158250000Y-77750000D03*
X156000000Y-77750000D03*
X158250000Y-74500000D03*
X146000000Y-73700000D03*
X145250000Y-68000000D03*
X145250000Y-66400000D03*
X149000000Y-83330000D03*
X149000000Y-80790000D03*
X149000000Y-85500000D03*
X134710000Y-85750000D03*
X134710000Y-83580000D03*
X134710000Y-81040000D03*
%TO.N,+12V*%
X159400000Y-88800000D03*
X168200000Y-88750000D03*
D38*
%TO.N,GND*%
X164500000Y-82050000D03*
D37*
X139400000Y-66670000D03*
X149900000Y-62800000D03*
X134660000Y-64750000D03*
X147750000Y-73700000D03*
X152440000Y-64400000D03*
X147400000Y-66400000D03*
X134710000Y-71750000D03*
D38*
X169400000Y-83400000D03*
D37*
X174600000Y-93000000D03*
D38*
X166100000Y-82050000D03*
D37*
X137250000Y-79000000D03*
X170400000Y-67577500D03*
X165800000Y-95000000D03*
X156250000Y-71750000D03*
X139400000Y-71750000D03*
X137250000Y-71750000D03*
X139350000Y-64750000D03*
X134710000Y-74290000D03*
X137200000Y-64750000D03*
X142280000Y-64400000D03*
X134710000Y-66670000D03*
D38*
X168700000Y-82050000D03*
D37*
X138000000Y-95460000D03*
D38*
X123800000Y-82000000D03*
D37*
X137250000Y-66670000D03*
X161700000Y-76000000D03*
D38*
X167400000Y-82050000D03*
D37*
X142280000Y-62800000D03*
X167100000Y-79100000D03*
D38*
X137200000Y-81800000D03*
X164850000Y-86050000D03*
D37*
X139400000Y-69210000D03*
X147360000Y-64400000D03*
X149900000Y-64400000D03*
X134660000Y-62800000D03*
X134710000Y-76830000D03*
X152440000Y-62800000D03*
X147750000Y-75600000D03*
X160250000Y-74500000D03*
X137200000Y-62800000D03*
D38*
X168000000Y-83400000D03*
D37*
X137250000Y-74290000D03*
X160300000Y-90300000D03*
X142750000Y-66400000D03*
X166000000Y-104400000D03*
X144820000Y-62800000D03*
X134710000Y-69210000D03*
X147400000Y-68000000D03*
X139400000Y-79000000D03*
X139400000Y-76830000D03*
X163300000Y-77500000D03*
X139740000Y-62800000D03*
X137250000Y-76830000D03*
X166800000Y-124600000D03*
X167800000Y-113600000D03*
X142750000Y-68000000D03*
X137250000Y-69210000D03*
D38*
X168000000Y-84600000D03*
D37*
X144820000Y-64400000D03*
X169200000Y-79100000D03*
X147360000Y-62800000D03*
X164800000Y-79100000D03*
X134710000Y-79000000D03*
X154980000Y-62800000D03*
X171500000Y-79100000D03*
X139400000Y-74290000D03*
X150400000Y-88800000D03*
X154980000Y-64400000D03*
D38*
%TO.N,Net-(Q1-B)*%
X166813173Y-119986827D03*
%TO.N,Net-(Q2-B)*%
X170200000Y-107000000D03*
%TO.N,Net-(Q3-B)*%
X160400000Y-99000000D03*
%TO.N,Net-(Q5-B)*%
X168000000Y-99250000D03*
%TO.N,Net-(Q7-B)*%
X168800000Y-102000000D03*
%TO.N,Net-(Q9-B)*%
X154500000Y-102750000D03*
%TO.N,Net-(Q10-B)*%
X170000000Y-118400000D03*
%TO.N,Net-(Q11-B)*%
X152500000Y-123000000D03*
%TD*%
D39*
%TO.N,Net-(U1-FB)*%
X153079999Y-98000000D02*
X154712500Y-96367499D01*
X154712500Y-96367499D02*
X154712500Y-90500000D01*
%TO.N,Net-(R13-Pad1)*%
X150540000Y-100540000D02*
X155060000Y-100540000D01*
X155060000Y-100540000D02*
X158200000Y-97400000D01*
X148000000Y-98000000D02*
X150540000Y-100540000D01*
D40*
%TO.N,Net-(Q9-B)*%
X154500000Y-102750000D02*
X157250000Y-102750000D01*
X165200000Y-100400000D02*
X169300000Y-104500000D01*
X157250000Y-102750000D02*
X159600000Y-100400000D01*
X159600000Y-100400000D02*
X165200000Y-100400000D01*
X169300000Y-104500000D02*
X172750000Y-104500000D01*
%TO.N,Net-(Q11-B)*%
X152500000Y-123000000D02*
X155750000Y-123000000D01*
X155750000Y-123000000D02*
X158750000Y-120000000D01*
X158750000Y-120000000D02*
X165200000Y-120000000D01*
X165200000Y-120000000D02*
X167800000Y-122600000D01*
X167800000Y-122600000D02*
X172800000Y-122600000D01*
%TO.N,/NIXIE_DIGIT_6*%
X154749219Y-114500000D02*
X156500000Y-114500000D01*
X156500000Y-114500000D02*
X158250000Y-112750000D01*
X158250000Y-112750000D02*
X158250000Y-104980001D01*
X158250000Y-104980001D02*
X160980001Y-102250000D01*
%TO.N,/NIXIE_DIGIT_0*%
X126290000Y-122610000D02*
X138890000Y-122610000D01*
X138890000Y-122610000D02*
X141251660Y-120248340D01*
X141251660Y-120248340D02*
X141251660Y-120248020D01*
%TO.N,/NIXIE_DIGIT_1*%
X126540000Y-108500000D02*
X128540000Y-110500000D01*
X128540000Y-110500000D02*
X137750000Y-110500000D01*
X137750000Y-110500000D02*
X137751540Y-110501540D01*
X137751540Y-110501540D02*
X137751540Y-110502040D01*
D41*
%TO.N,+12V*%
X156322502Y-67577500D02*
X160465002Y-67577500D01*
X176700000Y-80500000D02*
X176700000Y-76250000D01*
X168450000Y-88750000D02*
X176700000Y-80500000D01*
X168200000Y-88750000D02*
X168450000Y-88750000D01*
D39*
X159400000Y-88800000D02*
X158950000Y-88350000D01*
D41*
X152150002Y-71750000D02*
X156322502Y-67577500D01*
X160465002Y-67577500D02*
X160465002Y-70665002D01*
D39*
X154787500Y-87500000D02*
X155637500Y-88350000D01*
D41*
X176550000Y-76400000D02*
X176700000Y-76250000D01*
X160465002Y-70665002D02*
X166200000Y-76400000D01*
D39*
X155637500Y-88350000D02*
X157550000Y-88350000D01*
D41*
X166200000Y-76400000D02*
X176550000Y-76400000D01*
D39*
X158950000Y-88350000D02*
X157550000Y-88350000D01*
%TO.N,GND*%
X150400000Y-88800000D02*
X151412500Y-88800000D01*
X174615000Y-92985000D02*
X174600000Y-93000000D01*
D40*
X160300000Y-90300000D02*
X160980000Y-89620000D01*
D39*
X163000000Y-95037500D02*
X165762500Y-95037500D01*
X165950001Y-84200000D02*
X165950001Y-83500001D01*
X138000000Y-95460000D02*
X140480000Y-95460000D01*
D41*
X126000000Y-77829999D02*
X123800000Y-80029999D01*
D39*
X163270001Y-122500000D02*
X164700000Y-122500000D01*
X164700000Y-122500000D02*
X166800000Y-124600000D01*
X165950001Y-82199999D02*
X166100000Y-82050000D01*
X165950001Y-84200000D02*
X165950001Y-83499999D01*
X163850000Y-102250000D02*
X166000000Y-104400000D01*
X174027500Y-67577500D02*
X176700000Y-70250000D01*
X164850000Y-85300001D02*
X165950001Y-84200000D01*
X159614214Y-95985786D02*
X160562500Y-95037500D01*
D40*
X157550000Y-90890000D02*
X159710000Y-90890000D01*
D39*
X134750000Y-95460000D02*
X138000000Y-95460000D01*
D40*
X159710000Y-90890000D02*
X160300000Y-90300000D01*
D41*
X137250000Y-81850000D02*
X137200000Y-81800000D01*
D39*
X170400000Y-67577500D02*
X174027500Y-67577500D01*
X151412500Y-88800000D02*
X152712500Y-87500000D01*
D41*
X123800000Y-82000000D02*
X123800000Y-87750000D01*
D39*
X165950001Y-83499999D02*
X167400000Y-82050000D01*
X165545001Y-67577500D02*
X170400000Y-67577500D01*
D40*
X162700000Y-88350000D02*
X162700000Y-89620000D01*
D39*
X160562500Y-95037500D02*
X163000000Y-95037500D01*
X140480000Y-95460000D02*
X140500000Y-95480000D01*
D41*
X137250000Y-87187500D02*
X137250000Y-81850000D01*
D39*
X165762500Y-95037500D02*
X165800000Y-95000000D01*
X174615000Y-88750000D02*
X174615000Y-92985000D01*
X163520001Y-102250000D02*
X163850000Y-102250000D01*
X165950001Y-83500001D02*
X164500000Y-82050000D01*
X165950001Y-84200000D02*
X167600000Y-84200000D01*
X165950001Y-84200000D02*
X167200000Y-84200000D01*
X164850000Y-86050000D02*
X164850000Y-85300001D01*
X167600000Y-84200000D02*
X168000000Y-84600000D01*
D40*
X160980000Y-89620000D02*
X162700000Y-89620000D01*
D41*
X123800000Y-80029999D02*
X123800000Y-82000000D01*
D39*
X165950001Y-84200000D02*
X165950001Y-82199999D01*
X167200000Y-84200000D02*
X168000000Y-83400000D01*
D40*
%TO.N,Net-(U1-REF)*%
X162700000Y-90890000D02*
X163000000Y-91190000D01*
X163000000Y-91190000D02*
X163000000Y-92962500D01*
%TO.N,/180V*%
X144000000Y-89250000D02*
X142937500Y-90312500D01*
X137250000Y-90312500D02*
X133762500Y-90312500D01*
X131200000Y-77950000D02*
X131200000Y-87750000D01*
X121500000Y-97450000D02*
X121500000Y-115500000D01*
X121500000Y-115500000D02*
X124000000Y-118000000D01*
X152712500Y-90500000D02*
X145250000Y-90500000D01*
X126000000Y-72750000D02*
X131200000Y-77950000D01*
X145250000Y-90500000D02*
X144000000Y-89250000D01*
X142937500Y-90312500D02*
X137250000Y-90312500D01*
X124000000Y-118000000D02*
X125000000Y-118000000D01*
X133762500Y-90312500D02*
X131200000Y-87750000D01*
X131200000Y-87750000D02*
X121500000Y-97450000D01*
D41*
%TO.N,Net-(D1-A)*%
X142250000Y-73250000D02*
X147500000Y-78500000D01*
D39*
X156000000Y-83545000D02*
X156000000Y-82045000D01*
D41*
X144000000Y-82000000D02*
X147500000Y-78500000D01*
X144000000Y-82850000D02*
X144000000Y-82000000D01*
D39*
X156000000Y-82045000D02*
X152455000Y-78500000D01*
X152455000Y-78500000D02*
X147500000Y-78500000D01*
D41*
X142250000Y-71750000D02*
X142250000Y-73250000D01*
D40*
%TO.N,/CTRL_DIGIT_8*%
X178080000Y-114800000D02*
X178250000Y-114630000D01*
X174800000Y-114800000D02*
X178080000Y-114800000D01*
%TO.N,/CTRL_DIGIT_7*%
X174800000Y-112200000D02*
X178140000Y-112200000D01*
X178140000Y-112200000D02*
X178250000Y-112090000D01*
%TO.N,/CTRL_DIGIT_6*%
X178200000Y-109600000D02*
X178250000Y-109550000D01*
X174750000Y-109600000D02*
X178200000Y-109600000D01*
%TO.N,/CTRL_DIGIT_3*%
X174750000Y-102000000D02*
X178180000Y-102000000D01*
X178180000Y-102000000D02*
X178250000Y-101930000D01*
%TO.N,/CTRL_DIGIT_5*%
X174750000Y-107000000D02*
X178240000Y-107000000D01*
X178240000Y-107000000D02*
X178250000Y-107010000D01*
%TO.N,/CTRL_DIGIT_1*%
X174750000Y-96500000D02*
X177900000Y-96500000D01*
X177900000Y-96500000D02*
X178250000Y-96850000D01*
%TO.N,/CTRL_DIGIT_9*%
X174800000Y-117400000D02*
X178020001Y-117400000D01*
X178020001Y-117400000D02*
X178250000Y-117170001D01*
%TO.N,/CTRL_DIGIT_2*%
X178110000Y-99250000D02*
X178250000Y-99390000D01*
X174750000Y-99250000D02*
X178110000Y-99250000D01*
%TO.N,/CTRL_DIGIT_0*%
X177960000Y-120000000D02*
X178250000Y-119710000D01*
X174800000Y-120000000D02*
X177960000Y-120000000D01*
%TO.N,/CTRL_DIGIT_4*%
X174750000Y-104500000D02*
X178219999Y-104500000D01*
X178219999Y-104500000D02*
X178250000Y-104469999D01*
%TO.N,Net-(NX1-PadA)*%
X127000000Y-118000000D02*
X127497960Y-118497960D01*
X127497960Y-118497960D02*
X137751540Y-118497960D01*
%TO.N,/NIXIE_DIGIT_5*%
X153748460Y-110502040D02*
X153748460Y-106998460D01*
X153748460Y-106998460D02*
X150000000Y-103250000D01*
X150000000Y-103250000D02*
X147500000Y-103250000D01*
X140500000Y-98750000D02*
X140500000Y-98020000D01*
X147500000Y-103250000D02*
X144500000Y-100250000D01*
X142000000Y-100250000D02*
X140500000Y-98750000D01*
X144500000Y-100250000D02*
X142000000Y-100250000D01*
%TO.N,/NIXIE_DIGIT_7*%
X155772040Y-118497960D02*
X163750000Y-110520000D01*
X153748460Y-118497960D02*
X155772040Y-118497960D01*
%TO.N,/NIXIE_DIGIT_8*%
X157750000Y-118500000D02*
X162500000Y-118500000D01*
X162500000Y-118500000D02*
X163750000Y-117250000D01*
X151000320Y-121000000D02*
X155250000Y-121000000D01*
X150248340Y-120248020D02*
X151000320Y-121000000D01*
X155250000Y-121000000D02*
X157750000Y-118500000D01*
%TO.N,/NIXIE_DIGIT_3*%
X141625990Y-103625990D02*
X145750000Y-107750000D01*
X130270000Y-97770000D02*
X136125990Y-103625990D01*
X130270000Y-97089999D02*
X130270000Y-97770000D01*
X145750000Y-107750000D02*
X145750000Y-108751980D01*
X136125990Y-103625990D02*
X141625990Y-103625990D01*
%TO.N,/NIXIE_DIGIT_4*%
X138625000Y-102125000D02*
X143375000Y-102125000D01*
X146500000Y-105250000D02*
X148750000Y-105250000D01*
X134750000Y-98250000D02*
X138625000Y-102125000D01*
X148750000Y-105250000D02*
X150248340Y-106748340D01*
X143375000Y-102125000D02*
X146500000Y-105250000D01*
X134750000Y-98000000D02*
X134750000Y-98250000D01*
X150248340Y-106748340D02*
X150248340Y-108751980D01*
%TO.N,/NIXIE_DIGIT_9*%
X150500000Y-125000000D02*
X158230001Y-125000000D01*
X145750000Y-120250000D02*
X150500000Y-125000000D01*
X158230001Y-125000000D02*
X160730001Y-122500000D01*
X145750000Y-120248020D02*
X145750000Y-120250000D01*
%TO.N,/NIXIE_DIGIT_2*%
X141251660Y-108751660D02*
X141251660Y-108751980D01*
X131750000Y-102750000D02*
X134750000Y-105750000D01*
X126540000Y-102750000D02*
X131750000Y-102750000D01*
X134750000Y-105750000D02*
X138250000Y-105750000D01*
X138250000Y-105750000D02*
X141251660Y-108751660D01*
%TO.N,Net-(Q1-B)*%
X167626346Y-120000000D02*
X172800000Y-120000000D01*
X167613173Y-119986827D02*
X167626346Y-120000000D01*
X166813173Y-119986827D02*
X167613173Y-119986827D01*
%TO.N,Net-(Q2-B)*%
X170200000Y-107000000D02*
X172750000Y-107000000D01*
%TO.N,Net-(Q3-B)*%
X172750000Y-96500000D02*
X162900000Y-96500000D01*
X162900000Y-96500000D02*
X160400000Y-99000000D01*
%TO.N,Net-(Q4-B)*%
X162250001Y-103520000D02*
X164330001Y-105600000D01*
X170600000Y-109600000D02*
X172750000Y-109600000D01*
X164330001Y-105600000D02*
X166600000Y-105600000D01*
X166600000Y-105600000D02*
X170600000Y-109600000D01*
%TO.N,Net-(Q5-B)*%
X168000000Y-99250000D02*
X172750000Y-99250000D01*
%TO.N,Net-(Q6-B)*%
X165020000Y-109250000D02*
X167970000Y-112200000D01*
X167970000Y-112200000D02*
X172800000Y-112200000D01*
%TO.N,Net-(Q7-B)*%
X168800000Y-102000000D02*
X172750000Y-102000000D01*
%TO.N,Net-(Q8-B)*%
X165020000Y-115980000D02*
X166200000Y-114800000D01*
X166200000Y-114800000D02*
X172800000Y-114800000D01*
%TO.N,Net-(Q10-B)*%
X170000000Y-118400000D02*
X171000000Y-117400000D01*
X171000000Y-117400000D02*
X172800000Y-117400000D01*
D39*
%TO.N,Net-(U1-FB)*%
X154712500Y-90500000D02*
X155592500Y-89620000D01*
X155592500Y-89620000D02*
X157550000Y-89620000D01*
D40*
%TO.N,/NIXIE_DIGIT_LHDP*%
X126540000Y-114000000D02*
X136250781Y-114000000D01*
X136250781Y-114000000D02*
X136750781Y-114500000D01*
%TO.N,/CTRL_DIGIT_LHDP*%
X177900000Y-122600000D02*
X178250000Y-122250000D01*
X174800000Y-122600000D02*
X177900000Y-122600000D01*
D41*
%TO.N,Net-(Q12-S)*%
X162194999Y-83545000D02*
X158539999Y-83545000D01*
X162700000Y-87080000D02*
X162700000Y-84349999D01*
X162849999Y-84200000D02*
X162194999Y-83545000D01*
X162700000Y-84349999D02*
X162849999Y-84200000D01*
D39*
%TO.N,Net-(Q12-G)*%
X156151000Y-85600000D02*
X157550000Y-86999000D01*
X154800000Y-85600000D02*
X156151000Y-85600000D01*
X153460000Y-83545000D02*
X153460000Y-84260000D01*
X153460000Y-84260000D02*
X154800000Y-85600000D01*
%TD*%
%TA.AperFunction,Conductor*%
%TO.N,+12V*%
G36*
X161615677Y-65419685D02*
G01*
X161636319Y-65436319D01*
X162763681Y-66563681D01*
X162797166Y-66625004D01*
X162800000Y-66651362D01*
X162800000Y-68348638D01*
X162780315Y-68415677D01*
X162763681Y-68436319D01*
X161400000Y-69799999D01*
X161400000Y-70200000D01*
X166800000Y-75600000D01*
X170451787Y-75600000D01*
X170518826Y-75619685D01*
X170546021Y-75644707D01*
X170546551Y-75644243D01*
X170549231Y-75647299D01*
X170727697Y-75825765D01*
X170727705Y-75825772D01*
X170927954Y-75979431D01*
X170927958Y-75979433D01*
X171146535Y-76105627D01*
X171146552Y-76105636D01*
X171236851Y-76143039D01*
X171379740Y-76202226D01*
X171623548Y-76267554D01*
X171873796Y-76300500D01*
X171873803Y-76300500D01*
X172126197Y-76300500D01*
X172126204Y-76300500D01*
X172376452Y-76267554D01*
X172620260Y-76202226D01*
X172853454Y-76105633D01*
X173036419Y-75999999D01*
X173717811Y-75999999D01*
X173717812Y-76000000D01*
X175016988Y-76000000D01*
X174984075Y-76057007D01*
X174950000Y-76184174D01*
X174950000Y-76315826D01*
X174984075Y-76442993D01*
X175016988Y-76500000D01*
X173717812Y-76500000D01*
X173729942Y-76592137D01*
X173789318Y-76813730D01*
X173877102Y-77025659D01*
X173877106Y-77025668D01*
X173991809Y-77224338D01*
X174131455Y-77406329D01*
X174131461Y-77406336D01*
X174293663Y-77568538D01*
X174293670Y-77568544D01*
X174475661Y-77708190D01*
X174674331Y-77822893D01*
X174674340Y-77822897D01*
X174886269Y-77910681D01*
X175107862Y-77970057D01*
X175335289Y-77999998D01*
X175335306Y-78000000D01*
X176450000Y-78000000D01*
X176450000Y-76750000D01*
X176950000Y-76750000D01*
X176950000Y-78000000D01*
X178064694Y-78000000D01*
X178064710Y-77999998D01*
X178292137Y-77970057D01*
X178513730Y-77910681D01*
X178725659Y-77822897D01*
X178725668Y-77822893D01*
X178924338Y-77708190D01*
X179106329Y-77568544D01*
X179106336Y-77568538D01*
X179268538Y-77406336D01*
X179268544Y-77406329D01*
X179408190Y-77224338D01*
X179522893Y-77025668D01*
X179522897Y-77025659D01*
X179610681Y-76813730D01*
X179670057Y-76592137D01*
X179682188Y-76500000D01*
X178383012Y-76500000D01*
X178415925Y-76442993D01*
X178450000Y-76315826D01*
X178450000Y-76184174D01*
X178415925Y-76057007D01*
X178383012Y-76000000D01*
X179682188Y-76000000D01*
X179682188Y-75999999D01*
X179670057Y-75907862D01*
X179610681Y-75686269D01*
X179522897Y-75474340D01*
X179522893Y-75474331D01*
X179408190Y-75275661D01*
X179268544Y-75093670D01*
X179268538Y-75093663D01*
X179106336Y-74931461D01*
X179106329Y-74931455D01*
X178924338Y-74791809D01*
X178725668Y-74677106D01*
X178725659Y-74677102D01*
X178513730Y-74589318D01*
X178292137Y-74529942D01*
X178064710Y-74500001D01*
X178064694Y-74500000D01*
X176950000Y-74500000D01*
X176950000Y-75750000D01*
X176450000Y-75750000D01*
X176450000Y-74500000D01*
X175335306Y-74500000D01*
X175335289Y-74500001D01*
X175107862Y-74529942D01*
X174886269Y-74589318D01*
X174674340Y-74677102D01*
X174674331Y-74677106D01*
X174475661Y-74791809D01*
X174293670Y-74931455D01*
X174293663Y-74931461D01*
X174131461Y-75093663D01*
X174131455Y-75093670D01*
X173991809Y-75275661D01*
X173877106Y-75474331D01*
X173877102Y-75474340D01*
X173789318Y-75686269D01*
X173729942Y-75907862D01*
X173717811Y-75999999D01*
X173036419Y-75999999D01*
X173072041Y-75979433D01*
X173072045Y-75979431D01*
X173121944Y-75941142D01*
X173165458Y-75907751D01*
X173272294Y-75825773D01*
X173272298Y-75825768D01*
X173272303Y-75825765D01*
X173450765Y-75647303D01*
X173450768Y-75647298D01*
X173450773Y-75647294D01*
X173604430Y-75447046D01*
X173618191Y-75423212D01*
X173666571Y-75339414D01*
X173730633Y-75228454D01*
X173827226Y-74995260D01*
X173892554Y-74751452D01*
X173925500Y-74501204D01*
X173925500Y-73949294D01*
X173930810Y-73931210D01*
X173931127Y-73912364D01*
X173944691Y-73883935D01*
X173945185Y-73882255D01*
X173946291Y-73880562D01*
X173963189Y-73855215D01*
X174016755Y-73810356D01*
X174066363Y-73800000D01*
X180276000Y-73800000D01*
X180343039Y-73819685D01*
X180388794Y-73872489D01*
X180400000Y-73924000D01*
X180400000Y-77736187D01*
X180380315Y-77803226D01*
X180348074Y-77837090D01*
X179040238Y-78771259D01*
X179032336Y-78776903D01*
X178966342Y-78799851D01*
X178960262Y-78800000D01*
X178000000Y-78800000D01*
X178000000Y-80948638D01*
X177980315Y-81015677D01*
X177963681Y-81036319D01*
X170800000Y-88199999D01*
X170800000Y-91276000D01*
X170780315Y-91343039D01*
X170727511Y-91388794D01*
X170676000Y-91400000D01*
X167600000Y-91400000D01*
X166124000Y-91400000D01*
X166056961Y-91380315D01*
X166011206Y-91327511D01*
X166000000Y-91276000D01*
X166000000Y-89844985D01*
X166577500Y-89844985D01*
X166587993Y-89947689D01*
X166587994Y-89947696D01*
X166643141Y-90114118D01*
X166643143Y-90114123D01*
X166735184Y-90263344D01*
X166859155Y-90387315D01*
X167008376Y-90479356D01*
X167008381Y-90479358D01*
X167174803Y-90534505D01*
X167174810Y-90534506D01*
X167277514Y-90544999D01*
X167277527Y-90545000D01*
X167950000Y-90545000D01*
X168450000Y-90545000D01*
X169122473Y-90545000D01*
X169122485Y-90544999D01*
X169225189Y-90534506D01*
X169225196Y-90534505D01*
X169391618Y-90479358D01*
X169391623Y-90479356D01*
X169540844Y-90387315D01*
X169664815Y-90263344D01*
X169756856Y-90114123D01*
X169756858Y-90114118D01*
X169812005Y-89947696D01*
X169812006Y-89947689D01*
X169822499Y-89844985D01*
X169822500Y-89844972D01*
X169822500Y-89000000D01*
X168450000Y-89000000D01*
X168450000Y-90545000D01*
X167950000Y-90545000D01*
X167950000Y-89000000D01*
X166577500Y-89000000D01*
X166577500Y-89844985D01*
X166000000Y-89844985D01*
X166000000Y-87655014D01*
X166577500Y-87655014D01*
X166577500Y-88500000D01*
X167950000Y-88500000D01*
X168450000Y-88500000D01*
X169822500Y-88500000D01*
X169822500Y-87655027D01*
X169822499Y-87655014D01*
X169812006Y-87552310D01*
X169812005Y-87552303D01*
X169756858Y-87385881D01*
X169756856Y-87385876D01*
X169664815Y-87236655D01*
X169540844Y-87112684D01*
X169391623Y-87020643D01*
X169391618Y-87020641D01*
X169225196Y-86965494D01*
X169225189Y-86965493D01*
X169122485Y-86955000D01*
X168450000Y-86955000D01*
X168450000Y-88500000D01*
X167950000Y-88500000D01*
X167950000Y-86955000D01*
X167277514Y-86955000D01*
X167174810Y-86965493D01*
X167174803Y-86965494D01*
X167008381Y-87020641D01*
X167008376Y-87020643D01*
X166859155Y-87112684D01*
X166735184Y-87236655D01*
X166643143Y-87385876D01*
X166643141Y-87385881D01*
X166587994Y-87552303D01*
X166587993Y-87552310D01*
X166577500Y-87655014D01*
X166000000Y-87655014D01*
X166000000Y-86687364D01*
X166013515Y-86631069D01*
X166055218Y-86549223D01*
X166055218Y-86549222D01*
X166055220Y-86549219D01*
X166118477Y-86354534D01*
X166126386Y-86304601D01*
X166156316Y-86241467D01*
X166215628Y-86204536D01*
X166248859Y-86200000D01*
X169218182Y-86200000D01*
X175400000Y-80200000D01*
X175400000Y-78800000D01*
X174644894Y-78800000D01*
X174577855Y-78780315D01*
X174565511Y-78771259D01*
X173400000Y-77800000D01*
X166050342Y-77800000D01*
X165983303Y-77780315D01*
X165963904Y-77764907D01*
X165934363Y-77736187D01*
X162664733Y-74557379D01*
X158837562Y-70836518D01*
X158803217Y-70775673D01*
X158800000Y-70747611D01*
X158800000Y-69000000D01*
X157000000Y-69000000D01*
X156999999Y-69000000D01*
X155000000Y-70999999D01*
X155000000Y-76076000D01*
X154980315Y-76143039D01*
X154927511Y-76188794D01*
X154876000Y-76200000D01*
X149124000Y-76200000D01*
X149056961Y-76180315D01*
X149011206Y-76127511D01*
X149000000Y-76076000D01*
X149000000Y-74497844D01*
X150200002Y-74497844D01*
X150206403Y-74557372D01*
X150206405Y-74557379D01*
X150256647Y-74692086D01*
X150256651Y-74692093D01*
X150342811Y-74807187D01*
X150342814Y-74807190D01*
X150457908Y-74893350D01*
X150457915Y-74893354D01*
X150592622Y-74943596D01*
X150592629Y-74943598D01*
X150652157Y-74949999D01*
X150652174Y-74950000D01*
X151900002Y-74950000D01*
X152400002Y-74950000D01*
X153647830Y-74950000D01*
X153647846Y-74949999D01*
X153707374Y-74943598D01*
X153707381Y-74943596D01*
X153842088Y-74893354D01*
X153842095Y-74893350D01*
X153957189Y-74807190D01*
X153957192Y-74807187D01*
X154043352Y-74692093D01*
X154043356Y-74692086D01*
X154093598Y-74557379D01*
X154093600Y-74557372D01*
X154100001Y-74497844D01*
X154100002Y-74497827D01*
X154100002Y-72000000D01*
X152400002Y-72000000D01*
X152400002Y-74950000D01*
X151900002Y-74950000D01*
X151900002Y-72000000D01*
X150200002Y-72000000D01*
X150200002Y-74497844D01*
X149000000Y-74497844D01*
X149000000Y-69002155D01*
X150200002Y-69002155D01*
X150200002Y-71500000D01*
X151900002Y-71500000D01*
X152400002Y-71500000D01*
X154100002Y-71500000D01*
X154100002Y-69002172D01*
X154100001Y-69002155D01*
X154093600Y-68942627D01*
X154093598Y-68942620D01*
X154043356Y-68807913D01*
X154043352Y-68807906D01*
X153957192Y-68692812D01*
X153957189Y-68692809D01*
X153842095Y-68606649D01*
X153842088Y-68606645D01*
X153707381Y-68556403D01*
X153707374Y-68556401D01*
X153647846Y-68550000D01*
X152400002Y-68550000D01*
X152400002Y-71500000D01*
X151900002Y-71500000D01*
X151900002Y-68550000D01*
X150652157Y-68550000D01*
X150592629Y-68556401D01*
X150592622Y-68556403D01*
X150457915Y-68606645D01*
X150457908Y-68606649D01*
X150342814Y-68692809D01*
X150342811Y-68692812D01*
X150256651Y-68807906D01*
X150256647Y-68807913D01*
X150206405Y-68942620D01*
X150206403Y-68942627D01*
X150200002Y-69002155D01*
X149000000Y-69002155D01*
X149000000Y-67524000D01*
X149018935Y-67459514D01*
X158665002Y-67459514D01*
X158665002Y-67695485D01*
X158695801Y-67929414D01*
X158756872Y-68157337D01*
X158847162Y-68375319D01*
X158847167Y-68375328D01*
X158965146Y-68579671D01*
X158965147Y-68579672D01*
X159027723Y-68661223D01*
X159863960Y-67824987D01*
X159888980Y-67885390D01*
X159960114Y-67991851D01*
X160050651Y-68082388D01*
X160157112Y-68153522D01*
X160217513Y-68178541D01*
X159381277Y-69014777D01*
X159462829Y-69077354D01*
X159462830Y-69077355D01*
X159667173Y-69195334D01*
X159667182Y-69195339D01*
X159885165Y-69285629D01*
X159885163Y-69285629D01*
X160113087Y-69346700D01*
X160347016Y-69377499D01*
X160347031Y-69377500D01*
X160582973Y-69377500D01*
X160582987Y-69377499D01*
X160816916Y-69346700D01*
X161044839Y-69285629D01*
X161262821Y-69195339D01*
X161262830Y-69195334D01*
X161467183Y-69077350D01*
X161548725Y-69014779D01*
X161548725Y-69014776D01*
X160712489Y-68178541D01*
X160772892Y-68153522D01*
X160879353Y-68082388D01*
X160969890Y-67991851D01*
X161041024Y-67885390D01*
X161066043Y-67824988D01*
X161902278Y-68661223D01*
X161902281Y-68661223D01*
X161964852Y-68579681D01*
X162082836Y-68375328D01*
X162082841Y-68375319D01*
X162173131Y-68157337D01*
X162234202Y-67929414D01*
X162265001Y-67695485D01*
X162265002Y-67695471D01*
X162265002Y-67459528D01*
X162265001Y-67459514D01*
X162234202Y-67225585D01*
X162173131Y-66997662D01*
X162082841Y-66779680D01*
X162082836Y-66779671D01*
X161964857Y-66575328D01*
X161964856Y-66575327D01*
X161902279Y-66493775D01*
X161066043Y-67330011D01*
X161041024Y-67269610D01*
X160969890Y-67163149D01*
X160879353Y-67072612D01*
X160772892Y-67001478D01*
X160712490Y-66976458D01*
X161548725Y-66140221D01*
X161467174Y-66077645D01*
X161467173Y-66077644D01*
X161262830Y-65959665D01*
X161262821Y-65959660D01*
X161044838Y-65869370D01*
X161044840Y-65869370D01*
X160816916Y-65808299D01*
X160582987Y-65777500D01*
X160347016Y-65777500D01*
X160113087Y-65808299D01*
X159885164Y-65869370D01*
X159667182Y-65959660D01*
X159667173Y-65959665D01*
X159462830Y-66077644D01*
X159462820Y-66077650D01*
X159381277Y-66140220D01*
X159381277Y-66140221D01*
X160217514Y-66976458D01*
X160157112Y-67001478D01*
X160050651Y-67072612D01*
X159960114Y-67163149D01*
X159888980Y-67269610D01*
X159863960Y-67330012D01*
X159027723Y-66493775D01*
X159027722Y-66493775D01*
X158965152Y-66575318D01*
X158965146Y-66575328D01*
X158847167Y-66779671D01*
X158847162Y-66779680D01*
X158756872Y-66997662D01*
X158695801Y-67225585D01*
X158665002Y-67459514D01*
X149018935Y-67459514D01*
X149019685Y-67456961D01*
X149072489Y-67411206D01*
X149124000Y-67400000D01*
X154999999Y-67400000D01*
X155000000Y-67400000D01*
X155766933Y-66824799D01*
X155832375Y-66800324D01*
X155841333Y-66800000D01*
X157800000Y-66800000D01*
X159163681Y-65436319D01*
X159225004Y-65402834D01*
X159251362Y-65400000D01*
X161548638Y-65400000D01*
X161615677Y-65419685D01*
G37*
%TD.AperFunction*%
%TD*%
%TA.AperFunction,Conductor*%
%TO.N,GND*%
G36*
X181942539Y-62020185D02*
G01*
X181988294Y-62072989D01*
X181999500Y-62124500D01*
X181999500Y-125875500D01*
X181979815Y-125942539D01*
X181927011Y-125988294D01*
X181875500Y-125999500D01*
X158853773Y-125999500D01*
X158786734Y-125979815D01*
X158740979Y-125927011D01*
X158731035Y-125857853D01*
X158760060Y-125794297D01*
X158784882Y-125772398D01*
X158811949Y-125754311D01*
X158835909Y-125738302D01*
X160587392Y-123986819D01*
X160614319Y-123972115D01*
X160640138Y-123955523D01*
X160646338Y-123954631D01*
X160648715Y-123953334D01*
X160675073Y-123950500D01*
X160758850Y-123950500D01*
X160825889Y-123970185D01*
X160871644Y-124022989D01*
X160876781Y-124036182D01*
X160933788Y-124211636D01*
X160933789Y-124211639D01*
X161016007Y-124372997D01*
X161122442Y-124519494D01*
X161122446Y-124519499D01*
X161250501Y-124647554D01*
X161250506Y-124647558D01*
X161378288Y-124740396D01*
X161397007Y-124753996D01*
X161502485Y-124807740D01*
X161558361Y-124836211D01*
X161558364Y-124836212D01*
X161644477Y-124864191D01*
X161730592Y-124892171D01*
X161813430Y-124905291D01*
X161909450Y-124920500D01*
X161909455Y-124920500D01*
X162090552Y-124920500D01*
X162177260Y-124906765D01*
X162269410Y-124892171D01*
X162441640Y-124836211D01*
X162602995Y-124753996D01*
X162749502Y-124647553D01*
X162877554Y-124519501D01*
X162983997Y-124372994D01*
X163066212Y-124211639D01*
X163122172Y-124039409D01*
X163141660Y-123916365D01*
X163150501Y-123860551D01*
X163150501Y-123679448D01*
X163132109Y-123563334D01*
X163122172Y-123500591D01*
X163094174Y-123414420D01*
X163066213Y-123328363D01*
X163066211Y-123328360D01*
X163063474Y-123322989D01*
X163033516Y-123264191D01*
X163020001Y-123207896D01*
X163020001Y-122780330D01*
X163039746Y-122800075D01*
X163125256Y-122849444D01*
X163220631Y-122875000D01*
X163319371Y-122875000D01*
X163414746Y-122849444D01*
X163500256Y-122800075D01*
X163520001Y-122780330D01*
X163520001Y-123650000D01*
X163967829Y-123650000D01*
X163967845Y-123649999D01*
X164027373Y-123643598D01*
X164027380Y-123643596D01*
X164162087Y-123593354D01*
X164162094Y-123593350D01*
X164277188Y-123507190D01*
X164277191Y-123507187D01*
X164363351Y-123392093D01*
X164363355Y-123392086D01*
X164413597Y-123257379D01*
X164413599Y-123257372D01*
X164420000Y-123197844D01*
X164420001Y-123197827D01*
X164420001Y-122750000D01*
X163550331Y-122750000D01*
X163570076Y-122730255D01*
X163619445Y-122644745D01*
X163645001Y-122549370D01*
X163645001Y-122450630D01*
X163619445Y-122355255D01*
X163570076Y-122269745D01*
X163550331Y-122250000D01*
X164420001Y-122250000D01*
X164420001Y-121802172D01*
X164420000Y-121802155D01*
X164413599Y-121742627D01*
X164413597Y-121742620D01*
X164363355Y-121607913D01*
X164363351Y-121607906D01*
X164277191Y-121492812D01*
X164277188Y-121492809D01*
X164162094Y-121406649D01*
X164162087Y-121406645D01*
X164027380Y-121356403D01*
X164027373Y-121356401D01*
X163967845Y-121350000D01*
X163520001Y-121350000D01*
X163520001Y-122219670D01*
X163500256Y-122199925D01*
X163414746Y-122150556D01*
X163319371Y-122125000D01*
X163220631Y-122125000D01*
X163125256Y-122150556D01*
X163039746Y-122199925D01*
X163020001Y-122219670D01*
X163020001Y-121350000D01*
X162572156Y-121350000D01*
X162512628Y-121356401D01*
X162512621Y-121356403D01*
X162377914Y-121406645D01*
X162377907Y-121406649D01*
X162262813Y-121492809D01*
X162262810Y-121492812D01*
X162176650Y-121607906D01*
X162176645Y-121607915D01*
X162154970Y-121666028D01*
X162113098Y-121721961D01*
X162047634Y-121746377D01*
X161979361Y-121731525D01*
X161938472Y-121695580D01*
X161836380Y-121555063D01*
X161674938Y-121393621D01*
X161490229Y-121259421D01*
X161416914Y-121222065D01*
X161286804Y-121155770D01*
X161069661Y-121085215D01*
X160844163Y-121049500D01*
X160844158Y-121049500D01*
X160615844Y-121049500D01*
X160615839Y-121049500D01*
X160390340Y-121085215D01*
X160173197Y-121155770D01*
X159969772Y-121259421D01*
X159785062Y-121393622D01*
X159623623Y-121555061D01*
X159489422Y-121739771D01*
X159385771Y-121943196D01*
X159315216Y-122160339D01*
X159279501Y-122385837D01*
X159279501Y-122554928D01*
X159259816Y-122621967D01*
X159243182Y-122642609D01*
X157872610Y-124013181D01*
X157811287Y-124046666D01*
X157784929Y-124049500D01*
X153138939Y-124049500D01*
X153113168Y-124041932D01*
X153086609Y-124037917D01*
X153080149Y-124032237D01*
X153071900Y-124029815D01*
X153054314Y-124009520D01*
X153034139Y-123991780D01*
X153031775Y-123983509D01*
X153026145Y-123977011D01*
X153022322Y-123950428D01*
X153014942Y-123924599D01*
X153017424Y-123916365D01*
X153016201Y-123907853D01*
X153027359Y-123883418D01*
X153035114Y-123857704D01*
X153042522Y-123850216D01*
X153045226Y-123844297D01*
X153058419Y-123831199D01*
X153063973Y-123826456D01*
X153137782Y-123777139D01*
X153231561Y-123683359D01*
X153235263Y-123680199D01*
X153262875Y-123667830D01*
X153289424Y-123653334D01*
X153297076Y-123652511D01*
X153299028Y-123651637D01*
X153301596Y-123652025D01*
X153315783Y-123650500D01*
X155814071Y-123650500D01*
X155898615Y-123633682D01*
X155939744Y-123625501D01*
X156058127Y-123576465D01*
X156164669Y-123505277D01*
X158983127Y-120686819D01*
X159044450Y-120653334D01*
X159070808Y-120650500D01*
X164879192Y-120650500D01*
X164946231Y-120670185D01*
X164966873Y-120686819D01*
X167385324Y-123105271D01*
X167385331Y-123105277D01*
X167491871Y-123176464D01*
X167491870Y-123176464D01*
X167526544Y-123190826D01*
X167610256Y-123225501D01*
X167610260Y-123225501D01*
X167610261Y-123225502D01*
X167735928Y-123250500D01*
X167735931Y-123250500D01*
X171636267Y-123250500D01*
X171703306Y-123270185D01*
X171749061Y-123322989D01*
X171753972Y-123335494D01*
X171763293Y-123363622D01*
X171765186Y-123369334D01*
X171857288Y-123518656D01*
X171981344Y-123642712D01*
X172130666Y-123734814D01*
X172297203Y-123789999D01*
X172399991Y-123800500D01*
X173200008Y-123800499D01*
X173200016Y-123800498D01*
X173200019Y-123800498D01*
X173256302Y-123794748D01*
X173302797Y-123789999D01*
X173469334Y-123734814D01*
X173618656Y-123642712D01*
X173712319Y-123549049D01*
X173773642Y-123515564D01*
X173843334Y-123520548D01*
X173887681Y-123549049D01*
X173981344Y-123642712D01*
X174130666Y-123734814D01*
X174297203Y-123789999D01*
X174399991Y-123800500D01*
X175200008Y-123800499D01*
X175200016Y-123800498D01*
X175200019Y-123800498D01*
X175256302Y-123794748D01*
X175302797Y-123789999D01*
X175469334Y-123734814D01*
X175618656Y-123642712D01*
X175742712Y-123518656D01*
X175834814Y-123369334D01*
X175846028Y-123335494D01*
X175885801Y-123278050D01*
X175950317Y-123251228D01*
X175963733Y-123250500D01*
X176835859Y-123250500D01*
X176902898Y-123270185D01*
X176948653Y-123322989D01*
X176952030Y-123331140D01*
X176956204Y-123342331D01*
X176956205Y-123342332D01*
X176956206Y-123342335D01*
X177042452Y-123457544D01*
X177042455Y-123457547D01*
X177157664Y-123543793D01*
X177157671Y-123543797D01*
X177292517Y-123594091D01*
X177292516Y-123594091D01*
X177299444Y-123594835D01*
X177352127Y-123600500D01*
X179147872Y-123600499D01*
X179207483Y-123594091D01*
X179342331Y-123543796D01*
X179457546Y-123457546D01*
X179543796Y-123342331D01*
X179594091Y-123207483D01*
X179600500Y-123147873D01*
X179600499Y-121352128D01*
X179594091Y-121292517D01*
X179578027Y-121249448D01*
X179543797Y-121157671D01*
X179543793Y-121157664D01*
X179457547Y-121042455D01*
X179457544Y-121042452D01*
X179342335Y-120956206D01*
X179342328Y-120956202D01*
X179210917Y-120907189D01*
X179154983Y-120865318D01*
X179130566Y-120799853D01*
X179145418Y-120731580D01*
X179166563Y-120703332D01*
X179280104Y-120589792D01*
X179405051Y-120417816D01*
X179501557Y-120228412D01*
X179567246Y-120026243D01*
X179600500Y-119816287D01*
X179600500Y-119603713D01*
X179567246Y-119393757D01*
X179501557Y-119191588D01*
X179405051Y-119002184D01*
X179405049Y-119002181D01*
X179405048Y-119002179D01*
X179280109Y-118830213D01*
X179129786Y-118679890D01*
X178957817Y-118554949D01*
X178949054Y-118550484D01*
X178898258Y-118502509D01*
X178881464Y-118434688D01*
X178904002Y-118368553D01*
X178949058Y-118329514D01*
X178957816Y-118325052D01*
X179015521Y-118283127D01*
X179129786Y-118200110D01*
X179129788Y-118200107D01*
X179129792Y-118200105D01*
X179280104Y-118049793D01*
X179280106Y-118049789D01*
X179280109Y-118049787D01*
X179405048Y-117877821D01*
X179405047Y-117877821D01*
X179405051Y-117877817D01*
X179501557Y-117688413D01*
X179567246Y-117486244D01*
X179600500Y-117276288D01*
X179600500Y-117063714D01*
X179567246Y-116853758D01*
X179501557Y-116651589D01*
X179405051Y-116462185D01*
X179405049Y-116462182D01*
X179405048Y-116462180D01*
X179280109Y-116290214D01*
X179129786Y-116139891D01*
X178957817Y-116014950D01*
X178949052Y-116010484D01*
X178898257Y-115962509D01*
X178881462Y-115894688D01*
X178904000Y-115828553D01*
X178949056Y-115789514D01*
X178957816Y-115785051D01*
X178957818Y-115785049D01*
X178957821Y-115785048D01*
X179129786Y-115660109D01*
X179129788Y-115660106D01*
X179129792Y-115660104D01*
X179280104Y-115509792D01*
X179280106Y-115509788D01*
X179280109Y-115509786D01*
X179405048Y-115337820D01*
X179405047Y-115337820D01*
X179405051Y-115337816D01*
X179501557Y-115148412D01*
X179567246Y-114946243D01*
X179600500Y-114736287D01*
X179600500Y-114523713D01*
X179567246Y-114313757D01*
X179501557Y-114111588D01*
X179405051Y-113922184D01*
X179405049Y-113922181D01*
X179405048Y-113922179D01*
X179280109Y-113750213D01*
X179129786Y-113599890D01*
X178957820Y-113474951D01*
X178957115Y-113474591D01*
X178949054Y-113470485D01*
X178898259Y-113422512D01*
X178881463Y-113354692D01*
X178903999Y-113288556D01*
X178949054Y-113249515D01*
X178957816Y-113245051D01*
X179030981Y-113191894D01*
X179129786Y-113120109D01*
X179129788Y-113120106D01*
X179129792Y-113120104D01*
X179280104Y-112969792D01*
X179280106Y-112969788D01*
X179280109Y-112969786D01*
X179405048Y-112797820D01*
X179405047Y-112797820D01*
X179405051Y-112797816D01*
X179501557Y-112608412D01*
X179567246Y-112406243D01*
X179600500Y-112196287D01*
X179600500Y-111983713D01*
X179567246Y-111773757D01*
X179501557Y-111571588D01*
X179405051Y-111382184D01*
X179405049Y-111382181D01*
X179405048Y-111382179D01*
X179280109Y-111210213D01*
X179129786Y-111059890D01*
X178957820Y-110934951D01*
X178957115Y-110934591D01*
X178949054Y-110930485D01*
X178898259Y-110882512D01*
X178881463Y-110814692D01*
X178903999Y-110748556D01*
X178949054Y-110709515D01*
X178957816Y-110705051D01*
X179034531Y-110649315D01*
X179129786Y-110580109D01*
X179129788Y-110580106D01*
X179129792Y-110580104D01*
X179280104Y-110429792D01*
X179280106Y-110429788D01*
X179280109Y-110429786D01*
X179404613Y-110258419D01*
X179405051Y-110257816D01*
X179501557Y-110068412D01*
X179567246Y-109866243D01*
X179600500Y-109656287D01*
X179600500Y-109443713D01*
X179567246Y-109233757D01*
X179501557Y-109031588D01*
X179405051Y-108842184D01*
X179405049Y-108842181D01*
X179405048Y-108842179D01*
X179280109Y-108670213D01*
X179129786Y-108519890D01*
X178957820Y-108394951D01*
X178957115Y-108394591D01*
X178949054Y-108390485D01*
X178898259Y-108342512D01*
X178881463Y-108274692D01*
X178903999Y-108208556D01*
X178949054Y-108169515D01*
X178957816Y-108165051D01*
X179013293Y-108124745D01*
X179129786Y-108040109D01*
X179129788Y-108040106D01*
X179129792Y-108040104D01*
X179280104Y-107889792D01*
X179280106Y-107889788D01*
X179280109Y-107889786D01*
X179405048Y-107717820D01*
X179405047Y-107717820D01*
X179405051Y-107717816D01*
X179501557Y-107528412D01*
X179567246Y-107326243D01*
X179600500Y-107116287D01*
X179600500Y-106903713D01*
X179567246Y-106693757D01*
X179501557Y-106491588D01*
X179405051Y-106302184D01*
X179405049Y-106302181D01*
X179405048Y-106302179D01*
X179280109Y-106130213D01*
X179129786Y-105979890D01*
X178957817Y-105854949D01*
X178949052Y-105850483D01*
X178898257Y-105802508D01*
X178881462Y-105734687D01*
X178904000Y-105668552D01*
X178949056Y-105629513D01*
X178957816Y-105625050D01*
X178957818Y-105625048D01*
X178957821Y-105625047D01*
X179129786Y-105500108D01*
X179129788Y-105500105D01*
X179129792Y-105500103D01*
X179280104Y-105349791D01*
X179280106Y-105349787D01*
X179280109Y-105349785D01*
X179405048Y-105177819D01*
X179405047Y-105177819D01*
X179405051Y-105177815D01*
X179501557Y-104988411D01*
X179567246Y-104786242D01*
X179600500Y-104576286D01*
X179600500Y-104363712D01*
X179567246Y-104153756D01*
X179501557Y-103951587D01*
X179405051Y-103762183D01*
X179405049Y-103762180D01*
X179405048Y-103762178D01*
X179280109Y-103590212D01*
X179129786Y-103439889D01*
X178957817Y-103314948D01*
X178949054Y-103310483D01*
X178898258Y-103262508D01*
X178881464Y-103194687D01*
X178904002Y-103128552D01*
X178949058Y-103089513D01*
X178957816Y-103085051D01*
X179017298Y-103041835D01*
X179129786Y-102960109D01*
X179129788Y-102960106D01*
X179129792Y-102960104D01*
X179280104Y-102809792D01*
X179280106Y-102809788D01*
X179280109Y-102809786D01*
X179401686Y-102642447D01*
X179405051Y-102637816D01*
X179501557Y-102448412D01*
X179567246Y-102246243D01*
X179600500Y-102036287D01*
X179600500Y-101823713D01*
X179567246Y-101613757D01*
X179501557Y-101411588D01*
X179405051Y-101222184D01*
X179405049Y-101222181D01*
X179405048Y-101222179D01*
X179280109Y-101050213D01*
X179129786Y-100899890D01*
X178957820Y-100774951D01*
X178957115Y-100774591D01*
X178949054Y-100770485D01*
X178898259Y-100722512D01*
X178881463Y-100654692D01*
X178903999Y-100588556D01*
X178949054Y-100549515D01*
X178957816Y-100545051D01*
X179025324Y-100496004D01*
X179129786Y-100420109D01*
X179129788Y-100420106D01*
X179129792Y-100420104D01*
X179280104Y-100269792D01*
X179280106Y-100269788D01*
X179280109Y-100269786D01*
X179405048Y-100097820D01*
X179405047Y-100097820D01*
X179405051Y-100097816D01*
X179501557Y-99908412D01*
X179567246Y-99706243D01*
X179600500Y-99496287D01*
X179600500Y-99283713D01*
X179567246Y-99073757D01*
X179501557Y-98871588D01*
X179405051Y-98682184D01*
X179405049Y-98682181D01*
X179405048Y-98682179D01*
X179280109Y-98510213D01*
X179129786Y-98359890D01*
X178957820Y-98234951D01*
X178957115Y-98234591D01*
X178949054Y-98230485D01*
X178898259Y-98182512D01*
X178881463Y-98114692D01*
X178903999Y-98048556D01*
X178949054Y-98009515D01*
X178957816Y-98005051D01*
X179004477Y-97971150D01*
X179129786Y-97880109D01*
X179129788Y-97880106D01*
X179129792Y-97880104D01*
X179280104Y-97729792D01*
X179280106Y-97729788D01*
X179280109Y-97729786D01*
X179405048Y-97557820D01*
X179405047Y-97557820D01*
X179405051Y-97557816D01*
X179501557Y-97368412D01*
X179567246Y-97166243D01*
X179600500Y-96956287D01*
X179600500Y-96743713D01*
X179567246Y-96533757D01*
X179501557Y-96331588D01*
X179405051Y-96142184D01*
X179405049Y-96142181D01*
X179405048Y-96142179D01*
X179280109Y-95970213D01*
X179129786Y-95819890D01*
X178957820Y-95694951D01*
X178768414Y-95598444D01*
X178768413Y-95598443D01*
X178768412Y-95598443D01*
X178566243Y-95532754D01*
X178566241Y-95532753D01*
X178566240Y-95532753D01*
X178404957Y-95507208D01*
X178356287Y-95499500D01*
X178143713Y-95499500D01*
X178095042Y-95507208D01*
X177933760Y-95532753D01*
X177731585Y-95598444D01*
X177542179Y-95694951D01*
X177366266Y-95822759D01*
X177365635Y-95821891D01*
X177306581Y-95848359D01*
X177289800Y-95849500D01*
X175913733Y-95849500D01*
X175846694Y-95829815D01*
X175800939Y-95777011D01*
X175796028Y-95764506D01*
X175789897Y-95746006D01*
X175784814Y-95730666D01*
X175692712Y-95581344D01*
X175568656Y-95457288D01*
X175475888Y-95400069D01*
X175419336Y-95365187D01*
X175419331Y-95365185D01*
X175417862Y-95364698D01*
X175252797Y-95310001D01*
X175252795Y-95310000D01*
X175150010Y-95299500D01*
X174349998Y-95299500D01*
X174349980Y-95299501D01*
X174247203Y-95310000D01*
X174247200Y-95310001D01*
X174080668Y-95365185D01*
X174080663Y-95365187D01*
X173931342Y-95457289D01*
X173837681Y-95550951D01*
X173776358Y-95584436D01*
X173706666Y-95579452D01*
X173662319Y-95550951D01*
X173568657Y-95457289D01*
X173568656Y-95457288D01*
X173475888Y-95400069D01*
X173419336Y-95365187D01*
X173419331Y-95365185D01*
X173417862Y-95364698D01*
X173252797Y-95310001D01*
X173252795Y-95310000D01*
X173150010Y-95299500D01*
X172349998Y-95299500D01*
X172349980Y-95299501D01*
X172247203Y-95310000D01*
X172247200Y-95310001D01*
X172080668Y-95365185D01*
X172080663Y-95365187D01*
X171931342Y-95457289D01*
X171807289Y-95581342D01*
X171715187Y-95730663D01*
X171715184Y-95730671D01*
X171703972Y-95764506D01*
X171664199Y-95821950D01*
X171599683Y-95848772D01*
X171586267Y-95849500D01*
X164279591Y-95849500D01*
X164212552Y-95829815D01*
X164166797Y-95777011D01*
X164156853Y-95707853D01*
X164161885Y-95686496D01*
X164214505Y-95527697D01*
X164214506Y-95527690D01*
X164224999Y-95424986D01*
X164225000Y-95424973D01*
X164225000Y-95287500D01*
X161775001Y-95287500D01*
X161775001Y-95424986D01*
X161785494Y-95527697D01*
X161840641Y-95694119D01*
X161840643Y-95694124D01*
X161932684Y-95843345D01*
X162056654Y-95967315D01*
X162205267Y-96058981D01*
X162251992Y-96110929D01*
X162263213Y-96179892D01*
X162235370Y-96243974D01*
X162227851Y-96252201D01*
X160516873Y-97963181D01*
X160455550Y-97996666D01*
X160429192Y-97999500D01*
X160301457Y-97999500D01*
X160108170Y-98037947D01*
X160108160Y-98037950D01*
X159926092Y-98113364D01*
X159926079Y-98113371D01*
X159762218Y-98222860D01*
X159762214Y-98222863D01*
X159622863Y-98362214D01*
X159622860Y-98362218D01*
X159513371Y-98526079D01*
X159513364Y-98526092D01*
X159437950Y-98708160D01*
X159437947Y-98708170D01*
X159399500Y-98901456D01*
X159399500Y-98901459D01*
X159399500Y-99098541D01*
X159399500Y-99098543D01*
X159399499Y-99098543D01*
X159437947Y-99291829D01*
X159437950Y-99291839D01*
X159513364Y-99473907D01*
X159513371Y-99473920D01*
X159575450Y-99566827D01*
X159596328Y-99633505D01*
X159577843Y-99700885D01*
X159525865Y-99747575D01*
X159496540Y-99757335D01*
X159410261Y-99774497D01*
X159410255Y-99774499D01*
X159291874Y-99823534D01*
X159185326Y-99894726D01*
X159185325Y-99894727D01*
X157016873Y-102063181D01*
X156955550Y-102096666D01*
X156929192Y-102099500D01*
X155315783Y-102099500D01*
X155248744Y-102079815D01*
X155228106Y-102063185D01*
X155137782Y-101972861D01*
X155137781Y-101972860D01*
X155137780Y-101972859D01*
X154973920Y-101863371D01*
X154973907Y-101863364D01*
X154791839Y-101787950D01*
X154791829Y-101787947D01*
X154598543Y-101749500D01*
X154598541Y-101749500D01*
X154401459Y-101749500D01*
X154401457Y-101749500D01*
X154208170Y-101787947D01*
X154208160Y-101787950D01*
X154026092Y-101863364D01*
X154026079Y-101863371D01*
X153862218Y-101972860D01*
X153862214Y-101972863D01*
X153722863Y-102112214D01*
X153722860Y-102112218D01*
X153613371Y-102276079D01*
X153613364Y-102276092D01*
X153537950Y-102458160D01*
X153537947Y-102458170D01*
X153499500Y-102651456D01*
X153499500Y-102651459D01*
X153499500Y-102848541D01*
X153499500Y-102848543D01*
X153499499Y-102848543D01*
X153537947Y-103041829D01*
X153537950Y-103041839D01*
X153613364Y-103223907D01*
X153613371Y-103223920D01*
X153722860Y-103387781D01*
X153722863Y-103387785D01*
X153862214Y-103527136D01*
X153862218Y-103527139D01*
X154026079Y-103636628D01*
X154026092Y-103636635D01*
X154172970Y-103697473D01*
X154208165Y-103712051D01*
X154208169Y-103712051D01*
X154208170Y-103712052D01*
X154401456Y-103750500D01*
X154401459Y-103750500D01*
X154598543Y-103750500D01*
X154750943Y-103720185D01*
X154791835Y-103712051D01*
X154973914Y-103636632D01*
X155137782Y-103527139D01*
X155228103Y-103436817D01*
X155289424Y-103403334D01*
X155315783Y-103400500D01*
X157314071Y-103400500D01*
X157398615Y-103383682D01*
X157439744Y-103375501D01*
X157558127Y-103326465D01*
X157664669Y-103255277D01*
X159507086Y-101412859D01*
X159568407Y-101379376D01*
X159638098Y-101384360D01*
X159694032Y-101426232D01*
X159718449Y-101491696D01*
X159705250Y-101556836D01*
X159635772Y-101693193D01*
X159565216Y-101910339D01*
X159529501Y-102135837D01*
X159529501Y-102304927D01*
X159509816Y-102371966D01*
X159493182Y-102392608D01*
X157511700Y-104374089D01*
X157511697Y-104374093D01*
X157407680Y-104529765D01*
X157407673Y-104529778D01*
X157391618Y-104568541D01*
X157349513Y-104670194D01*
X157341415Y-104689744D01*
X157339277Y-104694903D01*
X157336026Y-104702751D01*
X157336025Y-104702756D01*
X157299848Y-104884636D01*
X157299841Y-104884675D01*
X157299500Y-104886386D01*
X157299500Y-112304927D01*
X157279815Y-112371966D01*
X157263181Y-112392608D01*
X156451696Y-113204092D01*
X156390373Y-113237577D01*
X156320681Y-113232593D01*
X156265638Y-113191895D01*
X156255658Y-113178889D01*
X156255656Y-113178887D01*
X156255653Y-113178883D01*
X156070335Y-112993565D01*
X156070328Y-112993559D01*
X155862406Y-112834015D01*
X155862404Y-112834013D01*
X155862398Y-112834009D01*
X155862393Y-112834006D01*
X155862390Y-112834004D01*
X155635427Y-112702966D01*
X155635416Y-112702961D01*
X155393282Y-112602666D01*
X155140112Y-112534829D01*
X154880274Y-112500621D01*
X154880271Y-112500620D01*
X154880265Y-112500620D01*
X154748353Y-112500620D01*
X154681314Y-112480935D01*
X154635559Y-112428131D01*
X154625615Y-112358973D01*
X154654640Y-112295417D01*
X154686353Y-112269233D01*
X154812698Y-112196287D01*
X154861639Y-112168031D01*
X155069571Y-112008479D01*
X155254899Y-111823151D01*
X155414451Y-111615219D01*
X155545497Y-111388241D01*
X155645795Y-111146099D01*
X155713630Y-110892937D01*
X155747840Y-110633086D01*
X155747840Y-110370994D01*
X155713630Y-110111143D01*
X155645795Y-109857981D01*
X155545497Y-109615839D01*
X155545495Y-109615836D01*
X155545493Y-109615831D01*
X155414455Y-109388868D01*
X155414454Y-109388867D01*
X155414451Y-109388861D01*
X155295438Y-109233760D01*
X155254900Y-109180930D01*
X155254894Y-109180923D01*
X155069576Y-108995605D01*
X155069569Y-108995599D01*
X154861647Y-108836055D01*
X154861645Y-108836054D01*
X154861639Y-108836049D01*
X154760959Y-108777921D01*
X154712744Y-108727353D01*
X154698960Y-108670534D01*
X154698960Y-106904843D01*
X154698959Y-106904839D01*
X154676473Y-106791794D01*
X154662433Y-106721209D01*
X154634894Y-106654724D01*
X154623413Y-106627005D01*
X154590786Y-106548236D01*
X154590779Y-106548223D01*
X154486762Y-106392552D01*
X154486759Y-106392548D01*
X150605911Y-102511700D01*
X150605907Y-102511697D01*
X150450236Y-102407680D01*
X150450227Y-102407675D01*
X150348903Y-102365706D01*
X150348901Y-102365705D01*
X150277251Y-102336027D01*
X150277247Y-102336026D01*
X150277243Y-102336024D01*
X150185433Y-102317763D01*
X150093620Y-102299500D01*
X150093617Y-102299500D01*
X150093616Y-102299500D01*
X147945072Y-102299500D01*
X147878033Y-102279815D01*
X147857391Y-102263181D01*
X145105911Y-99511700D01*
X145105907Y-99511697D01*
X144950236Y-99407680D01*
X144950224Y-99407673D01*
X144852016Y-99366995D01*
X144852009Y-99366993D01*
X144845341Y-99364231D01*
X144777251Y-99336027D01*
X144666860Y-99314069D01*
X144661991Y-99313100D01*
X144661986Y-99313099D01*
X144593619Y-99299500D01*
X144593617Y-99299500D01*
X144593616Y-99299500D01*
X142445072Y-99299500D01*
X142378033Y-99279815D01*
X142357391Y-99263181D01*
X141849465Y-98755255D01*
X141815980Y-98693932D01*
X141820964Y-98624240D01*
X141826657Y-98611289D01*
X141844231Y-98576799D01*
X141914784Y-98359660D01*
X141919269Y-98331342D01*
X141950500Y-98134162D01*
X141950500Y-97991150D01*
X141970185Y-97924111D01*
X141993458Y-97903945D01*
X146779500Y-97903945D01*
X146779500Y-98096055D01*
X146782242Y-98113368D01*
X146809553Y-98285802D01*
X146868916Y-98468506D01*
X146934379Y-98596983D01*
X146956135Y-98639681D01*
X147069055Y-98795102D01*
X147204898Y-98930945D01*
X147360319Y-99043865D01*
X147467626Y-99098541D01*
X147531493Y-99131083D01*
X147594196Y-99151456D01*
X147714199Y-99190447D01*
X147903945Y-99220500D01*
X147903946Y-99220500D01*
X148096042Y-99220500D01*
X148096055Y-99220500D01*
X148096067Y-99220497D01*
X148097526Y-99220383D01*
X148098083Y-99220500D01*
X148100927Y-99220500D01*
X148100927Y-99221097D01*
X148165905Y-99234739D01*
X148194951Y-99256319D01*
X149283680Y-100345047D01*
X149317165Y-100406370D01*
X149319387Y-100439073D01*
X149319500Y-100439073D01*
X149319500Y-100440728D01*
X149319617Y-100442450D01*
X149319500Y-100443937D01*
X149319500Y-100443945D01*
X149319500Y-100636055D01*
X149322452Y-100654692D01*
X149349553Y-100825802D01*
X149408916Y-101008506D01*
X149493334Y-101174184D01*
X149496135Y-101179681D01*
X149609055Y-101335102D01*
X149744898Y-101470945D01*
X149900319Y-101583865D01*
X150017596Y-101643621D01*
X150071493Y-101671083D01*
X150162845Y-101700764D01*
X150254199Y-101730447D01*
X150443945Y-101760500D01*
X150443946Y-101760500D01*
X150636054Y-101760500D01*
X150636055Y-101760500D01*
X150825801Y-101730447D01*
X151008509Y-101671082D01*
X151179681Y-101583865D01*
X151335102Y-101470945D01*
X151470945Y-101335102D01*
X151470949Y-101335097D01*
X151471923Y-101333958D01*
X151472400Y-101333646D01*
X151474390Y-101331657D01*
X151474808Y-101332075D01*
X151530434Y-101295771D01*
X151566204Y-101290500D01*
X155133920Y-101290500D01*
X155264595Y-101264506D01*
X155278913Y-101261658D01*
X155415495Y-101205084D01*
X155482039Y-101160621D01*
X155482042Y-101160618D01*
X155482044Y-101160618D01*
X155518126Y-101136509D01*
X155538416Y-101122952D01*
X157941809Y-98719556D01*
X158003130Y-98686073D01*
X158058084Y-98686581D01*
X158182990Y-98716186D01*
X158182993Y-98716186D01*
X158358429Y-98716186D01*
X158358432Y-98716186D01*
X158450829Y-98694286D01*
X158529141Y-98675726D01*
X158529142Y-98675725D01*
X158529144Y-98675725D01*
X158685925Y-98596988D01*
X158766033Y-98531731D01*
X159331729Y-97966033D01*
X159396988Y-97885925D01*
X159475725Y-97729144D01*
X159479316Y-97713996D01*
X159505041Y-97605453D01*
X159516186Y-97558432D01*
X159516186Y-97425472D01*
X159535871Y-97358433D01*
X159588675Y-97312678D01*
X159640186Y-97301472D01*
X159772585Y-97301472D01*
X159943186Y-97261038D01*
X160099864Y-97182352D01*
X160179908Y-97117146D01*
X160179926Y-97117130D01*
X160285964Y-97011090D01*
X160285964Y-97011089D01*
X159437437Y-96162563D01*
X159260658Y-95985784D01*
X159967767Y-95985784D01*
X159967767Y-95985785D01*
X160639517Y-96657536D01*
X160639518Y-96657536D01*
X160745566Y-96551488D01*
X160745575Y-96551478D01*
X160810776Y-96471441D01*
X160810780Y-96471435D01*
X160889466Y-96314758D01*
X160929900Y-96144157D01*
X160929900Y-95968836D01*
X160889466Y-95798235D01*
X160810780Y-95641557D01*
X160745581Y-95561520D01*
X160745568Y-95561505D01*
X160568807Y-95384745D01*
X160568806Y-95384745D01*
X159967767Y-95985784D01*
X159260658Y-95985784D01*
X158588909Y-95314035D01*
X158482857Y-95420088D01*
X158482847Y-95420099D01*
X158417651Y-95500130D01*
X158417647Y-95500136D01*
X158338961Y-95656813D01*
X158298528Y-95827414D01*
X158298528Y-95959814D01*
X158278843Y-96026853D01*
X158226039Y-96072608D01*
X158174528Y-96083814D01*
X158041568Y-96083814D01*
X158041566Y-96083814D01*
X158041560Y-96083815D01*
X157870858Y-96124273D01*
X157765394Y-96177238D01*
X157714075Y-96203012D01*
X157714073Y-96203013D01*
X157714068Y-96203016D01*
X157633978Y-96268259D01*
X157633960Y-96268275D01*
X157068278Y-96833959D01*
X157068267Y-96833971D01*
X157003014Y-96914072D01*
X157003013Y-96914073D01*
X156924273Y-97070858D01*
X156883815Y-97241560D01*
X156883814Y-97241571D01*
X156883814Y-97417011D01*
X156913417Y-97541914D01*
X156909723Y-97611686D01*
X156880440Y-97658191D01*
X154785451Y-99753181D01*
X154724128Y-99786666D01*
X154697770Y-99789500D01*
X151566204Y-99789500D01*
X151499165Y-99769815D01*
X151474469Y-99748263D01*
X151474390Y-99748343D01*
X151473226Y-99747179D01*
X151471923Y-99746042D01*
X151470949Y-99744902D01*
X151335104Y-99609057D01*
X151335102Y-99609055D01*
X151179681Y-99496135D01*
X151136070Y-99473914D01*
X151008506Y-99408916D01*
X150825802Y-99349553D01*
X150690504Y-99328124D01*
X150636055Y-99319500D01*
X150443945Y-99319500D01*
X150443938Y-99319500D01*
X150442450Y-99319617D01*
X150441893Y-99319500D01*
X150439073Y-99319500D01*
X150439073Y-99318907D01*
X150374073Y-99305249D01*
X150345047Y-99283680D01*
X149256319Y-98194951D01*
X149222834Y-98133628D01*
X149220614Y-98100927D01*
X149220500Y-98100927D01*
X149220500Y-98099249D01*
X149220383Y-98097526D01*
X149220497Y-98096068D01*
X149220500Y-98096055D01*
X149220500Y-97903945D01*
X149190447Y-97714199D01*
X149157139Y-97611686D01*
X149131083Y-97531493D01*
X149114779Y-97499494D01*
X149043865Y-97360319D01*
X148930945Y-97204898D01*
X148795102Y-97069055D01*
X148639681Y-96956135D01*
X148612273Y-96942170D01*
X148468506Y-96868916D01*
X148285802Y-96809553D01*
X148150504Y-96788124D01*
X148096055Y-96779500D01*
X147903945Y-96779500D01*
X147849496Y-96788124D01*
X147714197Y-96809553D01*
X147531493Y-96868916D01*
X147360318Y-96956135D01*
X147300757Y-96999409D01*
X147204898Y-97069055D01*
X147204896Y-97069057D01*
X147204895Y-97069057D01*
X147069057Y-97204895D01*
X147069057Y-97204896D01*
X147069055Y-97204898D01*
X147022238Y-97269336D01*
X146956135Y-97360318D01*
X146868916Y-97531493D01*
X146809553Y-97714197D01*
X146783553Y-97878356D01*
X146779500Y-97903945D01*
X141993458Y-97903945D01*
X142022989Y-97878356D01*
X142036183Y-97873219D01*
X142039407Y-97872171D01*
X142039409Y-97872171D01*
X142211639Y-97816211D01*
X142228949Y-97807391D01*
X142265852Y-97788588D01*
X142271263Y-97785830D01*
X142372994Y-97733996D01*
X142519501Y-97627553D01*
X142647553Y-97499501D01*
X142753996Y-97352994D01*
X142836211Y-97191639D01*
X142892171Y-97019409D01*
X142908927Y-96913616D01*
X142920500Y-96840551D01*
X142920500Y-96659448D01*
X142900592Y-96533760D01*
X142892171Y-96480591D01*
X142860170Y-96382101D01*
X142836212Y-96308363D01*
X142836211Y-96308360D01*
X142803404Y-96243974D01*
X142753996Y-96147006D01*
X142727785Y-96110929D01*
X142647558Y-96000505D01*
X142647554Y-96000500D01*
X142519499Y-95872445D01*
X142519494Y-95872441D01*
X142372997Y-95766006D01*
X142372996Y-95766005D01*
X142372994Y-95766004D01*
X142301259Y-95729453D01*
X142211639Y-95683788D01*
X142211636Y-95683787D01*
X142039410Y-95627829D01*
X141860551Y-95599500D01*
X141860546Y-95599500D01*
X141679454Y-95599500D01*
X141679449Y-95599500D01*
X141500589Y-95627829D01*
X141328363Y-95683787D01*
X141328360Y-95683788D01*
X141264192Y-95716485D01*
X141207897Y-95730000D01*
X140780330Y-95730000D01*
X140800075Y-95710255D01*
X140849444Y-95624745D01*
X140875000Y-95529370D01*
X140875000Y-95430630D01*
X140849444Y-95335255D01*
X140800075Y-95249745D01*
X140780330Y-95230000D01*
X141650000Y-95230000D01*
X141650000Y-94782172D01*
X141649999Y-94782155D01*
X141643598Y-94722627D01*
X141643596Y-94722620D01*
X141593354Y-94587913D01*
X141593350Y-94587906D01*
X141507190Y-94472812D01*
X141507187Y-94472809D01*
X141392093Y-94386649D01*
X141392086Y-94386645D01*
X141257379Y-94336403D01*
X141257372Y-94336401D01*
X141197844Y-94330000D01*
X140750000Y-94330000D01*
X140750000Y-95199670D01*
X140730255Y-95179925D01*
X140644745Y-95130556D01*
X140549370Y-95105000D01*
X140450630Y-95105000D01*
X140355255Y-95130556D01*
X140269745Y-95179925D01*
X140250000Y-95199670D01*
X140250000Y-94330000D01*
X139802155Y-94330000D01*
X139742627Y-94336401D01*
X139742620Y-94336403D01*
X139607913Y-94386645D01*
X139607906Y-94386649D01*
X139492812Y-94472809D01*
X139492809Y-94472812D01*
X139406649Y-94587906D01*
X139406645Y-94587913D01*
X139356403Y-94722620D01*
X139356401Y-94722627D01*
X139350000Y-94782155D01*
X139350000Y-95230000D01*
X140219670Y-95230000D01*
X140199925Y-95249745D01*
X140150556Y-95335255D01*
X140125000Y-95430630D01*
X140125000Y-95529370D01*
X140150556Y-95624745D01*
X140199925Y-95710255D01*
X140219670Y-95730000D01*
X139350000Y-95730000D01*
X139350000Y-96177844D01*
X139356401Y-96237372D01*
X139356403Y-96237379D01*
X139406645Y-96372086D01*
X139406649Y-96372093D01*
X139492809Y-96487187D01*
X139492812Y-96487190D01*
X139607906Y-96573350D01*
X139607913Y-96573354D01*
X139666026Y-96595029D01*
X139721960Y-96636900D01*
X139746377Y-96702365D01*
X139731525Y-96770638D01*
X139695579Y-96811528D01*
X139555069Y-96913616D01*
X139555060Y-96913623D01*
X139393622Y-97075061D01*
X139259421Y-97259771D01*
X139155770Y-97463196D01*
X139085215Y-97680339D01*
X139049500Y-97905837D01*
X139049500Y-98134162D01*
X139085215Y-98359660D01*
X139155770Y-98576803D01*
X139257305Y-98776076D01*
X139259421Y-98780228D01*
X139393621Y-98964937D01*
X139555063Y-99126379D01*
X139640676Y-99188581D01*
X139670891Y-99220007D01*
X139761697Y-99355907D01*
X139761700Y-99355911D01*
X140542418Y-100136628D01*
X141261698Y-100855908D01*
X141363078Y-100957288D01*
X141368609Y-100962819D01*
X141402093Y-101024142D01*
X141397109Y-101093834D01*
X141355237Y-101149767D01*
X141289772Y-101174184D01*
X141280927Y-101174500D01*
X139070072Y-101174500D01*
X139003033Y-101154815D01*
X138982391Y-101138181D01*
X136212068Y-98367858D01*
X136178583Y-98306535D01*
X136177276Y-98260784D01*
X136200500Y-98114157D01*
X136200500Y-97971150D01*
X136220185Y-97904111D01*
X136272989Y-97858356D01*
X136286183Y-97853219D01*
X136289407Y-97852171D01*
X136289409Y-97852171D01*
X136461639Y-97796211D01*
X136622994Y-97713996D01*
X136769501Y-97607553D01*
X136897553Y-97479501D01*
X137003996Y-97332994D01*
X137086211Y-97171639D01*
X137142171Y-96999409D01*
X137162839Y-96868916D01*
X137170500Y-96820551D01*
X137170500Y-96639448D01*
X137153670Y-96533195D01*
X137142171Y-96460591D01*
X137113414Y-96372086D01*
X137086212Y-96288363D01*
X137086211Y-96288360D01*
X137057740Y-96232484D01*
X137003996Y-96127006D01*
X136971887Y-96082811D01*
X136897558Y-95980505D01*
X136897554Y-95980500D01*
X136769499Y-95852445D01*
X136769494Y-95852441D01*
X136622997Y-95746006D01*
X136622996Y-95746005D01*
X136622994Y-95746004D01*
X136548119Y-95707853D01*
X136461639Y-95663788D01*
X136461636Y-95663787D01*
X136289410Y-95607829D01*
X136110551Y-95579500D01*
X136110546Y-95579500D01*
X135929454Y-95579500D01*
X135929449Y-95579500D01*
X135750589Y-95607829D01*
X135578363Y-95663787D01*
X135578360Y-95663788D01*
X135514192Y-95696485D01*
X135457897Y-95710000D01*
X135030330Y-95710000D01*
X135050075Y-95690255D01*
X135099444Y-95604745D01*
X135125000Y-95509370D01*
X135125000Y-95410630D01*
X135099444Y-95315255D01*
X135050075Y-95229745D01*
X135030330Y-95210000D01*
X135900000Y-95210000D01*
X135900000Y-94762172D01*
X135899999Y-94762155D01*
X135893598Y-94702627D01*
X135893596Y-94702620D01*
X135843354Y-94567913D01*
X135843350Y-94567906D01*
X135757190Y-94452812D01*
X135757187Y-94452809D01*
X135642093Y-94366649D01*
X135642086Y-94366645D01*
X135507379Y-94316403D01*
X135507372Y-94316401D01*
X135447844Y-94310000D01*
X135000000Y-94310000D01*
X135000000Y-95179670D01*
X134980255Y-95159925D01*
X134894745Y-95110556D01*
X134799370Y-95085000D01*
X134700630Y-95085000D01*
X134605255Y-95110556D01*
X134519745Y-95159925D01*
X134500000Y-95179670D01*
X134500000Y-94310000D01*
X134052155Y-94310000D01*
X133992627Y-94316401D01*
X133992620Y-94316403D01*
X133857913Y-94366645D01*
X133857906Y-94366649D01*
X133742812Y-94452809D01*
X133742809Y-94452812D01*
X133656649Y-94567906D01*
X133656645Y-94567913D01*
X133606403Y-94702620D01*
X133606401Y-94702627D01*
X133600000Y-94762155D01*
X133600000Y-95210000D01*
X134469670Y-95210000D01*
X134449925Y-95229745D01*
X134400556Y-95315255D01*
X134375000Y-95410630D01*
X134375000Y-95509370D01*
X134400556Y-95604745D01*
X134449925Y-95690255D01*
X134469670Y-95710000D01*
X133600000Y-95710000D01*
X133600000Y-96157844D01*
X133606401Y-96217372D01*
X133606403Y-96217379D01*
X133656645Y-96352086D01*
X133656649Y-96352093D01*
X133742809Y-96467187D01*
X133742812Y-96467190D01*
X133857906Y-96553350D01*
X133857913Y-96553354D01*
X133916026Y-96575029D01*
X133971960Y-96616900D01*
X133996377Y-96682365D01*
X133981525Y-96750638D01*
X133945579Y-96791528D01*
X133805069Y-96893616D01*
X133805060Y-96893623D01*
X133643622Y-97055061D01*
X133509421Y-97239771D01*
X133405770Y-97443196D01*
X133335215Y-97660339D01*
X133299500Y-97885837D01*
X133299500Y-98114162D01*
X133335215Y-98339660D01*
X133405770Y-98556803D01*
X133506887Y-98755255D01*
X133509421Y-98760228D01*
X133643621Y-98944937D01*
X133805063Y-99106379D01*
X133989772Y-99240579D01*
X134085884Y-99289550D01*
X134193196Y-99344229D01*
X134193198Y-99344229D01*
X134193201Y-99344231D01*
X134309592Y-99382049D01*
X134410339Y-99414784D01*
X134477825Y-99425472D01*
X134560933Y-99438635D01*
X134624068Y-99468564D01*
X134629217Y-99473427D01*
X137619599Y-102463809D01*
X137653084Y-102525132D01*
X137648100Y-102594824D01*
X137606228Y-102650757D01*
X137540764Y-102675174D01*
X137531918Y-102675490D01*
X136571062Y-102675490D01*
X136504023Y-102655805D01*
X136483381Y-102639171D01*
X131636342Y-97792132D01*
X131602857Y-97730809D01*
X131607841Y-97661117D01*
X131613536Y-97648161D01*
X131614231Y-97646798D01*
X131684784Y-97429659D01*
X131694485Y-97368412D01*
X131720500Y-97204161D01*
X131720500Y-96975836D01*
X131684784Y-96750338D01*
X131641427Y-96616900D01*
X131614231Y-96533200D01*
X131614229Y-96533197D01*
X131614229Y-96533195D01*
X131558078Y-96422993D01*
X131510579Y-96329771D01*
X131376379Y-96145062D01*
X131214937Y-95983620D01*
X131030228Y-95849420D01*
X130976315Y-95821950D01*
X130826803Y-95745769D01*
X130609660Y-95675214D01*
X130384162Y-95639499D01*
X130384157Y-95639499D01*
X130241151Y-95639499D01*
X130174112Y-95619814D01*
X130128357Y-95567010D01*
X130123220Y-95553817D01*
X130066212Y-95378362D01*
X130066211Y-95378359D01*
X130034057Y-95315255D01*
X129983996Y-95217005D01*
X129942525Y-95159925D01*
X129877558Y-95070504D01*
X129877554Y-95070499D01*
X129749499Y-94942444D01*
X129749494Y-94942440D01*
X129634881Y-94859169D01*
X129602996Y-94836004D01*
X129441639Y-94753787D01*
X129441636Y-94753786D01*
X129269410Y-94697828D01*
X129090551Y-94669499D01*
X129090546Y-94669499D01*
X128909454Y-94669499D01*
X128909449Y-94669499D01*
X128730589Y-94697828D01*
X128558363Y-94753786D01*
X128558360Y-94753787D01*
X128397002Y-94836005D01*
X128250505Y-94942440D01*
X128250500Y-94942444D01*
X128122445Y-95070499D01*
X128122441Y-95070504D01*
X128016006Y-95217001D01*
X127933788Y-95378359D01*
X127933787Y-95378362D01*
X127877829Y-95550588D01*
X127849500Y-95729447D01*
X127849500Y-95910550D01*
X127877829Y-96089409D01*
X127933787Y-96261635D01*
X127933790Y-96261642D01*
X127966484Y-96325805D01*
X127980000Y-96382101D01*
X127980000Y-96809669D01*
X127960255Y-96789924D01*
X127874745Y-96740555D01*
X127779370Y-96714999D01*
X127680630Y-96714999D01*
X127585255Y-96740555D01*
X127499745Y-96789924D01*
X127480000Y-96809669D01*
X127480000Y-95939999D01*
X127032155Y-95939999D01*
X126972627Y-95946400D01*
X126972620Y-95946402D01*
X126837913Y-95996644D01*
X126837906Y-95996648D01*
X126722812Y-96082808D01*
X126722809Y-96082811D01*
X126636649Y-96197905D01*
X126636645Y-96197912D01*
X126586403Y-96332619D01*
X126586401Y-96332626D01*
X126580000Y-96392154D01*
X126580000Y-96839999D01*
X127449670Y-96839999D01*
X127429925Y-96859744D01*
X127380556Y-96945254D01*
X127355000Y-97040629D01*
X127355000Y-97139369D01*
X127380556Y-97234744D01*
X127429925Y-97320254D01*
X127449670Y-97339999D01*
X126580000Y-97339999D01*
X126580000Y-97787843D01*
X126586401Y-97847371D01*
X126586403Y-97847378D01*
X126636645Y-97982085D01*
X126636649Y-97982092D01*
X126722809Y-98097186D01*
X126722812Y-98097189D01*
X126837906Y-98183349D01*
X126837913Y-98183353D01*
X126972620Y-98233595D01*
X126972627Y-98233597D01*
X127032155Y-98239998D01*
X127032172Y-98239999D01*
X127480000Y-98239999D01*
X127480000Y-97370329D01*
X127499745Y-97390074D01*
X127585255Y-97439443D01*
X127680630Y-97464999D01*
X127779370Y-97464999D01*
X127874745Y-97439443D01*
X127960255Y-97390074D01*
X127980000Y-97370329D01*
X127980000Y-98239999D01*
X128427828Y-98239999D01*
X128427844Y-98239998D01*
X128487372Y-98233597D01*
X128487379Y-98233595D01*
X128622086Y-98183353D01*
X128622093Y-98183349D01*
X128737187Y-98097189D01*
X128737190Y-98097186D01*
X128823350Y-97982092D01*
X128823354Y-97982085D01*
X128845029Y-97923972D01*
X128886900Y-97868038D01*
X128952364Y-97843621D01*
X129020637Y-97858472D01*
X129061527Y-97894418D01*
X129163621Y-98034936D01*
X129325063Y-98196378D01*
X129475607Y-98305755D01*
X129505820Y-98337179D01*
X129507478Y-98339660D01*
X129531699Y-98375910D01*
X129531700Y-98375911D01*
X135387688Y-104231898D01*
X135455290Y-104299500D01*
X135520083Y-104364293D01*
X135675752Y-104468308D01*
X135675758Y-104468311D01*
X135675759Y-104468312D01*
X135848739Y-104539963D01*
X135878242Y-104545831D01*
X135918717Y-104553883D01*
X135980628Y-104586268D01*
X136015202Y-104646983D01*
X136011463Y-104716753D01*
X135970596Y-104773425D01*
X135905578Y-104799006D01*
X135894526Y-104799500D01*
X135195072Y-104799500D01*
X135128033Y-104779815D01*
X135107391Y-104763181D01*
X132355911Y-102011700D01*
X132355907Y-102011697D01*
X132200236Y-101907680D01*
X132200223Y-101907673D01*
X132076441Y-101856402D01*
X132076438Y-101856401D01*
X132069142Y-101853379D01*
X132027251Y-101836027D01*
X131935433Y-101817763D01*
X131931236Y-101816928D01*
X131931228Y-101816926D01*
X131843620Y-101799500D01*
X131843617Y-101799500D01*
X131843616Y-101799500D01*
X127692178Y-101799500D01*
X127625139Y-101779815D01*
X127604497Y-101763181D01*
X127484938Y-101643622D01*
X127402690Y-101583865D01*
X127300228Y-101509421D01*
X127250576Y-101484122D01*
X127096803Y-101405770D01*
X126879660Y-101335215D01*
X126654162Y-101299500D01*
X126654157Y-101299500D01*
X126511151Y-101299500D01*
X126444112Y-101279815D01*
X126398357Y-101227011D01*
X126393220Y-101213818D01*
X126336212Y-101038363D01*
X126336211Y-101038360D01*
X126294902Y-100957288D01*
X126253996Y-100877006D01*
X126216794Y-100825801D01*
X126147558Y-100730505D01*
X126147554Y-100730500D01*
X126019499Y-100602445D01*
X126019494Y-100602441D01*
X125872997Y-100496006D01*
X125872996Y-100496005D01*
X125872994Y-100496004D01*
X125821300Y-100469664D01*
X125711639Y-100413788D01*
X125711636Y-100413787D01*
X125539410Y-100357829D01*
X125360551Y-100329500D01*
X125360546Y-100329500D01*
X125179454Y-100329500D01*
X125179449Y-100329500D01*
X125000589Y-100357829D01*
X124828363Y-100413787D01*
X124828360Y-100413788D01*
X124667002Y-100496006D01*
X124520505Y-100602441D01*
X124520500Y-100602445D01*
X124392445Y-100730500D01*
X124392441Y-100730505D01*
X124286006Y-100877002D01*
X124203788Y-101038360D01*
X124203787Y-101038363D01*
X124147829Y-101210589D01*
X124119500Y-101389448D01*
X124119500Y-101570551D01*
X124147829Y-101749410D01*
X124203787Y-101921636D01*
X124203790Y-101921643D01*
X124236484Y-101985806D01*
X124250000Y-102042102D01*
X124250000Y-102469670D01*
X124230255Y-102449925D01*
X124144745Y-102400556D01*
X124049370Y-102375000D01*
X123950630Y-102375000D01*
X123855255Y-102400556D01*
X123769745Y-102449925D01*
X123750000Y-102469670D01*
X123750000Y-101600000D01*
X123302155Y-101600000D01*
X123242627Y-101606401D01*
X123242620Y-101606403D01*
X123107913Y-101656645D01*
X123107906Y-101656649D01*
X122992812Y-101742809D01*
X122992809Y-101742812D01*
X122906649Y-101857906D01*
X122906645Y-101857913D01*
X122856403Y-101992620D01*
X122856401Y-101992627D01*
X122850000Y-102052155D01*
X122850000Y-102500000D01*
X123719670Y-102500000D01*
X123699925Y-102519745D01*
X123650556Y-102605255D01*
X123625000Y-102700630D01*
X123625000Y-102799370D01*
X123650556Y-102894745D01*
X123699925Y-102980255D01*
X123719670Y-103000000D01*
X122850000Y-103000000D01*
X122850000Y-103447844D01*
X122856401Y-103507372D01*
X122856403Y-103507379D01*
X122906645Y-103642086D01*
X122906649Y-103642093D01*
X122992809Y-103757187D01*
X122992812Y-103757190D01*
X123107906Y-103843350D01*
X123107913Y-103843354D01*
X123242620Y-103893596D01*
X123242627Y-103893598D01*
X123302155Y-103899999D01*
X123302172Y-103900000D01*
X123750000Y-103900000D01*
X123750000Y-103030330D01*
X123769745Y-103050075D01*
X123855255Y-103099444D01*
X123950630Y-103125000D01*
X124049370Y-103125000D01*
X124144745Y-103099444D01*
X124230255Y-103050075D01*
X124250000Y-103030330D01*
X124250000Y-103900000D01*
X124697828Y-103900000D01*
X124697844Y-103899999D01*
X124757372Y-103893598D01*
X124757379Y-103893596D01*
X124892086Y-103843354D01*
X124892093Y-103843350D01*
X125007187Y-103757190D01*
X125007190Y-103757187D01*
X125093350Y-103642093D01*
X125093354Y-103642086D01*
X125115029Y-103583973D01*
X125156900Y-103528039D01*
X125222364Y-103503622D01*
X125290637Y-103518473D01*
X125331527Y-103554419D01*
X125433621Y-103694937D01*
X125595063Y-103856379D01*
X125779772Y-103990579D01*
X125875884Y-104039550D01*
X125983196Y-104094229D01*
X125983198Y-104094229D01*
X125983201Y-104094231D01*
X126099592Y-104132049D01*
X126200339Y-104164784D01*
X126425838Y-104200500D01*
X126425843Y-104200500D01*
X126654162Y-104200500D01*
X126879660Y-104164784D01*
X126913591Y-104153759D01*
X127096799Y-104094231D01*
X127300228Y-103990579D01*
X127484937Y-103856379D01*
X127604497Y-103736819D01*
X127665820Y-103703334D01*
X127692178Y-103700500D01*
X131304928Y-103700500D01*
X131371967Y-103720185D01*
X131392609Y-103736819D01*
X134144088Y-106488299D01*
X134144092Y-106488302D01*
X134299763Y-106592319D01*
X134299770Y-106592323D01*
X134383503Y-106627006D01*
X134472749Y-106663973D01*
X134656379Y-106700499D01*
X134656383Y-106700500D01*
X134656384Y-106700500D01*
X137804928Y-106700500D01*
X137871967Y-106720185D01*
X137892609Y-106736819D01*
X139284552Y-108128762D01*
X139318037Y-108190085D01*
X139316646Y-108248536D01*
X139286492Y-108361072D01*
X139286489Y-108361086D01*
X139252281Y-108620924D01*
X139252280Y-108620940D01*
X139252280Y-108881987D01*
X139232595Y-108949026D01*
X139179791Y-108994781D01*
X139110633Y-109004725D01*
X139052794Y-108980363D01*
X138864727Y-108836055D01*
X138864725Y-108836053D01*
X138864719Y-108836049D01*
X138864714Y-108836046D01*
X138864711Y-108836044D01*
X138637748Y-108705006D01*
X138637737Y-108705001D01*
X138395603Y-108604706D01*
X138218641Y-108557289D01*
X138142437Y-108536870D01*
X138142436Y-108536869D01*
X138142433Y-108536869D01*
X137882595Y-108502661D01*
X137882592Y-108502660D01*
X137882586Y-108502660D01*
X137620494Y-108502660D01*
X137620488Y-108502660D01*
X137620484Y-108502661D01*
X137360646Y-108536869D01*
X137107476Y-108604706D01*
X136865342Y-108705001D01*
X136865331Y-108705006D01*
X136638368Y-108836044D01*
X136638352Y-108836055D01*
X136430430Y-108995599D01*
X136430423Y-108995605D01*
X136245105Y-109180923D01*
X136245099Y-109180930D01*
X136085555Y-109388852D01*
X136085545Y-109388867D01*
X136028600Y-109487500D01*
X135978033Y-109535716D01*
X135921213Y-109549500D01*
X128985072Y-109549500D01*
X128918033Y-109529815D01*
X128897391Y-109513181D01*
X128026819Y-108642609D01*
X127993334Y-108581286D01*
X127990500Y-108554928D01*
X127990500Y-108385837D01*
X127954784Y-108160339D01*
X127916564Y-108042712D01*
X127884231Y-107943201D01*
X127884229Y-107943198D01*
X127884229Y-107943196D01*
X127824400Y-107825776D01*
X127780579Y-107739772D01*
X127646379Y-107555063D01*
X127484937Y-107393621D01*
X127300228Y-107259421D01*
X127228016Y-107222627D01*
X127096803Y-107155770D01*
X126879660Y-107085215D01*
X126654162Y-107049500D01*
X126654157Y-107049500D01*
X126511151Y-107049500D01*
X126444112Y-107029815D01*
X126398357Y-106977011D01*
X126393220Y-106963818D01*
X126336212Y-106788363D01*
X126336211Y-106788360D01*
X126301995Y-106721209D01*
X126253996Y-106627006D01*
X126240396Y-106608287D01*
X126147558Y-106480505D01*
X126147554Y-106480500D01*
X126019499Y-106352445D01*
X126019494Y-106352441D01*
X125872997Y-106246006D01*
X125872996Y-106246005D01*
X125872994Y-106246004D01*
X125821300Y-106219664D01*
X125711639Y-106163788D01*
X125711636Y-106163787D01*
X125539410Y-106107829D01*
X125360551Y-106079500D01*
X125360546Y-106079500D01*
X125179454Y-106079500D01*
X125179449Y-106079500D01*
X125000589Y-106107829D01*
X124828363Y-106163787D01*
X124828360Y-106163788D01*
X124667002Y-106246006D01*
X124520505Y-106352441D01*
X124520500Y-106352445D01*
X124392445Y-106480500D01*
X124392441Y-106480505D01*
X124286006Y-106627002D01*
X124203788Y-106788360D01*
X124203787Y-106788363D01*
X124147829Y-106960589D01*
X124119500Y-107139448D01*
X124119500Y-107320551D01*
X124147829Y-107499410D01*
X124203787Y-107671636D01*
X124203790Y-107671643D01*
X124236484Y-107735806D01*
X124250000Y-107792102D01*
X124250000Y-108219670D01*
X124230255Y-108199925D01*
X124144745Y-108150556D01*
X124049370Y-108125000D01*
X123950630Y-108125000D01*
X123855255Y-108150556D01*
X123769745Y-108199925D01*
X123750000Y-108219670D01*
X123750000Y-107350000D01*
X123302155Y-107350000D01*
X123242627Y-107356401D01*
X123242620Y-107356403D01*
X123107913Y-107406645D01*
X123107906Y-107406649D01*
X122992812Y-107492809D01*
X122992809Y-107492812D01*
X122906649Y-107607906D01*
X122906645Y-107607913D01*
X122856403Y-107742620D01*
X122856401Y-107742627D01*
X122850000Y-107802155D01*
X122850000Y-108250000D01*
X123719670Y-108250000D01*
X123699925Y-108269745D01*
X123650556Y-108355255D01*
X123625000Y-108450630D01*
X123625000Y-108549370D01*
X123650556Y-108644745D01*
X123699925Y-108730255D01*
X123719670Y-108750000D01*
X122850000Y-108750000D01*
X122850000Y-109197844D01*
X122856401Y-109257372D01*
X122856403Y-109257379D01*
X122906645Y-109392086D01*
X122906649Y-109392093D01*
X122992809Y-109507187D01*
X122992812Y-109507190D01*
X123107906Y-109593350D01*
X123107913Y-109593354D01*
X123242620Y-109643596D01*
X123242627Y-109643598D01*
X123302155Y-109649999D01*
X123302172Y-109650000D01*
X123750000Y-109650000D01*
X123750000Y-108780330D01*
X123769745Y-108800075D01*
X123855255Y-108849444D01*
X123950630Y-108875000D01*
X124049370Y-108875000D01*
X124144745Y-108849444D01*
X124230255Y-108800075D01*
X124250000Y-108780330D01*
X124250000Y-109650000D01*
X124697828Y-109650000D01*
X124697844Y-109649999D01*
X124757372Y-109643598D01*
X124757379Y-109643596D01*
X124892086Y-109593354D01*
X124892093Y-109593350D01*
X125007187Y-109507190D01*
X125007190Y-109507187D01*
X125093350Y-109392093D01*
X125093354Y-109392086D01*
X125115029Y-109333973D01*
X125156900Y-109278039D01*
X125222364Y-109253622D01*
X125290637Y-109268473D01*
X125331527Y-109304419D01*
X125433621Y-109444937D01*
X125595063Y-109606379D01*
X125779772Y-109740579D01*
X125875884Y-109789550D01*
X125983196Y-109844229D01*
X125983198Y-109844229D01*
X125983201Y-109844231D01*
X126050947Y-109866243D01*
X126200339Y-109914784D01*
X126425838Y-109950500D01*
X126425843Y-109950500D01*
X126594928Y-109950500D01*
X126661967Y-109970185D01*
X126682609Y-109986819D01*
X127801698Y-111105908D01*
X127905998Y-111210208D01*
X127934093Y-111238303D01*
X128089762Y-111342318D01*
X128089768Y-111342321D01*
X128089769Y-111342322D01*
X128262749Y-111413973D01*
X128346671Y-111430666D01*
X128371599Y-111435624D01*
X128446380Y-111450500D01*
X128446383Y-111450500D01*
X128446384Y-111450500D01*
X135918857Y-111450500D01*
X135985896Y-111470185D01*
X136026243Y-111512499D01*
X136085549Y-111615219D01*
X136085554Y-111615225D01*
X136085555Y-111615227D01*
X136245099Y-111823149D01*
X136245105Y-111823156D01*
X136430423Y-112008474D01*
X136430430Y-112008480D01*
X136578499Y-112122097D01*
X136638361Y-112168031D01*
X136638368Y-112168035D01*
X136813647Y-112269233D01*
X136861863Y-112319800D01*
X136875085Y-112388407D01*
X136849117Y-112453272D01*
X136792203Y-112493800D01*
X136751647Y-112500620D01*
X136619735Y-112500620D01*
X136619729Y-112500620D01*
X136619725Y-112500621D01*
X136359887Y-112534829D01*
X136106717Y-112602666D01*
X135864583Y-112702961D01*
X135864572Y-112702966D01*
X135637609Y-112834004D01*
X135637593Y-112834015D01*
X135429671Y-112993559D01*
X135429664Y-112993565D01*
X135410049Y-113013181D01*
X135348726Y-113046666D01*
X135322368Y-113049500D01*
X127692178Y-113049500D01*
X127625139Y-113029815D01*
X127604497Y-113013181D01*
X127484938Y-112893622D01*
X127463505Y-112878050D01*
X127300228Y-112759421D01*
X127247995Y-112732807D01*
X127096803Y-112655770D01*
X126879660Y-112585215D01*
X126654162Y-112549500D01*
X126654157Y-112549500D01*
X126511151Y-112549500D01*
X126444112Y-112529815D01*
X126398357Y-112477011D01*
X126393220Y-112463818D01*
X126336212Y-112288363D01*
X126336211Y-112288360D01*
X126307740Y-112232484D01*
X126253996Y-112127006D01*
X126197740Y-112049576D01*
X126147558Y-111980505D01*
X126147554Y-111980500D01*
X126019499Y-111852445D01*
X126019494Y-111852441D01*
X125872997Y-111746006D01*
X125872996Y-111746005D01*
X125872994Y-111746004D01*
X125821300Y-111719664D01*
X125711639Y-111663788D01*
X125711636Y-111663787D01*
X125539410Y-111607829D01*
X125360551Y-111579500D01*
X125360546Y-111579500D01*
X125179454Y-111579500D01*
X125179449Y-111579500D01*
X125000589Y-111607829D01*
X124828363Y-111663787D01*
X124828360Y-111663788D01*
X124667002Y-111746006D01*
X124520505Y-111852441D01*
X124520500Y-111852445D01*
X124392445Y-111980500D01*
X124392441Y-111980505D01*
X124286006Y-112127002D01*
X124203788Y-112288360D01*
X124203787Y-112288363D01*
X124147829Y-112460589D01*
X124119500Y-112639448D01*
X124119500Y-112820551D01*
X124147829Y-112999410D01*
X124203787Y-113171636D01*
X124203790Y-113171643D01*
X124236484Y-113235806D01*
X124250000Y-113292102D01*
X124250000Y-113719670D01*
X124230255Y-113699925D01*
X124144745Y-113650556D01*
X124049370Y-113625000D01*
X123950630Y-113625000D01*
X123855255Y-113650556D01*
X123769745Y-113699925D01*
X123750000Y-113719670D01*
X123750000Y-112850000D01*
X123302155Y-112850000D01*
X123242627Y-112856401D01*
X123242620Y-112856403D01*
X123107913Y-112906645D01*
X123107906Y-112906649D01*
X122992812Y-112992809D01*
X122992809Y-112992812D01*
X122906649Y-113107906D01*
X122906645Y-113107913D01*
X122856403Y-113242620D01*
X122856401Y-113242627D01*
X122850000Y-113302155D01*
X122850000Y-113750000D01*
X123719670Y-113750000D01*
X123699925Y-113769745D01*
X123650556Y-113855255D01*
X123625000Y-113950630D01*
X123625000Y-114049370D01*
X123650556Y-114144745D01*
X123699925Y-114230255D01*
X123719670Y-114250000D01*
X122850000Y-114250000D01*
X122850000Y-114697844D01*
X122856401Y-114757372D01*
X122856403Y-114757379D01*
X122906645Y-114892086D01*
X122906649Y-114892093D01*
X122992809Y-115007187D01*
X122992812Y-115007190D01*
X123107906Y-115093350D01*
X123107913Y-115093354D01*
X123242620Y-115143596D01*
X123242627Y-115143598D01*
X123302155Y-115149999D01*
X123302172Y-115150000D01*
X123750000Y-115150000D01*
X123750000Y-114280330D01*
X123769745Y-114300075D01*
X123855255Y-114349444D01*
X123950630Y-114375000D01*
X124049370Y-114375000D01*
X124144745Y-114349444D01*
X124230255Y-114300075D01*
X124250000Y-114280330D01*
X124250000Y-115150000D01*
X124697828Y-115150000D01*
X124697844Y-115149999D01*
X124757372Y-115143598D01*
X124757379Y-115143596D01*
X124892086Y-115093354D01*
X124892093Y-115093350D01*
X125007187Y-115007190D01*
X125007190Y-115007187D01*
X125093350Y-114892093D01*
X125093354Y-114892086D01*
X125115029Y-114833973D01*
X125156900Y-114778039D01*
X125222364Y-114753622D01*
X125290637Y-114768473D01*
X125331527Y-114804419D01*
X125433621Y-114944937D01*
X125595063Y-115106379D01*
X125779772Y-115240579D01*
X125875884Y-115289550D01*
X125983196Y-115344229D01*
X125983198Y-115344229D01*
X125983201Y-115344231D01*
X126082401Y-115376463D01*
X126200339Y-115414784D01*
X126425838Y-115450500D01*
X126425843Y-115450500D01*
X126654162Y-115450500D01*
X126879660Y-115414784D01*
X126901019Y-115407844D01*
X127096799Y-115344231D01*
X127300228Y-115240579D01*
X127484937Y-115106379D01*
X127604497Y-114986819D01*
X127665820Y-114953334D01*
X127692178Y-114950500D01*
X134706433Y-114950500D01*
X134773472Y-114970185D01*
X134819227Y-115022989D01*
X134826208Y-115042406D01*
X134853447Y-115144063D01*
X134953742Y-115386197D01*
X134953747Y-115386208D01*
X135084785Y-115613171D01*
X135084796Y-115613187D01*
X135244340Y-115821109D01*
X135244346Y-115821116D01*
X135429664Y-116006434D01*
X135429671Y-116006440D01*
X135450034Y-116022065D01*
X135637602Y-116165991D01*
X135637609Y-116165995D01*
X135864572Y-116297033D01*
X135864577Y-116297035D01*
X135864580Y-116297037D01*
X136106722Y-116397335D01*
X136359884Y-116465170D01*
X136619735Y-116499380D01*
X136619742Y-116499380D01*
X136881820Y-116499380D01*
X136881827Y-116499380D01*
X137141678Y-116465170D01*
X137394840Y-116397335D01*
X137636982Y-116297037D01*
X137863960Y-116165991D01*
X138071892Y-116006439D01*
X138257220Y-115821111D01*
X138416772Y-115613179D01*
X138547818Y-115386201D01*
X138648116Y-115144059D01*
X138715951Y-114890897D01*
X138750161Y-114631046D01*
X138750161Y-114368954D01*
X138745234Y-114331526D01*
X142750140Y-114331526D01*
X142750140Y-114668473D01*
X142787863Y-115003274D01*
X142787865Y-115003290D01*
X142862839Y-115331775D01*
X142862843Y-115331787D01*
X142974121Y-115649799D01*
X142974127Y-115649813D01*
X143120313Y-115953372D01*
X143150012Y-116000638D01*
X143299576Y-116238668D01*
X143426107Y-116397333D01*
X143495569Y-116484436D01*
X143509653Y-116502096D01*
X143747904Y-116740347D01*
X144011332Y-116950424D01*
X144296625Y-117129685D01*
X144600194Y-117275876D01*
X144706204Y-117312970D01*
X144918212Y-117387156D01*
X144918224Y-117387160D01*
X145246713Y-117462135D01*
X145581527Y-117499859D01*
X145581528Y-117499860D01*
X145581531Y-117499860D01*
X145918472Y-117499860D01*
X145918472Y-117499859D01*
X146253287Y-117462135D01*
X146581776Y-117387160D01*
X146899806Y-117275876D01*
X147203375Y-117129685D01*
X147488668Y-116950424D01*
X147752096Y-116740347D01*
X147990347Y-116502096D01*
X148200424Y-116238668D01*
X148379685Y-115953375D01*
X148525876Y-115649806D01*
X148637160Y-115331776D01*
X148712135Y-115003287D01*
X148749860Y-114668469D01*
X148749860Y-114331531D01*
X148712135Y-113996713D01*
X148637160Y-113668224D01*
X148601530Y-113566401D01*
X148525878Y-113350200D01*
X148525876Y-113350194D01*
X148379685Y-113046625D01*
X148200424Y-112761332D01*
X147990347Y-112497904D01*
X147752096Y-112259653D01*
X147488668Y-112049576D01*
X147203375Y-111870315D01*
X147203372Y-111870313D01*
X146899813Y-111724127D01*
X146899799Y-111724121D01*
X146581787Y-111612843D01*
X146581775Y-111612839D01*
X146253290Y-111537865D01*
X146253274Y-111537863D01*
X145918473Y-111500140D01*
X145918469Y-111500140D01*
X145581531Y-111500140D01*
X145581526Y-111500140D01*
X145246725Y-111537863D01*
X145246709Y-111537865D01*
X144918224Y-111612839D01*
X144918212Y-111612843D01*
X144600200Y-111724121D01*
X144600186Y-111724127D01*
X144296627Y-111870313D01*
X144011333Y-112049575D01*
X143747904Y-112259652D01*
X143509652Y-112497904D01*
X143299576Y-112761332D01*
X143120313Y-113046627D01*
X142974127Y-113350186D01*
X142974121Y-113350200D01*
X142862843Y-113668212D01*
X142862839Y-113668224D01*
X142787865Y-113996709D01*
X142787863Y-113996725D01*
X142750140Y-114331526D01*
X138745234Y-114331526D01*
X138715951Y-114109103D01*
X138648116Y-113855941D01*
X138547818Y-113613799D01*
X138547816Y-113613796D01*
X138547814Y-113613791D01*
X138416776Y-113386828D01*
X138416772Y-113386821D01*
X138348227Y-113297491D01*
X138257221Y-113178890D01*
X138257215Y-113178883D01*
X138071897Y-112993565D01*
X138071890Y-112993559D01*
X137863968Y-112834015D01*
X137863966Y-112834013D01*
X137863960Y-112834009D01*
X137863955Y-112834006D01*
X137863952Y-112834004D01*
X137688674Y-112732807D01*
X137640458Y-112682240D01*
X137627236Y-112613633D01*
X137653204Y-112548768D01*
X137710118Y-112508240D01*
X137750674Y-112501420D01*
X137882579Y-112501420D01*
X137882586Y-112501420D01*
X138142437Y-112467210D01*
X138395599Y-112399375D01*
X138637741Y-112299077D01*
X138864719Y-112168031D01*
X139072651Y-112008479D01*
X139257979Y-111823151D01*
X139417531Y-111615219D01*
X139548577Y-111388241D01*
X139648875Y-111146099D01*
X139716710Y-110892937D01*
X139750920Y-110633086D01*
X139750920Y-110372032D01*
X139770605Y-110304993D01*
X139823409Y-110259238D01*
X139892567Y-110249294D01*
X139950406Y-110273656D01*
X139986844Y-110301616D01*
X140138481Y-110417971D01*
X140138488Y-110417975D01*
X140365451Y-110549013D01*
X140365456Y-110549015D01*
X140365459Y-110549017D01*
X140428012Y-110574927D01*
X140568420Y-110633086D01*
X140607601Y-110649315D01*
X140860763Y-110717150D01*
X141120614Y-110751360D01*
X141120621Y-110751360D01*
X141382699Y-110751360D01*
X141382706Y-110751360D01*
X141642557Y-110717150D01*
X141895719Y-110649315D01*
X142137861Y-110549017D01*
X142364839Y-110417971D01*
X142572771Y-110258419D01*
X142758099Y-110073091D01*
X142917651Y-109865159D01*
X143041874Y-109649999D01*
X143048693Y-109638188D01*
X143048693Y-109638187D01*
X143048697Y-109638181D01*
X143148995Y-109396039D01*
X143216830Y-109142877D01*
X143251040Y-108883026D01*
X143251040Y-108620934D01*
X143216830Y-108361083D01*
X143148995Y-108107921D01*
X143048697Y-107865779D01*
X143048695Y-107865776D01*
X143048693Y-107865771D01*
X142917655Y-107638808D01*
X142917651Y-107638801D01*
X142832948Y-107528414D01*
X142758100Y-107430870D01*
X142758094Y-107430863D01*
X142572776Y-107245545D01*
X142572769Y-107245539D01*
X142364847Y-107085995D01*
X142364845Y-107085993D01*
X142364839Y-107085989D01*
X142364834Y-107085986D01*
X142364831Y-107085984D01*
X142137868Y-106954946D01*
X142137857Y-106954941D01*
X141895723Y-106854646D01*
X141648345Y-106788361D01*
X141642557Y-106786810D01*
X141642556Y-106786809D01*
X141642553Y-106786809D01*
X141382715Y-106752601D01*
X141382712Y-106752600D01*
X141382706Y-106752600D01*
X141120614Y-106752600D01*
X141120608Y-106752600D01*
X141120604Y-106752601D01*
X140860773Y-106786808D01*
X140860766Y-106786809D01*
X140860763Y-106786810D01*
X140854975Y-106788361D01*
X140748720Y-106816831D01*
X140678871Y-106815168D01*
X140628947Y-106784737D01*
X138855911Y-105011700D01*
X138855907Y-105011697D01*
X138700236Y-104907680D01*
X138700227Y-104907675D01*
X138598903Y-104865706D01*
X138598901Y-104865705D01*
X138527251Y-104836027D01*
X138527247Y-104836026D01*
X138527243Y-104836024D01*
X138457272Y-104822107D01*
X138395361Y-104789723D01*
X138360787Y-104729007D01*
X138364526Y-104659237D01*
X138405392Y-104602565D01*
X138470410Y-104576984D01*
X138481463Y-104576490D01*
X141180918Y-104576490D01*
X141247957Y-104596175D01*
X141268599Y-104612809D01*
X144098543Y-107442753D01*
X144132028Y-107504076D01*
X144127044Y-107573768D01*
X144109239Y-107605918D01*
X144084013Y-107638793D01*
X143952966Y-107865771D01*
X143952961Y-107865782D01*
X143852666Y-108107916D01*
X143784829Y-108361086D01*
X143750621Y-108620924D01*
X143750620Y-108620940D01*
X143750620Y-108883019D01*
X143750621Y-108883035D01*
X143779871Y-109105216D01*
X143784830Y-109142877D01*
X143800770Y-109202365D01*
X143852666Y-109396043D01*
X143952961Y-109638177D01*
X143952966Y-109638188D01*
X144084004Y-109865151D01*
X144084015Y-109865167D01*
X144243559Y-110073089D01*
X144243565Y-110073096D01*
X144428883Y-110258414D01*
X144428890Y-110258420D01*
X144485184Y-110301616D01*
X144636821Y-110417971D01*
X144636828Y-110417975D01*
X144863791Y-110549013D01*
X144863796Y-110549015D01*
X144863799Y-110549017D01*
X144926352Y-110574927D01*
X145066760Y-110633086D01*
X145105941Y-110649315D01*
X145359103Y-110717150D01*
X145618954Y-110751360D01*
X145618961Y-110751360D01*
X145881039Y-110751360D01*
X145881046Y-110751360D01*
X146140897Y-110717150D01*
X146394059Y-110649315D01*
X146636201Y-110549017D01*
X146863179Y-110417971D01*
X147071111Y-110258419D01*
X147256439Y-110073091D01*
X147415991Y-109865159D01*
X147540214Y-109649999D01*
X147547033Y-109638188D01*
X147547033Y-109638187D01*
X147547037Y-109638181D01*
X147647335Y-109396039D01*
X147715170Y-109142877D01*
X147749380Y-108883026D01*
X147749380Y-108620934D01*
X147715170Y-108361083D01*
X147647335Y-108107921D01*
X147547037Y-107865779D01*
X147547035Y-107865776D01*
X147547033Y-107865771D01*
X147415995Y-107638808D01*
X147415991Y-107638801D01*
X147331288Y-107528414D01*
X147256440Y-107430870D01*
X147256434Y-107430863D01*
X147071116Y-107245545D01*
X147071109Y-107245539D01*
X146863187Y-107085995D01*
X146863185Y-107085993D01*
X146863179Y-107085989D01*
X146863174Y-107085986D01*
X146863171Y-107085984D01*
X146636208Y-106954946D01*
X146636197Y-106954941D01*
X146394063Y-106854646D01*
X146159497Y-106791794D01*
X146103910Y-106759700D01*
X142631391Y-103287181D01*
X142620778Y-103267744D01*
X142606278Y-103251011D01*
X142604361Y-103237679D01*
X142597906Y-103225858D01*
X142599485Y-103203771D01*
X142596334Y-103181853D01*
X142601929Y-103169601D01*
X142602890Y-103156166D01*
X142616160Y-103138439D01*
X142625359Y-103118297D01*
X142636690Y-103111014D01*
X142644762Y-103100233D01*
X142665507Y-103092495D01*
X142684137Y-103080523D01*
X142706055Y-103077371D01*
X142710226Y-103075816D01*
X142719072Y-103075500D01*
X142929928Y-103075500D01*
X142996967Y-103095185D01*
X143017609Y-103111819D01*
X145761698Y-105855908D01*
X145863078Y-105957288D01*
X145894093Y-105988303D01*
X146049762Y-106092318D01*
X146049771Y-106092323D01*
X146081045Y-106105277D01*
X146222749Y-106163973D01*
X146285551Y-106176465D01*
X146315759Y-106182473D01*
X146406380Y-106200500D01*
X146406383Y-106200500D01*
X146406384Y-106200500D01*
X148304928Y-106200500D01*
X148371967Y-106220185D01*
X148392609Y-106236819D01*
X149095506Y-106939716D01*
X149128991Y-107001039D01*
X149124007Y-107070731D01*
X149083312Y-107125772D01*
X148927233Y-107245537D01*
X148927223Y-107245545D01*
X148741905Y-107430863D01*
X148741899Y-107430870D01*
X148582355Y-107638792D01*
X148582344Y-107638808D01*
X148451306Y-107865771D01*
X148451301Y-107865782D01*
X148351006Y-108107916D01*
X148283169Y-108361086D01*
X148248961Y-108620924D01*
X148248960Y-108620940D01*
X148248960Y-108883019D01*
X148248961Y-108883035D01*
X148278211Y-109105216D01*
X148283170Y-109142877D01*
X148299110Y-109202365D01*
X148351006Y-109396043D01*
X148451301Y-109638177D01*
X148451306Y-109638188D01*
X148582344Y-109865151D01*
X148582355Y-109865167D01*
X148741899Y-110073089D01*
X148741905Y-110073096D01*
X148927223Y-110258414D01*
X148927230Y-110258420D01*
X148983524Y-110301616D01*
X149135161Y-110417971D01*
X149135168Y-110417975D01*
X149362131Y-110549013D01*
X149362136Y-110549015D01*
X149362139Y-110549017D01*
X149424692Y-110574927D01*
X149565100Y-110633086D01*
X149604281Y-110649315D01*
X149857443Y-110717150D01*
X150117294Y-110751360D01*
X150117301Y-110751360D01*
X150379379Y-110751360D01*
X150379386Y-110751360D01*
X150639237Y-110717150D01*
X150892399Y-110649315D01*
X151134541Y-110549017D01*
X151361519Y-110417971D01*
X151518250Y-110297706D01*
X151549594Y-110273656D01*
X151614763Y-110248462D01*
X151683208Y-110262500D01*
X151733197Y-110311314D01*
X151749080Y-110372032D01*
X151749080Y-110633079D01*
X151749081Y-110633095D01*
X151783289Y-110892933D01*
X151851126Y-111146103D01*
X151951421Y-111388237D01*
X151951426Y-111388248D01*
X152082464Y-111615211D01*
X152082475Y-111615227D01*
X152242019Y-111823149D01*
X152242025Y-111823156D01*
X152427343Y-112008474D01*
X152427350Y-112008480D01*
X152575419Y-112122097D01*
X152635281Y-112168031D01*
X152635288Y-112168035D01*
X152862251Y-112299073D01*
X152862256Y-112299075D01*
X152862259Y-112299077D01*
X153104401Y-112399375D01*
X153357563Y-112467210D01*
X153617414Y-112501420D01*
X153617421Y-112501420D01*
X153749326Y-112501420D01*
X153816365Y-112521105D01*
X153862120Y-112573909D01*
X153872064Y-112643067D01*
X153843039Y-112706623D01*
X153811326Y-112732807D01*
X153636047Y-112834004D01*
X153636031Y-112834015D01*
X153428109Y-112993559D01*
X153428102Y-112993565D01*
X153242784Y-113178883D01*
X153242778Y-113178890D01*
X153083234Y-113386812D01*
X153083223Y-113386828D01*
X152952185Y-113613791D01*
X152952180Y-113613802D01*
X152851885Y-113855936D01*
X152784048Y-114109106D01*
X152749840Y-114368944D01*
X152749839Y-114368960D01*
X152749839Y-114631039D01*
X152749840Y-114631055D01*
X152779695Y-114857829D01*
X152784049Y-114890897D01*
X152790182Y-114913787D01*
X152851885Y-115144063D01*
X152952180Y-115386197D01*
X152952185Y-115386208D01*
X153083223Y-115613171D01*
X153083234Y-115613187D01*
X153242778Y-115821109D01*
X153242784Y-115821116D01*
X153428102Y-116006434D01*
X153428109Y-116006440D01*
X153448472Y-116022065D01*
X153636040Y-116165991D01*
X153636047Y-116165995D01*
X153811326Y-116267193D01*
X153859542Y-116317760D01*
X153872764Y-116386367D01*
X153846796Y-116451232D01*
X153789882Y-116491760D01*
X153749326Y-116498580D01*
X153617414Y-116498580D01*
X153617408Y-116498580D01*
X153617404Y-116498581D01*
X153357566Y-116532789D01*
X153104396Y-116600626D01*
X152862262Y-116700921D01*
X152862251Y-116700926D01*
X152635288Y-116831964D01*
X152635272Y-116831975D01*
X152427350Y-116991519D01*
X152427343Y-116991525D01*
X152242025Y-117176843D01*
X152242019Y-117176850D01*
X152082475Y-117384772D01*
X152082464Y-117384788D01*
X151951426Y-117611751D01*
X151951421Y-117611762D01*
X151851126Y-117853896D01*
X151783289Y-118107066D01*
X151749081Y-118366904D01*
X151749080Y-118366920D01*
X151749080Y-118627967D01*
X151729395Y-118695006D01*
X151676591Y-118740761D01*
X151607433Y-118750705D01*
X151549594Y-118726343D01*
X151361527Y-118582035D01*
X151361525Y-118582033D01*
X151361519Y-118582029D01*
X151361514Y-118582026D01*
X151361511Y-118582024D01*
X151134548Y-118450986D01*
X151134537Y-118450981D01*
X150892403Y-118350686D01*
X150765818Y-118316767D01*
X150639237Y-118282850D01*
X150639236Y-118282849D01*
X150639233Y-118282849D01*
X150379395Y-118248641D01*
X150379392Y-118248640D01*
X150379386Y-118248640D01*
X150117294Y-118248640D01*
X150117288Y-118248640D01*
X150117284Y-118248641D01*
X149857446Y-118282849D01*
X149604276Y-118350686D01*
X149362142Y-118450981D01*
X149362131Y-118450986D01*
X149135168Y-118582024D01*
X149135152Y-118582035D01*
X148927230Y-118741579D01*
X148927223Y-118741585D01*
X148741905Y-118926903D01*
X148741899Y-118926910D01*
X148582355Y-119134832D01*
X148582344Y-119134848D01*
X148451306Y-119361811D01*
X148451301Y-119361822D01*
X148351006Y-119603956D01*
X148283169Y-119857126D01*
X148248961Y-120116964D01*
X148248960Y-120116980D01*
X148248960Y-120379059D01*
X148248961Y-120379075D01*
X148283169Y-120638913D01*
X148351006Y-120892083D01*
X148451301Y-121134217D01*
X148451306Y-121134228D01*
X148582344Y-121361191D01*
X148582355Y-121361207D01*
X148673751Y-121480317D01*
X148698945Y-121545486D01*
X148684907Y-121613931D01*
X148636093Y-121663920D01*
X148568001Y-121679584D01*
X148502251Y-121655947D01*
X148487694Y-121643484D01*
X147716756Y-120872546D01*
X147683271Y-120811223D01*
X147684662Y-120752771D01*
X147685013Y-120751462D01*
X147715170Y-120638917D01*
X147749380Y-120379066D01*
X147749380Y-120116974D01*
X147715170Y-119857123D01*
X147647335Y-119603961D01*
X147647330Y-119603950D01*
X147583770Y-119450500D01*
X147547037Y-119361819D01*
X147547035Y-119361816D01*
X147547033Y-119361811D01*
X147415995Y-119134848D01*
X147415991Y-119134841D01*
X147302032Y-118986327D01*
X147256440Y-118926910D01*
X147256434Y-118926903D01*
X147071116Y-118741585D01*
X147071109Y-118741579D01*
X146863187Y-118582035D01*
X146863185Y-118582033D01*
X146863179Y-118582029D01*
X146863174Y-118582026D01*
X146863171Y-118582024D01*
X146636208Y-118450986D01*
X146636197Y-118450981D01*
X146394063Y-118350686D01*
X146267478Y-118316767D01*
X146140897Y-118282850D01*
X146140896Y-118282849D01*
X146140893Y-118282849D01*
X145881055Y-118248641D01*
X145881052Y-118248640D01*
X145881046Y-118248640D01*
X145618954Y-118248640D01*
X145618948Y-118248640D01*
X145618944Y-118248641D01*
X145359106Y-118282849D01*
X145105936Y-118350686D01*
X144863802Y-118450981D01*
X144863791Y-118450986D01*
X144636828Y-118582024D01*
X144636812Y-118582035D01*
X144428890Y-118741579D01*
X144428883Y-118741585D01*
X144243565Y-118926903D01*
X144243559Y-118926910D01*
X144084015Y-119134832D01*
X144084004Y-119134848D01*
X143952966Y-119361811D01*
X143952961Y-119361822D01*
X143852666Y-119603956D01*
X143784829Y-119857126D01*
X143750621Y-120116964D01*
X143750620Y-120116980D01*
X143750620Y-120379059D01*
X143750621Y-120379075D01*
X143784829Y-120638913D01*
X143852666Y-120892083D01*
X143952961Y-121134217D01*
X143952966Y-121134228D01*
X144084004Y-121361191D01*
X144084015Y-121361207D01*
X144243559Y-121569129D01*
X144243565Y-121569136D01*
X144428883Y-121754454D01*
X144428890Y-121754460D01*
X144491070Y-121802172D01*
X144636821Y-121914011D01*
X144636828Y-121914015D01*
X144863791Y-122045053D01*
X144863796Y-122045055D01*
X144863799Y-122045057D01*
X145105941Y-122145355D01*
X145359103Y-122213190D01*
X145618954Y-122247400D01*
X145618961Y-122247400D01*
X145881039Y-122247400D01*
X145881046Y-122247400D01*
X146140897Y-122213190D01*
X146251629Y-122183519D01*
X146321478Y-122185182D01*
X146371403Y-122215613D01*
X149894087Y-125738298D01*
X149894091Y-125738301D01*
X149945120Y-125772398D01*
X149989925Y-125826010D01*
X149998632Y-125895335D01*
X149968477Y-125958363D01*
X149909034Y-125995082D01*
X149876229Y-125999500D01*
X120874500Y-125999500D01*
X120807461Y-125979815D01*
X120761706Y-125927011D01*
X120750500Y-125875500D01*
X120750500Y-116394073D01*
X120770185Y-116327034D01*
X120822989Y-116281279D01*
X120892147Y-116271335D01*
X120955703Y-116300360D01*
X120962181Y-116306392D01*
X123394088Y-118738299D01*
X123394092Y-118738302D01*
X123549763Y-118842319D01*
X123549770Y-118842323D01*
X123626038Y-118873914D01*
X123661339Y-118888536D01*
X123680958Y-118904347D01*
X123715740Y-118932375D01*
X123723239Y-118944638D01*
X123772315Y-119036450D01*
X123806969Y-119078677D01*
X123903589Y-119196410D01*
X123986566Y-119264506D01*
X124063550Y-119327685D01*
X124246046Y-119425232D01*
X124444066Y-119485300D01*
X124444065Y-119485300D01*
X124482647Y-119489100D01*
X124598392Y-119500500D01*
X124598395Y-119500500D01*
X125401605Y-119500500D01*
X125401608Y-119500500D01*
X125555934Y-119485300D01*
X125753954Y-119425232D01*
X125936450Y-119327685D01*
X126096410Y-119196410D01*
X126139965Y-119143337D01*
X126197710Y-119104003D01*
X126267554Y-119102132D01*
X126300912Y-119116462D01*
X126330666Y-119134814D01*
X126497203Y-119189999D01*
X126599991Y-119200500D01*
X127400008Y-119200499D01*
X127400016Y-119200498D01*
X127400019Y-119200498D01*
X127456302Y-119194748D01*
X127502797Y-119189999D01*
X127609159Y-119154753D01*
X127648163Y-119148460D01*
X136098736Y-119148460D01*
X136165775Y-119168145D01*
X136211530Y-119220949D01*
X136213297Y-119225008D01*
X136224137Y-119251180D01*
X136224145Y-119251196D01*
X136335521Y-119444103D01*
X136335532Y-119444119D01*
X136471135Y-119620841D01*
X136471141Y-119620848D01*
X136628651Y-119778358D01*
X136628658Y-119778364D01*
X136681709Y-119819071D01*
X136805389Y-119913974D01*
X136805396Y-119913978D01*
X136998303Y-120025354D01*
X136998308Y-120025356D01*
X136998311Y-120025358D01*
X137000438Y-120026239D01*
X137204117Y-120110606D01*
X137204118Y-120110606D01*
X137204120Y-120110607D01*
X137419296Y-120168263D01*
X137640157Y-120197340D01*
X137640164Y-120197340D01*
X137862916Y-120197340D01*
X137862923Y-120197340D01*
X138083784Y-120168263D01*
X138298960Y-120110607D01*
X138504769Y-120025358D01*
X138697691Y-119913974D01*
X138874423Y-119778363D01*
X139031943Y-119620843D01*
X139143918Y-119474912D01*
X139200343Y-119433712D01*
X139270089Y-119429557D01*
X139331010Y-119463769D01*
X139363763Y-119525486D01*
X139357950Y-119595113D01*
X139356858Y-119597841D01*
X139354328Y-119603950D01*
X139286489Y-119857126D01*
X139252281Y-120116964D01*
X139252280Y-120116980D01*
X139252280Y-120379059D01*
X139252281Y-120379075D01*
X139286488Y-120638906D01*
X139286489Y-120638911D01*
X139286490Y-120638917D01*
X139312773Y-120737006D01*
X139316646Y-120751462D01*
X139314983Y-120821312D01*
X139284552Y-120871236D01*
X138532609Y-121623181D01*
X138471286Y-121656666D01*
X138444928Y-121659500D01*
X127442178Y-121659500D01*
X127375139Y-121639815D01*
X127354497Y-121623181D01*
X127234938Y-121503622D01*
X127220059Y-121492812D01*
X127050228Y-121369421D01*
X127034107Y-121361207D01*
X126846803Y-121265770D01*
X126629660Y-121195215D01*
X126404162Y-121159500D01*
X126404157Y-121159500D01*
X126261151Y-121159500D01*
X126194112Y-121139815D01*
X126148357Y-121087011D01*
X126143220Y-121073818D01*
X126086212Y-120898363D01*
X126086211Y-120898360D01*
X126049227Y-120825776D01*
X126003996Y-120737006D01*
X125979526Y-120703326D01*
X125897558Y-120590505D01*
X125897554Y-120590500D01*
X125769499Y-120462445D01*
X125769494Y-120462441D01*
X125622997Y-120356006D01*
X125622996Y-120356005D01*
X125622994Y-120356004D01*
X125571300Y-120329664D01*
X125461639Y-120273788D01*
X125461636Y-120273787D01*
X125289410Y-120217829D01*
X125110551Y-120189500D01*
X125110546Y-120189500D01*
X124929454Y-120189500D01*
X124929449Y-120189500D01*
X124750589Y-120217829D01*
X124578363Y-120273787D01*
X124578360Y-120273788D01*
X124417002Y-120356006D01*
X124270505Y-120462441D01*
X124270500Y-120462445D01*
X124142445Y-120590500D01*
X124142441Y-120590505D01*
X124036006Y-120737002D01*
X123953788Y-120898360D01*
X123953787Y-120898363D01*
X123897829Y-121070589D01*
X123869500Y-121249448D01*
X123869500Y-121430551D01*
X123897829Y-121609410D01*
X123953787Y-121781636D01*
X123953790Y-121781643D01*
X123986484Y-121845806D01*
X124000000Y-121902102D01*
X124000000Y-122329670D01*
X123980255Y-122309925D01*
X123894745Y-122260556D01*
X123799370Y-122235000D01*
X123700630Y-122235000D01*
X123605255Y-122260556D01*
X123519745Y-122309925D01*
X123500000Y-122329670D01*
X123500000Y-121460000D01*
X123052155Y-121460000D01*
X122992627Y-121466401D01*
X122992620Y-121466403D01*
X122857913Y-121516645D01*
X122857906Y-121516649D01*
X122742812Y-121602809D01*
X122742809Y-121602812D01*
X122656649Y-121717906D01*
X122656645Y-121717913D01*
X122606403Y-121852620D01*
X122606401Y-121852627D01*
X122600000Y-121912155D01*
X122600000Y-122360000D01*
X123469670Y-122360000D01*
X123449925Y-122379745D01*
X123400556Y-122465255D01*
X123375000Y-122560630D01*
X123375000Y-122659370D01*
X123400556Y-122754745D01*
X123449925Y-122840255D01*
X123469670Y-122860000D01*
X122600000Y-122860000D01*
X122600000Y-123307844D01*
X122606401Y-123367372D01*
X122606403Y-123367379D01*
X122656645Y-123502086D01*
X122656649Y-123502093D01*
X122742809Y-123617187D01*
X122742812Y-123617190D01*
X122857906Y-123703350D01*
X122857913Y-123703354D01*
X122992620Y-123753596D01*
X122992627Y-123753598D01*
X123052155Y-123759999D01*
X123052172Y-123760000D01*
X123500000Y-123760000D01*
X123500000Y-122890330D01*
X123519745Y-122910075D01*
X123605255Y-122959444D01*
X123700630Y-122985000D01*
X123799370Y-122985000D01*
X123894745Y-122959444D01*
X123980255Y-122910075D01*
X124000000Y-122890330D01*
X124000000Y-123760000D01*
X124447828Y-123760000D01*
X124447844Y-123759999D01*
X124507372Y-123753598D01*
X124507379Y-123753596D01*
X124642086Y-123703354D01*
X124642093Y-123703350D01*
X124757187Y-123617190D01*
X124757190Y-123617187D01*
X124843350Y-123502093D01*
X124843354Y-123502086D01*
X124865029Y-123443973D01*
X124906900Y-123388039D01*
X124972364Y-123363622D01*
X125040637Y-123378473D01*
X125081527Y-123414419D01*
X125183621Y-123554937D01*
X125345063Y-123716379D01*
X125529772Y-123850579D01*
X125600530Y-123886632D01*
X125733196Y-123954229D01*
X125733198Y-123954229D01*
X125733201Y-123954231D01*
X125823309Y-123983509D01*
X125950339Y-124024784D01*
X126175838Y-124060500D01*
X126175843Y-124060500D01*
X126404162Y-124060500D01*
X126629660Y-124024784D01*
X126665370Y-124013181D01*
X126846799Y-123954231D01*
X126848560Y-123953334D01*
X126921115Y-123916365D01*
X127050228Y-123850579D01*
X127234937Y-123716379D01*
X127354497Y-123596819D01*
X127415820Y-123563334D01*
X127442178Y-123560500D01*
X138983618Y-123560500D01*
X138998072Y-123557624D01*
X139075433Y-123542236D01*
X139167251Y-123523973D01*
X139288104Y-123473914D01*
X139340230Y-123452323D01*
X139495908Y-123348302D01*
X140628948Y-122215260D01*
X140690269Y-122181777D01*
X140748720Y-122183168D01*
X140785208Y-122192945D01*
X140860763Y-122213190D01*
X141120614Y-122247400D01*
X141120621Y-122247400D01*
X141382699Y-122247400D01*
X141382706Y-122247400D01*
X141642557Y-122213190D01*
X141895719Y-122145355D01*
X142137861Y-122045057D01*
X142142157Y-122042577D01*
X142186758Y-122016826D01*
X142364839Y-121914011D01*
X142572771Y-121754459D01*
X142758099Y-121569131D01*
X142917651Y-121361199D01*
X143048697Y-121134221D01*
X143148995Y-120892079D01*
X143216830Y-120638917D01*
X143251040Y-120379066D01*
X143251040Y-120116974D01*
X143216830Y-119857123D01*
X143148995Y-119603961D01*
X143148990Y-119603950D01*
X143085430Y-119450500D01*
X143048697Y-119361819D01*
X143048695Y-119361816D01*
X143048693Y-119361811D01*
X142917655Y-119134848D01*
X142917651Y-119134841D01*
X142803692Y-118986327D01*
X142758100Y-118926910D01*
X142758094Y-118926903D01*
X142572776Y-118741585D01*
X142572769Y-118741579D01*
X142364847Y-118582035D01*
X142364845Y-118582033D01*
X142364839Y-118582029D01*
X142364834Y-118582026D01*
X142364831Y-118582024D01*
X142137868Y-118450986D01*
X142137857Y-118450981D01*
X141895723Y-118350686D01*
X141769138Y-118316767D01*
X141642557Y-118282850D01*
X141642556Y-118282849D01*
X141642553Y-118282849D01*
X141382715Y-118248641D01*
X141382712Y-118248640D01*
X141382706Y-118248640D01*
X141120614Y-118248640D01*
X141120608Y-118248640D01*
X141120604Y-118248641D01*
X140860766Y-118282849D01*
X140607596Y-118350686D01*
X140365462Y-118450981D01*
X140365451Y-118450986D01*
X140138488Y-118582024D01*
X140138472Y-118582035D01*
X139930550Y-118741579D01*
X139930543Y-118741585D01*
X139745225Y-118926903D01*
X139588010Y-119131790D01*
X139531582Y-119172992D01*
X139461836Y-119177147D01*
X139400915Y-119142935D01*
X139368163Y-119081217D01*
X139369859Y-119024210D01*
X139375761Y-119002184D01*
X139421843Y-118830204D01*
X139450920Y-118609343D01*
X139450920Y-118386577D01*
X139421843Y-118165716D01*
X139364187Y-117950540D01*
X139278938Y-117744731D01*
X139278936Y-117744728D01*
X139278934Y-117744723D01*
X139167558Y-117551816D01*
X139167554Y-117551809D01*
X139057093Y-117407853D01*
X139031944Y-117375078D01*
X139031938Y-117375071D01*
X138874428Y-117217561D01*
X138874421Y-117217555D01*
X138697699Y-117081952D01*
X138697697Y-117081950D01*
X138697691Y-117081946D01*
X138697686Y-117081943D01*
X138697683Y-117081941D01*
X138504776Y-116970565D01*
X138504765Y-116970560D01*
X138298962Y-116885313D01*
X138181195Y-116853758D01*
X138083784Y-116827657D01*
X138083778Y-116827656D01*
X138083773Y-116827655D01*
X137862932Y-116798581D01*
X137862929Y-116798580D01*
X137862923Y-116798580D01*
X137640157Y-116798580D01*
X137640151Y-116798580D01*
X137640147Y-116798581D01*
X137419306Y-116827655D01*
X137419299Y-116827656D01*
X137419296Y-116827657D01*
X137403181Y-116831975D01*
X137204117Y-116885313D01*
X136998314Y-116970560D01*
X136998303Y-116970565D01*
X136805396Y-117081941D01*
X136805380Y-117081952D01*
X136628658Y-117217555D01*
X136628651Y-117217561D01*
X136471141Y-117375071D01*
X136471135Y-117375078D01*
X136335532Y-117551800D01*
X136335521Y-117551816D01*
X136224145Y-117744723D01*
X136224137Y-117744739D01*
X136213297Y-117770912D01*
X136169457Y-117825316D01*
X136103163Y-117847381D01*
X136098736Y-117847460D01*
X128224499Y-117847460D01*
X128157460Y-117827775D01*
X128111705Y-117774971D01*
X128100499Y-117723460D01*
X128100499Y-117499998D01*
X128100498Y-117499981D01*
X128089999Y-117397203D01*
X128089998Y-117397200D01*
X128082665Y-117375071D01*
X128034814Y-117230666D01*
X127942712Y-117081344D01*
X127818656Y-116957288D01*
X127669334Y-116865186D01*
X127502797Y-116810001D01*
X127502795Y-116810000D01*
X127400010Y-116799500D01*
X126599998Y-116799500D01*
X126599980Y-116799501D01*
X126497203Y-116810000D01*
X126497200Y-116810001D01*
X126330668Y-116865185D01*
X126330666Y-116865185D01*
X126330666Y-116865186D01*
X126330662Y-116865187D01*
X126330661Y-116865189D01*
X126300913Y-116883537D01*
X126233520Y-116901976D01*
X126166857Y-116881052D01*
X126139964Y-116856661D01*
X126096410Y-116803589D01*
X125971307Y-116700921D01*
X125936450Y-116672315D01*
X125753954Y-116574768D01*
X125555934Y-116514700D01*
X125555932Y-116514699D01*
X125555934Y-116514699D01*
X125427965Y-116502096D01*
X125401608Y-116499500D01*
X124598392Y-116499500D01*
X124560298Y-116503251D01*
X124444067Y-116514699D01*
X124246041Y-116574769D01*
X124114009Y-116645342D01*
X124045606Y-116659584D01*
X123980362Y-116634584D01*
X123967875Y-116623665D01*
X122486819Y-115142609D01*
X122453334Y-115081286D01*
X122450500Y-115054928D01*
X122450500Y-97895072D01*
X122470185Y-97828033D01*
X122486819Y-97807391D01*
X130457391Y-89836819D01*
X130518714Y-89803334D01*
X130545072Y-89800500D01*
X131854928Y-89800500D01*
X131921967Y-89820185D01*
X131942609Y-89836819D01*
X133024198Y-90918408D01*
X133105799Y-91000009D01*
X133156593Y-91050803D01*
X133312262Y-91154818D01*
X133312268Y-91154821D01*
X133312269Y-91154822D01*
X133485249Y-91226473D01*
X133544718Y-91238302D01*
X133575759Y-91244476D01*
X133668880Y-91263000D01*
X133668883Y-91263000D01*
X133668884Y-91263000D01*
X135173905Y-91263000D01*
X135240944Y-91282685D01*
X135269759Y-91308335D01*
X135272314Y-91311448D01*
X135272315Y-91311450D01*
X135402585Y-91470185D01*
X135403592Y-91471412D01*
X135436898Y-91498745D01*
X135563550Y-91602685D01*
X135746046Y-91700232D01*
X135944066Y-91760300D01*
X135944065Y-91760300D01*
X135971367Y-91762989D01*
X136098392Y-91775500D01*
X136098395Y-91775500D01*
X138401605Y-91775500D01*
X138401608Y-91775500D01*
X138555934Y-91760300D01*
X138753954Y-91700232D01*
X138936450Y-91602685D01*
X139096410Y-91471410D01*
X139227685Y-91311450D01*
X139227685Y-91311448D01*
X139230241Y-91308335D01*
X139287987Y-91269001D01*
X139326095Y-91263000D01*
X141275525Y-91263000D01*
X141342564Y-91282685D01*
X141388319Y-91335489D01*
X141399524Y-91387252D01*
X141399413Y-91441561D01*
X141399317Y-91488554D01*
X141399318Y-91488561D01*
X141439095Y-91664500D01*
X141517032Y-91827188D01*
X141517035Y-91827193D01*
X141629211Y-91968449D01*
X141629212Y-91968450D01*
X141629214Y-91968452D01*
X141770017Y-92081212D01*
X141932382Y-92159813D01*
X141932389Y-92159814D01*
X141932390Y-92159815D01*
X142108160Y-92200312D01*
X142108162Y-92200312D01*
X142108166Y-92200313D01*
X142111436Y-92200500D01*
X145888569Y-92200499D01*
X145888572Y-92200499D01*
X145890528Y-92200387D01*
X145891834Y-92200313D01*
X145999878Y-92175419D01*
X146067611Y-92159814D01*
X146067614Y-92159812D01*
X146067618Y-92159812D01*
X146067621Y-92159810D01*
X146067625Y-92159809D01*
X146191866Y-92099663D01*
X146229982Y-92081211D01*
X146370785Y-91968452D01*
X146482967Y-91827188D01*
X146560902Y-91664503D01*
X146560903Y-91664500D01*
X146587434Y-91547155D01*
X146621418Y-91486107D01*
X146683012Y-91453123D01*
X146708381Y-91450500D01*
X151364551Y-91450500D01*
X151431590Y-91470185D01*
X151473908Y-91516045D01*
X151484815Y-91536451D01*
X151616089Y-91696410D01*
X151697217Y-91762989D01*
X151776050Y-91827685D01*
X151958546Y-91925232D01*
X152156566Y-91985300D01*
X152156565Y-91985300D01*
X152195147Y-91989100D01*
X152310892Y-92000500D01*
X152310895Y-92000500D01*
X153114105Y-92000500D01*
X153114108Y-92000500D01*
X153268434Y-91985300D01*
X153466454Y-91925232D01*
X153648950Y-91827685D01*
X153759335Y-91737095D01*
X153823645Y-91709782D01*
X153892513Y-91721573D01*
X153944073Y-91768725D01*
X153962000Y-91832948D01*
X153962000Y-96005268D01*
X153942315Y-96072307D01*
X153925681Y-96092949D01*
X153274950Y-96743679D01*
X153213627Y-96777164D01*
X153180926Y-96779389D01*
X153180926Y-96779500D01*
X153179297Y-96779500D01*
X153177563Y-96779618D01*
X153176060Y-96779500D01*
X153176054Y-96779500D01*
X152983944Y-96779500D01*
X152929495Y-96788124D01*
X152794196Y-96809553D01*
X152611492Y-96868916D01*
X152440317Y-96956135D01*
X152380756Y-96999409D01*
X152284897Y-97069055D01*
X152284895Y-97069057D01*
X152284894Y-97069057D01*
X152149056Y-97204895D01*
X152149056Y-97204896D01*
X152149054Y-97204898D01*
X152102237Y-97269336D01*
X152036134Y-97360318D01*
X151948915Y-97531493D01*
X151889552Y-97714197D01*
X151863552Y-97878356D01*
X151859499Y-97903945D01*
X151859499Y-98096055D01*
X151862241Y-98113368D01*
X151889552Y-98285802D01*
X151948915Y-98468506D01*
X152014378Y-98596983D01*
X152036134Y-98639681D01*
X152149054Y-98795102D01*
X152284897Y-98930945D01*
X152440318Y-99043865D01*
X152547625Y-99098541D01*
X152611492Y-99131083D01*
X152674195Y-99151456D01*
X152794198Y-99190447D01*
X152983944Y-99220500D01*
X152983945Y-99220500D01*
X153176053Y-99220500D01*
X153176054Y-99220500D01*
X153365800Y-99190447D01*
X153548508Y-99131082D01*
X153719680Y-99043865D01*
X153875101Y-98930945D01*
X154010944Y-98795102D01*
X154123864Y-98639681D01*
X154211081Y-98468509D01*
X154270446Y-98285801D01*
X154300499Y-98096055D01*
X154300499Y-97903945D01*
X154300497Y-97903937D01*
X154300382Y-97902469D01*
X154300499Y-97901911D01*
X154300499Y-97899073D01*
X154301095Y-97899073D01*
X154314739Y-97834091D01*
X154336314Y-97805051D01*
X155295452Y-96845915D01*
X155358564Y-96751459D01*
X155377584Y-96722994D01*
X155434158Y-96586412D01*
X155457029Y-96471435D01*
X155463000Y-96441419D01*
X155463000Y-94960481D01*
X158942463Y-94960481D01*
X159614214Y-95632232D01*
X160215254Y-95031192D01*
X160038500Y-94854438D01*
X160038479Y-94854419D01*
X159958448Y-94789223D01*
X159958442Y-94789219D01*
X159801764Y-94710533D01*
X159631163Y-94670100D01*
X159455843Y-94670100D01*
X159285241Y-94710533D01*
X159128564Y-94789219D01*
X159048527Y-94854418D01*
X159048511Y-94854432D01*
X158942463Y-94960481D01*
X155463000Y-94960481D01*
X155463000Y-91653957D01*
X155482685Y-91586918D01*
X155521907Y-91548416D01*
X155531156Y-91542712D01*
X155655212Y-91418656D01*
X155747314Y-91269334D01*
X155790171Y-91140001D01*
X156177704Y-91140001D01*
X156177899Y-91142486D01*
X156223718Y-91300198D01*
X156307314Y-91441552D01*
X156307321Y-91441561D01*
X156423438Y-91557678D01*
X156423447Y-91557685D01*
X156564803Y-91641282D01*
X156564806Y-91641283D01*
X156722504Y-91687099D01*
X156722510Y-91687100D01*
X156759350Y-91689999D01*
X156759366Y-91690000D01*
X157300000Y-91690000D01*
X157800000Y-91690000D01*
X158340634Y-91690000D01*
X158340649Y-91689999D01*
X158377489Y-91687100D01*
X158377495Y-91687099D01*
X158535193Y-91641283D01*
X158535196Y-91641282D01*
X158676552Y-91557685D01*
X158676561Y-91557678D01*
X158792678Y-91441561D01*
X158792685Y-91441552D01*
X158876281Y-91300198D01*
X158922100Y-91142486D01*
X158922295Y-91140001D01*
X158922295Y-91140000D01*
X157800000Y-91140000D01*
X157800000Y-91690000D01*
X157300000Y-91690000D01*
X157300000Y-91140000D01*
X156177705Y-91140000D01*
X156177704Y-91140001D01*
X155790171Y-91140001D01*
X155802499Y-91102797D01*
X155813000Y-91000009D01*
X155812999Y-90674298D01*
X161324500Y-90674298D01*
X161324500Y-91105701D01*
X161327401Y-91142567D01*
X161327402Y-91142573D01*
X161373254Y-91300393D01*
X161373255Y-91300396D01*
X161456917Y-91441862D01*
X161456923Y-91441870D01*
X161573129Y-91558076D01*
X161573133Y-91558079D01*
X161573135Y-91558081D01*
X161714602Y-91641744D01*
X161749497Y-91651882D01*
X161872426Y-91687597D01*
X161872429Y-91687597D01*
X161872431Y-91687598D01*
X161909306Y-91690500D01*
X162190745Y-91690500D01*
X162257784Y-91710185D01*
X162303539Y-91762989D01*
X162313483Y-91832147D01*
X162284458Y-91895703D01*
X162229750Y-91932205D01*
X162217694Y-91936200D01*
X162205668Y-91940185D01*
X162205663Y-91940187D01*
X162056342Y-92032289D01*
X161932289Y-92156342D01*
X161840187Y-92305663D01*
X161840186Y-92305666D01*
X161785001Y-92472203D01*
X161785001Y-92472204D01*
X161785000Y-92472204D01*
X161774500Y-92574983D01*
X161774500Y-93350001D01*
X161774501Y-93350019D01*
X161785000Y-93452796D01*
X161785001Y-93452799D01*
X161840185Y-93619331D01*
X161840186Y-93619334D01*
X161932288Y-93768656D01*
X162056344Y-93892712D01*
X162059628Y-93894737D01*
X162059653Y-93894753D01*
X162061445Y-93896746D01*
X162062011Y-93897193D01*
X162061934Y-93897289D01*
X162106379Y-93946699D01*
X162117603Y-94015661D01*
X162089761Y-94079744D01*
X162059665Y-94105826D01*
X162056660Y-94107679D01*
X162056655Y-94107683D01*
X161932684Y-94231654D01*
X161840643Y-94380875D01*
X161840641Y-94380880D01*
X161785494Y-94547302D01*
X161785493Y-94547309D01*
X161775000Y-94650013D01*
X161775000Y-94787500D01*
X164224999Y-94787500D01*
X164224999Y-94650028D01*
X164224998Y-94650013D01*
X164214505Y-94547302D01*
X164159358Y-94380880D01*
X164159356Y-94380875D01*
X164067315Y-94231654D01*
X163943344Y-94107683D01*
X163943341Y-94107681D01*
X163940339Y-94105829D01*
X163938713Y-94104021D01*
X163937677Y-94103202D01*
X163937817Y-94103024D01*
X163893617Y-94053880D01*
X163882397Y-93984917D01*
X163910243Y-93920836D01*
X163940344Y-93894754D01*
X163943656Y-93892712D01*
X164067712Y-93768656D01*
X164159814Y-93619334D01*
X164214999Y-93452797D01*
X164225500Y-93350009D01*
X164225499Y-92574992D01*
X164214999Y-92472203D01*
X164159814Y-92305666D01*
X164067712Y-92156344D01*
X163943656Y-92032288D01*
X163813159Y-91951797D01*
X163794336Y-91940187D01*
X163794335Y-91940186D01*
X163794334Y-91940186D01*
X163735493Y-91920688D01*
X163715461Y-91906818D01*
X163693297Y-91896696D01*
X163687248Y-91887284D01*
X163678051Y-91880916D01*
X163668697Y-91858417D01*
X163655523Y-91837918D01*
X163653064Y-91820816D01*
X163651228Y-91816400D01*
X163650500Y-91802983D01*
X163650500Y-91733111D01*
X163670185Y-91666072D01*
X163711379Y-91626379D01*
X163751443Y-91602685D01*
X163826865Y-91558081D01*
X163943081Y-91441865D01*
X164026744Y-91300398D01*
X164072598Y-91142569D01*
X164075500Y-91105694D01*
X164075500Y-90674306D01*
X164072598Y-90637431D01*
X164026744Y-90479602D01*
X163943081Y-90338135D01*
X163943078Y-90338132D01*
X163938298Y-90331969D01*
X163940635Y-90330155D01*
X163913798Y-90281050D01*
X163918756Y-90211356D01*
X163939554Y-90178998D01*
X163937903Y-90177717D01*
X163942686Y-90171550D01*
X164026281Y-90030198D01*
X164072100Y-89872486D01*
X164072295Y-89870001D01*
X164072295Y-89870000D01*
X161327705Y-89870000D01*
X161327704Y-89870001D01*
X161327899Y-89872486D01*
X161373718Y-90030198D01*
X161457314Y-90171552D01*
X161462100Y-90177722D01*
X161459640Y-90179629D01*
X161486210Y-90228288D01*
X161481226Y-90297980D01*
X161460162Y-90330781D01*
X161461699Y-90331974D01*
X161456915Y-90338140D01*
X161373255Y-90479603D01*
X161373254Y-90479606D01*
X161327402Y-90637426D01*
X161327401Y-90637432D01*
X161324500Y-90674298D01*
X155812999Y-90674298D01*
X155812999Y-90512230D01*
X155821644Y-90482785D01*
X155828168Y-90452801D01*
X155831920Y-90447788D01*
X155832683Y-90445192D01*
X155849320Y-90424547D01*
X155867052Y-90406816D01*
X155928376Y-90373333D01*
X155954731Y-90370500D01*
X156090321Y-90370500D01*
X156157360Y-90390185D01*
X156203115Y-90442989D01*
X156213059Y-90512147D01*
X156209397Y-90529095D01*
X156177900Y-90637505D01*
X156177899Y-90637511D01*
X156177704Y-90639998D01*
X156177705Y-90640000D01*
X158922295Y-90640000D01*
X158922295Y-90639998D01*
X158922100Y-90637513D01*
X158876281Y-90479801D01*
X158792685Y-90338447D01*
X158787900Y-90332278D01*
X158790366Y-90330364D01*
X158763802Y-90281776D01*
X158768749Y-90212082D01*
X158789856Y-90179232D01*
X158788301Y-90178026D01*
X158793077Y-90171868D01*
X158793081Y-90171865D01*
X158876744Y-90030398D01*
X158905628Y-89930977D01*
X158943234Y-89872094D01*
X159006706Y-89842887D01*
X159063021Y-89847642D01*
X159142299Y-89873402D01*
X159313389Y-89900500D01*
X159313390Y-89900500D01*
X159486610Y-89900500D01*
X159486611Y-89900500D01*
X159657701Y-89873402D01*
X159822445Y-89819873D01*
X159976788Y-89741232D01*
X160116928Y-89639414D01*
X160239414Y-89516928D01*
X160341232Y-89376788D01*
X160419873Y-89222445D01*
X160473402Y-89057701D01*
X160500500Y-88886611D01*
X160500500Y-88713389D01*
X160482935Y-88602486D01*
X160482541Y-88600001D01*
X161327704Y-88600001D01*
X161327899Y-88602486D01*
X161373718Y-88760198D01*
X161457314Y-88901552D01*
X161462100Y-88907722D01*
X161459753Y-88909542D01*
X161486564Y-88958642D01*
X161481580Y-89028334D01*
X161460541Y-89061069D01*
X161462100Y-89062278D01*
X161457314Y-89068447D01*
X161373718Y-89209801D01*
X161327899Y-89367513D01*
X161327704Y-89369998D01*
X161327705Y-89370000D01*
X162450000Y-89370000D01*
X162950000Y-89370000D01*
X164072295Y-89370000D01*
X164072295Y-89369998D01*
X164072100Y-89367513D01*
X164026281Y-89209801D01*
X163942685Y-89068447D01*
X163937900Y-89062278D01*
X163940252Y-89060453D01*
X163913445Y-89011405D01*
X163918402Y-88941712D01*
X163939465Y-88908936D01*
X163937900Y-88907722D01*
X163942685Y-88901552D01*
X164026281Y-88760198D01*
X164072100Y-88602486D01*
X164072295Y-88600001D01*
X164072295Y-88600000D01*
X162950000Y-88600000D01*
X162950000Y-89370000D01*
X162450000Y-89370000D01*
X162450000Y-88600000D01*
X161327705Y-88600000D01*
X161327704Y-88600001D01*
X160482541Y-88600001D01*
X160478590Y-88575054D01*
X160473402Y-88542302D01*
X160473402Y-88542299D01*
X160419873Y-88377555D01*
X160341232Y-88223212D01*
X160239414Y-88083072D01*
X160116928Y-87960586D01*
X159976788Y-87858768D01*
X159928249Y-87834036D01*
X159926340Y-87832649D01*
X159925117Y-87832383D01*
X159896863Y-87811232D01*
X159770317Y-87684686D01*
X159770297Y-87684664D01*
X159619657Y-87534024D01*
X159475197Y-87437500D01*
X159447598Y-87419059D01*
X159256420Y-87339870D01*
X159256412Y-87339868D01*
X159053469Y-87299500D01*
X159053465Y-87299500D01*
X159049500Y-87299500D01*
X159047498Y-87298912D01*
X159047404Y-87298903D01*
X159047405Y-87298885D01*
X158982461Y-87279815D01*
X158936706Y-87227011D01*
X158925500Y-87175500D01*
X158925500Y-86864313D01*
X158925499Y-86864298D01*
X158922598Y-86827432D01*
X158922597Y-86827426D01*
X158876745Y-86669606D01*
X158876744Y-86669603D01*
X158876744Y-86669602D01*
X158793081Y-86528135D01*
X158793079Y-86528133D01*
X158793076Y-86528129D01*
X158676870Y-86411923D01*
X158676862Y-86411917D01*
X158535396Y-86328255D01*
X158535393Y-86328254D01*
X158377573Y-86282402D01*
X158377567Y-86282401D01*
X158340701Y-86279500D01*
X158340694Y-86279500D01*
X157943230Y-86279500D01*
X157876191Y-86259815D01*
X157855549Y-86243181D01*
X156674240Y-85061871D01*
X156640755Y-85000548D01*
X156645739Y-84930856D01*
X156687611Y-84874923D01*
X156705627Y-84863705D01*
X156761536Y-84835218D01*
X156761535Y-84835218D01*
X156761538Y-84835217D01*
X156946566Y-84700786D01*
X157108286Y-84539066D01*
X157169684Y-84454558D01*
X157225010Y-84411896D01*
X157294624Y-84405917D01*
X157356419Y-84438522D01*
X157370313Y-84454556D01*
X157431713Y-84539066D01*
X157593433Y-84700786D01*
X157778461Y-84835217D01*
X157910598Y-84902544D01*
X157982243Y-84939049D01*
X158199750Y-85009721D01*
X158199751Y-85009721D01*
X158199754Y-85009722D01*
X158425645Y-85045500D01*
X158425646Y-85045500D01*
X158654352Y-85045500D01*
X158654353Y-85045500D01*
X158880244Y-85009722D01*
X158880247Y-85009721D01*
X158880248Y-85009721D01*
X159097754Y-84939049D01*
X159097754Y-84939048D01*
X159097757Y-84939048D01*
X159301537Y-84835217D01*
X159486565Y-84700786D01*
X159648285Y-84539066D01*
X159715455Y-84446613D01*
X159770785Y-84403949D01*
X159815773Y-84395500D01*
X161575500Y-84395500D01*
X161642539Y-84415185D01*
X161688294Y-84467989D01*
X161699500Y-84519500D01*
X161699500Y-84875018D01*
X161709999Y-84977796D01*
X161710000Y-84977799D01*
X161737859Y-85061871D01*
X161765185Y-85144334D01*
X161831039Y-85251101D01*
X161849500Y-85316197D01*
X161849500Y-86195962D01*
X161829815Y-86263001D01*
X161777011Y-86308756D01*
X161760096Y-86315038D01*
X161714604Y-86328254D01*
X161714603Y-86328255D01*
X161573137Y-86411917D01*
X161573129Y-86411923D01*
X161456923Y-86528129D01*
X161456917Y-86528137D01*
X161373255Y-86669603D01*
X161373254Y-86669606D01*
X161327402Y-86827426D01*
X161327401Y-86827432D01*
X161324500Y-86864298D01*
X161324500Y-87295701D01*
X161327401Y-87332567D01*
X161327402Y-87332573D01*
X161373254Y-87490393D01*
X161373255Y-87490396D01*
X161456917Y-87631862D01*
X161461702Y-87638031D01*
X161459369Y-87639840D01*
X161486210Y-87688995D01*
X161481226Y-87758687D01*
X161460470Y-87791021D01*
X161462097Y-87792283D01*
X161457313Y-87798449D01*
X161373718Y-87939801D01*
X161327899Y-88097513D01*
X161327704Y-88099998D01*
X161327705Y-88100000D01*
X164072295Y-88100000D01*
X164072295Y-88099998D01*
X164072100Y-88097513D01*
X164026281Y-87939801D01*
X163942685Y-87798447D01*
X163937900Y-87792278D01*
X163940366Y-87790364D01*
X163913802Y-87741776D01*
X163918749Y-87672082D01*
X163939856Y-87639232D01*
X163938301Y-87638026D01*
X163943077Y-87631868D01*
X163943081Y-87631865D01*
X164026744Y-87490398D01*
X164070477Y-87339870D01*
X164072597Y-87332573D01*
X164072598Y-87332567D01*
X164075200Y-87299500D01*
X164075500Y-87295694D01*
X164075500Y-86864306D01*
X164072598Y-86827431D01*
X164065144Y-86801776D01*
X164026745Y-86669606D01*
X164026744Y-86669603D01*
X164026744Y-86669602D01*
X163943081Y-86528135D01*
X163943079Y-86528133D01*
X163943076Y-86528129D01*
X163826870Y-86411923D01*
X163826862Y-86411917D01*
X163685396Y-86328255D01*
X163685395Y-86328254D01*
X163639904Y-86315038D01*
X163581019Y-86277431D01*
X163551813Y-86213959D01*
X163550500Y-86195962D01*
X163550500Y-85590637D01*
X163570185Y-85523598D01*
X163609404Y-85485098D01*
X163718655Y-85417712D01*
X163842711Y-85293656D01*
X163934813Y-85144334D01*
X163989998Y-84977797D01*
X164000499Y-84875009D01*
X164000498Y-83525013D01*
X164800001Y-83525013D01*
X164800001Y-83950000D01*
X165700001Y-83950000D01*
X166200001Y-83950000D01*
X167100000Y-83950000D01*
X167100000Y-83525028D01*
X167099999Y-83525013D01*
X167089506Y-83422302D01*
X167034359Y-83255880D01*
X167034357Y-83255875D01*
X166942316Y-83106654D01*
X166818346Y-82982684D01*
X166669125Y-82890643D01*
X166669120Y-82890641D01*
X166502698Y-82835494D01*
X166502691Y-82835493D01*
X166399987Y-82825000D01*
X166200001Y-82825000D01*
X166200001Y-83950000D01*
X165700001Y-83950000D01*
X165700001Y-82825000D01*
X165500030Y-82825000D01*
X165500013Y-82825001D01*
X165397303Y-82835494D01*
X165230881Y-82890641D01*
X165230876Y-82890643D01*
X165081655Y-82982684D01*
X164957685Y-83106654D01*
X164865644Y-83255875D01*
X164865642Y-83255880D01*
X164810495Y-83422302D01*
X164810494Y-83422309D01*
X164800001Y-83525013D01*
X164000498Y-83525013D01*
X164000498Y-83524992D01*
X163989998Y-83422203D01*
X163934813Y-83255666D01*
X163842711Y-83106344D01*
X163718655Y-82982288D01*
X163569333Y-82890186D01*
X163402796Y-82835001D01*
X163402794Y-82835000D01*
X163300015Y-82824500D01*
X163300008Y-82824500D01*
X162685171Y-82824500D01*
X162633090Y-82813033D01*
X162624318Y-82808973D01*
X162597862Y-82791296D01*
X162488414Y-82745962D01*
X162486073Y-82744992D01*
X162486053Y-82744983D01*
X162443085Y-82727185D01*
X162443073Y-82727182D01*
X162278770Y-82694500D01*
X162278766Y-82694500D01*
X159815773Y-82694500D01*
X159748734Y-82674815D01*
X159715455Y-82643386D01*
X159648285Y-82550934D01*
X159486565Y-82389214D01*
X159301537Y-82254783D01*
X159250091Y-82228570D01*
X159097754Y-82150950D01*
X158880247Y-82080278D01*
X158694811Y-82050908D01*
X158654353Y-82044500D01*
X158425645Y-82044500D01*
X158385187Y-82050908D01*
X158199752Y-82080278D01*
X158199749Y-82080278D01*
X157982243Y-82150950D01*
X157778460Y-82254783D01*
X157712549Y-82302671D01*
X157593433Y-82389214D01*
X157593431Y-82389216D01*
X157593430Y-82389216D01*
X157431714Y-82550932D01*
X157370317Y-82635438D01*
X157314986Y-82678103D01*
X157245373Y-82684082D01*
X157183578Y-82651476D01*
X157169681Y-82635437D01*
X157108288Y-82550937D01*
X157108283Y-82550931D01*
X156946568Y-82389216D01*
X156946566Y-82389214D01*
X156801613Y-82283899D01*
X156758949Y-82228570D01*
X156750500Y-82183582D01*
X156750500Y-81971079D01*
X156721659Y-81826092D01*
X156721658Y-81826091D01*
X156721658Y-81826087D01*
X156665084Y-81689505D01*
X156620093Y-81622171D01*
X156582952Y-81566584D01*
X154823205Y-79806837D01*
X152933421Y-77917052D01*
X152933420Y-77917051D01*
X152842624Y-77856384D01*
X152810495Y-77834916D01*
X152810488Y-77834912D01*
X152673917Y-77778343D01*
X152673907Y-77778340D01*
X152528920Y-77749500D01*
X152528918Y-77749500D01*
X148003650Y-77749500D01*
X147936611Y-77729815D01*
X147915969Y-77713181D01*
X144236818Y-74034030D01*
X144203333Y-73972707D01*
X144200499Y-73946349D01*
X144200499Y-69002129D01*
X144200498Y-69002123D01*
X144200497Y-69002116D01*
X144195299Y-68953757D01*
X144194091Y-68942516D01*
X144143797Y-68807671D01*
X144143793Y-68807664D01*
X144057547Y-68692455D01*
X144057544Y-68692452D01*
X143942335Y-68606206D01*
X143942328Y-68606202D01*
X143807482Y-68555908D01*
X143807483Y-68555908D01*
X143747883Y-68549501D01*
X143747881Y-68549500D01*
X143747873Y-68549500D01*
X143747864Y-68549500D01*
X140752129Y-68549500D01*
X140752123Y-68549501D01*
X140692516Y-68555908D01*
X140557671Y-68606202D01*
X140557664Y-68606206D01*
X140442455Y-68692452D01*
X140442452Y-68692455D01*
X140356206Y-68807664D01*
X140356202Y-68807671D01*
X140305908Y-68942517D01*
X140299501Y-69002116D01*
X140299501Y-69002123D01*
X140299500Y-69002135D01*
X140299500Y-74497870D01*
X140299501Y-74497876D01*
X140305908Y-74557483D01*
X140356202Y-74692328D01*
X140356206Y-74692335D01*
X140442452Y-74807544D01*
X140442455Y-74807547D01*
X140557664Y-74893793D01*
X140557671Y-74893797D01*
X140692517Y-74944091D01*
X140692516Y-74944091D01*
X140699444Y-74944835D01*
X140752127Y-74950500D01*
X142696348Y-74950499D01*
X142763387Y-74970184D01*
X142784029Y-74986818D01*
X144505018Y-76707807D01*
X146209530Y-78412318D01*
X146243015Y-78473641D01*
X146238031Y-78543333D01*
X146209530Y-78587680D01*
X144634030Y-80163181D01*
X144572707Y-80196666D01*
X144546349Y-80199500D01*
X142144698Y-80199500D01*
X142106667Y-80203041D01*
X142106665Y-80203042D01*
X141970438Y-80249466D01*
X141852804Y-80332394D01*
X141763306Y-80445093D01*
X141763302Y-80445101D01*
X141709179Y-80578453D01*
X141694816Y-80721661D01*
X141699983Y-80759510D01*
X142343119Y-83524992D01*
X142719710Y-85144334D01*
X142722069Y-85154475D01*
X142749467Y-85229564D01*
X142765885Y-85252853D01*
X142810540Y-85316197D01*
X142832391Y-85347192D01*
X142832392Y-85347194D01*
X142945093Y-85436693D01*
X142945101Y-85436698D01*
X143078450Y-85490820D01*
X143078452Y-85490820D01*
X143078456Y-85490822D01*
X143157802Y-85500500D01*
X143157806Y-85500500D01*
X144842191Y-85500500D01*
X144842197Y-85500500D01*
X144921544Y-85490821D01*
X144921546Y-85490820D01*
X144921547Y-85490820D01*
X145054896Y-85436699D01*
X145054895Y-85436699D01*
X145054901Y-85436697D01*
X145167607Y-85347194D01*
X145250533Y-85229563D01*
X145277933Y-85154470D01*
X146248575Y-80980706D01*
X146281668Y-80921118D01*
X147915969Y-79286819D01*
X147977292Y-79253334D01*
X148003650Y-79250500D01*
X152092770Y-79250500D01*
X152159809Y-79270185D01*
X152180451Y-79286819D01*
X154794022Y-81900390D01*
X154827507Y-81961713D01*
X154822523Y-82031405D01*
X154780651Y-82087338D01*
X154715187Y-82111755D01*
X154663008Y-82104253D01*
X154519982Y-82050908D01*
X154519983Y-82050908D01*
X154460383Y-82044501D01*
X154460381Y-82044500D01*
X154460373Y-82044500D01*
X154460364Y-82044500D01*
X152459629Y-82044500D01*
X152459623Y-82044501D01*
X152400016Y-82050908D01*
X152265171Y-82101202D01*
X152265164Y-82101206D01*
X152149955Y-82187452D01*
X152149952Y-82187455D01*
X152063706Y-82302664D01*
X152063702Y-82302671D01*
X152013408Y-82437517D01*
X152007001Y-82497116D01*
X152007000Y-82497135D01*
X152007000Y-84592870D01*
X152007001Y-84592876D01*
X152013408Y-84652483D01*
X152063702Y-84787328D01*
X152063706Y-84787335D01*
X152149952Y-84902544D01*
X152149955Y-84902547D01*
X152265164Y-84988793D01*
X152265171Y-84988797D01*
X152296678Y-85000548D01*
X152400017Y-85039091D01*
X152459627Y-85045500D01*
X153132769Y-85045499D01*
X153199808Y-85065183D01*
X153220450Y-85081818D01*
X153662230Y-85523598D01*
X154020590Y-85881957D01*
X154054075Y-85943280D01*
X154049091Y-86012971D01*
X154007219Y-86068905D01*
X153991364Y-86078996D01*
X153921528Y-86116324D01*
X153863550Y-86147315D01*
X153863548Y-86147315D01*
X153863545Y-86147318D01*
X153703589Y-86278590D01*
X153626106Y-86373003D01*
X153568360Y-86412337D01*
X153498515Y-86414208D01*
X153465156Y-86399877D01*
X153369124Y-86340643D01*
X153369119Y-86340641D01*
X153202697Y-86285494D01*
X153202690Y-86285493D01*
X153099986Y-86275000D01*
X152962500Y-86275000D01*
X152962500Y-88724999D01*
X153099972Y-88724999D01*
X153099986Y-88724998D01*
X153202697Y-88714505D01*
X153369119Y-88659358D01*
X153369130Y-88659353D01*
X153465157Y-88600123D01*
X153532549Y-88581682D01*
X153599213Y-88602604D01*
X153626108Y-88626997D01*
X153703589Y-88721410D01*
X153799320Y-88799973D01*
X153863550Y-88852685D01*
X154046046Y-88950232D01*
X154244066Y-89010300D01*
X154244065Y-89010300D01*
X154282647Y-89014100D01*
X154398392Y-89025500D01*
X154776006Y-89025500D01*
X154805446Y-89034144D01*
X154835433Y-89040668D01*
X154840448Y-89044422D01*
X154843045Y-89045185D01*
X154863687Y-89061819D01*
X154888818Y-89086950D01*
X154922303Y-89148273D01*
X154917319Y-89217965D01*
X154888818Y-89262312D01*
X154887949Y-89263181D01*
X154880372Y-89267317D01*
X154875447Y-89273898D01*
X154852967Y-89282282D01*
X154826626Y-89296666D01*
X154800268Y-89299500D01*
X154312498Y-89299500D01*
X154312480Y-89299501D01*
X154209703Y-89310000D01*
X154209700Y-89310001D01*
X154043168Y-89365185D01*
X154043161Y-89365189D01*
X154013413Y-89383537D01*
X153946020Y-89401976D01*
X153879357Y-89381052D01*
X153852464Y-89356661D01*
X153808910Y-89303589D01*
X153648952Y-89172317D01*
X153648953Y-89172317D01*
X153648950Y-89172315D01*
X153466454Y-89074768D01*
X153268434Y-89014700D01*
X153268432Y-89014699D01*
X153268434Y-89014699D01*
X153149305Y-89002966D01*
X153114108Y-88999500D01*
X152310892Y-88999500D01*
X152272798Y-89003251D01*
X152156567Y-89014699D01*
X151999720Y-89062278D01*
X151977169Y-89069119D01*
X151958543Y-89074769D01*
X151848398Y-89133643D01*
X151776050Y-89172315D01*
X151776048Y-89172316D01*
X151776047Y-89172317D01*
X151616089Y-89303589D01*
X151484815Y-89463548D01*
X151473908Y-89483955D01*
X151424945Y-89533798D01*
X151364551Y-89549500D01*
X146289984Y-89549500D01*
X146222945Y-89529815D01*
X146177190Y-89477011D01*
X146169207Y-89453588D01*
X145984501Y-88659353D01*
X145836974Y-88024986D01*
X151625001Y-88024986D01*
X151635494Y-88127697D01*
X151690641Y-88294119D01*
X151690643Y-88294124D01*
X151782684Y-88443345D01*
X151906654Y-88567315D01*
X152055875Y-88659356D01*
X152055880Y-88659358D01*
X152222302Y-88714505D01*
X152222309Y-88714506D01*
X152325019Y-88724999D01*
X152462499Y-88724999D01*
X152462500Y-88724998D01*
X152462500Y-87750000D01*
X151625001Y-87750000D01*
X151625001Y-88024986D01*
X145836974Y-88024986D01*
X145592794Y-86975013D01*
X151625000Y-86975013D01*
X151625000Y-87250000D01*
X152462500Y-87250000D01*
X152462500Y-86275000D01*
X152325027Y-86275000D01*
X152325012Y-86275001D01*
X152222302Y-86285494D01*
X152055880Y-86340641D01*
X152055875Y-86340643D01*
X151906654Y-86432684D01*
X151782684Y-86556654D01*
X151690643Y-86705875D01*
X151690641Y-86705880D01*
X151635494Y-86872302D01*
X151635493Y-86872309D01*
X151625000Y-86975013D01*
X145592794Y-86975013D01*
X145569416Y-86874486D01*
X145525071Y-86748992D01*
X145509935Y-86725013D01*
X145428786Y-86596449D01*
X145428784Y-86596447D01*
X145300973Y-86469159D01*
X145300971Y-86469157D01*
X145300970Y-86469156D01*
X145209462Y-86411919D01*
X145148033Y-86373496D01*
X144977644Y-86314266D01*
X144977645Y-86314266D01*
X144845385Y-86299501D01*
X144845363Y-86299499D01*
X143154642Y-86299499D01*
X143154641Y-86299499D01*
X143154636Y-86299499D01*
X143154631Y-86299499D01*
X143154620Y-86299500D01*
X143022355Y-86314266D01*
X142851970Y-86373495D01*
X142851967Y-86373496D01*
X142851966Y-86373497D01*
X142809791Y-86399877D01*
X142699032Y-86469155D01*
X142699031Y-86469156D01*
X142571217Y-86596446D01*
X142571214Y-86596450D01*
X142474929Y-86748992D01*
X142474926Y-86748998D01*
X142430584Y-86874483D01*
X142430583Y-86874484D01*
X141874397Y-89266088D01*
X141840039Y-89326926D01*
X141778243Y-89359531D01*
X141753620Y-89362000D01*
X139326095Y-89362000D01*
X139259056Y-89342315D01*
X139230241Y-89316665D01*
X139224772Y-89310001D01*
X139096410Y-89153590D01*
X139096408Y-89153588D01*
X139096407Y-89153587D01*
X138983672Y-89061069D01*
X138936450Y-89022315D01*
X138753954Y-88924768D01*
X138555934Y-88864700D01*
X138555932Y-88864699D01*
X138555934Y-88864699D01*
X138433915Y-88852682D01*
X138401608Y-88849500D01*
X136098392Y-88849500D01*
X136066055Y-88852685D01*
X135944067Y-88864699D01*
X135746043Y-88924769D01*
X135635898Y-88983643D01*
X135563550Y-89022315D01*
X135563548Y-89022316D01*
X135563547Y-89022317D01*
X135403592Y-89153587D01*
X135375156Y-89188237D01*
X135275229Y-89310000D01*
X135269759Y-89316665D01*
X135212013Y-89355999D01*
X135173905Y-89362000D01*
X134220911Y-89362000D01*
X134153872Y-89342315D01*
X134108117Y-89289511D01*
X134098173Y-89220353D01*
X134111553Y-89179547D01*
X134125230Y-89153958D01*
X134125230Y-89153957D01*
X134125232Y-89153954D01*
X134185300Y-88955934D01*
X134200500Y-88801608D01*
X134200500Y-87649986D01*
X135400001Y-87649986D01*
X135410494Y-87752697D01*
X135465641Y-87919119D01*
X135465643Y-87919124D01*
X135557684Y-88068345D01*
X135681654Y-88192315D01*
X135830875Y-88284356D01*
X135830880Y-88284358D01*
X135997302Y-88339505D01*
X135997309Y-88339506D01*
X136100019Y-88349999D01*
X136999999Y-88349999D01*
X137500000Y-88349999D01*
X138399972Y-88349999D01*
X138399986Y-88349998D01*
X138502697Y-88339505D01*
X138669119Y-88284358D01*
X138669124Y-88284356D01*
X138818345Y-88192315D01*
X138942315Y-88068345D01*
X139034356Y-87919124D01*
X139034358Y-87919119D01*
X139089505Y-87752697D01*
X139089506Y-87752690D01*
X139099999Y-87649986D01*
X139100000Y-87649973D01*
X139100000Y-87437500D01*
X137500000Y-87437500D01*
X137500000Y-88349999D01*
X136999999Y-88349999D01*
X137000000Y-88349998D01*
X137000000Y-87437500D01*
X135400001Y-87437500D01*
X135400001Y-87649986D01*
X134200500Y-87649986D01*
X134200500Y-86725013D01*
X135400000Y-86725013D01*
X135400000Y-86937500D01*
X137000000Y-86937500D01*
X137500000Y-86937500D01*
X139099999Y-86937500D01*
X139099999Y-86725028D01*
X139099998Y-86725013D01*
X139089505Y-86622302D01*
X139034358Y-86455880D01*
X139034356Y-86455875D01*
X138942315Y-86306654D01*
X138818345Y-86182684D01*
X138669124Y-86090643D01*
X138669119Y-86090641D01*
X138502697Y-86035494D01*
X138502690Y-86035493D01*
X138399986Y-86025000D01*
X137500000Y-86025000D01*
X137500000Y-86937500D01*
X137000000Y-86937500D01*
X137000000Y-86025000D01*
X136100028Y-86025000D01*
X136100012Y-86025001D01*
X135997302Y-86035494D01*
X135830880Y-86090641D01*
X135830875Y-86090643D01*
X135681654Y-86182684D01*
X135557684Y-86306654D01*
X135465643Y-86455875D01*
X135465641Y-86455880D01*
X135410494Y-86622302D01*
X135410493Y-86622309D01*
X135400000Y-86725013D01*
X134200500Y-86725013D01*
X134200500Y-86698392D01*
X134185300Y-86544066D01*
X134125232Y-86346046D01*
X134027685Y-86163550D01*
X133967852Y-86090643D01*
X133896410Y-86003589D01*
X133736452Y-85872317D01*
X133736453Y-85872317D01*
X133736450Y-85872315D01*
X133553954Y-85774768D01*
X133355934Y-85714700D01*
X133355932Y-85714699D01*
X133355934Y-85714699D01*
X133236805Y-85702966D01*
X133201608Y-85699500D01*
X133201605Y-85699500D01*
X132274500Y-85699500D01*
X132207461Y-85679815D01*
X132161706Y-85627011D01*
X132150500Y-85575500D01*
X132150500Y-77856383D01*
X132150499Y-77856379D01*
X132145252Y-77829999D01*
X132113973Y-77672749D01*
X132063336Y-77550500D01*
X132063336Y-77550499D01*
X132042326Y-77499776D01*
X132042319Y-77499763D01*
X131938302Y-77344092D01*
X131938299Y-77344088D01*
X128136819Y-73542608D01*
X128103334Y-73481285D01*
X128100500Y-73454927D01*
X128100500Y-71648395D01*
X128085300Y-71494067D01*
X128083908Y-71489478D01*
X128025232Y-71296046D01*
X127927685Y-71113550D01*
X127839099Y-71005607D01*
X127796410Y-70953589D01*
X127636452Y-70822317D01*
X127636453Y-70822317D01*
X127636450Y-70822315D01*
X127453954Y-70724768D01*
X127255934Y-70664700D01*
X127255932Y-70664699D01*
X127255934Y-70664699D01*
X127136805Y-70652966D01*
X127101608Y-70649500D01*
X124898392Y-70649500D01*
X124860298Y-70653251D01*
X124744067Y-70664699D01*
X124546043Y-70724769D01*
X124435898Y-70783643D01*
X124363550Y-70822315D01*
X124363548Y-70822316D01*
X124363547Y-70822317D01*
X124203589Y-70953589D01*
X124082051Y-71101686D01*
X124072315Y-71113550D01*
X124041268Y-71171635D01*
X123974769Y-71296043D01*
X123914699Y-71494067D01*
X123899500Y-71648395D01*
X123899500Y-73851604D01*
X123914699Y-74005932D01*
X123944734Y-74104944D01*
X123974768Y-74203954D01*
X124072315Y-74386450D01*
X124072317Y-74386452D01*
X124203589Y-74546410D01*
X124300209Y-74625702D01*
X124363550Y-74677685D01*
X124546046Y-74775232D01*
X124744066Y-74835300D01*
X124744065Y-74835300D01*
X124782647Y-74839100D01*
X124898392Y-74850500D01*
X126704928Y-74850500D01*
X126771967Y-74870185D01*
X126792609Y-74886819D01*
X130213181Y-78307391D01*
X130246666Y-78368714D01*
X130249500Y-78395072D01*
X130249500Y-85575500D01*
X130229815Y-85642539D01*
X130177011Y-85688294D01*
X130125500Y-85699500D01*
X129198392Y-85699500D01*
X129160298Y-85703251D01*
X129044067Y-85714699D01*
X128846043Y-85774769D01*
X128735898Y-85833643D01*
X128663550Y-85872315D01*
X128663548Y-85872316D01*
X128663547Y-85872317D01*
X128503589Y-86003589D01*
X128372317Y-86163547D01*
X128274769Y-86346043D01*
X128214699Y-86544067D01*
X128199500Y-86698395D01*
X128199500Y-88801604D01*
X128214699Y-88955932D01*
X128274769Y-89153957D01*
X128293093Y-89188237D01*
X128307335Y-89256640D01*
X128282336Y-89321884D01*
X128271416Y-89334372D01*
X120962181Y-96643608D01*
X120900858Y-96677093D01*
X120831166Y-96672109D01*
X120775233Y-96630237D01*
X120750816Y-96564773D01*
X120750500Y-96555927D01*
X120750500Y-88799986D01*
X121100001Y-88799986D01*
X121110494Y-88902697D01*
X121165641Y-89069119D01*
X121165643Y-89069124D01*
X121257684Y-89218345D01*
X121381654Y-89342315D01*
X121381653Y-89342315D01*
X121530875Y-89434356D01*
X121530880Y-89434358D01*
X121697302Y-89489505D01*
X121697309Y-89489506D01*
X121800019Y-89499999D01*
X123549999Y-89499999D01*
X124050000Y-89499999D01*
X125799972Y-89499999D01*
X125799986Y-89499998D01*
X125902697Y-89489505D01*
X126069119Y-89434358D01*
X126069124Y-89434356D01*
X126218346Y-89342315D01*
X126342315Y-89218345D01*
X126434356Y-89069124D01*
X126434358Y-89069119D01*
X126489505Y-88902697D01*
X126489506Y-88902690D01*
X126499999Y-88799986D01*
X126500000Y-88799973D01*
X126500000Y-88000000D01*
X124050000Y-88000000D01*
X124050000Y-89499999D01*
X123549999Y-89499999D01*
X123550000Y-89499998D01*
X123550000Y-88000000D01*
X121100001Y-88000000D01*
X121100001Y-88799986D01*
X120750500Y-88799986D01*
X120750500Y-86700013D01*
X121100000Y-86700013D01*
X121100000Y-87500000D01*
X123550000Y-87500000D01*
X124050000Y-87500000D01*
X126499999Y-87500000D01*
X126499999Y-86700028D01*
X126499998Y-86700013D01*
X126489505Y-86597302D01*
X126434358Y-86430880D01*
X126434356Y-86430875D01*
X126342315Y-86281654D01*
X126218345Y-86157684D01*
X126069124Y-86065643D01*
X126069119Y-86065641D01*
X125902697Y-86010494D01*
X125902690Y-86010493D01*
X125799986Y-86000000D01*
X124050000Y-86000000D01*
X124050000Y-87500000D01*
X123550000Y-87500000D01*
X123550000Y-86000000D01*
X121800028Y-86000000D01*
X121800012Y-86000001D01*
X121697302Y-86010494D01*
X121530880Y-86065641D01*
X121530875Y-86065643D01*
X121381654Y-86157684D01*
X121257684Y-86281654D01*
X121165643Y-86430875D01*
X121165641Y-86430880D01*
X121110494Y-86597302D01*
X121110493Y-86597309D01*
X121100000Y-86700013D01*
X120750500Y-86700013D01*
X120750500Y-77712013D01*
X124200000Y-77712013D01*
X124200000Y-77947984D01*
X124230799Y-78181913D01*
X124291870Y-78409836D01*
X124382160Y-78627818D01*
X124382165Y-78627827D01*
X124500144Y-78832170D01*
X124500145Y-78832171D01*
X124562721Y-78913722D01*
X125398958Y-78077486D01*
X125423978Y-78137889D01*
X125495112Y-78244350D01*
X125585649Y-78334887D01*
X125692110Y-78406021D01*
X125752511Y-78431040D01*
X124916275Y-79267276D01*
X124997827Y-79329853D01*
X124997828Y-79329854D01*
X125202171Y-79447833D01*
X125202180Y-79447838D01*
X125420163Y-79538128D01*
X125420161Y-79538128D01*
X125648085Y-79599199D01*
X125882014Y-79629998D01*
X125882029Y-79629999D01*
X126117971Y-79629999D01*
X126117985Y-79629998D01*
X126351914Y-79599199D01*
X126579837Y-79538128D01*
X126797819Y-79447838D01*
X126797828Y-79447833D01*
X127002181Y-79329849D01*
X127083723Y-79267278D01*
X127083723Y-79267275D01*
X126247487Y-78431040D01*
X126307890Y-78406021D01*
X126414351Y-78334887D01*
X126504888Y-78244350D01*
X126576022Y-78137889D01*
X126601041Y-78077487D01*
X127437276Y-78913722D01*
X127437279Y-78913722D01*
X127499850Y-78832180D01*
X127617834Y-78627827D01*
X127617839Y-78627818D01*
X127708129Y-78409836D01*
X127769200Y-78181913D01*
X127799999Y-77947984D01*
X127800000Y-77947970D01*
X127800000Y-77712027D01*
X127799999Y-77712013D01*
X127769200Y-77478084D01*
X127708129Y-77250161D01*
X127617839Y-77032179D01*
X127617834Y-77032170D01*
X127499855Y-76827827D01*
X127499854Y-76827826D01*
X127437277Y-76746274D01*
X126601041Y-77582510D01*
X126576022Y-77522109D01*
X126504888Y-77415648D01*
X126414351Y-77325111D01*
X126307890Y-77253977D01*
X126247488Y-77228957D01*
X127083723Y-76392720D01*
X127002172Y-76330144D01*
X127002171Y-76330143D01*
X126797828Y-76212164D01*
X126797819Y-76212159D01*
X126579836Y-76121869D01*
X126579838Y-76121869D01*
X126351914Y-76060798D01*
X126117985Y-76029999D01*
X125882014Y-76029999D01*
X125648085Y-76060798D01*
X125420162Y-76121869D01*
X125202180Y-76212159D01*
X125202171Y-76212164D01*
X124997828Y-76330143D01*
X124997818Y-76330149D01*
X124916275Y-76392719D01*
X124916275Y-76392720D01*
X125752512Y-77228957D01*
X125692110Y-77253977D01*
X125585649Y-77325111D01*
X125495112Y-77415648D01*
X125423978Y-77522109D01*
X125398958Y-77582510D01*
X124562721Y-76746274D01*
X124562720Y-76746274D01*
X124500150Y-76827817D01*
X124500144Y-76827827D01*
X124382165Y-77032170D01*
X124382160Y-77032179D01*
X124291870Y-77250161D01*
X124230799Y-77478084D01*
X124200000Y-77712013D01*
X120750500Y-77712013D01*
X120750500Y-67523995D01*
X148194500Y-67523995D01*
X148194500Y-76076008D01*
X148212909Y-76247226D01*
X148224117Y-76298745D01*
X148233864Y-76338629D01*
X148233865Y-76338632D01*
X148233866Y-76338635D01*
X148300335Y-76506316D01*
X148402450Y-76655002D01*
X148448205Y-76707806D01*
X148517158Y-76778180D01*
X148663730Y-76883308D01*
X148830019Y-76953185D01*
X148895252Y-76972339D01*
X148897075Y-76972875D01*
X148944752Y-76985303D01*
X148944757Y-76985303D01*
X148944759Y-76985304D01*
X149123995Y-77005499D01*
X149123996Y-77005500D01*
X149124000Y-77005500D01*
X154875991Y-77005500D01*
X154876000Y-77005500D01*
X155047228Y-76987090D01*
X155098739Y-76975884D01*
X155138635Y-76966134D01*
X155306316Y-76899665D01*
X155455002Y-76797550D01*
X155507806Y-76751795D01*
X155578180Y-76682842D01*
X155683308Y-76536270D01*
X155753185Y-76369981D01*
X155772870Y-76302942D01*
X155773966Y-76298739D01*
X155785303Y-76255247D01*
X155786422Y-76245315D01*
X155805500Y-76076000D01*
X155805500Y-71385011D01*
X155825185Y-71317972D01*
X155841819Y-71297330D01*
X157297330Y-69841819D01*
X157358653Y-69808334D01*
X157385011Y-69805500D01*
X157870500Y-69805500D01*
X157937539Y-69825185D01*
X157983294Y-69877989D01*
X157994500Y-69929500D01*
X157994500Y-70747611D01*
X157999740Y-70839345D01*
X157999743Y-70839378D01*
X158002956Y-70867404D01*
X158002958Y-70867415D01*
X158031232Y-71005607D01*
X158031234Y-71005612D01*
X158101751Y-71171623D01*
X158101757Y-71171635D01*
X158136090Y-71232458D01*
X158136098Y-71232471D01*
X158161629Y-71274632D01*
X158276065Y-71414057D01*
X160941996Y-74005934D01*
X162480870Y-75502062D01*
X163245359Y-76245315D01*
X164221663Y-77194500D01*
X165402402Y-78342442D01*
X165462910Y-78395649D01*
X165462919Y-78395656D01*
X165462920Y-78395657D01*
X165482319Y-78411065D01*
X165590072Y-78483308D01*
X165756361Y-78553185D01*
X165821594Y-78572339D01*
X165823417Y-78572875D01*
X165871094Y-78585303D01*
X165871099Y-78585303D01*
X165871101Y-78585304D01*
X166050337Y-78605499D01*
X166050338Y-78605500D01*
X166050342Y-78605500D01*
X173063476Y-78605500D01*
X173130515Y-78625185D01*
X173142859Y-78634241D01*
X174049843Y-79390061D01*
X174089040Y-79420725D01*
X174089049Y-79420732D01*
X174101370Y-79429771D01*
X174101384Y-79429781D01*
X174184624Y-79483308D01*
X174350913Y-79553185D01*
X174416146Y-79572339D01*
X174417969Y-79572875D01*
X174465646Y-79585303D01*
X174465652Y-79585304D01*
X174468590Y-79585634D01*
X174484378Y-79587413D01*
X174486194Y-79588176D01*
X174488147Y-79587896D01*
X174518268Y-79601652D01*
X174548792Y-79614476D01*
X174549908Y-79616101D01*
X174551703Y-79616921D01*
X174569603Y-79644774D01*
X174588351Y-79672069D01*
X174588749Y-79674566D01*
X174589477Y-79675699D01*
X174594500Y-79710634D01*
X174594500Y-79806837D01*
X174574815Y-79873876D01*
X174556863Y-79895817D01*
X168927635Y-85359480D01*
X168865819Y-85392046D01*
X168841272Y-85394500D01*
X167102099Y-85394500D01*
X167035060Y-85374815D01*
X166989305Y-85322011D01*
X166979361Y-85252853D01*
X166996560Y-85205403D01*
X167034357Y-85144124D01*
X167034359Y-85144119D01*
X167089506Y-84977697D01*
X167089507Y-84977690D01*
X167100000Y-84874986D01*
X167100001Y-84874973D01*
X167100001Y-84450000D01*
X164800002Y-84450000D01*
X164800002Y-84874986D01*
X164810495Y-84977697D01*
X164865642Y-85144119D01*
X164865644Y-85144124D01*
X164957685Y-85293345D01*
X165081655Y-85417315D01*
X165230876Y-85509356D01*
X165230881Y-85509358D01*
X165397303Y-85564505D01*
X165397312Y-85564507D01*
X165422827Y-85567113D01*
X165487520Y-85593507D01*
X165527673Y-85650687D01*
X165530538Y-85720498D01*
X165515623Y-85755800D01*
X165428464Y-85896413D01*
X165398532Y-85959549D01*
X165378795Y-86004705D01*
X165378790Y-86004719D01*
X165343451Y-86132757D01*
X165341851Y-86138083D01*
X165311750Y-86230726D01*
X165304307Y-86248697D01*
X165295834Y-86265327D01*
X165291750Y-86273456D01*
X165230271Y-86443027D01*
X165230267Y-86443041D01*
X165216751Y-86499340D01*
X165214697Y-86508117D01*
X165214695Y-86508126D01*
X165194500Y-86687359D01*
X165194500Y-91276008D01*
X165212909Y-91447226D01*
X165224117Y-91498745D01*
X165233864Y-91538629D01*
X165233865Y-91538632D01*
X165233866Y-91538635D01*
X165300335Y-91706316D01*
X165337410Y-91760300D01*
X165402449Y-91855001D01*
X165402453Y-91855005D01*
X165448202Y-91907803D01*
X165448206Y-91907807D01*
X165507621Y-91968447D01*
X165517158Y-91978180D01*
X165663730Y-92083308D01*
X165830019Y-92153185D01*
X165895252Y-92172339D01*
X165897075Y-92172875D01*
X165944752Y-92185303D01*
X165944757Y-92185303D01*
X165944759Y-92185304D01*
X166123995Y-92205499D01*
X166123996Y-92205500D01*
X166124000Y-92205500D01*
X170675991Y-92205500D01*
X170676000Y-92205500D01*
X170847228Y-92187090D01*
X170898739Y-92175884D01*
X170938635Y-92166134D01*
X171106316Y-92099665D01*
X171255002Y-91997550D01*
X171307806Y-91951795D01*
X171378180Y-91882842D01*
X171483308Y-91736270D01*
X171553185Y-91569981D01*
X171572870Y-91502942D01*
X171576619Y-91488561D01*
X171585303Y-91455247D01*
X171585304Y-91455241D01*
X171605500Y-91276000D01*
X171605500Y-89844985D01*
X172992500Y-89844985D01*
X173002993Y-89947689D01*
X173002994Y-89947696D01*
X173058141Y-90114118D01*
X173058143Y-90114123D01*
X173150184Y-90263344D01*
X173274155Y-90387315D01*
X173423376Y-90479356D01*
X173423381Y-90479358D01*
X173589803Y-90534505D01*
X173589810Y-90534506D01*
X173692514Y-90544999D01*
X173692527Y-90545000D01*
X174365000Y-90545000D01*
X174865000Y-90545000D01*
X175537473Y-90545000D01*
X175537485Y-90544999D01*
X175640189Y-90534506D01*
X175640196Y-90534505D01*
X175806618Y-90479358D01*
X175806623Y-90479356D01*
X175955844Y-90387315D01*
X176079815Y-90263344D01*
X176171856Y-90114123D01*
X176171858Y-90114118D01*
X176227005Y-89947696D01*
X176227006Y-89947689D01*
X176237499Y-89844985D01*
X176237500Y-89844972D01*
X176237500Y-89000000D01*
X174865000Y-89000000D01*
X174865000Y-90545000D01*
X174365000Y-90545000D01*
X174365000Y-89000000D01*
X172992500Y-89000000D01*
X172992500Y-89844985D01*
X171605500Y-89844985D01*
X171605500Y-88585010D01*
X171625185Y-88517971D01*
X171641819Y-88497329D01*
X172839276Y-87299872D01*
X172900599Y-87266387D01*
X172970291Y-87271371D01*
X173026224Y-87313243D01*
X173050641Y-87378707D01*
X173044663Y-87426557D01*
X173002994Y-87552303D01*
X173002993Y-87552310D01*
X172992500Y-87655014D01*
X172992500Y-88500000D01*
X174365000Y-88500000D01*
X174865000Y-88500000D01*
X176237500Y-88500000D01*
X176237500Y-87655027D01*
X176237499Y-87655014D01*
X176227006Y-87552310D01*
X176227005Y-87552303D01*
X176171858Y-87385881D01*
X176171856Y-87385876D01*
X176079815Y-87236655D01*
X175955844Y-87112684D01*
X175806623Y-87020643D01*
X175806618Y-87020641D01*
X175640196Y-86965494D01*
X175640189Y-86965493D01*
X175537485Y-86955000D01*
X174865000Y-86955000D01*
X174865000Y-88500000D01*
X174365000Y-88500000D01*
X174365000Y-86955000D01*
X173692514Y-86955000D01*
X173589810Y-86965493D01*
X173589803Y-86965494D01*
X173464057Y-87007163D01*
X173394228Y-87009565D01*
X173334187Y-86973833D01*
X173302994Y-86911312D01*
X173310555Y-86841853D01*
X173337372Y-86801776D01*
X175057330Y-85081818D01*
X178533255Y-81605894D01*
X178590882Y-81541738D01*
X178607516Y-81521096D01*
X178683308Y-81408908D01*
X178753185Y-81242619D01*
X178772870Y-81175580D01*
X178772875Y-81175562D01*
X178785303Y-81127885D01*
X178801886Y-80980709D01*
X178805500Y-80948638D01*
X178805500Y-79729500D01*
X178825185Y-79662461D01*
X178877989Y-79616706D01*
X178929500Y-79605500D01*
X178960232Y-79605500D01*
X178960262Y-79605500D01*
X178979996Y-79605258D01*
X178986076Y-79605109D01*
X179054969Y-79600460D01*
X179230899Y-79560666D01*
X179296893Y-79537718D01*
X179342931Y-79520113D01*
X179500523Y-79432365D01*
X180816261Y-78492552D01*
X180931457Y-78392513D01*
X180963698Y-78358649D01*
X180978180Y-78343029D01*
X181083308Y-78196457D01*
X181153185Y-78030168D01*
X181172870Y-77963129D01*
X181176818Y-77947984D01*
X181185303Y-77915434D01*
X181187716Y-77894018D01*
X181205500Y-77736187D01*
X181205500Y-73924000D01*
X181187090Y-73752772D01*
X181175884Y-73701261D01*
X181166134Y-73661365D01*
X181099665Y-73493684D01*
X180997550Y-73344998D01*
X180951795Y-73292194D01*
X180882842Y-73221820D01*
X180736270Y-73116692D01*
X180569981Y-73046815D01*
X180569982Y-73046815D01*
X180569979Y-73046814D01*
X180502924Y-73027124D01*
X180455247Y-73014696D01*
X180276004Y-72994500D01*
X180276000Y-72994500D01*
X174066363Y-72994500D01*
X174066362Y-72994500D01*
X173901762Y-73011497D01*
X173901760Y-73011497D01*
X173901758Y-73011498D01*
X173886439Y-73014696D01*
X173852142Y-73021855D01*
X173818751Y-73029571D01*
X173818747Y-73029572D01*
X173793246Y-73039187D01*
X173723574Y-73044419D01*
X173662132Y-73011153D01*
X173628429Y-72949950D01*
X173625500Y-72923160D01*
X173625500Y-71997070D01*
X173585474Y-71744361D01*
X173506410Y-71501025D01*
X173506410Y-71501024D01*
X173462096Y-71414055D01*
X173390252Y-71273053D01*
X173316568Y-71171635D01*
X173239867Y-71066064D01*
X173239863Y-71066059D01*
X173058940Y-70885136D01*
X173058935Y-70885132D01*
X172851950Y-70734750D01*
X172851949Y-70734749D01*
X172851947Y-70734748D01*
X172714469Y-70664699D01*
X172623975Y-70618589D01*
X172623972Y-70618588D01*
X172507879Y-70580868D01*
X172380640Y-70539526D01*
X172254284Y-70519513D01*
X172127930Y-70499500D01*
X171872070Y-70499500D01*
X171787833Y-70512842D01*
X171619359Y-70539526D01*
X171376027Y-70618588D01*
X171376024Y-70618589D01*
X171148049Y-70734750D01*
X170941064Y-70885132D01*
X170941059Y-70885136D01*
X170760136Y-71066059D01*
X170760132Y-71066064D01*
X170609750Y-71273049D01*
X170493589Y-71501024D01*
X170493588Y-71501027D01*
X170414526Y-71744359D01*
X170374500Y-71997070D01*
X170374500Y-74502928D01*
X170397969Y-74651102D01*
X170389015Y-74720395D01*
X170344019Y-74773847D01*
X170277267Y-74794487D01*
X170275496Y-74794500D01*
X167185012Y-74794500D01*
X167117973Y-74774815D01*
X167097331Y-74758181D01*
X162426830Y-70087680D01*
X162393345Y-70026357D01*
X162395230Y-70000000D01*
X173969340Y-70000000D01*
X175266988Y-70000000D01*
X175234075Y-70057007D01*
X175200000Y-70184174D01*
X175200000Y-70315826D01*
X175234075Y-70442993D01*
X175266988Y-70500000D01*
X173969340Y-70500000D01*
X173990013Y-70630523D01*
X174069051Y-70873781D01*
X174069052Y-70873784D01*
X174185175Y-71101686D01*
X174335521Y-71308619D01*
X174516380Y-71489478D01*
X174723313Y-71639824D01*
X174951215Y-71755947D01*
X174951218Y-71755948D01*
X175194476Y-71834986D01*
X175447111Y-71875000D01*
X176450000Y-71875000D01*
X176450000Y-70750000D01*
X176950000Y-70750000D01*
X176950000Y-71875000D01*
X177952889Y-71875000D01*
X178205523Y-71834986D01*
X178448781Y-71755948D01*
X178448784Y-71755947D01*
X178676686Y-71639824D01*
X178883619Y-71489478D01*
X179064478Y-71308619D01*
X179214824Y-71101686D01*
X179330947Y-70873784D01*
X179330948Y-70873781D01*
X179409986Y-70630523D01*
X179430660Y-70500000D01*
X178133012Y-70500000D01*
X178165925Y-70442993D01*
X178200000Y-70315826D01*
X178200000Y-70184174D01*
X178165925Y-70057007D01*
X178133012Y-70000000D01*
X179430660Y-70000000D01*
X179409986Y-69869476D01*
X179330948Y-69626218D01*
X179330947Y-69626215D01*
X179214824Y-69398313D01*
X179064478Y-69191380D01*
X178883619Y-69010521D01*
X178676686Y-68860175D01*
X178448784Y-68744052D01*
X178448781Y-68744051D01*
X178205523Y-68665013D01*
X177952889Y-68625000D01*
X176950000Y-68625000D01*
X176950000Y-69750000D01*
X176450000Y-69750000D01*
X176450000Y-68625000D01*
X175447111Y-68625000D01*
X175194476Y-68665013D01*
X174951218Y-68744051D01*
X174951215Y-68744052D01*
X174723313Y-68860175D01*
X174516380Y-69010521D01*
X174335521Y-69191380D01*
X174185175Y-69398313D01*
X174069052Y-69626215D01*
X174069051Y-69626218D01*
X173990013Y-69869476D01*
X173969340Y-70000000D01*
X162395230Y-70000000D01*
X162398329Y-69956665D01*
X162426830Y-69912318D01*
X162712933Y-69626215D01*
X163333255Y-69005894D01*
X163390882Y-68941738D01*
X163407516Y-68921096D01*
X163483308Y-68808908D01*
X163516342Y-68730294D01*
X163560460Y-68676116D01*
X163626866Y-68654390D01*
X163694476Y-68672015D01*
X163741825Y-68723395D01*
X163754017Y-68765729D01*
X163755495Y-68780197D01*
X163810642Y-68946619D01*
X163810644Y-68946624D01*
X163902685Y-69095845D01*
X164026655Y-69219815D01*
X164175876Y-69311856D01*
X164175881Y-69311858D01*
X164342303Y-69367005D01*
X164342310Y-69367006D01*
X164445020Y-69377499D01*
X165295000Y-69377499D01*
X165295001Y-69377498D01*
X165295001Y-68177501D01*
X165355403Y-68202521D01*
X165480982Y-68227500D01*
X165609020Y-68227500D01*
X165734599Y-68202521D01*
X165795001Y-68177501D01*
X165795001Y-69377499D01*
X166644973Y-69377499D01*
X166644987Y-69377498D01*
X166747698Y-69367005D01*
X166914120Y-69311858D01*
X166914125Y-69311856D01*
X167063346Y-69219815D01*
X167187316Y-69095845D01*
X167279357Y-68946624D01*
X167279359Y-68946619D01*
X167334506Y-68780197D01*
X167334507Y-68780190D01*
X167345000Y-68677486D01*
X167345001Y-68677473D01*
X167345001Y-67827500D01*
X166145002Y-67827500D01*
X166170022Y-67767098D01*
X166195001Y-67641519D01*
X166195001Y-67513481D01*
X166170022Y-67387902D01*
X166145002Y-67327500D01*
X167345000Y-67327500D01*
X167345000Y-66477528D01*
X167344999Y-66477513D01*
X167334506Y-66374802D01*
X167279359Y-66208380D01*
X167279357Y-66208375D01*
X167187316Y-66059154D01*
X167063346Y-65935184D01*
X166914125Y-65843143D01*
X166914120Y-65843141D01*
X166747698Y-65787994D01*
X166747691Y-65787993D01*
X166644987Y-65777500D01*
X165795001Y-65777500D01*
X165795001Y-66977498D01*
X165734599Y-66952479D01*
X165609020Y-66927500D01*
X165480982Y-66927500D01*
X165355403Y-66952479D01*
X165295001Y-66977498D01*
X165295001Y-65777500D01*
X164445029Y-65777500D01*
X164445013Y-65777501D01*
X164342303Y-65787994D01*
X164175881Y-65843141D01*
X164175876Y-65843143D01*
X164026655Y-65935184D01*
X163902685Y-66059154D01*
X163810644Y-66208375D01*
X163810643Y-66208378D01*
X163773332Y-66320974D01*
X163733559Y-66378419D01*
X163669043Y-66405241D01*
X163600267Y-66392926D01*
X163549067Y-66345382D01*
X163540831Y-66328852D01*
X163504136Y-66238968D01*
X163470651Y-66177645D01*
X163470644Y-66177632D01*
X163445720Y-66135134D01*
X163445719Y-66135133D01*
X163445717Y-66135129D01*
X163339544Y-66001991D01*
X163333258Y-65994108D01*
X163333254Y-65994104D01*
X162205910Y-64866759D01*
X162205900Y-64866750D01*
X162205894Y-64866744D01*
X162141738Y-64809118D01*
X162121096Y-64792484D01*
X162113152Y-64787117D01*
X162008912Y-64716694D01*
X162008909Y-64716692D01*
X162008908Y-64716692D01*
X161842619Y-64646815D01*
X161842620Y-64646815D01*
X161842617Y-64646814D01*
X161775562Y-64627124D01*
X161727885Y-64614696D01*
X161548642Y-64594500D01*
X161548638Y-64594500D01*
X159251362Y-64594500D01*
X159251360Y-64594500D01*
X159165268Y-64599115D01*
X159165259Y-64599115D01*
X159165251Y-64599116D01*
X159165248Y-64599116D01*
X159165237Y-64599117D01*
X159138892Y-64601949D01*
X159005960Y-64627688D01*
X158838973Y-64695861D01*
X158838969Y-64695863D01*
X158777632Y-64729355D01*
X158735134Y-64754279D01*
X158735118Y-64754291D01*
X158594108Y-64866741D01*
X158594104Y-64866745D01*
X157502669Y-65958181D01*
X157441346Y-65991666D01*
X157414988Y-65994500D01*
X155841333Y-65994500D01*
X155835674Y-65994602D01*
X155812232Y-65995025D01*
X155807182Y-65995208D01*
X155803260Y-65995350D01*
X155803252Y-65995350D01*
X155803243Y-65995351D01*
X155737682Y-66000925D01*
X155725168Y-66001990D01*
X155725167Y-66001990D01*
X155725159Y-66001991D01*
X155550217Y-66045859D01*
X155550198Y-66045865D01*
X155484798Y-66070324D01*
X155439139Y-66089012D01*
X155283630Y-66180401D01*
X155024430Y-66374802D01*
X154805643Y-66538893D01*
X154764567Y-66569700D01*
X154699125Y-66594176D01*
X154690167Y-66594500D01*
X149123991Y-66594500D01*
X148952773Y-66612909D01*
X148901254Y-66624117D01*
X148861370Y-66633864D01*
X148861365Y-66633866D01*
X148693684Y-66700335D01*
X148693683Y-66700335D01*
X148693682Y-66700336D01*
X148544998Y-66802449D01*
X148544993Y-66802453D01*
X148492218Y-66848183D01*
X148492173Y-66848224D01*
X148421888Y-66917081D01*
X148316742Y-67063641D01*
X148316740Y-67063644D01*
X148246843Y-67229923D01*
X148246370Y-67231532D01*
X148246094Y-67232475D01*
X148246064Y-67232576D01*
X148236867Y-67263896D01*
X148227123Y-67297080D01*
X148214696Y-67344752D01*
X148194500Y-67523995D01*
X120750500Y-67523995D01*
X120750500Y-62124500D01*
X120770185Y-62057461D01*
X120822989Y-62011706D01*
X120874500Y-62000500D01*
X181875500Y-62000500D01*
X181942539Y-62020185D01*
G37*
%TD.AperFunction*%
%TA.AperFunction,Conductor*%
G36*
X165360324Y-110530536D02*
G01*
X165411375Y-110561321D01*
X167555325Y-112705272D01*
X167555326Y-112705273D01*
X167555329Y-112705275D01*
X167555331Y-112705277D01*
X167639225Y-112761332D01*
X167639224Y-112761332D01*
X167654357Y-112771442D01*
X167661873Y-112776465D01*
X167780256Y-112825501D01*
X167780260Y-112825501D01*
X167780261Y-112825502D01*
X167905928Y-112850500D01*
X167905931Y-112850500D01*
X171636267Y-112850500D01*
X171703306Y-112870185D01*
X171749061Y-112922989D01*
X171753972Y-112935494D01*
X171765186Y-112969334D01*
X171857288Y-113118656D01*
X171981344Y-113242712D01*
X172130666Y-113334814D01*
X172273953Y-113382294D01*
X172331396Y-113422065D01*
X172358219Y-113486581D01*
X172345904Y-113555357D01*
X172298361Y-113606557D01*
X172273952Y-113617705D01*
X172130666Y-113665186D01*
X172130663Y-113665187D01*
X171981342Y-113757289D01*
X171857289Y-113881342D01*
X171765187Y-114030663D01*
X171765184Y-114030671D01*
X171753972Y-114064506D01*
X171714199Y-114121950D01*
X171649683Y-114148772D01*
X171636267Y-114149500D01*
X166135929Y-114149500D01*
X166010261Y-114174497D01*
X166010255Y-114174499D01*
X165891874Y-114223534D01*
X165785326Y-114294726D01*
X165276085Y-114803967D01*
X165214762Y-114837452D01*
X165169007Y-114838759D01*
X165110546Y-114829500D01*
X164929454Y-114829500D01*
X164929449Y-114829500D01*
X164750589Y-114857829D01*
X164578363Y-114913787D01*
X164578360Y-114913788D01*
X164514192Y-114946485D01*
X164457897Y-114960000D01*
X164030330Y-114960000D01*
X164050075Y-114940255D01*
X164099444Y-114854745D01*
X164125000Y-114759370D01*
X164125000Y-114660630D01*
X164099444Y-114565255D01*
X164050075Y-114479745D01*
X164030330Y-114460000D01*
X164900000Y-114460000D01*
X164900000Y-114012172D01*
X164899999Y-114012155D01*
X164893598Y-113952627D01*
X164893596Y-113952620D01*
X164843354Y-113817913D01*
X164843350Y-113817906D01*
X164757190Y-113702812D01*
X164757187Y-113702809D01*
X164642093Y-113616649D01*
X164642086Y-113616645D01*
X164507379Y-113566403D01*
X164507372Y-113566401D01*
X164447844Y-113560000D01*
X164000000Y-113560000D01*
X164000000Y-114429670D01*
X163980255Y-114409925D01*
X163894745Y-114360556D01*
X163799370Y-114335000D01*
X163700630Y-114335000D01*
X163605255Y-114360556D01*
X163519745Y-114409925D01*
X163500000Y-114429670D01*
X163500000Y-113560000D01*
X163052155Y-113560000D01*
X162992627Y-113566401D01*
X162992620Y-113566403D01*
X162857913Y-113616645D01*
X162857906Y-113616649D01*
X162742812Y-113702809D01*
X162742809Y-113702812D01*
X162656649Y-113817906D01*
X162656645Y-113817913D01*
X162606403Y-113952620D01*
X162606401Y-113952627D01*
X162600000Y-114012155D01*
X162600000Y-114460000D01*
X163469670Y-114460000D01*
X163449925Y-114479745D01*
X163400556Y-114565255D01*
X163375000Y-114660630D01*
X163375000Y-114759370D01*
X163400556Y-114854745D01*
X163449925Y-114940255D01*
X163469670Y-114960000D01*
X162600000Y-114960000D01*
X162600000Y-115407844D01*
X162606401Y-115467372D01*
X162606403Y-115467379D01*
X162656645Y-115602086D01*
X162656649Y-115602093D01*
X162742809Y-115717187D01*
X162742812Y-115717190D01*
X162857906Y-115803350D01*
X162857913Y-115803354D01*
X162916026Y-115825029D01*
X162971960Y-115866900D01*
X162996377Y-115932365D01*
X162981525Y-116000638D01*
X162945579Y-116041528D01*
X162805069Y-116143616D01*
X162805060Y-116143623D01*
X162643622Y-116305061D01*
X162509421Y-116489771D01*
X162405770Y-116693196D01*
X162335215Y-116910339D01*
X162299500Y-117135837D01*
X162299500Y-117304928D01*
X162290855Y-117334368D01*
X162284332Y-117364355D01*
X162280577Y-117369370D01*
X162279815Y-117371967D01*
X162263181Y-117392609D01*
X162142609Y-117513181D01*
X162081286Y-117546666D01*
X162054928Y-117549500D01*
X158364072Y-117549500D01*
X158297033Y-117529815D01*
X158251278Y-117477011D01*
X158241334Y-117407853D01*
X158270359Y-117344297D01*
X158276391Y-117337819D01*
X163607391Y-112006819D01*
X163668714Y-111973334D01*
X163695072Y-111970500D01*
X163864162Y-111970500D01*
X164089660Y-111934784D01*
X164306799Y-111864231D01*
X164510228Y-111760579D01*
X164694937Y-111626379D01*
X164856379Y-111464937D01*
X164990579Y-111280228D01*
X165094231Y-111076799D01*
X165164784Y-110859660D01*
X165200500Y-110634157D01*
X165200500Y-110634156D01*
X165201221Y-110629604D01*
X165231150Y-110566470D01*
X165290461Y-110529538D01*
X165360324Y-110530536D01*
G37*
%TD.AperFunction*%
%TA.AperFunction,Conductor*%
G36*
X161075889Y-103720185D02*
G01*
X161121644Y-103772989D01*
X161126781Y-103786182D01*
X161183788Y-103961636D01*
X161183789Y-103961639D01*
X161239665Y-104071300D01*
X161251349Y-104094231D01*
X161266007Y-104122997D01*
X161372442Y-104269494D01*
X161372446Y-104269499D01*
X161500501Y-104397554D01*
X161500506Y-104397558D01*
X161541859Y-104427602D01*
X161647007Y-104503996D01*
X161717594Y-104539962D01*
X161808361Y-104586211D01*
X161808364Y-104586212D01*
X161858695Y-104602565D01*
X161980592Y-104642171D01*
X162063430Y-104655291D01*
X162159450Y-104670500D01*
X162159455Y-104670500D01*
X162340546Y-104670500D01*
X162340547Y-104670500D01*
X162399008Y-104661240D01*
X162468302Y-104670194D01*
X162506088Y-104696032D01*
X163824725Y-106014669D01*
X163889508Y-106079452D01*
X163915333Y-106105277D01*
X164021867Y-106176461D01*
X164021874Y-106176465D01*
X164140257Y-106225501D01*
X164140261Y-106225501D01*
X164140262Y-106225502D01*
X164265929Y-106250500D01*
X164265932Y-106250500D01*
X166279192Y-106250500D01*
X166346231Y-106270185D01*
X166366873Y-106286819D01*
X170185324Y-110105271D01*
X170185331Y-110105277D01*
X170291871Y-110176464D01*
X170291870Y-110176464D01*
X170301228Y-110180340D01*
X170410256Y-110225501D01*
X170410260Y-110225501D01*
X170410261Y-110225502D01*
X170535928Y-110250500D01*
X170535931Y-110250500D01*
X171586267Y-110250500D01*
X171653306Y-110270185D01*
X171699061Y-110322989D01*
X171703972Y-110335494D01*
X171715184Y-110369328D01*
X171715187Y-110369336D01*
X171716850Y-110372032D01*
X171807288Y-110518656D01*
X171931344Y-110642712D01*
X172080666Y-110734814D01*
X172247203Y-110789999D01*
X172247208Y-110789999D01*
X172248951Y-110790577D01*
X172306396Y-110830349D01*
X172333219Y-110894865D01*
X172320904Y-110963641D01*
X172273361Y-111014841D01*
X172248952Y-111025988D01*
X172130674Y-111065182D01*
X172130663Y-111065187D01*
X171981342Y-111157289D01*
X171857289Y-111281342D01*
X171765187Y-111430663D01*
X171765184Y-111430671D01*
X171753972Y-111464506D01*
X171714199Y-111521950D01*
X171649683Y-111548772D01*
X171636267Y-111549500D01*
X168290808Y-111549500D01*
X168223769Y-111529815D01*
X168203127Y-111513181D01*
X166196032Y-109506086D01*
X166162547Y-109444763D01*
X166161240Y-109399006D01*
X166161710Y-109396043D01*
X166170500Y-109340546D01*
X166170500Y-109159454D01*
X166170500Y-109159448D01*
X166150248Y-109031588D01*
X166142171Y-108980591D01*
X166110471Y-108883026D01*
X166086212Y-108808363D01*
X166086211Y-108808360D01*
X166050142Y-108737573D01*
X166003996Y-108647006D01*
X165974414Y-108606290D01*
X165897558Y-108500505D01*
X165897554Y-108500500D01*
X165769499Y-108372445D01*
X165769494Y-108372441D01*
X165622997Y-108266006D01*
X165622996Y-108266005D01*
X165622994Y-108266004D01*
X165552333Y-108230000D01*
X165461639Y-108183788D01*
X165461636Y-108183787D01*
X165289410Y-108127829D01*
X165110551Y-108099500D01*
X165110546Y-108099500D01*
X164929454Y-108099500D01*
X164929449Y-108099500D01*
X164750589Y-108127829D01*
X164578363Y-108183787D01*
X164578360Y-108183788D01*
X164514192Y-108216485D01*
X164457897Y-108230000D01*
X164030330Y-108230000D01*
X164050075Y-108210255D01*
X164099444Y-108124745D01*
X164125000Y-108029370D01*
X164125000Y-107930630D01*
X164099444Y-107835255D01*
X164050075Y-107749745D01*
X164030330Y-107730000D01*
X164900000Y-107730000D01*
X164900000Y-107282172D01*
X164899999Y-107282155D01*
X164893598Y-107222627D01*
X164893596Y-107222620D01*
X164843354Y-107087913D01*
X164843350Y-107087906D01*
X164757190Y-106972812D01*
X164757187Y-106972809D01*
X164642093Y-106886649D01*
X164642086Y-106886645D01*
X164507379Y-106836403D01*
X164507372Y-106836401D01*
X164447844Y-106830000D01*
X164000000Y-106830000D01*
X164000000Y-107699670D01*
X163980255Y-107679925D01*
X163894745Y-107630556D01*
X163799370Y-107605000D01*
X163700630Y-107605000D01*
X163605255Y-107630556D01*
X163519745Y-107679925D01*
X163500000Y-107699670D01*
X163500000Y-106830000D01*
X163052155Y-106830000D01*
X162992627Y-106836401D01*
X162992620Y-106836403D01*
X162857913Y-106886645D01*
X162857906Y-106886649D01*
X162742812Y-106972809D01*
X162742809Y-106972812D01*
X162656649Y-107087906D01*
X162656645Y-107087913D01*
X162606403Y-107222620D01*
X162606401Y-107222627D01*
X162600000Y-107282155D01*
X162600000Y-107730000D01*
X163469670Y-107730000D01*
X163449925Y-107749745D01*
X163400556Y-107835255D01*
X163375000Y-107930630D01*
X163375000Y-108029370D01*
X163400556Y-108124745D01*
X163449925Y-108210255D01*
X163469670Y-108230000D01*
X162600000Y-108230000D01*
X162600000Y-108677844D01*
X162606401Y-108737372D01*
X162606403Y-108737379D01*
X162656645Y-108872086D01*
X162656649Y-108872093D01*
X162742809Y-108987187D01*
X162742812Y-108987190D01*
X162857906Y-109073350D01*
X162857913Y-109073354D01*
X162916026Y-109095029D01*
X162971960Y-109136900D01*
X162996377Y-109202365D01*
X162981525Y-109270638D01*
X162945579Y-109311528D01*
X162805069Y-109413616D01*
X162805060Y-109413623D01*
X162643622Y-109575061D01*
X162509421Y-109759771D01*
X162405770Y-109963196D01*
X162335215Y-110180339D01*
X162299500Y-110405837D01*
X162299500Y-110574927D01*
X162279815Y-110641966D01*
X162263181Y-110662608D01*
X155569380Y-117356408D01*
X155508057Y-117389893D01*
X155438365Y-117384909D01*
X155383323Y-117344214D01*
X155331201Y-117276288D01*
X155254899Y-117176849D01*
X155254897Y-117176847D01*
X155254894Y-117176843D01*
X155069576Y-116991525D01*
X155069569Y-116991519D01*
X154861647Y-116831975D01*
X154861645Y-116831973D01*
X154861639Y-116831969D01*
X154861634Y-116831966D01*
X154861631Y-116831964D01*
X154686353Y-116730767D01*
X154638137Y-116680200D01*
X154624915Y-116611593D01*
X154650883Y-116546728D01*
X154707797Y-116506200D01*
X154748353Y-116499380D01*
X154880258Y-116499380D01*
X154880265Y-116499380D01*
X155140116Y-116465170D01*
X155393278Y-116397335D01*
X155635420Y-116297037D01*
X155862398Y-116165991D01*
X156070330Y-116006439D01*
X156255658Y-115821111D01*
X156415210Y-115613179D01*
X156473337Y-115512499D01*
X156523904Y-115464284D01*
X156560152Y-115452218D01*
X156570364Y-115450500D01*
X156593617Y-115450500D01*
X156719295Y-115425501D01*
X156777251Y-115413973D01*
X156867803Y-115376465D01*
X156950230Y-115342323D01*
X157105908Y-115238302D01*
X158988302Y-113355908D01*
X159092323Y-113200230D01*
X159163973Y-113027250D01*
X159164267Y-113025776D01*
X159193998Y-112876304D01*
X159200500Y-112843617D01*
X159200500Y-112656383D01*
X159200500Y-105425073D01*
X159220185Y-105358034D01*
X159236819Y-105337392D01*
X160837392Y-103736819D01*
X160864319Y-103722115D01*
X160890138Y-103705523D01*
X160896338Y-103704631D01*
X160898715Y-103703334D01*
X160925073Y-103700500D01*
X161008850Y-103700500D01*
X161075889Y-103720185D01*
G37*
%TD.AperFunction*%
%TA.AperFunction,Conductor*%
G36*
X164946231Y-101070185D02*
G01*
X164966873Y-101086819D01*
X168885325Y-105005272D01*
X168885332Y-105005278D01*
X168991863Y-105076459D01*
X168991867Y-105076461D01*
X168991874Y-105076466D01*
X169055444Y-105102797D01*
X169110256Y-105125501D01*
X169110260Y-105125501D01*
X169110261Y-105125502D01*
X169235928Y-105150500D01*
X169235931Y-105150500D01*
X171586267Y-105150500D01*
X171653306Y-105170185D01*
X171699061Y-105222989D01*
X171703972Y-105235494D01*
X171715186Y-105269334D01*
X171807288Y-105418656D01*
X171931344Y-105542712D01*
X172080666Y-105634814D01*
X172080667Y-105634814D01*
X172080670Y-105634816D01*
X172086677Y-105637617D01*
X172139117Y-105683788D01*
X172158271Y-105750981D01*
X172138057Y-105817862D01*
X172086677Y-105862383D01*
X172080670Y-105865183D01*
X171931342Y-105957289D01*
X171807289Y-106081342D01*
X171715187Y-106230663D01*
X171715184Y-106230671D01*
X171703972Y-106264506D01*
X171664199Y-106321950D01*
X171599683Y-106348772D01*
X171586267Y-106349500D01*
X171015783Y-106349500D01*
X170948744Y-106329815D01*
X170928106Y-106313185D01*
X170837782Y-106222861D01*
X170837781Y-106222860D01*
X170837780Y-106222859D01*
X170673920Y-106113371D01*
X170673907Y-106113364D01*
X170491839Y-106037950D01*
X170491829Y-106037947D01*
X170298543Y-105999500D01*
X170298541Y-105999500D01*
X170101459Y-105999500D01*
X170101457Y-105999500D01*
X169908170Y-106037947D01*
X169908160Y-106037950D01*
X169726092Y-106113364D01*
X169726079Y-106113371D01*
X169562218Y-106222860D01*
X169562214Y-106222863D01*
X169422863Y-106362214D01*
X169422860Y-106362218D01*
X169313371Y-106526079D01*
X169313364Y-106526092D01*
X169237950Y-106708160D01*
X169237947Y-106708170D01*
X169199500Y-106901456D01*
X169199500Y-106980191D01*
X169179815Y-107047230D01*
X169127011Y-107092985D01*
X169057853Y-107102929D01*
X168994297Y-107073904D01*
X168987819Y-107067872D01*
X167014673Y-105094726D01*
X166987345Y-105076466D01*
X166908127Y-105023535D01*
X166864048Y-105005277D01*
X166789744Y-104974499D01*
X166789740Y-104974498D01*
X166785345Y-104973624D01*
X166780949Y-104972749D01*
X166780946Y-104972748D01*
X166780946Y-104972749D01*
X166664071Y-104949500D01*
X166664069Y-104949500D01*
X164650808Y-104949500D01*
X164583769Y-104929815D01*
X164563127Y-104913181D01*
X163426033Y-103776087D01*
X163392548Y-103714764D01*
X163391241Y-103669007D01*
X163395505Y-103642086D01*
X163400501Y-103610546D01*
X163400501Y-103429454D01*
X163400501Y-103429448D01*
X163381658Y-103310483D01*
X163372172Y-103250591D01*
X163341492Y-103156166D01*
X163316213Y-103078363D01*
X163316211Y-103078360D01*
X163315707Y-103077371D01*
X163283516Y-103014191D01*
X163270001Y-102957896D01*
X163270001Y-102530330D01*
X163289746Y-102550075D01*
X163375256Y-102599444D01*
X163470631Y-102625000D01*
X163569371Y-102625000D01*
X163664746Y-102599444D01*
X163750256Y-102550075D01*
X163770001Y-102530330D01*
X163770001Y-103400000D01*
X164217829Y-103400000D01*
X164217845Y-103399999D01*
X164277373Y-103393598D01*
X164277380Y-103393596D01*
X164412087Y-103343354D01*
X164412094Y-103343350D01*
X164527188Y-103257190D01*
X164527191Y-103257187D01*
X164613351Y-103142093D01*
X164613355Y-103142086D01*
X164663597Y-103007379D01*
X164663599Y-103007372D01*
X164670000Y-102947844D01*
X164670001Y-102947827D01*
X164670001Y-102500000D01*
X163800331Y-102500000D01*
X163820076Y-102480255D01*
X163869445Y-102394745D01*
X163895001Y-102299370D01*
X163895001Y-102200630D01*
X163869445Y-102105255D01*
X163820076Y-102019745D01*
X163800331Y-102000000D01*
X164670001Y-102000000D01*
X164670001Y-101552172D01*
X164670000Y-101552155D01*
X164663599Y-101492627D01*
X164663597Y-101492620D01*
X164613355Y-101357913D01*
X164613351Y-101357906D01*
X164531682Y-101248811D01*
X164526974Y-101236190D01*
X164518154Y-101226011D01*
X164515002Y-101204094D01*
X164507264Y-101183347D01*
X164510126Y-101170185D01*
X164508210Y-101156853D01*
X164517408Y-101136711D01*
X164522115Y-101115074D01*
X164531639Y-101105549D01*
X164537235Y-101093297D01*
X164555862Y-101081326D01*
X164571520Y-101065668D01*
X164585963Y-101061981D01*
X164596013Y-101055523D01*
X164630948Y-101050500D01*
X164879192Y-101050500D01*
X164946231Y-101070185D01*
G37*
%TD.AperFunction*%
%TD*%
M02*
